<svg enable-background="new 0 0 400 400" viewBox="0 0 400 400" xmlns="http://www.w3.org/2000/svg"><g fill="#fbfafa"><path d="m37.59 393.81c-.92.31-1.52.05-2-.78-.7-1.2-1.52-2.34-2.47-3.78v4.59c-.55.03-.95.05-1.41.07-.03-.37-.06-.64-.06-.91 0-1.91 0-3.81 0-5.7 1.13-.41 1.77-.03 2.29.91.62 1.11 1.38 2.14 2.31 3.19v-4.2h1.35v6.61z"/><path d="m12.94 393.88v-6.75c1.9.19 3.93-.54 5.37 1.29.8 1.01.78 2.88.03 3.97-1.37 1.97-3.4 1.51-5.4 1.49m1.45-1.22c2.04.12 2.92-.58 2.89-2.21-.03-1.51-.98-2.19-2.89-2z"/><path d="m11.81 393.87h-5.49c.68-2.18 2.47-3.48 3.51-5.45h-3.08v-1.21h5.29c-.71 2.13-2.44 3.48-3.47 5.51.86 0 1.63.04 2.39-.01.79-.05 1.14.21.85 1.16"/><path d="m39.33 393.86v-6.61h3.7v1.07h-2.22v1.52c.68.04 1.34.09 2.07.13v1.07c-.72.05-1.38.09-2.1.14v1.48h2.4v1.19h-3.85z"/><path d="m27.71 388.56c-1.15-.3-2.46-.61-3.1.64-.37.73-.41 1.93-.06 2.67.63 1.35 1.99.93 3.17.68.35.94-.01 1.32-.93 1.46-1.62.25-3.05-.27-3.76-1.48-.73-1.24-.6-3.03.31-4.17.88-1.11 2.71-1.7 4-1.16.32.13.44.74.65 1.12-.1.08-.19.16-.28.24"/><path d="m49.15 387.24v1.07c-.59.02-1.17.05-1.87.08v5.44h-1.48v-5.44h-1.85c-.05-.4-.08-.73-.13-1.15z"/><path d="m20.06 387.21h1.33v6.62h-1.33z"/><path d="m30.68 393.25c-.49.38-.8.79-1.05.76-.32-.05-.6-.45-.9-.7.26-.24.51-.64.8-.67.29-.04.62.3 1.15.61"/></g><path d="m209.67 267.63c-1.52 7.7-3.06 14.99-4.36 22.32-1.48 8.35-2.31 16.85-4.29 25.08-.85 3.54-3.55 6.82-6.01 9.71-1.66 1.96-3.44 1.44-5.13-1.22-7.28-11.42-6.27-23.87-4.25-36.09 2.93-17.74 6.95-35.29 10.49-52.93.18-.87.53-1.81.37-2.63-2.07-10.21 1.19-20.27.83-30.42-.46-12.85-1.03-25.69-1.69-38.52-.59-11.39-1.32-22.78-2.13-34.16-.16-2.19 1.18-2.5 2.64-3.15 1.6-.71 2.67-.82 4.04.72 5.92 6.64 8.34 14.63 9.65 23.17.53 3.42 1.69 6.74 2.08 10.17.55 4.76 3.06 7.4 7.9 8.36 6.63-8.61 11.42-18.38 15.02-28.77.69-2 1.13-4.11 1.95-6.06 3.62-8.7 1.61-17.07-1.41-25.36-.4-1.1-1.32-2.04-2.07-3-12.22-15.64-19.56-32.99-18.57-53.22.13-2.65.76-5.31 1.42-7.89.26-1 1.24-1.82 2.49-3.54 3.67 6.52 6.96 12.19 10.07 17.96 3.13 5.79 5.89 11.79 9.2 17.48 1.44 2.46 3.86 4.35 6.16 6.87 3.03-5.51 3.65-10.55 3.63-15.7-.02-4.81-.17-9.62-.29-14.43-.24-9.67 1.66-18.57 6.16-27.46 2.19 2.97 4.46 5.38 5.93 8.2 3.38 6.52 3.95 13.78 3.93 20.92-.05 13.74-.53 27.49-1.01 41.22-.12 3.55.51 6.39 4.25 8.2 3.01-4.43 5.74-9.05 9.05-13.21 7.67-9.66 12.52-20.54 14.84-32.57.7-3.64 2.67-5.4 6.42-5.71 2.37 7.2 2.88 14.55 1.42 22.03-.6 3.07-1.35 6.12-1.86 9.2-1.26 7.5-4.16 14.12-8.68 20.36-8.93 12.3-17.36 24.98-25.84 37.61-.91 1.35-1.09 3.43-1.03 5.16.27 8.64 4.36 15.06 11.51 19.88 3.4 2.29 6.28 5.35 9.81 8.42 4.25-8.33 8.38-16.4 12.59-24.64 4.17 4 6.89 8.21 6.67 14.2-.27 7.25.22 14.53.22 21.8 0 1.45-.71 2.93-1.2 4.36-1.45 4.3-3.82 8.49-4.26 12.88-1.64 16.35-2.81 32.75-3.85 49.15-1.07 16.7-.1 33.28 3.39 49.72 1 4.72.72 9.75.76 14.64.16 17.78.21 35.56.29 53.34v3.1c-5.02-1.02-9.61-1.2-12.8-6.15-5.62-8.71-8.05-18.09-7.94-28.28.21-19.17-1.51-38.21-3.73-57.22-.37-3.14-1.24-4.82-4.7-5.51-6.56-1.31-12.95-3.49-19.5-4.89-2.94-.63-6.25-.86-9.13-.16-4.46 1.08-8.64.38-12.92-.39-5.18-.95-10.35-1.85-16.53-2.95zm65.76-31.11c-.06 0-.11-.01-.17-.01.05-.89.1-1.78.15-2.68.45-8.77-1.29-11.06-9.82-12.99-.76-.17-1.54-.43-2.3-.41-11.92.27-23.87.26-35.76 1.08-3.78.26-7.51 2.59-11.06 4.37-1.11.55-2.06 2.35-2.23 3.68-.72 5.87-.98 11.8-1.69 17.68-.31 2.52.51 4.26 2.58 5.25 2.49 1.18 5.1 2.48 7.78 2.81 4.18.52 8.46.48 12.68.3 6.38-.27 13.13-1.27 18.77 1.84 5.4 2.98 9.77 2.01 14.58-.37.89-.44 2.05-.51 2.77-1.12.97-.82 2.21-1.94 2.34-3.04.63-5.47.95-10.94 1.38-16.39zm-15.78-28.45c2.75-.39 5.67-.57 8.46-1.26 7.31-1.81 8.76-4.14 5.83-11.06-5.17-12.2-13.93-21.39-25.34-28.07-2.58-1.51-4.41-1.31-6.34 1.51-6.59 9.62-13.73 18.77-24.26 24.56-.85.47-1.6 1.92-1.63 2.94-.11 3.38 7.13 9.61 10.53 9.09 7.84-1.19 15.57-.53 23.29 1.03 3.05.61 6.18.84 9.46 1.26z" fill="#010000"/><path d="m150.57 211.65c-3.59 4.55-7.23 9.07-10.72 13.69-.61.81-.74 2.1-.81 3.18-.61 9.15-1.23 18.31-1.63 27.47-.06 1.32.7 3.02 1.64 3.99 4.12 4.26 8.79 8.03 12.58 12.56 2.71 3.24 4.49 7.3 6.35 11.16.85 1.77-.04 2.85-2.34 3.28-4.76.89-8.92.15-13.02-2.47-3.66-2.33-7.66-4.12-11.65-6.22-5.02 5.98-7.46 12.92-8.27 20.52-.64 6-1.32 12-1.88 18.01-.48 5.22-1.93 10.12-4.96 14.4-3.08 4.36-3.44 8.93-2.42 14.02.48 2.41.39 5.28-.49 7.53-1.96 5.04-2.63 10.1-2.32 15.44.28 4.76-1.67 6.57-7 6.5.53-4.78 1.31-9.51 1.52-14.26.54-12.07 1.26-24.15 1.08-36.21-.18-12.44 1.6-24.43 5.23-36.28 2.52-8.24 4.32-16.66 3.86-25.4-.33-6.32-1.68-12.66-6.12-17.02-12.36-12.14-14.48-27.73-16-43.63-.81-8.46-1.27-16.95-1.89-25.43-.15-1.96.07-3.63 2.62-3.65 7.61 9.89 10.98 21.55 14.03 33.37 1.28 4.95 2.73 9.92 4.75 14.6 1.95 4.51 5.57 7.67 10.73 9.33 1.13-3.3 2.31-6.29 3.18-9.37 2.39-8.44 5.95-16.33 10.35-23.91 3.75-6.48 7.35-13.05 10.72-19.74 1.09-2.17 1.84-4.84 1.72-7.23-.72-14.41-1.7-28.81-2.72-43.21-.09-1.3-.85-2.76-1.74-3.77-5.24-5.97-10.53-11.91-15.99-17.67-2.09-2.21-2.8-4.65-2.97-7.54-.56-9.63 2.02-18.59 5.7-27.32 5.08-12.04 9.99-24.15 15.46-36.01 1.12-2.42 4.2-4.91 6.78-5.46 3.47-.74 5.45 2.34 6.41 6.69 1 4.55 2.13 9.14 3.91 13.43 4.33 10.42 9.06 20.67 13.64 30.98 3.19 7.17 3.32 14.24-.56 21.25-1.62 2.93-3.01 5.98-4.51 8.98-1.73 3.45-2.91 6.93-1.76 10.91.34 1.17-.09 2.65-.44 3.91-1.16 4.2-2.09 8.51-3.74 12.51-3.75 9.13-3.64 18.28-1.85 27.83 2.36 12.63 3.63 25.46 6.01 38.09 1.21 6.41 3.66 12.61 5.87 18.79 1.71 4.8 3.08 9.53 2.3 14.72-.28 1.86-1.04 2.21-2.78 2.43-4.43.56-7.11-.93-9.12-5.11-2.7-5.62-6.07-10.92-9.38-16.22-1.65-2.64-3.8-4.97-5.72-7.45-.55.35-1.1.68-1.64 1.01zm-.29-140.16c-1.36 1.93-3.13 3.71-3.97 5.85-1.09 2.77-1.3 5.87-2.12 8.77-1.05 3.71-.25 7.05 1.54 10.29 2.14 3.87 6.03 4.99 9.78 2.45 1.37-.92 3.2-2.72 3.1-3.98-.42-5.09-1.43-10.15-2.37-15.18-.65-3.36-1.93-6.41-5.96-8.2z" fill="#010000"/></svg>