<svg enable-background="new 0 0 400 400" viewBox="0 0 400 400" xmlns="http://www.w3.org/2000/svg"><path d="m75.61 187.45c25.82 3.36 48.39-1.15 71.11-2.87 5.91-.45 11.82-1.08 17.74-1.1 27.43-.12 54.85-.08 82.28.01 1.79.01 3.71.58 5.35 1.36 7.59 3.59 15.46 3.31 23.33 1.64 9.51-2.01 18.98-4.27 28.41-6.61 5.36-1.33 10.59-1.76 16.19-1.21 10.11 1 20.31 1.07 30.48 1.39 7.85.24 14.53 2.47 18.46 9.91.05.1.12.19.17.29 3.68 7.41 3.03 9.8-4.11 13.71-13.95 7.64-28.73 12.63-44.81 11.82-7.09-.35-14.29-1.47-21.14-3.35-15.89-4.35-31.9-4.6-48.16-3.5-13.72.93-27.49 1.24-41.24 1.5-3.01.06-6.14-.96-9.04-1.96-3.61-1.25-7.08-1.5-10.81-.67-5.45 1.21-11 1.99-16.46 3.19-4.59 1.01-9.01 1.05-13.5-.51-2.63-.92-5.49-1.17-8.09-2.15-4.08-1.53-7.7-1.09-11.43 1.11-1.64.97-3.79 1.24-5.75 1.48-2.66.32-5.38.59-8.03.39-9.66-.71-17.95 2.53-25.33 8.48-2 1.61-3.92 1.79-6.14.58-1.07-.58-2.36-.78-3.41-1.39-9.64-5.59-19.86-5.4-30.48-3.7-10.15 1.62-20.43 2.48-30.65 3.61-.79.09-1.92-.05-2.43-.55-3.75-3.69-6.35-7.86-4.67-13.47.03-.11.1-.21.11-.32 1.3-12.18 10.69-14.49 20.14-15.49 11.52-1.21 23.16-1.22 31.91-1.62z" fill="#010100"/><g fill="#fafbfa"><path d="m6.4 11.7c-1-.8-1.9-1.6-2.9-2.3l.6-.7c.9.7 1.9 1.4 2.9 2.2zm-2.1 8.3c.7-2.1 1.4-4.2 2-6.4.2.1.6.3 1 .4-.7 2.3-1.3 4.4-1.9 6.4zm3-12.8c-1.1-.9-2.1-1.7-2.9-2.4l.6-.7c1 .8 2 1.5 3 2.4zm1.4-1.3v-.9h10.2v.9c-.9 4.2-2.3 7.3-4.1 9.4 1.3 1.4 3.2 2.7 5.7 4-.2.2-.4.5-.7.9-2.5-1.4-4.4-2.7-5.7-4.2-1.4 1.5-3.5 3-6.1 4.4 0 0 0 0-.1-.1-.3-.4-.5-.7-.7-.8 2.7-1.3 4.7-2.8 6.2-4.2-1.8-2.2-3-5.3-3.7-9.4zm9.2 0h-7.1c.6 3.8 1.7 6.7 3.4 8.7 1.7-2 2.9-4.8 3.7-8.7z"/><path d="m31.6 3.6h.9v2.3h4.1v9.1h1.7v.9h-16.6v-.9h1.7v-9.1h4.1v-2.3h.9v2.3h3.1v-2.3zm-4 13.3.6.8c-1.9.9-3.8 1.9-5.8 2.8-.2-.3-.3-.6-.5-.9 2-.9 3.9-1.8 5.7-2.7zm-3.2-10.1v3.7h3.1v-3.7zm0 4.5v3.7h3.1v-3.7zm4.1-4.5v3.7h3.1v-3.7zm0 4.5v3.7h3.1v-3.7zm9.1 9.1c-2.1-1.1-4.1-2-5.8-2.7l.5-.8c2.2.9 4.1 1.8 5.8 2.6zm-1.9-13.6h-3.1v3.7h3.1zm-3.2 4.5v3.7h3.1v-3.7z"/></g></svg>