<svg enable-background="new 0 0 400 400" viewBox="0 0 400 400" xmlns="http://www.w3.org/2000/svg"><path d="m374.8 390.4.4-.4c.7.5 1.3 1 1.8 1.4l-.5.5c-.5-.6-1.1-1.1-1.7-1.5zm1 7.3-.6-.3c.5-1.4 1.1-2.8 1.5-4.3.2.1.4.2.6.3-.5 1.3-1 2.8-1.5 4.3zm-.4-10.3.4-.4c.4.3 1 .8 1.7 1.4l-.5.5c-.4-.5-1-1-1.6-1.5zm2.5.3h1.7v-1h.6v1h3.5v-1h.6v1h1.8v.5h-1.8v1.4h-2v1h3.2v2h-3.2v.9h3.3v.5h-3.4c0 .3-.1.6-.1.9h4v.5h-3.7c.7.9 1.9 1.5 3.8 1.7-.1.2-.2.4-.3.6-2.1-.4-3.5-1.1-4-2.1-.4 1-1.8 1.7-4 2.2-.1-.2-.2-.4-.3-.6 2.1-.4 3.4-1 3.8-1.8h-3.4v-.5h3.6c.1-.3.1-.6.2-.9h-3.3v-.5h3.4c0-.3 0-.6 0-.9h-3.2v-2h3.3v-1h-2.1v-1.4h-1.7v-.5zm1.1 3.5v1h2.7c0-.3 0-.4 0-.4 0-.1 0-.2 0-.2 0-.1 0-.2 0-.3h-2.7zm1.2-3v.9h3.5v-.9zm4.7 3h-2.6v.6.4h2.6z" fill="#fbfcfa"/><path d="m393.6 386.7h.6v1.5h2.7v6.1h1.1v.6h-11v-.6h1.1v-6.1h2.7v-1.5h.6v1.5h2.1v-1.5zm-2.7 8.8.4.6c-1.2.6-2.5 1.3-3.8 1.9-.1-.2-.2-.4-.3-.6 1.2-.6 2.5-1.2 3.7-1.9zm-2.2-6.7v2.4h2.1v-2.4zm0 3v2.5h2.1v-2.5zm2.8-3v2.4h2.1v-2.4zm0 3v2.5h2.1v-2.5zm6 6.1c-1.4-.7-2.7-1.3-3.9-1.8l.3-.6c1.5.6 2.7 1.2 3.9 1.7zm-1.2-9.1h-2.1v2.4h2.1zm-2.1 3v2.5h2.1v-2.5z" fill="#fbfcfa"/><path d="m187.59 308.43c-.91 1.21-1.38 1.99-1.99 2.62-4.96 5.2-10.97 7.38-18.17 6.68-6.34-.62-12.71-1.03-19.07-1.22-3.67-.11-7.36.4-11.03.64-21.41 1.43-42.39-1.87-63.33-5.65-16.5-2.97-32.98-6.09-49.49-8.98-2.35-.41-2.61-1.43-2.87-3.49-.59-4.58 1.05-7.32 5.14-9.58 6.25-3.46 12.07-7.68 18.15-11.47 1.71-1.07 2.4-2.27 2.38-4.33-.1-9.85.33-19.72-.14-29.54-.56-11.8 2.59-23.07 4.02-34.57 2.25-18.09 5.21-36.18 2.96-54.47-1.02-8.29-3.05-16.45-4.76-24.65-.23-1.09-1.1-2.19-1.96-2.98-4.36-4.02-8.73-8.04-13.29-11.83-1.01-.84-2.8-1.15-4.19-1.07-2.62.15-5.22.77-7.89 1.2.1-4.67 1.49-7.68 6.19-8.87 4.2-1.06 8.37-2.63 12.21-4.62 8.77-4.55 17.83-4.38 27.32-3.29 19.67 2.25 39.37 4.41 59.12 5.64 8.72.54 17.59-1.17 26.37-2.04 21.26-2.09 42.52-4.28 63.77-6.42 23.26-2.35 46.52-4.7 69.78-7.06 7.01-.71 14.01-1.5 21.03-2.09.99-.08 2.36.56 3.05 1.33 4.86 5.39 10.63 7.37 17.52 4.7 5.09-1.97 10.15-4.08 14.99-6.58 2.32-1.2 3.81-1 5.67.52 3.49 2.83 6.17 6.5 5.92 10.84-.86 14.61 4.6 28.15 6.62 42.25 2.83 19.69 6.41 39.28 9.56 58.93.27 1.68 0 3.58-.51 5.22-2.36 7.46-4.96 14.83-7.31 22.29-.47 1.5-.49 3.28-.22 4.84 1.61 9.46 3.84 18.84 4.9 28.35.76 6.79-.98 13.13-7.09 17.79-4.78 3.65-9.28 7.83-13.23 12.36-8.16 9.36-19 13.4-30.43 16.51-18.63 5.07-37.69 7.66-56.86 9.34-14.03 1.23-28.12 1.87-42.2 2.38-6.01.22-12.05-.56-18.08-.94-3.43-.22-6.54-1.13-8.69-4.16-1.05-1.44-2.32-2.72-3.87-4.53zm-114.79-174.02c-.37 7.66-.52 15.04-1.13 22.37-.91 11.03-.66 21.82 3.91 32.19.59 1.34.25 3.28-.12 4.83-3.02 12.49-6.09 24.97-9.31 37.41-.61 2.36-.53 4.34.84 6.31 4.83 6.96 5.05 14.2 1.68 21.89-1.79 4.08 2.91 12.56 7.41 13.41 5.92 1.13 11.9 2.18 17.91 2.61 16.51 1.2 33.03 2.2 49.56 3.03 17.35.86 34.74 1.52 51.01-6.28 6.51-3.12 12.76-2.96 19.22.12 2.46 1.17 5.31 2.16 7.97 2.13 6.03-.06 12.04-1.03 18.07-1.2 4.99-.13 10.08-.15 14.97.7 9.51 1.66 18.99 3.08 28.66 2.11 5.67-.57 11.34-1.21 16.99-2.01 12.09-1.7 23.15-5.92 32.53-13.94 1-.86 2.1-2.25 2.17-3.44 1.13-20.02 3.95-40.19-4.23-59.56-.43-1.02-.66-2.14-.97-3.21-3.14-10.95-3.53-21.94-1.16-33.15 2.47-11.7 4.76-23.46 6.44-35.29.76-5.31.29-10.92-.47-16.27-.52-3.63-2.73-4.43-5.8-3.34-27.17 9.66-55.35 13.39-84 13.67-9.29.09-18.16 1.18-26.99 3.98-17.15 5.42-34.32 10.95-52.78 8.84-6.64-.76-13.34-.99-19.95-1.94-9.34-1.34-18.49-4.59-28.12-2.02-1.61.43-3.32.48-4.98.7-12.93 1.78-25.9 3.53-39.33 5.35zm29.23 154.75v6.95h12.24c-4.53-2.57-8.24-4.68-12.24-6.95z" fill="#010101"/></svg>