<svg enable-background="new 0 0 400 400" viewBox="0 0 400 400" xmlns="http://www.w3.org/2000/svg"><path d="m27.04 206.1c8.85-.6 17.21-1.16 25.57-1.71.44-.03 1.08-.13 1.3.1 3.36 3.53 6.91 1.85 10.51.53 1.02-.37 2.41-.84 3.23-.45 5.51 2.66 11.01.43 16.49.16 2.67-.13 5.33-.61 7.98-1 2.82-.41 5.58-.49 8.01 1.33 2.34 1.75 4.39.22 6.18-.84 7.47-4.43 14.34-2.69 21.07 1.62.66.42 1.26.99 1.98 1.24.64.22 1.6.38 2.08.05 4.61-3.12 9.61-3.26 14.83-2.22 10.46 2.09 20.94.48 31.4.11 9.27-.32 18.54-.85 27.79-1.62 1.66-.14 3.73-1.53 4.67-2.96 3.14-4.82 3.45-10.45 2.68-15.9-3.9-27.59-3.2-55.36-3.5-83.1-.05-4.91.07-9.9.87-14.72 1.65-9.87.64-19.56-.51-29.36-1.22-10.39-1.23-20.8 3.01-30.71.22-.51.45-1 .76-1.68 3.66.52 6.55 2.37 8.74 5.1 6.56 8.18 10.29 17.19 7.81 27.99-.72 3.13-1.25 6.47-.98 9.64.87 10.36-.36 20.54-1.62 30.77-2.23 18.1-1.99 36.25 1.19 54.17 2.24 12.62 5.76 25.01 8.62 37.53.64 2.8 1.35 5.71 1.23 8.54-.19 4.67 1.37 6.95 6.22 8.7 3.51 1.27 7.46 2.16 11.14 1.94 10.82-.67 20.71 2.9 30.72 5.94 3.16.96 5.93.58 9.08.07 4.88-.8 9.95-.71 14.94-.64 14.42.2 28.84.54 43.26.9 2.32.06 4.76.15 6.92.89 1.66.57 3.38 1.89 4.35 3.36 2.5 3.77 1.56 6.03-2.67 7.52-7.56 2.66-15.25 1.46-22.93.84-4.98-.4-9.98-.65-14.97-.98-1.11-.07-2.29-.02-3.3-.38-6.23-2.22-12.65-2.43-19.17-2.36-13.53.15-27.07.2-40.6-.06-3.61-.07-7.17-1.77-10.8-2.08-2.88-.24-5.99.04-8.72.93-2.98.97-4.43 3.32-4.59 6.92-1.56 36-3.31 72-5.08 107.99-.37 7.6-.97 15.18-1.62 22.76-.2 2.32-.68 4.67-1.45 6.86-1.31 3.74-3.95 6.15-8.25 6.77-3.49-5.77-3.85-12.09-3.38-18.66.4-5.56.47-11.16.44-16.74-.01-1.6-.57-3.34-1.36-4.76-1.95-3.5-2.26-7.15-1.85-11.02.45-4.23.86-8.47 1.01-12.71.12-3.55.7-6.78 3-9.68.7-.88.69-2.54.57-3.8-1.12-11.58-2.57-23.13-3.46-34.73-.72-9.47-.65-19-1.24-28.49-.23-3.75-1.2-7.47-1.96-11.17-.52-2.54-2.05-3.58-4.8-3.48-5.92.21-11.86-.06-17.79.1-5.31.15-10.47-.18-15.42-2.37-1.17-.52-2.61-.55-3.93-.56-7.95-.05-15.9-.16-23.84.02-6.87.15-13.43-.76-20.11-2.61-4.13-1.15-9.02.13-13.52.67-15.1 1.82-30.15 4.12-45.28 5.53-5.21.48-10.62-1.05-15.92-1.79-6.75-.95-13.47-2.18-20.24-2.97-2.63-.31-3.68-1.39-3.89-3.86-.11-1.67-.52-3.29-.9-5.42z" fill="#010100"/><g fill="#fcfafa"><path d="m342.2 3.2-6.3 9.2h6.1v1.2h-8.2v-.5l6.2-9.1h-5.7v-1.2h7.8v.4z"/><path d="m344 13.7v-10.9h3.1c1.6 0 3 .5 4.1 1.4 1.1 1 1.6 2.2 1.6 3.9s-.5 3-1.6 4-2.5 1.5-4.2 1.5h-3zm1.4-9.6v8.4h1.6c1.4 0 2.5-.4 3.2-1.1.8-.8 1.2-1.8 1.2-3.2s-.4-2.4-1.2-3.1-1.8-1-3.1-1z"/><path d="m356.3 2.8v10.9h-1.4v-10.9z"/><path d="m366.6 13.2c-.8.4-1.8.6-3 .6-1.6 0-2.8-.5-3.7-1.5s-1.4-2.3-1.4-3.9c0-1.7.5-3.2 1.6-4.2s2.4-1.6 4-1.6c1 0 1.9.1 2.6.4v1.5c-.8-.4-1.6-.6-2.6-.6-1.2 0-2.2.4-3 1.2s-1.1 1.9-1.1 3.3c0 1.3.4 2.3 1.1 3.1s1.6 1.1 2.8 1.1c1.1 0 2-.2 2.8-.7v1.3z"/><path d="m368.2 13c0-.3.1-.5.3-.6.2-.2.4-.3.6-.3.3 0 .5.1.7.3s.3.4.3.6-.1.5-.3.6c-.2.2-.4.3-.7.3s-.5-.1-.6-.3c-.2-.2-.3-.4-.3-.6z"/><path d="m381.1 13.7h-1.7l-5.5-8.4c-.2-.2-.3-.5-.4-.7 0 .2.1.8.1 1.5v7.6h-1.4v-10.9h1.8l5.3 8.3c.3.4.4.6.4.8 0-.3-.1-.8-.1-1.6v-7.5h1.4v10.9z"/><path d="m389.7 13.7h-5.8v-10.9h5.6v1.2h-4.2v3.5h3.9v1.2h-3.9v3.7h4.4z"/><path d="m398.4 4.1h-3.1v9.6h-1.4v-9.6h-3.1v-1.3h7.7v1.3z"/></g></svg>