<svg enable-background="new 0 0 400 400" viewBox="0 0 400 400" xmlns="http://www.w3.org/2000/svg"><g fill="#010100"><path d="m22.17 324.46c7.52-4.42 15.37-7.2 23.79-7.9 7.23-.6 14.52-.93 21.78-.78 10.82.22 21.35-1.11 31.91-3.42 7.42-1.62 14.8-2.86 21.81-6.08 2.78-1.27 6.35-.88 9.57-1.11 10.82-.78 21.66-1.38 32.46-2.32 2.95-.26 5.9-1.24 8.7-2.28 5.41-2 10.8-3.32 16.67-2.35 8.2 1.34 16.26-.2 24.24-1.9 24.21-5.13 48.7-6.33 73.38-6.35 9.17-.01 18.32-2.56 27.5-3.72 2.65-.34 5.68-.57 8.06.37 5.31 2.09 10.51 1.86 16.04 1.49 7.41-.5 14.96-.38 22.34.45 3.89.44 7.54 2.96 11.29 4.54.05.46.11.93.16 1.39-3.56 2.56-6.89 5.56-10.73 7.58-4.41 2.32-9.15 4.77-13.98 5.4-10.88 1.43-21.31 4.72-32.03 6.65-5.99 1.07-12.32.06-18.4.78-12.98 1.54-25.88 3.77-38.85 5.36-8.08.99-16.23 1.69-24.36 1.85-9.39.18-18.76-.09-27.93 2.55-1.89.54-4.05.81-5.97.5-9.82-1.57-19.38.82-29.03 1.7-21.94 2-43.86 4.28-65.78 6.43-6.12.6-12.25 1.2-18.38 1.65-1.18.09-2.83-.19-3.56-.96-2.44-2.57-5.27-2.5-7.58-.71-8.58 6.66-18.06 6.94-28.06 4.71-5.45-1.22-10.9-2.5-16.39-3.52-3.38-.63-5.65-2.2-6.68-5.57-.44-1.47-1.25-2.83-1.99-4.43z"/><path d="m350.41 189.85c-3.23 2.83-6.53 4.54-10.76 4.32-14.65-.77-28.54 3.14-42.44 7.01-1.16.32-2.57.79-3.58.43-8.25-3.01-16.36-.43-24.5.44-25.67 2.76-51.32 5.83-77.02 8.3-27.94 2.68-55.92 5.02-83.91 7.1-16.54 1.23-32.16 6.48-48.18 9.99-10.09 2.22-20.16 2.61-30.27.36-.85-.19-1.68-.52-2.76-.85.32-4.74.64-9.4.98-14.47 6.43-1.29 12.84-2.6 19.26-3.87 7.56-1.5 15.13-3.01 22.71-4.41 1.24-.23 2.74-.28 3.85.2 2.95 1.28 5.68 1.1 8.72.19 8.99-2.69 17.98-5.51 27.14-7.44 5.71-1.2 11.74-.86 17.63-1.23 1.55-.1 3.34.19 4.62-.48 9.36-4.92 19.72-4.91 29.75-5.74 19.26-1.6 38.62-1.96 57.88-3.57 10.66-.89 21.22-3.07 31.77-5 13.23-2.42 26.49-4.26 39.99-3.78 10.57.37 20.83-1.33 31.2-3.46 9.55-1.96 19.83 1.89 25.87 12.23.68 1.15 1.29 2.34 2.05 3.73z"/><path d="m89.7 104.64c-18.32-2.97-36.18-.57-54.04-.08-2.86.08-4.36-.31-4.62-3.49-.22-2.65-1.25-5.23-1.52-7.88-.1-.94.78-2.65 1.56-2.89 3.71-1.15 7.55-2.72 11.33-2.68 16 .17 31.58-3.08 47.28-5.28 6.42-.9 12.8-2.26 19.25-2.75 4.52-.35 9.13.48 13.7.68 5 .22 10.02.57 15.01.44 13.75-.35 27.5-1.43 41.23-1.24 10.92.15 21.3-2.23 31.77-4.43 7.81-1.65 15.59-2.94 23.59-2.45 14.58.88 28.65-2.84 42.9-4.85 14.83-2.09 29.54-5.26 44.42-6.73 9.3-.91 18.3 2.25 26.31 7.44.46.3.83.75 1.21 1.15 3.02 3.2 2.98 4.57-.56 7.13-8.65 6.25-18.64 9.13-28.99 10.64-4.46.65-9.09.12-13.64.13-.67 0-1.49-.25-1.98.05-6.33 3.92-13.48 2.6-20.29 2.98-6.94.39-13.7 1.39-20.54 2.59-7.64 1.34-15.58 1.78-23.35 1.5-14.86-.54-29.46 1.31-44.1 3.24-14.3 1.88-28.56 4.18-42.92 5.49-7.51.68-15.19-.15-22.77-.7-10.76-.79-21.42-.6-32.06 1.33-2.8.49-5.73.47-8.18.66z"/></g><path d="m6.4 11.7c-1-.8-1.9-1.6-2.9-2.3l.6-.7c.9.7 1.9 1.4 2.9 2.2zm-2.1 8.3c.7-2.1 1.4-4.2 2-6.4.2.1.6.3 1 .4-.7 2.3-1.3 4.4-1.9 6.4zm3-12.8c-1.1-.9-2.1-1.7-2.9-2.4l.6-.7c1 .8 2 1.5 3 2.4zm1.4-1.3v-.9h10.2v.9c-.9 4.2-2.3 7.3-4.1 9.4 1.3 1.4 3.2 2.7 5.7 4-.2.2-.4.5-.7.9-2.5-1.4-4.4-2.7-5.7-4.2-1.4 1.5-3.5 3-6.1 4.4 0 0 0 0-.1-.1-.3-.4-.5-.7-.7-.8 2.7-1.3 4.7-2.8 6.2-4.2-1.8-2.2-3-5.3-3.7-9.4zm9.2 0h-7.1c.6 3.8 1.7 6.7 3.4 8.7 1.7-2 2.9-4.8 3.7-8.7z" fill="#fafbfa"/><path d="m31.6 3.6h.9v2.3h4.1v9.1h1.7v.9h-16.6v-.9h1.7v-9.1h4.1v-2.3h.9v2.3h3.1v-2.3zm-4 13.3.6.8c-1.9.9-3.8 1.9-5.8 2.8-.2-.3-.3-.6-.5-.9 2-.9 3.9-1.8 5.7-2.7zm-3.2-10.1v3.7h3.1v-3.7zm0 4.5v3.7h3.1v-3.7zm4.1-4.5v3.7h3.1v-3.7zm0 4.5v3.7h3.1v-3.7zm9.1 9.1c-2.1-1.1-4.1-2-5.8-2.7l.5-.8c2.2.9 4.1 1.8 5.8 2.6zm-1.9-13.6h-3.1v3.7h3.1zm-3.2 4.5v3.7h3.1v-3.7z" fill="#fafbfa"/></svg>