<svg enable-background="new 0 0 400 400" viewBox="0 0 400 400" xmlns="http://www.w3.org/2000/svg"><path d="m21.68 271.97c13.45-8.51 27.63-14.65 43.29-15.77 30.96-2.22 61.54-6.9 92.04-12.47 38.31-7 76.75-13.37 115.68-15.27 17.04-.83 34.2.36 51.28 1.26 9.34.49 18.68 1.89 27.87 3.66 4.48.87 8.77 3.24 12.85 5.48 3.25 1.79 5.65 4.71 6.72 8.92-3.43 1.75-7.06 3.23-10.28 5.32-10.23 6.64-21.27 9.41-33.4 8.01-5.91-.68-11.48.61-16.9 3.1-4.87 2.23-10.13 3.65-14.9 6.04-6.67 3.34-13.52 4.05-20.77 3.18-4.88-.59-9.83-.61-14.71-1.17-4.84-.56-9.16.34-13.46 2.73-6.44 3.57-12.84 7.93-19.83 9.62-6.88 1.66-14.47.44-21.74.44-17.35.01-34.73-.54-52.06.14-22.45.88-44.9 2.39-67.29 4.29-18.92 1.61-37.53.65-55.95-3.93-.87-.22-1.93-.82-2.33-1.55-2.13-3.92-4.05-7.93-6.11-12.03z" fill="#010100"/><path d="m79.4 169.4c-5.04 0-10.08-.17-15.11.07-2.56.12-3.52-.85-4.07-3.15-.77-3.26-1.67-6.51-2.82-9.65-.77-2.1-.18-3.18 1.55-4.38 14.4-9.94 30.52-15.73 47.37-19.8 20.76-5.01 41.96-6.47 63.16-8 30.81-2.23 61.47-5.6 91.86-11.32 4.99-.94 10.61-.56 15.56.68 9.37 2.36 18.72 5.2 27.61 8.96 7.05 2.98 9.74 9.23 8.3 15.51-.34 1.49-1.3 3.09-2.45 4.12-11.57 10.32-25.28 15.64-40.56 17.59-33.39 4.27-66.74 8.74-100.1 13.2-10.97 1.47-21.89 3.34-32.89 4.62-2.86.33-5.93-.72-8.86-1.36-9.39-2.05-18.7-4.61-28.16-6.17-6.68-1.1-13.57-.89-20.36-1.27-.02.11-.02.23-.03.35z" fill="#010100"/><g fill="#fafbfa"><path d="m6.4 11.7c-1-.8-1.9-1.6-2.9-2.3l.6-.7c.9.7 1.9 1.4 2.9 2.2zm-2.1 8.3c.7-2.1 1.4-4.2 2-6.4.2.1.6.3 1 .4-.7 2.3-1.3 4.4-1.9 6.4zm3-12.8c-1.1-.9-2.1-1.7-2.9-2.4l.6-.7c1 .8 2 1.5 3 2.4zm1.4-1.3v-.9h10.2v.9c-.9 4.2-2.3 7.3-4.1 9.4 1.3 1.4 3.2 2.7 5.7 4-.2.2-.4.5-.7.9-2.5-1.4-4.4-2.7-5.7-4.2-1.4 1.5-3.5 3-6.1 4.4 0 0 0 0-.1-.1-.3-.4-.5-.7-.7-.8 2.7-1.3 4.7-2.8 6.2-4.2-1.8-2.2-3-5.3-3.7-9.4zm9.2 0h-7.1c.6 3.8 1.7 6.7 3.4 8.7 1.7-2 2.9-4.8 3.7-8.7z"/><path d="m31.6 3.6h.9v2.3h4.1v9.1h1.7v.9h-16.6v-.9h1.7v-9.1h4.1v-2.3h.9v2.3h3.1v-2.3zm-4 13.3.6.8c-1.9.9-3.8 1.9-5.8 2.8-.2-.3-.3-.6-.5-.9 2-.9 3.9-1.8 5.7-2.7zm-3.2-10.1v3.7h3.1v-3.7zm0 4.5v3.7h3.1v-3.7zm4.1-4.5v3.7h3.1v-3.7zm0 4.5v3.7h3.1v-3.7zm9.1 9.1c-2.1-1.1-4.1-2-5.8-2.7l.5-.8c2.2.9 4.1 1.8 5.8 2.6zm-1.9-13.6h-3.1v3.7h3.1zm-3.2 4.5v3.7h3.1v-3.7z"/></g></svg>