<svg enable-background="new 0 0 400 400" viewBox="0 0 400 400" xmlns="http://www.w3.org/2000/svg"><path d="m21.88 218.18c.81-4.94 1.96-9.23 5.97-12.97 17.53-16.37 36.27-30.92 58.25-40.86 15.63-7.07 32.18-10.72 49.09-13.05 12.41-1.71 24.76-3.85 37.17-5.54 4.85-.66 9.8-.73 14.71-.82 6.94-.13 13.89.07 20.82-.08 3.88-.08 7.31 1 10.97 2.19 4.22 1.37 8.98 1.22 13.53 1.4 9.05.36 18.18-.07 27.16.9 7.05.76 13.93 3.09 20.88 4.79 4.78 1.17 9.47 2.74 14.3 3.62 10.72 1.97 20.34 6.27 29.53 12.1 10.09 6.4 20.74 11.9 30.91 18.19 7.6 4.7 13.47 11.07 15.72 20.11 1.04 4.19.57 5.51-3.66 5.87-2.82.24-5.89-.6-8.61-1.61-4.77-1.76-9.37-4.02-14.03-6.06-.51-.22-1.1-.32-1.52-.65-11.58-9.07-25.45-12.83-39.24-16.67-7.2-2.01-14.6-3.33-21.89-5.04-2.38-.56-4.86-1.03-7.03-2.1-8.39-4.12-17.31-5.64-26.52-6.41-10.25-.85-20.46-2.37-30.72-3.09-5.54-.39-11.15.31-16.74.44-10.27.23-20.57.98-30.8.45-10.84-.56-21.36.4-31.87 2.92-8.7 2.08-17.62 3.3-26.2 5.73-11.05 3.12-21.88 7.03-32.78 10.68-4.62 1.55-5.35 1.21-6.87-3.44-.25-.76-1.26-1.68-2-1.76-.92-.09-2.5.36-2.79 1.02-.77 1.76-1.46 3.78-1.33 5.64.24 3.44-.71 5.65-3.92 7.28-10.36 5.28-20.66 10.68-30.83 16.32-3.3 1.86-6.28 1.72-9.66.5z" fill="#010100"/><path d="m117.18 255.61c-2.27-3.89-.66-5.68 2.59-7.27 5.22-2.56 10.36-5.32 15.29-8.39 5.64-3.51 11.61-5.34 18.23-5.92 11.92-1.05 23.77-2.91 35.7-3.78 4.69-.34 9.5 1.23 14.28 1.59 10.59.78 21.24 1 31.79 2.13 5.8.62 11.55 2.32 17.15 4.1 3.31 1.05 5.78 3.68 7.23 7.25-7.14 5.31-15.11 8.52-23.77 9.31-7.08.65-14.26.19-21.4.26-1.45.01-2.9.1-4.33.32-3.71.57-7.07.2-10.66-1.48-2.6-1.22-6.07-.85-9.14-.74-23.7.86-47.39 1.84-71.08 2.76-.66.03-1.33-.09-1.88-.14z" fill="#010100"/><g fill="#fafbfa"><path d="m6.4 11.7c-1-.8-1.9-1.6-2.9-2.3l.6-.7c.9.7 1.9 1.4 2.9 2.2zm-2.1 8.3c.7-2.1 1.4-4.2 2-6.4.2.1.6.3 1 .4-.7 2.3-1.3 4.4-1.9 6.4zm3-12.8c-1.1-.9-2.1-1.7-2.9-2.4l.6-.7c1 .8 2 1.5 3 2.4zm1.4-1.3v-.9h10.2v.9c-.9 4.2-2.3 7.3-4.1 9.4 1.3 1.4 3.2 2.7 5.7 4-.2.2-.4.5-.7.9-2.5-1.4-4.4-2.7-5.7-4.2-1.4 1.5-3.5 3-6.1 4.4 0 0 0 0-.1-.1-.3-.4-.5-.7-.7-.8 2.7-1.3 4.7-2.8 6.2-4.2-1.8-2.2-3-5.3-3.7-9.4zm9.2 0h-7.1c.6 3.8 1.7 6.7 3.4 8.7 1.7-2 2.9-4.8 3.7-8.7z"/><path d="m31.6 3.6h.9v2.3h4.1v9.1h1.7v.9h-16.6v-.9h1.7v-9.1h4.1v-2.3h.9v2.3h3.1v-2.3zm-4 13.3.6.8c-1.9.9-3.8 1.9-5.8 2.8-.2-.3-.3-.6-.5-.9 2-.9 3.9-1.8 5.7-2.7zm-3.2-10.1v3.7h3.1v-3.7zm0 4.5v3.7h3.1v-3.7zm4.1-4.5v3.7h3.1v-3.7zm0 4.5v3.7h3.1v-3.7zm9.1 9.1c-2.1-1.1-4.1-2-5.8-2.7l.5-.8c2.2.9 4.1 1.8 5.8 2.6zm-1.9-13.6h-3.1v3.7h3.1zm-3.2 4.5v3.7h3.1v-3.7z"/></g></svg>