<svg enable-background="new 0 0 400 400" viewBox="0 0 400 400" xmlns="http://www.w3.org/2000/svg"><path d="m374.8 390.4.4-.4c.7.5 1.3 1 1.8 1.4l-.5.5c-.5-.6-1.1-1.1-1.7-1.5zm1 7.3-.6-.3c.5-1.4 1.1-2.8 1.5-4.3.2.1.4.2.6.3-.5 1.3-1 2.8-1.5 4.3zm-.4-10.3.4-.4c.4.3 1 .8 1.7 1.4l-.5.5c-.4-.5-1-1-1.6-1.5zm2.5.3h1.7v-1h.6v1h3.5v-1h.6v1h1.8v.5h-1.8v1.4h-2v1h3.2v2h-3.2v.9h3.3v.5h-3.4c0 .3-.1.6-.1.9h4v.5h-3.7c.7.9 1.9 1.5 3.8 1.7-.1.2-.2.4-.3.6-2.1-.4-3.5-1.1-4-2.1-.4 1-1.8 1.7-4 2.2-.1-.2-.2-.4-.3-.6 2.1-.4 3.4-1 3.8-1.8h-3.4v-.5h3.6c.1-.3.1-.6.2-.9h-3.3v-.5h3.4c0-.3 0-.6 0-.9h-3.2v-2h3.3v-1h-2.1v-1.4h-1.7v-.5zm1.1 3.5v1h2.7c0-.3 0-.4 0-.4 0-.1 0-.2 0-.2 0-.1 0-.2 0-.3h-2.7zm1.2-3v.9h3.5v-.9zm4.7 3h-2.6v.6.4h2.6z" fill="#fbfcfa"/><path d="m393.6 386.7h.6v1.5h2.7v6.1h1.1v.6h-11v-.6h1.1v-6.1h2.7v-1.5h.6v1.5h2.1v-1.5zm-2.7 8.8.4.6c-1.2.6-2.5 1.3-3.8 1.9-.1-.2-.2-.4-.3-.6 1.2-.6 2.5-1.2 3.7-1.9zm-2.2-6.7v2.4h2.1v-2.4zm0 3v2.5h2.1v-2.5zm2.8-3v2.4h2.1v-2.4zm0 3v2.5h2.1v-2.5zm6 6.1c-1.4-.7-2.7-1.3-3.9-1.8l.3-.6c1.5.6 2.7 1.2 3.9 1.7zm-1.2-9.1h-2.1v2.4h2.1zm-2.1 3v2.5h2.1v-2.5z" fill="#fbfcfa"/><path d="m168.12 372.92c-1.72-8.07-3.3-16.17-5.22-24.19-1.01-4.19-2.03-8.57-4.11-12.27-3.33-5.93-3.72-12.31-4.44-18.72-.93-8.34-1.83-16.68-2.63-25.03-.16-1.63-.02-3.36.32-4.97 2.22-10.5 5.02-20.9 6.6-31.49.76-5.11-.45-10.59-1.25-15.83-1.71-11.16-3.88-22.25-5.55-33.42-.41-2.78.06-5.82.69-8.61 1.63-7.24 3.67-14.4 5.36-21.63.92-3.94 1.44-7.97 2.15-11.95-.31-.13-.61-.26-.92-.39-.47.72-.93 1.45-1.42 2.16-2.78 4.02-4.94 8.71-8.45 11.93-11.46 10.49-16.23 23.85-17.76 38.68-.72 6.97-1.3 14.09-.73 21.04.91 11.02-1.23 21.59-3.02 32.26-.96 5.73-2.46 11.43-2.83 17.19-.29 4.62.63 9.33 1.23 13.98 1.74 13.42 3.39 26.86 5.48 40.23.82 5.26 2.82 10.33 4.06 15.54.73 3.05-.02 4.93-2.14 7.25-.19-.09-.48-.13-.55-.28-3.44-7.39-7.11-14.68-10.25-22.2-7.26-17.41-9.62-35.74-9.67-54.46-.03-10.13 1.02-20.13 4.22-29.77 3.03-9.11 2.77-18.5 3.01-27.87.06-2.24.37-4.51.12-6.71-1.5-13.2 4.52-24.59 8.63-36.44.21-.6.59-1.27 1.08-1.64 4.61-3.41 6.68-8.45 9.27-13.31 2.15-4.04 5.2-7.78 8.51-10.97 5.79-5.58 12.13-10.59 18.16-15.93 3.3-2.93 4.92-6.15 2.87-10.87-4.12-9.46-5.31-19.55-5.2-29.81.01-.67.1-1.4-.12-2-6.03-16.81-6.05-34.44-7.03-51.92-.16-2.86-1.06-4.75-3.71-5.49-7.29-2.03-14.56-4.15-21.94-5.79-7.81-1.74-12.17-5.45-13.6-12.63 3.12-1.19 6.19-2.1 9.61-.78 16.64 6.42 34.3 8.13 51.69 11.1.87.15 1.83.22 2.58.62 14.47 7.66 30.52 10.16 46.19 13.46 18.12 3.82 34.68 10.83 50.37 20.36 2.98 1.81 4.3 3.71 2.38 7.36-9.14-1.32-18.5-2.68-28.26-4.09-4.87 14.87-14.11 26.5-26.53 35.89-1.2-1.15-1.99-1.89-3.31-3.15 0 1.89-.29 3.24.05 4.42 1.03 3.58-.59 5.88-3.1 8.16-9.44 8.59-18.73 17.34-28.17 25.92-1.7 1.55-2.54 2.94-1.31 5.09 1.86 3.26 3.27 6.88 5.59 9.76 9.01 11.17 17.52 22.65 24.12 35.45 3.44 6.68 7.21 13.47 6.91 21.13-.25 6.29-1.68 12.61-3.24 18.75-2.88 11.36-7.21 22.37-7.81 34.24-.1 1.94.09 4.02.72 5.85 5.21 15.22 8.63 30.78 8.97 46.9.08 3.97-.86 7.98-1.52 11.94-.16.96-1.07 1.8-1.64 2.7-.31-.09-.61-.17-.92-.26-1.18-5.43-2.19-10.91-3.57-16.29-3.32-12.87-6.72-25.71-10.27-38.52-2.13-7.69-4.39-15.42-3.45-23.41.81-6.85 2.7-13.58 4.14-20.36.98-4.59 2.39-9.13 2.89-13.77.41-3.79.31-7.82-.55-11.52-2.18-9.39-5.34-18.5-10.83-26.55-1.82-2.67-4.37-4.85-6.58-7.25-.33.19-.66.38-.99.57.37 4.28.39 8.62 1.19 12.82 2.84 14.93.58 29.6-1.71 44.31-1.55 9.94-2.94 19.91-4.26 29.89-.19 1.47.25 3.08.66 4.55 2.67 9.57 6.27 18.97 7.94 28.71 2.65 15.39 4.13 30.99 5.87 46.53.4 3.55-.35 7.13-3.76 9.92-.52-1.57-1.02-2.87-1.4-4.21-3.63-12.79-7.54-25.52-10.73-38.42-1.63-6.58-1.88-13.48-2.9-20.22-.41-2.74-.69-5.68-1.91-8.08-3.84-7.59-2.36-15.76-3.27-23.68-1.65-14.39 3.09-27.87 5.55-41.67 1.59-8.95 1.51-17.79-.85-26.59-1.42-5.29-2.71-10.61-4.09-15.91-.69-2.67-2.16-4.79-5.03-5.21-.89-.13-2.58.61-2.83 1.32-2.44 6.95-4.96 13.9-6.85 21.01-1.75 6.59-1.15 13.3.68 19.9 2.12 7.64 3.99 15.36 6.14 23 2.42 8.61 2.23 17.16-1.25 25.31-5.87 13.77-7.11 28.1-5.64 42.7.76 7.53 2.75 14.93 4.18 22.39.13.66.38 1.36.27 1.98-1.62 9.07 1.4 17.74 2.17 26.61.45 5.16.08 10.4.08 15.6-.53.01-1.08.03-1.63.05zm.15-322.34c-.3 3.67-.82 7.24-.83 10.81-.02 4.59 2.59 9.11.41 13.81-.18.39.38 1.17.66 1.74.53 1.08 1.39 2.08 1.61 3.21 2.39 12.15 4.78 24.3 6.97 36.49 1.14 6.34 2.05 12.69 5.69 18.35 4.9-2.54 9.63-4.83 14.18-7.43 1.42-.81 2.61-2.29 3.5-3.72 1.35-2.15 1.77-5.25 3.58-6.68 7.6-6.02 12.35-14.39 18.58-21.51 3.95-4.51 7.8-9.25 12.42-12.99 3.58-2.9 5.16-5.56 4.14-10.1-.44-1.95-1.01-2.79-2.91-3.26-12.47-3.07-24.96-6.07-37.35-9.45-9.97-2.73-19.81-5.97-30.65-9.27z" fill="#010101"/></svg>