<svg enable-background="new 0 0 400 400" viewBox="0 0 400 400" xmlns="http://www.w3.org/2000/svg"><path d="m374.8 390.4.4-.4c.7.5 1.3 1 1.8 1.4l-.5.5c-.5-.6-1.1-1.1-1.7-1.5zm1 7.3-.6-.3c.5-1.4 1.1-2.8 1.5-4.3.2.1.4.2.6.3-.5 1.3-1 2.8-1.5 4.3zm-.4-10.3.4-.4c.4.3 1 .8 1.7 1.4l-.5.5c-.4-.5-1-1-1.6-1.5zm2.5.3h1.7v-1h.6v1h3.5v-1h.6v1h1.8v.5h-1.8v1.4h-2v1h3.2v2h-3.2v.9h3.3v.5h-3.4c0 .3-.1.6-.1.9h4v.5h-3.7c.7.9 1.9 1.5 3.8 1.7-.1.2-.2.4-.3.6-2.1-.4-3.5-1.1-4-2.1-.4 1-1.8 1.7-4 2.2-.1-.2-.2-.4-.3-.6 2.1-.4 3.4-1 3.8-1.8h-3.4v-.5h3.6c.1-.3.1-.6.2-.9h-3.3v-.5h3.4c0-.3 0-.6 0-.9h-3.2v-2h3.3v-1h-2.1v-1.4h-1.7v-.5zm1.1 3.5v1h2.7c0-.3 0-.4 0-.4 0-.1 0-.2 0-.2 0-.1 0-.2 0-.3h-2.7zm1.2-3v.9h3.5v-.9zm4.7 3h-2.6v.6.4h2.6z" fill="#fbfcfa"/><path d="m393.6 386.7h.6v1.5h2.7v6.1h1.1v.6h-11v-.6h1.1v-6.1h2.7v-1.5h.6v1.5h2.1v-1.5zm-2.7 8.8.4.6c-1.2.6-2.5 1.3-3.8 1.9-.1-.2-.2-.4-.3-.6 1.2-.6 2.5-1.2 3.7-1.9zm-2.2-6.7v2.4h2.1v-2.4zm0 3v2.5h2.1v-2.5zm2.8-3v2.4h2.1v-2.4zm0 3v2.5h2.1v-2.5zm6 6.1c-1.4-.7-2.7-1.3-3.9-1.8l.3-.6c1.5.6 2.7 1.2 3.9 1.7zm-1.2-9.1h-2.1v2.4h2.1zm-2.1 3v2.5h2.1v-2.5z" fill="#fbfcfa"/><path d="m231.87 374.79c-.1-2.17-.13-4.35-.32-6.51-.26-2.94-.69-5.86-.97-8.8-.37-3.88-.53-7.77-1.01-11.63-.46-3.66-1.53-7.26-1.77-10.92-.53-8.17-.71-16.35-1.03-24.53-.19-4.74-.42-9.48-.54-14.23-.06-2.23-.02-4.48.2-6.7.26-2.7.66-5.34-1.28-7.66-.26-.31-.35-.83-.38-1.26-.49-6.23-1.74-12.52-1.21-18.66.56-6.43-1.66-12.33-1.84-18.54-.06-2-1.01-3.97-1.55-5.95-.09-.32-.31-.7-.2-.95 1.87-4.37-1.06-8.22-1.34-12.36-.07-1.05-.72-2.06-1.09-3.09-.51-1.39-1.07-2.77-1.48-4.19-.28-.96-.22-2.01-.51-2.97-.98-3.21-3.19-3.93-5.58-1.63-1.32 1.27-2.04 3.16-3.29 4.52-5.75 6.2-10.17 13.77-17.9 17.94-5.82 3.14-10.1 8.01-14.82 12.43-6.61 6.18-13.84 11.21-23.16 12.73-2.84.46-5.33 2.77-8.12 3.83-2.19.83-5.26 2.13-6.74 1.24-1.56-.94-2.03-4.19-2.36-6.52-.4-2.86.02-5.82-.22-8.71-.69-8.35 1.6-16.34 2.66-24.48.14-1.1.45-2.26.25-3.31-1.34-6.74.96-12.79 3.43-18.8.33-.79 1.27-1.33 1.93-1.98.68.71 1.64 1.3 2 2.15 2.97 6.91 1.87 14.03 1.03 21.15-.53 4.44-.7 8.92-1.19 13.36-.44 3.96-1.21 7.88-1.6 11.84-.14 1.42-.09 3.45.75 4.21.88.78 3.2.96 4.26.33 6.72-4 14.64-6.39 18.95-13.77.61-1.05 1.89-2.02 3.06-2.4 5.46-1.73 9.23-5.76 13.3-9.39.64-.57 1.19-1.38 1.48-2.18 1.12-3.07 2.43-5.78 6.4-5.64.52.02 1.19-.58 1.57-1.06 2.69-3.35 5.21-6.83 8-10.1 2.25-2.64 4.71-5.1 7.21-7.51 3.96-3.82 4.5-8.42 2.88-13.3-3.03-9.09-6.4-18.06-9.44-27.15-1.91-5.7-3.41-11.54-5.24-17.26-.51-1.59-1.57-3.01-2.85-5.39-1.66 3.67-2.88 6.36-4.09 9.06-2.7 6.01-4.91 12.09-6.12 18.68-.99 5.43-2.17 11.14-6.17 15.57-.56.62-.81 1.58-1.05 2.43-.74 2.73-2.37 4.5-6.22 5.28.2-2.26.34-4.26.57-6.24.14-1.2.72-2.4.62-3.57-.62-7.24 1.45-13.9 4.17-20.44.17-.41.5-.82.51-1.23.08-8.65 5.39-15.54 8.41-23.08 2.14-5.32 4.16-10.71 6.19-16.1 1.39-3.68 2.98-3.88 5.39-.8 2.38 3.03 5.22 5.83 5.44 10.11.06 1.15.81 2.32 1.43 3.36 2.52 4.18 4.17 8.63 4.58 13.51.04.45-.04 1.01.2 1.31 5.43 7.05 4.51 16.29 8.29 23.94 1.67 3.37 2.43 7.19 3.76 10.73 1.52 4.02 2.96 4.23 5.55.98 2.86-3.59 5.88-7.06 8.53-10.8 1.63-2.31 2.68-5.03 3.98-7.57.4-.77.58-1.76 1.17-2.32 8.2-7.67 11.12-17.49 11.65-28.3.11-2.25 1.06-4.63-1.13-6.58-.4-.36-.28-1.51-.13-2.25 1.15-5.66 1.5-11.03-1.54-16.5-1.55-2.79-1.19-6.58-1.99-9.85-2.06-8.44-4.29-16.83-6.45-25.25-1.64-6.41-3.44-12.8-4.84-19.26-.97-4.47-1.55-5.7-5.09-6.83-.53 1.78-.96 3.59-1.62 5.32-1.84 4.89-3.78 9.73-5.67 14.6-.36.93-.66 1.89-1.05 2.8-1.49 3.46-2.62 7.14-4.61 10.29-3.09 4.89-6.73 9.44-10.19 14.08-2.25 3.02-4.96 3.38-6.46 1.74 1.08-3.83 2.04-7.18 2.98-10.54.15-.53.09-1.31.43-1.56 2.81-2.02 2.61-5.23 3.45-8.07.8-2.73 2.01-5.35 3.15-7.97 1.03-2.34 2.29-4.57 3.32-6.91 3.16-7.14 5.82-14.55 9.53-21.39 2.75-5.09 6.72-9.55 10.36-14.11 1.34-1.67 3.38-2.9 5.57-1.13s.51 3.46-.13 5.35c-.71 2.09-1.25 4.58-.79 6.66 1.26 5.66 3.1 11.18 4.7 16.76.06.21.01.51.14.65 3.65 3.76 3.7 8.96 4.61 13.51 1.59 7.96 5.69 15.14 7.08 22.87 2.08 11.59 6.44 22.68 7.34 34.46.29 3.83-.2 7.76-.62 11.61-.64 5.82-1.5 11.62-2.34 17.41-.11.73-.64 1.4-.98 2.09-4.68 9.54-11.66 17.39-18.34 25.52-4.44 5.39-8.08 11.44-11.97 17.27-.46.69-.4 1.93-.18 2.81 2.16 8.55 4.41 17.07 6.61 25.61.22.85.51 1.83.28 2.6-1.27 4.34-.05 8.32 1.31 12.39.66 1.97.89 4.13 1.02 6.22.75 12.57 1.43 25.14 2.1 37.71.48 8.92 1.01 17.84 1.36 26.77.22 5.46.13 10.93.24 16.4.05 2.22.37 4.43.38 6.65.02 2.99-.12 5.98-.23 8.97-.03.77-.4 1.58-.25 2.31 1.6 7.9-1.02 15.29-2.8 22.75-.32 1.36-1.57 2.5-2.4 3.74-.41-.14-.85-.28-1.28-.43z" fill="#010101"/></svg>