<svg enable-background="new 0 0 400 400" viewBox="0 0 400 400" xmlns="http://www.w3.org/2000/svg"><path d="m346.81 359.05c-3.47-6.38-6.68-12.22-9.82-18.1-.44-.83-1.02-2.09-.71-2.74 1.38-2.8-.12-5.16-.62-7.75-1.23-6.39-2.14-12.83-3.2-19.44 1.94-1.25 5.22-1.52 4.28-5.59-1.96 0-4.03 0-6.35 0-.75-5.77-1.7-11.84-2.24-17.95-.13-1.52 1.05-3.15 1.82-5.24-4.22-2.59-3.92-6.98-3.4-11.77.34-3.09-.54-6.33-1.02-9.48-.63-4.04-1.77-8.04-2.04-12.1-.52-7.81-.4-15.66-.9-23.47-.22-3.4-1.09-6.81-2.05-10.11-1.46-5.03-.8-8.02 3.08-11.04-1.19-2.21-5.62.66-5.68-3.93-.04-3.07.2-5.16 3.41-6.15-4.62-3.66-5.45-11.84-1.87-17.19-2.93-4.31-5.81-8.5-11.41-10.11-2.54-.73-4.65-2.93-6.97-4.44-.91-.6-1.79-1.32-2.8-1.69-2.72-1-5.45-2.11-8.28-2.68-7.32-1.48-11.8-6.55-14.64-12.67-2.71-5.86-7-8.96-12.81-10.11-4.58-.9-7.43-3.27-9.09-7.43-.16-.41-.43-.78-.65-1.17-2.82-4.96-6.17-5.54-10.37-1.82-3.71-4.18-4.12-5.19-3.04-8.22-1.57.28-2.91.52-4.41.79-.18-.53-.57-1.25-.63-2-.2-2.69-1.5-3.13-4.05-2.79-1.62.21-3.67-.48-5.07-1.44-2.85-1.95-5.36-4.39-8.06-6.57-4.87-3.93-10.06-7.55-12.09-13.83-4.38 1.19-8.45-.71-10.14-4.68-1.03-2.42-1.93-4.44-5.19-4.76-1.57-.15-3.02-2.1-4.4-3.38-5.74-5.32-5.72-5.34-13.8-5.75-.15.15-.44.32-.43.46.85 8.32-4.2 13.91-8.93 19.74-1.09 1.34-1.31 3.36-2.04 5.02-.46 1.05-.91 2.24-1.72 2.98-2.63 2.42-5.35 4.76-8.17 6.97-8.6 6.72-16.34 14.25-22.7 23.15-2.3 3.22-5.28 5.35-9.36 5.89-1.46.19-2.82 1.12-4.56 1.86 1.21 1.66 2.16 2.97 3.12 4.29-4.37 4.47-8.7 8.94-13.07 13.35-2.91 2.94-6.02 5.7-8.83 8.73-8.58 9.26-18.25 17.11-29.2 23.38-2.69 1.54-3.87 3.73-4.15 6.78-.2 2.18-1.05 4.29-1.81 7.19 1.67 2.79 1.67 2.79 1.15 16.12-1.49.68-2.99 1.36-4.48 2.04.07.29.14.58.21.87 1.02.21 2.04.43 3.73.79-.29 6.08-.18 12.33-.96 18.46-1.92 15.2-.96 30.4-.27 45.59.31 6.67 0 13.13-1.71 19.58-.28 1.07.51 2.42.83 3.64.13.5.48.99.48 1.49.08 11.16.88 22.39-.06 33.47-.75 8.8-3.42 17.47-5.76 26.06-.51 1.88-3.25 3.16-5.16 4.9-2.5-3.35-2.44-6.32-2.13-9.51.3-3.07.32-6.22.01-9.29-.84-8.31-1.73-16.63-2.95-24.89-1.2-8.16-2.83-16.25-4.24-24.38-.23-1.31-.72-2.78-.35-3.95 2.52-8.13 1.29-16.41 1.28-24.65 0-1.21.63-2.44 1.05-3.63 1.11-3.12 2.22-6.2.34-9.45-2.98-5.15-4.27-11.02-2.67-16.45.91-3.12.22-5.88.61-8.76.43-3.09-.02-6.3.01-9.45.04-3.93-1.06-8.11 2.53-11.3.4-.35.35-1.41.23-2.1-.2-1.21-.51-2.42-.96-3.55-2.32-5.87-3.05-11.77-1.28-17.99.46-1.63-.41-3.6-.44-5.42-.04-2.52-.55-5.33.33-7.53 3.18-7.9 2.78-15.94 1.91-24.09-.41-3.85-1.39-7.89 2.44-10.79-1.3-1.3-3.22-2.31-3.36-3.54-.41-3.53-.11-7.14-.04-10.72 0-.28.27-.67.53-.81 3.99-2.14 2.64-5.26 2.21-8.74-.6-4.93-.1-10.01.07-15.02.13-3.8.52-7.59.71-11.38.19-3.62 2.26-4.82 5.48-3.09.88.47 1.76.96 3 1.63.16-1.26.65-2.41.36-3.33-.95-3.09-1.28-5.93.2-9.08.48-1.02-1.2-2.93-1.58-4.51-.28-1.14-.4-2.56.03-3.59 2.73-6.58 5.66-13.08 8.48-19.63.79-1.84 1.28-3.83 2.17-5.62 2.88-5.76 8.85-7.6 14.42-4.4.76.44 1.02 1.74 1.34 2.32 4.55 0 9.15.07 13.75-.06.82-.02 2.03-.73 2.3-1.43.23-.58-.46-1.79-1.08-2.37-1.01-.93-2.29-1.56-4.04-2.71 3.11-.68 5.15-2.11 7.8.03 2.51 2.03 5.98-.3 7.1-4.63 2.8-.43 5.74-.88 8.58-1.31.33.98.62 1.84.91 2.71 1.97-5.18 7.09-4.71 10.46-6.87 4.56-2.92 7.99.67 12.32 1.86 1.74-6.22 7.24-5.72 12.08-6.55 8.72-1.5 17.5-3.19 26.14-.03 3.5 1.28 6.23 1.3 9.8-.31 3.13-1.41 7.3-1.35 10.84-.82 11.32 1.69 22.59.86 33.77-.49 7.62-.92 14.6 1.39 21.84 2.5 8.06 1.23 16.1 2.56 24.14 3.95 1.61.28 3.27.76 4.69 1.54 3.73 2.04 7.43.59 11.16.27 3.22-.28 6.45-.49 9.67-.68.66-.04 1.57-.12 1.95.24 4.42 4.21 9.55 1.85 14.35 1.42 2.92-.26 5.26.21 7.42 2.06 4.07 3.48 7.17 7.62 8.9 12.75.79 2.34.86 4.37-1.4 5.89 3.56 4.51 3.56 4.51.05 8.28 6.59 4.91 7.63 12.38 7.71 19.56.23 18.21 4.23 36.25 2.39 54.54-.11 1.07.1 2.27.48 3.28 2.27 5.94 2.27 11.98 1.21 18.14-.18 1.02-.2 2.49.38 3.14 2.27 2.52 1.61 4.93.62 7.72-.6 1.71-.87 3.97-.26 5.6 2.36 6.36 2.67 12.32-1.93 17.86-.27.33-.43.74-.64 1.12 1.01 1.02 1.97 1.95 2.9 2.91 2.09 2.17 2.65 4.34.89 7.2-2.23 3.64-2.68 7.41.18 11.27.72.98.23 3.09-.15 4.56-.25.97-1.3 1.73-2.27 2.92 5.7 2.88 4.01 8.44 5.3 13.16-3.78 1.02-2.95 3.41-1.7 5.7 3.66 6.71 4.79 13.55 2.09 20.94-.59 1.6-.65 3.99.15 5.39 2.37 4.18 2.07 8.14.07 12.16-1.12 2.25-.77 3.77 1.55 4.79 2.1.92 2.81 2.54 2.77 4.81-.1 5.91-.03 11.83-.03 17.98-2.12.71-4.53 1.52-6.96 2.34 1.4 4.14 4.92 4.9 8.83 5.55-.3 1.42-.61 2.57-.76 3.74-.13.97-.5 2.3-.03 2.88 4.06 5.09 1.75 10.82 1.47 16.18-.25 4.73-1.79 9.4-2.81 14.08-.69 3.36-2.55 5.61-5.63 5.93zm-60.34-315.78c-4.04 1.28-7.91 2.88-11.94 3.67-4.48.87-9.1 1.22-13.67 1.4-8.46.35-17.05 1.36-24.8-3.54-.67-.42-1.73-.34-2.61-.31-9.05.34-18.1.61-27.14 1.13-3.19.18-6.2.27-9.04-1.49-.8-.49-1.97-.93-2.8-.72-3.66.92-7.26 2.1-11.51 3.37 1.39 2.49 2.09 5.7 3.91 6.57 3.02 1.45 5.07 3.54 7 5.96 3.57 4.49 7.3 8.73 12.92 10.79.98.36 1.76 1.32 2.59 2.05 4.26 3.75 8.46 7.57 12.78 11.25 2.12 1.81 5 2.95 6.6 5.1 3.29 4.41 7.77 6.65 12.38 9.24 3.49 1.96 9.01 3.54 7.31 10.42 5.39-.55 9.73.52 9.82 6.38 2.02 0 3.99-.61 5.12.11 4.52 2.84 8.78 6.1 12.71 8.9-.37 3.08-.68 5.69-.99 8.3 2.06-.71 3.23-1.74 4.5-2.62 3.27-2.24 6.75-.88 7.89 2.8.35 1.13 1.49 2.83 2.33 2.86 5.76.23 7.5 3.52 7.24 8.64-.01.14.3.29.74.68 3.12-3.48 5.65-.82 8.31.99 1.66 1.13 3.29 2.33 5 3.38 2.83 1.74 5.07.57 5.02-2.64-.03-2.23-.05-4.5-.51-6.67-1.87-8.8-3.01-17.6-1.41-26.58.17-.95.19-2.13-.22-2.96-2.43-4.88-2.2-9.9-1.24-15.04.24-1.29.24-2.71-.04-3.99-2.45-11.25-2.61-22.61-1.84-34.02.2-2.95-1.25-4.4-3.86-4.94-2.4-.5-4.88-.64-7.25-1.24-3.8-.97-4.2-2.05-3.07-5.77.3-.98-.19-2.19-.32-3.3-.3.05-.61.1-.91.15-.67 1.98-1.34 3.96-2.06 6.06-2.88-.36-5.48-.69-8.39-1.06.52-.87.87-1.32 1.07-1.82.22-.56.3-1.16.38-1.49zm-147.52.89c-12.54 5.47-25.3 8.48-38.52 9.73-2.95.28-5.52-.27-7.56-2.57-1.21-1.37-2.41-1.49-4.03-.36-2.56 1.79-5.39 3.19-8 4.91-1.9 1.25-3.51 1.39-5.53.12-2.92-1.84-4.46-1.01-5.08 2.33-1.31 7.02-1.73 14.38-4.21 20.96-2.55 6.74-3.47 13.15-2.74 20.19.62 5.93 1.68 12.03-1.08 17.83-.77 1.61-1.42 3.28-2.13 4.91-.92 2.1-.56 3.87 1.22 5.4 2.46 2.1 2.25 4.51.85 7.14-.43.82-.76 2.08-.44 2.84 1.78 4.17 1.57 8.22-.03 12.38-.62 1.62-.9 3.46-.95 5.21-.07 2.78 1.34 4.06 4.24 3.4 3.09-.7 5.65-2 6.97-5.12 1.47-3.47 3.46-6.42 7.41-7.62.86-.26 1.58-1.44 2.07-2.35.66-1.22 1.05-2.6 1.68-4.25 3.21 2.26 6.16 2.33 9.2-.12-1.57-.93-3.06-1.8-4.64-2.74 2.03-5.38 6.6-1.1 9.81-2.79-1.28-1.13-2.39-2.1-3.6-3.16.83-.99 1.4-1.82 2.12-2.5 6.62-6.34 13.63-12.33 19.81-19.07 6.24-6.79 15.05-10.53 20.54-18.06.06-.09.18-.14.27-.19 4.12-1.97 6.55-5.57 8.99-9.21 3.62-5.38 7.35-10.68 11.12-15.96.75-1.06 1.69-2.35 2.82-2.72 5.26-1.72 7.87-4.93 6.8-10.62-.02-.11.27-.27.48-.47 1.91.69 3.94 2.09 5.82 1.91 1.95-.19 3.75-1.92 5.61-2.98-.03-.34-.07-.69-.1-1.03-1.57-.68-3.09-1.57-4.73-1.99-3.84-.98-7.73-1.74-11.61-2.56-2.05-.43-4.1-1.1-6.16-1.14-5.08-.09-10.57 1.12-12.63-5.78-2.34 1.13-4.18 2.02-6.15 2.96.8 1.2 1.33 2.01 2.09 3.14zm194.77 225.27c3.84-2.13 3.41-4.81 2.73-7.03-.37-1.22-2.24-1.99-3.43-2.96-.44.32-.89.64-1.33.95.63 2.8 1.25 5.59 2.03 9.04zm-154.28-215.35c-.4-.01-.8-.02-1.2-.04-.41 2.45-.83 4.9-1.24 7.36.36.1.72.21 1.08.31 1.24-.85 2.49-1.71 3.78-2.59-.9-1.87-1.66-3.45-2.42-5.04zm141.17.77c.18 2.4.34 4.48.54 7.1 1.77-1.1 3.01-1.88 3.97-2.47-1.51-1.55-2.84-2.92-4.51-4.63zm-7.56 109.81c.18-.37.36-.74.55-1.11-.59-1.59-1.17-3.17-1.76-4.76-.41-.01-.81-.03-1.22-.04-.18 1.6-.6 3.24-.39 4.78.07.5 1.83.76 2.82 1.13zm-121.58-128.83c1.26-2.1 2.15-3.58 3.03-5.05-.74-.29-1.98-1-2.15-.8-1.1 1.29-3.08 2.43-.88 5.85zm-54.12 69.11c-.72-1.45-1.28-2.59-2.17-4.4-1.2 1.88-2.01 3.16-2.83 4.44.22.22.44.45.66.67 1.35-.22 2.7-.44 4.34-.71zm-85.85 25.43c.35.23.7.46 1.04.69 1.36-.78 2.73-1.55 4.09-2.33-.04-.3-.08-.59-.12-.89-1.17 0-2.47-.32-3.47.1-.72.31-1.04 1.59-1.54 2.43z" fill="#010100"/><g fill="#fcfafa"><path d="m342.2 3.2-6.3 9.2h6.1v1.2h-8.2v-.5l6.2-9.1h-5.7v-1.2h7.8v.4z"/><path d="m344 13.7v-10.9h3.1c1.6 0 3 .5 4.1 1.4 1.1 1 1.6 2.2 1.6 3.9s-.5 3-1.6 4-2.5 1.5-4.2 1.5h-3zm1.4-9.6v8.4h1.6c1.4 0 2.5-.4 3.2-1.1.8-.8 1.2-1.8 1.2-3.2s-.4-2.4-1.2-3.1-1.8-1-3.1-1z"/><path d="m356.3 2.8v10.9h-1.4v-10.9z"/><path d="m366.6 13.2c-.8.4-1.8.6-3 .6-1.6 0-2.8-.5-3.7-1.5s-1.4-2.3-1.4-3.9c0-1.7.5-3.2 1.6-4.2s2.4-1.6 4-1.6c1 0 1.9.1 2.6.4v1.5c-.8-.4-1.6-.6-2.6-.6-1.2 0-2.2.4-3 1.2s-1.1 1.9-1.1 3.3c0 1.3.4 2.3 1.1 3.1s1.6 1.1 2.8 1.1c1.1 0 2-.2 2.8-.7v1.3z"/><path d="m368.2 13c0-.3.1-.5.3-.6.2-.2.4-.3.6-.3.3 0 .5.1.7.3s.3.4.3.6-.1.5-.3.6c-.2.2-.4.3-.7.3s-.5-.1-.6-.3c-.2-.2-.3-.4-.3-.6z"/><path d="m381.1 13.7h-1.7l-5.5-8.4c-.2-.2-.3-.5-.4-.7 0 .2.1.8.1 1.5v7.6h-1.4v-10.9h1.8l5.3 8.3c.3.4.4.6.4.8 0-.3-.1-.8-.1-1.6v-7.5h1.4v10.9z"/><path d="m389.7 13.7h-5.8v-10.9h5.6v1.2h-4.2v3.5h3.9v1.2h-3.9v3.7h4.4z"/><path d="m398.4 4.1h-3.1v9.6h-1.4v-9.6h-3.1v-1.3h7.7v1.3z"/></g></svg>