<svg enable-background="new 0 0 400 400" viewBox="0 0 400 400" xmlns="http://www.w3.org/2000/svg"><path d="m167.15 250.01c-1.87 2.55-2.44 6.04-2.66 9.82-.45 7.63 2.57 12.5 9.45 16.15 7.47 3.97 14.18 9.36 21.38 13.88 2.85 1.79 4.66 4.08 5.53 7.2 1.14 4.08 2.47 8.14 3.21 12.3 2.65 14.96 10.61 26.37 22.93 34.9 4.59 3.18 9.35 6.12 14.08 9.11 7.94 5.02 13.66 11.75 16.83 21.95-5.07-1.14-9.8-1.45-13.87-3.26-9.39-4.17-18.38-9.22-27.68-13.6-3.99-1.88-7.05-4.36-9.39-8.13-1.42-2.28-3.5-4.43-5.78-5.85-4.07-2.53-6.87-5.8-8.72-10.18-3.65-8.65-7.19-17.37-11.39-25.74-2.67-5.33-6.3-10.22-9.84-15.05-1.3-1.77-3.61-2.8-5.6-4.28-5.93 8.7-7.37 18.1-8.02 27.79-.4 6-.85 12.07-2.14 17.92-.88 3.98-3.24 7.64-4.94 11.44-.57-.06-1.14-.13-1.71-.19-1.33-6.36-2.88-12.68-3.93-19.09-2.21-13.38-1.08-26.69.64-40.09.79-6.19-.08-12.72-.97-18.98-1.92-13.49-2.5-26.92.16-40.35.65-3.31-.01-5.54-3.17-7.43-16.49-9.88-27.98-24.85-39.57-39.66-1.95-2.5-3.28-5.49-5.07-8.54 4.11-2.2 7.78-4.05 11.34-6.09 11.85-6.82 24.11-12.72 37.28-16.53 2.38-.69 3.08-2.03 3.32-4.25.64-5.89 1.58-11.76 2.1-17.66.17-1.96-.15-4.22-1.01-5.96-1.12-2.28-1.58-4.23-.31-6.53 4.78-8.7 5.34-18.29 5.91-27.92.82-13.96 1.86-27.91 2.81-41.87.05-.77.04-1.61.34-2.3 2.5-5.84 5.06-11.65 7.79-17.9 4.25 5.72 6.3 11.8 6.55 18.31.31 8.04-.06 16.1.07 24.15.04 2.65.68 5.3 1.11 7.95.42 2.59 1.86 3.9 4.57 4.47 14.44 3.04 28.8 6.41 43.26 9.34 3.61.73 6.12 2.24 7.96 5.29 1.97 3.25 4.39 5.75 8.66 5.81 1 .01 2.19 1.35 2.92 2.35 7.42 10.23 15.06 20.33 22.04 30.87 5.15 7.77 11.81 13.5 19.51 18.5 3.93 2.55 7.14 6.26 10.47 9.64.99 1 1.32 2.66 2.31 4.78-6.44-1.97-12.02-3.86-17.7-5.34-5.53-1.44-10.47-3.75-14.5-7.86-.39-.4-.83-.77-1.3-1.06-15.65-9.98-24.91-25.44-34.19-40.68-4.15-6.83-9.03-10.72-17.06-11.8-10.47-1.41-20.8-3.93-31.57-6.05-1.01 7.3-1.91 13.89-2.86 20.75 4.51 1.53 8.82 3.01 13.14 4.45 8.8 2.94 17.63 5.79 26.39 8.87 1.41.5 2.65 1.81 3.67 3 .93 1.08 1.53 2.46 2.19 3.76 8.71 17.29 19.82 32.93 32.63 47.37 1.75 1.98 4.46 3.22 6.91 4.45 8.85 4.44 15.81 10.9 20.74 19.44 1.41 2.44 1.98 5.36 2.9 7.94-.6.42-.81.68-.93.64-7.51-2.4-15.45-3.65-22.04-8.48-2.07-1.52-4.2-2.99-6.42-4.27-7.07-4.08-12.93-9.47-18.07-15.78-4.31-5.29-4.46-5.17-9.8-6.89-.92-2.34-1.42-4.23-2.35-5.87-3.31-5.8-6.76-11.52-10.18-17.26-1.89-3.17-3.77-6.34-5.74-9.46-6.7-10.56-17.43-14.16-28.83-16.45-.77-.15-2.04.67-2.63 1.4-2.75 3.37-2.78 7.47-2.46 11.51.07.88 1.13 1.87 1.97 2.47 6.73 4.8 13.53 9.52 20.3 14.27 5.17 3.62 9.14 8.24 11.47 14.11.5 1.27.42 2.98.06 4.35-.6 2.25-1.51 4.45-2.53 6.56-1.86 3.82-2.71 7.67-1.82 11.96.24 1.17-.56 3.02-1.5 3.9-5.23 4.9-10.36 9.98-16.09 14.22-4.07 3-8.92 5.08-13.66 6.98-3.52 1.41-2.4 4-2.62 6.37-.24 2.54 1.86 2.44 3.34 2.87 9.44 2.75 18.79 5.97 28.39 7.97 8.16 1.7 12.87 6.83 16.4 13.46 2.4 4.5 4.06 9.42 5.84 14.22 3.26 8.77 7.41 16.94 13.96 23.83 6.86 7.22 13.42 14.72 20.11 22.11.65.72 1.26 1.48 2.36 2.78-9.11-2.35-17.54-4.49-25.93-6.76-.98-.26-1.9-1.13-2.61-1.93-8.85-9.96-17.95-19.7-26.33-30.05-3.73-4.61-6.05-10.39-8.86-15.72-5.11-9.66-9.24-11.64-20.22-10.27-3.38.4-6.85-.3-10.73-.52zm4.28-42.32c1.23-.7 2.26-1.12 3.09-1.79 7.61-6.18 15.13-12.46 22.79-18.57 2.61-2.08 2.45-4.12.82-6.57-4.83-7.27-11.54-12.34-19.2-16.23-1.54-.78-3.28-1.17-5.59-1.96-.9 15.25-5.66 29.77-1.91 45.12zm-25.18-8.31c.99-10.13 1.99-20.14 2.93-30.15.18-1.92-3.66-5.65-5.53-5.1-6.08 1.8-12.38 3.25-18.05 5.97-7.05 3.38-7.77 6.47-3.5 13.06 2.82 4.36 6.87 7.9 10.07 12.04 3.66 4.74 8.37 5.27 14.08 4.18z" fill="#010100"/><path d="m229.87 231.01c1.33 2.1 2.34 3.7 3.59 5.67-2.07 0-3.62 0-5.6 0 .68-1.9 1.24-3.48 2.01-5.67z" fill="#010100"/><g fill="#fafbfa"><path d="m6.4 11.7c-1-.8-1.9-1.6-2.9-2.3l.6-.7c.9.7 1.9 1.4 2.9 2.2zm-2.1 8.3c.7-2.1 1.4-4.2 2-6.4.2.1.6.3 1 .4-.7 2.3-1.3 4.4-1.9 6.4zm3-12.8c-1.1-.9-2.1-1.7-2.9-2.4l.6-.7c1 .8 2 1.5 3 2.4zm1.4-1.3v-.9h10.2v.9c-.9 4.2-2.3 7.3-4.1 9.4 1.3 1.4 3.2 2.7 5.7 4-.2.2-.4.5-.7.9-2.5-1.4-4.4-2.7-5.7-4.2-1.4 1.5-3.5 3-6.1 4.4 0 0 0 0-.1-.1-.3-.4-.5-.7-.7-.8 2.7-1.3 4.7-2.8 6.2-4.2-1.8-2.2-3-5.3-3.7-9.4zm9.2 0h-7.1c.6 3.8 1.7 6.7 3.4 8.7 1.7-2 2.9-4.8 3.7-8.7z"/><path d="m31.6 3.6h.9v2.3h4.1v9.1h1.7v.9h-16.6v-.9h1.7v-9.1h4.1v-2.3h.9v2.3h3.1v-2.3zm-4 13.3.6.8c-1.9.9-3.8 1.9-5.8 2.8-.2-.3-.3-.6-.5-.9 2-.9 3.9-1.8 5.7-2.7zm-3.2-10.1v3.7h3.1v-3.7zm0 4.5v3.7h3.1v-3.7zm4.1-4.5v3.7h3.1v-3.7zm0 4.5v3.7h3.1v-3.7zm9.1 9.1c-2.1-1.1-4.1-2-5.8-2.7l.5-.8c2.2.9 4.1 1.8 5.8 2.6zm-1.9-13.6h-3.1v3.7h3.1zm-3.2 4.5v3.7h3.1v-3.7z"/></g></svg>