<svg enable-background="new 0 0 400 400" viewBox="0 0 400 400" xmlns="http://www.w3.org/2000/svg"><g fill="#fbfafa"><path d="m37.59 393.81c-.92.31-1.52.05-2-.78-.7-1.2-1.52-2.34-2.47-3.78v4.59c-.55.03-.95.05-1.41.07-.03-.37-.06-.64-.06-.91 0-1.91 0-3.81 0-5.7 1.13-.41 1.77-.03 2.29.91.62 1.11 1.38 2.14 2.31 3.19v-4.2h1.35v6.61z"/><path d="m12.94 393.88v-6.75c1.9.19 3.93-.54 5.37 1.29.8 1.01.78 2.88.03 3.97-1.37 1.97-3.4 1.51-5.4 1.49m1.45-1.22c2.04.12 2.92-.58 2.89-2.21-.03-1.51-.98-2.19-2.89-2z"/><path d="m11.81 393.87h-5.49c.68-2.18 2.47-3.48 3.51-5.45h-3.08v-1.21h5.29c-.71 2.13-2.44 3.48-3.47 5.51.86 0 1.63.04 2.39-.01.79-.05 1.14.21.85 1.16"/><path d="m39.33 393.86v-6.61h3.7v1.07h-2.22v1.52c.68.04 1.34.09 2.07.13v1.07c-.72.05-1.38.09-2.1.14v1.48h2.4v1.19h-3.85z"/><path d="m27.71 388.56c-1.15-.3-2.46-.61-3.1.64-.37.73-.41 1.93-.06 2.67.63 1.35 1.99.93 3.17.68.35.94-.01 1.32-.93 1.46-1.62.25-3.05-.27-3.76-1.48-.73-1.24-.6-3.03.31-4.17.88-1.11 2.71-1.7 4-1.16.32.13.44.74.65 1.12-.1.08-.19.16-.28.24"/><path d="m49.15 387.24v1.07c-.59.02-1.17.05-1.87.08v5.44h-1.48v-5.44h-1.85c-.05-.4-.08-.73-.13-1.15z"/><path d="m20.06 387.21h1.33v6.62h-1.33z"/><path d="m30.68 393.25c-.49.38-.8.79-1.05.76-.32-.05-.6-.45-.9-.7.26-.24.51-.64.8-.67.29-.04.62.3 1.15.61"/></g><path d="m270.03 31.48c.22.81.48 1.76.8 2.96-5.03 2.15-10.02 3.72-15.79 2.72-3.33-.58-6.95.09-10.39.56-7.93 1.06-15.82 2.34-23.73 3.53-5.48.83-11.09 2.76-16.42 2.19-6.36-.68-12.42.42-18.58.81-4.59.29-9.11 1.59-13.65 2.52-5.11 1.05-10.18 2.35-15.31 3.26-4.07.72-8.21 1-11.64 1.4.87-.73 2.27-1.92 3.68-3.1-.24-.33-.47-.65-.71-.98-2.24-.13-4.2.25-5.29 2.71-1.56 3.5-4.4 4.24-8 4.09-2.2-.09-4.66.34-6.61 1.33-2.95 1.49-5.78 2.53-9.16 2.61-2.58.06-5.13 1.11-7.7 1.7-3.01.69-5.99 1.53-9.03 2-5.48.85-11 1.47-16.7 2.21-.55-2.38.1-4.36 3.16-5.44 2.73-.96 5.25-2.55 8-3.42 2.01-.64 4.24-.6 6.38-.81.98-.1 2.09.21 2.93-.15 2.63-1.13 5.18-2.96 7.9.22-.15-.93-.3-1.87-.48-2.97 12.67-3.27 25.14-6.83 37.78-9.64 10.68-2.37 21.3-4.95 32.34-5.89 10.98-.94 21.76-4.28 32.74-5.31 17.36-1.64 34.55-4.9 52.03-5.29 9.28-.21 16.45 4.39 23.22 9.89 5.37 4.36 8.76 10.07 12.23 16.08 3.82 6.63 3.68 13.07 3.27 19.92-.14 2.3-.74 4.57-1.25 7.59-3.61 1.63-5.2 5.89-7.42 9.84-1.89 3.36-4.73 6.2-7.25 9.19-5.56 6.6-11.02 13.26-14.17 21.44-.63 1.63-1.01 3.38-1.32 5.11-.61 3.4-1.08 6.83-1.62 10.24-.11.66-.45 1.3-.45 1.95-.02 4.4-.21 8.82.08 13.21.77 11.77 1.68 23.53 2.68 35.28.25 2.99 1.08 5.93 1.54 8.91.18 1.19-.01 2.43.11 3.63.14 1.46.36 2.92.68 4.34.19.86.83 1.64.93 2.49 1.25 10.95 4.06 21.81 1.83 32.95-.28 1.42-.24 2.9-.35 4.35-.44 5.93-.83 11.87-1.35 17.79-.09 1.06-.86 2.04-1.14 3.1-.99 3.75-1.61 7.62-2.9 11.26-2.12 5.96-4.65 11.77-7.02 17.64-.94 2.32-2.24 4.54-2.82 6.94-1.11 4.58-2.7 5.55-7.2 3.21 3.65 5.59-.02 9.64-2.56 13.32-6.42 9.28-13.43 18.16-20.25 27.15-.65.86-1.62 1.5-2.53 2.13-5.99 4.1-11.98 8.19-18.01 12.23-1.47.98-3.3 1.53-4.55 2.72-1.88 1.78-3.73 3.75-5.01 5.97-3.07 5.34-7.67 8.27-13.51 9.57-.29.06-.61.01-1.61-.78 1.03-.69 2.24-1.21 3.06-2.1 13.45-14.63 27.05-29.12 40.14-44.07 3.98-4.55 6.41-10.43 9.71-15.61.98-1.54 2.48-2.74 3.75-4.1.37-.4.86-.74 1.09-1.2 5.21-10.49 10.4-20.99 15.58-31.49.29-.6.6-1.22.71-1.87 2.71-15.35 6.39-30.58 4.98-46.39-.17-1.87.95-3.83 1.03-5.76.1-2.41-.33-4.83-.41-7.25-.08-2.31.16-4.63-.05-6.92-.35-3.87-.97-7.72-1.43-11.58-.84-7.15-1.48-14.33-2.53-21.44-.73-4.93-2.35-9.74-2.99-14.67-1.38-10.78-2.51-21.65-.29-32.41 1.35-6.53 2.82-13.21 5.57-19.22 2.41-5.27 6.59-9.76 10.14-14.49 4.35-5.78 8.84-11.45 13.3-17.15.68-.87 1.51-1.65 2.33-2.4 4.78-4.41 5.71-10.43 2.16-15.97-3.99-6.21-8.04-12.39-12.4-18.35-1.28-1.75-3.6-2.84-5.61-3.94-2.68-1.44-5.48-2.6-8.67-4.1zm1.02 237.81c-1.76 1.37-3.01 2.35-4.44 3.46.17.9.36 1.95.7 3.78 2.04-1.41 3.87-2.36 5.18-3.78.35-.38-.91-2.23-1.44-3.46z" fill="#010000"/></svg>