<svg enable-background="new 0 0 400 400" viewBox="0 0 400 400" xmlns="http://www.w3.org/2000/svg"><path d="m183.47 374.06c-.09-10.56-3.47-20.92-1.29-31.63.35-1.71 0-3.55.04-5.33.07-2.65.36-5.31.23-7.95-.06-1.27-.54-3.03-1.44-3.58-.75-.46-2.82.13-3.55.94-3.57 3.94-6.89 8.1-10.3 12.19-.21.26-.34.6-.59.8-4.94 4.01-9.8 8.13-14.91 11.91-1.68 1.24-4.04 1.56-6.09 2.29-.28-.27-.56-.55-.84-.82 1.11-2.16 1.87-4.62 3.38-6.45 10.97-13.3 22.12-26.44 33.09-39.73 1.01-1.22 1.61-3.13 1.66-4.74.35-10.84.57-21.69.67-32.53.02-2.05-.61-4.14-1.16-6.15-1.27-4.59-2.45-9.22-4.09-13.67-2.49-6.79-5.19-13.51-8.09-20.13-3.03-6.94-6.47-13.71-9.59-20.62-2.16-4.78-4.27-9.6-6.03-14.54-.96-2.68-1.24-5.63-1.59-8.49-.1-.81.61-1.72.95-2.59 1 .53 2.39.8 2.94 1.63 2.78 4.19 5.53 8.42 7.93 12.84 6.23 11.5 12.47 23 18.27 34.71 2.41 4.86 3.6 10.32 5.57 15.42 1.18 3.06 2.79 5.96 4.2 8.94.42 0 .83 0 1.25.01 1.95-3.59 3.82-7.22 5.86-10.77 1.76-3.07 3.7-6.04 5.57-9.04.58-.93 1.29-1.8 1.83-2.76 2.05-3.67 3.69-7.64 6.16-10.99 3.59-4.85 5.53-9.47 3.63-15.78-1.76-5.83-1.89-12.14-3.14-18.16-2.66-12.8-1.31-25.99-3.89-38.77-1.06-5.23-2.76-10.33-4.27-15.47-.31-1.05-.95-2.03-1.58-2.94-2.64-3.84-4.21-3.89-7-.31-6.16 7.88-10.44 17.03-10.52 26.72-.06 7.48-1.96 14.67-1.68 22.1.24 6.59.12 13.21-.04 19.81-.12 5.07-.99 7-3.96 9.85-.61-1.72-1.47-3.17-1.6-4.68-.81-9.12-1.97-18.26-2-27.4-.03-9.94.7-19.92 1.82-29.8.48-4.21 2.5-8.33 4.32-12.26 2.11-4.54 4.27-9.22 7.32-13.12 3.53-4.51 5.13-9.36 5.26-14.82.17-6.92.13-13.85 0-20.78-.02-.95-1.01-2.57-1.71-2.66-1.24-.17-3.07.2-3.82 1.06-2.62 3.04-4.89 6.38-7.28 9.61-2.91 3.91-5.74 7.88-8.74 11.72-2.74 3.5-5.7 6.84-8.51 10.29-2.08 2.56-4.28 4.85-8.66 5.16 0-2.17-.45-4.3.1-6.14.89-2.97 2.07-5.98 3.76-8.56 5.12-7.81 10.25-15.63 15.93-23.02 4.13-5.38 8.99-10.23 13.83-15.02 3.46-3.43 5.67-7.14 5.37-12.11-.33-5.67-1.2-11.38-.83-17.01.31-4.67 1.65-9.4 3.32-13.81 1.13-3 4.31-2.4 5.93.98 2.56 5.37 3.56 11.04 2.8 16.98-.43 3.33-.91 6.65-1.27 9.99-.57 5.15.17 9.88 3.51 14.22 7.85 10.19 15.51 20.52 23.12 30.9 2.64 3.6 4.74 7.59 7.33 11.23 2.11 2.96 4.6 5.65 7.14 8.71v13.94c-2.52 1.28-3.98.66-5.18-1.48-3.61-6.42-7.15-12.88-11.05-19.12-3.2-5.1-7.57-9.57-10.18-14.92-3.03-6.22-9.79-9.18-12.31-15.6-.21-.54-.96-.86-2.23-1.93-.24 2.96-.9 5.36-.54 7.59 1.3 8-.11 15.82-.98 23.7-.15 1.35.22 2.82.62 4.16.35 1.16.98 2.26 1.64 3.29 5.92 9.27 8.99 19.46 10.98 30.26 1.32 7.17 1.56 14.13 1.04 21.27-.1 1.3.61 2.67.99 4 .33 1.15.97 2.27 1.04 3.42.54 7.92.96 15.85 1.44 23.77.03.53.19 1.06.38 2.06 6.96-3.1 9.46-10.43 15.94-15.39.18 3.15.86 5.61.31 7.74-.83 3.19-2.54 6.15-3.87 9.21-.66 1.53-1.51 3.01-1.93 4.6-.68 2.59-2.14 4.3-4.11 6.16-2.6 2.46-4.32 5.89-6.22 9.03-2.59 4.3-4.81 8.82-7.5 13.05-6.7 10.57-13.58 21.03-20.35 31.56-.46.71-.76 1.61-.86 2.45-.86 7.77-1.68 15.55-2.47 23.34-.56 5.53-.67 11.1 2.66 15.87 2.41 3.45 5.26 6.64 8.2 9.66 6.18 6.35 11.79 13.11 16.12 20.86.99 1.77 1.73 3.68 2.59 5.52-.34.34-.69.68-1.03 1.02-2.57-1.52-5.62-2.57-7.62-4.64-6.9-7.13-13.44-14.61-20.28-22.14-.69 5.78-1.44 11.68-2.08 17.6-1.06 9.79-1.96 19.59-3.17 29.36-.23 1.84-1.56 3.54-2.38 5.31-.59-.13-1.11-.29-1.64-.46z" fill="#010102"/><g fill="#fcfbfa"><path d="m385.2 377.6.6-.7c.6.4 1.3.9 1.9 1.5l-.6.7c-.8-.5-1.4-1-1.9-1.5zm.3 7.1c.6-1.4 1.1-2.9 1.5-4.5.3.1.6.3.9.4-.5 1.4-1 2.9-1.5 4.4zm.2-10.1.6-.6c.7.5 1.3 1.1 1.9 1.6l-.7.7c-.6-.6-1.2-1.2-1.8-1.7zm8.4-.8h.8v.9h1.8v.7h-1.8v1.8h-.8v-.3h-1.2v.9h3.3v2.6h-.8v-.4h-2.5c0 .3 0 .6-.1.8h3.4v.7h-3.5c0 .3-.1.6-.1.8h4v.7h-3.5c.7.9 1.9 1.3 3.6 1.5-.2.2-.4.5-.6.9-1.9-.3-3.2-1.1-3.8-2.3-.5 1.1-1.8 2-3.9 2.4-.2-.3-.4-.5-.6-.8 1.9-.4 3.1-.9 3.6-1.7h-3.2v-.7h3.5c.1-.2.1-.5.2-.8h-3.3v-.7h3.4c0-.2 0-.5 0-.8h-2.4v.3h-.8v-2.6h3.3v-.9h-1.2v.3h-.8v-1.8h-1.8v-.7h1.8v-.9h.8v.9h3.2zm-4.4 5.5h2.4c0-.3 0-.6 0-.9h-2.4zm1.2-3.1h3.2v-.8h-3.2zm4.4 2.2h-2.4v.9h2.5v-.9z"/><path d="m389.2 385.8h.9v1.5h1.9v-1.5h.9v1.5h2.7v6h1.1v.9h-11.3v-.9h1.1v-6h2.7zm.2 8.7.5.8c-1.2.6-2.5 1.3-4 1.9-.2-.3-.3-.6-.6-.8 1.6-.6 3-1.3 4.1-1.9zm-2-4.3h1.9v-2.1h-1.9zm0 3.1h1.9v-2.2h-1.9zm2.7-3.1h1.9v-2.1h-1.9zm0 3.1h1.9v-2.2h-1.9zm2.4 1.3c1.4.6 2.7 1.2 4.1 1.8l-.5.9c-1.5-.7-2.8-1.4-4.1-1.9zm2.2-6.5h-1.9v2.1h1.9zm-1.9 5.2h1.9v-2.2h-1.9z"/></g></svg>