<svg enable-background="new 0 0 400 400" viewBox="0 0 400 400" xmlns="http://www.w3.org/2000/svg"><path d="m215.81 373.78c-6.4 1.39-7.11 1.44-9.6-4.18-3.92-8.87-7.53-17.91-10.68-27.08-6-17.43-11.59-35-17.33-52.52-.41-1.26-.8-2.58-.88-3.89-.38-6.25-.41-12.52-.99-18.74-1.44-15.69 1.54-30.99 3.78-46.36.19-1.33.78-2.72.56-3.97-1.45-8.12 4.92-13.91 6.15-21.19.95-5.59 3.14-10.51 6.11-15.39 5.51-9.06 10.46-18.45 13.19-28.86 2.22-8.45 1.75-16.68-1.49-24.66-3.57-8.81-7.74-17.4-7.4-27.26.02-.51-.43-1.33-.88-1.53-3.22-1.38-4.45-4.27-5.59-7.2-5.34-13.73-10.87-27.39-15.87-41.24-2.14-5.93-3.27-12.24-4.59-18.44-.4-1.89.1-3.96.19-5.93 7.18-.23 12.63 4.08 14.61 10.73 1.45 4.89 2.24 10.69 5.39 14.24 10.34 11.63 14.36 26.41 21.5 39.6 1.33 2.45 2.29 5.11 3.64 7.55 3.41 6.17 5.66 12.52 4.89 19.78-.22 2.08.68 4.41 1.5 6.45 5.32 13.22 4.35 26.52.5 39.8-3.8 13.11-9.81 25.23-17.96 36.14-6.91 9.25-9.37 19.61-9.54 30.81-.05 3.36-.18 6.73.12 10.07.88 9.79-2.02 19.05-3.61 28.5-.4 2.36-.67 4.92-.16 7.21 2.71 12.33 5.67 24.61 8.6 36.89.28 1.17.8 2.32 1.39 3.37 9.72 17.1 13.93 35.66 14.67 55.14.03.66-.13 1.32-.22 2.16z" fill="#010100"/><g fill="#fcfafa"><path d="m342.2 3.2-6.3 9.2h6.1v1.2h-8.2v-.5l6.2-9.1h-5.7v-1.2h7.8v.4z"/><path d="m344 13.7v-10.9h3.1c1.6 0 3 .5 4.1 1.4 1.1 1 1.6 2.2 1.6 3.9s-.5 3-1.6 4-2.5 1.5-4.2 1.5h-3zm1.4-9.6v8.4h1.6c1.4 0 2.5-.4 3.2-1.1.8-.8 1.2-1.8 1.2-3.2s-.4-2.4-1.2-3.1-1.8-1-3.1-1z"/><path d="m356.3 2.8v10.9h-1.4v-10.9z"/><path d="m366.6 13.2c-.8.4-1.8.6-3 .6-1.6 0-2.8-.5-3.7-1.5s-1.4-2.3-1.4-3.9c0-1.7.5-3.2 1.6-4.2s2.4-1.6 4-1.6c1 0 1.9.1 2.6.4v1.5c-.8-.4-1.6-.6-2.6-.6-1.2 0-2.2.4-3 1.2s-1.1 1.9-1.1 3.3c0 1.3.4 2.3 1.1 3.1s1.6 1.1 2.8 1.1c1.1 0 2-.2 2.8-.7v1.3z"/><path d="m368.2 13c0-.3.1-.5.3-.6.2-.2.4-.3.6-.3.3 0 .5.1.7.3s.3.4.3.6-.1.5-.3.6c-.2.2-.4.3-.7.3s-.5-.1-.6-.3c-.2-.2-.3-.4-.3-.6z"/><path d="m381.1 13.7h-1.7l-5.5-8.4c-.2-.2-.3-.5-.4-.7 0 .2.1.8.1 1.5v7.6h-1.4v-10.9h1.8l5.3 8.3c.3.4.4.6.4.8 0-.3-.1-.8-.1-1.6v-7.5h1.4v10.9z"/><path d="m389.7 13.7h-5.8v-10.9h5.6v1.2h-4.2v3.5h3.9v1.2h-3.9v3.7h4.4z"/><path d="m398.4 4.1h-3.1v9.6h-1.4v-9.6h-3.1v-1.3h7.7v1.3z"/></g></svg>