<svg enable-background="new 0 0 400 400" viewBox="0 0 400 400" xmlns="http://www.w3.org/2000/svg"><path d="m374.8 390.4.4-.4c.7.5 1.3 1 1.8 1.4l-.5.5c-.5-.6-1.1-1.1-1.7-1.5zm1 7.3-.6-.3c.5-1.4 1.1-2.8 1.5-4.3.2.1.4.2.6.3-.5 1.3-1 2.8-1.5 4.3zm-.4-10.3.4-.4c.4.3 1 .8 1.7 1.4l-.5.5c-.4-.5-1-1-1.6-1.5zm2.5.3h1.7v-1h.6v1h3.5v-1h.6v1h1.8v.5h-1.8v1.4h-2v1h3.2v2h-3.2v.9h3.3v.5h-3.4c0 .3-.1.6-.1.9h4v.5h-3.7c.7.9 1.9 1.5 3.8 1.7-.1.2-.2.4-.3.6-2.1-.4-3.5-1.1-4-2.1-.4 1-1.8 1.7-4 2.2-.1-.2-.2-.4-.3-.6 2.1-.4 3.4-1 3.8-1.8h-3.4v-.5h3.6c.1-.3.1-.6.2-.9h-3.3v-.5h3.4c0-.3 0-.6 0-.9h-3.2v-2h3.3v-1h-2.1v-1.4h-1.7v-.5zm1.1 3.5v1h2.7c0-.3 0-.4 0-.4 0-.1 0-.2 0-.2 0-.1 0-.2 0-.3h-2.7zm1.2-3v.9h3.5v-.9zm4.7 3h-2.6v.6.4h2.6z" fill="#fbfcfa"/><path d="m393.6 386.7h.6v1.5h2.7v6.1h1.1v.6h-11v-.6h1.1v-6.1h2.7v-1.5h.6v1.5h2.1v-1.5zm-2.7 8.8.4.6c-1.2.6-2.5 1.3-3.8 1.9-.1-.2-.2-.4-.3-.6 1.2-.6 2.5-1.2 3.7-1.9zm-2.2-6.7v2.4h2.1v-2.4zm0 3v2.5h2.1v-2.5zm2.8-3v2.4h2.1v-2.4zm0 3v2.5h2.1v-2.5zm6 6.1c-1.4-.7-2.7-1.3-3.9-1.8l.3-.6c1.5.6 2.7 1.2 3.9 1.7zm-1.2-9.1h-2.1v2.4h2.1zm-2.1 3v2.5h2.1v-2.5z" fill="#fbfcfa"/><path d="m185.47 257.61c0 2.69.75 5.66-.15 8-2.14 5.58-4.46 11.25-7.78 16.17-5.62 8.33-12.13 16.06-18.11 24.17-.85 1.16-1.31 3.08-1.06 4.5 1.15 6.49 1.93 13.18 4.2 19.29 1.5 4.04 4.98 7.55 8.19 10.68 1.7 1.67 4.78 1.51 6.77-.51 10.33-10.5 19.85-21.59 24.87-35.78 3.23-9.13 3.49-18.48 1.11-27.75-2.38-9.25-4.7-18.41-3.66-28.09.11-1.04-.9-2.37-1.68-3.32-3.76-4.55-7.86-8.85-11.37-13.58-2.84-3.83-3.89-8.2-1.21-12.81 1.88-3.24 1.22-5.91-1.9-8.23-6.29-4.68-9.42-11.06-10.93-18.8-1.92-9.85-4.91-19.5-7.3-29.26-.34-1.4-.26-3.14.26-4.47 5.31-13.64 10.74-27.23 16.19-40.81.45-1.11 1.13-2.2 1.95-3.07 10.88-11.6 17.29-25.41 20.25-40.9.24-1.25.04-3.06-.73-3.94-5.01-5.79-7.02-12.01-2.85-19.47-3.21-.8-5.76-1.59-8.36-2.05-2.69-.47-4.26-2.04-4.76-4.53-.59-2.95-1.46-6.06-1.02-8.92.33-2.13 2.41-4.09 3.95-5.93 3.04-3.65 3.57-3.67 7.79-1.53 4.3 2.18 7.02 5.79 9.04 10.01 1.99 4.14 4.84 7.18 9.58 8.11 3.29.65 5.91.32 8.25-2.66 4.19-5.3 8.82-10.25 13.84-16.01 0 7.89.83 15.03-.28 21.85-.79 4.85-4.12 9.32-6.54 13.84-.4.74-1.88 1.02-2.93 1.28-5.17 1.32-10.36 2.56-15.7 4.62 3.29 1.07 6.65 1.95 9.82 3.3 1.59.68 3.28 1.94 4.13 3.4 7.55 13.07 14.84 26.28 22.4 39.34 1.58 2.74 1.98 5.09.98 8.14-2.52 7.67-2.36 7.52-10.48 6.84-3.35-.28-5.66-1.7-8.28-3.59-4.11-2.97-8.73-5.29-13.28-7.58-.83-.42-2.7.21-3.52.97-1.45 1.35-2.45 3.17-3.64 4.79-.66.9-1.26 1.86-2.01 2.68-3.16 3.48-5.42 3.69-9.17.72-.13.73-.38 1.34-.31 1.9.74 5.71-1.05 10.64-4.03 15.48-3.63 5.9-6.84 12.05-10.01 18.21-.67 1.3-.86 3.26-.43 4.65 5.65 18.01 11.42 35.99 17.29 53.94.6 1.84 1.8 3.58 3.07 5.08 10.85 12.86 16.67 27.51 17.01 44.48.29 14.39-.78 28.6-3.62 42.69-.2.98-.48 1.96-.9 2.87-6.03 13.12-14.42 24.75-23.86 35.51-3.58 4.08-8.89 6.69-13.53 9.79-3.88 2.6-7.35 5.29-8.67 10.18-.73 2.72-6.99 3.87-8.85 1.9-10.83-11.51-18.33-24.9-20.95-40.52-2.27-13.52.53-26.1 8.9-37.4 4.51-6.09 8.26-12.74 12.18-19.25 3.24-5.39 6.34-10.9 11.64-14.55 2.7-1.86 5.78-3.16 8.7-4.71.52.2 1.01.42 1.5.64z" fill="#010101"/></svg>