<svg enable-background="new 0 0 400 400" viewBox="0 0 400 400" xmlns="http://www.w3.org/2000/svg"><path d="m374.8 390.4.4-.4c.7.5 1.3 1 1.8 1.4l-.5.5c-.5-.6-1.1-1.1-1.7-1.5zm1 7.3-.6-.3c.5-1.4 1.1-2.8 1.5-4.3.2.1.4.2.6.3-.5 1.3-1 2.8-1.5 4.3zm-.4-10.3.4-.4c.4.3 1 .8 1.7 1.4l-.5.5c-.4-.5-1-1-1.6-1.5zm2.5.3h1.7v-1h.6v1h3.5v-1h.6v1h1.8v.5h-1.8v1.4h-2v1h3.2v2h-3.2v.9h3.3v.5h-3.4c0 .3-.1.6-.1.9h4v.5h-3.7c.7.9 1.9 1.5 3.8 1.7-.1.2-.2.4-.3.6-2.1-.4-3.5-1.1-4-2.1-.4 1-1.8 1.7-4 2.2-.1-.2-.2-.4-.3-.6 2.1-.4 3.4-1 3.8-1.8h-3.4v-.5h3.6c.1-.3.1-.6.2-.9h-3.3v-.5h3.4c0-.3 0-.6 0-.9h-3.2v-2h3.3v-1h-2.1v-1.4h-1.7v-.5zm1.1 3.5v1h2.7c0-.3 0-.4 0-.4 0-.1 0-.2 0-.2 0-.1 0-.2 0-.3h-2.7zm1.2-3v.9h3.5v-.9zm4.7 3h-2.6v.6.4h2.6z" fill="#fbfcfa"/><path d="m393.6 386.7h.6v1.5h2.7v6.1h1.1v.6h-11v-.6h1.1v-6.1h2.7v-1.5h.6v1.5h2.1v-1.5zm-2.7 8.8.4.6c-1.2.6-2.5 1.3-3.8 1.9-.1-.2-.2-.4-.3-.6 1.2-.6 2.5-1.2 3.7-1.9zm-2.2-6.7v2.4h2.1v-2.4zm0 3v2.5h2.1v-2.5zm2.8-3v2.4h2.1v-2.4zm0 3v2.5h2.1v-2.5zm6 6.1c-1.4-.7-2.7-1.3-3.9-1.8l.3-.6c1.5.6 2.7 1.2 3.9 1.7zm-1.2-9.1h-2.1v2.4h2.1zm-2.1 3v2.5h2.1v-2.5z" fill="#fbfcfa"/><g fill="#010101"><path d="m157.41 257.08c-1.12-1.79-2.29-3.21-2.97-4.83-1.19-2.83-3.12-3.13-5.88-2.69-5.96.94-11.97 1.63-17.97 2.21-1.34.13-2.82-.43-4.14-.92-3.35-1.24-6.65-2.62-10.27-4.07-.82 1.16-1.8 2.24-2.43 3.49-2.03 4.03-5.47 6.27-9.67 7-9.67 1.69-19.35 3.66-29.11 4.38-10.78.8-21.66.39-32.49.36-3.41-.01-6.52-1.11-9.17-3.53-1.89-1.72-4.23-2.95-6.16-4.63-1.31-1.14-2.66-2.5-3.34-4.05-2.39-5.4-.48-8.4 5.22-8.53 16.22-.37 31.45-5.2 46.59-10.39 1.26-.43 2.61-1.09 3.86-.97 13.85 1.38 26.7-3.25 39.78-6.49 6.51-1.61 12.91-3.91 19.51-4.79 8.27-1.11 16.7-1.16 25.06-1.52 12.51-.54 25.03-.94 37.54-1.47 1.53-.07 3.07-.52 4.56-.95 21.4-6.09 42.87-11.86 64.99-14.73.33-.04.66-.13 1-.14 3.46-.06 7.2-.93 10.31.09 3.04 1 5.44 3.93 8.27 6.13 2.45-4.5 7.05-5.82 11.8-7.44 10.71-3.63 21.49-1.33 32.24-1.2 4.8.06 9.61.35 14.37.91 2.27.27 4.59 1.12 6.59 2.25 1.09.62 2.16 2.34 2.18 3.58.04 2.51 1.38 3.38 3.3 3.1 2.13-.31 4.32-1.03 6.2-2.08 2.51-1.4 3.79-.68 4.45 1.8.65 2.45.61 4.5-1.69 6.53-11.21 9.91-24.37 14.56-39.11 15.61-10.93.78-21.82 2.16-32.76 2.75-4.47.24-9.01-.96-13.53-1.38-1.5-.14-3.11-.15-4.53.26-3.75 1.09-7.5 2.25-11.11 3.74-14.18 5.84-29.35 6.71-44.26 8.71-12.62 1.7-25.33 2.69-38.02 3.79-9.56.83-18.29 3.96-26.54 8.68-.77.43-1.55.83-2.67 1.43z"/><path d="m367.46 152.71c-7.01 2.59-13.04 4.83-19.07 7.05-5.66 2.08-11.39 3.98-16.98 6.25-4.75 1.93-9.46 3.1-14.62 2.06-9.45-1.89-18.66 1.29-28.01 1.52-15.42.37-30.84.85-46.26.92-11.06.05-22.13-.45-33.19-.82-1.21-.04-2.78-.5-3.52-1.35-1.79-2.06-3.59-2.34-6.18-1.69-7.47 1.9-15.03 3.43-22.52 5.24-5.56 1.35-11.08 2.43-16.86 1.58-11.34-1.67-22.51-.19-33.58 2.24-14.43 3.17-28.61 2.81-42.57-2.4-.95-.35-2.67.05-3.45.75-5.91 5.29-12.45 7.51-20.4 5.58-3.99-.97-8.21-.96-12.29-1.65-1.57-.27-3.02-1.26-4.54-1.87-3.88-1.56-7.84-2.94-11.63-4.71-1.8-.84-3.95-2.05-4.74-3.67-1.84-3.78-3.07-7.88-4.25-11.94-.22-.75.74-2.24 1.56-2.82 5.82-4.08 12.2-5.3 19.11-3.35 7.85 2.21 15.69 4.43 23.56 6.54 1.36.37 2.9.51 4.27.29 21.84-3.54 43.71-6.96 65.47-10.93 4.68-.85 8.96-3.85 13.47-5.74 1.15-.48 2.63-.99 3.72-.67 14.61 4.25 29.23 2.71 43.88.37 3.19-.51 6.44-.82 9.66-.84 14.88-.09 29.77.18 44.65-.14 6.34-.14 12.2.64 17.53 4.16 1.55 1.02 2.77.82 4.51-.04 8.99-4.45 18.54-4.35 28.16-2.7.95.16 1.79 1.21 2.59 1.95 1.97 1.82 4.24 2.79 6.74 1.51 10.21-5.22 20.71-3.49 31.13-1.19 5.64 1.24 11.18 3.09 16.57 5.17 2.71 1.03 4.95 3.21 8.08 5.34z"/></g></svg>