<svg enable-background="new 0 0 400 400" viewBox="0 0 400 400" xmlns="http://www.w3.org/2000/svg"><g fill="#fbfafa"><path d="m37.59 393.81c-.92.31-1.52.05-2-.78-.7-1.2-1.52-2.34-2.47-3.78v4.59c-.55.03-.95.05-1.41.07-.03-.37-.06-.64-.06-.91 0-1.91 0-3.81 0-5.7 1.13-.41 1.77-.03 2.29.91.62 1.11 1.38 2.14 2.31 3.19v-4.2h1.35v6.61z"/><path d="m12.94 393.88v-6.75c1.9.19 3.93-.54 5.37 1.29.8 1.01.78 2.88.03 3.97-1.37 1.97-3.4 1.51-5.4 1.49m1.45-1.22c2.04.12 2.92-.58 2.89-2.21-.03-1.51-.98-2.19-2.89-2z"/><path d="m11.81 393.87h-5.49c.68-2.18 2.47-3.48 3.51-5.45h-3.08v-1.21h5.29c-.71 2.13-2.44 3.48-3.47 5.51.86 0 1.63.04 2.39-.01.79-.05 1.14.21.85 1.16"/><path d="m39.33 393.86v-6.61h3.7v1.07h-2.22v1.52c.68.04 1.34.09 2.07.13v1.07c-.72.05-1.38.09-2.1.14v1.48h2.4v1.19h-3.85z"/><path d="m27.71 388.56c-1.15-.3-2.46-.61-3.1.64-.37.73-.41 1.93-.06 2.67.63 1.35 1.99.93 3.17.68.35.94-.01 1.32-.93 1.46-1.62.25-3.05-.27-3.76-1.48-.73-1.24-.6-3.03.31-4.17.88-1.11 2.71-1.7 4-1.16.32.13.44.74.65 1.12-.1.08-.19.16-.28.24"/><path d="m49.15 387.24v1.07c-.59.02-1.17.05-1.87.08v5.44h-1.48v-5.44h-1.85c-.05-.4-.08-.73-.13-1.15z"/><path d="m20.06 387.21h1.33v6.62h-1.33z"/><path d="m30.68 393.25c-.49.38-.8.79-1.05.76-.32-.05-.6-.45-.9-.7.26-.24.51-.64.8-.67.29-.04.62.3 1.15.61"/></g><path d="m272.74 27.03c-13.73 11.05-25.96 23.62-44.47 25.37.96 4.06-1.39 5.04-4.33 5.84-5.34 1.46-10.42 4.11-16.27 2.95-.79-.16-1.96.48-2.66 1.08-6.43 5.55-14.14 6.13-22.34 5.97-.24-3.35-1.62-5.76-5.61-6.23-.2 1.94-.62 3.9-.54 5.84.08 2.21-.94 3.48-2.85 3.86-3.38.66-6.82.99-10.23 1.52-1.54.24-3.12.42-4.57.94-2.83 1.02-4.59 2.79-4.48 6.21.46 14.3-2.42 28.26-4.33 42.33-.25 1.84.18 3.77.02 5.64-.13 1.44-.74 2.84-1.04 4.28-.19.91-.39 1.9-.23 2.79.73 4.07 1.77 8.09 2.36 12.17.73 5.03-.35 6.2-5.2 7.01-1.18.2-2.26 1.02-3.38 1.56.03.32.06.64.09.96 2.71.74 5.39 1.59 8.14 2.17 1.83.38 2.18 1.24 2.12 3.02-.47 13.51-.76 27.03-1.25 40.55-.09 2.38-.85 4.74-1.42 7.75 2.33 1.94 5.59 3.12 9.88 2.17 11.88-2.63 23.89-4.69 35.76-7.36 3.59-.81 5.62.58 7.33 3.08 1.63 2.37.96 7.2-1.06 9.03-4.64 4.23-10 7.16-16.19 8.33-5.16.97-10.39 1.58-15.54 2.62-2.78.56-5.43 1.8-8.18 2.54-2.85.76-5.74 1.38-8.64 1.9-2.44.44-4.92.64-7.55.97 3.5 8.7 1.97 17 1.68 25.18-.08 2.32-1.48 4.57-1.81 6.91-.28 1.97-.2 4.11.29 6.02.66 2.6 1.99 5.01-.99 7.14-.66.47-.89 1.74-1.06 2.69-.33 1.85-.47 3.73-1.14 5.59 3.14 4.56 3.37 9.7 2.63 15.26-.8 6.06-.63 12.35-8.87 13.76 4.07 6.84 3.04 13.46 1.43 20.01-1.46 5.96-3.36 11.81-4.96 17.74-.88 3.28-2.81 4.12-5.88 3.05-.94-.33-1.94-.47-2.93-.7 0-4.84-.03-9.62.01-14.4.04-5.04.37-10.08.15-15.1-.19-4.39.45-8.18 4.84-10.58-3.55-3.28-3.76-7.23-3.69-11.34.32-19.02.58-38.04.83-57.05.05-3.58-1.62-5.7-5.25-6.04-2.75-.26-5.58-.05-8.34.24-2.82.3-5.98.45-7.07-2.35-1.2-3.07-1.22-6.64-1.51-10.01-.04-.47 1.21-1.3 2-1.54 3.72-1.13 7.42-2.42 11.23-3.08 7.32-1.27 10.6-4.38 11.25-11.79.89-10.14 2.58-20.34 2.12-30.44-.43-9.62.03-19.13.26-28.7.07-3.07-.9-6.18-1.55-9.24-1.18-5.58-.59-10.7 3.88-15.2-3.83-2.81-3.02-6.42-2.5-10.35 1.67-12.41 2.97-24.87 4.3-37.33.32-2.96-.98-4.03-4.02-3.64-1.31.17-2.61.59-3.88 1-4.73 1.54-7.56.95-11.38-2.41.44-1.61.88-3.21 1.31-4.82-.3-.14-.6-.27-.91-.41-1.24.87-2.47 1.74-3.71 2.62-.21-.06-.54-.05-.62-.18-1.68-2.8-3.34-5.62-5-8.43 2.83-1.06 5.63-2.87 8.51-3.01 6-.31 12.06.17 18.08.49 6.29.34 12.42.08 18.54-1.88 10-3.2 20.11-6.09 30.25-8.81 4.38-1.18 8.98-1.53 13.46-2.4 2.49-.48 5.03-.97 7.35-1.92 5.89-2.42 11.59-5.3 17.52-7.59 3.15-1.21 6.62-1.58 9.95-2.33.75-.17 1.75-.08 2.2-.53 3.63-3.67 8.65-3.91 13.13-5.49 6.4-2.25 12.69-4.89 19.2-6.73 2.18-.6 4.88.79 7.33 1.26z" fill="#010000"/><path d="m195.9 131.8c3.4 1.33 3.13 3.42 2.29 6.49-1.71 6.21-2.65 12.64-3.99 19.42 3.9.3 7.28.59 10.68.82 2.12.14 4.26.08 6.36.34 3.16.4 6.17.55 8.94-1.55.93-.7 2.28-1.13 3.46-1.18 8.59-.37 16.12-4.3 24.03-6.94 2.62-.87 5.39-1.29 8.11-1.83 3.8-.75 7.65-1.26 11.41-2.17 4.1-.99 7.42-.8 10.48 2.82 7.81 9.23 13.89 19.06 12.59 31.74-.31 3.05-1.91 5.95-2.75 8.97-.28 1-.33 2.23-.02 3.21 1.73 5.55 1.03 10.77-1.5 15.94-.8 1.64-.84 3.64-1.35 5.44-.29 1.01-.6 2.19-1.3 2.9-7.44 7.44-14.68 15.11-22.58 22.04-3.51 3.08-8.29 4.79-12.65 6.76-2.5 1.13-3.4 2.53-3.3 5.29.44 12.55-3.54 24.5-5.47 36.73-.19 1.22-2.12 2.55-3.53 3.1-1.71.67-3.83.24-5.57.87-1.72.62-3.34 1.8-4.67 3.08-.44.43-.17 2.26.4 2.86.52.55 1.98.63 2.85.35 1.98-.62 3.86-1.58 5.9-2.46.71 3.7.37 6.67-1.86 9.49-2.42 3.07-4.43 6.45-6.62 9.7-.13.19-.25.37-.36.56-2.18 3.66-6.86 5.07-7.21 10.8-.25 4.01-4.27 7.87-6.87 11.61-.93 1.34-2.68 2.1-3.98 3.22-.95.81-1.79 1.75-2.65 2.66-.77.81-1.51 1.65-2.26 2.48-.26-.19-.52-.39-.78-.58.12-.69.24-1.38.44-2.58-1.84.24-3.4.45-5.63.75 3.82 6.18-.96 8.07-4.41 11.26-9.26 8.56-20.19 13.86-31.89 17.94-.84.29-1.68.61-2.55.82-.27.07-.62-.16-1.5-.42 1.32-1.58 2.47-2.95 3.76-4.47-1.29-1.51-2.57-3.01-4.17-4.88 4.71-1.4 9.1-2.71 13.67-4.07.32 1.19.55 2 .87 3.19.42-.9.85-1.46.93-2.07.81-6.02 4.24-9.65 9.88-11.7 3.32-1.21 6.26-2.9 7.31-7.05.55-2.18 2.89-3.9 4.4-5.84 10.89-14.06 20.63-28.82 24.55-46.47 2.22-10.02 3.37-20.28 5.12-30.41.42-2.45-1.15-3.3-2.75-3.23-4.1.17-8.2.74-12.26 1.35-.66.1-1.19 1.22-1.75 1.9-1.84 2.25-3.5 4.66-5.51 6.73-4.77 4.89-10.48 4.68-15-.35-1.03-1.15-2.07-2.29-3.38-3.74 7.75-4.11 15.19-8.15 22.77-11.92.89-.44 2.54.64 4.15 1.11 2.03-1.88 4.26-4.23 6.77-6.22 3.75-2.97 7.87-5.03 12.97-4.4.91.11 2.32-.96 2.91-1.87 1.01-1.54 1.99-2.4 3.99-2.32 1.36.06 2.86-.42 4.12-1.01 6.57-3.1 13.05-6.39 19.64-9.45 3.24-1.5 5.43-3.71 6.63-7.11 1.35-3.86 1.48-3.82 9.45-9.63-3.85-5.12-1.26-10.64-.8-16.06.74-8.91 1.95-17.8 2.25-26.72.3-9.08-1.06-9.89-9.62-7.3-6.63 2.01-13.26 4.05-19.78 6.38-4.48 1.6-8.62 1.81-12.74-.86-.99-.64-2.21-.94-3.6-1.5-.28 1.14-.5 2.05-.77 3.14 1.17.49 2.17.92 3.17 1.35-4.44 2.94-8.35 3.14-11.56.49v3.27c-5.42.06-11.04 3.66-15.67-1.93-2.89 3.3-5.64 6.46-8.16 9.34-1.76-.7-3.05-1.33-4.41-1.71-1.38-.38-2.97-.21-4.22-.8-3.76-1.79-9.43-12.81-8.85-17.04.1-.73.72-1.66 1.36-1.99 2.14-1.11 2.73-2.67 1.53-4.66-3.72-6.2-2.03-12.85.2-18.46 1.54-3.86 3.14-6.75 1.32-10.78-.37-.82.5-2.35 1.08-3.41 2.03-3.73 2.44-7.63 1.21-11.62-.64-2.07.14-3.29 1.59-4.62 4.96-4.55 10.97-6.79 17.38-8.18 4.26-.92 8.53-1.97 12.85-2.42 2.91-.31 5.92.32 9.07.54 1.77-7.07 7.61-7.81 13.59-7.88 3.22-.04 6.44.69 9.66 1 3.14.3 4.99 1.9 5.94 4.95.38 1.22 1.61 2.17 3.06 3.16-1.49-6.11 2.5-7.95 6.49-10.03 1.49-.77 2.65-2.32 3.72-3.69 1.05-1.33 1.9-2.68 3.66-1.04 1.53 1.43 1.43 3.04-.01 4.39-2.04 1.91-4.14 3.79-6.39 5.44-1.8 1.32-2.12 2.7-1.65 4.84 1.12 5.1-.56 6.72-5.32 4.76-4.26-1.76-7.4-.8-11.01 1.75-7.37 5.2-15.55 7.1-24.36 3.74-1.83-.7-3.19-.27-4.93.6-3.85 1.92-7.89 3.53-11.99 4.81-2.53.79-4.09 1.69-4.04 4.62.02 1.18-.54 2.68-1.37 3.49-1.65 1.62-4.44 2.48-5.35 4.34-1.4 2.77-1.57 6.18-2.29 9.48zm61.58 103.35c2.16-.73 4.04-1.36 5.97-2-2.48-4.04-2.94-4.15-8.09-1.73.65 1.15 1.29 2.27 2.12 3.73z" fill="#010000"/><path d="m142.23 373.01c1.74-1.19 3.36-2.62 5.25-3.47.98-.44 2.63-.21 3.58.37.64.38 1.01 2.07.72 2.89-.33.9-1.54 2.04-2.4 2.08-2.39.11-4.8-.31-7.21-.52.02-.46.04-.9.06-1.35z" fill="#010000"/></svg>