<svg enable-background="new 0 0 400 400" viewBox="0 0 400 400" xmlns="http://www.w3.org/2000/svg"><path d="m77.44 352c8.24-7.16 17.57-11.54 28.01-13.26 18.83-3.11 37.46-1.4 55.86 3.3 1.14.29 2.15 1.12 3.18 1.77 5.38 3.39 10.75 3.74 16.47.59 3.69-2.03 7.58-3.83 11.59-5.09 5.55-1.75 10.86-.84 15.18 3.41 2.4 2.36 5.18 2.72 8.03 1.48 5.32-2.32 10.48-4.98 15.78-7.35 1.34-.6 3.09-1.15 4.41-.81 13.28 3.45 26.78 3.39 40.33 2.95 1.34-.04 2.69.04 4.03-.01 13.41-.56 15.66 8.32 14.3 17.91-.1.74-1.35 1.77-2.17 1.88-5.62.77-11.36 2.29-16.89 1.75-13.3-1.29-26.34.23-39.44 1.89-10.99 1.39-21.97 2.8-32.98 3.99-1.62.17-3.59-.44-5-1.33-7.6-4.8-15.37-4.64-23.97-2.77-20.31 4.42-40.82 7.96-61.23 11.94-2.21.43-3.7.06-5.23-1.69-3.75-4.29-8.45-7.27-13.85-9.12-6.39-2.2-11.68-6-16.41-11.43zm60.63.78v5.46c1.59-.49 2.85-.88 4.04-1.24-1.45-1.52-2.62-2.74-4.04-4.22z" fill="#010100"/><path d="m307.95 98.47c2.68 6.53 5.25 12.79 7.98 19.43-5.22 1.52-10.11 2.95-15 4.38-.32.09-.66.13-.98.22-4.08 1.16-8.38 3.71-12.18 3.09-3.42-.55-6.29-4.56-9.62-7.21-9.43 6.36-20.52 7.38-31.78 7.3-10.85-.07-21.69-.73-32.53-.64-5 .04-8.4-2.37-11.81-5.31-1.2-1.03-2.36-2.15-4.01-.6-8.43 7.92-18.49 7.41-28.7 5.25-11.88-2.51-23.41-6.01-32.97-14-3.43-2.87-5.71-6.5-6.59-10.99-.33-1.67.03-2.49 1.54-3.47 3.39-2.21 6.99-2.75 10.86-2.27 15.08 1.84 30.17 3.66 45.25 5.58 4.88.62 9.71 1.63 14.59 2.2 1.81.21 3.88.1 5.54-.58 14.71-6.05 30.15-5.71 45.59-5.52 11.44.14 22.78 1 33.83 4.25.43.13.9.19 1.27.42 6.12 3.88 11.98 2.59 17.77-.8.45-.3 1.02-.4 1.95-.73z" fill="#010100"/><path d="m166.94 258.31c12.63-.43 25.28-1.52 37.88-1.11 15.62.52 31.22 2.07 46.77 3.67 4.09.42 8.13 2.37 11.93 4.18 3.62 1.72 6.18 4.71 7.14 8.84 1.49 6.44.06 9.79-6.15 11.88-16.06 5.4-31.63 3.82-46.77-3.72-2.29-1.14-5.7-1.93-7.88-1.07-12 4.71-24.38 3.7-36.76 3.37-18.22-.48-36.45-.93-54.67-1.31-6.57-.14-13.17.28-19.72-.16-3.36-.23-6.83-1.39-9.9-2.85-5.26-2.5-7.08-11.3-3.57-15.85.37-.48 1.32-.69 2.01-.74 22.1-1.37 44.2-2.71 66.3-4.05 4.47-.27 8.93-.53 13.4-.8-.01-.09-.01-.19-.01-.28zm93.38 19.83c-2.03-2.53-3.82-4.75-6.06-7.53v10.86c2.15-1.18 3.94-2.16 6.06-3.33z" fill="#010100"/><path d="m279.79 194.3c-1.88-.2-5.11-.42-8.3-.93-3.55-.56-6.69-1.66-8.98-4.99-2.35-3.42-4.53-3.63-8.1-1.37-2.82 1.78-5.25 4.17-8.02 6.04-1.38.93-3.14 1.75-4.76 1.8-19.21.67-38.43 1.24-57.65 1.66-2.47.05-5.03-.7-7.41-1.49-3.06-1.02-6.19-2.14-8.93-3.8-6.08-3.69-12.21-2.91-18.27-.52-5.98 2.36-11.99 2.32-18.14 1.35-.55-.09-1.24-.1-1.6-.44-3.58-3.37-7.85-4.26-12.64-4.25-2.47.01-3.05-2.47-2.85-4.55.19-1.89-.42-4.18 2.81-4.78 20.98-3.91 41.91-8.03 62.87-12.03 1.16-.22 2.48-.32 3.59 0 16.83 4.7 33.95 4.71 51.23 3.73 16.74-.94 33.57-1.36 50.16 1.75 5.98 1.12 11.86 3.24 17.47 5.65 2.63 1.13 5.01 3.72 6.57 6.23 1.88 3.02.83 4.85-2.46 6.07-8.13 3-16.54 4.64-26.59 4.87z" fill="#010100"/><path d="m137.89 52.64c-1.95.9-3.17 1.24-4.12 1.95-3.94 2.95-7.48 2.35-11.51-.21-4.02-2.55-8.5-4.4-12.91-6.27-7.31-3.1-9.8-7.94-7.51-15.53.77-2.54 1.9-4.97 2.89-7.52 4.75 1.02 9.16 2.39 13.66 2.81 3.79.36 7.75-.04 11.52-.7 7.25-1.28 14.44-1.67 21.59.31 3.98 1.1 8.04 2.14 11.78 3.83 10.09 4.56 20.82 3.53 31.36 4.02 10.73.49 21.51.22 32.18 1.19 9.88.91 19.7 2.76 29.44 4.7 6.51 1.3 9.9 8.34 7.62 14.79-.27.76-1.49 1.39-2.39 1.68-4.97 1.58-10.21 2.52-14.93 4.64-7.66 3.43-15.17 3.41-23.16 1.57-9.9-2.29-19.93-4.08-29.96-5.78-2.11-.36-4.76-.02-6.59 1.01-4.51 2.53-8.95 3.18-14.08 2.4-9.95-1.51-19.97-2.52-29.99-3.52-3.16-.32-6.03-.33-4.89-5.37zm7.86-12.47c-.06-.28-.13-.55-.19-.83-4.65-.46-9.3-.92-14.32-1.42.66 2.46 1.18 4.37 1.76 6.51 4.39-1.47 8.57-2.86 12.75-4.26z" fill="#010100"/><g fill="#fcfafa"><path d="m342.2 3.2-6.3 9.2h6.1v1.2h-8.2v-.5l6.2-9.1h-5.7v-1.2h7.8v.4z"/><path d="m344 13.7v-10.9h3.1c1.6 0 3 .5 4.1 1.4 1.1 1 1.6 2.2 1.6 3.9s-.5 3-1.6 4-2.5 1.5-4.2 1.5h-3zm1.4-9.6v8.4h1.6c1.4 0 2.5-.4 3.2-1.1.8-.8 1.2-1.8 1.2-3.2s-.4-2.4-1.2-3.1-1.8-1-3.1-1z"/><path d="m356.3 2.8v10.9h-1.4v-10.9z"/><path d="m366.6 13.2c-.8.4-1.8.6-3 .6-1.6 0-2.8-.5-3.7-1.5s-1.4-2.3-1.4-3.9c0-1.7.5-3.2 1.6-4.2s2.4-1.6 4-1.6c1 0 1.9.1 2.6.4v1.5c-.8-.4-1.6-.6-2.6-.6-1.2 0-2.2.4-3 1.2s-1.1 1.9-1.1 3.3c0 1.3.4 2.3 1.1 3.1s1.6 1.1 2.8 1.1c1.1 0 2-.2 2.8-.7v1.3z"/><path d="m368.2 13c0-.3.1-.5.3-.6.2-.2.4-.3.6-.3.3 0 .5.1.7.3s.3.4.3.6-.1.5-.3.6c-.2.2-.4.3-.7.3s-.5-.1-.6-.3c-.2-.2-.3-.4-.3-.6z"/><path d="m381.1 13.7h-1.7l-5.5-8.4c-.2-.2-.3-.5-.4-.7 0 .2.1.8.1 1.5v7.6h-1.4v-10.9h1.8l5.3 8.3c.3.4.4.6.4.8 0-.3-.1-.8-.1-1.6v-7.5h1.4v10.9z"/><path d="m389.7 13.7h-5.8v-10.9h5.6v1.2h-4.2v3.5h3.9v1.2h-3.9v3.7h4.4z"/><path d="m398.4 4.1h-3.1v9.6h-1.4v-9.6h-3.1v-1.3h7.7v1.3z"/></g></svg>