<svg enable-background="new 0 0 400 400" viewBox="0 0 400 400" xmlns="http://www.w3.org/2000/svg"><path d="m23.77 135.8c8.05-3.05 15.72-6.12 23.54-8.77 1.42-.48 3.41.89 5.17 1.25 1.31.27 2.68.27 4.03.4 0-1.43.15-2.89-.06-4.3-.18-1.19-.95-2.28-1.17-3.47-.61-3.37.97-5.83 4.23-6.82 3.74-1.13 7.5-2.21 11.25-3.33 9.08-2.72 18.02-5.49 26.43-10.25 12.1-6.84 25.82-9.12 39.35-11.68 9.44-1.79 18.93-3.53 28.17-6.11 9.87-2.76 19.5-1.48 29.2.07 14.46 2.31 27.45 7.92 38.16 18.13.99.94 1.62 2.83 1.54 4.23-.22 4.24-.99 8.44-1.3 12.68-.15 2.08-.06 4.26.39 6.29 4.24 19.21 4.27 19.21.6 38.84-1.03 5.49-2.29 10.96-2.92 16.51-.69 6.17-2.88 11.59-6.23 16.74s-6.74 10.35-9.35 15.89c-3.69 7.84-10.31 11.16-18.03 12.98-5.21 1.23-10.52 2.29-15.84 2.74-7.12.6-13.44 3.42-19.62 6.43-6.01 2.93-11.83 4.24-18.23 1.71-1.12-.44-2.5-.92-3.59-.66-8.76 2.08-13.5-4.7-19.36-8.81-1.82-1.28-2.92-3.59-4.89-6.14 4.55-1.94 8.45-4.32 12.67-5.27 12.41-2.77 24.94-5.04 37.45-7.39 11.05-2.08 21.79-4.92 31.44-11.02 2.08-1.32 2.92-2.63 2.64-5.35-1.23-11.71 1.39-23.09 3.52-34.5 1.04-5.59 2.53-11.15 2.93-16.79.82-11.54-6.08-18.89-15.26-24.02-3.15-1.76-7.64-1.02-11.47-1.68-2.77-.47-4.87.08-7.38 1.64-3.31 2.06-7.28 3.42-11.14 4.15-16.02 3.04-32.13 5.58-48.16 8.59-11.2 2.1-22.32 4.66-33.48 7-5.14 1.08-5.15 1.06-7.26-2.73-3.15 2.07-6.22 4.37-9.55 6.19-4.1 2.25-6.57 6.03-5.94 10.65 2.67 19.72 5.65 39.4 8.09 59.15 1.1 8.86 1.25 17.84 1.79 26.77.25 4.13.35 8.27.58 12.41.3 5.4.66 10.54 2.9 15.87 3.03 7.22 3.46 15.25-1.23 22.93 2.17 1.14 4.34 2.51 6.67 3.44 3.57 1.42 5.53 4.02 7.21 7.38 3.24 6.49 6.83 12.82 10.54 19.06 8.04 13.5 20.51 20.29 35.66 22.33 21.28 2.85 42.4 1.84 63.19-3.84 1.06-.29 2.53-.48 3.03-1.23 2.25-3.41 5.16-2.48 7.99-1.42 4.91 1.83 9.7 1.5 14.73.3 9.01-2.16 18.21-3.58 27.2-5.82 17.66-4.38 31.98-13.97 43.13-28.4 10.4-13.46 21.06-26.72 31.54-40.11.93-1.19 1.65-2.66 2.06-4.12 1.29-4.63 2.69-9.26 3.47-13.99 1.17-7.08 4.65-12.68 9.81-17.42 6.15-5.65 12.5-11.05 21.31-11.71 2.95-.22 6.05.08 8.93.78 4.78 1.16 7.13 7.07 4.72 12.05-2.43 5.02-5.44 9.76-8.02 14.72-6.58 12.64-14.13 24.66-23.51 35.41-7.65 8.77-12.69 19.17-18.78 28.92-11.42 18.28-25.53 33.73-45.73 42.52-8.9 3.88-17.95 7.46-27.05 10.85-17.23 6.41-35.03 9.55-53.49 9.71-8.79.08-17.55 1.83-26.34 2.64-2.05.19-4.17-.34-6.25-.55-.06-.34-.13-.67-.19-1.01-1.3 1.17-2.8 2.19-3.86 3.55-2.95 3.78-6.97 4.74-11.34 4.25-18.1-2.03-36.19-4.19-54.27-6.4-1.06-.13-2.42-.94-2.94-1.84-4.74-8.12-11.67-14.1-19.14-19.47-5.01-3.6-8.21-8.51-11.03-13.73-9.65-17.88-16.89-36.72-22.19-56.32-.46-1.7-.55-3.53-.6-5.3-.09-3.36-.18-6.72 0-10.07.74-13.25-1.46-26.29-2.35-39.43-.55-8.14-2.56-15.79-4.25-23.63-1.3-6.03-1.38-12.39-1.39-18.6-.01-5.14-.62-9.92-2.98-14.55-.67-1.32-.77-3.64-.05-4.86 3.94-6.65 4.29-13.33 1.26-20.35-.56-1.41-.79-2.98-1.31-4.89zm280.86 164.52c5.07-4.85 5.19-5.41 1.7-7.72-.55 2.5-1.08 4.92-1.7 7.72z" fill="#010100"/><path d="m361.16 95.24c-.58 8.25-3.3 16.12-7.18 23.4-2.98 5.59-14.72 6.75-19.41 2.55-.69-.62-1.04-1.68-1.38-2.61-3.21-8.82-6.41-17.63-9.52-26.48-.47-1.33-.75-2.83-.68-4.24.9-18.66 1.97-37.3 2.76-55.96.14-3.41 1.58-6.48 4.34-6.45 2.46.02 6.41 2.39 7.07 4.54 3.06 9.97 10.65 16.69 16.4 24.7 1.76 2.45 2.68 4.84 3.04 7.87 1.15 9.76 2.77 19.46 4.19 29.18.16 1.11.23 2.22.37 3.5z" fill="#010100"/><g fill="#fcfafa"><path d="m342.2 3.2-6.3 9.2h6.1v1.2h-8.2v-.5l6.2-9.1h-5.7v-1.2h7.8v.4z"/><path d="m344 13.7v-10.9h3.1c1.6 0 3 .5 4.1 1.4 1.1 1 1.6 2.2 1.6 3.9s-.5 3-1.6 4-2.5 1.5-4.2 1.5h-3zm1.4-9.6v8.4h1.6c1.4 0 2.5-.4 3.2-1.1.8-.8 1.2-1.8 1.2-3.2s-.4-2.4-1.2-3.1-1.8-1-3.1-1z"/><path d="m356.3 2.8v10.9h-1.4v-10.9z"/><path d="m366.6 13.2c-.8.4-1.8.6-3 .6-1.6 0-2.8-.5-3.7-1.5s-1.4-2.3-1.4-3.9c0-1.7.5-3.2 1.6-4.2s2.4-1.6 4-1.6c1 0 1.9.1 2.6.4v1.5c-.8-.4-1.6-.6-2.6-.6-1.2 0-2.2.4-3 1.2s-1.1 1.9-1.1 3.3c0 1.3.4 2.3 1.1 3.1s1.6 1.1 2.8 1.1c1.1 0 2-.2 2.8-.7v1.3z"/><path d="m368.2 13c0-.3.1-.5.3-.6.2-.2.4-.3.6-.3.3 0 .5.1.7.3s.3.4.3.6-.1.5-.3.6c-.2.2-.4.3-.7.3s-.5-.1-.6-.3c-.2-.2-.3-.4-.3-.6z"/><path d="m381.1 13.7h-1.7l-5.5-8.4c-.2-.2-.3-.5-.4-.7 0 .2.1.8.1 1.5v7.6h-1.4v-10.9h1.8l5.3 8.3c.3.4.4.6.4.8 0-.3-.1-.8-.1-1.6v-7.5h1.4v10.9z"/><path d="m389.7 13.7h-5.8v-10.9h5.6v1.2h-4.2v3.5h3.9v1.2h-3.9v3.7h4.4z"/><path d="m398.4 4.1h-3.1v9.6h-1.4v-9.6h-3.1v-1.3h7.7v1.3z"/></g></svg>