<svg enable-background="new 0 0 400 400" viewBox="0 0 400 400" xmlns="http://www.w3.org/2000/svg"><path d="m374.8 390.4.4-.4c.7.5 1.3 1 1.8 1.4l-.5.5c-.5-.6-1.1-1.1-1.7-1.5zm1 7.3-.6-.3c.5-1.4 1.1-2.8 1.5-4.3.2.1.4.2.6.3-.5 1.3-1 2.8-1.5 4.3zm-.4-10.3.4-.4c.4.3 1 .8 1.7 1.4l-.5.5c-.4-.5-1-1-1.6-1.5zm2.5.3h1.7v-1h.6v1h3.5v-1h.6v1h1.8v.5h-1.8v1.4h-2v1h3.2v2h-3.2v.9h3.3v.5h-3.4c0 .3-.1.6-.1.9h4v.5h-3.7c.7.9 1.9 1.5 3.8 1.7-.1.2-.2.4-.3.6-2.1-.4-3.5-1.1-4-2.1-.4 1-1.8 1.7-4 2.2-.1-.2-.2-.4-.3-.6 2.1-.4 3.4-1 3.8-1.8h-3.4v-.5h3.6c.1-.3.1-.6.2-.9h-3.3v-.5h3.4c0-.3 0-.6 0-.9h-3.2v-2h3.3v-1h-2.1v-1.4h-1.7v-.5zm1.1 3.5v1h2.7c0-.3 0-.4 0-.4 0-.1 0-.2 0-.2 0-.1 0-.2 0-.3h-2.7zm1.2-3v.9h3.5v-.9zm4.7 3h-2.6v.6.4h2.6z" fill="#fbfcfa"/><path d="m393.6 386.7h.6v1.5h2.7v6.1h1.1v.6h-11v-.6h1.1v-6.1h2.7v-1.5h.6v1.5h2.1v-1.5zm-2.7 8.8.4.6c-1.2.6-2.5 1.3-3.8 1.9-.1-.2-.2-.4-.3-.6 1.2-.6 2.5-1.2 3.7-1.9zm-2.2-6.7v2.4h2.1v-2.4zm0 3v2.5h2.1v-2.5zm2.8-3v2.4h2.1v-2.4zm0 3v2.5h2.1v-2.5zm6 6.1c-1.4-.7-2.7-1.3-3.9-1.8l.3-.6c1.5.6 2.7 1.2 3.9 1.7zm-1.2-9.1h-2.1v2.4h2.1zm-2.1 3v2.5h2.1v-2.5z" fill="#fbfcfa"/><path d="m154.66 291.96c-3-5.17-4.11-10.51-3.94-16.05.89-29.06 1.45-58.14 3.08-87.17.66-11.69-.23-23.23-.42-34.84-.04-2.25.38-3.37 2.65-4.14 2.23-.75 3.56-.62 5.08 1.37 1.9 2.49 3.17 5.03 3.32 8.2.34 7.48.67 14.97 1.25 22.44.2 2.62.74 5.37 1.82 7.74 1.78 3.92 6.18 4.63 9.49 1.88 4.53-3.76 10.01-5.15 15.55-6.63 5.34-1.42 10.61-3.28 15.68-5.47 3.38-1.46 4.92-4.26 4.26-8.44-2.61-16.45-.13-32.75 1.73-49.09 1.15-10.09 1.47-20.28 2.33-30.41.17-2.03.62-4.32 1.74-5.94 3.73-5.4 4.81-11.44 5.18-17.76.12-2.01.34-4.02.41-6.03.22-6.61 2.1-12.34 8.29-15.74-3.92-6.79-3.51-13.12 1.42-19.24.66-.82 2.5-1.37 3.54-1.1 4.88 1.29 7.03 5.33 5.67 10.43-1.56 5.83-3 11.71-4.99 17.39-4.22 12.08-5.4 24.61-6.28 37.22-.5 7.14-1.37 14.26-1.74 21.4-.21 4.11-.09 8.3.48 12.37 1.24 8.79-.34 17.4-1.15 26.06-.63 6.78-2.69 13.81-1.61 20.3 2.54 15.25 2.06 30.54 2.67 45.82.03.89.06 1.81.3 2.65 1.75 6.42 2.61 12.94 1.68 19.56-1.19 8.45.29 16.7 1.62 24.97 1.38 8.6.13 16.62-4.47 24.16-7.16 11.73-13.89 23.73-21.27 35.32-2.58 4.05-6.05 7.88-9.93 10.67-7.74 5.57-12.43 13.71-18.76 20.43-2.33 2.48-5.02 4.61-7.54 6.91-.48.44-1.05.84-1.37 1.39-3.05 5.29-5.33 7.72-11.06 11.58-.42-3.65-.56-6.66 1.96-9.94 4.2-5.45 7.39-11.67 11.31-17.37 5.82-8.47 12.27-16.53 17.77-25.2 5.61-8.86 10.47-18.2 15.53-27.41 5.27-9.59 10.58-19.18 15.5-28.95 3.76-7.46 5.09-15.19 2.56-23.66-3.64-12.19-6.96-24.53-6.88-37.47.01-2.43-.57-4.89-1.04-7.3-.65-3.33-4.66-4.99-7.57-3.27-12.78 7.58-25.59 15.12-38.32 22.78-.94.56-1.83 1.94-1.94 3.02-.63 6.57-.65 13.21-1.57 19.73-1.49 10.61-3.55 21.13-5.27 31.71-.68 4.19-1.13 8.41-1.67 12.62-.47 3.57-2.34 6.18-5.08 8.5z" fill="#010101"/></svg>