<svg enable-background="new 0 0 400 400" viewBox="0 0 400 400" xmlns="http://www.w3.org/2000/svg"><path d="m258.83 229.97c-8.34-4.13-15.9-8.79-21.25-16.44-.92-1.32-2.23-2.55-3.63-3.31-8.2-4.45-14.28-11.04-19.32-18.71-4.34-6.6-9.32-12.54-16.9-16.81-.87 6.01-1.81 11.7-2.48 17.41-.47 4.03-1.06 7.87.83 12.08 1.12 2.5-.68 6.26-.98 9.46-.17 1.84-.43 3.88.15 5.55 3.32 9.52 2.78 19.4 2.97 29.21.21 11.19.27 22.38.41 33.57.01.89-.09 1.88.25 2.65 2.52 5.75 1.74 11.77 1.95 17.78.25 7.2 1.45 14.4 2.71 21.52 1.87 10.59 2.56 21.03-.66 31.54-.74 2.41-.04 5.31.21 7.96.35 3.69.76 7.34-2.29 11.39-1.97-4.77-4.11-8.88-5.37-13.24-2.49-8.58-4.61-17.27-6.61-25.97-.48-2.09-.09-4.46.24-6.65.45-2.95-.11-5.21-2.96-6.66-.96-.49-1.71-1.38-2.82-2.31 2.74-2.8 1.23-5.72.77-8.81-1.2-8.05-2.16-16.15-2.7-24.27-.18-2.64 1.07-5.45 2-8.07.66-1.86.06-2.68-1.31-3.88-1.28-1.12-2.68-2.93-2.75-4.5-.48-10.26-.61-20.54-.85-30.82-.03-1.11.28-2.34-.09-3.31-2.2-5.83-1.71-11.89-1.73-17.92 0-.78-.22-1.72.12-2.32 2.74-4.73.91-9.53.59-14.37-.28-4.32.36-8.69.36-13.04 0-13.18-.12-26.37-.19-39.55 0-.56-.21-1.16-.06-1.67 2.89-9.7.15-19.68 1.53-29.45 1.39-9.84 2.65-19.69 3.95-29.54.12-.88.44-1.85.21-2.66-2.59-9.11 1.16-17.64 2.34-26.41.33-2.43.92-4.85.96-7.29.06-4.32-2.06-6.75-6.35-7.16-5.22-.51-10.48-.6-15.71-1.05-1.87-.16-3.69-.83-5.53-1.25-6.94-1.6-13.89-3.15-20.81-4.84-1.47-.36-3.14-.91-4.13-1.94-1.41-1.47-1.49-3.08-.19-5.31 3.32-5.68 7.72-5.91 13.36-4.39 4.35 1.17 8.78 1.65 13.52.57 2.82-.64 6.24 1.14 9.34 1.99 3.03.84 5.94 1.83 9.03.05.87-.5 2.18-.35 3.28-.29 18.42.99 36.85 1.98 55.26 3.07 5.54.33 11.11.74 16.59 1.59 2.18.34 4.45 1.62 6.17 3.07 2.65 2.25 2.09 5.35-.96 7.04-6.69 3.72-14.12 3.97-21.48 4.44-9.09.57-18.08-.14-27.01-2.08-7.7-1.68-11.11.68-12.67 8.35-.27 1.31-.43 2.66-.49 4-.58 12.69-2.01 25.31-.87 38.11.67 7.6-.52 15.37-.94 23.05-.63 11.48 2.74 21.32 10.41 30.16 13.92 16.06 27.29 32.6 40.87 48.96.78.94 1.84 1.89 2.1 2.99 1.41 5.94 5.03 10.66 8.31 15.56 2.73 4.04 2.63 8.32 1.3 13.17z" fill="#010100"/><g fill="#fcfafa"><path d="m342.2 3.2-6.3 9.2h6.1v1.2h-8.2v-.5l6.2-9.1h-5.7v-1.2h7.8v.4z"/><path d="m344 13.7v-10.9h3.1c1.6 0 3 .5 4.1 1.4 1.1 1 1.6 2.2 1.6 3.9s-.5 3-1.6 4-2.5 1.5-4.2 1.5h-3zm1.4-9.6v8.4h1.6c1.4 0 2.5-.4 3.2-1.1.8-.8 1.2-1.8 1.2-3.2s-.4-2.4-1.2-3.1-1.8-1-3.1-1z"/><path d="m356.3 2.8v10.9h-1.4v-10.9z"/><path d="m366.6 13.2c-.8.4-1.8.6-3 .6-1.6 0-2.8-.5-3.7-1.5s-1.4-2.3-1.4-3.9c0-1.7.5-3.2 1.6-4.2s2.4-1.6 4-1.6c1 0 1.9.1 2.6.4v1.5c-.8-.4-1.6-.6-2.6-.6-1.2 0-2.2.4-3 1.2s-1.1 1.9-1.1 3.3c0 1.3.4 2.3 1.1 3.1s1.6 1.1 2.8 1.1c1.1 0 2-.2 2.8-.7v1.3z"/><path d="m368.2 13c0-.3.1-.5.3-.6.2-.2.4-.3.6-.3.3 0 .5.1.7.3s.3.4.3.6-.1.5-.3.6c-.2.2-.4.3-.7.3s-.5-.1-.6-.3c-.2-.2-.3-.4-.3-.6z"/><path d="m381.1 13.7h-1.7l-5.5-8.4c-.2-.2-.3-.5-.4-.7 0 .2.1.8.1 1.5v7.6h-1.4v-10.9h1.8l5.3 8.3c.3.4.4.6.4.8 0-.3-.1-.8-.1-1.6v-7.5h1.4v10.9z"/><path d="m389.7 13.7h-5.8v-10.9h5.6v1.2h-4.2v3.5h3.9v1.2h-3.9v3.7h4.4z"/><path d="m398.4 4.1h-3.1v9.6h-1.4v-9.6h-3.1v-1.3h7.7v1.3z"/></g></svg>