<svg enable-background="new 0 0 400 400" viewBox="0 0 400 400" xmlns="http://www.w3.org/2000/svg"><g fill="#010102"><path d="m286.66 180.26c-2.91 1.82-4.75.76-6.92-.89-8.64-6.56-17.47-12.88-26.26-19.24-1.07-.78-2.29-1.63-3.55-1.83-5.04-.83-8.52-4.07-12.21-7.18-7.78-6.56-15.66-13-23.64-19.32-1.93-1.52-4.4-2.36-7.04-2.9-.16-.39-.44-.78-.48-1.19-.53-6.03-.52-6.04-6.25-7.87-1.91-.61-3.83-1.16-5.93-1.79-2.41 4.26-3.63 8.62-2.25 13.26 1.37 4.58 1.25 9-.08 13.52-.3 1.04-.17 2.44.28 3.43 3.58 7.89 4.68 15.73 2.11 24.36-1.16 3.9.28 8.55.46 12.86.88 21.08 10.39 39.59 17.55 58.79 4.21 11.27 7.83 22.77 14.21 33.21 2.71 4.44 3.26 10.16 5.03 15.22 1.21 3.45 2.69 6.83 4.31 10.12 1.32 2.68 3.27 5.05 1.7 8.38-.35.74.33 2.13.83 3.06 1.57 2.96 3.2 5.9 4.96 8.76 3.86 6.28 6.4 13 7.44 20.31.97 6.83 3.53 13.09 6.67 19.21 1.53 2.99 2.07 6.51 2.92 9.83.14.54-.48 1.27-.75 1.92-.62-.29-1.47-.41-1.82-.9-3.55-5.02-7.03-10.08-10.48-15.16-.81-1.2-1.5-2.49-2.15-3.79-1.24-2.49-2.15-5 1.37-7.65-7.43-.6-9.32-6.11-12.02-10.93-1.53-2.73-3.33-5.31-5.14-7.86-2.74-3.85-4.57-7.84-5.44-12.68-.8-4.46-3.53-8.62-5.7-12.76-2.73-5.19-4.66-10.51-5.5-16.38-1.08-7.64-4.58-14.36-8.96-20.73-1.88-2.72-2.57-6.25-3.87-9.39-1.23-2.99-2.54-5.94-4.11-9.58-3.67 4.4-5.28 8.42-5.18 12.87.14 6.4-1.42 12.35-3.45 18.33-6.51 19.16-12.92 38.35-19.2 57.59-2.56 7.84-4.43 15.92-7.15 23.7-1.44 4.12-4.02 7.84-6.08 11.74-.41-.14-.83-.29-1.24-.43.4-1.71.52-3.55 1.26-5.09 1.46-3.03 1.76-6.05 1.6-9.4-.16-3.27.3-6.66 1.08-9.86 1.59-6.51 3.52-12.94 5.44-19.36.42-1.41 1.53-2.6 2.14-3.97.36-.81.76-1.93.48-2.64-1.42-3.55-.61-6.93.07-10.47 1.31-6.79 2.23-13.65 3.33-20.48.09-.55.11-1.16.36-1.63 5.29-9.8 5.74-20.75 7.52-31.39 1.73-10.35 3.56-20.68 5.11-31.06.22-1.47-.98-3.13-1.47-4.72-.72-2.36-2.63-5.25-1.88-7 3.74-8.8 2.37-17.87 2.25-26.85-.16-11.41-.84-22.82-.88-34.23-.02-4.87.85-9.76 1.61-14.6.43-2.76.57-5.24-1.17-7.64-1.47-2.02-2.3-4.19-1.49-6.88.42-1.41.38-3.34-.3-4.57-.67-1.23-2.31-2.33-3.7-2.61-.76-.16-2.13 1.33-2.81 2.35-1.77 2.63-3.02 5.66-5 8.1-4.08 4.99-9.03 9.2-11.65 15.42-.94 2.23-3.69 3.8-5.79 5.44-5.85 4.57-10.84 9.78-14.97 16.06-5.48 8.33-12.03 15.9-20.71 21.23-1.79 1.1-3.71 2-5.63 3.01-1.09-2.72-1.15-4.75 1.47-6.5 1.51-1.01 2.95-2.64 3.63-4.31 4.76-11.65 13.7-20.34 21-30.19 6.39-8.63 12.94-17.18 18.7-26.22 6.8-10.68 15.72-19.49 23.9-28.95 1.46-1.68 2.22-3.12 1.39-5.33-3.78-10.03-1.77-20.34-1.27-30.55.49-9.94 1.26-19.87 1.91-29.83 7.55 2.13 9.73 17.29 3.98 23.27 1.74 4.57 3.94 8.77 4.86 13.23.74 3.61-.22 7.53-.13 11.31.11 4.23.28 8.49.94 12.65.55 3.54 2.28 6.52 5.08 9.14 8.89 8.32 17.05 17.47 26.33 25.31 7.65 6.47 16.52 11.47 24.76 17.25 3.09 2.17 5.95 4.67 9.35 7.36-2.72.64-4.91 1.16-7.1 1.68.05.35.11.7.16 1.06 1.99-.2 3.97-.44 5.96-.6 4.14-.32 5.79 1.18 5.89 5.29.12 5.04.15 4.89 4.97 5.81 1.7.32 3.58 1.25 4.76 2.5 5.95 6.34 11.73 12.86 17.67 19.44zm-110.56 113.2c.24.19.48.38.71.57.74-.88 1.99-1.73 2.07-2.67.07-.81-1.21-1.72-1.89-2.59-.3.19-.6.38-.9.57.01 1.37.01 2.74.01 4.12z"/><path d="m153.04 198.37c4.65 2.99 4.9 7.31 3.58 11.04-3.76 10.6-8.09 21-12.46 31.37-.59 1.39-2.59 2.38-4.14 3.14-2.22 1.09-3.42 2.66-3.83 5.05-.95 5.63-3.58 10.36-7.09 14.89-3.45 4.47-6.08 9.58-9.04 14.42-2.32 3.79-4.8 4.82-9.78 3.64 2.94-5.73 3.24-12.4 7.9-17.43 1.63-1.76 2.43-4.49 3.07-6.92 1.13-4.29 2.36-8.35 6.33-11.02.77-.52 1.35-1.85 1.39-2.83.48-13.55 8.47-23.73 15.45-34.31 2.51-3.8 5.61-7.21 8.62-11.04z"/><path d="m226.64 176.92c3.32.33 6.01 1.83 7.76 4.62 12.27 19.57 24.48 39.18 36.71 58.78.06.09.05.22.26 1.24-1.31-.08-2.86.31-3.47-.27-13.08-12.52-26.35-24.92-35.82-40.6-4.62-7.66-6.51-16.79-5.44-23.77z"/></g><path d="m385.2 377.6.6-.7c.6.4 1.3.9 1.9 1.5l-.6.7c-.8-.5-1.4-1-1.9-1.5zm.3 7.1c.6-1.4 1.1-2.9 1.5-4.5.3.1.6.3.9.4-.5 1.4-1 2.9-1.5 4.4zm.2-10.1.6-.6c.7.5 1.3 1.1 1.9 1.6l-.7.7c-.6-.6-1.2-1.2-1.8-1.7zm8.4-.8h.8v.9h1.8v.7h-1.8v1.8h-.8v-.3h-1.2v.9h3.3v2.6h-.8v-.4h-2.5c0 .3 0 .6-.1.8h3.4v.7h-3.5c0 .3-.1.6-.1.8h4v.7h-3.5c.7.9 1.9 1.3 3.6 1.5-.2.2-.4.5-.6.9-1.9-.3-3.2-1.1-3.8-2.3-.5 1.1-1.8 2-3.9 2.4-.2-.3-.4-.5-.6-.8 1.9-.4 3.1-.9 3.6-1.7h-3.2v-.7h3.5c.1-.2.1-.5.2-.8h-3.3v-.7h3.4c0-.2 0-.5 0-.8h-2.4v.3h-.8v-2.6h3.3v-.9h-1.2v.3h-.8v-1.8h-1.8v-.7h1.8v-.9h.8v.9h3.2zm-4.4 5.5h2.4c0-.3 0-.6 0-.9h-2.4zm1.2-3.1h3.2v-.8h-3.2zm4.4 2.2h-2.4v.9h2.5v-.9z" fill="#fcfbfa"/><path d="m389.2 385.8h.9v1.5h1.9v-1.5h.9v1.5h2.7v6h1.1v.9h-11.3v-.9h1.1v-6h2.7zm.2 8.7.5.8c-1.2.6-2.5 1.3-4 1.9-.2-.3-.3-.6-.6-.8 1.6-.6 3-1.3 4.1-1.9zm-2-4.3h1.9v-2.1h-1.9zm0 3.1h1.9v-2.2h-1.9zm2.7-3.1h1.9v-2.1h-1.9zm0 3.1h1.9v-2.2h-1.9zm2.4 1.3c1.4.6 2.7 1.2 4.1 1.8l-.5.9c-1.5-.7-2.8-1.4-4.1-1.9zm2.2-6.5h-1.9v2.1h1.9zm-1.9 5.2h1.9v-2.2h-1.9z" fill="#fcfbfa"/></svg>