<svg enable-background="new 0 0 400 400" viewBox="0 0 400 400" xmlns="http://www.w3.org/2000/svg"><path d="m223.03 358.58c-1-.62-1.43-.89-2.26-1.41-.1 2.44-2.73 4.6 1.15 6.63 1.71.9-.34 9.7-2.27 10.81-1.94 1.12-2.74.21-3.13-1.8-1.91-9.77-3.92-19.51-5.87-29.27-1.16-5.8-2.75-11.57-3.27-17.43-.9-9.99-1.13-20.05-1.59-30.08-.12-2.67-.1-5.35-.06-8.02.14-8.27.16-16.54.52-24.8.57-13.06 1.26-26.12 2.12-39.17.59-8.93 1.62-17.83 2.27-26.76.14-1.92-.51-3.89-.77-5.85-.08-.62-.37-1.56-.08-1.82 3.75-3.42.79-8.26 2.78-12.33 1.81-3.72 2.32-8.51 2.03-12.73-.48-6.96-2.09-13.83-3.16-20.76-.7-4.53-1.41-9.06-1.87-13.61-.65-6.46-4.24-11.46-7.9-16.4-1.77-2.4-3.82-1.92-5.32.78-3.94 7.1-4.71 15.07-6.44 22.8-3.12 13.95-6.96 27.65-13.56 40.49-2.53 4.92-3.9 10.44-5.89 15.65-.55 1.43-1.44 2.73-2.13 4.12-2.66 5.39-5.44 10.73-7.91 16.21-1.46 3.24-2.12 6.87-3.71 10.03-1.1 2.19-3.19 3.88-4.83 5.79-.22-.21-.45-.42-.67-.62 1.36-8.25 2.77-16.49 4.06-24.75.55-3.53.48-7.21 1.35-10.64 2.73-10.68 5.59-21.34 8.76-31.9 2.01-6.72 4.79-13.21 6.93-19.9.94-2.94.98-6.15 1.7-9.17 2.96-12.49 6.09-24.94 8.96-37.45.43-1.85-.21-3.95-.42-6.71 1.98-1.76 1.88-4.8.67-7.85-1.48-3.72-3.62-7.23-4.73-11.05-1.64-5.65-5.54-10.08-7.64-15.36-3.07-7.72-5.37-15.74-2.53-24.17.28-.85.57-1.7.97-2.5.44-.89 1-1.71 1.49-2.55 3.28.08 5.37 1.65 6.62 4.46 1.6 3.6 3.84 6.45 7.83 7.73 1.12.36 2.11 1.57 2.86 2.61 7.8 10.78 15.54 21.61 23.29 32.42.46.64 1.11 1.19 1.38 1.89 3.76 9.72 11.94 16.61 16.5 25.82 1.29 2.6 3.05 5.01 4.05 7.71.78 2.09.72 4.5 1.04 6.77.13.95-.06 2.3.49 2.77 2.17 1.85 2.48 4.56 3.72 6.79 4.12 7.45 4.6 15.29 3.95 23.43-.5 6.22-.95 12.45-1.51 18.67-.11 1.21-.43 2.44-.9 3.56-3.28 7.77-3.89 15.86-4.13 24.24-.23 7.75-2.47 15.43-3.4 23.19-1.58 13.17-2.82 26.39-4.22 39.58-.12 1.1-.33 2.2-.55 3.29-.55 2.62-1.31 5.22-1.66 7.87-2.98 22.17-3.33 44.49-3.46 66.8-.03 5.24.77 10.48.95 15.73.07 2.54-.36 5.1-.6 8.22z" fill="#010102"/><g fill="#fcfbfa"><path d="m385.2 377.6.6-.7c.6.4 1.3.9 1.9 1.5l-.6.7c-.8-.5-1.4-1-1.9-1.5zm.3 7.1c.6-1.4 1.1-2.9 1.5-4.5.3.1.6.3.9.4-.5 1.4-1 2.9-1.5 4.4zm.2-10.1.6-.6c.7.5 1.3 1.1 1.9 1.6l-.7.7c-.6-.6-1.2-1.2-1.8-1.7zm8.4-.8h.8v.9h1.8v.7h-1.8v1.8h-.8v-.3h-1.2v.9h3.3v2.6h-.8v-.4h-2.5c0 .3 0 .6-.1.8h3.4v.7h-3.5c0 .3-.1.6-.1.8h4v.7h-3.5c.7.9 1.9 1.3 3.6 1.5-.2.2-.4.5-.6.9-1.9-.3-3.2-1.1-3.8-2.3-.5 1.1-1.8 2-3.9 2.4-.2-.3-.4-.5-.6-.8 1.9-.4 3.1-.9 3.6-1.7h-3.2v-.7h3.5c.1-.2.1-.5.2-.8h-3.3v-.7h3.4c0-.2 0-.5 0-.8h-2.4v.3h-.8v-2.6h3.3v-.9h-1.2v.3h-.8v-1.8h-1.8v-.7h1.8v-.9h.8v.9h3.2zm-4.4 5.5h2.4c0-.3 0-.6 0-.9h-2.4zm1.2-3.1h3.2v-.8h-3.2zm4.4 2.2h-2.4v.9h2.5v-.9z"/><path d="m389.2 385.8h.9v1.5h1.9v-1.5h.9v1.5h2.7v6h1.1v.9h-11.3v-.9h1.1v-6h2.7zm.2 8.7.5.8c-1.2.6-2.5 1.3-4 1.9-.2-.3-.3-.6-.6-.8 1.6-.6 3-1.3 4.1-1.9zm-2-4.3h1.9v-2.1h-1.9zm0 3.1h1.9v-2.2h-1.9zm2.7-3.1h1.9v-2.1h-1.9zm0 3.1h1.9v-2.2h-1.9zm2.4 1.3c1.4.6 2.7 1.2 4.1 1.8l-.5.9c-1.5-.7-2.8-1.4-4.1-1.9zm2.2-6.5h-1.9v2.1h1.9zm-1.9 5.2h1.9v-2.2h-1.9z"/></g></svg>