<svg enable-background="new 0 0 400 400" viewBox="0 0 400 400" xmlns="http://www.w3.org/2000/svg"><g fill="#fbfafa"><path d="m37.59 393.81c-.92.31-1.52.05-2-.78-.7-1.2-1.52-2.34-2.47-3.78v4.59c-.55.03-.95.05-1.41.07-.03-.37-.06-.64-.06-.91 0-1.91 0-3.81 0-5.7 1.13-.41 1.77-.03 2.29.91.62 1.11 1.38 2.14 2.31 3.19v-4.2h1.35v6.61z"/><path d="m12.94 393.88v-6.75c1.9.19 3.93-.54 5.37 1.29.8 1.01.78 2.88.03 3.97-1.37 1.97-3.4 1.51-5.4 1.49m1.45-1.22c2.04.12 2.92-.58 2.89-2.21-.03-1.51-.98-2.19-2.89-2z"/><path d="m11.81 393.87h-5.49c.68-2.18 2.47-3.48 3.51-5.45h-3.08v-1.21h5.29c-.71 2.13-2.44 3.48-3.47 5.51.86 0 1.63.04 2.39-.01.79-.05 1.14.21.85 1.16"/><path d="m39.33 393.86v-6.61h3.7v1.07h-2.22v1.52c.68.04 1.34.09 2.07.13v1.07c-.72.05-1.38.09-2.1.14v1.48h2.4v1.19h-3.85z"/><path d="m27.71 388.56c-1.15-.3-2.46-.61-3.1.64-.37.73-.41 1.93-.06 2.67.63 1.35 1.99.93 3.17.68.35.94-.01 1.32-.93 1.46-1.62.25-3.05-.27-3.76-1.48-.73-1.24-.6-3.03.31-4.17.88-1.11 2.71-1.7 4-1.16.32.13.44.74.65 1.12-.1.08-.19.16-.28.24"/><path d="m49.15 387.24v1.07c-.59.02-1.17.05-1.87.08v5.44h-1.48v-5.44h-1.85c-.05-.4-.08-.73-.13-1.15z"/><path d="m20.06 387.21h1.33v6.62h-1.33z"/><path d="m30.68 393.25c-.49.38-.8.79-1.05.76-.32-.05-.6-.45-.9-.7.26-.24.51-.64.8-.67.29-.04.62.3 1.15.61"/></g><path d="m57.16 374.97c-1.31-8.72-2.53-17.14 1.55-25.24.3-.59.45-1.28.54-1.94.58-4.65 2.57-8.75 4.18-13.07 1.85-4.96.98-10.93 1.36-16.45.2-2.85-.01-5.88.91-8.49 6.12-17.38 9.13-35.46 12.72-53.44 1.44-7.2 4.25-14.11 6.16-21.23 2.54-9.5 4.81-19.07 7.19-28.6.24-.98.24-2.1.74-2.91 5.54-9.12 6.58-19.6 8.97-29.66 5.6-23.59 14.86-45.91 23.54-68.42 1.88-4.88 4.15-9.68 6.83-14.17 6.96-11.65 10.66-24.54 14.95-37.24 2.97-8.78 6.38-17.41 9.5-26.14.72-2.01 1.7-2.68 3.9-2.41 11.47 1.43 21.36 6.22 28.94 14.81 8.81 9.97 16.96 20.53 25.41 30.82 1.06 1.29 2.01 2.78 3.33 3.73 9.69 7.01 15.09 17.57 22.23 26.69.34.43.6.97.74 1.5 2.3 8.38 7.71 14.67 13.49 20.85 3.02 3.23 5.65 6.94 7.85 10.78 10.85 18.91 21.52 37.89 34.18 55.74 6.31 8.89 10.94 18.97 16.31 28.52.27.48.58 1.02.61 1.55.43 6.49 4.19 11.23 7.89 16.2 6.36 8.54 11.52 17.84 14.93 28 1.19 3.55 1.64 7.07.6 10.82-1.04 3.76-1.54 7.67-2.46 11.47-.24.98-1.2 2.56-1.79 2.55-1.71-.04-4.25-.21-4.96-1.3-3.85-5.89-8.04-11.75-10.63-18.22-6.24-15.56-14.52-29.93-23.26-44.14-6.5-10.56-12.66-21.34-18.82-32.1-1.12-1.96-2-2.86-4.36-1.94-9.43 3.69-19.25 4.27-29.31 4.16-14.33-.15-28.58-.73-42.87-2.15-9.62-.96-19.44.13-29.16.31-.9.02-1.81.17-2.68.03-12.5-1.93-24.39 1.25-36.35 4.14-2.65.64-5.51.5-8.27.53-4.36.06-8.56.48-10.03 6.06-2.48 9.39-5.52 18.64-8.14 28-.38 1.37-.04 3.13.48 4.53.95 2.58.52 4.75-.98 6.92-.95 1.38-1.58 2.97-2.55 4.33-2.25 3.15-2.92 6.57-2.79 10.41.09 2.48-.5 5.09-1.28 7.48-2.03 6.15-4.17 12.28-6.58 18.29-2.69 6.71-3.95 13.7-4.94 20.8-.4 2.93-1.02 6.1-2.52 8.56-7.78 12.83-10.83 27.01-12.92 41.59-.56 3.93-1.83 7.84-3.31 11.54-1.58 3.86-4.37 6.73-9.07 7.55zm211.69-195.1c-.69-1.21-1.25-2.28-1.88-3.31-9.27-15.17-18.66-30.27-27.75-45.54-3.46-5.81-7.27-11.24-12.12-15.95-2.08-2.02-4.1-4.04-4.18-7.31-.02-.89-1.04-1.85-1.78-2.61-3.39-3.51-7-6.82-10.24-10.47-5.11-5.77-9.93-11.8-14.97-17.63-3.07-3.54-6.52-6.76-9.48-10.38-6.31-7.7-12.42-15.57-18.62-23.36-.59-.74-1.26-1.43-1.94-2.2-.29.44-.47.6-.51.8-.13.66-.3 1.33-.29 1.99.15 7.92-1.92 15.21-6.18 21.89-.48.75-.97 1.54-1.2 2.39-.35 1.25-.45 2.56-.73 3.83-.39 1.76-.39 3.82-1.35 5.18-3.42 4.84-5.49 10.12-6.85 15.85-2.38 9.99-5.04 19.9-10.03 29.04-1.85 3.4-3 7.19-4.33 10.86-4.15 11.42-8.38 22.82-12.26 34.33-.92 2.74-.77 5.91-.74 8.88.02 1.98 1.08 3.16 3.53 2.8 3.86-.58 7.78-.81 11.68-1.18 9.44-.91 18.82-2.3 28.37-.42 7.22 1.43 14.56 2.38 21.97.78 6.29-1.36 12.58-1.63 18.8.65 1.08.4 2.43.2 3.64.11 5.12-.38 10.27-1.41 15.34-1.11 6.33.37 12.58 1.93 18.9 2.78 8.3 1.11 16.64 1.84 25.2-.69z" fill="#010000"/><path d="m258.53 254.16c-7.88 4.49-16.65 6.23-25.54 7.16-5.18.55-10.57.82-15.68.02-9.31-1.46-18.23.39-27.28 1.66-15.95 2.24-31.94 4.38-48.1 3.15-5.99-.46-11.92-1.82-17.83-2.96-1.1-.21-2.03-1.36-3.04-2.08.03-.37.05-.74.08-1.11 2.55-.9 5.08-1.91 7.67-2.67 4.47-1.31 8.96-2.54 13.48-3.64 3.31-.81 6.67-1.79 10.04-1.94 16.42-.72 32.86-1.1 49.28-1.8 3.88-.17 7.92-.56 11.57-1.78 8.79-2.95 17.48-2.53 26.35-.75 5.04 1.01 10.16 1.59 15.24 2.39 3.29.53 3.29.55 3.76 4.35z" fill="#010000"/></svg>