<svg enable-background="new 0 0 400 400" viewBox="0 0 400 400" xmlns="http://www.w3.org/2000/svg"><path d="m374.8 390.4.4-.4c.7.5 1.3 1 1.8 1.4l-.5.5c-.5-.6-1.1-1.1-1.7-1.5zm1 7.3-.6-.3c.5-1.4 1.1-2.8 1.5-4.3.2.1.4.2.6.3-.5 1.3-1 2.8-1.5 4.3zm-.4-10.3.4-.4c.4.3 1 .8 1.7 1.4l-.5.5c-.4-.5-1-1-1.6-1.5zm2.5.3h1.7v-1h.6v1h3.5v-1h.6v1h1.8v.5h-1.8v1.4h-2v1h3.2v2h-3.2v.9h3.3v.5h-3.4c0 .3-.1.6-.1.9h4v.5h-3.7c.7.9 1.9 1.5 3.8 1.7-.1.2-.2.4-.3.6-2.1-.4-3.5-1.1-4-2.1-.4 1-1.8 1.7-4 2.2-.1-.2-.2-.4-.3-.6 2.1-.4 3.4-1 3.8-1.8h-3.4v-.5h3.6c.1-.3.1-.6.2-.9h-3.3v-.5h3.4c0-.3 0-.6 0-.9h-3.2v-2h3.3v-1h-2.1v-1.4h-1.7v-.5zm1.1 3.5v1h2.7c0-.3 0-.4 0-.4 0-.1 0-.2 0-.2 0-.1 0-.2 0-.3h-2.7zm1.2-3v.9h3.5v-.9zm4.7 3h-2.6v.6.4h2.6z" fill="#fbfcfa"/><path d="m393.6 386.7h.6v1.5h2.7v6.1h1.1v.6h-11v-.6h1.1v-6.1h2.7v-1.5h.6v1.5h2.1v-1.5zm-2.7 8.8.4.6c-1.2.6-2.5 1.3-3.8 1.9-.1-.2-.2-.4-.3-.6 1.2-.6 2.5-1.2 3.7-1.9zm-2.2-6.7v2.4h2.1v-2.4zm0 3v2.5h2.1v-2.5zm2.8-3v2.4h2.1v-2.4zm0 3v2.5h2.1v-2.5zm6 6.1c-1.4-.7-2.7-1.3-3.9-1.8l.3-.6c1.5.6 2.7 1.2 3.9 1.7zm-1.2-9.1h-2.1v2.4h2.1zm-2.1 3v2.5h2.1v-2.5z" fill="#fbfcfa"/><g fill="#010101"><path d="m202.82 374.17c.61-1.52 1.2-3.06 1.85-4.57.82-1.93 2.4-3.84 2.41-5.76.05-8.14 3.89-15.39 5.09-23.14 1.78-11.48 7.6-21.65 9.59-32.98.07-.43.13-.86.26-1.79-1.35.07-2.58-.16-3.6.22-4.05 1.52-7.95 3.09-11.16 6.42-1.76 1.83-5.05 2.53-7.77 3.02-3.37.61-6.38 1.32-8.96 3.89-1.68 1.68-4.13 2.6-6.25 3.84-5.29 3.09-10.62 6.12-15.88 9.27-1.12.67-2.27 1.6-2.9 2.7-1.75 3.09-4.95 3.88-7.43 2.89-2.57-1.03-4.82-3.65-3.8-7.32.26-.93.34-2.1-.01-2.96-1.89-4.74-.9-9.43-.09-14.17.66-3.86 2.29-6.56 6.52-7.4 1.04-.21 2.22-1.95 2.51-3.18.51-2.2.64-4.35 2.81-5.75.6-.39 1.07-1.51 1.03-2.27-.45-10.03 4.41-18.55 7.88-27.42 2.35-6.02 5.48-11.73 8.27-17.58.14-.3.23-.69.47-.88 4-3.15 4.08-7.81 4.77-12.24.08-.55.17-1.18.49-1.59 6.38-7.94 6.56-18.2 9.99-27.24 4.21-11.1 6.52-22.93 9.56-34.47.19-.73-.2-1.69-.53-2.46-1.01-2.37-1.67-4.51.77-6.61.65-.56.9-2.54.43-3.31-3.24-5.34-1.69-10.85-.91-16.34.2-1.44.39-2.92.92-4.25.42-1.06 1.26-2.55 2.09-2.68.9-.14 2.47.85 2.93 1.76 1.1 2.14 1.93 4.47 2.49 6.82 4.4 18.66 3.09 37.72 3.64 56.64.09 2.96-.78 5.97-1.43 8.91-.59 2.67-.46 5.05 1.33 7.25 1.47 1.81 1.65 3.6.41 5.84-.92 1.67-.89 3.84-1.33 5.78-1.21 5.3-1.3 10.56-1.12 16.04.2 6.25-1.89 12.53-2.56 18.85-.63 5.93-1.74 11.82-6.01 16.01-6.34 6.22-12.54 12.71-20.88 16.58-7.58 3.52-14.93 7.53-22.32 11.44-3.04 1.61-6 11.65-4.29 14.74 1.48 2.67 3.69 1.48 5.47.31 4.02-2.63 7.93-5.44 11.89-8.16 1.01-.69 1.99-1.66 3.12-1.93 10.24-2.41 17.9-9.4 26.49-14.74.28-.18.53-.46.84-.55 6.64-1.82 11.69-6.21 17.01-10.24 1.39-1.05 4.88-1.8 5.23-1.28 1.22 1.88 2.4 4.56 1.98 6.6-1.8 8.86-4.18 17.6-6.32 26.39-1.29 5.32-2.28 10.73-3.86 15.96-1.83 6.06-3.64 12.23-6.42 17.87-2.18 4.43-5.05 8.49-7.01 13.15-1.15 2.72-4.3 4.6-6.55 6.86-.37-.27-.76-.53-1.15-.79zm-26.85-80.05c.27.18.55.36.82.54 5.89-3.99 11.86-7.87 17.62-12.03 2.69-1.95 5.3-4.19 7.4-6.75 6.37-7.75 4.95-17.17 4.5-26.07-.33-6.45-1.07-6.41 4.63-9.71-5.45-6.17-4.57-13.8-4.89-21.34-2.99 5.39-6.68 10.63-7.94 16.4-2.06 9.4-6.49 17.52-10.83 25.82-.66 1.26-1.14 2.64-1.54 4.02-.86 2.98-1.39 6.07-2.47 8.96-1.88 5.02-4.16 9.89-6.11 14.88-.64 1.66-.8 3.52-1.19 5.28z"/><path d="m213.18 29.38c0-.66 0-2.25 0-3.96 4.1 1.29 5.99 4.27 6.9 8.39 1.08 4.87 2.68 9.63 3.93 14.46.89 3.45 1.52 6.96 2.37 10.41 2.44 9.95 5.18 19.83 7.33 29.84 1.52 7.07 2.21 14.32 3.41 21.46.54 3.22 1.04 6.54 2.27 9.52 2.4 5.82-.07 11.47-.08 17.18 0 .69-1.18 1.38-2.22 2.51-.67-1.61-1.17-2.68-1.58-3.78-2.76-7.43-5.54-14.86-8.23-22.32-.62-1.73-1.53-2.51-3.42-3.05-7.91-2.28-16.01-3.11-24.16-3.87-1.7-.16-3.33-1.1-4.91-1.24-1.75.08-3.72.69-5.17.08-1.34-.57-2.11-2.46-3.58-3.73-1.15 9.79-7.8 16.09-13.33 23.04-.75.95-1.25 2.11-1.81 3.2-1.15 2.25-2.84 3.35-5.67 2.67-1.08-4.57 1.7-8.03 3.41-11.8.67-1.47 1.26-2.98 1.74-4.52.66-2.11 1.17-4.26 1.79-6.39.15-.53.51-1 .71-1.52 3.48-9.26 6.78-18.59 10.51-27.75 1.54-3.79 4.04-7.19 6.03-10.81 1.61-2.93 2.56-6.42 4.76-8.78 7.35-7.85 9.23-18.4 14.32-27.31.57-.98 2.66-1.13 4.68-1.93zm-.11 22.57c-1.14 2.05-1.78 3.18-2.4 4.33-3.36 6.17-6.12 12.77-10.22 18.4-4.46 6.12-5.38 13.29-8.35 19.93 8.15 4.51 16.76 5.63 25.42 6.33 5.37.43 7.14-1.24 6.38-6.65-.8-5.7-2.49-11.29-4.05-16.86-1.89-6.74-4.87-13.19-4.55-20.46.05-1.37-1.21-2.8-2.23-5.02z"/></g></svg>