<svg enable-background="new 0 0 400 400" viewBox="0 0 400 400" xmlns="http://www.w3.org/2000/svg"><path d="m374.8 390.4.4-.4c.7.5 1.3 1 1.8 1.4l-.5.5c-.5-.6-1.1-1.1-1.7-1.5zm1 7.3-.6-.3c.5-1.4 1.1-2.8 1.5-4.3.2.1.4.2.6.3-.5 1.3-1 2.8-1.5 4.3zm-.4-10.3.4-.4c.4.3 1 .8 1.7 1.4l-.5.5c-.4-.5-1-1-1.6-1.5zm2.5.3h1.7v-1h.6v1h3.5v-1h.6v1h1.8v.5h-1.8v1.4h-2v1h3.2v2h-3.2v.9h3.3v.5h-3.4c0 .3-.1.6-.1.9h4v.5h-3.7c.7.9 1.9 1.5 3.8 1.7-.1.2-.2.4-.3.6-2.1-.4-3.5-1.1-4-2.1-.4 1-1.8 1.7-4 2.2-.1-.2-.2-.4-.3-.6 2.1-.4 3.4-1 3.8-1.8h-3.4v-.5h3.6c.1-.3.1-.6.2-.9h-3.3v-.5h3.4c0-.3 0-.6 0-.9h-3.2v-2h3.3v-1h-2.1v-1.4h-1.7v-.5zm1.1 3.5v1h2.7c0-.3 0-.4 0-.4 0-.1 0-.2 0-.2 0-.1 0-.2 0-.3h-2.7zm1.2-3v.9h3.5v-.9zm4.7 3h-2.6v.6.4h2.6z" fill="#fbfcfa"/><path d="m393.6 386.7h.6v1.5h2.7v6.1h1.1v.6h-11v-.6h1.1v-6.1h2.7v-1.5h.6v1.5h2.1v-1.5zm-2.7 8.8.4.6c-1.2.6-2.5 1.3-3.8 1.9-.1-.2-.2-.4-.3-.6 1.2-.6 2.5-1.2 3.7-1.9zm-2.2-6.7v2.4h2.1v-2.4zm0 3v2.5h2.1v-2.5zm2.8-3v2.4h2.1v-2.4zm0 3v2.5h2.1v-2.5zm6 6.1c-1.4-.7-2.7-1.3-3.9-1.8l.3-.6c1.5.6 2.7 1.2 3.9 1.7zm-1.2-9.1h-2.1v2.4h2.1zm-2.1 3v2.5h2.1v-2.5z" fill="#fbfcfa"/><path d="m241.29 25.58c6.58.51 11.18 4.1 12.69 10.55 2.11 9 4.48 18.04 3.25 27.48-.1.74.12 1.55.35 2.28 4.59 14.64 5.16 29.71 4.59 44.85-.19 5.06.21 9.84 2.58 14.28 4.6 8.61 3.72 17.47 1.52 26.44-1.94 7.92-3.8 15.86-5.87 23.75-.33 1.25-1.36 2.5-2.39 3.36-9.55 7.95-18.91 16.16-28.86 23.57-6.76 5.03-10.37 11.65-12.23 19.34-1.49 6.16-1.99 12.56-2.9 18.85-.44 3.09-.58 6.24-1.27 9.27-1.53 6.77-2.84 13.48-2.07 20.54.3 2.76-.69 5.75-1.5 8.52-2.49 8.46-2.92 17.13-3.27 25.86-.18 4.53-1.41 9.01-2.05 13.52-.92 6.52-1.78 13.06-2.58 19.6-.61 5-1.19 10-1.57 15.02-.24 3.21-.03 6.45-.12 9.67-.07 2.68-.01 5.4-.53 8-.33 1.66-1.61 3.12-2.47 4.68-.42-.08-.84-.17-1.26-.25-.29-1.79-.68-3.57-.83-5.37-.17-2 .34-4.16-.25-6-4.13-12.9-2.89-26.13-2.76-39.31.24-24.66 3.05-49.11 6.02-73.55 1.08-8.87 1.25-17.86 2.43-26.71.67-5.04 2.45-9.96 3.97-14.86.39-1.26 1.56-2.39 2.61-3.32 10.61-9.46 21.56-18.56 31.8-28.4 5.17-4.97 9.32-11.08 13.47-17 1.21-1.73 1.48-4.68 1.1-6.89-2.01-11.9-4.29-23.76-6.7-35.59-.26-1.28-1.79-2.63-3.07-3.24-.75-.36-2.47.38-3.24 1.14-15.84 15.5-31.63 31.05-47.33 46.7-1.11 1.1-1.88 3.01-1.97 4.59-.64 11.17-.83 22.37-1.66 33.53-.29 3.92-1.61 7.9-3.11 11.58-6.96 16.99-16.08 32.74-28.74 46.16-9.19 9.74-13 10.18-24.81 4.21-2.51-1.27-2.79-3.66-1.6-5.73 1.93-3.36 1.19-6.55.66-10.03-1.91-12.47-3.58-24.97-5.19-37.48-.44-3.44.93-6.36 2.88-9.33 6.59-10.03 14.6-18.57 24.43-25.48 15.22-10.72 27.21-24.89 40.06-38.13 10.45-10.77 20.9-21.51 32.81-30.7 1.06-.82 2-1.79 3.02-2.67 7.7-6.65 11.8-14.25 10.22-25.19-1.55-10.78-1.53-21.86-1.32-32.79.12-6.39 1.96-12.75 3.06-19.32zm-95.63 212.26c6.47-.96 10.74-3.65 13.76-8.36 1.2-1.88 2.43-3.77 3.89-5.45 6.73-7.76 7.97-17.26 8.4-26.92.22-4.95-3.01-8.45-7.86-9.41-.9-.18-2.36-.22-2.79.31-4.05 4.94-10.03 8.32-10.74 15.9-1.03 11.18-3.01 22.29-4.66 33.93z" fill="#010101"/></svg>