<svg enable-background="new 0 0 400 400" viewBox="0 0 400 400" xmlns="http://www.w3.org/2000/svg"><path d="m117.97 276.48c-.14-1.81-.72-3.73-.34-5.42 3.36-15.04 6.94-30.04 10.34-45.07 1.08-4.78 4.07-8.36 6.82-12.16.66-.91.9-2.64.52-3.7-1.31-3.61-.15-6.81 1.06-10.08 3.82-10.38 8.01-20.64 11.33-31.18 3.15-10 5.27-20.32 8.05-30.45 1.03-3.74 2.46-7.4 4.04-10.96 2.71-6.11.79-10.07-5.81-9.84-8.58.3-17.14 1.42-25.67 2.47-8.86 1.09-17.58 2.93-26.67 1.96-3.71-.4-7.7 1.09-11.47 2.06-8.09 2.08-15.53-.03-22.74-3.34-3.04-1.4-5.12-3.92-5.79-8.31 2.96-.53 6.07-1.9 8.9-1.45 13.82 2.19 26.84-1.93 40.11-4.28 3.4-.6 6.88-.84 10.33-.98 4.58-.19 8.9-.69 13.32-2.53 3.26-1.35 7.46-.45 11.24-.57 3.34-.1 6.74.11 10.02-.4 6.53-1.01 9.06-4.45 9.46-10.97 1.28-21.33 2.74-42.65 4.14-63.97.03-.53.23-1.05.35-1.54 4.72-.11 8.39 2.44 9.55 6.88.59 2.25.66 4.64.97 6.96 1.02 7.53 2.23 15.03 2.96 22.59.32 3.27-.06 6.69-.63 9.95-.86 4.95-2.19 9.81-3.26 14.73-1.51 6.99 2.72 12.22 10.06 12.06 7.83-.17 15.64-.72 23.46-1.07 13.75-.61 27.49-1.3 41.24-1.7 2.59-.08 4.18-1.06 4.87-3.14 1.01-3.04 2.12-6.24 2.13-9.38.02-5.57-.58-11.16-1.27-16.69-.22-1.72-1.5-3.35-2.45-4.93-.63-1.04-1.59-1.88-2.29-2.88-3.04-4.37-1.94-8.05 2.92-9.95 7.75-3.03 15.98-2.91 24.08-3.83 8.08-.91 15.49 1.5 23.07 3.34 3.04.74 6.05 1.59 9.08 2.38 3.71.96 6.01 3.75 6.29 7.6.16 2.18-.48 3.81-2.49 5.05-7.99 4.93-16.49 6.65-25.72 4.63-3.38-.74-6.76-1.61-10.19-1.98-4.52-.5-5.98.65-6.25 5.05-.49 7.93-.76 15.88-.87 23.82-.01 1 1.24 2.54 2.26 2.96 8.98 3.71 18.38 4.55 27.98 3.7 5.82-.52 11.61-.79 17.2 1.49 4.54 1.85 7.85 4.95 10.03 9.63-5.01 2.81-10.48 3.23-15.86 4-10.56 1.52-20.97.47-31.34-1.6-.98-.2-2-.37-3-.35-6.76.17-8.35 1.86-8.15 7.74.15 4.58.79 9.15.79 13.73.01 4.17-.55 8.33-.89 13.02.52 1.28 1.98 3.29 2.11 5.38 1.02 16.52 1.81 33.06 2.59 49.6.07 1.51-.46 3.05-.7 4.58-.41 2.69-1.53 5.49-1.1 8.04 1.8 10.65-1.75 20.92-1.79 31.4-.04 9.5.11 19 .12 28.5 0 2.33-.3 4.67-.24 6.99.12 5.44.17 10.89.64 16.3.57 6.57 2.06 13.1 2.19 19.67.1 5.26-.67 10.71-2.11 15.77-2 7-1.97 13.9-.91 20.91.12.76 1.37 1.83 2.2 1.94 5.96.74 11.94 1.36 17.93 1.83 3.66.28 7.41-.17 11.01.41 5.27.86 7.68 3.95 8.37 10.07-4.85.85-9.72 2.16-14.65 2.48-15.17.96-30.38 2.18-45.55 1.96-6.64-.1-13.26-3.34-19.8-5.44-1.03-.33-1.56-2.19-2.67-3.87 7.84-1.37 14.76-2.5 21.65-3.8 2.74-.52 5.41-1.38 8.1-2.13 1.84-.51 2.58-1.74 1.92-3.55-2.19-6.01-.51-11.77.42-17.76.69-4.47-.33-9.33-1.19-13.9-.85-4.53-.33-8.85.26-13.3.39-2.91.67-6.14-.19-8.85-2.35-7.37-1.03-14.64-.25-21.93.49-4.63.59-9.03-1.3-13.47-.88-2.05-.81-4.57-.9-6.89-.43-11.65-.07-23.24 1.63-34.82.68-4.66.31-9.67-.6-14.32-.84-4.26-1.31-8.35-.49-12.57 1.53-7.85-.05-15.59-.55-23.39-.78-12.27-1.16-24.57-1.55-36.87-.19-6.04-.03-12.09-.03-18.14 0-5.01-1.39-6.29-6.48-6.35-3.9-.04-7.81-.16-11.69-.49-4.9-.42-9.77-1.34-14.67-1.6-4.1-.22-8.24.07-12.34.36-8.7.59-17.39 1.31-26.08 2.01-8.45.68-11.46 3.6-11.92 12.01-.4 7.32 1 14.21 5.59 20.24 4.68 6.14 9.2 12.41 13.78 18.62.66.9 1.53 1.71 1.95 2.72 3.02 7.17 6.18 14.3 8.84 21.6 3.44 9.47 2.56 19.17.63 28.83-.11.53-.41 1.04-.69 1.51-6.8 11.77-11.88 24.32-15.21 37.42-4.66 18.33-4.43 37.03-2.51 55.73.05.44.19.88.21 1.33.75 14.06 1.72 28.11 2.08 42.17.1 3.99-1.21 8.16-2.59 11.99-.89 2.47-3.09 4.47-5.05 7.15-4.33-6.3-6.3-12.63-7.53-19.19-1.72-9.19-2.04-18.44-.57-27.73.33-2.06-.12-4.23-.14-6.34-.12-13.21-.34-26.42-.26-39.63.02-3.43 1.11-6.84 1.49-10.28.84-7.66 1.67-15.32 2.27-23 .4-5.23 1.87-9.84 4.64-14.43 7.35-12.22 10.27-25.61 8.53-39.88-5.39-9.14-7.87-20-16.02-27.51-1.45-1.33-3.32-2.2-4.9-3.22-.43.3-.69.39-.78.56-3.21 6.35-6.46 12.69-9.59 19.08-1.71 3.5-3.55 7-2.46 11.2.21.81-.15 2.12-.73 2.74-4.39 4.71-5.48 10.8-7.56 16.57-2.78 7.75-6.53 15.15-9.64 22.79-1.37 3.37-2.14 6.99-3.3 10.45-.9 2.7-1.61 5.57-3.07 7.96-4.32 7.04-8.96 13.89-13.48 20.81-.43-.06-.79-.1-1.14-.13z" fill="#010102"/><g fill="#fcfbfa"><path d="m385.2 377.6.6-.7c.6.4 1.3.9 1.9 1.5l-.6.7c-.8-.5-1.4-1-1.9-1.5zm.3 7.1c.6-1.4 1.1-2.9 1.5-4.5.3.1.6.3.9.4-.5 1.4-1 2.9-1.5 4.4zm.2-10.1.6-.6c.7.5 1.3 1.1 1.9 1.6l-.7.7c-.6-.6-1.2-1.2-1.8-1.7zm8.4-.8h.8v.9h1.8v.7h-1.8v1.8h-.8v-.3h-1.2v.9h3.3v2.6h-.8v-.4h-2.5c0 .3 0 .6-.1.8h3.4v.7h-3.5c0 .3-.1.6-.1.8h4v.7h-3.5c.7.9 1.9 1.3 3.6 1.5-.2.2-.4.5-.6.9-1.9-.3-3.2-1.1-3.8-2.3-.5 1.1-1.8 2-3.9 2.4-.2-.3-.4-.5-.6-.8 1.9-.4 3.1-.9 3.6-1.7h-3.2v-.7h3.5c.1-.2.1-.5.2-.8h-3.3v-.7h3.4c0-.2 0-.5 0-.8h-2.4v.3h-.8v-2.6h3.3v-.9h-1.2v.3h-.8v-1.8h-1.8v-.7h1.8v-.9h.8v.9h3.2zm-4.4 5.5h2.4c0-.3 0-.6 0-.9h-2.4zm1.2-3.1h3.2v-.8h-3.2zm4.4 2.2h-2.4v.9h2.5v-.9z"/><path d="m389.2 385.8h.9v1.5h1.9v-1.5h.9v1.5h2.7v6h1.1v.9h-11.3v-.9h1.1v-6h2.7zm.2 8.7.5.8c-1.2.6-2.5 1.3-4 1.9-.2-.3-.3-.6-.6-.8 1.6-.6 3-1.3 4.1-1.9zm-2-4.3h1.9v-2.1h-1.9zm0 3.1h1.9v-2.2h-1.9zm2.7-3.1h1.9v-2.1h-1.9zm0 3.1h1.9v-2.2h-1.9zm2.4 1.3c1.4.6 2.7 1.2 4.1 1.8l-.5.9c-1.5-.7-2.8-1.4-4.1-1.9zm2.2-6.5h-1.9v2.1h1.9zm-1.9 5.2h1.9v-2.2h-1.9z"/></g></svg>