<svg enable-background="new 0 0 400 400" viewBox="0 0 400 400" xmlns="http://www.w3.org/2000/svg"><path d="m156.69 265.5c-2.17-4.33-2.45-8.08.34-12.51 7.08-11.26 13.36-23.02 20.33-34.36 3.58-5.83 2.54-11.33-.09-16.75-7.52-15.49-17.79-29.18-28.6-42.48-4.69-5.77-8.82-11.91-10.11-19.43-.45-2.62-.53-5.34-.48-8.01.09-4.86 4.44-7.12 8.64-4.42 1.85 1.19 3.65 2.72 4.93 4.49 7.21 9.95 14.33 19.98 21.33 30.08 4.97 7.16 9.59 14.57 14.59 21.71 1.84 2.63 4.31 4.81 7.03 7.79 2.93-4.21 5.78-7.89 8.18-11.86 4.82-7.97 8.96-16.28 10.25-25.67.25-1.83.07-3.77-.23-5.61-3.07-18.69-12.25-35.15-19.19-52.43-3.24-8.07-6.77-16.02-10.1-23.86.35-.46.44-.69.61-.81 7.84-5.85 8.64-5.75 15.14 1.74 10.89 12.54 17.55 27.43 23.47 42.69 1.98 5.1 3.43 10.4 5.37 15.52 4.2 11.11 2.65 22.49 1.85 33.84-.34 4.8.4 10.06-1.37 14.27-1.72 4.1-6.16 7.01-9.15 10.65-7.87 9.56-12.33 20.51-12.01 32.99.1 3.8 1 7.79 2.48 11.29 5.54 13.06 11.32 25.98 18.29 38.42 3.81 6.81 5.38 14.87 7.96 22.37 6.66 19.34 13.47 38.62 19.85 58.05 1.53 4.67 1.95 9.81 2.25 14.76.22 3.65-2.54 6.37-5.92 7.06-3.87.79-7.41-.65-9.19-3.68-9.24-15.76-15.51-32.65-19.63-50.42-3.48-15.01-9.37-29.09-16.43-42.77-3.26-6.32-5.87-13.01-8.45-19.65-1.72-4.45-3.41-8.74-7.75-11.36-1.98-1.2-3.38-1.26-5.11.73-3.3 3.79-6.92 7.31-10.52 10.83-5.16 5.05-11.47 7.06-18.56 6.8zm56.34-15.67c.1-.2.2-.4.3-.6-1.66-1.04-3.33-2.09-5.51-3.45.14 1.85.22 2.91.3 4.06 1.82-.01 3.36-.01 4.91-.01z" fill="#010100"/><path d="m186.79 65.01c-3.65-7.91-10.44-11.21-17.66-13.88-3.45-1.27-5.26-3.89-5.98-7.11-.99-4.45-1.43-9.02-2.13-13.54-.49-3.14 2.33-3.53 4.07-4.52.91-.52 2.81-.29 3.75.36 7.9 5.43 12.22 13.55 15.53 22.16 1.57 4.09 2.02 8.63 2.81 12.99.19 1.12-.25 2.35-.39 3.54z" fill="#010100"/><g fill="#fafbfa"><path d="m6.4 11.7c-1-.8-1.9-1.6-2.9-2.3l.6-.7c.9.7 1.9 1.4 2.9 2.2zm-2.1 8.3c.7-2.1 1.4-4.2 2-6.4.2.1.6.3 1 .4-.7 2.3-1.3 4.4-1.9 6.4zm3-12.8c-1.1-.9-2.1-1.7-2.9-2.4l.6-.7c1 .8 2 1.5 3 2.4zm1.4-1.3v-.9h10.2v.9c-.9 4.2-2.3 7.3-4.1 9.4 1.3 1.4 3.2 2.7 5.7 4-.2.2-.4.5-.7.9-2.5-1.4-4.4-2.7-5.7-4.2-1.4 1.5-3.5 3-6.1 4.4 0 0 0 0-.1-.1-.3-.4-.5-.7-.7-.8 2.7-1.3 4.7-2.8 6.2-4.2-1.8-2.2-3-5.3-3.7-9.4zm9.2 0h-7.1c.6 3.8 1.7 6.7 3.4 8.7 1.7-2 2.9-4.8 3.7-8.7z"/><path d="m31.6 3.6h.9v2.3h4.1v9.1h1.7v.9h-16.6v-.9h1.7v-9.1h4.1v-2.3h.9v2.3h3.1v-2.3zm-4 13.3.6.8c-1.9.9-3.8 1.9-5.8 2.8-.2-.3-.3-.6-.5-.9 2-.9 3.9-1.8 5.7-2.7zm-3.2-10.1v3.7h3.1v-3.7zm0 4.5v3.7h3.1v-3.7zm4.1-4.5v3.7h3.1v-3.7zm0 4.5v3.7h3.1v-3.7zm9.1 9.1c-2.1-1.1-4.1-2-5.8-2.7l.5-.8c2.2.9 4.1 1.8 5.8 2.6zm-1.9-13.6h-3.1v3.7h3.1zm-3.2 4.5v3.7h3.1v-3.7z"/></g></svg>