<svg enable-background="new 0 0 400 400" viewBox="0 0 400 400" xmlns="http://www.w3.org/2000/svg"><path d="m133.64 222.6c-3.91-5.59-6.6-11.63-7.17-18.5-.04-.43-.08-.97.13-1.3 2.71-4.2 1.7-8.89 1.76-13.41.11-7.95-.17-15.9.1-23.84.2-5.89 1.32-11.76 1.46-17.65.13-5.55-.27-11.14-.83-16.68-.42-4.17-.92-7.96 2.51-11.43 2.54-2.56 2.58-5.86.7-9.29-2.97-5.41-2.18-7.56 1.93-12.01 1.83-1.98 3.18-4.89 3.65-7.57 1.14-6.48 4.24-10.84 10.28-13.8 2.73-1.34 4.38-4.83 6.58-7.28 2.05-2.28 3.89-4.89 6.34-6.63 3.17-2.24 5.82-4.7 7.84-8.04 3.83-6.31 7.87-12.49 11.98-18.63.68-1.01 2.2-2.16 3.25-2.09 3.37.24 6.05-1 8.69-2.81 2.49-1.71 5.24-3.05 7.62-4.88 2.52-1.95 5.03-2.03 7.85-1.06 7.28 2.49 13.05 6.9 16.77 13.65.93 1.7.79 3.97 1.19 5.97.25 1.26.32 2.67.96 3.72 4.04 6.57 8.05 13.18 12.43 19.52 1.67 2.42 4.18 4.31 6.52 6.18 1.66 1.33 2.51 2.74 2.17 4.84-.6 3.79 1.19 6.64 3.07 9.82 4.12 6.97 7.98 14.2 7.02 22.84-.16 1.41-.21 3.03.33 4.28 5.26 12.14 5.63 25.24 7.61 38.01.37 2.37.48 4.97-.09 7.27-1.93 7.81-.95 15.56-.2 23.36.54 5.67 1.01 11.36 1.5 16.93-.24.28-.35.55-.53.61-7.32 2.39-5.86 3.08-8.67-3.87-7.14-17.68-11.18-36.04-11.5-55.17-.07-4.03-1.58-5.04-5.43-4.5-10.07 1.41-20.16 2.69-30.25 3.99-3.86.5-7.73.93-11.73 1.4 0 11.11-.04 21.95.02 32.79.02 4.92.07 9.85.36 14.77.66 10.93 1.52 21.84 2.2 32.76.17 2.66.75 5.68-.22 7.96-2.64 6.21.92 11.93.66 17.88-.03.61 1.02 1.84 1.46 1.79 1.45-.16 3.29-.36 4.19-1.3 2.62-2.75 4.88-5.83 7.22-8.83 5.21-6.68 11.33-12.73 14.35-20.92.22-.59.73-1.15 1.25-1.53 5.04-3.7 10.12-7.35 15.64-11.35 1.55 4.57 2.98 8.82 4.56 13.49-1.4.38-2.62.91-3.87 1.01-5.84.46-8.6 4.46-9.43 9.38-1.19 7.04-4.81 12.02-10.41 16.09-4.05 2.94-7.98 6.09-9.81 11.16-.48 1.32-2.12 2.21-3.21 3.32-1.63 1.67-3.29 3.31-4.86 5.03-5.07 5.58-5.98 12.56-6.26 19.64-.25 6.21-1.55 11.92-6.18 16.44-.38.37-.61.9-1.13 1.69 1.5.76 2.79 1.65 4.22 2.09 3.13.97 4.12 3.14 3.8 6.13-1.21 11.55-2.37 23.11-3.71 34.64-.97 8.33-2.19 16.62-3.34 25.26-.8.18-1.82.41-3.43.77-.58-4.41-1.39-8.55-1.63-12.73-.8-13.96-1.4-27.93-2.08-41.9-.51-10.4-.97-20.8-1.58-31.19-.25-4.14-1.16-8.31 2.8-11.58-7.85-4.73-12.09-11.94-16.32-19.24-5.54-9.56-11.47-18.9-17-28.47-1.74-3.02-2.71-6.48-4.03-9.74 5.98-2.38 6.8-2.14 9.89 2.43 6.81 10.08 13.63 20.17 20.59 30.46 2.73-3.51 3.45-7.19 3.19-11.24-.85-13.17-1.94-26.35-2.24-39.54-.14-6.29 1.3-12.6 2.01-18.91.13-1.17.6-2.56.17-3.51-2.83-6.25-2.61-12.84-2.64-19.45-.02-3.9-.03-7.85-.61-11.7-.67-4.44-1.51-4.95-5.98-4.92-6.6.04-13.2.27-19.8.3-1.89.01-3.79-.28-5.67-.57-4.55-.7-6.61 1.46-6.39 6.13.24 5.2.23 10.44-.08 15.63-.13 2.1-1.42 4.12-2.05 6.21-.71 2.37-1.97 4.87-1.73 7.18.48 4.69-.58 9-1.44 13.51-1.34 7.01-1.9 14.17-2.8 21.26-.65 5.39-1.56 7.32-4.49 9.47zm8.67-98.1c1.17 3.14 3.22 4.67 6.36 5.43 5.75 1.39 11.51 2.91 17.03 4.99 7.84 2.95 15.34 3 23.43.52 10.3-3.16 20.78-6.27 31.87-5.05 1.29.14 2.64-.43 3.97-.48 3.39-.12 6.86-.57 10.17-.06 3.25.49 5.93 0 8.49-1.9 5.75-4.27 6.38-16.25 1.18-21.22-1.53-1.46-2.86-3.13-4.23-4.75-2.89-3.42-4.5-7.12-2.38-11.59 1.12-2.37.19-4.12-1.52-5.89-2.07-2.16-5.34-4.52-5.48-6.94-.45-7.79-6.03-12.49-9.43-18.49-1.46-2.58-3.11-5.22-3.76-8.05-1.04-4.48-3.57-7.31-7.55-9.14-1.93-.89-3.95-1.6-5.79-2.63-3.51-1.96-6.64-.86-9.78.85-1.65.9-2.42 2.08-1.92 4.11.77 3.1-.05 5.68-2.21 8.27-1.76 2.1-2.83 4.93-3.68 7.6-.96 3.01-2.34 5.3-5.6 5.96-3.14.64-5.31 2.37-7.1 5.06-4.59 6.88-9.53 13.53-14.13 20.4-2.05 3.06-4.42 5.51-7.83 7.01-1.27.56-2.67 1.41-3.41 2.53-2.98 4.55-5.21 9.27-3.19 15.03 1.28 3.62.66 6.92-3.51 8.43z" fill="#010100"/><g fill="#fafbfa"><path d="m6.4 11.7c-1-.8-1.9-1.6-2.9-2.3l.6-.7c.9.7 1.9 1.4 2.9 2.2zm-2.1 8.3c.7-2.1 1.4-4.2 2-6.4.2.1.6.3 1 .4-.7 2.3-1.3 4.4-1.9 6.4zm3-12.8c-1.1-.9-2.1-1.7-2.9-2.4l.6-.7c1 .8 2 1.5 3 2.4zm1.4-1.3v-.9h10.2v.9c-.9 4.2-2.3 7.3-4.1 9.4 1.3 1.4 3.2 2.7 5.7 4-.2.2-.4.5-.7.9-2.5-1.4-4.4-2.7-5.7-4.2-1.4 1.5-3.5 3-6.1 4.4 0 0 0 0-.1-.1-.3-.4-.5-.7-.7-.8 2.7-1.3 4.7-2.8 6.2-4.2-1.8-2.2-3-5.3-3.7-9.4zm9.2 0h-7.1c.6 3.8 1.7 6.7 3.4 8.7 1.7-2 2.9-4.8 3.7-8.7z"/><path d="m31.6 3.6h.9v2.3h4.1v9.1h1.7v.9h-16.6v-.9h1.7v-9.1h4.1v-2.3h.9v2.3h3.1v-2.3zm-4 13.3.6.8c-1.9.9-3.8 1.9-5.8 2.8-.2-.3-.3-.6-.5-.9 2-.9 3.9-1.8 5.7-2.7zm-3.2-10.1v3.7h3.1v-3.7zm0 4.5v3.7h3.1v-3.7zm4.1-4.5v3.7h3.1v-3.7zm0 4.5v3.7h3.1v-3.7zm9.1 9.1c-2.1-1.1-4.1-2-5.8-2.7l.5-.8c2.2.9 4.1 1.8 5.8 2.6zm-1.9-13.6h-3.1v3.7h3.1zm-3.2 4.5v3.7h3.1v-3.7z"/></g></svg>