<svg enable-background="new 0 0 400 400" viewBox="0 0 400 400" xmlns="http://www.w3.org/2000/svg"><path d="m199.1 370.74c1.64-1.17 3-2.15 4.37-3.13-.13-.31-.27-.61-.4-.92-3.84.8-7.69 1.6-11.53 2.42-2.19.46-4.37 1.38-6.55 1.35-3.26-.05-6.95.11-9.69-1.3-22.65-11.66-43.08-26.38-60.39-45.22-.91-.99-1.71-2.07-2.62-3.06-3.85-4.19-5.32-9.02-6.05-14.76-1.2-9.49-3.91-18.78-5.92-28.16-.32-1.5-.66-3.18-.32-4.61 1.2-5.04.03-9.7-1.62-14.4-2.4-6.85-4.74-13.74-6.78-20.7-.68-2.33-1.03-5.13-.39-7.4 1.38-4.89.77-9.54-.68-14.13-4.31-13.71-2.59-27.6-1.88-41.56.98-19.21 1.89-38.52-2.36-57.5-1.39-6.19-2.34-12.09-.75-18.39.83-3.29.43-6.89.63-10.34.05-.87.04-1.85.42-2.59 3.31-6.41 3.54-13.35 3.38-20.3-.26-10.83-1.4-21.69 1.04-32.43.64-2.82 1.47-5.59 2.26-8.53 4.74 1.09 7.65 4.14 8.74 8.22 1.46 5.45 2.82 11.14 2.85 16.74.19 30.5 3.75 60.74 6.22 91.07s4.65 60.7 7.78 90.96c1.53 14.74 4.83 29.3 7.57 43.9 1.74 9.32 2.68 10.8 9.25 18.69 3.7-2.27 7.71-4.26 11.2-6.95 11.17-8.61 22.07-17.56 33.26-26.14 2-1.53 4.93-1.79 7.35-2.84 2.29-.99 4.96-1.76 6.61-3.46 7.9-8.13 17.54-13.81 26.96-19.81 22.82-14.56 45.79-28.88 68.38-43.79 6.1-4.03 12.34-5.22 19.57-5.25-3.09 9.3-4.93 18.98-13.96 24.98-7.91 5.25-15.1 11.68-23.33 16.33-30.82 17.44-59.65 37.89-89.04 57.51-4.88 3.26-10.43 5.57-15.82 7.99-8.84 3.96-17.21 9.1-27.03 10.65-2.85.45-3.83 3.26-2.16 6.08 5.68 9.59 12.01 18.52 22.23 24.04 16.96 9.16 35.01 15.16 53.72 19.47 10.67 2.46 21.26 5.31 32 7.43 5.42 1.07 11.07 1.21 16.62 1.22 3.35.01 5.54.89 6.68 4.27-4.03 2.39-8.14 2.18-12.46.74-4.43-1.48-8.92-2.79-13.46-3.88-1.67-.4-3.6-.2-5.3.19-1.89.44-3.45 1.17-2.48 4.02.43 1.26-.62 4.08-1.76 4.64-3.32 1.64-6.97 3.24-10.6 3.52-8.23.58-16.18-1.03-23.76-4.88z" fill="#010102"/><path d="m276.2 131.16c1 3.77.05 6.03-2.38 8.29-24.78 22.99-51.17 43.72-81.07 59.8-3.83 2.06-6.74 5.79-10.25 8.53-2.03 1.58-4.27 3.43-6.67 3.91-5.39 1.09-6.46.31-8.72-4.72-5.93-13.18-8.95-27.15-10.75-41.39-2.53-20-4.25-40.11-2.78-60.26.9-12.24 2.71-24.45 4.88-36.53.9-4.99 3.84-9.62 5.83-14.37 5.86 2.15 8.12 5.63 7.75 11.04-.09 1.34-.02 2.74-.39 4-2.24 7.5.56 14.47 1.82 21.68 2.21 12.65 3.81 25.4 5.6 38.12 2.01 14.31 3.36 28.66 2.94 43.14-.03.89.18 1.78.26 2.67.26 2.67.89 5.33 3.71 6.23 2.89.93 5.53.26 8.06-1.84 10.07-8.35 20.04-16.84 30.53-24.63 12.32-9.16 25.43-17.13 40.44-21.27 3.64-1.01 7.39-1.6 11.19-2.4z" fill="#010102"/><g fill="#fcfbfa"><path d="m385.2 377.6.6-.7c.6.4 1.3.9 1.9 1.5l-.6.7c-.8-.5-1.4-1-1.9-1.5zm.3 7.1c.6-1.4 1.1-2.9 1.5-4.5.3.1.6.3.9.4-.5 1.4-1 2.9-1.5 4.4zm.2-10.1.6-.6c.7.5 1.3 1.1 1.9 1.6l-.7.7c-.6-.6-1.2-1.2-1.8-1.7zm8.4-.8h.8v.9h1.8v.7h-1.8v1.8h-.8v-.3h-1.2v.9h3.3v2.6h-.8v-.4h-2.5c0 .3 0 .6-.1.8h3.4v.7h-3.5c0 .3-.1.6-.1.8h4v.7h-3.5c.7.9 1.9 1.3 3.6 1.5-.2.2-.4.5-.6.9-1.9-.3-3.2-1.1-3.8-2.3-.5 1.1-1.8 2-3.9 2.4-.2-.3-.4-.5-.6-.8 1.9-.4 3.1-.9 3.6-1.7h-3.2v-.7h3.5c.1-.2.1-.5.2-.8h-3.3v-.7h3.4c0-.2 0-.5 0-.8h-2.4v.3h-.8v-2.6h3.3v-.9h-1.2v.3h-.8v-1.8h-1.8v-.7h1.8v-.9h.8v.9h3.2zm-4.4 5.5h2.4c0-.3 0-.6 0-.9h-2.4zm1.2-3.1h3.2v-.8h-3.2zm4.4 2.2h-2.4v.9h2.5v-.9z"/><path d="m389.2 385.8h.9v1.5h1.9v-1.5h.9v1.5h2.7v6h1.1v.9h-11.3v-.9h1.1v-6h2.7zm.2 8.7.5.8c-1.2.6-2.5 1.3-4 1.9-.2-.3-.3-.6-.6-.8 1.6-.6 3-1.3 4.1-1.9zm-2-4.3h1.9v-2.1h-1.9zm0 3.1h1.9v-2.2h-1.9zm2.7-3.1h1.9v-2.1h-1.9zm0 3.1h1.9v-2.2h-1.9zm2.4 1.3c1.4.6 2.7 1.2 4.1 1.8l-.5.9c-1.5-.7-2.8-1.4-4.1-1.9zm2.2-6.5h-1.9v2.1h1.9zm-1.9 5.2h1.9v-2.2h-1.9z"/></g></svg>