<svg enable-background="new 0 0 400 400" viewBox="0 0 400 400" xmlns="http://www.w3.org/2000/svg"><g fill="#fbfafa"><path d="m37.59 393.81c-.92.31-1.52.05-2-.78-.7-1.2-1.52-2.34-2.47-3.78v4.59c-.55.03-.95.05-1.41.07-.03-.37-.06-.64-.06-.91 0-1.91 0-3.81 0-5.7 1.13-.41 1.77-.03 2.29.91.62 1.11 1.38 2.14 2.31 3.19v-4.2h1.35v6.61z"/><path d="m12.94 393.88v-6.75c1.9.19 3.93-.54 5.37 1.29.8 1.01.78 2.88.03 3.97-1.37 1.97-3.4 1.51-5.4 1.49m1.45-1.22c2.04.12 2.92-.58 2.89-2.21-.03-1.51-.98-2.19-2.89-2z"/><path d="m11.81 393.87h-5.49c.68-2.18 2.47-3.48 3.51-5.45h-3.08v-1.21h5.29c-.71 2.13-2.44 3.48-3.47 5.51.86 0 1.63.04 2.39-.01.79-.05 1.14.21.85 1.16"/><path d="m39.33 393.86v-6.61h3.7v1.07h-2.22v1.52c.68.04 1.34.09 2.07.13v1.07c-.72.05-1.38.09-2.1.14v1.48h2.4v1.19h-3.85z"/><path d="m27.71 388.56c-1.15-.3-2.46-.61-3.1.64-.37.73-.41 1.93-.06 2.67.63 1.35 1.99.93 3.17.68.35.94-.01 1.32-.93 1.46-1.62.25-3.05-.27-3.76-1.48-.73-1.24-.6-3.03.31-4.17.88-1.11 2.71-1.7 4-1.16.32.13.44.74.65 1.12-.1.08-.19.16-.28.24"/><path d="m49.15 387.24v1.07c-.59.02-1.17.05-1.87.08v5.44h-1.48v-5.44h-1.85c-.05-.4-.08-.73-.13-1.15z"/><path d="m20.06 387.21h1.33v6.62h-1.33z"/><path d="m30.68 393.25c-.49.38-.8.79-1.05.76-.32-.05-.6-.45-.9-.7.26-.24.51-.64.8-.67.29-.04.62.3 1.15.61"/></g><path d="m186.39 268.92c-4.04 6.01-7.81 11.8-11.79 17.45-1.72 2.44-3.81 4.65-5.87 6.82-1.77 1.87-4.48 3.19-5.5 5.35-5.04 10.73-15.75 16.67-21.82 26.48-2.46 3.97-6.3 6.21-11.24 7.6.76-6.44-.33-12.44 4.49-18.21 16.78-20.1 32.72-40.9 49.39-61.1 5.11-6.18 7.35-12.91 7.71-20.54.56-12-.03-23.95-2.63-35.71-.38-1.73-1.37-3.57-2.61-4.83-9.41-9.59-18.9-19.1-28.47-28.53-9.26-9.12-18.29-18.39-26.03-28.89-3.19-4.32-7.4-7.9-11.85-12.56-1.01 2.85-1.7 4.45-2.16 6.11-5.93 21.53-11.76 43.08-17.82 64.57-.89 3.17-2.83 6.06-4.38 9.03-.66 1.26-1.56 2.4-2.57 3.93-2.85-4.3-3.69-8.87-2.95-13.32 1.61-9.68 3.55-19.32 5.86-28.85 3.89-16.07 8.06-32.08 12.36-48.05 1.6-5.94.72-11.18-2.39-16.36-4.81-8-6.01-11.7-6.53-18.65 2.87-.22 5.18.35 7.35 2.63 16.94 17.75 33.01 36.22 47.24 56.26 1.53 2.16 3.57 3.96 5.39 5.92 7.3 7.86 14.61 15.7 21.9 23.56 1.28 1.38 2.49 2.83 3.9 4.43 2.75-4.36 3.99-8.84 3.75-13.56-.55-10.84-.98-21.7-2.15-32.48-1.73-16.01-1.38-31.96.46-47.87 1.4-12.13 1.13-24.07-1.74-35.97-1.58-6.55.04-12.62 3.93-18.53 3.62 3.89 4.86 8.59 5.49 13.4 2.38 18.29 4.91 36.58 6.74 54.93 1.01 10.11.74 20.34 1 30.52.18 7.15.11 14.32.51 21.45.18 3.23 1.24 6.42 1.91 9.63.53.14 1.05.28 1.58.43 4.42-5.93 9.57-11.45 13.1-17.86 8.07-14.66 17.81-28.14 27.48-41.71 2.59-3.63 5.73-6.51 10.07-8.1 3.49 4.38 3.91 9.19 1.37 13.85-6.67 12.27-5.22 16.9 5.03 26.08 5.12 4.58 9.33 10.21 13.72 15.55 6.61 8.03 13.14 16.14 19.46 24.4 2.27 2.97 4.01 6.4 5.66 9.78.51 1.04.34 3.44-.29 3.78-1.3.7-3.5 1.09-4.66.43-3.66-2.07-7.52-4.2-10.4-7.17-13.54-14-26.78-28.29-40.13-42.48-.68-.72-1.28-1.51-2.2-2.59-2.8 3.96-5.3 7.49-7.8 11.02-10.65 15.08-21.34 30.13-31.9 45.28-.92 1.32-1.48 3.29-1.35 4.88 1.06 12.71 2.26 25.41 3.6 38.09.17 1.62 1.1 3.37 2.16 4.66 4.57 5.58 10.03 10.31 13.11 17.24 1.57 3.52 5.74 5.83 8.49 8.9 3.93 4.39 8.2 8.63 11.33 13.56 10.03 15.83 21.8 30.33 33.2 45.12 4.38 5.69 6.63 12.36 6.95 19.82-3.37.31-6.05-.21-8.78-2.71-18.84-17.28-33.82-37.84-49.62-57.7-3.67-4.62-7.06-9.45-10.8-14.01-1.13-1.38-2.98-2.16-5-3.55-.17 3.35-.35 5.99-.43 8.64-.73 25.06-1.46 50.11-2.12 75.17-.16 6.14.16 12.3-.14 18.44-.24 4.85-1.3 9.55-6.87 12.4-.5-3.84-.83-7.34-1.43-10.79-1.95-11.23-4.12-22.43-5.94-33.68-.69-4.28-.88-8.68-.94-13.02-.16-12.75-.14-25.51-.19-38.26-.01-3.68-.76-7.09-4.2-9.95z" fill="#010000"/></svg>