<svg enable-background="new 0 0 400 400" viewBox="0 0 400 400" xmlns="http://www.w3.org/2000/svg"><g fill="#fbfafa"><path d="m37.59 393.81c-.92.31-1.52.05-2-.78-.7-1.2-1.52-2.34-2.47-3.78v4.59c-.55.03-.95.05-1.41.07-.03-.37-.06-.64-.06-.91 0-1.91 0-3.81 0-5.7 1.13-.41 1.77-.03 2.29.91.62 1.11 1.38 2.14 2.31 3.19v-4.2h1.35v6.61z"/><path d="m12.94 393.88v-6.75c1.9.19 3.93-.54 5.37 1.29.8 1.01.78 2.88.03 3.97-1.37 1.97-3.4 1.51-5.4 1.49m1.45-1.22c2.04.12 2.92-.58 2.89-2.21-.03-1.51-.98-2.19-2.89-2z"/><path d="m11.81 393.87h-5.49c.68-2.18 2.47-3.48 3.51-5.45h-3.08v-1.21h5.29c-.71 2.13-2.44 3.48-3.47 5.51.86 0 1.63.04 2.39-.01.79-.05 1.14.21.85 1.16"/><path d="m39.33 393.86v-6.61h3.7v1.07h-2.22v1.52c.68.04 1.34.09 2.07.13v1.07c-.72.05-1.38.09-2.1.14v1.48h2.4v1.19h-3.85z"/><path d="m27.71 388.56c-1.15-.3-2.46-.61-3.1.64-.37.73-.41 1.93-.06 2.67.63 1.35 1.99.93 3.17.68.35.94-.01 1.32-.93 1.46-1.62.25-3.05-.27-3.76-1.48-.73-1.24-.6-3.03.31-4.17.88-1.11 2.71-1.7 4-1.16.32.13.44.74.65 1.12-.1.08-.19.16-.28.24"/><path d="m49.15 387.24v1.07c-.59.02-1.17.05-1.87.08v5.44h-1.48v-5.44h-1.85c-.05-.4-.08-.73-.13-1.15z"/><path d="m20.06 387.21h1.33v6.62h-1.33z"/><path d="m30.68 393.25c-.49.38-.8.79-1.05.76-.32-.05-.6-.45-.9-.7.26-.24.51-.64.8-.67.29-.04.62.3 1.15.61"/></g><path d="m254.1 226.72c7.11-.31 14.12-.57 21.12-1.02.73-.05 1.54-1.15 2.06-1.93 2.96-4.5 2.51-9.52 2.42-14.6-.09-4.95.55-9.92.9-15.37 10.48 6.51 19.46 40.96 15.62 57.29-2.88 1.02-4.79.23-6.56-2.51-2.16-3.36-4.91-6.35-7.53-9.4-1.58-1.84-3.59-2.2-6.07-1.74-4.28.8-8.63 1.23-12.96 1.66-5.19.52-8.61 3.64-7.8 8.79 1.31 8.37-.23 17.27 4.24 25.08.78 1.37 1.7 3.08 3 3.68 10.91 5.01 18.31 13.25 23.97 23.72 5.04 9.33 11.12 18.1 16.74 27.12.57.91 1.11 1.85 1.66 2.77-.2.28-.4.55-.6.83-1.72-.79-3.66-1.28-5.1-2.41-5.42-4.26-10.36-9.22-16.09-13-6.67-4.4-13.99-7.83-22.06-12.25-.73 7.93-1.4 14.85-1.99 21.78-.53 6.23-.44 12.57-1.63 18.67-.95 4.91-3.39 9.53-5.17 14.28-.4-.08-.79-.15-1.19-.23-.86-2.93-1.75-5.84-2.59-8.78-1.83-6.45-3.33-13.01-5.54-19.33-2.67-7.65-1.89-15.46-1.93-23.25-.01-2.29-.47-3.69-2.83-4.46-2.75-.9-5.55-3.38-7.99-3-2.39.37-4.23 3.64-6.54 5.34-7.89 5.8-15.88 11.46-23.84 17.18-.34-.33-.68-.67-1.02-1 .83-1.49 1.39-3.23 2.53-4.42 6.04-6.34 10.41-13.69 13.52-21.81 4.22-11.03 9.97-21.23 16.67-30.9 1.63-2.35 2.3-4.71 1.95-7.52-.33-2.66-.67-5.36-.56-8.03.1-2.59-1.12-3.97-3.36-4.01-6.66-.13-13.36-.35-19.98.21-5.77.48-11.42 2.16-17.17 2.94-2.7.37-3.44 1.7-3.83 4.04-1.03 6.29-2.23 12.55-3.41 18.81-.16.83-.55 2.25-.94 2.29-3.65.33-2.79 3.2-3.06 5.29-.54 4.28-2.29 5.24-6.39 3.98-3.76-1.16-5.23-3.08-5.51-7.23-.41-6.09-2.44-12.05-3.03-18.14-.41-4.23.68-8.59.65-12.88-.03-5.09-.57-10.18-.82-15.28-.18-3.86-.69-7.78-.24-11.58.41-3.49 3.13-5.71 6.44-7.23 1.69 3.72 3.16 7.33 4.94 10.78 6.48 12.57 9.75 15.1 25.51 13.06 7.82-1.01 15.44-3.56 23.1-5.62 1.09-.29 2.64-1.77 2.65-2.72.07-6.56-.16-13.12-.45-19.68-.03-.68-1-1.4-1.67-1.94-2.08-1.7-4.13-3.46-6.36-4.94-9.97-6.6-17.93-14.94-23.38-25.69-1.16-2.29-3.75-3.81-5.29-5.97-2.91-4.04-6.05-8.04-8.07-12.52-1.13-2.52-.2-5.96-.2-9.3 4.64.8 8.29 1.48 11.31 4.5 2.5 2.51 5.68 4.34 8.49 6.56 5.76 4.54 11.47 9.14 17.45 13.92 2.32-2.14 2.88-5.72 2.82-9.23-.06-3.77-.74-7.55-1.32-11.29-.14-.89-.73-1.98-1.46-2.48-5.51-3.8-8.87-8.74-8.83-15.65 0-.31-.2-.61-.3-.9-.25-.1-.49-.29-.64-.23-3.99 1.57-6.09-.31-7.61-3.86-3.22-7.53-9.15-12.82-15.13-18.1-1.54-1.36-2.85-3.16-3.79-5-3.46-6.75-6.73-13.61-9.68-21.11 1.37.65 2.97 1.04 4.05 2.02 2.71 2.45 5.72 3.74 9.38 3.83 5.8.14 10.84 1.79 14.79 6.52 3.42 4.1 7.41 7.72 11.29 11.71 3.82-3.87 5.18-7.95 3.95-12.81-.14-.54-.28-1.09-.51-1.6-4.15-8.95-5.91-18.44-6.56-28.22-.1-1.44-1.16-2.96-2.13-4.17-5.16-6.43-10.89-12.47-15.46-19.29-2.19-3.27-2.37-7.95-3.15-12.05-.12-.62 1.37-1.9 2.35-2.26 1.08-.4 2.45.03 3.66-.12 3.6-.46 6.21.39 7.41 4.31.41 1.34 1.82 2.58 3.06 3.43 14.43 9.88 20.47 25.27 26.34 40.6 6.03 15.74 6.42 32.4 6.17 48.98-.12 8.03.91 15.82 2.28 23.63.19 1.1.53 2.26.36 3.32-1.5 9.34 1.44 18.09 3.23 27.06 3.21 16 5.9 32.1 8.82 48.16.06.5.21 1.02.42 1.92zm23.49 77.3c.92 1.14 1.56 1.91 2.42 2.97 1.41-2.33 5.58-1.83 4.38-5.99-.8 1.05-1.39 1.83-2.25 2.98-.52-1.04-.95-1.89-1.3-2.58-1.39 1.12-2.16 1.74-3.25 2.62zm-22.86 4.26c-3.96 2.39-3.99 2.51-1.49 6.53 1.14-2.04 5.1-3.06 1.49-6.53z" fill="#010000"/><path d="m109.79 56.91c5.03 4.14 7.37 8.81 7.06 14.94-.26 5.12.08 10.27.02 15.41-.01.97-.57 1.99-1.06 2.89-1.01 1.83-2.91 3.52-3.11 5.4-1.53 15.02-6.99 29.09-10.07 43.72-.83 3.94-.37 8.15-.46 12.23-.03 1.22.53 2.66.06 3.63-3.58 7.43-2.32 15.34-2.53 23.11-.02.67-.06 1.34-.12 2.01-.01.07-.16.13-.45.36-1.26-.8-2.6-1.65-4-2.54-.46 2.15 5.26 6.78 14.01 11.5 3.59-6.78 7.3-13.49 10.75-20.34 3.43-6.81 7.07-13.41 12.75-18.66 3.88 3.67 3.74 7.72.91 12.33-6.26 10.17-8.82 21.41-11.42 32.74-1.45 6.32-2.7 12.69-4.36 18.95-.59 2.22.02 3.46 1.43 4.97 8.61 9.22 16.07 19.22 20.17 31.35.67 1.99 1.13 4.05 1.93 6.97-10.49-2.93-16.56-11.35-25.23-15.99-3.01 3.15-4 7.15-4.05 11.51-.04 3.46-.03 6.93-.19 10.39-.05 1.2-.2 2.61-.86 3.52-2.37 3.25-2.07 6.3.02 9.51 4.3 6.59 2.61 13.9 1.98 20.89-.58 6.41-2.45 12.69-3.51 19.06-.37 2.24-.36 4.67.07 6.9 1.09 5.68 1.33 11.21-.26 16.9-1.55 5.53-2.53 11.23-3.76 16.85-.32.03-.63.07-.95.1-.67-2.37-2.09-4.81-1.89-7.11 1.01-11.41-2.86-22.11-4.43-33.13-1.94-13.65-2.71-27.12 1.46-40.54.83-2.68 1.05-5.83.57-8.59-2.49-14.13-.79-28.1 1.26-42.04.86-5.85.32-11.03-2.4-16.4-3.42-6.74-7.2-13.69-8.61-20.98-1.83-9.46-1.48-19.33-2.04-29.03-.02-.42.08-1.17.28-1.24 3.81-1.15 2.52-4.34 2.37-6.66-1.94-29.24 5.68-56.73 15.1-83.92 1.19-3.46 2.27-6.97 3.56-10.97zm-7.33 41.46c1.98-.78 3.39-1.33 5.5-2.16-1.9-.97-3.07-1.57-4.41-2.25-.38 1.53-.64 2.59-1.09 4.41z" fill="#010000"/><path d="m141.06 374.34c-3.27-8.85-6.57-17.7-9.78-26.57-.45-1.23-.48-2.63-.61-3.96-.59-5.96-.58-5.96 3.6-9.92-4.46-8.07-3.46-16.41-1.46-25.06 4.62 1.24 7.01 4.4 8.78 8.1 3.98 8.36 4.63 17.44 5.22 26.45.4 6.1.71 12.26-2.13 18.09-.68 1.39-.16 3.32-.49 4.94-.56 2.72-1.36 5.4-2.05 8.09-.38-.05-.73-.11-1.08-.16z" fill="#010000"/><path d="m145.73 102.64c-13.24-13-11.37-35.98-4.22-52.89 3.81 1.42 5.8 4.26 6.53 8.1.23 1.2.3 2.45.29 3.67-.11 8 1.43 15.68 3.55 23.38.99 3.59.55 7.68.21 11.5-.31 3.47-2.21 6.03-6.36 6.24z" fill="#010000"/></svg>