<svg enable-background="new 0 0 400 400" viewBox="0 0 400 400" xmlns="http://www.w3.org/2000/svg"><g fill="#010102"><path d="m140.32 170.86c-8.22-2.88-14.18-7.07-18.55-13.52-1.93-2.86-4.22-5.53-6.67-7.96-1.45-1.44-3.42-2.62-5.37-3.25-3.03-.99-5.92-.79-7.5 2.82-1.03 2.35-2.5 4.5-3.58 6.82-3.07 6.65-1.74 12.76 2.27 18.64 5.61 8.21 11.12 16.5 16.49 24.87 1.37 2.13 2.25 4.63 3.02 7.06.9 2.86-.57 4.87-3.35 3.93-3.55-1.2-7.8-2.81-9.81-5.62-5.77-8.08-10.7-16.77-15.69-25.38-3.75-6.47-6-13.51-5.73-21.09.07-1.9.65-4.01 1.64-5.63 11.27-18.42 22.88-36.62 37.12-52.97 6.2-7.12 8.8-15.72 9.28-25 .08-1.5-.36-3.09-.82-4.56-4.73-14.9-9.51-29.78-14.3-44.71 6.66-.32 11.73 2.53 13.83 8.45 3.48 9.81 7.24 19.45 12.35 28.55.51.91.57 2.14.61 3.22.39 8.94.9 17.89.99 26.84.03 3.17-.67 6.45-1.61 9.5-1.44 4.67-1.04 8.75 2.14 12.56 2.22 2.66 4.35 5.41 6.3 8.28 1.77 2.61 3.71 4.68 7.13 4.78.62.02 1.44.27 1.8.71 3.31 4.08 6.59 8.2 9.76 12.39.47.62.42 1.7.47 2.58.32 5.25.66 10.5.86 15.75.08 2.08.85 3.36 2.95 3.82 7.85 1.72 15.61.98 23.16-1.33 1.56-.48 3.08-2.72 3.67-4.46 1.47-4.41 2.68-8.95 3.47-13.53.98-5.73 2.6-11.01 6.96-15.25 6.88 16.16 4.8 58.59-3.41 66.72 3.3 2.78 2.62 6.21 1.32 9.71-2.18 5.86-4.28 11.76-6.58 17.57-.38.97-1.49 1.94-2.49 2.31-1.54.58-3.26.78-4.92.89-9.92.7-11.05 1.22-11.97 11.02-1.1 11.67-1.26 23.43-1.88 35.15-.12 2.34.85 3.87 2.97 4.63 5.77 2.05 11.56 4.05 17.37 6.01 3.28 1.1 6.65 1.94 9.87 3.18 1.43.55 2.59 1.8 3.88 2.73-.08.35-.16.69-.24 1.04-6.6 1.5-13.14 3.48-19.82 4.4-9.81 1.35-15.06 7.09-17.38 16.13-.28 1.07.63 2.43.9 3.67.29 1.34.72 2.73.63 4.06-.19 2.92-1.37 5.94-.9 8.7 1.88 10.85 3.61 21.64.92 32.6-.21.84-.51 1.66-.77 2.49-.5.03-.84.11-1.15.05-5.45-.96-5.42-.97-6.11-6.43-1.66-13.2-3.46-26.39-4.94-39.62-.32-2.8-.07-5.89.82-8.55 2.07-6.21.99-12.22-4.39-16.04-3.96-2.82-8.48-4.9-12.89-7.02-3.72-1.78-7.72-2.98-11.45-4.73-2.03-.95-3.77-2.52-5.64-3.82.14-.31.28-.63.43-.94 5.44.79 10.87 1.74 16.33 2.31 3.97.41 8.05.81 11.97.33 6.01-.74 9.15-4.91 8.79-11-.2-3.33-.64-6.7-1.48-9.92-2.21-8.48-1.41-16.62 1.99-24.59.34-.8.63-1.62 1.07-2.76-2.85 0-5.39 0-7.93 0-4.43 0-5.81-.74-7.04-5.04-1.01-3.52-1.32-7.24-2.04-10.85-1.63-8.21-2.93-16.52-5.1-24.6-2.58-9.64-2.53-19.22-1.17-28.94.65-4.65 1.38-9.31 1.66-13.99.12-1.95-.25-4.47-1.43-5.86-3.9-4.57-8.19-8.81-12.49-13.02-1.15-1.13-2.81-1.83-4.35-2.47-6.31-2.65-10.89-.59-13.21 5.88-.75 2.11-.7 3.86 1.09 5.77 6.44 6.88 12.51 14.12 15.48 23.27 1.2 3.8 1.55 7.84 2.39 12.26zm29.38 40.04c4.77 0 9.11.13 13.44-.03 5.77-.21 11.06-2.25 13.92-7.32 3.63-6.46 4.39-13.79 3.5-21.14-.51-4.18-2.4-5.34-6.49-6.26-7.87-1.78-15.25-.4-22.43 2.76-.81.36-1.84 1.44-1.85 2.19-.13 9.6-.09 19.2-.09 29.8z"/><path d="m245.64 372.03c3.85-27.74 4.01-56.01 4.06-84.32.01-8.05 2.16-16.13 3.64-24.14 2.72-14.76 4.85-29.57 4.87-44.6 0-4.32 3.5-6.19 5.55-9.81 2.79 3.77 5.39 7.06 7.73 10.53 1.99 2.95 4.45 5.14 7.67 6.73 5.25 2.61 10.44 5.07 13.9 10.5 1.75 2.75 6.05 3.75 8.64 6.14 2.44 2.26 4.36 5.2 6.05 8.11.45.77-.43 2.96-1.34 3.77-3.46 3.08-7.48 4.58-12.01 2.37-1.29-.63-2.5-1.68-3.36-2.83-1.18-1.57-2.09-2.71-4.34-1.64-5.22 2.49-6.72 1.94-9.67-2.98-.67-1.12-1.4-2.21-3.18-3.53-1.08 3.29-3.2 6.62-3.06 9.85.8 18.15-4.84 35.14-9.1 52.31-3.55 14.33-4.46 28.89-5.99 43.43-.22 2.08-1.22 4.17-2.22 6.07-2.52 4.77-5.25 9.43-7.84 14.04z"/><path d="m264.23 95.83c2.89.33 3.34 1.68 3.77 3.86.49 2.54 2.09 4.99 3.68 7.14 1.37 1.85 1.92 3.52 1.62 5.81-2 14.95-3.75 29.94-5.86 44.87-.57 4.03.1 7.53 2.96 10.13 3.36 3.05 7.17 5.61 10.87 8.26 4.7 3.37 9.66 6.4 14.15 10.02 2.16 1.74 3.51 4.48 5.22 6.77-.13.42-.25.83-.38 1.25-2.3.14-4.66.68-6.88.33-6.34-1.02-12.12-3.43-17.19-7.58-3.37-2.75-6.96-5.33-10.76-7.4-5.1-2.79-7.57-7.12-9.33-12.38-3.55-10.62-4.21-20.65.57-31.51 3.61-8.2 4.33-17.67 6.34-26.57.22-.96.22-2.09.75-2.84 2.26-3.22 4.44-6.33.47-10.16z"/></g><path d="m385.2 377.6.6-.7c.6.4 1.3.9 1.9 1.5l-.6.7c-.8-.5-1.4-1-1.9-1.5zm.3 7.1c.6-1.4 1.1-2.9 1.5-4.5.3.1.6.3.9.4-.5 1.4-1 2.9-1.5 4.4zm.2-10.1.6-.6c.7.5 1.3 1.1 1.9 1.6l-.7.7c-.6-.6-1.2-1.2-1.8-1.7zm8.4-.8h.8v.9h1.8v.7h-1.8v1.8h-.8v-.3h-1.2v.9h3.3v2.6h-.8v-.4h-2.5c0 .3 0 .6-.1.8h3.4v.7h-3.5c0 .3-.1.6-.1.8h4v.7h-3.5c.7.9 1.9 1.3 3.6 1.5-.2.2-.4.5-.6.9-1.9-.3-3.2-1.1-3.8-2.3-.5 1.1-1.8 2-3.9 2.4-.2-.3-.4-.5-.6-.8 1.9-.4 3.1-.9 3.6-1.7h-3.2v-.7h3.5c.1-.2.1-.5.2-.8h-3.3v-.7h3.4c0-.2 0-.5 0-.8h-2.4v.3h-.8v-2.6h3.3v-.9h-1.2v.3h-.8v-1.8h-1.8v-.7h1.8v-.9h.8v.9h3.2zm-4.4 5.5h2.4c0-.3 0-.6 0-.9h-2.4zm1.2-3.1h3.2v-.8h-3.2zm4.4 2.2h-2.4v.9h2.5v-.9z" fill="#fcfbfa"/><path d="m389.2 385.8h.9v1.5h1.9v-1.5h.9v1.5h2.7v6h1.1v.9h-11.3v-.9h1.1v-6h2.7zm.2 8.7.5.8c-1.2.6-2.5 1.3-4 1.9-.2-.3-.3-.6-.6-.8 1.6-.6 3-1.3 4.1-1.9zm-2-4.3h1.9v-2.1h-1.9zm0 3.1h1.9v-2.2h-1.9zm2.7-3.1h1.9v-2.1h-1.9zm0 3.1h1.9v-2.2h-1.9zm2.4 1.3c1.4.6 2.7 1.2 4.1 1.8l-.5.9c-1.5-.7-2.8-1.4-4.1-1.9zm2.2-6.5h-1.9v2.1h1.9zm-1.9 5.2h1.9v-2.2h-1.9z" fill="#fcfbfa"/></svg>