<svg enable-background="new 0 0 400 400" viewBox="0 0 400 400" xmlns="http://www.w3.org/2000/svg"><g fill="#fbfafa"><path d="m37.59 393.81c-.92.31-1.52.05-2-.78-.7-1.2-1.52-2.34-2.47-3.78v4.59c-.55.03-.95.05-1.41.07-.03-.37-.06-.64-.06-.91 0-1.91 0-3.81 0-5.7 1.13-.41 1.77-.03 2.29.91.62 1.11 1.38 2.14 2.31 3.19v-4.2h1.35v6.61z"/><path d="m12.94 393.88v-6.75c1.9.19 3.93-.54 5.37 1.29.8 1.01.78 2.88.03 3.97-1.37 1.97-3.4 1.51-5.4 1.49m1.45-1.22c2.04.12 2.92-.58 2.89-2.21-.03-1.51-.98-2.19-2.89-2z"/><path d="m11.81 393.87h-5.49c.68-2.18 2.47-3.48 3.51-5.45h-3.08v-1.21h5.29c-.71 2.13-2.44 3.48-3.47 5.51.86 0 1.63.04 2.39-.01.79-.05 1.14.21.85 1.16"/><path d="m39.33 393.86v-6.61h3.7v1.07h-2.22v1.52c.68.04 1.34.09 2.07.13v1.07c-.72.05-1.38.09-2.1.14v1.48h2.4v1.19h-3.85z"/><path d="m27.71 388.56c-1.15-.3-2.46-.61-3.1.64-.37.73-.41 1.93-.06 2.67.63 1.35 1.99.93 3.17.68.35.94-.01 1.32-.93 1.46-1.62.25-3.05-.27-3.76-1.48-.73-1.24-.6-3.03.31-4.17.88-1.11 2.71-1.7 4-1.16.32.13.44.74.65 1.12-.1.08-.19.16-.28.24"/><path d="m49.15 387.24v1.07c-.59.02-1.17.05-1.87.08v5.44h-1.48v-5.44h-1.85c-.05-.4-.08-.73-.13-1.15z"/><path d="m20.06 387.21h1.33v6.62h-1.33z"/><path d="m30.68 393.25c-.49.38-.8.79-1.05.76-.32-.05-.6-.45-.9-.7.26-.24.51-.64.8-.67.29-.04.62.3 1.15.61"/></g><path d="m228.06 314.92c-3.34.59-4.69-.82-5.54-3.82-3.43-12.13-7.12-24.19-10.83-36.65-12.36 4-24.95 1.46-37.35 2.39-4.88.37-7.61-1.92-10.25-5.37-4.39-5.75-5.76-12.48-6.92-19.35-.82-4.85-1.87-9.65-2.65-14.51-.19-1.22.28-2.54.53-4.43-.37-2.11-1.1-4.91-1.32-7.75-.82-11.03-1.13-22.11-2.28-33.1-1.54-14.64.11-29.02 2.17-43.43.48-3.32 3.36-2.37 5.24-2.98.86-.28 2.44.38 3.13 1.14 1.26 1.38 2.33 3.05 3.06 4.78 1.39 3.29 3.69 4.02 7.1 3.83 10.27-.58 20.56-.89 30.84-1.12 2.13-.05 3.49-.66 3.95-2.67.88-3.89 2.04-7.78 2.33-11.73.51-7.05 1.47-11.6 4.58-16.96 3.14.27 4.61 1.62 5.15 5.11 2.74 17.67 5.97 35.26 8.71 52.93.44 2.82-.81 5.88-1.16 8.84-.32 2.64-.71 5.31-.67 7.96.09 6.71.71 13.43.56 20.13-.36 15.99 3.25 31.55 4.79 47.34 1.57 16.05 1.07 31.94-2.63 47.67-.15.63-.38 1.24-.54 1.75zm-57.56-143.42c-.28 1.01-.66 1.85-.73 2.72-.71 8.5-1.4 16.99-2.01 25.5-.05.71.38 1.51.72 2.2 2.04 4.11 2.8 8.33 2.1 12.97-.67 4.47 1.99 7.2 6.58 7.65 3 .29 5.99.67 8.99 1.04 6.9.83 13.8 1.8 20.31-1.75.67-.37 1.79-.75 1.87-1.26.68-4.56 2.86-9.24.32-13.7-1.3-2.27-.96-4.01-.23-6.21 2.75-8.28 2.67-16.73.5-25.07-1.22-4.7-4.02-6.38-8.68-6.08-9.8.61-19.6 1.3-29.74 1.99zm38.06 77.39c-.12.18.23-.53.73-1.1 2.55-2.89 2.58-6.35 2.14-9.84-.43-3.37-2.68-4.63-5.92-3.98-3.93.8-7.9 1.49-11.89 1.95-6.55.76-13.12 1.29-19.68 1.92-1.92.18-2.67 1.2-2.56 3.14.23 4.02-.21 8.15.57 12.05 2.21 11.08 4.61 14.8 15.74 14.42.56-.02 1.13.14 1.67.06 6.15-.9 12.32-1.66 18.42-2.83 3.37-.65 4.79-3.32 4.03-6.57-.68-2.92-1.98-5.7-3.25-9.22z" fill="#010000"/><path d="m129.66 131.23c-1.68-3.18-1.16-6.04-.04-8.95 1.72-4.46 3.32-8.97 5.05-13.44.39-1.02 1-1.98 1.66-2.86 13.22-17.78 26.53-35.5 39.64-53.36 1.78-2.42 2.99-5.43 3.77-8.36 1.65-6.13 2.85-12.39 4.27-18.74 5.17 1.18 9.76 2.49 11.34 8.41.57 2.14 2.36 3.97 3.69 5.88 3.18 4.56 6.79 8.87 9.55 13.67 7.31 12.75 14.73 25.65 25.16 35.91 10.38 10.2 17.05 22.89 26.03 33.96 2.78 3.42 4.26 8.04 5.78 12.3 1.03 2.92-.62 4.17-3.65 3.12-4.43-1.55-8.66-3.3-12.29-6.58-6.06-5.47-12.49-10.53-18.79-15.73-.84-.7-1.86-1.7-2.79-1.68-3.57.05-4.62-2.31-5.66-5.03-1.32-3.44-3.05-6.73-4.25-10.21-.9-2.59-2.61-3.64-5.04-3.43-3.32.3-6.6 1.03-9.92 1.44-10.99 1.36-21.98 2.71-32.98 3.94-3.52.39-6.21 1.31-8.76 4.34-7.51 8.93-16.12 16.79-26.27 22.74-1.73 1.01-3.59 1.75-5.5 2.66zm60.35-71.24c-3.86 6.51-7.49 12.5-10.94 18.59-.61 1.07-.66 2.56-.63 3.85.04 1.68.9 2.68 2.83 2.31 7.52-1.44 15.05-2.84 22.87-4.31-1.55-9.06-6.69-15.13-14.13-20.44z" fill="#010000"/><path d="m158.36 306.71c7.5 2.83 9.46 5.9 8.85 13.11-.08 1-.11 2.01-.04 3.01.49 7.08 1.73 8.9 8.56 10.47 4.73 1.09 9.67 2.13 14.47 1.94 9.24-.35 17.96 1.79 26.74 3.96 6.08 1.5 10.73-.96 14.29-5.44 4.71-5.94 8.97-12.23 14.23-18.26 0 3.54.25 7.09-.06 10.6-.38 4.22-1.29 8.39-1.87 12.6-.8 5.86-2.62 11.21-6.56 15.82-3.53 4.14-6.03 9.53-10.26 12.62-10.76 7.86-23.06 9.49-36.37 7.76-9.98-1.29-16.73-7.38-24.27-12.58-.8-.55-1.18-1.8-1.63-2.79-1.73-3.84-2.99-7.97-5.18-11.51-5.44-8.77-7.16-17.93-4.38-27.91 1.22-4.37 2.3-8.81 3.48-13.4zm40.47 55.74c6.35.36 12.33-.53 17.3-4.84.74-.64 1.18-2.11 1.05-3.1-.11-.82-1.18-1.96-2.01-2.15-11.1-2.6-22.21-5.17-33.38-7.41-1.81-.36-4.87.37-5.69 1.65-.8 1.26.5 3.87.91 5.88.04.2.23.38.37.55 3.77 4.41 7.83 8.29 14.14 8.56 2.44.11 4.87.57 7.31.86z" fill="#010000"/></svg>