<svg enable-background="new 0 0 400 400" viewBox="0 0 400 400" xmlns="http://www.w3.org/2000/svg"><path d="m259.98 265.44c1.12-5.42 2.16-10.87 3.38-16.27 3.05-13.51 6.62-26.91 9.18-40.51 2.99-15.88 5.29-31.9 7.59-47.9 1.47-10.19.95-20.4-2.6-30.14-1.39-3.81-3.37-7.87-6.24-10.59-9.6-9.09-9.89-19.95-7.1-31.56 1.06-4.42 2.66-8.74 4.32-12.98 2.12-5.42 3.16-10.83 2.18-16.7-.66-3.91-2.82-6.07-6.15-7.65-5.61-2.66-11.56-3.36-17.65-3.21-22.14.56-44.27 1.27-66.41 1.7-6.25.12-12.51-.78-18.76-.7-3.62.05-7.35.73-10.81 1.83-6.69 2.12-13.41 2.07-20.23 1.37-1.31-.13-2.63-.18-4.96-.34 1.85 4.5 2.99 8.63 5.12 12.15 5.35 8.84 10.56 17.69 12.17 28.1.32 2.05-.22 4.22-.02 6.31.17 1.81.44 3.79 1.32 5.32 2.87 5 6.28 9.7 9.03 14.76 3.85 7.06 7.53 14.24 10.8 21.58 1.25 2.8 1.31 6.18 1.52 9.33.04.57-2.19 2.04-2.7 1.78-2-1.02-3.87-2.42-5.51-3.97-1.01-.96-1.45-2.49-2.27-3.68-4.73-6.89-9.45-13.79-14.27-20.62-1.27-1.8-2.85-3.39-3.63-4.32-4.01 3.44-7.98 6.52-11.49 10.06-1.09 1.1-1.65 3.65-1.21 5.18 1.14 3.9 2.85 7.66 4.56 11.37 3.55 7.7 7.39 15.28 10.79 23.05.86 1.97.51 4.47.73 6.85-3.7.29-5.62-1.1-7.78-3.24-6.47-6.44-9.13-14.83-12.78-22.76-.87-1.9-2.17-3.61-3.51-5.79-3.8 4.34-5.38 8.71-4.66 13.33 1.19 7.59 3.03 15.09 4.77 22.59.25 1.06 1.52 1.86 2.2 2.86 2.55 3.76 5.15 7.5 7.48 11.4.38.64-.18 2.63-.79 2.89-.95.41-2.68.33-3.44-.3-17.81-14.97-20.98-34.88-14.66-54.63 1.58-4.94 5.04-9.44 8.25-13.68 4.92-6.51 10.68-12.47 13.39-20.34 3.47-10.09.71-19.21-4.72-27.98-7.2-11.63-13.5-23.69-15.88-37.42-.68-3.9-2.01-7.71-2.48-11.62-.16-1.39 1.07-3.35 2.26-4.31.53-.43 2.96.6 3.78 1.58 1.82 2.21 3.33 4.72 4.67 7.27 1.64 3.11 3.86 4.37 7.5 4.99 9.45 1.63 18.11-2.15 27.14-2.87 8.61-.68 17.33.18 26 .28 8.46.1 16.93.13 25.39.14 1.45 0 2.9-.35 4.34-.34 15.97.07 31.98-.35 47.91.55 6.71.38 13.42 3.19 19.85 5.62 5.32 2.01 5.27 7.72 6.22 12.27 1.65 7.91.17 15.46-3.45 22.77-2.82 5.69-4.96 11.71-7.29 17.64-.31.79-.24 2 .16 2.75 2.44 4.65 4.56 9.57 7.66 13.75 4.58 6.17 7.79 13.03 9.3 20.26 1.54 7.35 1.39 15.1 1.52 22.68.09 4.88-.5 9.8-1.07 14.67-.44 3.75-1.31 7.46-2.02 11.18-.23 1.2-.73 2.38-.8 3.58-1.52 23.67-6.94 46.33-17.2 67.79-1.53 3.2-2.44 6.69-3.89 9.94-.59 1.33-1.86 2.36-2.81 3.53-.39-.2-.82-.41-1.24-.63z" fill="#010100"/><path d="m161.71 163.03c.99 2.8 2.11 4.95 2.46 7.22.53 3.35 1.57 6.24 4.36 8.34.71.53 1.36 1.18 1.91 1.88 6.37 8 12.75 15.99 19.05 24.04.95 1.21 1.64 2.66 2.26 4.09 2.06 4.79 3.62 9.85 6.14 14.38 4.99 8.96 2.75 17.71.37 26.67-1.51 5.69-2.82 11.46-3.7 17.27-.77 5.07 1.77 9.09 5.62 12.23 6.49 5.29 13.03 10.53 19.59 15.75 2.17 1.72 4 3.57 3.93 7.06-10.49-.55-17.22-8.87-26.8-12.86 0 2.18-.19 3.78.04 5.32.46 3.07 1.09 6.13 1.75 9.16.45 2.05.9 4.13 1.64 6.09 3.37 8.86 6.82 17.69 10.29 26.51.48 1.22 1.04 2.48 1.83 3.51 3.76 4.91 5.13 10.6 5.59 16.58.06.84-.58 1.73-.9 2.6-.86-.41-1.8-.71-2.55-1.27-.6-.45-1.19-1.15-1.39-1.86-1.64-5.72-5.54-9.93-9.03-14.54-2.62-3.47-4.03-7.9-5.7-12.03-1.92-4.76-3.02-9.92-5.39-14.42-4.13-7.85-4.18-16.37-5.13-24.76-.78-6.9-3.64-12.55-9.09-16.95-4.18-3.37-8.26-6.88-12.2-10.53-2.02-1.87-3.66-4.16-5.45-6.29-2.62-3.11-3.37-2.9-5.4.45-3.97 6.57-8.1 13.06-12.37 19.44-2.5 3.73-3.98 7.36-3.67 12.12.63 9.55 1.06 19.1.82 28.75-.31 12.77-3.29 24.71-6.62 36.77-1.77 6.43-2.3 13.26-6.65 18.76-.55.7-.95 1.62-1.65 2.08-1.54.99-3.14 1.22-3.19-1.32-.04-2.11.05-4.26.43-6.34 2.95-16.08 5.28-32.21 5.41-48.63.04-4.64 1.36-9.27 2.05-13.91.38-2.55.24-4.92-2.54-6.37-5.37 5.8-10.08 12.32-18.77 15.21.27-1.67.21-2.78.64-3.65 2.1-4.26 4.3-8.48 6.53-12.68 3.44-6.51 6.96-12.98 10.37-19.5.38-.72.54-1.74.39-2.54-1.79-9.19-3.65-18.38-5.53-27.55-.4-1.97-.85-3.95-1.54-5.83-3.47-9.41-1.67-18.15 2.8-26.78 9.66-18.65 22.28-35.06 36.96-49.97.34-.32.7-.58 2.03-1.7zm23.64 100.81c1.99-8.08 3.82-15.77 5.79-23.42 1.51-5.85.81-11.36-2.41-16.43-4.26-6.69-8.47-13.44-13.14-19.84-4.25-5.83-7.66-12.43-13.87-16.68-.73-.5-.86-1.8-1.51-2.52-.81-.9-2-2.34-2.79-2.2-1.3.23-2.67 1.34-3.52 2.45-1.2 1.56-1.81 3.56-2.93 5.19-4.95 7.19-10.02 14.29-14.96 21.49-1.06 1.54-1.79 3.32-2.65 5-4.1 8.06-5.09 16.33-2.69 25.21 2.02 7.47 3.24 15.16 4.82 22.76.4.08.8.17 1.19.25 9.46-11.17 15.24-24.55 21.17-37.86 3.39 1.66 4.33 4 4.61 7.03.31 3.39.43 7.1 1.95 9.99 2.15 4.11 5.2 7.87 8.42 11.25 3.38 3.55 7.19 6.85 12.52 8.33z" fill="#010100"/><g fill="#fcfafa"><path d="m342.2 3.2-6.3 9.2h6.1v1.2h-8.2v-.5l6.2-9.1h-5.7v-1.2h7.8v.4z"/><path d="m344 13.7v-10.9h3.1c1.6 0 3 .5 4.1 1.4 1.1 1 1.6 2.2 1.6 3.9s-.5 3-1.6 4-2.5 1.5-4.2 1.5h-3zm1.4-9.6v8.4h1.6c1.4 0 2.5-.4 3.2-1.1.8-.8 1.2-1.8 1.2-3.2s-.4-2.4-1.2-3.1-1.8-1-3.1-1z"/><path d="m356.3 2.8v10.9h-1.4v-10.9z"/><path d="m366.6 13.2c-.8.4-1.8.6-3 .6-1.6 0-2.8-.5-3.7-1.5s-1.4-2.3-1.4-3.9c0-1.7.5-3.2 1.6-4.2s2.4-1.6 4-1.6c1 0 1.9.1 2.6.4v1.5c-.8-.4-1.6-.6-2.6-.6-1.2 0-2.2.4-3 1.2s-1.1 1.9-1.1 3.3c0 1.3.4 2.3 1.1 3.1s1.6 1.1 2.8 1.1c1.1 0 2-.2 2.8-.7v1.3z"/><path d="m368.2 13c0-.3.1-.5.3-.6.2-.2.4-.3.6-.3.3 0 .5.1.7.3s.3.4.3.6-.1.5-.3.6c-.2.2-.4.3-.7.3s-.5-.1-.6-.3c-.2-.2-.3-.4-.3-.6z"/><path d="m381.1 13.7h-1.7l-5.5-8.4c-.2-.2-.3-.5-.4-.7 0 .2.1.8.1 1.5v7.6h-1.4v-10.9h1.8l5.3 8.3c.3.4.4.6.4.8 0-.3-.1-.8-.1-1.6v-7.5h1.4v10.9z"/><path d="m389.7 13.7h-5.8v-10.9h5.6v1.2h-4.2v3.5h3.9v1.2h-3.9v3.7h4.4z"/><path d="m398.4 4.1h-3.1v9.6h-1.4v-9.6h-3.1v-1.3h7.7v1.3z"/></g></svg>