<svg enable-background="new 0 0 400 400" viewBox="0 0 400 400" xmlns="http://www.w3.org/2000/svg"><path d="m172.39 374.31c1.26-5.45 2.69-10.87 3.74-16.36.9-4.71 1.52-9.49 1.96-14.26.73-7.88 1.45-15.78 1.68-23.68.08-2.92-1.3-5.86-1.88-8.82-2.8-14.12-8.3-27.29-14.09-40.37-2.26-5.11-3.69-10.39-2.05-15.95.64-2.15 1.76-4.21 2.98-6.12 1.74-2.73 3.7-5.32 5.69-7.88 2.52-3.25 5.19-6.38 7.74-9.61 2.48-3.13 5.16-6.16 7.19-9.57.75-1.26.46-3.77-.31-5.2-1.48-2.72-3.86-4.95-5.48-7.61-3.85-6.31-7.55-12.74-8.13-20.37-.32-4.3-.07-8.49 2.74-12.13.74-.95 1.23-2.14 1.64-3.29 4.06-11.45 8.35-22.84 12.01-34.42 2.59-8.17 2.09-16.4-1.07-24.6-2.16-5.6-3.29-11.6-4.91-17.41-.51-1.82-1.14-3.6-1.79-5.65 2.27-1.06 4.19-2.4 1.88-5.52-.58-.79.1-2.51.22-4.1-.62.79-1.06 1.41-1.55 1.99-1.9 2.27-3.29 2.16-4.79-.46-6.95-12.11-13.53-24.45-20.98-36.24-3.61-5.73-6.34-11.45-7.09-18.12-.12-1.1.11-2.24.19-3.37.58-.4 1.16-.8 1.74-1.2 1.49 2.08 2.91 4.21 4.47 6.22 2.4 3.08 4.76 6.22 7.39 9.1 10.16 11.08 18.57 23.4 25.88 36.49 2.7 4.84 6.14 9.58 7.41 14.82 1.55 6.37 4.11 12.36 5.68 18.62 1.08 4.33 2.44 8.12 4.97 11.8 6.2 9.06 11.09 18.81 13.93 29.49.17.64.37 1.3.69 1.88 4.78 8.77 6.39 18.09 6.16 28.09-.12 5.24-1.54 9.21-5.01 12.77-1.17 1.2-2.19 2.58-3.48 3.63-6.3 5.12-8.72 13.03-13.64 19.14-.74.91-.36 3.59.48 4.75 3.84 5.36 8.02 10.48 12.09 15.68.21.26.46.49.65.77 5.47 7.57 11.67 14.74 16.21 22.83 5.09 9.06 10.2 18.35 11.93 28.9.45 2.73.64 5.51.95 8.27-.33.21-.66.43-.98.64-.61-.66-1.65-1.26-1.78-2-1.37-7.95-6.11-14.36-10.1-20.94-3.68-6.07-8.61-11.44-13.37-16.79-5.81-6.52-12.02-12.69-18.05-19.02-1.23-1.3-2.44-2.62-3.64-3.95-4.34-4.82-4.46-4.96-9.19-.38-2.3 2.23-4.04 5.03-6.01 7.6-2.98 3.91-5.76 7.99-8.97 11.7-1.67 1.92-2.32 3.83-1.7 6.08 2.41 8.81 4.97 17.59 7.44 26.39.45 1.59 1.3 3.29 1.09 4.82-1.09 7.86 2.38 14.2 5.94 20.73 1.35 2.48 1.64 5.76 1.67 8.68.04 3.89-1.03 7.79-.97 11.68.2 12.65-5.97 23.3-10.4 34.51-.61 1.55-.88 3.26-1.62 4.74-.62 1.23-1.72 2.22-2.6 3.31-.29-.25-.55-.49-.8-.73zm16.34-204.11c.89 1.58.4 3.69-.98 6.24-3.61 6.68-5.62 13.6-.66 20.76 1.7 2.45 2.79 5.34 4.1 8.06 1.61 3.33 5.24 3.8 7.65.89.63-.77 1.01-1.74 1.57-2.57 3.83-5.69 7.7-11.34 11.51-17.05.98-1.46 2.45-3 2.54-4.57.29-5.37 1.21-11.11-.22-16.09-3.01-10.46-7.35-20.54-11.18-30.76-.25-.67-.84-1.22-1.15-1.66-3.03 9.61-5.96 19.19-9.13 28.69-.88 2.61-2.48 4.98-4.05 8.06zm-5.9 28.52c.44-2.92.44-2.92-5.56-4.06 1.85 1.35 3.69 2.69 5.56 4.06z" fill="#010102"/><g fill="#fcfbfa"><path d="m385.2 377.6.6-.7c.6.4 1.3.9 1.9 1.5l-.6.7c-.8-.5-1.4-1-1.9-1.5zm.3 7.1c.6-1.4 1.1-2.9 1.5-4.5.3.1.6.3.9.4-.5 1.4-1 2.9-1.5 4.4zm.2-10.1.6-.6c.7.5 1.3 1.1 1.9 1.6l-.7.7c-.6-.6-1.2-1.2-1.8-1.7zm8.4-.8h.8v.9h1.8v.7h-1.8v1.8h-.8v-.3h-1.2v.9h3.3v2.6h-.8v-.4h-2.5c0 .3 0 .6-.1.8h3.4v.7h-3.5c0 .3-.1.6-.1.8h4v.7h-3.5c.7.9 1.9 1.3 3.6 1.5-.2.2-.4.5-.6.9-1.9-.3-3.2-1.1-3.8-2.3-.5 1.1-1.8 2-3.9 2.4-.2-.3-.4-.5-.6-.8 1.9-.4 3.1-.9 3.6-1.7h-3.2v-.7h3.5c.1-.2.1-.5.2-.8h-3.3v-.7h3.4c0-.2 0-.5 0-.8h-2.4v.3h-.8v-2.6h3.3v-.9h-1.2v.3h-.8v-1.8h-1.8v-.7h1.8v-.9h.8v.9h3.2zm-4.4 5.5h2.4c0-.3 0-.6 0-.9h-2.4zm1.2-3.1h3.2v-.8h-3.2zm4.4 2.2h-2.4v.9h2.5v-.9z"/><path d="m389.2 385.8h.9v1.5h1.9v-1.5h.9v1.5h2.7v6h1.1v.9h-11.3v-.9h1.1v-6h2.7zm.2 8.7.5.8c-1.2.6-2.5 1.3-4 1.9-.2-.3-.3-.6-.6-.8 1.6-.6 3-1.3 4.1-1.9zm-2-4.3h1.9v-2.1h-1.9zm0 3.1h1.9v-2.2h-1.9zm2.7-3.1h1.9v-2.1h-1.9zm0 3.1h1.9v-2.2h-1.9zm2.4 1.3c1.4.6 2.7 1.2 4.1 1.8l-.5.9c-1.5-.7-2.8-1.4-4.1-1.9zm2.2-6.5h-1.9v2.1h1.9zm-1.9 5.2h1.9v-2.2h-1.9z"/></g></svg>