<svg enable-background="new 0 0 400 400" viewBox="0 0 400 400" xmlns="http://www.w3.org/2000/svg"><path d="m192.08 375.29c-.57-4.45-.51-7.32 1.87-10.19 4.49-5.41 5.34-12.41 7.28-18.92 1.24-4.15 3.06-8.13 4.12-12.32.96-3.76 1.31-7.68 1.81-11.54.4-3.1.59-6.24.92-9.35.25-2.33-.18-5.16.98-6.9 5.31-7.98 2.48-16.42 2.02-24.73-.51-9.13-.88-18.27-1.74-27.37-.88-9.24-2.22-18.43-3.49-27.62-.34-2.44-3.84-3.35-5.67-1.7-6.88 6.19-13.78 12.35-20.68 18.51-.41.36-.9.68-1.41.88-7.46 2.87-13.34 8.08-19.32 13.12-4.28 3.62-9.23 5.28-15.66 5.17.57-1.4.68-2.92 1.46-3.43 12.9-8.44 21.94-20.66 31.68-32.18 6.55-7.75 14.08-14.34 21.96-20.64 1.17-.94 1.61-2.87 2.23-4.41.68-1.7.85-3.7 1.82-5.18 1.99-3.05 3.04-6.15 2.45-9.81-.32-1.98-.28-4.03-.61-6.01-1.15-6.86-.8-13.53 3-20.33-3.89 0-7.06-.19-10.21.03-10.03.7-20.05 1.54-30.07 2.37-3.23.27-8.37-3.65-10.02-8.12-1.9-5.11-3.57-10.31-5.22-15.51-.36-1.13-.07-2.44-.24-3.64-.2-1.41-.11-3.31-.97-4.08-2.57-2.32-2.46-5.12-2.15-8 1.2-11.28-1.36-22.27-2.33-33.38-.28-3.16.24-6.39.39-9.58.06-1.29.13-2.59.1-3.88-.05-2.6-.47-5.24-.16-7.8.36-3.09 1.23-6.14 2.08-9.14.22-.76 1.1-1.63 1.86-1.85.58-.17 1.72.38 2.14.95 2.83 3.89 5.55 7.86 8.26 11.83.35.52.64 1.27.57 1.86-.92 7.36 2.69 13.67 4.55 20.41 1.24 4.48 1.91 9.12 2.8 13.7.23 1.2.22 2.46.51 3.65.91 3.73 3.01 4.71 6.2 2.76 16.89-10.31 33.74-20.69 50.63-31.01 1.98-1.21 2.53-2.76 1.71-4.81-.91-2.27-1.98-4.47-2.9-6.73-.49-1.21-1.08-2.48-1.16-3.75-.34-5.65-.62-11.31-.68-16.97-.04-3.18.14-6.4.68-9.52.68-3.96 1.61-7.9 2.9-11.7.43-1.28 2.67-3.16 3.4-2.9 1.84.68 5.05 1.06 3.78 4.58-1.54 4.27 0 8.04 1.1 12.2 1.75 6.63 2.27 13.62 2.93 20.49.24 2.52-2.44 2.27-4.02 2.27-2.41 0-3.62 1.03-3.76 3.25-.05.81.4 1.9 1 2.46 1.12 1.04 2.51 1.79 3.84 2.69 1.1-.88 2.05-1.64 3.63-2.91 1.18 2.42 2.73 4.52 3.2 6.84.71 3.46 1.88 6.46 3.94 9.4 4.69 6.68 4.82 14.36 4.02 22.16-.26 2.53-.4 5.13-.12 7.64.74 6.66 1.1 13.52-1.97 19.44-2.76 5.33-6.89 10.09-11.08 14.46-1.54 1.61-5 1.38-7.59 1.98-1.73.4-3.58.53-5.16 1.26-2.99 1.38-4.9 3.47-4.77 7.27.18 5.36-.24 10.74-.35 16.11-.02 1.1-.06 2.32.37 3.28 2.29 5.07 2.37 10.37 2.07 15.77-.1 1.87.15 3.8.53 5.63.94 4.5.9 8.98.94 13.58.06 6.63 1.58 13.26 2.68 19.85.84 5.05 1.68 9.95 1.03 15.23-.51 4.16.97 8.55 1.42 12.85.5 4.78.64 9.6 1.28 14.36.44 3.23.01 5.97-2.33 8.32-1.95 1.96-1.51 4.13-1.32 6.74.43 5.71 0 11.52-.45 17.25-.24 3.09-1.22 6.13-1.89 9.19-.14.65-.18 1.55-.61 1.88-5.31 4.04-3.27 10.34-4.59 15.52-3.03 11.91-8.51 22.31-16.68 31.33-2.35 2.57-5.36 4.55-8.76 7.39zm41.31-258.83c.17-.03.34-.05.5-.08-.78-5.06-1.29-10.18-2.42-15.16-.86-3.83-3.14-4.49-6.8-3.1-9.79 3.71-18.64 9.12-27.15 15.08-4.47 3.13-9.12 3.59-14.31 2.89-3.04-.41-6.2.02-9.29.2-.68.04-1.76.46-1.94.97-2.44 6.69-5.69 13.36-3.97 20.7.57 2.43 2.48 5.81 4.46 6.38 4.63 1.33 9.71 1.85 14.54 1.58 12.2-.67 23.44-5.07 34.63-9.7 8.61-3.57 13.06-9.22 11.76-18.76-.05-.32-.01-.66-.01-1z" fill="#010102"/><g fill="#fcfbfa"><path d="m385.2 377.6.6-.7c.6.4 1.3.9 1.9 1.5l-.6.7c-.8-.5-1.4-1-1.9-1.5zm.3 7.1c.6-1.4 1.1-2.9 1.5-4.5.3.1.6.3.9.4-.5 1.4-1 2.9-1.5 4.4zm.2-10.1.6-.6c.7.5 1.3 1.1 1.9 1.6l-.7.7c-.6-.6-1.2-1.2-1.8-1.7zm8.4-.8h.8v.9h1.8v.7h-1.8v1.8h-.8v-.3h-1.2v.9h3.3v2.6h-.8v-.4h-2.5c0 .3 0 .6-.1.8h3.4v.7h-3.5c0 .3-.1.6-.1.8h4v.7h-3.5c.7.9 1.9 1.3 3.6 1.5-.2.2-.4.5-.6.9-1.9-.3-3.2-1.1-3.8-2.3-.5 1.1-1.8 2-3.9 2.4-.2-.3-.4-.5-.6-.8 1.9-.4 3.1-.9 3.6-1.7h-3.2v-.7h3.5c.1-.2.1-.5.2-.8h-3.3v-.7h3.4c0-.2 0-.5 0-.8h-2.4v.3h-.8v-2.6h3.3v-.9h-1.2v.3h-.8v-1.8h-1.8v-.7h1.8v-.9h.8v.9h3.2zm-4.4 5.5h2.4c0-.3 0-.6 0-.9h-2.4zm1.2-3.1h3.2v-.8h-3.2zm4.4 2.2h-2.4v.9h2.5v-.9z"/><path d="m389.2 385.8h.9v1.5h1.9v-1.5h.9v1.5h2.7v6h1.1v.9h-11.3v-.9h1.1v-6h2.7zm.2 8.7.5.8c-1.2.6-2.5 1.3-4 1.9-.2-.3-.3-.6-.6-.8 1.6-.6 3-1.3 4.1-1.9zm-2-4.3h1.9v-2.1h-1.9zm0 3.1h1.9v-2.2h-1.9zm2.7-3.1h1.9v-2.1h-1.9zm0 3.1h1.9v-2.2h-1.9zm2.4 1.3c1.4.6 2.7 1.2 4.1 1.8l-.5.9c-1.5-.7-2.8-1.4-4.1-1.9zm2.2-6.5h-1.9v2.1h1.9zm-1.9 5.2h1.9v-2.2h-1.9z"/></g></svg>