<svg enable-background="new 0 0 400 400" viewBox="0 0 400 400" xmlns="http://www.w3.org/2000/svg"><path d="m374.8 390.4.4-.4c.7.5 1.3 1 1.8 1.4l-.5.5c-.5-.6-1.1-1.1-1.7-1.5zm1 7.3-.6-.3c.5-1.4 1.1-2.8 1.5-4.3.2.1.4.2.6.3-.5 1.3-1 2.8-1.5 4.3zm-.4-10.3.4-.4c.4.3 1 .8 1.7 1.4l-.5.5c-.4-.5-1-1-1.6-1.5zm2.5.3h1.7v-1h.6v1h3.5v-1h.6v1h1.8v.5h-1.8v1.4h-2v1h3.2v2h-3.2v.9h3.3v.5h-3.4c0 .3-.1.6-.1.9h4v.5h-3.7c.7.9 1.9 1.5 3.8 1.7-.1.2-.2.4-.3.6-2.1-.4-3.5-1.1-4-2.1-.4 1-1.8 1.7-4 2.2-.1-.2-.2-.4-.3-.6 2.1-.4 3.4-1 3.8-1.8h-3.4v-.5h3.6c.1-.3.1-.6.2-.9h-3.3v-.5h3.4c0-.3 0-.6 0-.9h-3.2v-2h3.3v-1h-2.1v-1.4h-1.7v-.5zm1.1 3.5v1h2.7c0-.3 0-.4 0-.4 0-.1 0-.2 0-.2 0-.1 0-.2 0-.3h-2.7zm1.2-3v.9h3.5v-.9zm4.7 3h-2.6v.6.4h2.6z" fill="#fbfcfa"/><path d="m393.6 386.7h.6v1.5h2.7v6.1h1.1v.6h-11v-.6h1.1v-6.1h2.7v-1.5h.6v1.5h2.1v-1.5zm-2.7 8.8.4.6c-1.2.6-2.5 1.3-3.8 1.9-.1-.2-.2-.4-.3-.6 1.2-.6 2.5-1.2 3.7-1.9zm-2.2-6.7v2.4h2.1v-2.4zm0 3v2.5h2.1v-2.5zm2.8-3v2.4h2.1v-2.4zm0 3v2.5h2.1v-2.5zm6 6.1c-1.4-.7-2.7-1.3-3.9-1.8l.3-.6c1.5.6 2.7 1.2 3.9 1.7zm-1.2-9.1h-2.1v2.4h2.1zm-2.1 3v2.5h2.1v-2.5z" fill="#fbfcfa"/><g fill="#010101"><path d="m181.86 273.23c-12.88 2.25-24.65-1.78-36.7-3.16-4.44-.51-8.91-1-13.27-1.94-5.73-1.24-8.93-4.06-11.88-9.71 3.68-2.06 7.45-1.37 11.29-.65 10.75 2.01 21.46 4.27 32.29 5.78 9.71 1.35 18.73-2.23 27.63-5.59.67-.25 1.26-1.47 1.37-2.3 1.15-8.88 2.78-17.74 3.11-26.66.3-8.12-.79-16.3-1.43-24.45-.06-.8-1.22-2.04-2-2.16-4.58-.69-9.26-1.8-13.81-1.46-8.67.64-13.18-1.11-17.2-8.32 4.8-2.5 9.79-2.14 14.9-1.45 3.19.43 6.46.63 9.66.41 5.62-.39 8.86-3.17 9.99-8.73 1.68-8.24 1-16.53-.73-24.66-.67-3.16-3.67-2.34-5.88-1.79-3.78.94-7.43 2.64-11.25 3.17-9.84 1.35-19.69.77-29.28-1.82-5.65-1.53-10.46-4.45-12.06-11.35 5.48.67 10.55 1.48 15.64 1.84 2.21.16 4.48-.61 6.73-.92 3.17-.44 6.34-1 9.52-1.25 8.69-.68 17.39-1.29 26.09-1.79 2.79-.16 4.39-1.59 5.03-4.06.63-2.47 1.27-5.03 1.27-7.55 0-5.03-.61-10.06-.63-15.08-.01-3.36-1.27-5.66-4.05-7.43-9.05-5.75-18.15-11.44-27.04-17.44-5.35-3.61-10.46-7.62-15.47-11.71-6.2-5.06-8.02-11.86-5.91-19.34 2.76-9.76 5.72-19.51 9.32-28.99 2.84-7.47 13.09-9.39 18.79-3.8 13.72 13.48 30.76 22.26 46.25 33.22 7.2 5.09 14.26 10.41 21.1 15.97 4.44 3.61 7.35 8.38 7.52 14.54-3.15.32-5.96.73-8.62-2.03-3.25-3.37-7.81-2.79-10.82.8-4.6 5.49-9.21 10.98-13.66 16.59-.65.83-.89 2.48-.56 3.51 2.49 7.74 9.06 11.54 15.42 15.5 1.93 1.2 3.43.55 4.86-1.21 4.13-5.07 8.9-9.29 14.97-12.09 5.52-2.55 5.78-3.79 3.94-9.73-1.36-4.39-.96-5.51 3.18-7.88 4.06 5.19 8.53 10.22 12.13 15.81 1.63 2.53 1.93 6.15 2.09 9.31.23 4.52.74 8.65 4.59 11.71.86.68 1.37 2.01 1.67 3.14 4.29 16.37 4.6 32.94 2.35 49.62-.12.88-.35 1.78-.29 2.66 1.38 19.5-2.7 38.23-7.93 56.8-4.06 14.42-8.37 28.77-11.89 43.32-1.27 5.25-4.49 6.18-8.87 7.07-.77-8.16-1.51-16.15-2.3-24.14-1.18-11.91-2.06-23.87-3.78-35.71-.69-4.72-3.09-9.25-5.05-13.72-1.2-2.75-2.08-5.35-1.25-8.34 2.21-7.99-.09-15.75-1.36-23.53-1.91-11.69-3.51-23.47-6.22-34.99-1.64-6.98-4.78-13.69-7.92-20.2-2.38-4.95-6.49-8.48-13.14-9.44-.98 6.95-2.48 13.75-2.77 20.59-.41 9.94.59 19.94.03 29.86-.77 13.73-2.27 27.42-3.84 41.09-.37 3.23-2.07 6.37-3.52 9.38-1.4 2.91-1.35 5.59.25 8.25 2.81 4.68 2.73 9.42 1.04 14.5-6.24 18.76-12.15 37.63-18.49 56.35-4.79 14.16-3.95 28.04 1.56 41.63 2.41 5.95 6.2 11.32 9 17.12 1.21 2.52 1.83 5.44 2.14 8.24.32 2.88-1.69 4.02-4.33 3.48-4.55-.94-8.8-2.67-11.85-6.39-6.57-8.02-9.88-17.45-11.44-27.55-1.98-12.78-1.8-25.45 3.09-37.66 1.02-2.56 2.48-5 4.07-7.26 3.67-5.22 4.16-11.22 4.59-17.26.13-1.87.02-3.77.02-6.57zm4.28-187.63c2.62-9.81 5.54-19.19 5.19-29.14-.05-1.33-.92-2.93-1.92-3.87-3.63-3.42-7.58-6.5-11.2-9.92-2.8-2.66-5.85-4.33-9.87-4.25-3.01 7.57-4.67 15.23-4.04 23.29.6 7.63 4.55 13.6 9.35 19.2 3.3 3.87 8.18 2.84 12.49 4.69zm86.09 64.26c-.38-2.88-.64-5.78-1.15-8.64-1.24-6.87-3.41-13.21-9.82-17.18-1.46-.9-2.45-.89-3.84.16-4.18 3.18-8.35 6.42-12.8 9.2-3.2 2-4.45 4.74-3.33 7.9 2.37 6.69 5.22 13.22 8.09 19.72.36.81 2.1 1.63 3.03 1.46 4.9-.91 9.89-1.69 14.54-3.37 3.89-1.4 6.54-4.43 5.28-9.25zm-68.8-86.32c-2.52 6.81-5.3 13.63-7.49 20.63-.9 2.88-.87 6.19-.6 9.25.43 4.97 11.69 10.03 15.87 7.31.7-.46 1.14-1.33 1.69-2.02 2.71-3.38 5.15-7.04 8.22-10.07 2.18-2.15 2.77-4.3 2.56-7.12-.56-7.6-8.86-17.52-20.25-17.98zm48.87 108.79c.25 4.13.12 8.17.8 12.08 1.32 7.57 2.98 15.08 4.72 22.57.74 3.19 3.55 3.99 6.34 3.62 2.81-.37 4.49-2.37 4.78-5.27 1.02-10.24 2.03-20.48 2.98-30.73.28-3-2.37-5.65-5.35-5.15-4.61.77-9.18 1.84-14.27 2.88zm8.39 50.6c-3.38 6.34-2.69 13.48 1.47 16.86 4.24-7.21 3.65-14.58-1.47-16.86z"/><path d="m116.76 164.45c-7.96-8.13-5.99-25.61-1.71-40.69 4.08.85 6.5 3.64 7.49 7.35 2.59 9.71 2.18 19.55-.29 29.18-.44 1.74-3.58 2.79-5.49 4.16z"/></g></svg>