<svg enable-background="new 0 0 400 400" viewBox="0 0 400 400" xmlns="http://www.w3.org/2000/svg"><g fill="#fbfafa"><path d="m37.59 393.81c-.92.31-1.52.05-2-.78-.7-1.2-1.52-2.34-2.47-3.78v4.59c-.55.03-.95.05-1.41.07-.03-.37-.06-.64-.06-.91 0-1.91 0-3.81 0-5.7 1.13-.41 1.77-.03 2.29.91.62 1.11 1.38 2.14 2.31 3.19v-4.2h1.35v6.61z"/><path d="m12.94 393.88v-6.75c1.9.19 3.93-.54 5.37 1.29.8 1.01.78 2.88.03 3.97-1.37 1.97-3.4 1.51-5.4 1.49m1.45-1.22c2.04.12 2.92-.58 2.89-2.21-.03-1.51-.98-2.19-2.89-2z"/><path d="m11.81 393.87h-5.49c.68-2.18 2.47-3.48 3.51-5.45h-3.08v-1.21h5.29c-.71 2.13-2.44 3.48-3.47 5.51.86 0 1.63.04 2.39-.01.79-.05 1.14.21.85 1.16"/><path d="m39.33 393.86v-6.61h3.7v1.07h-2.22v1.52c.68.04 1.34.09 2.07.13v1.07c-.72.05-1.38.09-2.1.14v1.48h2.4v1.19h-3.85z"/><path d="m27.71 388.56c-1.15-.3-2.46-.61-3.1.64-.37.73-.41 1.93-.06 2.67.63 1.35 1.99.93 3.17.68.35.94-.01 1.32-.93 1.46-1.62.25-3.05-.27-3.76-1.48-.73-1.24-.6-3.03.31-4.17.88-1.11 2.71-1.7 4-1.16.32.13.44.74.65 1.12-.1.08-.19.16-.28.24"/><path d="m49.15 387.24v1.07c-.59.02-1.17.05-1.87.08v5.44h-1.48v-5.44h-1.85c-.05-.4-.08-.73-.13-1.15z"/><path d="m20.06 387.21h1.33v6.62h-1.33z"/><path d="m30.68 393.25c-.49.38-.8.79-1.05.76-.32-.05-.6-.45-.9-.7.26-.24.51-.64.8-.67.29-.04.62.3 1.15.61"/></g><path d="m184.7 73.38c2.66-5.77 2.8-5.85 8.5-2.79 7.6 4.09 13.3 10.36 17.96 17.34 8.05 12.08 15.5 24.58 23.2 36.9.47.75.8 1.7 1.46 2.22 6.6 5.15 10.26 12.36 13.44 19.74 5.37 12.46 14.25 22.42 22.68 32.68 4.79 5.84 8.24 12.16 10.05 19.44.57 2.28 1.28 4.52 2.03 6.74 1.8 5.29 4.46 9.91 9.48 12.94 15.77 9.53 25.9 24.44 36.52 38.82 7.77 10.52 15.07 21.4 22.88 31.9 2.85 3.83 6.81 6.82 9.84 10.54 3.34 4.1 6.2 8.6 9.25 12.89-2.7 2.65-5.01 2.63-7 1.02-6.58-5.34-13.47-10.4-19.34-16.45-4.9-5.05-9.29-10.55-15.21-14.52-12.39-8.3-22.51-18.89-31.83-30.49-12.97-16.14-26.89-31.52-39.63-47.83-8.3-10.63-15.19-22.36-22.78-33.55-7.49-11.04-14.22-22.44-18.86-35.04-2.29-6.23-6.49-11.14-12.53-14.36-2.69-1.44-4.58-1.42-5.72 1.72-.8 2.19-1.88 4.33-2.35 6.59-.93 4.43-3.01 7.86-7.16 9.9-.8.39-1.46 1.07-2.27 1.43-3.7 1.65-5.4 4.56-6.1 8.49-.37 2.11-1.4 4.24-2.63 6.02-8.01 11.6-16.1 23.15-24.32 34.61-2.04 2.84-3.42 5.73-3.38 9.22.03 2.24-.86 3.79-2.98 4.72-4.17 1.85-7.2 5.06-10.34 8.32-11.94 12.38-21.29 26.77-31.82 40.25-10.52 13.45-22.43 25.59-35.85 36.17-1.93 1.52-4.56 2.29-6.98 3.03-1.98.61-2.75 1.64-3.21 3.63-.41 1.79-1.33 3.88-2.71 4.95-7.89 6.1-13.99 13.75-19.89 21.65-4.34 5.8-9.87 9.14-15.14 9.67-.6-3.87-.04-6.99 2.81-10.33 6.82-7.97 13.31-16.29 19.2-24.97 3.49-5.14 7.26-9.42 12.79-12.29 1.54-.8 2.64-2.76 3.56-4.39 1.84-3.27 2.99-7 5.17-10 19.85-27.5 40-54.78 61.83-80.76 3.04-3.62 3.25-7.95 4.69-11.99.63-1.75 1.29-3.59 2.37-5.06 7.24-9.82 14.73-19.45 21.85-29.36 2.22-3.09 3.63-6.8 5.2-10.32.77-1.72 1.25-3.61 1.53-5.48.96-6.31 3.81-11.27 9.49-14.5 1.1-.62 1.91-1.86 2.68-2.94 2.47-3.46 4.69-7.11 7.3-10.46 4.12-5.29 6.52-10.9 4.76-17.74-.3-1.16.1-2.49-.14-3.67-.29-1.41-.93-2.76-1.41-4.13-.32-.04-.63-.08-.94-.12z" fill="#010000"/></svg>