<svg enable-background="new 0 0 400 400" viewBox="0 0 400 400" xmlns="http://www.w3.org/2000/svg"><path d="m291.3 178.42c-1.09-1.05-2.21-2.47-3.63-3.41-4.62-3.05-9.97-5.18-12.51-10.71-.24-.51-1.25-.71-1.94-.97-2.32-.87-4.92-1.3-6.95-2.63-12.27-8.02-24.41-16.22-36.57-24.4-1.38-.93-2.7-2-3.91-3.15-9.96-9.5-19.76-19.17-29.91-28.46-2.52-2.31-6.05-3.58-9.25-5.03-1.46-.66-2.83-.09-3.84 1.63-4.25 7.3-9.41 13.88-15.96 19.31-1.09.91-1.95 2.17-2.72 3.39-7.61 12.05-17.39 22.11-28.41 31.04-1.56 1.27-3.05 2.64-4.5 4.04-.62.6-1.51 1.41-1.49 2.1.11 3.82-2.63 5.74-5.01 7.88-6 5.38-12.06 10.69-18.06 16.07-.99.89-1.77 2.02-2.72 2.96-3.35 3.3-4.34 7.01-2.59 11.54.62 1.6.54 3.5.6 5.28.56 16.73-5.24 32.07-10.58 47.47-4.43 12.77-9.25 25.4-13.92 38.08-.3.83-.66 1.74-1.26 2.33-4.05 3.94-5.56 9-6.66 14.33-.32 1.58-1.12 3.16-2.04 4.52-3.2 4.73-6.64 9.29-9.79 14.04-2.63 3.95-5.65 7.21-9.82 9.78-2.34 1.45-3.75 4.83-4.94 7.61-1.39 3.27-3.28 5.78-6.85 7.39-.18-.79-.7-1.69-.44-2.12 5.33-8.71 6.43-18.73 8.76-28.35 3.6-14.88 7.1-29.78 10.68-44.67 1.38-5.76 2.92-11.48 4.25-17.25.66-2.88 1.4-5.59 3.9-7.52.59-.46 1.09-1.57 1-2.29-.92-7.05 2.37-13.05 4.67-19.3.83-2.27 1.69-4.53 2.54-6.8-.2-.31-.39-.62-.59-.93-3.22 1.52-6.73 2.63-9.62 4.62-10.27 7.09-21 13.22-32.87 17.19-1.77.59-3.67.8-6.6 1.41.96-1.97 1.32-3.3 2.13-4.26 11.68-13.87 23.28-27.81 35.23-41.45 3.28-3.74 7.75-6.4 11.5-9.75 4.32-3.87 8.43-7.97 12.64-11.96.88-.83 1.8-2.29 2.71-2.3 3.77-.03 4.28-2.77 5.33-5.38.49-1.22 1.54-2.56 2.69-3.12 3.5-1.68 5.97-4.18 7.59-7.66 3.14-6.76 7.71-12.18 14.48-15.64 1.08-.55 2.15-1.78 2.51-2.92 1.23-3.81 3.67-6.52 6.75-8.9 15.01-11.58 26.51-26.6 39.31-40.33.97-1.04 1.2-2.81 1.65-4.27.66-2.13.74-4.58 1.88-6.38 4-6.3 5.92-13.2 7-20.46 1.08-7.24 4.09-13.62 9.1-19.47 1.31 1.49 2.64 2.71 3.59 4.18 1.32 2.06 2.81 4.19 3.42 6.5 4.19 15.71 13.98 27.39 26.2 37.49 3.87 3.2 7.48 6.77 10.93 10.43 18.78 19.93 41.95 34.06 64.54 48.96 25.49 16.82 51.01 33.6 76.5 50.42 1.23.81 2.74 1.25 2.25 3.51-.49 2.28-1.98 3.15-3.73 3.06-2.84-.15-5.89-.35-8.42-1.49-5.5-2.48-10.88-4.76-17.04-5.47-5.23-.61-10.44-2.31-15.39-4.21-6.39-2.45-13.12-4.14-18.6-8.84-3.22-2.76-7.63-3.5-12.96-3.12 2.14 4.04 3.7 7.87 6 11.18 6.51 9.37 11.21 19.26 11.41 30.98.05 2.64.93 5.55 2.28 7.84 6.53 11.1 12.79 22.3 15.98 34.92.21.85.61 1.72 1.16 2.39 6.92 8.67 10.29 18.95 13.69 29.29 1.37 4.17 3.65 8.2 6.23 11.78 7.38 10.27 11.35 21.63 12.39 34.15.26 3.11.91 6.21 1.65 9.24.73 2.99-.71 4.92-3.01 5.99-2.34 1.1-3.72-.68-5.06-2.56-5-7.01-9.84-14.18-15.36-20.77-8.68-10.37-15.46-21.9-22.17-33.53-.17-.29-.42-.56-.49-.87-3.05-12.63-10.91-23.12-15.54-35.1-7.34-18.99-12.01-38.55-15.53-58.53-1.51-8.55-.6-16.94-.43-25.4.03-1.21 1.38-2.35 2.56-4.19z" fill="#010100"/><g fill="#fcfafa"><path d="m342.2 3.2-6.3 9.2h6.1v1.2h-8.2v-.5l6.2-9.1h-5.7v-1.2h7.8v.4z"/><path d="m344 13.7v-10.9h3.1c1.6 0 3 .5 4.1 1.4 1.1 1 1.6 2.2 1.6 3.9s-.5 3-1.6 4-2.5 1.5-4.2 1.5h-3zm1.4-9.6v8.4h1.6c1.4 0 2.5-.4 3.2-1.1.8-.8 1.2-1.8 1.2-3.2s-.4-2.4-1.2-3.1-1.8-1-3.1-1z"/><path d="m356.3 2.8v10.9h-1.4v-10.9z"/><path d="m366.6 13.2c-.8.4-1.8.6-3 .6-1.6 0-2.8-.5-3.7-1.5s-1.4-2.3-1.4-3.9c0-1.7.5-3.2 1.6-4.2s2.4-1.6 4-1.6c1 0 1.9.1 2.6.4v1.5c-.8-.4-1.6-.6-2.6-.6-1.2 0-2.2.4-3 1.2s-1.1 1.9-1.1 3.3c0 1.3.4 2.3 1.1 3.1s1.6 1.1 2.8 1.1c1.1 0 2-.2 2.8-.7v1.3z"/><path d="m368.2 13c0-.3.1-.5.3-.6.2-.2.4-.3.6-.3.3 0 .5.1.7.3s.3.4.3.6-.1.5-.3.6c-.2.2-.4.3-.7.3s-.5-.1-.6-.3c-.2-.2-.3-.4-.3-.6z"/><path d="m381.1 13.7h-1.7l-5.5-8.4c-.2-.2-.3-.5-.4-.7 0 .2.1.8.1 1.5v7.6h-1.4v-10.9h1.8l5.3 8.3c.3.4.4.6.4.8 0-.3-.1-.8-.1-1.6v-7.5h1.4v10.9z"/><path d="m389.7 13.7h-5.8v-10.9h5.6v1.2h-4.2v3.5h3.9v1.2h-3.9v3.7h4.4z"/><path d="m398.4 4.1h-3.1v9.6h-1.4v-9.6h-3.1v-1.3h7.7v1.3z"/></g></svg>