<svg enable-background="new 0 0 400 400" viewBox="0 0 400 400" xmlns="http://www.w3.org/2000/svg"><g fill="#fbfafa"><path d="m37.59 393.81c-.92.31-1.52.05-2-.78-.7-1.2-1.52-2.34-2.47-3.78v4.59c-.55.03-.95.05-1.41.07-.03-.37-.06-.64-.06-.91 0-1.91 0-3.81 0-5.7 1.13-.41 1.77-.03 2.29.91.62 1.11 1.38 2.14 2.31 3.19v-4.2h1.35v6.61z"/><path d="m12.94 393.88v-6.75c1.9.19 3.93-.54 5.37 1.29.8 1.01.78 2.88.03 3.97-1.37 1.97-3.4 1.51-5.4 1.49m1.45-1.22c2.04.12 2.92-.58 2.89-2.21-.03-1.51-.98-2.19-2.89-2z"/><path d="m11.81 393.87h-5.49c.68-2.18 2.47-3.48 3.51-5.45h-3.08v-1.21h5.29c-.71 2.13-2.44 3.48-3.47 5.51.86 0 1.63.04 2.39-.01.79-.05 1.14.21.85 1.16"/><path d="m39.33 393.86v-6.61h3.7v1.07h-2.22v1.52c.68.04 1.34.09 2.07.13v1.07c-.72.05-1.38.09-2.1.14v1.48h2.4v1.19h-3.85z"/><path d="m27.71 388.56c-1.15-.3-2.46-.61-3.1.64-.37.73-.41 1.93-.06 2.67.63 1.35 1.99.93 3.17.68.35.94-.01 1.32-.93 1.46-1.62.25-3.05-.27-3.76-1.48-.73-1.24-.6-3.03.31-4.17.88-1.11 2.71-1.7 4-1.16.32.13.44.74.65 1.12-.1.08-.19.16-.28.24"/><path d="m49.15 387.24v1.07c-.59.02-1.17.05-1.87.08v5.44h-1.48v-5.44h-1.85c-.05-.4-.08-.73-.13-1.15z"/><path d="m20.06 387.21h1.33v6.62h-1.33z"/><path d="m30.68 393.25c-.49.38-.8.79-1.05.76-.32-.05-.6-.45-.9-.7.26-.24.51-.64.8-.67.29-.04.62.3 1.15.61"/></g><path d="m371.18 91.98c-8.63 3.19-16.8 3.68-25.05 2.01-9.96-2.03-19.88-4.31-29.81-6.48-1.09-.24-2.19-.55-3.29-.59-2.76-.11-4.58.85-5.25 3.92-1.8 8.23-.55 16.3 1.25 24.27 1.94 8.57 2.66 17.15 2.67 25.93.03 30.78.35 61.56.64 92.34.02 2.43-.36 4.27-2.61 5.65-.76.46-1.28 2-1.21 3 .4 5.13 1.07 10.23 1.57 15.35.38 3.95-.65 7.52-3.06 10.7-3.13 4.12-5.11 8.43-2.24 13.59.33.59.16 1.52.06 2.26-.64 4.47-1.38 8.93-2 13.4-.8 5.74-1.24 11.55-2.41 17.22-.46 2.22-2.56 4.07-3.76 6.18-1.13 1.99-2.21 4.03-3.05 6.15-1.23 3.11-2.07 6.37-3.37 9.45-1.37 3.24-3.89 5.37-7.32 6.42-2.93.89-5.72 1.55-7.09-1.61-2.88 3.83-5.39 8.13-8.81 11.5-5.41 5.34-12.46 7.65-19.91 8.82-5.16.81-10.25 2.18-15.44 2.72-5.85.6-11.77.73-17.66.75-14.86.05-29.72.02-44.58-.21-4.18-.07-8.47-.53-12.5-1.59-4.51-1.18-8.9-1.67-13.54-1.35-11.54.79-23.07.77-34.11-3.45-7.06-2.7-14.16-5.34-20.99-8.55-6.57-3.09-11.32-7.93-11.68-15.85-.06-1.31-.33-2.76-.97-3.87-6.06-10.44-5.78-21.57-3.84-32.93.66-3.86 1.08-7.76 1.75-11.61.51-2.95.16-5.61-1.08-8.4-1.39-3.14-2.22-6.54-3.07-9.88-.73-2.9-.68-5.6 1.97-7.93.83-.73 1-3.37.34-4.42-3.16-5.03-3.75-10.39-2.08-15.81 3.54-11.45 1.12-22.6-1.07-33.8-.66-3.4-1.53-6.7.95-9.88.48-.61.11-2.37-.45-3.22-2.45-3.7-3.08-7.67-3.02-12.06.19-13.99.06-27.99.08-41.98 0-1.22-.24-2.71.35-3.61 2.47-3.8 1.92-7.93 1.81-12.04-.47-16.56-.74-33.12-1.59-49.66-.19-3.7-2.43-7.32-3.84-10.93-.17-.44-1.07-.9-1.6-.87-8.93.56-16.65-3.92-24.97-5.88-.65-.15-1.28-.41-1.92-.6-9.51-2.95-9.51-2.95-12.34-12.73 9.44-6.06 19.85-6.56 30.6-5.68 13.81 1.12 27.65 1.83 41.46 3.01 2.13.18 4.22 1.79 6.14 3.03 2.83 1.83 5.46 2.72 8.64.63.85-.56 2.7-.31 3.73.24 7.98 4.29 16.41 6.84 25.45 7.82 4.84.52 6.64 4.65 5.96 10.92-3.5 1.19-6.75 2.95-10.15 3.3-6.16.63-12.41.61-18.62.52-5.12-.08-10.22-.71-15.34-1-.97-.05-1.97.32-2.95.56-3.18.76-4.72 2.27-4.63 6.06.44 19.13.53 38.27.72 57.41.01 1.21.24 2.74-.38 3.59-2.44 3.4-1.66 6.67-.24 10.09.31.75.5 1.93.13 2.51-4.13 6.4-.97 12.95-.73 19.5.35 9.35 4.4 15.92 12.62 20.17 1.67.86 3.03 2.31 4.63 3.32 6.25 3.95 11.19 9.1 15.23 15.31 1.35 2.08 3.92 3.38 5.95 5 .34.27.8.42 1.22.54 7.52 2.12 12.61 6.51 14.28 14.5.24 1.13 2.01 1.99 3.15 2.88.41.32 1.04.42 1.58.51 7.64 1.17 13.64 4.86 18.35 11.07 1.45 1.91 4 3.29 6.33 4.15 5.32 1.97 8.27 6.35 11.41 10.49 1.98 2.62 4.27 3.64 7.24 2.52 3.42-1.29 7.06-2.41 10.02-4.45 6.83-4.73 14.29-7.8 22.23-9.89.64-.17 1.39-.41 1.96-.23 4.92 1.54 9.03-.33 12.72-3.24 6.05-4.77 13.48-4.13 20.38-5.62 1.69-.36 3.45-.95 4.88-1.88 7.59-4.95 15.06-10.08 22.61-15.09 3.05-2.03 4.39-4.94 3.64-8.36-1.28-5.82-.47-11.49.04-17.3.48-5.51-.35-11.14-.63-16.72-.08-1.56-.18-3.13-.41-4.68-1.07-7.01-1.45-13.87 4.57-19.68-4.54-1.92-4.54-5.26-4.68-8.92-.54-13.86-1.39-27.71-2.16-41.57-.29-5.14-.65-10.27-.99-15.41-.3-4.59-2.21-5.79-5.98-3.38-3.66 2.34-7.39 3.13-11.47 1.77-7.61-2.53-15.28-4.92-22.72-7.9-2.95-1.18-5.34-3.77-8.22-5.89 2.93-3.07 5.23-5.65 7.75-8 .56-.52 1.92-.41 2.85-.25 2.48.41 4.94 1.49 7.4 1.46 24.07-.3 47.73 3.02 71.2 7.88 6.09 1.26 11.96 3.63 17.9 5.59.86.29 1.88.98 2.25 1.75 3.76 7.93 10.7 12.07 18.25 15.5 1.1.43 2.22.92 3.97 1.7zm-123.14 233.92c2.14.62 3.18.91 4.21 1.21.1-.67.52-1.74.26-1.94-1.12-.88-2.42-1.54-3.7-2.2-.19-.1-.61.22-.9.38-2.94 1.58-5.53.96-8.03-1.1-3.71-3.06-7.59-5.92-11.24-9.05-1.38-1.18-2.61-2.74-3.4-4.37-2.55-5.31-4.87-10.74-7.3-16.16-1.23.13-2.26.07-3.19.36-3.22 1.02-5.1-.17-6.63-3.09-.78-1.48-2.49-3.1-4.03-3.41-3.67-.75-6.65-2.34-9.3-4.9-1.85-1.78-3.87-3.39-5.9-4.97-.63-.49-1.67-1.05-2.29-.85-3.45 1.12-6.83 2.46-10.46 3.81 1.19 1.46 2.1 2.57 3.21 3.92-6.29 4.5-12.44 8.93-18.64 13.3-5.11 3.61-10.37 6.99-14.03 12.31-.58.85-2.47 1.19-3.71 1.11-2.37-.14-4.72-.74-7.25-1.18-.18 2.03-.05 3.67-.54 5.09-.33.96-1.54 2.26-2.39 2.28-5.5.12-10.13 2.11-14.29 5.61-2.05 1.72-4.36 3.12-6.56 4.66-3.47 2.43-3.67 3.29-1.81 7.17 2.49 5.22 7.36 6.59 12.39 7.41 3.94.64 8.72-.51 11.79 1.34 6.1 3.68 13.2 1.85 19.21 4.87.56.28 1.52-.16 2.28-.35 2.05-.54 4.07-1.45 6.14-1.59 1.88-.13 4.19 0 5.63 1 1.97 1.36 3.08 1.3 4.45-.46.39-.5.97-1.09 1.54-1.2 8.01-1.49 15.91-1.7 22.65 3.84 4.74 3.89 8.41 3.77 12.05-1.06 1.84-2.45 4.1-3.87 7.19-3 2.44.68 5.13 1.23 7.12 2.66 4.08 2.95 7.41 2.75 11.56-.11 4.84-3.34 10.28-4.36 15.6-.4.56.42 1.49.77 2.12.62 3.82-.91 7.6-1.97 11.87-3.11-2.05-1.86-3.61-3.27-5.29-4.79.44-.87.87-1.72 1.27-2.51-3.49-3.94-8.3-6.26-11.66-11.15zm-69.73-67.18c-.39-4.4-1.29-5.15-4.73-3.61-4.29 1.92-8.04 1.85-11.7-1.48-2.7-2.45-6.75-3.93-8.44-6.85-2.73-4.74-6.33-7.85-11-10.24-1.52-.78-2.69-2.25-4.05-3.37-2.22-1.84-4.2-4.23-6.74-5.38-5.04-2.28-8.68-5.74-11.18-10.53-1.08-2.06-2.67-3.28-4.97-3.33-3.83-.08-6.41-2.27-8.79-4.89-1.5-1.66-2.79-3.6-4.55-4.91-2.08-1.55-4.57-2.55-7.31-4.02-3.99 20.54-4.89 40.05-2.96 59.82.87 8.94 1.17 18.29-.52 27.01-1.7 8.77.14 16.52 2.18 24.59.59 2.32 2.22 2.96 4.03 1.92 2.86-1.64 5.5-3.68 8.19-5.6 2.23-1.59 4.21-4.17 6.66-4.7 5.72-1.24 10.49-3.66 14.22-8.07 7.02-8.31 15.88-13 26.68-14.28 1.36-.16 2.97-1.21 3.8-2.34 2.98-4.03 6.65-6.65 11.66-7.69 3.87-.8 4.36-2.11 3.3-5.98-1.43-5.22-1.01-5.8 4.3-5.95.54-.01 1.09-.06 1.92-.12zm89.04 73.92c6.33-2.92 11.05-7.02 13.03-13.52 1.88-6.18 4.2-12.01 8.99-16.6.59-.57.83-1.8.78-2.7-.36-6.48-.7-12.97-1.32-19.42-.82-8.5-1.16-16.91 1.81-25.15 1.06-2.93 1.67-6.03 2.39-9.07.9-3.78-3.88-8.64-7.59-7.92-6.53 1.27-11.95 4.79-17.58 8.03-3.92 2.26-8.1 4.29-12.42 5.54-4.03 1.17-8.38 1.39-12.61 1.64-7.89.47-14.83 2.96-20.49 8.63-2.53 2.54-5.24 4.91-7.6 7.59-.74.84-1.12 2.58-.82 3.69 1.78 6.62 6.1 11.03 12.48 13.45 1.73.66 3.47 1.3 5.37 2-1.01 2.54-1.91 4.79-2.87 7.19 1.84.73 3.5 1.35 5.14 2.05 4.47 1.89 9.23 2.93 12.85 6.81 5.67 6.08 11 12.77 19.64 15.14.62.17 1.22 1.73 1.22 2.64.02 3.21-.23 6.42-.4 9.98zm-170.79-282.24c1.9-.59 3.57-1.1 6.47-1.99-2.63-2.47-4.59-4.31-6.55-6.15-.28.23-.56.46-.83.69.27 2.31.56 4.62.91 7.45zm-12.71 221.89c.32.24.65.47.97.71.9-1.13 2.37-2.17 2.57-3.41.4-2.54-1.32-3.95-4-4.61.16 2.56.31 4.93.46 7.31zm-28.51-220.2c-3 2.02-3.79 4.21-1.23 7.13 1.14-1.01 2.28-2.02 3.58-3.17-.8-1.35-1.53-2.58-2.35-3.96zm28.57 123.21c-.23 2.38-.37 3.8-.52 5.34h4.49c-1.32-1.78-2.36-3.17-3.97-5.34z" fill="#010000"/></svg>