<svg enable-background="new 0 0 400 400" viewBox="0 0 400 400" xmlns="http://www.w3.org/2000/svg"><g fill="#fbfafa"><path d="m37.59 393.81c-.92.31-1.52.05-2-.78-.7-1.2-1.52-2.34-2.47-3.78v4.59c-.55.03-.95.05-1.41.07-.03-.37-.06-.64-.06-.91 0-1.91 0-3.81 0-5.7 1.13-.41 1.77-.03 2.29.91.62 1.11 1.38 2.14 2.31 3.19v-4.2h1.35v6.61z"/><path d="m12.94 393.88v-6.75c1.9.19 3.93-.54 5.37 1.29.8 1.01.78 2.88.03 3.97-1.37 1.97-3.4 1.51-5.4 1.49m1.45-1.22c2.04.12 2.92-.58 2.89-2.21-.03-1.51-.98-2.19-2.89-2z"/><path d="m11.81 393.87h-5.49c.68-2.18 2.47-3.48 3.51-5.45h-3.08v-1.21h5.29c-.71 2.13-2.44 3.48-3.47 5.51.86 0 1.63.04 2.39-.01.79-.05 1.14.21.85 1.16"/><path d="m39.33 393.86v-6.61h3.7v1.07h-2.22v1.52c.68.04 1.34.09 2.07.13v1.07c-.72.05-1.38.09-2.1.14v1.48h2.4v1.19h-3.85z"/><path d="m27.71 388.56c-1.15-.3-2.46-.61-3.1.64-.37.73-.41 1.93-.06 2.67.63 1.35 1.99.93 3.17.68.35.94-.01 1.32-.93 1.46-1.62.25-3.05-.27-3.76-1.48-.73-1.24-.6-3.03.31-4.17.88-1.11 2.71-1.7 4-1.16.32.13.44.74.65 1.12-.1.08-.19.16-.28.24"/><path d="m49.15 387.24v1.07c-.59.02-1.17.05-1.87.08v5.44h-1.48v-5.44h-1.85c-.05-.4-.08-.73-.13-1.15z"/><path d="m20.06 387.21h1.33v6.62h-1.33z"/><path d="m30.68 393.25c-.49.38-.8.79-1.05.76-.32-.05-.6-.45-.9-.7.26-.24.51-.64.8-.67.29-.04.62.3 1.15.61"/></g><path d="m131.23 80.6c1.78 1.06 3.81 1.85 5.28 3.23 8.3 7.8 16.46 15.75 24.7 23.62.71.68 1.63 1.14 2.87 1.99 1.86-5.68 4.63-11.05 5.08-16.6.31-3.82-1.93-8.34-4.2-11.77-6.62-9.99-9.48-21.17-11.33-32.68-.98-6.15-1.15-12.43-1.5-18.67-.06-1.09.84-2.23 1.3-3.34 1.3.59 2.94.87 3.83 1.84 4.15 4.54 7.89 9.46 12.15 13.89 5.49 5.72 11.21 11.23 17.06 16.58 3.73 3.42 6.23 3.3 10.48.37 8.37-5.78 16.82-11.47 25.08-17.41 3.61-2.59 6.82-5.72 10.24-8.57 1.11-.92 2.3-1.75 3.47-2.59 2.18-1.56 4.37-3.09 6.86-4.85 5.2 2.95 5.58 3.19 3.37 9.4-3.19 8.93-7.04 17.62-10.42 26.49-3.65 9.6-7.1 19.28-10.59 28.94-.22.6-.25 1.34-.14 1.98.74 4.41 1.45 8.83 2.35 13.2.58 2.85 2.6 3.8 5.26 2.66.91-.39 1.77-.96 2.55-1.57 9.54-7.42 19.08-14.85 26.61-24.46.34-.43.75-.8 1.65-1.76-.22 4.77.92 8.92-3.16 12.33-5.99 5.02-11.68 10.4-17.38 15.76-3.16 2.98-6.18 6.13-9.07 9.37-1.97 2.2-1.82 4.72-.83 7.53 2.29 6.45 2.64 12.99-.28 19.45-.34.74-.74 1.83-.44 2.42 2.07 4.15 1.17 8.23-.64 11.96-4.28 8.82-8.72 17.57-13.48 26.13-2.76 4.97-6.15 9.61-9.51 14.22-2.69 3.69-4.73 7.59-5.07 12.17-.19 2.62-1.74 3.53-3.96 3.58-1.77.03-3.56-.25-5.32-.51-2.94-.45-4.88-1.71-5.81-5-.89-3.11-2.64-6.12-4.58-8.77-7.12-9.75-14.76-19.15-19.54-30.39-2.9-6.83-4.94-13.81-4.61-21.42.35-7.93.12-15.89.31-23.83.05-2.22-.7-3.66-2.33-5.16-10.99-10.14-18.96-22.52-25.97-35.57-.52-.96-.74-2.08-1.1-3.12.25-.35.5-.71.76-1.07zm31.22-33.34c-.4-.05-.8-.11-1.2-.16-.04 1.69-.47 3.47-.06 5.04 3.18 12.49 7.16 24.67 14.5 35.47 5.06 7.46 4.44 18.48-1.22 25.03-1.21 1.4-2.97 2.97-3.04 4.53-.09 1.8 1.24 3.78 2.28 5.48.73 1.2 1.95 2.12 3.04 3.07 3.61 3.18 7.22 6.36 10.91 9.44.89.74 2.09 1.54 3.16 1.57 4.01.09 7.99-.02 11.4-2.84 2.92-2.42 6.12-4.51 9.2-6.73 5.39-3.89 7.72-8.49 5.73-15.53-1.72-6.05-2.76-12.56-2.54-18.82.33-9.71 5.26-18.03 10.12-26.29 2.85-4.85 4.93-10.18 7.01-15.44.59-1.49-.08-3.47-.2-5.82-4.37 2.18-7.92 3.79-11.29 5.72-1.4.81-2.42 2.3-4.04 3.92-2.8-.46-5.47.97-7.91 3.96-1.8 2.21-4.48 3.73-6.85 5.44-.88.64-2.16.77-2.98 1.46-3.69 3.08-7.3 2.65-11.02.09-2.12-1.46-4.4-2.68-6.44-4.23-6.25-4.72-12.39-9.56-18.56-14.36zm5.75 96.98c.2 2.25.24 4.16.55 6.03 3.1 18.53 12.86 33.56 25.07 47.24.53.6 2.53.63 3.29.11.98-.67 1.51-2.11 2.06-3.29 1.83-3.92 3.2-8.11 5.45-11.77 7.57-12.29 14.85-24.67 17.61-39.08.51-2.67.89-5.56.41-8.18-.58-3.18-3.11-3.74-5.71-1.74-4.78 3.68-9.62 7.3-14.26 11.15-2.27 1.88-4.68 2.58-7.42 2.04-2.28-.45-4.77-.79-6.66-1.97-4.71-2.94-9.08-6.43-13.71-9.51-1.18-.78-2.87-1.32-4.2-1.13-.7.1-1.42 1.97-1.64 3.14-.46 2.39-.6 4.85-.84 6.96z" fill="#010000"/><path d="m246.13 335.48c-5.87-3.99-10.99-7.47-16.56-11.25-2.01 6.92-1.38 12.92-1.32 18.91.04 4.34-.47 8.68-.46 13.02 0 1.36.6 2.95 1.44 4.04 3.42 4.43 3.67 9.75.13 14.9-1.08-1.36-2.13-2.58-3.07-3.88-4.07-5.64-8.25-11.14-14.3-14.9-3.95-2.45-7.76-5.13-11.65-7.67-2.87-1.87-5.25-1.4-7.72 1.17-4.5 4.67-8.94 9.42-13.69 13.82-3.99 3.7-8.6 6.4-14.82 5.79 3.3-8.9 6.49-17.57 9.76-26.22.24-.64.97-1.39 1.61-1.54 3.85-.93 3.63-3.25 3.14-6.54-.58-3.93-.06-8.03.01-12.06.08-4.62-2.66-6.5-6.56-3.92-3.67 2.43-6.94 5.51-10.14 8.57-3.34 3.2-6.83 5.93-11.39 6.94-.3-.26-.59-.53-.89-.79 1.34-1.68 2.46-3.62 4.07-4.99 5.6-4.78 11.52-9.21 17.05-14.07 6.89-6.07 9.82-13.77 9.18-23.05-.49-7.21-1.27-14.56 1.35-21.6.64-1.73 1.53-3.54 2.79-4.85 3.87-4 6.31-8.83 9-13.62 2.38-4.23 5.49-8.18 8.88-11.67 5.36-5.51 8.87-11.62 8.88-19.46 0-.64.31-1.28.74-2.92 1.76 2.12 3.66 3.52 4.35 5.37 5.49 14.74 10.81 29.54 16.07 44.36 2.34 6.59.7 12.9-1.36 19.3-1.55 4.82-2.66 9.89-3.13 14.92-.2 2.2 1.24 4.92 2.7 6.83 3.47 4.52 7.43 8.65 11.11 13.01 3.14 3.72 4.87 7.98 4.8 14.05zm-64.76 15.52c.59.39 1.17.78 1.76 1.17 3.77-3.19 7.57-6.34 11.3-9.58 1.72-1.49 3.63-4.24 5.67-1.45 4.46 6.1 11.25 8.99 16.96 13.34.86.65 2.39.43 3.86.64 0-1.78.03-3 0-4.21-.26-10.06-.82-20.12-.68-30.16.08-5.38-2.28-8.88-6.21-11.84-4.41-3.32-8.84-6.61-13.43-10.04-6.21 2.76-10.13 7.59-9.44 15.45.16 1.86-.44 3.77-.49 5.67-.06 2.43-.39 4.55-2.58 6.18-.64.47-.58 2.12-.56 3.22.09 6.33-.49 12.43-4.62 17.69-.85 1.05-1.05 2.6-1.54 3.92zm29.2-113.03c-1.39 2.59-2.63 4.15-3.1 5.92-1.8 6.73-5.9 12.2-9.46 17.98-1.76 2.85-3.68 5.61-5.29 8.54-3.11 5.68-3.55 11.92-3.01 18.18.3 3.44 2.66 4.64 6 3.74 3.23-.86 6.42-1.96 9.69-2.62.96-.19 2.48.44 3.15 1.21 1.39 1.57 2.1 3.8 3.62 5.19 1.46 1.33 3.52 2.26 5.45 2.64.5.1 1.85-2.45 2.27-3.93 1.15-4.08 1.94-8.25 3-12.35 1.75-6.72 1.14-13.23-1.24-19.71-2.27-6.16-4.13-12.47-6.52-18.58-.82-2.11-2.72-3.78-4.56-6.21z" fill="#010000"/></svg>