<svg enable-background="new 0 0 400 400" viewBox="0 0 400 400" xmlns="http://www.w3.org/2000/svg"><path d="m119.01 113.01c4.24 6.09 6.38 12.89 8.33 19.78 1.92 6.77 3.89 13.53 5.98 20.25.45 1.44 1.22 2.97 2.3 3.96 1.49 1.37 3.24 1.59 5.06-.07 1.37-1.25 3.09-2.32 4.84-2.88 4.79-1.54 8.53-4.52 12.56-7.39 5.11-3.64 10.9-6.96 16.89-8.57 9.47-2.54 17.56-6.41 23.95-14.08 2.25-2.7 5.94-4.25 9.09-6.14 8.68-5.21 11.71-10.65 9.31-20.4-4.2-17.01-2.13-34.29-3.21-51.42-.1-1.56.07-3.16-.19-4.69-1.09-6.23-.96-6.61 4.73-10.36 5.76 5.57 7.84 12.45 7.36 20.31-.07 1.09-.3 2.33.09 3.28 2.6 6.28 1.88 12.98 2.7 19.48.67 5.28 1.68 10.57 3.11 15.69 1.47 5.25 6.09 6.24 10.04 2.38 2.96-2.89 5.66-6.05 8.47-9.09 6.31-6.82 12.62-13.63 18.9-20.48.89-.97 1.98-2.05 2.27-3.25 1.74-7.23 6.42-12.68 10.76-18.35 3.47-4.53 6.85-9.13 10.39-13.61.67-.85 1.87-1.27 3.39-1.41-4.36 6.57-4.12 14.07-5.78 21.07-.27 1.13-.87 2.65-1.76 3.07-3.2 1.51-4 4.38-4.59 7.32-1.4 7.01-4.99 12.5-9.84 17.79-5.24 5.71-9.2 12.61-13.71 18.99-.58.82-.97 2.12-1.74 2.41-8.24 3.07-9.77 12.28-15.98 17.24-6.98 5.57-8.58 13.14-8.07 21.85.82 13.83-.24 27.84 1.49 41.52 2.08 16.48-3.89 31.7-4.92 47.6-.6 9.24-5.75 16.8-8.82 25.13-2.3 6.26-3.95 12.78-5.62 19.25-3.29 12.74-17.28 24.87-30.14 25.66-1.36.08-3.19-.77-4.14-1.8-2.63-2.84-5.32-5.72-5.96-9.89-.13-.82-1.62-1.47-2.53-2.14-1.81-1.34-4.08-2.3-5.4-4.01-13.89-17.9-22.88-38.24-29.78-59.68-4.21-13.07-9.2-25.86-12.05-39.39-1.48-7.05-5.2-13.64-6.55-20.69-1.86-9.73-2.46-19.71-3.55-29.59-.39-3.56-.4-7.17-.98-10.69-.45-2.7.6-3.7 3.3-3.96zm94.58 21.5c-5.19 3.12-10.02 5.53-14.26 8.73-4.17 3.14-9.13 4.66-13.29 8.21-5.43 4.64-12.04 8.37-19.43 10.15-7.92 1.91-15.68 4.48-23.57 6.52-2.7.7-3.91 2.14-3.45 4.68.78 4.37 1.51 8.8 2.88 13.01 1.73 5.29 4.11 10.37 6.15 15.56 2.52 6.42 4.79 12.95 7.54 19.27 2.18 5.01 4.92 9.78 7.41 14.65 6.68 13.07 13.8 25.84 23.53 36.97 2.94 3.36 5.22 3.1 7.14-.95 6.87-14.49 11.88-29.65 15.77-45.17 2.44-9.74 5.12-19.47 3.29-29.74-.4-2.24.16-4.68.47-7 .48-3.65 1.47-7.27 1.64-10.93.49-10.94.7-21.9.97-32.85.04-1.56 0-3.18-.4-4.67-.55-2.08-1.48-4.05-2.39-6.44z" fill="#010102"/><path d="m287.2 132.96c4.37 1.59 6.44 4.62 7.24 8.11 2.56 11.2 6.58 22.08 6.98 33.76.14 4.1.91 8.26 2.01 12.23 2.43 8.8.18 17.69 1.07 26.56 1.64 16.24 2.32 32.56 6.19 48.53 2.44 10.05.18 20-1.49 29.94-1.38 8.21-4.67 15.38-9.42 22.27-6.06 8.79-12.51 17.05-20.48 24.25-4.61 4.17-8.22 9.43-12.34 14.15-1.17 1.34-2.39 2.71-3.82 3.74-10.59 7.62-21.91 14.06-34.46 17.63-4.2 1.2-9.19-.31-13.81-.66-2.23-.17-4.44-.81-6.65-.78-11.53.15-21.46-4.88-31.97-8.66-10.22-3.67-19.65-8.59-28.94-13.81-22.28-12.54-41.92-28.22-55.87-50.13-1.02-1.6-1.95-3.3-3.2-4.72-5.55-6.31-6.35-13.75-5.73-21.73.34-4.42-.14-8.9-.06-13.36.13-7.47.07-14.97.69-22.41.81-9.68 2.08-19.32 3.4-28.94.66-4.8.91-4.77 6.26-5.69.75 1.14 1.57 2.32 2.33 3.55 1.36 2.22 2.42 4.25.51 6.98-1.29 1.84-1.61 4.29-.01 6.62.68.99.84 2.52.82 3.8-.12 6.83.95 14.04-.91 20.38-2.54 8.65 2.34 15.72 2.67 23.66.37 8.67 2.25 17.29 3.66 25.9.24 1.48 1.16 3.06 2.21 4.17 3.45 3.64 7.39 6.85 10.6 10.68 3.94 4.7 8.45 8.52 13.57 11.84 14.26 9.24 28.19 19.07 43.98 25.65 5.44 2.27 11.2 3.81 16.82 5.63 6.68 2.17 13.43 4.13 20.06 6.46 5.69 2 11.24 2.72 16.9.02 2.11-1 4.31-1.91 6.56-2.53 9.98-2.77 18.26-8.43 25.43-15.59 4.57-4.56 8.22-10.03 12.46-14.93 6.07-7 12.25-13.91 18.5-20.76 3.05-3.34 4.62-6.88 3.79-11.54-3.18-17.96-2.41-36.13-2.79-54.24-.15-7.04-.93-14.06-1.07-21.1-.07-3.66.62-7.34.98-11 .07-.67.34-1.34.27-1.99-1.18-10.61-1.76-21.33-3.77-31.79-2.58-13.46.23-26.51.83-40.15z" fill="#010102"/><g fill="#fcfbfa"><path d="m385.2 377.6.6-.7c.6.4 1.3.9 1.9 1.5l-.6.7c-.8-.5-1.4-1-1.9-1.5zm.3 7.1c.6-1.4 1.1-2.9 1.5-4.5.3.1.6.3.9.4-.5 1.4-1 2.9-1.5 4.4zm.2-10.1.6-.6c.7.5 1.3 1.1 1.9 1.6l-.7.7c-.6-.6-1.2-1.2-1.8-1.7zm8.4-.8h.8v.9h1.8v.7h-1.8v1.8h-.8v-.3h-1.2v.9h3.3v2.6h-.8v-.4h-2.5c0 .3 0 .6-.1.8h3.4v.7h-3.5c0 .3-.1.6-.1.8h4v.7h-3.5c.7.9 1.9 1.3 3.6 1.5-.2.2-.4.5-.6.9-1.9-.3-3.2-1.1-3.8-2.3-.5 1.1-1.8 2-3.9 2.4-.2-.3-.4-.5-.6-.8 1.9-.4 3.1-.9 3.6-1.7h-3.2v-.7h3.5c.1-.2.1-.5.2-.8h-3.3v-.7h3.4c0-.2 0-.5 0-.8h-2.4v.3h-.8v-2.6h3.3v-.9h-1.2v.3h-.8v-1.8h-1.8v-.7h1.8v-.9h.8v.9h3.2zm-4.4 5.5h2.4c0-.3 0-.6 0-.9h-2.4zm1.2-3.1h3.2v-.8h-3.2zm4.4 2.2h-2.4v.9h2.5v-.9z"/><path d="m389.2 385.8h.9v1.5h1.9v-1.5h.9v1.5h2.7v6h1.1v.9h-11.3v-.9h1.1v-6h2.7zm.2 8.7.5.8c-1.2.6-2.5 1.3-4 1.9-.2-.3-.3-.6-.6-.8 1.6-.6 3-1.3 4.1-1.9zm-2-4.3h1.9v-2.1h-1.9zm0 3.1h1.9v-2.2h-1.9zm2.7-3.1h1.9v-2.1h-1.9zm0 3.1h1.9v-2.2h-1.9zm2.4 1.3c1.4.6 2.7 1.2 4.1 1.8l-.5.9c-1.5-.7-2.8-1.4-4.1-1.9zm2.2-6.5h-1.9v2.1h1.9zm-1.9 5.2h1.9v-2.2h-1.9z"/></g></svg>