<svg enable-background="new 0 0 400 400" viewBox="0 0 400 400" xmlns="http://www.w3.org/2000/svg"><path d="m374.8 390.4.4-.4c.7.5 1.3 1 1.8 1.4l-.5.5c-.5-.6-1.1-1.1-1.7-1.5zm1 7.3-.6-.3c.5-1.4 1.1-2.8 1.5-4.3.2.1.4.2.6.3-.5 1.3-1 2.8-1.5 4.3zm-.4-10.3.4-.4c.4.3 1 .8 1.7 1.4l-.5.5c-.4-.5-1-1-1.6-1.5zm2.5.3h1.7v-1h.6v1h3.5v-1h.6v1h1.8v.5h-1.8v1.4h-2v1h3.2v2h-3.2v.9h3.3v.5h-3.4c0 .3-.1.6-.1.9h4v.5h-3.7c.7.9 1.9 1.5 3.8 1.7-.1.2-.2.4-.3.6-2.1-.4-3.5-1.1-4-2.1-.4 1-1.8 1.7-4 2.2-.1-.2-.2-.4-.3-.6 2.1-.4 3.4-1 3.8-1.8h-3.4v-.5h3.6c.1-.3.1-.6.2-.9h-3.3v-.5h3.4c0-.3 0-.6 0-.9h-3.2v-2h3.3v-1h-2.1v-1.4h-1.7v-.5zm1.1 3.5v1h2.7c0-.3 0-.4 0-.4 0-.1 0-.2 0-.2 0-.1 0-.2 0-.3h-2.7zm1.2-3v.9h3.5v-.9zm4.7 3h-2.6v.6.4h2.6z" fill="#fbfcfa"/><path d="m393.6 386.7h.6v1.5h2.7v6.1h1.1v.6h-11v-.6h1.1v-6.1h2.7v-1.5h.6v1.5h2.1v-1.5zm-2.7 8.8.4.6c-1.2.6-2.5 1.3-3.8 1.9-.1-.2-.2-.4-.3-.6 1.2-.6 2.5-1.2 3.7-1.9zm-2.2-6.7v2.4h2.1v-2.4zm0 3v2.5h2.1v-2.5zm2.8-3v2.4h2.1v-2.4zm0 3v2.5h2.1v-2.5zm6 6.1c-1.4-.7-2.7-1.3-3.9-1.8l.3-.6c1.5.6 2.7 1.2 3.9 1.7zm-1.2-9.1h-2.1v2.4h2.1zm-2.1 3v2.5h2.1v-2.5z" fill="#fbfcfa"/><g fill="#010101"><path d="m175.93 373.53c6.26-9.99 12.6-19.94 18.73-30.01 1.47-2.41 2.2-5.25 3.35-7.86.8-1.82 1.6-3.67 2.62-5.37 2.01-3.36 4.22-6.6 6.24-9.95.68-1.12 1.44-2.42 1.47-3.66.12-4.37 1.91-8.03 4.5-11.32 4.76-6.04 5.55-13.55 7.82-20.51.35-1.06.39-2.36 1.05-3.16 5.59-6.73 5.36-15.19 7.01-23.09.55-2.62.69-5.35 1.4-7.92 2.59-9.32-.18-18.41-.86-27.6-.27-3.63.18-7.31.02-10.95-.07-1.61-.7-3.24-1.3-4.76-1.25-3.19-2.9-6.24-3.94-9.49-1.27-3.94-2.77-7.5-7.11-9.28-.18.82-.39 1.45-.44 2.09-.39 5.21-2.65 9.42-6.03 13.41-1.92 2.27-2.55 5.62-3.83 8.45-.44.98-.97 2.62-1.62 2.69-3.65.45-3.9 3.25-4.34 5.83-1.66 9.62-7.61 17.31-11.51 25.91-2.44 5.38-4.87 10.78-7.71 15.95-1.26 2.29-3.53 4.02-5.34 6.01-.5-.23-1.01-.45-1.51-.68.28-2.05.34-4.16.92-6.12.5-1.68 1.54-3.21 2.42-4.77 1.67-2.97 1.97-6.19 2.56-9.49.97-5.43 3.08-10.74 5.37-15.8.91-2 3.6-3.2 5.5-4.75 1.03-.84 2.09-1.64 3.23-2.53-2.93-3.57-3.42-7.03-.1-10.45.15-.15.3-.4.29-.59-.19-7.41 6.09-11.34 9.07-17.04.77-1.47.95-3.23 1.4-4.86.35-1.25.47-2.62 1.08-3.73 2.43-4.4 5.12-8.66 7.48-13.1.66-1.24 1.08-3.13.62-4.35-6.61-17.55-6.79-35.9-7.11-54.25-.03-1.54-.94-3.06-1.44-4.58-.69-2.09-1.99-4.18-1.98-6.26.07-13.4-.05-26.84.83-40.2.78-11.92 2.62-23.8 7.09-35.04.79-1.97 2.28-3.66 3.42-5.46 5.06 2.84 7.86 11.42 5.2 15.48-.8 1.21-2.73 1.68-4.26 2.57.77 1.03 1.59 2.08 2.37 3.15 2.44 3.39 3.5 7.04 1.67 11.03-3.93 8.59-3.38 17.64-2.77 26.67.18 2.61-.62 4.15-3 5.28-1.02.49-2.04 1.8-2.24 2.89-.12.63 1.28 1.77 2.21 2.32 1.64.96 3.34 1.53 3.38 3.99.3 18.47 5.4 36.21 8.28 54.3.7 4.38.34 8.91.68 13.36.14 1.82.71 3.65 1.33 5.39 1.16 3.25 2.79 6.36 3.7 9.67 1.28 4.66 2.57 9.53-2.86 13.26 1.26.66 1.97 1.09 2.72 1.42 3.41 1.46 5.34 3.86 6.34 7.59 1.42 5.27 3.72 10.29 5.45 15.48 2.85 8.57 2.62 17.4 1.91 26.25-.43 5.35-.8 10.71-1.14 16.07-.2 3.21-.12 6.31-2.63 9.05-1.15 1.25-1.23 3.75-1.28 5.7-.09 3.37-.97 6.24-3.03 8.99-1.55 2.07-3 4.59-3.39 7.08-1.06 6.77-3.98 12.44-8.49 17.47-1.8 2.01-4.04 3.95-2.82 7.31.2.55-.86 1.66-1.48 2.39-2.89 3.41-6.75 6.34-8.57 10.23-6.74 14.39-19.23 24.87-26.03 39.16-1.94 4.08-6.2 4.39-9.63 6.02-.3-.32-.62-.63-.94-.93z"/><path d="m150.65 81.16c.43-13.92 1.47-25.71 4.79-37.16.7-2.42 2.4-4.66 4.03-6.66 1.69-2.06 4.2-1.4 4.95 1.21.35 1.21.25 2.67-.06 3.92-1.19 4.82-1.21 9.51 1.02 14.05 1.12 2.28 1.08 4.47-.23 6.67-1 1.67-1.13 3.33.31 4.9.37.4.79.96.8 1.45.08 6.76.14 13.52.1 20.29-.02 3.21-.44 6.43-.31 9.63.11 2.64-.79 3.89-3.42 3.55-3.86-.5-6.99-1.51-8.62-5.97-2.14-5.88-3.94-11.63-3.36-15.88z"/><path d="m153.32 239.14c-1.69-7.24-3.42-14.48-5.02-21.74-.21-.94.3-2.03.47-3.06 1.07.29 2.14.58 3.48.95.93-1.29 2.09-2.9 3.25-4.5-.4-.36-.6-.69-.89-.8-5.99-2.11-5.88-6.36-4.95-11.72 1.11-6.44.57-13.17 1.78-19.57.84-4.46 3.02-8.83 5.4-12.76 1.54-2.56 4.24-2.01 5.39.87.97 2.41 1.51 5.15 1.54 7.76.14 10.54 1 21.12-1.1 31.6-1.18 5.89-2.18 11.82-3.28 17.73-.69 3.73-1.29 7.49-2.21 11.16-.39 1.55-1.5 2.91-2.28 4.36-.52-.09-1.05-.18-1.58-.28z"/><path d="m223.18 213.45c-1.96-.14-3.92-.28-5.87-.42.17-1.08.01-2.39.59-3.16.66-.9 2.67-2.03 2.88-1.83 1.26 1.24 2.17 2.83 3.19 4.3-.27.38-.53.74-.79 1.11z"/></g></svg>