<svg enable-background="new 0 0 400 400" viewBox="0 0 400 400" xmlns="http://www.w3.org/2000/svg"><path d="m269.61 24.68c7.13 4.17 8.49 8.28 6.02 14.81-2.54 6.72-4.65 13.61-7.35 20.26-1 2.47-2.93 4.69-4.83 6.63-1.99 2.02-3.11 4.04-3.3 6.97-.12 1.89-1.51 3.73-2.46 5.53-2 3.82-4.46 7.45-6.05 11.42-4.01 10.05-7.66 20.24-11.42 30.39-1.43 3.85-1.62 7.32 1.43 10.89 5.08 5.93 6.92 13.4 8.65 20.85 1.76 7.59 2.93 15.39 7.38 22.11.51.77.66 1.91.66 2.88-.01 3.43.71 6.37 4.09 8.15.76.4 1.49 1.5 1.6 2.36.78 6.08 4.13 11.03 6.92 16.23 1.11 2.07 2.17 4.17 3.41 6.16 4.28 6.91 7.2 14.3 8.7 22.32.41 2.19 1.66 4.36 2.98 6.21 3.38 4.73 7.27 9.11 10.47 13.95 1.99 3.02 3.26 6.57 4.5 10.01.49 1.35.63 3.47-.11 4.5-2.41 3.35-.82 5.46 1.56 7.65 1.05.97 1.94 2.12 3.18 3.5-1.7.67-3.08 1.22-4.59 1.82-.46-.56-.91-1.04-1.28-1.57-9.63-13.87-19.27-27.74-28.86-41.64-1.19-1.73-2.31-3.58-3.1-5.52-8.71-21.42-17.28-42.9-26.06-64.29-1.55-3.78-3.53-7.51-6-10.74-2.82-3.68-5.57-3.08-6.73 1.39-.66 2.56-.45 5.54.13 8.17.98 4.46 2.61 8.79 1.65 13.47-1.35 6.6.47 12.78 2.21 19.06 1.02 3.68 1.07 7.62 1.55 11.45.08.65-.04 1.41.26 1.93 4.51 7.9 5.45 16.77 6.54 25.5 1.12 8.98 3.24 17.54 7.53 25.53.62 1.16 1.31 2.52 1.26 3.76-.45 10.69 3.73 20.35 6.38 30.36.43 1.64.18 3.72-.45 5.32-.68 1.72-.96 3.06.16 4.6.59.8.89 1.82 1.49 2.62 2.51 3.36 3.28 7.01 1.88 11.01-.98 2.83-.28 5.4.74 8.1 1.17 3.09 2.07 6.33 2.67 9.57.41 2.24-.58 3.61-3.34 3.77-3.87.23-5.18 3.19-2.62 5.94.92.99 3.15.75 4.95 1.1 3.1 10.87 5.67 22.11-2.12 25.36-.96-2.69-1.93-5.36-2.86-8.04-.95-2.73-1.87-5.47-2.95-8.65 1.72.08 3.15.39 4.46.13.88-.17 1.59-1.15 2.38-1.76-.6-.77-1.21-2.2-1.81-2.2-6.98 0-8.51-5.17-9.7-10.33-1.65-7.18-3.21-14.41-4.23-21.7-1.71-12.26-4.5-24.22-9.91-35.36-3.57-7.35-4.6-14.87-3.54-22.77.46-3.43-.21-6.06-3.02-8.22-.89-.68-1.69-1.88-1.92-2.98-3.53-17.07-6.97-34.16-10.37-51.26-.39-1.96-.5-4.01-.5-6.01 0-5.34-1.15-10.35-3.52-15.18-.7-1.43-.7-3.42-.45-5.07.55-3.64 1.3-7.27 2.29-10.82 1.62-5.8 1.98-11.58 1.08-17.56-.34-2.29.23-4.8.78-7.11.54-2.26 1.79-4.36 2.36-6.62.6-2.43 1.83-3.39 4.34-3.55 1.31-.08 3.14-1.04 3.66-2.12.83-1.73.77-3.63-1.21-5.32-3.48-2.97-3.01-6.81.94-9.26 1.92-1.19 2.74-2.53 2.63-4.85-.35-7.66 4.07-13.79 7.09-20.28 2.88-6.16 6.77-11.84 9.88-17.91 4.94-9.63 9.46-19.47 14.43-29.08 2.84-5.41 6.19-10.54 9.39-15.97z" fill="#010102"/><path d="m89.16 249.26c-1.16-3.97-1.65-7.27 1.99-9.66.09-.06.15-.17.24-.24 5.85-4.32 9.25-10.02 10.17-17.3.21-1.65 1.25-3.32 2.28-4.71 2.91-3.97 5.92-7.87 9.05-11.67 2.59-3.16 4.71-6.41 5.34-10.61.22-1.47 1.46-3.04 2.67-4.05 5.03-4.25 8.37-9.41 9.92-15.86.53-2.21 1.73-4.38 3.04-6.28 7.17-10.39 14.46-20.7 21.72-31.04 4.11-5.85 5.95-11.9 3.58-19.2-5.52-17-10.55-34.16-15.88-51.22-.58-1.85-1.65-3.65-2.84-5.2-6.21-8.1-11.13-16.78-12.39-27.1-.55-4.51 1.91-6.13 6.11-4.18 6.82 3.16 10.93 9.02 13.74 15.5 8.12 18.76 15.86 37.69 23.51 56.65.66 1.64-.21 4.1-.86 6.02-.7 2.06-.75 3.56 1.25 4.83 3.31 2.1 4.56 5.34 5.6 9.06 2.56 9.13 3.44 18.26 3.13 27.77-.22 6.59 1.26 13.35 2.73 19.87 4.27 18.98 3.1 37.9 1.32 57.06-.8 8.6-2.88 14.61-11.32 17.42-.2.07-.34.28-.78.65 2.6 1.43 5.18 2.65 7.53 4.24.82.56 1.63 2.1 1.46 3.01-2.36 12.63-4.53 25.33-7.57 37.8-1.12 4.59-4.31 8.7-6.73 12.93-.99 1.74-1.09 3.02-.48 5.11.93 3.2 1.6 7.08.63 10.13-3.3 10.42-7.22 20.65-11.26 30.81-.65 1.62-3.14 2.51-4.87 3.8-4.36-4.72-5.19-9.99-4.01-15.37 5.77-26.28 11.78-52.52 17.69-78.77.19-.86.66-1.95.33-2.59-2.38-4.59-.69-9.06.59-13.33 3.42-11.38 2.81-23.01 2.79-34.62 0-1.94-.14-3.62 2.46-4.33 2.52-.69 2.7-3.29 1.75-5.03-4.82-8.92-4.72-18.74-5.71-28.38-.39-3.75-1.55-7.22-4.55-9.78-2.15-1.84-3.68-1.8-5.78.65-20.59 24.04-37.81 50.43-54.65 77.12-2.08 3.29-5.24 5.95-8.18 8.6-1.09.93-2.95.95-4.76 1.49z" fill="#010102"/><g fill="#fcfbfa"><path d="m385.2 377.6.6-.7c.6.4 1.3.9 1.9 1.5l-.6.7c-.8-.5-1.4-1-1.9-1.5zm.3 7.1c.6-1.4 1.1-2.9 1.5-4.5.3.1.6.3.9.4-.5 1.4-1 2.9-1.5 4.4zm.2-10.1.6-.6c.7.5 1.3 1.1 1.9 1.6l-.7.7c-.6-.6-1.2-1.2-1.8-1.7zm8.4-.8h.8v.9h1.8v.7h-1.8v1.8h-.8v-.3h-1.2v.9h3.3v2.6h-.8v-.4h-2.5c0 .3 0 .6-.1.8h3.4v.7h-3.5c0 .3-.1.6-.1.8h4v.7h-3.5c.7.9 1.9 1.3 3.6 1.5-.2.2-.4.5-.6.9-1.9-.3-3.2-1.1-3.8-2.3-.5 1.1-1.8 2-3.9 2.4-.2-.3-.4-.5-.6-.8 1.9-.4 3.1-.9 3.6-1.7h-3.2v-.7h3.5c.1-.2.1-.5.2-.8h-3.3v-.7h3.4c0-.2 0-.5 0-.8h-2.4v.3h-.8v-2.6h3.3v-.9h-1.2v.3h-.8v-1.8h-1.8v-.7h1.8v-.9h.8v.9h3.2zm-4.4 5.5h2.4c0-.3 0-.6 0-.9h-2.4zm1.2-3.1h3.2v-.8h-3.2zm4.4 2.2h-2.4v.9h2.5v-.9z"/><path d="m389.2 385.8h.9v1.5h1.9v-1.5h.9v1.5h2.7v6h1.1v.9h-11.3v-.9h1.1v-6h2.7zm.2 8.7.5.8c-1.2.6-2.5 1.3-4 1.9-.2-.3-.3-.6-.6-.8 1.6-.6 3-1.3 4.1-1.9zm-2-4.3h1.9v-2.1h-1.9zm0 3.1h1.9v-2.2h-1.9zm2.7-3.1h1.9v-2.1h-1.9zm0 3.1h1.9v-2.2h-1.9zm2.4 1.3c1.4.6 2.7 1.2 4.1 1.8l-.5.9c-1.5-.7-2.8-1.4-4.1-1.9zm2.2-6.5h-1.9v2.1h1.9zm-1.9 5.2h1.9v-2.2h-1.9z"/></g></svg>