<svg enable-background="new 0 0 400 400" viewBox="0 0 400 400" xmlns="http://www.w3.org/2000/svg"><path d="m187.59 340.02c-.49-3.89-1.27-10.03-2.05-16.18-.03-.22-.08-.44-.08-.66-.04-20.3-.13-40.61-.02-60.91.01-2.4 1.72-4.79 1.71-7.18-.04-10.06-.86-20.12-.6-30.16.39-14.97 1.62-29.92 2.16-44.89.3-8.24-.13-16.5-.16-24.75-.04-13.64.97-27.37-.29-40.89-1.54-16.57.8-32.79 1.68-49.16.34-6.31-.61-12.7-1.01-19.05-.18-2.79-.84-5.61-.58-8.35.27-2.8.85-5.85 2.26-8.21 2.58-4.33 4.82-4.81 8.83-2.91 7.36 3.49 7.95 3.98 7.45 12.31-.43 7.02-1.57 14.03-1.42 21.03.19 8.59 1.85 17.15 2.04 25.74.22 9.82.29 19.78-1.15 29.44-.61 4.11-.69 7.86-.48 11.9 1.44 27.79 3.86 55.55 3 83.44-.22 7.08-.54 14.06-2.43 20.88-1.16 4.18-.89 8.28-.71 12.57.42 10.25.61 20.57-.17 30.79-.88 11.45-.33 22.77.58 34.15.33 4.1.19 8.25-.02 12.36-.34 6.78-1.21 13.44.11 20.34.77 4.03-.96 8.53-1.54 12.82-.31 2.3-.43 4.63-.89 6.9-.74 3.67-1.33 7.45-2.74 10.87-.54 1.32-3.06 2.21-4.83 2.55-2.25.43-2.88-1.47-3.25-3.38-.32-1.64-.55-3.44-1.41-4.8-4.77-7.53-5.05-15.8-3.99-26.61z" fill="#010100"/><g fill="#fafbfa"><path d="m6.4 11.7c-1-.8-1.9-1.6-2.9-2.3l.6-.7c.9.7 1.9 1.4 2.9 2.2zm-2.1 8.3c.7-2.1 1.4-4.2 2-6.4.2.1.6.3 1 .4-.7 2.3-1.3 4.4-1.9 6.4zm3-12.8c-1.1-.9-2.1-1.7-2.9-2.4l.6-.7c1 .8 2 1.5 3 2.4zm1.4-1.3v-.9h10.2v.9c-.9 4.2-2.3 7.3-4.1 9.4 1.3 1.4 3.2 2.7 5.7 4-.2.2-.4.5-.7.9-2.5-1.4-4.4-2.7-5.7-4.2-1.4 1.5-3.5 3-6.1 4.4 0 0 0 0-.1-.1-.3-.4-.5-.7-.7-.8 2.7-1.3 4.7-2.8 6.2-4.2-1.8-2.2-3-5.3-3.7-9.4zm9.2 0h-7.1c.6 3.8 1.7 6.7 3.4 8.7 1.7-2 2.9-4.8 3.7-8.7z"/><path d="m31.6 3.6h.9v2.3h4.1v9.1h1.7v.9h-16.6v-.9h1.7v-9.1h4.1v-2.3h.9v2.3h3.1v-2.3zm-4 13.3.6.8c-1.9.9-3.8 1.9-5.8 2.8-.2-.3-.3-.6-.5-.9 2-.9 3.9-1.8 5.7-2.7zm-3.2-10.1v3.7h3.1v-3.7zm0 4.5v3.7h3.1v-3.7zm4.1-4.5v3.7h3.1v-3.7zm0 4.5v3.7h3.1v-3.7zm9.1 9.1c-2.1-1.1-4.1-2-5.8-2.7l.5-.8c2.2.9 4.1 1.8 5.8 2.6zm-1.9-13.6h-3.1v3.7h3.1zm-3.2 4.5v3.7h3.1v-3.7z"/></g></svg>