<svg enable-background="new 0 0 400 400" viewBox="0 0 400 400" xmlns="http://www.w3.org/2000/svg"><path d="m122.22 241.63c1.11-.49 1.95-1.13 2.85-1.23 11.07-1.28 22.13-2.68 33.22-3.65 6.77-.59 13.59-.51 20.39-.75 5.46-.19 9.67-4.61 11.03-11.71.42-2.19.79-4.42.89-6.64.63-13.32 6.91-24.88 11.67-36.87 1.57-3.96 4.81-7.25 7.12-10.94 6.91-11.08 12.76-22.57 14.28-35.82.48-4.18.39-7.92-1.99-11.8-2.9-4.73-4.77-10.08-7.22-15.1-2.15-4.4-4.42-8.77-9.42-11.2-1.58 2.69-3.17 5.11-4.48 7.68-2.38 4.65-5.51 8.65-9.63 11.87-4.11 3.21-7.3 7.15-9.88 11.7-1.01 1.78-2.72 3.24-4.34 4.58-11.34 9.39-19.17 21.78-28.46 32.93-3.43 4.11-6.72 8.42-10.67 11.98-2.13 1.92-5.45 2.76-8.39 3.46-1.23.29-3.94-.87-4.08-1.7-.29-1.73.14-4.09 1.21-5.44 5.62-7.09 11.68-13.84 17.29-20.94 3.39-4.29 6.58-8.82 9.26-13.58 5.24-9.32 12.29-16.95 20.4-23.77 2.1-1.77 4.12-3.9 5.45-6.27 3.01-5.36 8.08-8.59 12.25-12.75 2.68-2.68 5.54-5.26 7.78-8.28 2.77-3.73 2.84-7.85.12-11.87-2.75-4.08-5.38-8.24-8.1-12.35-.55-.83-1.15-1.66-1.87-2.34-10.07-9.62-11.9-22.11-12.98-35.65 1.35.55 1.99.68 2.48 1.03 10.02 7.3 18.35 15.99 22.94 27.79.46 1.18 1.29 2.48 2.33 3.13 4.82 3.06 7.91 7.55 10.51 12.41 10.76 20.1 18.74 41.28 24.18 63.4.73 2.98.64 6.22.53 9.33-.05 1.43-.85 2.95-1.66 4.21-6.08 9.5-13.11 18.5-18.16 28.51-6.61 13.09-11.86 26.89-17.29 40.55-1.49 3.75-1.65 8.07-2.15 12.16-.11.91.68 2.3 1.49 2.89 3.98 2.93 8.54 3.5 13.39 3.07 6.33-.55 12.69-.86 19.04-1.23.77-.04 1.56.14 2.32.3 8.31 1.71 16.6 3.48 24.92 5.14 5.06 1.01 7.48 2.15 10.27 5.47-2 .71-3.77 1.66-5.64 1.93-8.39 1.23-16.78 2.6-25.23 3.23-4.01.3-8.21-.64-12.18-1.59-8.22-1.98-16.27-.46-24.28.83-3.81.61-5.78 3.97-5.78 7.95-.01 26.53.07 53.06-.04 79.59-.04 9.73-.46 19.46-.84 29.18-.08 2.09-.45 4.3-1.32 6.17-.75 1.62-2.39 2.83-3.63 4.23-.35-.2-.7-.4-1.05-.6 0-5.66.05-11.32-.03-16.98-.02-1.77-.08-3.63-.63-5.28-2.06-6.14-2.28-12.45-2.63-18.84-.48-8.91-1.74-17.77-2.36-26.68-.29-4.22.25-8.48.16-12.72-.04-2.04-.68-4.08-1.06-6.11-.28-1.51-.79-3.02-.8-4.54-.07-9.96-.02-19.92-.05-29.89-.01-4.09-1.99-5.91-6-5.81-7.82.19-15.64.43-23.46.42-7.15-.01-14.32-.06-21.44-.59-3.96-.29-7.83-1.62-10.55-5.61z" fill="#010100"/><g fill="#fafbfa"><path d="m6.4 11.7c-1-.8-1.9-1.6-2.9-2.3l.6-.7c.9.7 1.9 1.4 2.9 2.2zm-2.1 8.3c.7-2.1 1.4-4.2 2-6.4.2.1.6.3 1 .4-.7 2.3-1.3 4.4-1.9 6.4zm3-12.8c-1.1-.9-2.1-1.7-2.9-2.4l.6-.7c1 .8 2 1.5 3 2.4zm1.4-1.3v-.9h10.2v.9c-.9 4.2-2.3 7.3-4.1 9.4 1.3 1.4 3.2 2.7 5.7 4-.2.2-.4.5-.7.9-2.5-1.4-4.4-2.7-5.7-4.2-1.4 1.5-3.5 3-6.1 4.4 0 0 0 0-.1-.1-.3-.4-.5-.7-.7-.8 2.7-1.3 4.7-2.8 6.2-4.2-1.8-2.2-3-5.3-3.7-9.4zm9.2 0h-7.1c.6 3.8 1.7 6.7 3.4 8.7 1.7-2 2.9-4.8 3.7-8.7z"/><path d="m31.6 3.6h.9v2.3h4.1v9.1h1.7v.9h-16.6v-.9h1.7v-9.1h4.1v-2.3h.9v2.3h3.1v-2.3zm-4 13.3.6.8c-1.9.9-3.8 1.9-5.8 2.8-.2-.3-.3-.6-.5-.9 2-.9 3.9-1.8 5.7-2.7zm-3.2-10.1v3.7h3.1v-3.7zm0 4.5v3.7h3.1v-3.7zm4.1-4.5v3.7h3.1v-3.7zm0 4.5v3.7h3.1v-3.7zm9.1 9.1c-2.1-1.1-4.1-2-5.8-2.7l.5-.8c2.2.9 4.1 1.8 5.8 2.6zm-1.9-13.6h-3.1v3.7h3.1zm-3.2 4.5v3.7h3.1v-3.7z"/></g></svg>