<svg enable-background="new 0 0 400 400" viewBox="0 0 400 400" xmlns="http://www.w3.org/2000/svg"><path d="m196.13 25.72c3.54.13 4.9 1.67 5.28 5.15 1.42 12.9 3.24 25.75 4.87 38.63.24 1.88.41 3.79.41 5.68.03 17.02-.03 34.04.08 51.06.01 2.27.53 4.66 1.36 6.78 3.26 8.32 6.47 16.69 10.23 24.79 3.42 7.38 7.64 14.38 11.29 21.65 1.64 3.27 3.06 6.72 4.06 10.24 1.23 4.35.84 8.64-.62 13.12-3.53 10.83-9.73 20.31-14.51 30.5-1.99 4.24-3.67 8.63-5.24 13.05-.37 1.03-.1 2.73.56 3.6 3.19 4.16 6.59 8.17 9.97 12.18 3.67 4.36 7.46 8.62 11.08 13.03 7.4 9.01 9.74 19.48 8.4 30.85-.89 7.55-2.15 15.06-3.08 22.6-.96 7.77-1.59 15.58-2.66 23.33-.59 4.29-1.87 8.49-2.72 12.75-.93 4.73-4.2 7.44-8.07 9.65-.57.32-1.61.53-2.07.23-9.84-6.3-21.35-10.08-29.31-19.2-15.18-17.4-24.36-37.11-22.98-60.78.23-4.02 1.18-7.59 3.86-11.07 5.54-7.19 7.94-15.67 7.56-24.84-.13-3.09-.95-5.53-4.22-6.81-2.58-1.02-5.1-2.38-7.34-4.01-2.84-2.05-5.36-4.53-8.03-6.82-3.02-2.59-5.81-5.55-9.13-7.68-4.83-3.1-6.68-8.77-3.33-13.56 2.38-3.4 3.24-6.97 3.36-10.99.17-5.31 1.39-10.34 4.39-14.91 7.42-11.32 14.73-22.71 22-34.13 7.21-11.33 11.91-23.57 12.26-37.12.22-8.36.34-16.76-.27-25.09-.79-10.75-.94-21.41.04-32.16 1.19-13.14 1.71-26.34 2.52-39.7zm28.68 295.53c-.21 0-.42 0-.63 0 0-7.27 0-14.54 0-21.81 0-6.71-2.56-12.46-7.89-16.31-5.21-3.76-11.05-6.67-16.71-9.78-.55-.3-1.94.42-2.68 1-5.29 4.15-6.95 10.05-8.01 16.36-1.77 10.57-1.22 20.7 4.41 30.17 5.54 9.33 12.55 17.41 20.58 24.63 1.13 1.01 2.61 1.76 4.06 2.27 3.98 1.4 6.9-.87 6.87-5.06-.04-7.15 0-14.31 0-21.47zm-23.33-154.8c-11 13.96-22.77 25.02-29.19 40.06-1.9 4.46-1.46 11.89 2.59 15.46 5.25 4.63 10.69 9.02 16.15 13.6 4.57-4.21 9.03-8.61 13.82-12.62 3.03-2.53 4.53-5.53 5.37-9.27.62-2.78 1.68-5.61 3.2-7.99 2.13-3.34 2.79-6.78 2.25-10.53-1.13-7.89-4.26-15-8.72-21.53-1.69-2.49-3.64-4.8-5.47-7.18z" fill="#010100"/><g fill="#fcfafa"><path d="m342.2 3.2-6.3 9.2h6.1v1.2h-8.2v-.5l6.2-9.1h-5.7v-1.2h7.8v.4z"/><path d="m344 13.7v-10.9h3.1c1.6 0 3 .5 4.1 1.4 1.1 1 1.6 2.2 1.6 3.9s-.5 3-1.6 4-2.5 1.5-4.2 1.5h-3zm1.4-9.6v8.4h1.6c1.4 0 2.5-.4 3.2-1.1.8-.8 1.2-1.8 1.2-3.2s-.4-2.4-1.2-3.1-1.8-1-3.1-1z"/><path d="m356.3 2.8v10.9h-1.4v-10.9z"/><path d="m366.6 13.2c-.8.4-1.8.6-3 .6-1.6 0-2.8-.5-3.7-1.5s-1.4-2.3-1.4-3.9c0-1.7.5-3.2 1.6-4.2s2.4-1.6 4-1.6c1 0 1.9.1 2.6.4v1.5c-.8-.4-1.6-.6-2.6-.6-1.2 0-2.2.4-3 1.2s-1.1 1.9-1.1 3.3c0 1.3.4 2.3 1.1 3.1s1.6 1.1 2.8 1.1c1.1 0 2-.2 2.8-.7v1.3z"/><path d="m368.2 13c0-.3.1-.5.3-.6.2-.2.4-.3.6-.3.3 0 .5.1.7.3s.3.4.3.6-.1.5-.3.6c-.2.2-.4.3-.7.3s-.5-.1-.6-.3c-.2-.2-.3-.4-.3-.6z"/><path d="m381.1 13.7h-1.7l-5.5-8.4c-.2-.2-.3-.5-.4-.7 0 .2.1.8.1 1.5v7.6h-1.4v-10.9h1.8l5.3 8.3c.3.4.4.6.4.8 0-.3-.1-.8-.1-1.6v-7.5h1.4v10.9z"/><path d="m389.7 13.7h-5.8v-10.9h5.6v1.2h-4.2v3.5h3.9v1.2h-3.9v3.7h4.4z"/><path d="m398.4 4.1h-3.1v9.6h-1.4v-9.6h-3.1v-1.3h7.7v1.3z"/></g></svg>