<svg enable-background="new 0 0 400 400" viewBox="0 0 400 400" xmlns="http://www.w3.org/2000/svg"><path d="m121.65 145.98c5.76.56 10.02 1.93 12.07 7.72 1.78 5.01 4.57 9.69 7.19 14.37 1.69 3.01 3.79 5.82 7.75 6.84 2.97-4.17 6.06-8.27 8.89-12.54 5.67-8.57 11.82-16.91 16.55-25.98 2.97-5.69 3.77-12.52 5.48-18.86.54-2.01-.27-3.44-1.81-4.96-6.05-5.96-12.05-12-17.78-18.27-6.35-6.95-7.83-15.24-6.11-24.4.78-4.14 4.16-2.88 6.46-3.91 2.04-.92 2.99.41 4 1.89 4.97 7.29 10 14.55 15.47 22.47.76-1.81 1.51-3.03 1.77-4.34 2.33-11.6 4.99-23.16 6.63-34.86.62-4.42-.86-9.27-1.97-13.77-.97-3.95-.5-7.35 2.1-10.32.66-.75 2.28-1.21 3.28-.99 2.6.58 5.05 1.82 7.65 2.43 4.58 1.09 6.19 4.41 6.73 8.52.24 1.86.01 3.79-.06 5.69-.44 11.27-.95 22.54-1.31 33.81-.16 5.13-.03 10.26.5 15.63 1.4-2.32 2.81-4.63 4.21-6.95.58-.96 1.1-1.95 1.73-2.87 5.47-7.94 9.62-16.34 9.33-26.32-.02-.77.22-1.55.36-2.32.02-.1.13-.18.36-.47 2.74-.01 5.22.51 6.71 3.46 1.26 2.49 2.83 4.81 4.17 7.26 3.28 6 2.56 11.8-.13 17.97-4.49 10.3-11.82 18.34-19.33 26.34-2.83 3.02-5.74 6.02-8.09 9.39-1.82 2.6-3.21 5.66-4.1 8.72-1.42 4.91-1 9.39 3.12 13.47 6.12 6.05 11.48 12.86 17.47 19.05 2.93 3.02 6.61 5.3 9.85 8.03 4.95 4.16 9.8 8.44 14.72 12.63 1.1.94 2.2 1.96 3.48 2.57 3.61 1.71 5.61 1.35 7.51-2.13 2.56-4.68 4.68-9.61 6.74-14.54 1.87-4.47 4.48-8.2 8.82-10.89 3.87 4 5.66 8.48 4.16 14.01-3.92 14.45-8.21 28.81-11.56 43.39-2.34 10.21-3.38 20.72-4.99 31.1-.38 2.43-.58 4.89-1.05 7.3-1.35 6.78-1.81 13.41 1.33 19.94.83 1.72.74 3.93.84 5.93.32 6.48.61 12.97.75 19.46.04 2.02.49 3.43 2.57 4.05 4.23 1.26 6.72 4.22 8.74 8.1 4.18 8.03 8.58 15.96 13.29 23.69 2.13 3.49.29 6.25-.57 9.2-.42 1.46-4.97 1.08-6.58-.47-9.96-9.62-19.06-20.02-24.6-32.83-4.33-10.02-7.72-20.45-11.32-30.77-.8-2.31-1.64-3.03-4.2-2.84-12.6.96-25.25 1.3-37.82 2.54-7.63.75-15.15 2.65-22.69 4.17-5.81 1.17-11.55 2.63-17.36 3.81-2.47.5-3.94 1.52-4.97 4.08-9.66 23.93-19.48 47.8-29.35 71.65-1.45 3.5-3.31 6.84-5.15 10.16-.74 1.34-1.74 2.66-2.9 3.64-4.59 3.85-10.84 1.71-12.06-4.08-.96-4.56-.12-8.88 1.94-13.02 3.09-6.2 5.99-12.5 9.28-18.59 1.73-3.21 4.8-5.79 6.09-9.12 3.06-7.89 6.2-15.89 7.93-24.13 6.01-28.61 8.33-57.55 5.48-86.74-.8-8.22-2.45-16.36-3.74-24.53-.12-.76-.22-1.62-.64-2.22-6.57-9.46-7.95-20.5-9.63-31.44-.68-4.61-1.08-9.26-1.63-14.01zm98.99 33.17c-10.43-8.67-20.61-17.13-30.9-25.68-1.94 2.52-3.42 4.48-4.93 6.42-4.71 6.02-8.54 12.94-16.35 15.8-.86.32-1.48 1.33-2.19 2.05-4.45 4.52-8.91 9.03-13.33 13.59-.51.52-.91 1.28-1.06 1.99-1.98 9.67-.57 18.64 5.4 26.73 1.21 1.64 2.53 2.1 4.55 1.91 25.6-2.41 51.2-4.93 76.84-6.92 5.64-.44 8.05-2.51 9.29-7.81.72-3.07.37-4.74-1.97-6.75-7.62-6.53-15.03-13.3-21.68-19.22.56-2.57.95-4.38 1.34-6.2-.39-.15-.77-.3-1.16-.44-1.16 1.39-2.35 2.78-3.85 4.53zm-42.76 81.22c0-.09 0-.19 0-.28 2.01 0 4.03.13 6.03-.02 7.09-.53 14.36.09 21.12-2.83s13.69-2.66 20.73-1.39c4.46.8 8.97.93 13.05-1.4 1.03-.59 2.05-2.04 2.2-3.21.5-3.99.36-8.06.95-12.03.41-2.79-.8-3.72-3.1-3.89-9.89-.74-19.84-2.43-29.66-1.86-15.93.92-31.77 3.31-47.63 5.21-1.05.13-2.51 1.13-2.87 2.07-1.63 4.27-3.06 8.63-4.32 13.03-.95 3.32 2.71 7.71 6.09 7.54 5.8-.29 11.6-.63 17.41-.94z" fill="#010102"/><g fill="#fcfbfa"><path d="m385.2 377.6.6-.7c.6.4 1.3.9 1.9 1.5l-.6.7c-.8-.5-1.4-1-1.9-1.5zm.3 7.1c.6-1.4 1.1-2.9 1.5-4.5.3.1.6.3.9.4-.5 1.4-1 2.9-1.5 4.4zm.2-10.1.6-.6c.7.5 1.3 1.1 1.9 1.6l-.7.7c-.6-.6-1.2-1.2-1.8-1.7zm8.4-.8h.8v.9h1.8v.7h-1.8v1.8h-.8v-.3h-1.2v.9h3.3v2.6h-.8v-.4h-2.5c0 .3 0 .6-.1.8h3.4v.7h-3.5c0 .3-.1.6-.1.8h4v.7h-3.5c.7.9 1.9 1.3 3.6 1.5-.2.2-.4.5-.6.9-1.9-.3-3.2-1.1-3.8-2.3-.5 1.1-1.8 2-3.9 2.4-.2-.3-.4-.5-.6-.8 1.9-.4 3.1-.9 3.6-1.7h-3.2v-.7h3.5c.1-.2.1-.5.2-.8h-3.3v-.7h3.4c0-.2 0-.5 0-.8h-2.4v.3h-.8v-2.6h3.3v-.9h-1.2v.3h-.8v-1.8h-1.8v-.7h1.8v-.9h.8v.9h3.2zm-4.4 5.5h2.4c0-.3 0-.6 0-.9h-2.4zm1.2-3.1h3.2v-.8h-3.2zm4.4 2.2h-2.4v.9h2.5v-.9z"/><path d="m389.2 385.8h.9v1.5h1.9v-1.5h.9v1.5h2.7v6h1.1v.9h-11.3v-.9h1.1v-6h2.7zm.2 8.7.5.8c-1.2.6-2.5 1.3-4 1.9-.2-.3-.3-.6-.6-.8 1.6-.6 3-1.3 4.1-1.9zm-2-4.3h1.9v-2.1h-1.9zm0 3.1h1.9v-2.2h-1.9zm2.7-3.1h1.9v-2.1h-1.9zm0 3.1h1.9v-2.2h-1.9zm2.4 1.3c1.4.6 2.7 1.2 4.1 1.8l-.5.9c-1.5-.7-2.8-1.4-4.1-1.9zm2.2-6.5h-1.9v2.1h1.9zm-1.9 5.2h1.9v-2.2h-1.9z"/></g></svg>