<svg enable-background="new 0 0 400 400" viewBox="0 0 400 400" xmlns="http://www.w3.org/2000/svg"><g fill="#fbfafa"><path d="m37.59 393.81c-.92.31-1.52.05-2-.78-.7-1.2-1.52-2.34-2.47-3.78v4.59c-.55.03-.95.05-1.41.07-.03-.37-.06-.64-.06-.91 0-1.91 0-3.81 0-5.7 1.13-.41 1.77-.03 2.29.91.62 1.11 1.38 2.14 2.31 3.19v-4.2h1.35v6.61z"/><path d="m12.94 393.88v-6.75c1.9.19 3.93-.54 5.37 1.29.8 1.01.78 2.88.03 3.97-1.37 1.97-3.4 1.51-5.4 1.49m1.45-1.22c2.04.12 2.92-.58 2.89-2.21-.03-1.51-.98-2.19-2.89-2z"/><path d="m11.81 393.87h-5.49c.68-2.18 2.47-3.48 3.51-5.45h-3.08v-1.21h5.29c-.71 2.13-2.44 3.48-3.47 5.51.86 0 1.63.04 2.39-.01.79-.05 1.14.21.85 1.16"/><path d="m39.33 393.86v-6.61h3.7v1.07h-2.22v1.52c.68.04 1.34.09 2.07.13v1.07c-.72.05-1.38.09-2.1.14v1.48h2.4v1.19h-3.85z"/><path d="m27.71 388.56c-1.15-.3-2.46-.61-3.1.64-.37.73-.41 1.93-.06 2.67.63 1.35 1.99.93 3.17.68.35.94-.01 1.32-.93 1.46-1.62.25-3.05-.27-3.76-1.48-.73-1.24-.6-3.03.31-4.17.88-1.11 2.71-1.7 4-1.16.32.13.44.74.65 1.12-.1.08-.19.16-.28.24"/><path d="m49.15 387.24v1.07c-.59.02-1.17.05-1.87.08v5.44h-1.48v-5.44h-1.85c-.05-.4-.08-.73-.13-1.15z"/><path d="m20.06 387.21h1.33v6.62h-1.33z"/><path d="m30.68 393.25c-.49.38-.8.79-1.05.76-.32-.05-.6-.45-.9-.7.26-.24.51-.64.8-.67.29-.04.62.3 1.15.61"/></g><path d="m176.05 103.89c4.07-1.7 10.06-.12 11.56 4.77 1.46 4.75 2.83 9.61 3.4 14.53.84 7.27.9 14.64 1.39 21.96.05.72.79 1.95 1.25 1.96 1.11.04 2.54-.16 3.3-.85 3.48-3.16 6.69-6.61 10.16-9.78 2.04-1.87 4.38-3.41 6.58-5.11 1.84-1.42 3.98-2.61 5.46-4.34 3.72-4.36 8.2-7.44 13.43-9.71 2.95-1.28 5.77-2.96 8.42-4.79 3.15-2.17 6.22-4.24 10.15-4.84.99-.15 2.6-1.89 2.48-2.69-.58-3.95-1.45-7.88-2.67-11.67-.29-.9-2.32-1.66-3.6-1.76-9.68-.81-19.37-1.47-29.06-2.11-1.67-.11-3.38-.15-5.02.1-12.52 1.85-24.75-.15-36.97-2.54-1.19-.23-2.48-.43-3.65-.22-9.54 1.72-18.85.62-28.13-1.87-3.76-1.01-7.65-1.59-11.49-2.3-.72-.13-2.03-.18-2.17.13-1.49 3.41-3.31 6.8-4.02 10.39-.73 3.72.21 7.77-.52 11.49-2.02 10.3-4.79 20.46-6.71 30.77-.91 4.89-.44 10.03-.82 15.03-.45 6-1.15 11.98-1.73 17.96-.14 1.44-.75 3.04-.34 4.3 2.88 8.86-.94 17.39-1.09 26.09-.02.89-.32 1.77-.32 2.66-.07 17.62-4.91 34.59-7.04 51.93-.22 1.81.15 3.7.33 5.55.08.87.6 1.77.47 2.59-1.96 12.62.65 25.23.1 37.84-.26 5.81-.62 11.63-.69 17.44-.04 3 .3 6.03.74 9.01.99 6.77 3.81 12.4 9.61 16.57 7.39 5.31 14.74 10.58 23.83 12.56 2.15.47 4.44.59 6.65.48 6.21-.33 12.26.44 18.2 2.24 8.33 2.51 16.88 3.06 25.54 3.15 6.56.07 13.1.93 19.66 1.34 9.68.61 19.34.95 28.96-.88 4.94-.94 9.96-1.48 14.9-2.41 2.6-.49 5.11-1.5 7.69-2.15 2.65-.67 5.34-1.19 8-1.8 1.72-.39 3.41-.94 5.14-1.21 4.02-.62 8.06-1.31 12.11-1.52 1.05-.05 2.47 1.41 3.13 2.53.26.43-.91 2.19-1.8 2.72-2.48 1.47-5.41 2.26-7.69 3.96-6.87 5.12-14.95 6.23-23.01 7.41-14.05 2.07-28.07 4.49-42.19 5.82-7.37.69-14.97-.3-22.4-1.11-16.4-1.78-32.79-3.77-49.14-5.99-6.66-.9-12.9-3.28-18.81-6.71-5.26-3.06-10.94-5.39-16.42-8.09-.68-.34-1.36-.83-1.83-1.42-4.83-5.96-9.03-12.14-9.49-20.25-.18-3.25-1.52-6.43-2.13-9.68-.64-3.38-1.31-6.8-1.48-10.22-.32-6.23.24-12.54-.57-18.68-.66-4.95 1.26-9.57.69-14.36-.53-4.45-1.26-8.92-1.06-13.36.28-5.99 1.3-11.94 1.95-17.92.44-4.1.73-8.22 1.2-12.32 1.43-12.54 2.97-25.07 4.31-37.62.3-2.84-.22-5.76 0-8.62.23-3.09.94-6.14 1.31-9.22.66-5.52 1.09-11.08 1.87-16.59 1.24-8.72 2.23-17.52 4.14-26.11 3.49-15.58 4.62-31.4 5.8-47.24.61-8.15 1.36-16.24 3.91-24.1.95-2.92 1.02-6.12 1.52-9.19.14-.86.16-1.88.64-2.53 2.9-3.99 3.55-8.6 4.03-13.3.1-.96.4-2.03.96-2.79 1.51-2.06 3.92-1.82 4.94.52 3.97 9.13 6.03 18.39 2.22 28.2-1.64 4.21-.85 4.53 3.59 4.29 4.07-.22 8.19.58 12.29 1.01 8.98.94 17.81 3.54 26.97 2.29.32-.04.68.05.98.17 11.12 4.11 22.51 2.19 33.84 1.57 1.98-.11 4.03.01 5.96.44 3.29.74 6.41 1.36 9.88.44 1.85-.49 4.1.54 6.17.87 3.5.54 7 1.12 10.51 1.59 2.83.37 4-1.36 3.84-3.8-.16-2.42-.47-4.98-1.41-7.19-4.13-9.73-4.58-19.95-4.67-30.28-.03-3.84-.54-7.67-.84-11.51 4.97-.31 7.67 1.15 9.18 5.26 3.34 9.09 7.66 17.89 8.4 27.81.19 2.49 1.33 4.91 2.07 7.35.23.75.68 1.43.83 2.19 1.35 6.61 2.74 13.22 3.97 19.86 1.6 8.67 3.05 17.36 4.57 26.04.15.88.46 1.76.46 2.64.09 24.14 6.17 47.38 10.73 70.84.13.66.32 1.31.39 1.97 1.07 11.09 1.93 22.21 3.24 33.28.91 7.65 2.48 15.22 3.66 22.85.46 2.98.49 6.04 1.07 8.99.33 1.7 1.43 3.23 2.09 4.88.31.77.79 1.72.59 2.41-1.95 6.45-.08 12.61 1.23 18.82.02.11.08.22.07.33-1.21 8.15 3.52 15.45 2.89 23.81-.62 8.22 1.7 16.62 2.3 24.97.29 4.05-.25 8.19-.77 12.24-.12.91-1.77 1.62-2.72 2.42-.68-.91-1.71-1.74-1.97-2.76-2.38-9.28-4.71-18.59-6.87-27.92-.85-3.68-1.28-7.47-1.87-11.21-1.58-10.16-3.16-20.32-4.71-30.48-.32-2.1-.58-4.22-.69-6.33-.18-3.32-.83-6.34-2.14-9.57-1.67-4.1-1.64-8.95-2.05-13.5-1.21-13.58-2.09-27.19-3.48-40.75-.7-6.77-2.22-13.45-3.4-20.17-.13-.76-.24-1.75-.75-2.18-3.14-2.67-2.49-6.25-2.42-9.66.05-2.41-.04-4.61-2.06-6.41-.58-.52-.62-1.77-.7-2.7-.23-2.72-.25-5.47-.53-8.19-.67-6.54-1.29-13.09-2.22-19.59-.63-4.42-1.54-8.82-2.7-13.12-1.24-4.59-3.92-5.18-7.09-1.8-6.7 7.14-14.07 13.33-22.81 17.99-3.85 2.05-6.86 5.67-10.31 8.5-6.39 5.25-12.71 10.58-19.27 15.6-3.6 2.75-5.59 6.1-5.45 10.53.14 4.44.84 8.86.92 13.3s-.29 8.88-.46 13.32c-.18 4.69-.54 9.38-.52 14.07.04 8.6-.15 17.24.62 25.78.8 8.93-3.82 15.75-7.71 23.1-.07-.81-.17-1.63-.19-2.44-.22-10.16-.51-20.29-1.19-30.46-.69-10.43-.83-20.95-1.63-31.43-.45-5.89-.43-11.84-.23-17.75.27-7.63-1.03-15.14-1.38-22.66-.43-9.18-2.59-18.23-1.54-27.64.72-6.47-1.18-13.24-1.94-19.87-.14-1.47-.43-2.89-.69-4.48z" fill="#010000"/><path d="m260.85 264.52c0 6.37.53 12.8-.13 19.1-.97 9.28-2.36 18.57-4.44 27.66-.85 3.71-3.9 6.94-6.1 10.29-.4.6-1.51.79-2.33 1.06-2.33.77-4.78 1.25-6.99 2.26-6.99 3.18-14.04 5.04-21.94 4.9-9.43-.17-18.87 1.13-28.32 1.62-6.15.32-12.12-.04-17.98-2.77-3.06-1.42-7.01-1.08-10.56-1.24-1.97-.09-3.28-.74-3.7-2.6-.93-4.1-2.11-8.19-2.44-12.35-.31-3.87.5-7.81.5-11.72.01-2.75-.68-5.5-.74-8.25-.09-4.3.06-8.61.17-12.92.03-1.22.61-2.5.39-3.65-2.19-11.6 1.77-22.87 1.78-34.34 0-1.2 1.05-3.45 1.47-3.42 1.64.13 3.87.53 4.66 1.68 1.23 1.79 2.17 4.33 1.97 6.43-.72 7.54 2.73 14.17 4.14 21.23.15.77 1.52 1.6 2.46 1.85 1.49.4 3.1.44 4.66.46 10.95.14 21.93-.14 32.86.46 12.02.66 24 2.07 35.98 3.32 1.79.19 2.93-.11 3.28-1.75.72-3.48 1.5-6.99 1.73-10.52.25-3.89-.31-7.84-.13-11.74.13-2.69 1.17-5.34 1.34-8.03.16-2.62-.39-5.27-.42-7.91s.01-5.31.37-7.92c.28-2.01 1.66-2.54 3.72-1.98 3.66 1 5.48 2.89 5.51 6.94.1 11.29.03 22.57.03 33.86-.27-.01-.54-.01-.8-.01zm-10.41 18.8c-3.6.26-6.03.42-8.45.6-4.01.29-8.05 1.08-12.01.78-13.2-.99-26.36-2.51-39.57-3.52-5.78-.44-11.62-.3-17.42-.13-2.08.06-4.88.07-5.16 3.13-.83 9.11-1.51 18.23-2.22 27.34-.21 2.66.84 4.25 3.6 5.11 10.7 3.34 21.24 6.03 32.81 4.2 9.89-1.56 20.19-.04 29.94-3.49 3.95-1.4 8.1-2.26 12.03-3.7 1.22-.45 2.71-1.92 2.89-3.1 1.33-8.79 2.35-17.63 3.56-27.22z" fill="#010000"/></svg>