<svg enable-background="new 0 0 400 400" viewBox="0 0 400 400" xmlns="http://www.w3.org/2000/svg"><path d="m142.39 34.51c8.46 6.08 12.24 14.41 13.89 23.98.83 4.78 1.14 9.52-.49 14.25-.41 1.2-.19 2.65-.11 3.98.65 10.49 1.32 20.97 2.01 31.45.44 6.58.73 13.18 1.47 19.74.56 4.95.72 9.76-.78 14.6-.38 1.23.07 2.78.33 4.15.67 3.47 1.95 6.9 2.1 10.38.78 17.89 1.42 35.78 1.76 53.68.08 4.37-1.23 8.76-1.83 13.15-.2 1.5-.57 3.15-.18 4.54 3.78 13.27 5.05 26.76 3.66 40.45-1.17 11.56-.04 22.94 1.25 34.42.73 6.54-.44 13.29-.73 19.95-.06 1.44-.18 2.9-.02 4.32 1.31 11.43 1.16 22.8-1.73 33.98-.89 3.43-2.57 6.64-3.76 10-.85 2.39-2.51 3.24-5.5 3.01-1.78-8.24-7.98-15.43-6.67-24.85.11-.79-.45-2.09-1.1-2.48-2.58-1.57-3.07-4.08-3.84-6.7-5.35-18.24-6.13-37.01-6.6-55.8-.11-4.36-1.21-7.41-5.29-9.37-2.18-1.05-4.05-2.76-6.01-4.25-1.6-1.22-2.45-2.66-2.01-4.91.19-.99-.58-2.48-1.38-3.27-1.25-1.24-2.82-2.22-4.38-3.07-12.22-6.65-19.94-17.24-26.27-29.24-2.69-5.1-6.28-9.75-9.75-14.39-1.9-2.53-3.16-5-2.76-8.22.19-1.54-.06-3.14.05-4.7.29-3.98-.29-7.74-2.1-11.37-.44-.88-.28-2.8.37-3.37 4.78-4.24 7.59-9.64 9.59-15.52 4.47-13.13 12.22-24.37 20.61-35.13 7.49-9.62 15.77-18.68 20.87-29.89 1.66-3.65 2.39-7.83 2.9-11.86 1.21-9.54 1.43-19.24 3.19-28.67 1.66-8.96 4.75-17.67 7.23-26.48.55-2.04 1.24-4.05 2.01-6.49zm-6.75 214.1c.41-.85.75-1.23.74-1.6-.19-9.5.1-19.05-.77-28.49-1.06-11.44-3.84-22.72-2.56-34.37.3-2.73.09-5.6-.34-8.33-1.28-8.06-2.82-16.03-.73-24.25.93-3.66-1.09-6.79-4.02-10.04-3.77 5.21-7.94 9.75-10.68 15.03-5.32 10.25-12.17 19.23-20.05 27.54-1.46 1.54-2.92 3.11-4.19 4.81-.6.8-1.18 2.04-1 2.91 1.07 5.03 2.34 10.01 3.61 14.99.18.7.62 1.54 1.19 1.9 3.26 2.05 4.48 5.36 5.87 8.69.78 1.88 2.04 3.74 3.54 5.12 8.82 8.11 17.76 16.07 26.68 24.07.79.7 1.67 1.25 2.71 2.02z" fill="#010100"/><path d="m218.11 25.18c5.42.11 6.75 1.08 7.98 4.98 2.25 7.12 5.26 14.1 6.67 21.38 1.82 9.42 2.32 19.08 3.52 28.62.8 6.44 1.75 12.86 2.81 19.26.17 1.05 1.04 2.34 1.96 2.84 9.57 5.27 16.33 13.4 22.83 21.86.98 1.28 2.75 2 4.25 2.81 2.49 1.34 5.48 2.07 7.5 3.9 8.7 7.89 17.29 15.92 25.53 24.28 2.51 2.55 5.02 3.11 8.05 2.74 3.09-.37 4.86.87 5.85 3.67.97 2.74 2.09 5.42 3.02 8.17 1.28 3.76 2.01 7.31-.69 11.08-1.3 1.82-1.03 4.71-1.72 7.05-.74 2.51-1.32 5.24-2.76 7.33-7.53 10.96-16.64 21.08-22.62 32.8-5.59 10.95-13.86 19.7-20.15 29.95-1.52 2.48-4.02 4.55-6.46 6.23-5.73 3.95-8.13 8.69-7.01 15.97 2.73 17.83 3.86 35.82 3.19 53.89-.02.67.2 1.51-.12 1.99-3.99 5.9-.39 11.92-.43 17.87-.01 2.34-.64 4.67-.94 7.01-.21 1.62-.33 3.25-.54 4.88-.24 1.85-.53 3.69-1.47 5.6-.82-8.26-6.31-14.03-9.78-20.79-2.43-4.72-3.82-9.99-5.57-15.05-.84-2.42-1.21-5.02-2.18-7.39-2.54-6.21-3.25-12.47-2.96-19.26.26-6.12-1.63-12.35-2.67-18.52-1.34-7.94-2.79-15.86-4.18-23.79-.08-.44-.22-.92-.12-1.33 2.41-9.8-1.99-18.69-3.67-27.94-.6-3.28-1.37-6.64-1.2-9.92.85-16.89-2.84-33.44-3.42-50.2-.5-14.43-.53-28.88-1.23-43.3-.7-14.52-1.9-29.02-3.04-43.52-.28-3.63-.36-7.04 1.33-10.44.58-1.17.54-3.07.01-4.3-4.16-9.54-2.55-19.21-.21-28.64.83-3.32 3.19-6.33 2.58-10.07-.28-1.69-1.03-3.31-1.3-5-.36-2.2-.44-4.43-.64-6.7zm35.94 204.74c7.07-3.81 12.72-8.57 16.39-15.62 2.53-4.84 5.2-9.67 8.45-14.03 3.23-4.33 5.17-9.01 6.6-14.12 2.43-8.69.97-16.29-6.07-22.16-9.52-7.93-19.28-15.58-28.98-23.29-2.07-1.64-4.33-3.03-7.48-5.21-.1 3.7-.5 6.54-.17 9.29.44 3.64 1.71 7.17 2.18 10.81 1.22 9.64 2.17 19.31 3.28 28.96 1.11 9.62 3.22 19.21.79 28.94-.15.62-.13 1.38.07 1.98 1.58 4.74 3.22 9.46 4.94 14.45z" fill="#010100"/><path d="m300.5 231.35c.51.98 1.7 2.37 1.4 2.85-.79 1.27-2.22 2.15-3.39 3.18-.26-.24-.53-.47-.79-.71.6-1.7 1.21-3.39 1.81-5.09.33-.08.65-.15.97-.23z" fill="#010100"/><g fill="#fcfafa"><path d="m342.2 3.2-6.3 9.2h6.1v1.2h-8.2v-.5l6.2-9.1h-5.7v-1.2h7.8v.4z"/><path d="m344 13.7v-10.9h3.1c1.6 0 3 .5 4.1 1.4 1.1 1 1.6 2.2 1.6 3.9s-.5 3-1.6 4-2.5 1.5-4.2 1.5h-3zm1.4-9.6v8.4h1.6c1.4 0 2.5-.4 3.2-1.1.8-.8 1.2-1.8 1.2-3.2s-.4-2.4-1.2-3.1-1.8-1-3.1-1z"/><path d="m356.3 2.8v10.9h-1.4v-10.9z"/><path d="m366.6 13.2c-.8.4-1.8.6-3 .6-1.6 0-2.8-.5-3.7-1.5s-1.4-2.3-1.4-3.9c0-1.7.5-3.2 1.6-4.2s2.4-1.6 4-1.6c1 0 1.9.1 2.6.4v1.5c-.8-.4-1.6-.6-2.6-.6-1.2 0-2.2.4-3 1.2s-1.1 1.9-1.1 3.3c0 1.3.4 2.3 1.1 3.1s1.6 1.1 2.8 1.1c1.1 0 2-.2 2.8-.7v1.3z"/><path d="m368.2 13c0-.3.1-.5.3-.6.2-.2.4-.3.6-.3.3 0 .5.1.7.3s.3.4.3.6-.1.5-.3.6c-.2.2-.4.3-.7.3s-.5-.1-.6-.3c-.2-.2-.3-.4-.3-.6z"/><path d="m381.1 13.7h-1.7l-5.5-8.4c-.2-.2-.3-.5-.4-.7 0 .2.1.8.1 1.5v7.6h-1.4v-10.9h1.8l5.3 8.3c.3.4.4.6.4.8 0-.3-.1-.8-.1-1.6v-7.5h1.4v10.9z"/><path d="m389.7 13.7h-5.8v-10.9h5.6v1.2h-4.2v3.5h3.9v1.2h-3.9v3.7h4.4z"/><path d="m398.4 4.1h-3.1v9.6h-1.4v-9.6h-3.1v-1.3h7.7v1.3z"/></g></svg>