<svg enable-background="new 0 0 400 400" viewBox="0 0 400 400" xmlns="http://www.w3.org/2000/svg"><g fill="#fbfafa"><path d="m37.59 393.81c-.92.31-1.52.05-2-.78-.7-1.2-1.52-2.34-2.47-3.78v4.59c-.55.03-.95.05-1.41.07-.03-.37-.06-.64-.06-.91 0-1.91 0-3.81 0-5.7 1.13-.41 1.77-.03 2.29.91.62 1.11 1.38 2.14 2.31 3.19v-4.2h1.35v6.61z"/><path d="m12.94 393.88v-6.75c1.9.19 3.93-.54 5.37 1.29.8 1.01.78 2.88.03 3.97-1.37 1.97-3.4 1.51-5.4 1.49m1.45-1.22c2.04.12 2.92-.58 2.89-2.21-.03-1.51-.98-2.19-2.89-2z"/><path d="m11.81 393.87h-5.49c.68-2.18 2.47-3.48 3.51-5.45h-3.08v-1.21h5.29c-.71 2.13-2.44 3.48-3.47 5.51.86 0 1.63.04 2.39-.01.79-.05 1.14.21.85 1.16"/><path d="m39.33 393.86v-6.61h3.7v1.07h-2.22v1.52c.68.04 1.34.09 2.07.13v1.07c-.72.05-1.38.09-2.1.14v1.48h2.4v1.19h-3.85z"/><path d="m27.71 388.56c-1.15-.3-2.46-.61-3.1.64-.37.73-.41 1.93-.06 2.67.63 1.35 1.99.93 3.17.68.35.94-.01 1.32-.93 1.46-1.62.25-3.05-.27-3.76-1.48-.73-1.24-.6-3.03.31-4.17.88-1.11 2.71-1.7 4-1.16.32.13.44.74.65 1.12-.1.08-.19.16-.28.24"/><path d="m49.15 387.24v1.07c-.59.02-1.17.05-1.87.08v5.44h-1.48v-5.44h-1.85c-.05-.4-.08-.73-.13-1.15z"/><path d="m20.06 387.21h1.33v6.62h-1.33z"/><path d="m30.68 393.25c-.49.38-.8.79-1.05.76-.32-.05-.6-.45-.9-.7.26-.24.51-.64.8-.67.29-.04.62.3 1.15.61"/></g><path d="m155.47 211.34c6.4-2.34 8.05-4.01 8.83-10.17.61-4.76.24-9.72 1.38-14.33 1.62-6.56 3.65-13.15 6.5-19.25 5.35-11.43 11.7-22.39 17.04-33.82 1.66-3.55 1.81-7.99 1.85-12.03.02-2.07-1.33-4.46-2.72-6.19-6.79-8.42-13.19-17-14.91-28.08-.27-1.72-.19-3.49.49-5.63 5.18 6.48 10.36 12.96 15.71 19.65 3.61-3.54 4.97-7.17 4.97-11.15-.01-16.54 2.9-32.72 6.08-48.85 1.07-5.43 3.06-10.67 4.58-15.86 4.75.19 6.95 1.91 6.67 5.82-.43 6.1-1.56 12.15-2.25 18.24-.61 5.41-1.08 10.83-1.52 16.25-.39 4.76-.44 9.56-1.04 14.29-.82 6.54-2.14 13.02-2.99 19.56-.3 2.33-1.22 5.19 2.16 6.88.8-1.03 1.57-1.96 2.27-2.93 7.07-9.8 14.22-19.55 21.14-29.45 2.54-3.64 4.64-7.61 6.75-11.53 1.34-2.48 2.91-4.4 5.33-4.64.76 2 1.41 3.7 2.05 5.41.08.2.24.45.18.62-1.73 5.45-1.09 11.75-5.23 16.33-12.08 13.34-22.8 27.57-30.2 44.12-2.41 5.38-2.87 10.5.59 15.59 2.82 4.14 5.65 8.28 8.35 12.5 1.67 2.61 3.49 5.23 4.56 8.1 2.42 6.51 5.61 12.33 11.19 16.72.99.78 1.66 2.67 1.58 4-.8 13.07-1.78 26.12-2.75 39.18-.06.76-.25 1.57-.57 2.26-3.91 8.28-5.16 17.26-7.21 26.07-3.04 13.03-6.86 25.9-10.67 38.74-1.18 3.97-1.29 7.68-.09 11.49 2.73 8.65 5.44 17.33 12.46 23.76.52.47.87 1.31.97 2.03.62 4.42 1.12 8.86 1.73 13.29 1.26 9.14-1.09 17.82-5.23 25.58-2.38 4.47-7.56 7.44-11.72 11.3-5.03-6.69-10.16-12.9-14.54-19.61-1.72-2.64-1.72-6.39-2.56-9.63-1.53-5.92-3.15-11.82-4.64-17.76-.26-1.05-.22-2.23-.08-3.31.93-7.55 1.7-15.13 2.97-22.62.59-3.47 2.19-6.76 3.34-10.13 2.25-6.57 2.27-12.67-2.03-18.75-5.1-7.2-9.21-15.11-14.34-22.29-6.82-9.55-8.97-20.85-12.82-31.51-2-5.54-1.87-5.45-7.64-5.94-1.38-.13-2.65-1.52-3.97-2.32zm46.39 57.83c1.12-2.2 2.14-3.73 2.72-5.42 4.4-13.01 8.4-26.17 13.14-39.05 3.33-9.07 5.1-18.17 4.47-27.82-.33-5.04-.71-5.91-5.67-6.56-1.14-.15-2.52.11-3.54.65-4.01 2.16-8 4.38-11.81 6.87-.98.64-1.66 2.29-1.83 3.57-2 15.22-.84 30.9-7.11 45.51-.91 2.12-.87 5.43.17 7.45 2.54 4.91 5.93 9.4 9.46 14.8zm7.73 92.72c4.85-1.5 4.83-1.5 5.82-6.08 1.28-5.89 2.51-11.79 3.94-17.64.62-2.55.5-4.68-1.29-6.79-2.58-3.02-4.09-6.53-4.67-10.54-.68-4.72-3.31-8.43-6.88-11.53-4.72 5.89-6.92 14.64-6.25 22.37.94 10.78 5.47 20.38 9.33 30.21zm-7.44-214.13c-2.64 12.1-3.84 23.41-2.6 34.93.2 1.82 1.38 2.78 2.96 2.17 4-1.55 7.94-3.31 11.8-5.18 2.89-1.4 3.71-4.01 3.2-7.03-1.69-10.09-7.76-17.43-15.36-24.89zm-28.09 50.55c3.71-1.46 7.26-2.75 10.7-4.31.81-.36 1.63-1.6 1.71-2.5.5-5.77 1.11-11.55 1.04-17.33-.04-3.18-1.35-6.35-2.1-9.58-3.88 1.18-5.58 3.14-6.33 6.48-.9 4-2.46 7.85-3.84 11.73-1.76 4.93-2.62 9.9-1.18 15.51zm10.59 41.84c3.86-.71 4.5-2.46 3.7-5.08-.32-1.06-.41-2.2-.53-3.31-.84-7.44-1.62-14.89-2.54-22.32-.12-.95-.82-2.45-1.47-2.58-1.5-.3-3.51-.45-4.65.32-1.74 1.18-4.42 2.16-3.59 5.34 1.44 5.5 2.52 11.11 4.23 16.52 1.23 3.87 3.24 7.49 4.85 11.11z" fill="#010000"/><path d="m155.81 152.13c-1.56-1.6-2.9-2.69-3.84-4.06-.66-.97-.88-2.29-1.09-3.49-.26-1.45-2.01-2.95.27-4.39 2.32-1.46 4.45-2.48 6.94-.32 1.98 1.71 3.99 6.36 2.79 8.1-1.04 1.51-2.91 2.44-5.07 4.16z" fill="#010000"/></svg>