<svg enable-background="new 0 0 400 400" viewBox="0 0 400 400" xmlns="http://www.w3.org/2000/svg"><path d="m170.16 374.89c0-1.73.06-3.05-.01-4.36-.7-12.6-1.45-25.2-2.12-37.8-.41-7.79-.98-15.5.61-23.36 1.02-5.03.3-10.49-.14-15.72-1.24-14.71 2.22-28.92 4.24-43.28.81-5.76 1.79-11.49 2.59-17.25.14-1.04-.09-2.2-.41-3.23-2.31-7.34-4.76-14.64-7-22.01-.5-1.65-.35-3.51-.48-5.27-.42-5.53-.82-11.07-1.24-16.6-.2-2.66-.65-5.33-.54-7.98.06-1.43 1.07-2.82 1.98-5.02 3.79 5.48 5.89 10.52 6.71 15.93 1.03 6.84 1.43 13.77 2.35 20.62.2 1.51 1.13 3.42 2.33 4.17 2.11 1.33 2.73-1.07 3.57-2.36 8.71-13.35 11.04-27.25 5.54-42.75-3.83-10.8-8.01-21.33-13.69-31.22-4.07-7.09-5.05-14.76-5.05-22.62 0-14.3 3.22-28.18 5.97-42.11.11-.54.23-1.15.55-1.57 5.71-7.72 7.26-16.93 9.44-25.94 1.74-7.21 4.55-13.98 9.08-19.92 5.05 2.31 5.89 5.37 3.87 11.01-2.75 7.66-5.17 15.43-7.62 23.19-.56 1.79-.65 3.74-.95 5.62-.5 3.09.63 5.41 2.63 7.87 2.05 2.52 3.1 5.84 4.68 8.75.61 1.13 1.28 2.59 2.31 3.05 2.98 1.35 4.69 3.67 5.95 6.48 4.15 9.27 11.61 15.75 18.85 22.41 2.23 2.05 4.4 4.16 3.81 8.37-1.58-.57-3.19-.74-4.25-1.59-8.08-6.48-16.48-12.53-22.6-21.25-4.36-6.22-9.88-11.62-14.89-17.39-.51.1-1.01.21-1.52.31-1.84 6.71-3.73 13.41-5.5 20.15-.57 2.16-.8 4.4-1.25 6.59-1.37 6.62-.82 12.8 1.97 19.22 6 13.83 11.31 27.96 16.77 42.01 2.95 7.58 5.83 15.19 8.36 22.92 1.02 3.13 1.04 6.59 1.52 9.9.13.88-.01 1.96.46 2.6 3.19 4.34 2.36 9.65 3.71 14.37 2.77 9.62 2.5 19.47 3.35 29.22.39 4.45-.51 8.96.82 13.46.34 1.16-1.36 2.93-2.46 5.08-1.04-2.02-2.13-3.17-2.17-4.36-.21-7.56-4.78-13.35-7.68-19.82-.76-1.7-1.07-3.8-.95-5.68.7-10.18.09-20.08-5.39-29.86-4.01 7.67-8.77 14.57-9.47 22.71-.33 3.8 1.86 8.22 3.97 11.73 3.55 5.9 7.94 11.28 12.01 16.93-2.03 2.45-4 1.69-5.75.32-3.61-2.83-7.09-5.82-10.62-8.74-.84-.69-1.7-1.36-2.71-2.16-3.04 4.27-3.86 8.96-3.91 13.78-.11 10.86.25 21.72-.12 32.57-.31 8.91-1.47 17.79-2.09 26.69-.24 3.52-.61 7.19.11 10.57 1.59 7.42-.17 14.69-.29 22.02-.08 4.67-.89 9.35-1.78 13.96-.53 2.74-1.5 5.63-5.46 6.64z" fill="#010100"/><g fill="#fafbfa"><path d="m6.4 11.7c-1-.8-1.9-1.6-2.9-2.3l.6-.7c.9.7 1.9 1.4 2.9 2.2zm-2.1 8.3c.7-2.1 1.4-4.2 2-6.4.2.1.6.3 1 .4-.7 2.3-1.3 4.4-1.9 6.4zm3-12.8c-1.1-.9-2.1-1.7-2.9-2.4l.6-.7c1 .8 2 1.5 3 2.4zm1.4-1.3v-.9h10.2v.9c-.9 4.2-2.3 7.3-4.1 9.4 1.3 1.4 3.2 2.7 5.7 4-.2.2-.4.5-.7.9-2.5-1.4-4.4-2.7-5.7-4.2-1.4 1.5-3.5 3-6.1 4.4 0 0 0 0-.1-.1-.3-.4-.5-.7-.7-.8 2.7-1.3 4.7-2.8 6.2-4.2-1.8-2.2-3-5.3-3.7-9.4zm9.2 0h-7.1c.6 3.8 1.7 6.7 3.4 8.7 1.7-2 2.9-4.8 3.7-8.7z"/><path d="m31.6 3.6h.9v2.3h4.1v9.1h1.7v.9h-16.6v-.9h1.7v-9.1h4.1v-2.3h.9v2.3h3.1v-2.3zm-4 13.3.6.8c-1.9.9-3.8 1.9-5.8 2.8-.2-.3-.3-.6-.5-.9 2-.9 3.9-1.8 5.7-2.7zm-3.2-10.1v3.7h3.1v-3.7zm0 4.5v3.7h3.1v-3.7zm4.1-4.5v3.7h3.1v-3.7zm0 4.5v3.7h3.1v-3.7zm9.1 9.1c-2.1-1.1-4.1-2-5.8-2.7l.5-.8c2.2.9 4.1 1.8 5.8 2.6zm-1.9-13.6h-3.1v3.7h3.1zm-3.2 4.5v3.7h3.1v-3.7z"/></g></svg>