<svg enable-background="new 0 0 400 400" viewBox="0 0 400 400" xmlns="http://www.w3.org/2000/svg"><g fill="#fbfafa"><path d="m37.59 393.81c-.92.31-1.52.05-2-.78-.7-1.2-1.52-2.34-2.47-3.78v4.59c-.55.03-.95.05-1.41.07-.03-.37-.06-.64-.06-.91 0-1.91 0-3.81 0-5.7 1.13-.41 1.77-.03 2.29.91.62 1.11 1.38 2.14 2.31 3.19v-4.2h1.35v6.61z"/><path d="m12.94 393.88v-6.75c1.9.19 3.93-.54 5.37 1.29.8 1.01.78 2.88.03 3.97-1.37 1.97-3.4 1.51-5.4 1.49m1.45-1.22c2.04.12 2.92-.58 2.89-2.21-.03-1.51-.98-2.19-2.89-2z"/><path d="m11.81 393.87h-5.49c.68-2.18 2.47-3.48 3.51-5.45h-3.08v-1.21h5.29c-.71 2.13-2.44 3.48-3.47 5.51.86 0 1.63.04 2.39-.01.79-.05 1.14.21.85 1.16"/><path d="m39.33 393.86v-6.61h3.7v1.07h-2.22v1.52c.68.04 1.34.09 2.07.13v1.07c-.72.05-1.38.09-2.1.14v1.48h2.4v1.19h-3.85z"/><path d="m27.71 388.56c-1.15-.3-2.46-.61-3.1.64-.37.73-.41 1.93-.06 2.67.63 1.35 1.99.93 3.17.68.35.94-.01 1.32-.93 1.46-1.62.25-3.05-.27-3.76-1.48-.73-1.24-.6-3.03.31-4.17.88-1.11 2.71-1.7 4-1.16.32.13.44.74.65 1.12-.1.08-.19.16-.28.24"/><path d="m49.15 387.24v1.07c-.59.02-1.17.05-1.87.08v5.44h-1.48v-5.44h-1.85c-.05-.4-.08-.73-.13-1.15z"/><path d="m20.06 387.21h1.33v6.62h-1.33z"/><path d="m30.68 393.25c-.49.38-.8.79-1.05.76-.32-.05-.6-.45-.9-.7.26-.24.51-.64.8-.67.29-.04.62.3 1.15.61"/></g><path d="m203.67 317.34c-1.33-1.16-.77-2.33.38-3.94 2.86-3.98 5.34-8.23 8.14-12.25 2.95-4.25 6.1-8.36 9.35-12.78-7.59-9.39-14.51-19.95-13.1-33.93-9.11 16.1-20.82 29.57-37.22 39.17-.79-2.71-.57-4.27 1.14-6.17 2.42-2.68 4.57-5.81 6.03-9.1 2.13-4.78 3.36-9.95 5.33-14.81 1.1-2.71 2.97-5.1 4.37-7.7.48-.9.71-1.98.84-3 .08-.63-.36-1.32-.33-1.97.24-6.2-3.42-9.75-8.51-12.56-2.83 5.24-6.01 10.19-13.18 11.34 1.57-4.4 1.6-8.78 4.69-12.49 1.64-1.97 1.75-5.18 2.72-7.77 1.01-2.67 1.8-5.56 3.42-7.84 5.98-8.42 9.88-17.57 12.21-27.69 1.41-6.11 4.67-11.79 7.03-17.69.74-1.85 1.71-3.77 1.82-5.69.28-4.75 1.64-8.9 4.86-12.5.7-.78 1-2.27.9-3.38-.8-9.43 1.41-18.33 4-27.31 2.37-8.21 2.72-16.69-.76-24.89-.3-.7-.66-1.58-.48-2.23 2.36-8.29-1.02-16.11-1.82-24.14-1.01-10.11-1.98-20.23-2.93-30.34-.09-.94.07-1.9.11-2.86.35-.13.69-.25 1.04-.38 1.08 2.3 2.49 4.5 3.19 6.91 2.06 7.07 3.36 14.4 5.83 21.31 3.98 11.1 3.66 22.66 4.56 34.09.18 2.35.75 3.79 2.92 5.01 2.79 1.57 5.25 3.75 7.85 5.66 1.17.85 2.26 1.87 3.55 2.48 2.3 1.11 4.04.82 5.33-1.9 3.62-7.69 2.66-15.75 2.3-23.77-.23-5.23-.65-10.45-.98-15.61 2.6-1.31 3.88-.75 5.15 1.73 3.52 6.92 5.51 14 4.97 21.88-.34 4.89.25 9.83.33 14.76.02 1.43.09 3.03-.47 4.28-1.79 4.05-1.1 8.01-.42 12.14.44 2.64.45 5.59-.27 8.14-4.73 16.89-9.71 33.71-14.61 50.55-.22.75-.27 1.68-.75 2.2-3.75 4.05-4.11 9.23-5.15 14.27-.92 4.45-2.28 8.85-3.87 13.11-3.56 9.52-7.29 18.98-11.14 28.39-1.09 2.65-.97 4.89-.18 7.64 1.74 6 4.87 10.87 9.56 14.93 2.9 2.51 4.91 2.88 7.43-.08 2.81-3.29 5.51-6.81 7.57-10.6 4.29-7.88 8.43-16.15 7.63-25.34-.83-9.59-.96-19.48-5.59-28.42-.47-.9-.15-2.51.33-3.54.75-1.59 1.96-2.97 3.6-5.35 1.26 2.84 2.24 5.05 3.22 7.27 1.41 3.21 3.12 6.34 4.16 9.67 1.53 4.95 3.18 10 3.7 15.11.81 8 .84 16.08.91 24.13.02 2.84-.52 5.78-1.35 8.5-1.54 5.07-4.29 8.94-9.26 11.9-10.18 6.05-12.09 15.94-9.35 26.68 2.73 10.7 6.25 21.19 9.35 31.79.55 1.89.8 3.88 1.12 5.84.36 2.18.29 4.51 1.03 6.55 1.84 5.02.83 9.95.03 14.9-.31 1.89-.19 3.28 1.4 4.74 2.85 2.6 3.31 5.9 1.37 10.35-2.33-3.58-4.76-6.47-6.24-9.78-2.6-5.8-4.62-11.85-6.89-17.8-2.15-5.64-4.43-11.23-6.39-16.93-1.26-3.67-2.06-7.5-3.01-11.27-.35-1.4-.37-2.91-.86-4.26-1.33-3.69-4.28-5.08-7.91-3.58-4.52 1.93-8.92 4.04-13.75 6.22zm13.44-192.96c-.81 5.7-1.29 10.88-2.34 15.95-.77 3.74-2.3 7.31-3.44 10.98-.32 1.03-.61 2.12-.61 3.18-.01 6.86 2.64 12.73 6.42 18.35 1.59 2.37 3.36 2.9 5.83 2.65 3.39-.36 5.06-2.47 5.83-5.58 1.26-5.05 2.45-10.13 3.89-15.13.88-3.05 4.12-5.61 1.68-9.27-.12-.18.06-.7.26-.92 2.74-2.99.74-6.41.83-9.63.02-.59-.61-1.47-1.18-1.77-5.42-2.85-10.89-5.61-17.17-8.81zm-7.35 51.8c-.43.1-.86.2-1.29.3-2.17 7.24-3.96 14.63-6.64 21.67-2.32 6.11-4.84 12.46-8.78 17.53-3.89 5.01-3.44 9.31-1.26 14.17 2.14 4.77 7.29 5.76 10.57 1.64 3.01-3.78 5.81-8.08 7.32-12.61 2.6-7.82 4.06-16.01 6.16-24 .59-2.27.09-3.9-1.11-5.87-1.4-2.28-2.04-5.03-3.01-7.57-.66-1.75-1.31-3.51-1.96-5.26z" fill="#010000"/><path d="m140.22 26.18c5.75 3.48 10.37 7.45 13.59 13.09 4.49 7.86 9.56 15.38 14.51 22.97.87 1.33 2.19 2.51 3.55 3.35 5.42 3.34 11.02 6.39 16.4 9.8 3.32 2.1 5.95 4.95 6.97 10.24-7.28-2.88-13.83-5.47-21.03-8.32-1.05 3.38-2.15 6.83-3.18 10.31-.28.96-.31 1.99-.44 2.98-1.83 13.24-.23 16.52 10.94 23.73 4.68 3.02 9.16 6.34 13.62 9.67 1.09.81 1.74 2.21 2.67 3.46-3.3 1.47-5.94.32-8.58-.99-6.38-3.18-12.78-6.33-19.91-9.86-.18 2.98-.64 5.58-.43 8.13.27 3.33.93 6.64 1.68 9.9.25 1.09 1.16 2.11 1.95 2.98 4.95 5.47 10.07 10.8 14.9 16.38 1.86 2.16 3.1 4.85 5.29 8.36-2.59 0-4.35.39-5.84-.08-3.54-1.11-6.59-2.96-8.93-6.13-3.25-4.4-7.01-8.42-10.45-12.69-4.66-5.77-8.03-11.95-7.36-19.84.45-5.33.27-10.75.05-16.11-.42-10.13.9-20.08 2.43-30.04.18-1.14.12-2.46-.28-3.53-4.73-12.79-10.85-24.91-17.62-36.73-1.95-3.41-3.02-7.34-4.5-11.03z" fill="#010000"/></svg>