<svg enable-background="new 0 0 400 400" viewBox="0 0 400 400" xmlns="http://www.w3.org/2000/svg"><g fill="#fbfafa"><path d="m37.59 393.81c-.92.31-1.52.05-2-.78-.7-1.2-1.52-2.34-2.47-3.78v4.59c-.55.03-.95.05-1.41.07-.03-.37-.06-.64-.06-.91 0-1.91 0-3.81 0-5.7 1.13-.41 1.77-.03 2.29.91.62 1.11 1.38 2.14 2.31 3.19v-4.2h1.35v6.61z"/><path d="m12.94 393.88v-6.75c1.9.19 3.93-.54 5.37 1.29.8 1.01.78 2.88.03 3.97-1.37 1.97-3.4 1.51-5.4 1.49m1.45-1.22c2.04.12 2.92-.58 2.89-2.21-.03-1.51-.98-2.19-2.89-2z"/><path d="m11.81 393.87h-5.49c.68-2.18 2.47-3.48 3.51-5.45h-3.08v-1.21h5.29c-.71 2.13-2.44 3.48-3.47 5.51.86 0 1.63.04 2.39-.01.79-.05 1.14.21.85 1.16"/><path d="m39.33 393.86v-6.61h3.7v1.07h-2.22v1.52c.68.04 1.34.09 2.07.13v1.07c-.72.05-1.38.09-2.1.14v1.48h2.4v1.19h-3.85z"/><path d="m27.71 388.56c-1.15-.3-2.46-.61-3.1.64-.37.73-.41 1.93-.06 2.67.63 1.35 1.99.93 3.17.68.35.94-.01 1.32-.93 1.46-1.62.25-3.05-.27-3.76-1.48-.73-1.24-.6-3.03.31-4.17.88-1.11 2.71-1.7 4-1.16.32.13.44.74.65 1.12-.1.08-.19.16-.28.24"/><path d="m49.15 387.24v1.07c-.59.02-1.17.05-1.87.08v5.44h-1.48v-5.44h-1.85c-.05-.4-.08-.73-.13-1.15z"/><path d="m20.06 387.21h1.33v6.62h-1.33z"/><path d="m30.68 393.25c-.49.38-.8.79-1.05.76-.32-.05-.6-.45-.9-.7.26-.24.51-.64.8-.67.29-.04.62.3 1.15.61"/></g><path d="m186.07 25.05c2.98 2.09 6.08 3.12 6.96 5.12 1.61 3.65 4.99 3.18 7.39 4.77 2.05 1.36 4.04 3.42 5.04 5.63 1.77 3.95 4.21 7.08 7.93 9.15 3.05 1.7 3.09 3.86 1.72 6.7-.94 1.95-1.46 4.1-2.17 6.16l1.14.51c1.9-2.79 3.8-5.57 5.95-8.71 6.42 9.67 11.96 19.3 16.21 29.67 1.38 3.36 2.98 6.81 5.24 9.6 4.25 5.27 6.62 11.33 8.8 17.56.33.94.55 2.27 1.25 2.67 3.67 2.09 3.37 5.95 4.62 9.19 1.75 4.56 3.88 9.01 6.17 13.33 12 22.61 24.16 45.13 36.11 67.76 3.41 6.47 5.72 13.34 4.71 21.69-1.51-.89-2.9-1.32-3.72-2.25-5.62-6.39-11.51-12.59-16.51-19.44-3.11-4.25-4.67-9.6-7.2-14.32-.93-1.73-2.72-2.99-3.98-4.57-1.36-1.72-3.04-3.4-3.73-5.4-2.05-5.94-5.17-11.11-9.57-15.56-.62-.62-1.49-1.42-1.5-2.15-.15-6.81-5.19-11.18-8.14-16.58-1.66-3.04-3.83-5.79-5.51-8.82-1.09-1.96-2.47-2.62-4.61-2.42-2.89.27-5.81.58-8.71.46-3.15-.13-6.27-.8-9.41-1.12-2.54-.26-5.12-.67-7.65-.48-4.35.33-8.1-.91-11.71-3.16-2.46-1.53-5.11-2.77-7.91-4.26-1.82 2.65-4.36 2.86-7.5 2.71-10.54-.5-21.11-.38-31.65-.8-3.97-.16-6.95 1.31-8.77 4.41-4.57 7.79-9.65 15.44-12.97 23.77-7.85 19.7-15.04 39.68-21.96 59.74-1.98 5.74-2.11 12.13-3.09 18.22-.08.52.01 1.24-.29 1.51-5.84 5.14-5.42 12.41-6.57 19.14-.59 3.45-1.65 6.48-5.38 7.81-2.11.75-3.82.36-3.96-1.92-.19-3.27-.3-6.7.47-9.84 1.66-6.71 3.95-13.27 5.9-19.91.37-1.25.78-2.72.48-3.91-1.07-4.22-.09-8.11 1.18-12.1 3.46-10.86 6.74-21.77 10.15-32.65.67-2.13 1.19-4.45 2.45-6.2 3.26-4.53 3.7-9.67 4.18-14.91.17-1.83.49-3.95 1.55-5.33 4.77-6.23 5.11-14.18 8.49-20.94 10.45-20.89 20.54-41.96 31.23-62.73 2.65-5.15 6.72-9.69 10.74-13.96 3.89-4.14 8.55-7.55 12.86-11.29 2.97-2.58 4.27-5.83 4.35-9.77.04-3.66.53-7.29.9-11.78zm47.05 94.85c-.35-2.67-.14-4.31-.79-5.47-4.21-7.54-5.17-16.52-10.75-23.48-2.2-2.74-4.11-6-5.15-9.33-2.77-8.85-8.32-14.12-17.59-15.15-1.85-.2-4.1-.38-5.62.45-10.39 5.65-19.61 12.89-27.45 21.75-1.71 1.93-2.8 4.5-3.78 6.94-2.16 5.37-3.93 10.89-6.15 16.23-1.02 2.44-.88 3.27 1.79 3.22 5.25-.1 10.51-.2 15.74-.61 1.61-.13 3.39-.96 4.63-2.02 1.43-1.21 2.54-1.23 4.19-.69 4.13 1.37 8.29 2.64 12.51 3.7 4.32 1.09 8.5.66 11.97-2.45 1.04-.93 1.67-2.32 2.49-3.5.49.15.98.31 1.46.46.66 1.52 1.22 3.09 2.01 4.55.69 1.29 1.49 3.38 2.48 3.53 5.74.87 11.56 1.26 18.01 1.87zm53.79 73.64c-.66.12-1.31.23-1.97.35.14 1.44.28 2.88.42 4.32.86-.23 2.47-.55 2.46-.68-.15-1.36-.56-2.67-.91-3.99z" fill="#010000"/><path d="m155.55 228.98c.84 2.52 2.38 5.03 2.4 7.56.14 16.99.02 33.98-.17 50.96-.03 3.15-.95 6.37 3.23 7.62.3.09.68.36.76.62 1.33 4.42 4.81 3.34 7.92 3.09 4.64-.38 9.29-1.43 13.56 1.71.76.56 2.35.05 3.56-.06 5.99-.53 12.26-.41 15.76-6.87 3.52 5.2 3.49 5.05 8.6 2.31 1.43-.77 3.64-.62 5.34-.24 1.79.4 3.41 1.59 5.58 2.67.82-5.9 1.73-11.57 2.29-17.27.1-1.04-1.24-2.22-1.14-3.08.58-2.33 1.57-4.64 1.66-6.99.37-9.73.43-19.46.68-29.19.06-2.11.2-4.3.81-6.3.36-1.17 1.6-2.64 2.68-2.87 1.07-.23 2.92.58 3.6 1.52 3.82 5.31 5.21 11.47 5.63 17.91.12 1.82.55 3.63.87 5.44.1.54.46 1.05.47 1.58.1 9.78.07 19.57.27 29.35.25 12.18 1.07 24.36.93 36.53-.11 9.1-2.4 17.92-6.56 26.14-.66 1.3-1.5 2.57-1.81 3.95-2.61 11.42-11.49 14.88-21.42 17.07-.54.12-1.36.06-1.58.39-2.5 3.73-5.51 1.82-8.23.62-3.25-1.43-6.05-1.25-9.05.68-1.29.83-3.14 1.11-4.73 1.08-6.48-.11-12.98-.21-19.44-.77-2.78-.24-5.59-1.32-8.18-2.48-10.64-4.8-15.98-12.84-15.82-24.82.11-8.36-.88-16.74-1.39-25.11-.04-.67-.42-1.47-.17-1.98 3.07-6.37-.13-13.04 1-19.48.61-3.48 1.33-6.95 1.96-10.43.12-.64.28-1.46 0-1.94-1.87-3.17-.44-6.23 0-9.4 1.28-9.29 2.38-18.6 3.38-27.93.79-7.35 1.7-14.63 5.34-21.22.47-.12.94-.25 1.41-.37zm59.56 74.66c-1.06 1.59-2.38 3.26-3.36 5.11-1.2 2.29-2.8 2.71-5.22 2.17-4.25-.95-8.54-1.84-12.87-2.27-2.41-.24-5.11.05-7.34.93-3.22 1.28-6.33 1.59-9.76 1.48-5.09-.16-10.21.2-15.29.61-2.29.18-3.25 1.66-3.1 4.23.62 10.39 1.02 20.79 1.46 31.18.17 3.89 5.54 11.26 9.26 12.12 8.49 1.95 17 3.8 25.55 5.45 1.99.38 5.67.37 6.02-.49 1.74-4.3 5.13-4.1 8.72-4.83 4.86-.98 9.43-3.35 14.27-4.56 3.58-.89 4.98-2.97 4.57-6.19-.42-3.3-1.2-6.6-2.27-9.75-1.63-4.81-2.3-9.47-.41-14.39.78-2.05 1.05-4.36 1.16-6.58.19-3.87-.78-7.26-4.51-9.41-2.26-1.31-4.32-3.01-6.88-4.81zm-9.09-1.37c-.01.33-.01.67-.02 1 3.11 1.78 3.73 1.74 6.45-1-2.61 0-4.52 0-6.43 0z" fill="#010000"/></svg>