<svg enable-background="new 0 0 400 400" viewBox="0 0 400 400" xmlns="http://www.w3.org/2000/svg"><path d="m163.62 262.64c1.91-15.85 3.89-32.72 6.03-49.57.53-4.2-.15-5.18-4.38-5.41-5.8-.32-11.62-.64-17.38-1.33-5.38-.64-8.03-3.4-9.19-8.69-1.35-6.19-.53-12.29 1.12-18.25 2.88-10.45 6.03-20.82 9.11-31.22.25-.84.79-1.58 1.17-2.38 1.45-3.1 3.34-6.07 4.25-9.32 6.08-21.67 13.85-42.71 22.81-63.33.86-1.99 1.09-4.25 1.6-6.4.15-.65.01-1.47.37-1.94 5.07-6.65 4.48-14.81 5.97-22.39 1.09-5.54 2.32-10.9 6.49-15.14 1.67-1.7 3.65-2.19 5.42-1.25 1.14.61 1.88 2.48 2.26 3.93 1.73 6.45 3.07 13.01 4.93 19.41 3.57 12.28 6.55 24.78 12.12 36.41.5 1.05.3 2.42.56 3.62 1.24 5.65 2.5 11.3 3.79 16.94 1.12 4.9 2.23 9.8 3.41 14.69 1.78 7.37 3.71 14.7 5.41 22.09 1.58 6.84 2.97 13.73 4.4 20.61 1.82 8.75 3.84 17.47 5.31 26.28.8 4.79.97 9.75.82 14.62-.12 3.88-2.27 6.7-6.54 7.18-3.44.39-6.87.79-10.31 1.15-.89.09-1.79.04-2.68.11-4.78.35-5.03.81-4.34 5.43.56 3.74.69 7.54 1.14 11.3.98 8.08 2.53 16.13 2.92 24.24.37 7.54-.2 15.16-.86 22.71-.35 3.92-3.03 4.95-6.65 3.36-.5-.22-1.06-.42-1.59-.42-7.67.05-15.35.02-23.02.27-3.85.13-7.77.42-11.51 1.29-5.97 1.39-9.04.3-10.88-5.6-1.17-3.79-1.31-7.88-2.08-13zm31.69-193.79c-.44.12-.89.24-1.33.36-4.26 12-8.76 23.91-12.72 36.01-5.73 17.48-13.77 34.24-16.79 52.59-.11.65-.37 1.29-.6 1.91-2.22 5.95-4.68 11.82-6.6 17.86-1.03 3.24-1.33 6.76-1.55 10.17-.13 1.98 1 2.89 3.44 2.83 5-.13 10.08.01 15.02.72 5.81.83 11.48 2.54 17.27 3.55 5.83 1.02 11.73 1.7 17.6 2.43 3.43.43 6.89.76 10.34.94 2.78.15 4.55-1.04 4.1-4.17-.54-3.75-.9-7.54-1.81-11.2-1.74-7.04-4.16-13.93-5.65-21.02-3.57-16.95-6.52-34.02-10.18-50.95-2.4-11.11-6.64-21.78-7.1-33.36-.1-2.93-2.24-5.78-3.44-8.67zm1.73 198.64c.95-.13 2.6-.36 4.25-.56 3.17-.39 5.11-1.95 5.23-5.34.18-5 .64-10.02.5-15.01-.14-4.86-.88-9.69-1.38-14.54-.06-.54-.06-1.24-.39-1.57-2.11-2.09-1.31-4.51-.99-6.92.37-2.75 1.01-5.56.75-8.27-.14-1.49-1.65-3.71-2.96-4.06-4.28-1.16-8.75-1.63-13.15-2.32-3.27-.51-6.94 1.58-7.15 4.02-1.34 15.46-2.7 30.92-3.98 46.39-.13 1.53-.14 3.2.35 4.61.31.91 1.58 1.99 2.52 2.1 5.21.61 10.45.96 16.4 1.47z" fill="#010100"/><path d="m226.47 372.08c-12.32.9-24.64 1.82-36.97 2.67-2.11.15-4.25-.06-6.37-.04-3.67.03-7.38.49-10.99.07-6.51-.76-12.98-1.9-19.42-3.13-13.94-2.65-24.4-11.2-34.19-20.71-5.29-5.14-7.59-11.73-6.99-18.93 1.02-12.18-.83-24.12-2.02-36.14-.04-.45-.16-.89-.18-1.33-.48-11.39-1.13-22.78-1.34-34.18-.08-4.32.78-8.67 1.37-12.99.58-4.3 1.14-8.63 2.14-12.84.51-2.15 1.75-5.57 3.09-5.79 3.02-.5 5.46 1.9 6.22 4.98.82 3.34 1.46 6.81 1.58 10.24.61 18.57 1.02 37.14 1.52 55.72.13 5.01 1.32 6.63 6.23 7.62 2.48.5 5.25.92 7.63.34 11.53-2.79 23.13-1.77 34.74-1.26 4.92.22 9.84.66 14.75.52 6.91-.21 13.85-.51 20.68-1.47 5.17-.73 10.17-.7 15.31-.01 4.75.64 9.57.93 14.37 1.07 8.5.24 17.01.32 25.51.29 1.11 0 2.83-.74 3.21-1.6.98-2.19 1.76-4.62 1.9-7 .46-7.8.14-15.68.99-23.43.8-7.41-.9-14.44-1.6-21.63-.45-4.63-.47-9.35-.06-13.97.16-1.78 1.66-3.94 3.19-4.99 1.97-1.35 3.98.01 5.56 1.68.92.97 2 1.8 3.05 2.62 4.84 3.78 8.35 7.9 4.67 14.51-.71 1.28-.63 3.05-.77 4.6-.71 8.12-.93 16.32-2.19 24.35-1.07 6.83.48 13.34.77 20 .28 6.26-.24 12.56-.49 18.84-.19 4.92.03 9.93-.88 14.72-1.02 5.41-3 10.65-4.76 15.9-.85 2.53-2.15 4.91-3.24 7.36-1.44 3.25-3.72 5.44-7.29 6.33-8.89 2.21-17.71 4.72-26.64 6.73-3.89.88-7.99.84-11.99 1.22-.04-.3-.07-.62-.1-.94zm-100.41-51.23c-.31 5.91-.78 10.79-.71 15.67.03 1.85.76 4.48 2.09 5.38 7.41 4.99 15.09 9.57 22.72 14.23.72.44 1.72.45 2.6.62 12.72 2.46 25.59 3.17 38.39 1.39 9.95-1.39 19.8-1.31 29.73-.53 14.15 1.12 27.21-2.64 39.59-9.13 1.78-.93 4.04-2.5 4.46-4.18 1.52-6.04 2.77-12.21 3.32-18.41.44-4.96-2.66-7.58-7.64-7.69-1.23-.03-2.46.05-3.68.11-9.32.47-18.65 1.45-27.95 1.25-8.05-.17-15.96-.33-24.01.73-10.04 1.33-20.28 2.16-30.36 1.68-8.47-.4-16.66-.39-24.87 1.7-4.81 1.22-9.63 1.53-14.47-.45-2.76-1.11-5.8-1.52-9.21-2.37z" fill="#010100"/><g fill="#fafbfa"><path d="m6.4 11.7c-1-.8-1.9-1.6-2.9-2.3l.6-.7c.9.7 1.9 1.4 2.9 2.2zm-2.1 8.3c.7-2.1 1.4-4.2 2-6.4.2.1.6.3 1 .4-.7 2.3-1.3 4.4-1.9 6.4zm3-12.8c-1.1-.9-2.1-1.7-2.9-2.4l.6-.7c1 .8 2 1.5 3 2.4zm1.4-1.3v-.9h10.2v.9c-.9 4.2-2.3 7.3-4.1 9.4 1.3 1.4 3.2 2.7 5.7 4-.2.2-.4.5-.7.9-2.5-1.4-4.4-2.7-5.7-4.2-1.4 1.5-3.5 3-6.1 4.4 0 0 0 0-.1-.1-.3-.4-.5-.7-.7-.8 2.7-1.3 4.7-2.8 6.2-4.2-1.8-2.2-3-5.3-3.7-9.4zm9.2 0h-7.1c.6 3.8 1.7 6.7 3.4 8.7 1.7-2 2.9-4.8 3.7-8.7z"/><path d="m31.6 3.6h.9v2.3h4.1v9.1h1.7v.9h-16.6v-.9h1.7v-9.1h4.1v-2.3h.9v2.3h3.1v-2.3zm-4 13.3.6.8c-1.9.9-3.8 1.9-5.8 2.8-.2-.3-.3-.6-.5-.9 2-.9 3.9-1.8 5.7-2.7zm-3.2-10.1v3.7h3.1v-3.7zm0 4.5v3.7h3.1v-3.7zm4.1-4.5v3.7h3.1v-3.7zm0 4.5v3.7h3.1v-3.7zm9.1 9.1c-2.1-1.1-4.1-2-5.8-2.7l.5-.8c2.2.9 4.1 1.8 5.8 2.6zm-1.9-13.6h-3.1v3.7h3.1zm-3.2 4.5v3.7h3.1v-3.7z"/></g></svg>