<svg enable-background="new 0 0 400 400" viewBox="0 0 400 400" xmlns="http://www.w3.org/2000/svg"><path d="m374.8 390.4.4-.4c.7.5 1.3 1 1.8 1.4l-.5.5c-.5-.6-1.1-1.1-1.7-1.5zm1 7.3-.6-.3c.5-1.4 1.1-2.8 1.5-4.3.2.1.4.2.6.3-.5 1.3-1 2.8-1.5 4.3zm-.4-10.3.4-.4c.4.3 1 .8 1.7 1.4l-.5.5c-.4-.5-1-1-1.6-1.5zm2.5.3h1.7v-1h.6v1h3.5v-1h.6v1h1.8v.5h-1.8v1.4h-2v1h3.2v2h-3.2v.9h3.3v.5h-3.4c0 .3-.1.6-.1.9h4v.5h-3.7c.7.9 1.9 1.5 3.8 1.7-.1.2-.2.4-.3.6-2.1-.4-3.5-1.1-4-2.1-.4 1-1.8 1.7-4 2.2-.1-.2-.2-.4-.3-.6 2.1-.4 3.4-1 3.8-1.8h-3.4v-.5h3.6c.1-.3.1-.6.2-.9h-3.3v-.5h3.4c0-.3 0-.6 0-.9h-3.2v-2h3.3v-1h-2.1v-1.4h-1.7v-.5zm1.1 3.5v1h2.7c0-.3 0-.4 0-.4 0-.1 0-.2 0-.2 0-.1 0-.2 0-.3h-2.7zm1.2-3v.9h3.5v-.9zm4.7 3h-2.6v.6.4h2.6z" fill="#fbfcfa"/><path d="m393.6 386.7h.6v1.5h2.7v6.1h1.1v.6h-11v-.6h1.1v-6.1h2.7v-1.5h.6v1.5h2.1v-1.5zm-2.7 8.8.4.6c-1.2.6-2.5 1.3-3.8 1.9-.1-.2-.2-.4-.3-.6 1.2-.6 2.5-1.2 3.7-1.9zm-2.2-6.7v2.4h2.1v-2.4zm0 3v2.5h2.1v-2.5zm2.8-3v2.4h2.1v-2.4zm0 3v2.5h2.1v-2.5zm6 6.1c-1.4-.7-2.7-1.3-3.9-1.8l.3-.6c1.5.6 2.7 1.2 3.9 1.7zm-1.2-9.1h-2.1v2.4h2.1zm-2.1 3v2.5h2.1v-2.5z" fill="#fbfcfa"/><g fill="#010101"><path d="m172.04 133.08c-7.08-2.49-13.88-4.77-20.59-7.3-2.2-.83-4.3-2.12-6.19-3.54-3.61-2.72-7.19-5.52-10.43-8.66-1.29-1.24-1.63-3.46-2.37-5.14 3.66-2.47 8.24-1.74 12.17 1.64.76.65 1.47 1.5 2.37 1.82 9.53 3.45 18.95 7.29 28.68 10.02 6.23 1.75 12.6.7 17.99-3.84 3.15-2.66 6.71-4.83 10.06-7.26 3.94-2.85 5.66-6.83 5.61-11.59-.03-2.57.01-5.18-.48-7.68-1.03-5.31.07-10.62-.13-15.77-.35-8.87 1.95-17.22 2.62-25.83.13-1.66.74-3.28.91-4.94.44-4.39.75-8.8 1.1-13.2.16-2.07.29-4.14.44-6.22 3.92-.15 5.95 1.59 6.24 4.78.74 8.11 1.45 16.23 1.71 24.37.23 7.58.4 15.24-.45 22.74-.54 4.79.2 9.24.7 13.84.38 3.52 2.19 4.42 5.18 2.31 5.95-4.18 11.89-8.38 17.68-12.78 3.9-2.96 8.35-2.11 12.57-2 1.02.03 2.51 2.97 2.83 4.75 1.95 10.91.2 21.32-4.68 31.28-1.86 3.8-3.39 7.77-5.07 11.67-.26.61-.39 1.34-.79 1.84-5.5 6.8-10.91 13.66-16.66 20.25-1.06 1.21-3.48 1.22-5.27 1.78-.04-1.62-.09-3.24-.1-4.85 0-.42.15-.84.24-1.29-2.2-1.27-3.39-.31-3.62 1.7-.35 3.1-.42 6.23-.48 9.35-.11 5.47-.41 10.97-.07 16.42.32 5.19 1.74 10.33 1.97 15.52.29 6.78.13 13.6-.32 20.37-.3 4.45-3.35 7.22-7.74 7.46-7.77.43-15.61.94-23.35.39-8.98-.63-17.9-2.28-26.82-3.68-2.93-.46-4.5-2.36-3.5-6.48 7.12-.54 14.52-1.32 21.93-1.61 7.26-.28 14.55-.22 21.81.01 3.03.1 4.11-1.22 4.08-3.83-.03-2.68-.4-5.35-.55-8.02-.23-4.33-.37-8.67-.58-13-.17-3.45-.47-6.89-.58-10.34-.11-3.42.25-6.89-.16-10.27-.68-5.62-1.73-11.2-2.85-16.75-.15-.76-1.54-1.64-2.48-1.81-3.94-.72-7.91-1.39-11.9-1.69-4.22-.31-7.56 2.12-10.36 4.79-6.88 6.54-14.21 12.22-23.24 15.54-2.36.87-4.36 2.65-6.63 3.82-.65.33-1.99.26-2.41-.19-.43-.45-.42-1.78-.06-2.42.96-1.7 1.94-3.55 3.39-4.8 7.11-6.18 13.65-12.84 18.63-21.68zm74.72-31.76c-.43-.22-.85-.45-1.28-.67-7.43 4.74-14.88 9.47-22.28 14.26-.47.31-1 1.09-.94 1.58.47 3.76.86 7.55 1.77 11.21.29 1.16 1.97 2.39 3.26 2.8 4.62 1.47 11.01-2 13.25-7.29 2-4.73 3.77-9.57 5.29-14.47.72-2.35.64-4.94.93-7.42zm-41.46 24.2c-1.18 1.75-4.24 2.03-2.52 4.99 1.74-.74 3.13-1.34 4.77-2.04-.77-1-1.35-1.76-2.25-2.95z"/><path d="m221.66 291.32c-.52 1.8-1.24 3.53-1.49 5.31-1.14 8.17-2.05 16.36-3.25 24.52-.79 5.37.73 7.12 6.23 6.17 3.4-.59 6.69-1.81 10.09-2.41 6.1-1.07 11.77 3 12.36 9.1.5 5.22.36 10.49.59 15.74.08 1.77.04 3.69.73 5.25 1.48 3.39.42 5.58-1.64 8.55-5.96 8.56-13.66 11.66-23.92 10.78-6.63-.57-13.39.38-20.1.64-.78.03-1.81.29-2.3-.1-3.21-2.55-6.79-1.51-10.3-1.32-4.19.23-8.27-2.69-8.74-6.93-.45-4.07-.4-8.25-.08-12.34.54-6.92 2.88-13.76.68-20.77-.62-1.96.19-3.53 2.01-3.92 3.18-.68 6.46-1.04 9.71-1.28 3.62-.27 7.29-.06 10.88-.51 1.05-.13 2.6-1.75 2.72-2.81.7-6.64 1.17-13.31 1.45-19.98.06-1.4-.78-3.8-1.67-4.04-1.42-.39-3.48.27-4.82 1.16-2.68 1.78-4.8 4.55-7.63 5.93-2.97 1.45-6.48 1.89-9.81 2.48-.78.14-2.28-.69-2.54-1.41-.31-.83.04-2.4.69-3.01 3.43-3.19 6.97-6.28 10.61-9.23 4.59-3.71 9.36-7.19 13.92-10.93.81-.66 1.23-2.06 1.42-3.19.85-4.95 1.6-9.92 2.27-14.89.24-1.75.43-3.6.14-5.32-.96-5.68.37-10.89 2.98-15.84.46-.87 1.55-2.12 2.16-2.02 1.04.17 2.36 1.07 2.79 2.02.83 1.79 1.4 3.81 1.57 5.78.59 6.68 1.31 13.39 1.3 20.09-.01 4.79 2.31 7.05 6.26 8.72 6.88 2.91 13.68 5.99 20.5 9.02 3.17 1.41 5.58 3.6 7.32 7.59-11.97 2.25-22.01-2.62-33.09-6.6zm-13.83 48.38c-.08-.49-.16-.99-.24-1.48-4.31.41-8.62.72-12.91 1.27-1.73.22-2.65 1.3-3.07 3.33-1.1 5.38-.07 10.46 1.5 15.48.32 1.03 1.61 2.33 2.6 2.47 4.67.67 9.4 1.47 14.08 1.29 6.93-.26 13.84-1.29 20.75-1.99.11-.01.22-.05.32-.08 3.14-.86 5.5-2.42 5.69-6.08.28-5.46.73-10.92.83-16.38.02-.85-1.44-2.48-2.19-2.46-3.06.09-6.13.55-9.15 1.09-6.08 1.11-12.14 2.36-18.21 3.54z"/><path d="m142.91 349.05c.11-1.15.1-2.33.35-3.45 1.32-5.97 2.7-11.92 4.05-17.88.07-.33.01-.7.15-.99 5.12-10.58 3.95-22.42 6.67-33.49.82-3.33.95-6.83 1.5-10.24.47-2.94 1.1-5.85 1.64-8.78.12-.65.28-1.3.31-1.95.26-6.9.21-13.83.85-20.69.44-4.72 1.72-9.37 2.89-13.99.29-1.16 1.46-2.28 2.51-3.02 2.35-1.66 3.02-3.44 1.98-6.3-.64-1.76-.51-3.97-.15-5.87.59-3.12 2.44-3.6 4.54-1.11 3.2 3.79 3.2 8.22 2.46 12.98-1.23 7.89-1.93 15.86-2.87 23.8-.78 6.52-1.29 13.1-2.49 19.55-1.43 7.66-3.47 15.21-5.24 22.81-.03.11-.1.22-.09.32.86 10.24-4.47 18.93-7.23 28.23-1.11 3.76-3.72 7.05-5.47 10.65-1.01 2.07-1.54 4.36-2.5 6.45-.6 1.32-1.6 2.45-2.43 3.67-.48-.24-.95-.47-1.43-.7z"/></g></svg>