<svg enable-background="new 0 0 400 400" viewBox="0 0 400 400" xmlns="http://www.w3.org/2000/svg"><path d="m94.66 350.11c-5.84-1.67-6.94-6.74-7.81-11.48-2.82-15.27-5.81-30.53-7.67-45.93-1.54-12.74-1.75-25.66-2.12-38.51-.1-3.3 1.15-6.74 2.26-9.94 1.13-3.26 3.18-6.2 4.25-9.47 1.79-5.41 5.15-8.68 11.32-9.33 3.9 6.77 5.25 14.18 3.1 22.13-1.97 7.31-3.45 14.64-.91 22.11.44 1.3 1.21 2.62 2.16 3.59 2.04 2.07 4.45 3.77 6.45 5.88 2.93 3.09 6.34 4.51 10.62 4.84 20.76 1.58 41.37 1.03 61.69-3.85 8.64-2.07 13.16-9.7 11.51-18.55-1.13-6.04-2.31-12.08-3.3-18.14-.32-1.99-1-3.13-3.09-3.64-10.63-2.61-21.24-5.29-31.83-8.07-6.82-1.79-12.46-5.06-14.19-12.64-.07-.33-.15-.65-.2-.98-1.04-6.99-.47-7.81 6.54-7.72 8.72.11 17.45.85 26.15.59 4.08-.12 8.19-1.74 12.11-3.18 1.04-.38 2.08-2.66 1.97-3.98-.69-8.58-1.64-17.15-2.67-25.7-.12-1-1.06-2.19-1.96-2.76-6.71-4.25-13.31-8.74-20.36-12.34-3.07-1.57-7.16-1.81-10.71-1.58-5.11.33-9.15-1.13-12.75-4.6-14.95-14.4-25.46-31.64-32.65-50.98-6.74-18.12-9.62-36.75-6.77-56.02.7-4.74 1.89-9.42 2.98-14.09.87-3.75 4.41-2.71 6.86-3.34.75-.19 2.3 1.25 2.92 2.29 2.05 3.38 2.67 7.12 1.65 10.98-1.6 6.06-.66 11.52 1.73 17.44 3.28 8.11 4.92 16.87 7.45 25.29 3.53 11.76 8.77 22.71 15.83 32.78 8.98 12.79 21.37 20.05 36.65 22.6 2.42.4 4.93.35 7.31.88 3.05.68 4.48-.86 5.74-3.24 4.93-9.36 5.31-19.48 5.24-29.73-.08-12.08-.26-24.18.28-36.24.24-5.51 2.02-10.96 3.25-16.4.6-2.66 2.19-4.62 4.97-5.38 3.68-1 5.72.04 6.55 3.67 3.43 14.92 6.42 29.95 10.32 44.75 1.74 6.59 5.2 12.74 8.03 19.03.57 1.26 1.79 2.22 3.11 3.79 10.63-10.37 21.48-20.11 31.31-30.79 9.69-10.53 14.64-23.37 14.52-37.96-.04-5.03.11-10.09.68-15.07.75-6.55 4.1-11.68 9.82-15.39 5.15 7.47 6.45 15.9 6.13 24.43-.83 22.44-5.42 44.13-14.76 64.63-1.32 2.89-3.68 5.63-6.23 7.56-16.21 12.33-32.58 24.45-48.96 36.55-1.67 1.23-2.23 2.35-1.82 4.42 2.43 12.28 4.78 24.58 7.01 36.91.41 2.28 1.44 3.26 3.64 3.43 7.8.61 15.58 1.39 23.39 1.9 10.29.67 15.78 8.25 12.86 18.17-.21.72-1.27 1.52-2.06 1.68-12.04 2.46-24.05 5.17-36.19 7.05-5.28.82-8.39 3.06-10.03 7.88-3.53 10.36-3.49 21.12-3.5 31.86 0 .87 1.19 2.07 2.12 2.55 8.55 4.48 17.81 6.42 27.29 5.35 16.76-1.89 33.45-4.49 50.59-6.86 1.03-21.44 2.07-43.06 3.13-65.17.87.68 1.53 1.03 1.96 1.55 4.57 5.65 9.35 11.14 13.56 17.04 3.93 5.52 5.21 11.53 3.91 18.68-2.75 15.08-2.64 30.42 1.54 45.25 2.53 8.96 1.47 15.84-4.82 23.06-8.2 9.43-14.74 20.29-22.76 29.89-3.76 4.51-9.08 7.88-14.09 11.16-15.06 9.86-31.91 14.83-49.55 17.56-14.52 2.25-29.1 3.73-43.77 3.1-4.45-.19-8.79-2.3-13.22-3.39-2.14-.52-4.37-.97-6.56-1-8.17-.12-16.35.1-24.52-.12-3.54-.09-6.46.78-9.29 2.88-4.53 3.36-9.16 3.32-13.59-.32-6.75-5.53-13.32-11.29-19.86-17.07-.65-.58-.74-2.02-.73-3.05-.04-.95.46-1.89.84-3.18zm6.15-42.13c.23 2.42.33 4.42.62 6.39 1.35 9.05 6.99 15.55 13.13 21.68 1.19 1.19 2.87 2.14 4.49 2.61 9.13 2.62 18.28 5.18 27.49 7.47 3.19.79 6.61 1.23 9.88 1.05 25.46-1.38 50.9-2.93 76.35-4.52 1.81-.11 3.77-.63 5.32-1.53 12.17-7.1 24.21-14.42 36.39-21.5 3.14-1.82 5.47-4.16 7.02-7.37 1.75-3.62 4.15-7.49 1.75-11.35-2.46-3.95-7.12-3.91-11.24-3.72-10.95.51-21.88 1.3-32.82 1.99-38.72 2.44-77.44 4.87-116.16 7.32-7.22.48-14.46.97-22.22 1.48z" fill="#010100"/><g fill="#fafbfa"><path d="m6.4 11.7c-1-.8-1.9-1.6-2.9-2.3l.6-.7c.9.7 1.9 1.4 2.9 2.2zm-2.1 8.3c.7-2.1 1.4-4.2 2-6.4.2.1.6.3 1 .4-.7 2.3-1.3 4.4-1.9 6.4zm3-12.8c-1.1-.9-2.1-1.7-2.9-2.4l.6-.7c1 .8 2 1.5 3 2.4zm1.4-1.3v-.9h10.2v.9c-.9 4.2-2.3 7.3-4.1 9.4 1.3 1.4 3.2 2.7 5.7 4-.2.2-.4.5-.7.9-2.5-1.4-4.4-2.7-5.7-4.2-1.4 1.5-3.5 3-6.1 4.4 0 0 0 0-.1-.1-.3-.4-.5-.7-.7-.8 2.7-1.3 4.7-2.8 6.2-4.2-1.8-2.2-3-5.3-3.7-9.4zm9.2 0h-7.1c.6 3.8 1.7 6.7 3.4 8.7 1.7-2 2.9-4.8 3.7-8.7z"/><path d="m31.6 3.6h.9v2.3h4.1v9.1h1.7v.9h-16.6v-.9h1.7v-9.1h4.1v-2.3h.9v2.3h3.1v-2.3zm-4 13.3.6.8c-1.9.9-3.8 1.9-5.8 2.8-.2-.3-.3-.6-.5-.9 2-.9 3.9-1.8 5.7-2.7zm-3.2-10.1v3.7h3.1v-3.7zm0 4.5v3.7h3.1v-3.7zm4.1-4.5v3.7h3.1v-3.7zm0 4.5v3.7h3.1v-3.7zm9.1 9.1c-2.1-1.1-4.1-2-5.8-2.7l.5-.8c2.2.9 4.1 1.8 5.8 2.6zm-1.9-13.6h-3.1v3.7h3.1zm-3.2 4.5v3.7h3.1v-3.7z"/></g></svg>