<svg enable-background="new 0 0 400 400" viewBox="0 0 400 400" xmlns="http://www.w3.org/2000/svg"><g fill="#010100"><path d="m64.02 369.58c-.83-9.02-1.68-17.31-2.32-25.63-.62-8.12-.86-16.28-1.57-24.39-.83-9.48-6.97-14.24-15.58-16.51-2.81-.74-5.68-1.25-8.46-2.08-3.93-1.18-6.93-3.51-8.49-7.49-.71-1.8-.37-2.81 1.48-3.65 5.18-2.34 10.45-2.6 16.05-1.95 4.37.51 8.98.52 13.29-.29 6.73-1.26 9.9-6.23 9.21-13.02-.22-2.11-.41-4.27-1-6.29-2.12-7.24-1.83-14.31 1.2-21.23 1.32-3.01 1.19-5.34-1.32-8.05-3.9-4.21-3.26-11.22.74-15.36 2.7-2.8 3.11-5.98 2.1-9.62-2.12-7.65-5.19-14.67-11.29-20.14-2.9-2.6-5.33-5.72-8.34-9.01 3.77-1.76 7.2-3.54 10.77-4.96 2.65-1.05 4.41-2.83 4.98-5.44 1.49-6.86 3.46-13.74 3.9-20.69.98-15.63 1.19-31.31 1.55-46.98.03-1.27-.87-2.99-1.89-3.79-4.39-3.47-9.36-5.55-15.1-5.62-6.78-.08-10.91-4.37-14.63-9.45 4.94-4.44 10.47-6.94 16.87-7.94 4.16-.65 8.26-1.91 12.22-3.36 1.34-.49 2.79-2.23 3.15-3.66 3.73-14.97 7.25-29.99 10.83-44.99.15-.63.39-1.25.59-1.87 9.07 2.99 14.65 11.19 14.34 20.75-.17 5.12-.28 10.25-.15 15.37.05 1.85.77 3.72 1.42 5.5 3.01 8.19 4.69 9.73 13.33 9.2 9.57-.59 18.47 1.89 27.15 5.02 10.35 3.73 20.52 4.43 31.07 1.34 3.31-.97 6.9-1.01 10.18-2.06 4.15-1.33 7.65-.67 10.78 2.18 6 5.47 13.69 5.64 21.04 6.53 18.98 2.31 37.97 4.65 57.01 6.31 7.72.67 15.61-.26 23.4-.76 1.36-.09 3.08-1.32 3.86-2.53 6.23-9.72 6.7-20.4 4.7-31.38-1.62-8.91-1.94-17.67 3.56-25.5 1.89-2.69 4.43-4.92 6.85-7.56 7.98 9.06 12.75 18.85 12.49 30.48-.26 11.78-.04 23.5 2.39 35.07.34 1.6 1.59 3.46 2.97 4.33 8.01 5.08 16.18 9.89 24.73 15.06-8.45 3.36-16.41 6.6-24.43 9.65-2.14.81-3.38 1.89-3.53 4.24-.59 9.26-1.71 18.51-1.77 27.76-.11 16.23.51 32.46.62 48.69.03 3.79 1.07 5.89 5.08 6.65 3.48.65 6.83 2.07 10.19 3.3 4.92 1.8 8.5 5.1 10.87 10.28-9.06 1.53-17.85 3.01-27.01 4.55.35 7.14.66 14.15 1.04 21.16 1.06 19.56 2.2 39.12 3.16 58.68.12 2.53.74 4.41 3.1 5.31 6.12 2.35 12.26 4.62 18.42 6.87 3.65 1.34 7.47 2.31 10.96 3.97 2.08 1 3.68 3.02 5.49 4.58-.12.31-.24.61-.36.92-6.11 1.09-12.21 2.18-18.32 3.25-5.18.91-10.38 1.68-15.51 2.78-1.17.25-2.55 1.34-3.1 2.41-3.64 7.14-3.95 14.8-3.09 22.6.17 1.56.39 3.12.4 4.68.03 5.03-2.37 8.38-7.36 9.35-3.24.63-6.67.56-9.99.41-.77-.04-1.98-1.64-2.1-2.63-1.02-8.66-1.78-17.36-2.75-26.02-.53-4.77-1.34-9.51-1.99-14.27-.26-1.92-1.34-2.8-3.19-3.28-7.69-1.97-15.33-4.1-23.01-6.09-1.49-.39-3.07-.61-4.62-.61-24.97-.04-49.93-.05-74.9.04-1.38 0-3.14.55-4.06 1.49-6.67 6.83-9.48 7.31-17.11 1.13-8.55-6.93-18.22-10.92-29.04-11.91-9.13-.83-18.31-1.34-27.47-1.42-7.96-.07-15.52-.85-22.59-4.98-4.37-2.55-9.16-1.25-13.67.2-.75.24-1.39 1.36-1.75 2.21-3.76 9.04-4.98 18.48-4.68 28.23.16 5.23.25 10.53-.44 15.7-.94 6.75-5.23 12.53-11.55 16.23zm131.28-258.96c0 1.3-.03 2.3 0 3.29.8 22.24 1.57 44.49 2.45 66.73.14 3.55-.32 7.96 1.55 10.39 1.98 2.57 6.33 3.48 9.78 4.71 18.34 6.56 37.39 9.72 56.71 11.21 9.82.76 19.67.56 29.21-2.67 2.14-.73 3.17-1.75 3.39-4.19 1.3-14.36 2.88-28.7 4.21-43.07 1.01-10.92 1.61-21.83-.36-32.77-1.14-6.35-4.56-10.05-10.58-11.99-8.51-2.75-17.27-3.66-26.1-3.82-15.54-.28-31.08-.41-46.37-3.78-.82-.18-1.77-.11-2.59.11-7 1.89-13.98 3.83-21.3 5.85zm107.6 157.23c-.29-.02-.58-.03-.87-.05 0-5.7.48-11.46-.12-17.1-.85-7.96-2.44-15.84-3.84-23.73-.39-2.2-1.86-3.05-4.28-3.3-17.34-1.79-34.67-3.8-52-5.73-12.33-1.37-24.68-2.62-36.99-4.13-3.03-.37-4.59.55-5.3 3.43-.69 2.82-1.72 5.56-2.29 8.39-4.1 20.29-4.19 40.88-4.71 61.45-.19 7.51 1.48 13.59 8.41 17.34 1.18.64 2.63 1.32 3.89 1.21 7.01-.61 14-1.53 21.01-2.2 10.3-.99 20.6-3.26 30.95-.21 5.89 1.73 11.83 3.3 17.7 5.09 7.56 2.3 14.94 2.25 22.25-.98 2.04-.9 3.26-2.07 3.43-4.41.88-11.69 1.84-23.37 2.76-35.07zm-213.57-61.93c-.46 1.03-.9 1.81-1.17 2.64-.61 1.91-1.27 3.83-1.69 5.79-3.47 16.2-3.88 32.65-3.59 49.1.13 7.45 1.38 14.88 2.16 22.32.27 2.58 1.7 3.83 4.36 4.07 16.36 1.47 32.7 3.39 49.08 4.43 10.57.67 21.22.12 31.84.1 2.48-.01 3.7-1 3.78-3.78.38-13.76 1.26-27.51 1.35-41.27.06-8.47-.89-16.95-1.56-25.41-.58-7.31-4.86-11.13-11.85-12.96-10.01-2.62-20.14-2.79-30.32-2.46-14.12.46-28.19.56-42.39-2.57zm7.45-101.63c-.69 6.69-1.25 13.15-2.05 19.58-1.71 13.64-3.79 27.25-5.2 40.92-.58 5.61.07 11.37.34 17.05.07 1.44.29 2.94 2.55 3.2 17.43 2.05 34.82 4.45 52.27 6.33 8.27.89 16.55.31 24.36-3.15 2.15-.95 3.57-2.11 3.66-4.9.27-7.94 1.05-15.85 1.4-23.79.62-13.74 1.75-27.51 1.38-41.23-.32-11.95.48-12.03-12.12-14.56-12.88-2.59-26.12-3.44-39.21-4.93-3.2-.36-6.63-.91-9.66-.18-6.05 1.46-11.9 3.75-17.72 5.66z"/><path d="m231.39 133.32c8.65 2.81 16.08 6.26 22.2 12.05 3 2.84 4.2 6.47 4.09 10.59-.06 2.12-.84 3.29-3.15 3.31-2 .02-4.04.13-5.99.52-4.36.89-7.95.15-11.01-3.47-3.91-4.63-9.36-8.36-8.06-15.59.42-2.37 1.19-4.67 1.92-7.41z"/><path d="m260.21 263.37c-8.32 3.57-16.59 4.37-24.95.52-4.22-1.94-5.35-4.78-3.68-8.99.45-1.13.96-2.24 1.51-3.52 7.47.2 14.68 1.39 21.44 4.57 3.01 1.42 5.2 3.74 5.68 7.42z"/><path d="m138.96 255.81c-4.09.57-7.61 1.2-11.15 1.46-1 .07-2.54-.68-3.05-1.53-1.94-3.24-3.55-6.67-5.51-10.47 5.47-1.69 9.42-8.34 16.32-3.7 5.53 3.72 3.04 9.13 3.39 14.24z"/><path d="m134.72 146.68c-1.04-3.96-2.01-7.68-3-11.47 11.55-.51 17.39 1.81 19.18 8.67-5.33.92-10.63 1.84-16.18 2.8z"/></g><path d="m6.4 11.7c-1-.8-1.9-1.6-2.9-2.3l.6-.7c.9.7 1.9 1.4 2.9 2.2zm-2.1 8.3c.7-2.1 1.4-4.2 2-6.4.2.1.6.3 1 .4-.7 2.3-1.3 4.4-1.9 6.4zm3-12.8c-1.1-.9-2.1-1.7-2.9-2.4l.6-.7c1 .8 2 1.5 3 2.4zm1.4-1.3v-.9h10.2v.9c-.9 4.2-2.3 7.3-4.1 9.4 1.3 1.4 3.2 2.7 5.7 4-.2.2-.4.5-.7.9-2.5-1.4-4.4-2.7-5.7-4.2-1.4 1.5-3.5 3-6.1 4.4 0 0 0 0-.1-.1-.3-.4-.5-.7-.7-.8 2.7-1.3 4.7-2.8 6.2-4.2-1.8-2.2-3-5.3-3.7-9.4zm9.2 0h-7.1c.6 3.8 1.7 6.7 3.4 8.7 1.7-2 2.9-4.8 3.7-8.7z" fill="#fafbfa"/><path d="m31.6 3.6h.9v2.3h4.1v9.1h1.7v.9h-16.6v-.9h1.7v-9.1h4.1v-2.3h.9v2.3h3.1v-2.3zm-4 13.3.6.8c-1.9.9-3.8 1.9-5.8 2.8-.2-.3-.3-.6-.5-.9 2-.9 3.9-1.8 5.7-2.7zm-3.2-10.1v3.7h3.1v-3.7zm0 4.5v3.7h3.1v-3.7zm4.1-4.5v3.7h3.1v-3.7zm0 4.5v3.7h3.1v-3.7zm9.1 9.1c-2.1-1.1-4.1-2-5.8-2.7l.5-.8c2.2.9 4.1 1.8 5.8 2.6zm-1.9-13.6h-3.1v3.7h3.1zm-3.2 4.5v3.7h3.1v-3.7z" fill="#fafbfa"/></svg>