<svg enable-background="new 0 0 400 400" viewBox="0 0 400 400" xmlns="http://www.w3.org/2000/svg"><path d="m143.26 215.56c-5.45-7.14-7.47-14.91-7.61-23.05-.44-24.73-.63-49.47-.87-74.2-.01-1.19.33-2.43.73-3.57 1.45-4.23 3.46-8.32 4.42-12.65 2.79-12.6 12.31-18.41 23.08-21.9 6.62-2.14 14.1-1.62 21.2-2.28 1.18-.11 2.36-.18 3.65-.27-1.99-7.36-4.13-14.28-5.7-21.33-1.99-8.92-3.56-17.93-5.16-26.93-.16-.91.74-2 1.14-3.01.77.63 1.89 1.09 2.27 1.9 2.77 5.98 5.34 12.04 8.07 18.04 1.52 3.35 3.06 6.71 4.91 9.88 1.02 1.75 2.68 3.12 4.42 5.07 6.87-12.26 13.4-23.92 20.33-36.3 1.06 1.89 2.29 3.18 2.53 4.65 1.03 6.08.3 11.85-4.4 16.4-6.62 6.41-9.51 14.73-12.21 23.18-.31.96-.52 1.94-.77 2.92-1.79 6.95-1.86 7.37 5.33 8.81 7.1 1.42 14.39 1.87 21.58 2.89 1.94.28 3.82 1.05 5.72 1.66 2.84.91 5.77 1.63 8.44 2.9 1.52.72 3.45 2.2 3.74 3.64 1.24 6.1 2.39 12.29 2.73 18.49.94 16.98 1.39 33.98 2.18 50.97.18 4.01 1.11 7.99 1.31 12 .2 3.98-.42 8.01-.04 11.95.34 3.52 1.78 6.92 2.29 10.43.48 3.26.48 6.61.46 9.92-.01.78-.97 1.55-2.07 3.2-2.48-8.07-4.54-15.1-6.81-22.06-4.03-12.4-6.65-25.06-7.15-38.1-.09-2.36-1.17-3.55-3.18-4.05-3.03-.76-6.07-1.63-9.16-1.96-6.56-.71-13.16-1.02-19.72-1.68-2.26-.23-3.52.68-3.86 2.65-.9 5.38-2.34 10.8-2.26 16.18.29 17.37-.44 34.68-1.96 51.97-.23 2.58.5 5.25.76 7.88.12 1.22.28 2.44.22 3.66-.7 13.88-2.14 27.65-5.93 41.08-.6 2.14-1.41 4.23-2.28 6.81-3.78-3.91-6.03-8.28-6.36-13.18-.45-6.55-.38-13.17-.05-19.73 1.4-27.54 4.72-54.99 3.33-82.64-.18-3.66.31-7.38-.05-11.01-.32-3.15-1.88-5.64-5.67-5.94-1.98-.16-3.96-.75-5.88-1.33-2.77-.84-5.31-.87-8.05.46-1.43.7-3.47.6-5.13.3-6.38-1.13-12.72-2.49-19.41-3.84-.23 4.12-.39 8.09-.68 12.04-.62 8.37-1.67 16.72-1.84 25.1-.13 6.45.9 12.91 1.23 19.37.29 5.69.56 11.4.34 17.09-.08 2.52-1.39 5.01-2.15 7.52zm58.61-108.17c-.23 7.28-.25 14.56 3.52 21.16.51.9 1.34 2.03 2.22 2.25 9.63 2.45 19.31 4.74 29.36 4.25 2.43-.12 5.43-1.06 5.33-3.62-.18-4.64 3.84-8.73.93-13.86-1.25-2.21-.23-5.87.15-8.82.93-7.21-1.27-11.01-8.18-13.1-2.87-.87-5.83-1.59-8.81-1.97-7.42-.95-14.87-3.53-22.25.52-1.6.87-2.37 1.63-2.31 3.46.12 3.25.04 6.5.04 9.73zm-11.52 3.05c0-4.25.05-8.5-.04-12.75-.02-.92-.25-2.44-.79-2.65-3.1-1.23-6.37-3.16-9.48-3-9.17.47-18.27 1.96-25.97 7.67-1.5 1.11-3.61 2.38-3.94 3.9-1.24 5.74-1.93 11.61-2.7 17.44-.32 2.43 1.06 3.69 3.44 3.97 7.21.85 14.39 2.05 21.62 2.48 4.85.29 9.78-.42 14.66-.87 2.29-.21 3.41-1.52 3.26-4.11-.24-4.02-.06-8.06-.06-12.08z" fill="#010100"/><path d="m259.22 287.22c1.72 3.08 3.3 5.77 4.73 8.54.38.73.44 1.71.4 2.57-.45 10.25-1.01 20.51-1.42 30.76-.31 7.74-.9 15.43-3.85 22.68-.6 1.47-2 2.73-3.29 3.77-1.1.89-2.79 1.07-3.85 1.98-7.03 6.08-16.24 7.67-24.13 11.92-10.1 5.43-20.36 6.99-31.67 4.07-8.94-2.3-18.22-3.23-27.34-4.83-1.3-.23-2.61-.63-3.8-1.19-3.85-1.79-7.75-3.51-11.44-5.59-14.24-8.03-22.56-19.84-23.01-36.61-.26-9.71-1.14-19.43-.92-29.13.15-6.37 1.76-12.71 2.75-19.29 4.28.69 6.49 2.7 7.48 5.62 1.1 3.25 1.43 6.75 2.37 10.06.93 3.29 1.83 6.69 3.42 9.67 2.19 4.1 5.82 5.94 10.75 5.95 10.39.01 20.81.14 31.17.94 7.77.6 15.44 2.43 23.18 3.53 2.95.42 5.98.34 8.97.42 4 .11 8.07-.33 11.97.32 5.55.94 10.93.51 16.28-.7 1.23-.28 2.85-1.57 3.14-2.7 1.13-4.3 1.82-8.72 2.62-13.1.67-3.69.97-7.58 5.49-9.66zm-91.14 32.07c-8.98.48-16.24.77-23.49 1.33-1.23.09-3.43 1.3-3.42 1.97.17 10.41 1.39 20.76 11.26 26.83 6 3.68 12.52 7.06 19.26 8.86 12.79 3.43 26.08 5.08 39.16 1.96 8.51-2.03 16.55-5.95 24.92-8.65 9.55-3.08 13.46-10.08 14.35-19.38.52-5.47-2.75-8.8-8.16-9.03-12.28-.52-24.56-1.22-36.83-1.83-12.92-.66-25.74-3.5-37.05-2.06z" fill="#010100"/><g fill="#fafbfa"><path d="m6.4 11.7c-1-.8-1.9-1.6-2.9-2.3l.6-.7c.9.7 1.9 1.4 2.9 2.2zm-2.1 8.3c.7-2.1 1.4-4.2 2-6.4.2.1.6.3 1 .4-.7 2.3-1.3 4.4-1.9 6.4zm3-12.8c-1.1-.9-2.1-1.7-2.9-2.4l.6-.7c1 .8 2 1.5 3 2.4zm1.4-1.3v-.9h10.2v.9c-.9 4.2-2.3 7.3-4.1 9.4 1.3 1.4 3.2 2.7 5.7 4-.2.2-.4.5-.7.9-2.5-1.4-4.4-2.7-5.7-4.2-1.4 1.5-3.5 3-6.1 4.4 0 0 0 0-.1-.1-.3-.4-.5-.7-.7-.8 2.7-1.3 4.7-2.8 6.2-4.2-1.8-2.2-3-5.3-3.7-9.4zm9.2 0h-7.1c.6 3.8 1.7 6.7 3.4 8.7 1.7-2 2.9-4.8 3.7-8.7z"/><path d="m31.6 3.6h.9v2.3h4.1v9.1h1.7v.9h-16.6v-.9h1.7v-9.1h4.1v-2.3h.9v2.3h3.1v-2.3zm-4 13.3.6.8c-1.9.9-3.8 1.9-5.8 2.8-.2-.3-.3-.6-.5-.9 2-.9 3.9-1.8 5.7-2.7zm-3.2-10.1v3.7h3.1v-3.7zm0 4.5v3.7h3.1v-3.7zm4.1-4.5v3.7h3.1v-3.7zm0 4.5v3.7h3.1v-3.7zm9.1 9.1c-2.1-1.1-4.1-2-5.8-2.7l.5-.8c2.2.9 4.1 1.8 5.8 2.6zm-1.9-13.6h-3.1v3.7h3.1zm-3.2 4.5v3.7h3.1v-3.7z"/></g></svg>