<svg enable-background="new 0 0 400 400" viewBox="0 0 400 400" xmlns="http://www.w3.org/2000/svg"><path d="m217.33 304.48c0 .54.04.67-.01.76-3.86 7.69-.45 13.97 3.95 20.01 3.49 4.81 3.62 9.89 1.51 15.31-5.55-.12-10.18-.79-13.7-6.26-6.15-9.59-13.28-18.55-20.01-27.77-.64-.88-1.34-1.72-2.31-2.94-2.89 8.65-5.71 16.85-8.3 25.12-.43 1.37.05 3.09.3 4.61 1.51 9.26 3.32 18.49 4.5 27.79.51 4.02-.26 8.2-.45 12.31-.27.04-.54.08-.82.12-.32-.83-.68-1.64-.95-2.48-3.04-9.23-6.23-18.42-9-27.74-.92-3.09-1.41-6.59-.98-9.75.75-5.59-1.79-10.22-3.09-15.25-.5-1.92-.63-4.2-.1-6.08 2.48-8.7 5.17-17.35 7.98-25.95.55-1.67 1.77-3.29 3.06-4.53 7.33-7.02 12.76-15.22 15.89-24.88.93-2.86.83-5.61-.78-8.37-10.62-18.14-13.04-37.94-10.75-58.36 1.49-13.31 7.46-25.11 14.15-36.64 7.72-13.3 18.75-23.22 30.6-32.51 2.36-1.85 5.82-3.65 6.4-6.04.57-2.39-2.03-5.44-2.88-8.31-.94-3.16-1.95-6.41-2.12-9.66-.8-15.65-1.43-31.31-1.86-46.97-.08-3.02-1.43-3.83-3.9-4.18-5.93-.84-11.61.24-17.1 2.33-8.87 3.39-17.52 7.42-26.54 10.31-6.96 2.23-14.32 3.31-21.56 4.51-4.39.73-7.9-2.7-7.8-7.16.02-.89.87-1.95 1.61-2.6 6.56-5.75 14.3-9.12 22.79-10.7 12.84-2.4 25.2-6.12 36.4-13 4.31-2.65 9.05-2.84 13.79-3.57 6.17-.95 12.03-.84 18.02 1.54 9.95 3.96 20.08 7.51 30.26 10.87 6.66 2.2 10.4 6.95 12.25 13.16 1.62 5.43 2.76 11.1 3.23 16.73.31 3.76-.89 7.66-1.5 11.48-.18 1.09-.68 2.13-1.04 3.18-1.87 5.38-2.82 11.39-5.89 15.97-3.03 4.51-8.22 7.58-12.45 11.28-4.93 4.31-6.31 8.42-4.22 13.62.64 1.59 1.83 3.07 3.08 4.28 16.18 15.76 30.56 33.03 43.04 51.82 8.61 12.97 13.55 27.16 12.15 43.05-.02.22-.01.45-.02.67-.48 7.56-1.35 8.67-9.46 11.44-2.91-7.02-5.94-14.05-8.74-21.17-3.92-9.98-7.34-20.16-11.62-29.98-1.78-4.08-5.02-7.61-7.98-11.06-1.44-1.68-3.77-2.61-6.04-4.1-4.16 7.48-8.11 14.45-11.85 21.54-.38.72.37 2.26.94 3.21 11.91 19.98 23.96 39.87 35.77 59.9 5.13 8.7 6.78 18.65 8.8 28.36 3.55 17.05 4.61 34.35 4.64 51.73 0 2.09-.62 3.25-2.57 4.08-2.77 1.17-5.41 2.66-8.34 4.13-.35-.92-.74-1.68-.92-2.48-3.88-17.8-7.61-35.64-11.69-53.39-1.01-4.41-3.01-8.62-4.81-12.82-5.56-12.94-11.19-25.85-16.94-38.7-1.4-3.14-3.15-6.16-5.1-9-5.37-7.84-10.99-15.52-16.38-23.36-1.14-1.66-2.29-2.26-4.16-1.65-3.61 1.18-7.23 2.33-10.83 3.5-2.52.82-5.24 2.42-7.42-.24-2.17-2.66-2.21-6.15-.64-8.88 4.54-7.88 8.39-16.27 16.27-21.82 3.81-2.68 7.19-6.1 10.28-9.61 2.01-2.27 3.67-5.15 4.57-8.04 1.49-4.78.88-9.11-3.26-13.02-9.62-9.1-11.8-9.65-23.42-3.36-1.46.79-2.96 1.68-4.08 2.86-5.61 5.93-11.22 11.87-16.61 18.01-6.11 6.95-10.1 14.86-10.95 24.33-1.11 12.31-1.74 24.54.79 36.76.69 3.33 2.21 5.8 5.02 7.91 11.1 8.33 22.03 16.88 32.98 25.41 1.48 1.15 2.71 2.63 3.99 4.02 16.35 17.76 22.98 39.76 27.36 62.74 2.86 15.02 3.08 30-.72 44.93-1.79 7.02-2.67 7.9-9.7 8.58-.28-1.04-.53-2.11-.85-3.16-.73-2.4-2.28-3.7-4.8-2.84-3.09 1.05-4.37-.52-4.42-3.13-.06-3.1.26-6.24.72-9.32 2.75-18.27 4-36.51-1.12-54.59-3.92-13.85-11.07-25.85-21.43-35.88-3.17-3.06-6.58-5.71-11.24-6.18-2.1-.21-3.53.29-4.77 2.16-2.96 4.48-6.01 8.92-9.3 13.16-5.05 6.5-4.88 13.57.72 22.01 2.61 3.93 5.95 6.52 10.78 6.98 1.23.1 2.39.56 3.7.9zm34.15-201.65c8.45-4.4 13.58-11.86 17.86-19.39 3.46-6.08 3.38-13.59 1.7-20.67-2.7-11.44-12.99-19.79-27.14-18.66 2.05 11.93.61 23.82-.23 35.75-.59 8.44 2.26 16.06 7.81 22.97z" fill="#010100"/><path d="m82.19 117.61c7.06.92 10.46 5.98 9.35 13.49-.64 4.31-1.53 8.59-1.96 12.92-.29 2.98-.17 6.03.1 9.02.46 4.98 1.64 6.44 6.53 7.53 3.36.75 6.9 1.48 10.28 1.22 9.34-.72 18.64-2.01 27.97-2.96 2.17-.22 3.27-1.37 3.56-3.3.95-6.27 1.82-12.56 2.64-18.85.21-1.66-.21-3.44.23-5.01.61-2.2 1.31-4.64 2.75-6.31 3.7-4.29 9.21-3.2 11.13 1.97.58 1.55 1 3.23 1.11 4.88.63 9.02.98 18.06 1.75 27.06 1.28 15.01-2.59 29.04-7.67 42.88-1.62 4.4-3.12 8.87-5.08 13.12-.97 2.11-2.55 4.22-4.4 5.58-5.18 3.79-11.25 5.32-17.6 5.79-10.59.78-21 .11-30.94-4.03-1.4-.58-2.78-1.47-3.85-2.53-9.25-9.24-15.25-19.92-15.65-33.43-.68-22.76 1.17-45.13 8.83-66.76.25-.73.57-1.43.92-2.28zm34.67 92.38c7.01-.27 13.28-2.16 18.59-6.76.74-.64 1.69-1.41 1.86-2.25 1.09-5.66 2.51-11.33 2.82-17.05.29-5.38-2.25-7.18-7.72-7.27-7.59-.13-15.17-.48-22.75-.49-4.1-.01-8.27.13-12.26.93-2.02.4-4.97 2.11-5.35 3.73-2.23 9.45 1.38 24.55 14.65 27.31 3.37.7 6.77 1.24 10.16 1.85z" fill="#010100"/><g fill="#fafbfa"><path d="m6.4 11.7c-1-.8-1.9-1.6-2.9-2.3l.6-.7c.9.7 1.9 1.4 2.9 2.2zm-2.1 8.3c.7-2.1 1.4-4.2 2-6.4.2.1.6.3 1 .4-.7 2.3-1.3 4.4-1.9 6.4zm3-12.8c-1.1-.9-2.1-1.7-2.9-2.4l.6-.7c1 .8 2 1.5 3 2.4zm1.4-1.3v-.9h10.2v.9c-.9 4.2-2.3 7.3-4.1 9.4 1.3 1.4 3.2 2.7 5.7 4-.2.2-.4.5-.7.9-2.5-1.4-4.4-2.7-5.7-4.2-1.4 1.5-3.5 3-6.1 4.4 0 0 0 0-.1-.1-.3-.4-.5-.7-.7-.8 2.7-1.3 4.7-2.8 6.2-4.2-1.8-2.2-3-5.3-3.7-9.4zm9.2 0h-7.1c.6 3.8 1.7 6.7 3.4 8.7 1.7-2 2.9-4.8 3.7-8.7z"/><path d="m31.6 3.6h.9v2.3h4.1v9.1h1.7v.9h-16.6v-.9h1.7v-9.1h4.1v-2.3h.9v2.3h3.1v-2.3zm-4 13.3.6.8c-1.9.9-3.8 1.9-5.8 2.8-.2-.3-.3-.6-.5-.9 2-.9 3.9-1.8 5.7-2.7zm-3.2-10.1v3.7h3.1v-3.7zm0 4.5v3.7h3.1v-3.7zm4.1-4.5v3.7h3.1v-3.7zm0 4.5v3.7h3.1v-3.7zm9.1 9.1c-2.1-1.1-4.1-2-5.8-2.7l.5-.8c2.2.9 4.1 1.8 5.8 2.6zm-1.9-13.6h-3.1v3.7h3.1zm-3.2 4.5v3.7h3.1v-3.7z"/></g></svg>