<svg enable-background="new 0 0 400 400" viewBox="0 0 400 400" xmlns="http://www.w3.org/2000/svg"><path d="m108.52 374.92c-.21-4.61-.33-8.83-.6-13.03-.84-13.16-2.36-26.31-2.43-39.47s.55-26.41 2.18-39.46c2.1-16.76 5.22-33.37 4.25-50.37-1.08-19.04 2.84-37.65 5.1-56.4.71-5.84 2.3-11.64-4.66-15.49 6.98-4.01 13.94-5.52 21.06-5.65 11.51-.21 23.04.33 34.55.18 6.81-.09 13.61-.83 20.4-1.45.69-.06 1.82-1.31 1.83-2.03.13-7.72.17-15.45-.03-23.17-.02-.92-1.42-2.38-2.41-2.6-5.31-1.18-10.67-2.62-16.06-2.88-5.65-.28-11.37.61-17.05 1.1-11.57 1.01-21.3-1.93-27.54-12.55-.16-.28-.24-.6-.53-1.34 6.56-.69 12.95-1.37 19.33-2.03 11.91-1.23 23.82-2.41 35.72-3.7 4.24-.46 5.74-2.32 4.53-6.23-4.79-15.5-5.55-31.68-8.32-47.52-.41-2.36-1.32-3.42-3.45-3.59-9.13-.73-18.29-1.17-27.38-2.2-4.47-.5-9.07-1.49-13.15-3.3-2.53-1.12-4.21-4.18-6.27-6.37.22-.34.44-.68.67-1.02 7.38-1.1 14.76-2.21 22.15-3.3 10.18-1.5 20.33-3.26 30.55-4.38 6.54-.72 13.19-.87 19.76-.6 11.71.48 23.43 1.21 35.09 2.35 5.75.56 11.39 2.26 17.06 3.49 2.13.46 3.64 1.49 3.76 4 .13 2.56-1.66 3.29-3.48 3.73-2.59.63-5.25 1.01-7.9 1.31-1.66.19-3.36-.01-5.03.05-7.11.26-10.13 2.78-11.57 9.7-3.21 15.43-6.75 30.8-9.46 46.31-1.47 8.43-2.7 7.38 6.35 9.81 5.89 1.58 12.12 1.89 18.19 2.78 6.1.89 11.38 3.05 14.29 9.34-5.37 3.78-11.32 5-17.5 5.34-7.58.43-15.17.83-22.77 1.01-3.15.08-4.96 1.64-5.29 4.4-.49 4.16-.62 8.39-.51 12.59.09 3.34 1.09 6.67 1.07 9.99-.02 3.11 1.37 4.48 3.99 5.65 8.71 3.88 17.95 4.52 27.25 4.61 11.98.11 23.96.1 35.7 2.87 1.99.47 4.11 1.33 5.65 2.62 3.17 2.67 3.17 4.96.46 8.03-3.68 4.19-5.34 8.83-5.62 14.6-.76 15.64-2.32 31.24-3.49 46.86-.16 2.21-.11 4.48.23 6.67.78 4.93.82 9.64-1.07 14.47-.86 2.21-.18 5.07 0 7.62.49 6.82 1.16 13.62-1.3 20.26-.25.68.38 1.73.69 2.58.57 1.53 1.83 3.09 1.71 4.55-1 12.24-2.11 24.48-3.5 36.69-.39 3.39-1.89 6.65-2.74 10-.61 2.43-2.18 3.41-4.86 3.71-1.07-7.82-4.76-15.14-1.91-23.35.88-2.52.45-5.76-.19-8.49-1.81-7.72-2.08-15.47-1.49-23.32.44-5.91.53-11.86 1.09-17.76.56-5.92-1.9-10.38-6.01-14.24-.16-.15-.32-.32-.51-.43-12.07-7.63-19.37-19.26-26.29-31.23-2.78-4.81-6.07-8.97-10.52-12.72-6.31-5.31-12.08-11.69-13.89-20.45-.74-3.57-2.28-6.84-6.07-8.3-1.79-.69-3.14-.68-4.57 1.21-13.75 18.08-31.2 32.33-48.92 46.21-3.14 2.46-7.28 3.93-11.19 5.08-6.54 1.93-10.02 5.88-10.43 12.67-1.05 17.42-1.98 34.84-3.27 52.24-.95 12.82-2.37 25.6-3.62 38.4-.78 8.02-1.43 16.05-2.5 24.03-.58 4.59-2.35 8.79-7.31 11.31zm21.99-149.94c1.79-.72 3.02-.99 3.99-1.65 4.61-3.12 9.65-5.82 13.6-9.65 8.34-8.08 16.12-16.73 24.07-25.2 3.44-3.67 6.82-7.4 10.04-11.26.66-.79.83-2.41.54-3.45-.26-.92-1.43-2.2-2.27-2.25-4.78-.33-9.59-.66-14.36-.38-8.8.52-17.56 1.45-26.35-.4-3.97-.84-5.59.28-6.93 4.1-.46 1.32-.52 2.84-.53 4.26-.05 5.35.2 10.71-.04 16.05-.43 9.7-1.13 19.38-1.76 29.83zm89.05-48.87c.29 3.39 1.19 6.07 4.25 7.97 2.29 1.42 4.56 3.29 6.09 5.48 9.62 13.73 19.01 27.62 28.52 41.42.78 1.13 1.1 3.05 3.44 2.2 1.99-.72 2.64-1.78 2.65-3.9.09-12.63.39-25.26.54-37.89.1-8.47-.35-9.01-8.58-11.55-1.38-.43-2.79-.89-4.22-1.06-7.87-.93-15.75-1.87-23.64-2.62-2.94-.29-5.94-.05-9.05-.05zm-2.17-130.78c-9.38-4.63-16.88.87-25.11 3.42 3.18 12.93 2.62 26.39 10.33 38.49 1.12-1.75 2.19-2.9 2.66-4.25 2.03-5.91 3.9-11.87 5.81-17.83 2.13-6.66 4.24-13.33 6.31-19.83z" fill="#010100"/><path d="m148.62 152.57c-2.6.11-2.6.11-4.6-4.64 3.28-.04 4.1.79 4.6 4.64z" fill="#010100"/><g fill="#fafbfa"><path d="m6.4 11.7c-1-.8-1.9-1.6-2.9-2.3l.6-.7c.9.7 1.9 1.4 2.9 2.2zm-2.1 8.3c.7-2.1 1.4-4.2 2-6.4.2.1.6.3 1 .4-.7 2.3-1.3 4.4-1.9 6.4zm3-12.8c-1.1-.9-2.1-1.7-2.9-2.4l.6-.7c1 .8 2 1.5 3 2.4zm1.4-1.3v-.9h10.2v.9c-.9 4.2-2.3 7.3-4.1 9.4 1.3 1.4 3.2 2.7 5.7 4-.2.2-.4.5-.7.9-2.5-1.4-4.4-2.7-5.7-4.2-1.4 1.5-3.5 3-6.1 4.4 0 0 0 0-.1-.1-.3-.4-.5-.7-.7-.8 2.7-1.3 4.7-2.8 6.2-4.2-1.8-2.2-3-5.3-3.7-9.4zm9.2 0h-7.1c.6 3.8 1.7 6.7 3.4 8.7 1.7-2 2.9-4.8 3.7-8.7z"/><path d="m31.6 3.6h.9v2.3h4.1v9.1h1.7v.9h-16.6v-.9h1.7v-9.1h4.1v-2.3h.9v2.3h3.1v-2.3zm-4 13.3.6.8c-1.9.9-3.8 1.9-5.8 2.8-.2-.3-.3-.6-.5-.9 2-.9 3.9-1.8 5.7-2.7zm-3.2-10.1v3.7h3.1v-3.7zm0 4.5v3.7h3.1v-3.7zm4.1-4.5v3.7h3.1v-3.7zm0 4.5v3.7h3.1v-3.7zm9.1 9.1c-2.1-1.1-4.1-2-5.8-2.7l.5-.8c2.2.9 4.1 1.8 5.8 2.6zm-1.9-13.6h-3.1v3.7h3.1zm-3.2 4.5v3.7h3.1v-3.7z"/></g></svg>