<svg enable-background="new 0 0 400 400" viewBox="0 0 400 400" xmlns="http://www.w3.org/2000/svg"><path d="m374.8 390.4.4-.4c.7.5 1.3 1 1.8 1.4l-.5.5c-.5-.6-1.1-1.1-1.7-1.5zm1 7.3-.6-.3c.5-1.4 1.1-2.8 1.5-4.3.2.1.4.2.6.3-.5 1.3-1 2.8-1.5 4.3zm-.4-10.3.4-.4c.4.3 1 .8 1.7 1.4l-.5.5c-.4-.5-1-1-1.6-1.5zm2.5.3h1.7v-1h.6v1h3.5v-1h.6v1h1.8v.5h-1.8v1.4h-2v1h3.2v2h-3.2v.9h3.3v.5h-3.4c0 .3-.1.6-.1.9h4v.5h-3.7c.7.9 1.9 1.5 3.8 1.7-.1.2-.2.4-.3.6-2.1-.4-3.5-1.1-4-2.1-.4 1-1.8 1.7-4 2.2-.1-.2-.2-.4-.3-.6 2.1-.4 3.4-1 3.8-1.8h-3.4v-.5h3.6c.1-.3.1-.6.2-.9h-3.3v-.5h3.4c0-.3 0-.6 0-.9h-3.2v-2h3.3v-1h-2.1v-1.4h-1.7v-.5zm1.1 3.5v1h2.7c0-.3 0-.4 0-.4 0-.1 0-.2 0-.2 0-.1 0-.2 0-.3h-2.7zm1.2-3v.9h3.5v-.9zm4.7 3h-2.6v.6.4h2.6z" fill="#fbfcfa"/><path d="m393.6 386.7h.6v1.5h2.7v6.1h1.1v.6h-11v-.6h1.1v-6.1h2.7v-1.5h.6v1.5h2.1v-1.5zm-2.7 8.8.4.6c-1.2.6-2.5 1.3-3.8 1.9-.1-.2-.2-.4-.3-.6 1.2-.6 2.5-1.2 3.7-1.9zm-2.2-6.7v2.4h2.1v-2.4zm0 3v2.5h2.1v-2.5zm2.8-3v2.4h2.1v-2.4zm0 3v2.5h2.1v-2.5zm6 6.1c-1.4-.7-2.7-1.3-3.9-1.8l.3-.6c1.5.6 2.7 1.2 3.9 1.7zm-1.2-9.1h-2.1v2.4h2.1zm-2.1 3v2.5h2.1v-2.5z" fill="#fbfcfa"/><g fill="#010101"><path d="m22.39 296.47c16.49-5.28 32.51-11.36 49.59-12.51 8.75-.59 17.64.58 26.45 1.25 18.96 1.44 37.84 3.37 56.58 6.89 7.93 1.49 16.28.78 24.44 1 30.75.84 61.5 1.5 92.24 2.51 24.48.81 48.95 2.01 73.42 3.11 7.37.33 14.73 1.01 22.1 1.32 2.81.12 4.27 1.59 5.27 3.88 2.42 5.56-.31 11.41-6.07 12.93-12.68 3.36-25.55 4.42-38.58 2.89-18.23-2.15-36.34-.86-54.56.71-17.23 1.48-34.63 1.92-51.93 1.56-17.75-.37-35.51-1.97-53.2-3.64-7.94-.75-15.79-.71-23.73-.67-6.52.03-13.07-1.44-19.56-2.56-4.06-.7-7.98-.91-11.87.58-5.07 1.94-10.14.72-15.19.03-23.71-3.26-47.41-6.62-71.13-9.77-2.68-.36-3.66-1.26-3.64-3.85.01-1.75-.38-3.52-.63-5.66z"/><path d="m364.49 173.32c-9.32 3.03-18.7 3.97-28.07 4.06-41.19.4-82.38.53-123.56.74-9.07.05-18.15.27-27.2-.05-19.1-.66-37.94 2.3-56.9 3.61-11.59.8-22.64 3.95-33.93 6.07-22.81 4.28-44.75 1.37-65.68-8.78-1.66-.8-4.73-7.75-3.97-9.31.34-.69 1.28-1.17 2.04-1.57 7.37-3.89 15.21-6.42 23.53-5.29 12.76 1.73 25.46.54 38.19.22 17.89-.46 35.8-.65 53.69-1.21 4.86-.15 9.93-.51 14.51-1.99 14.1-4.55 28.68-5.66 43.23-7.24 18.75-2.04 37.24.18 55.75 2.86 23.48 3.4 47.01 4.02 70.55.37 1.69-.26 3.56-.03 5.24.39 9.33 2.3 18.61 4.83 27.96 7.04 2.44.58 3.69 1.56 3.83 4.07.12 1.9.49 3.76.79 6.01z"/><path d="m356.17 253.62c-11.38-.45-22.23-.52-33.02-1.41-10.46-.86-20.82-2.84-31.28-3.81-7.55-.7-15.19-.57-22.79-.74-30.52-.68-61.04-1.57-91.56-1.87-13.4-.13-26.81 1.08-40.21 1.45-14.08.39-28.17.92-42.23.63-13.26-.28-26.22-2.78-38.31-8.66-.6-.29-1.2-.59-1.78-.93-.17-.1-.26-.35-.82-1.17 1.65-1.37 3.19-3.12 5.1-4.16 11.91-6.43 25.03-7.75 38.2-9.09 9.1-.93 18.1-2.89 27.2-3.8 5.83-.59 11.79-.46 17.66-.06 33.8 2.32 67.59 4.81 101.38 7.24 19.29 1.39 38.6 2.67 57.88 4.21 4.55.36 9 1.76 13.54 2.29 10.08 1.19 20.19 2.13 30.3 3.16 1.33.14 2.68.12 4.01.27 4.32.49 6.76 2.68 7.11 7.07.25 2.93-.21 5.93-.38 9.38z"/><path d="m105.48 89.79c19.53-.88 39.09-1.38 58.6-2.71 33.9-2.31 67.76-5.26 101.67-7.61 4.99-.35 10.13 1.03 15.17 1.83 1.35.22 2.73 1.07 3.83 1.97 3.8 3.12 3.16 8.07-1.13 10.19-7.23 3.58-14.78 3.83-22.58 2.57-8.18-1.32-16.22-.59-24.18 1.84-23.28 7.13-47.15 11.38-71.33 13.64-15.68 1.47-31.45 2.18-47.19 2.55-8.56.2-17.15-1.25-25.74-1.51-4.29-.13-8.74.23-12.88 1.29-7.02 1.8-13.75 1.75-20.75-.13-7.54-2.03-15.27-3.35-22.91-5.05-5.1-1.14-8.93-5.89-8.93-10.54 0-2 .81-2.97 2.52-3.77 9.38-4.38 19.33-6.52 29.57-6.49 15.42.03 30.83.65 46.25 1.01-.01.31 0 .61.01.92z"/></g></svg>