<svg enable-background="new 0 0 400 400" viewBox="0 0 400 400" xmlns="http://www.w3.org/2000/svg"><path d="m374.8 390.4.4-.4c.7.5 1.3 1 1.8 1.4l-.5.5c-.5-.6-1.1-1.1-1.7-1.5zm1 7.3-.6-.3c.5-1.4 1.1-2.8 1.5-4.3.2.1.4.2.6.3-.5 1.3-1 2.8-1.5 4.3zm-.4-10.3.4-.4c.4.3 1 .8 1.7 1.4l-.5.5c-.4-.5-1-1-1.6-1.5zm2.5.3h1.7v-1h.6v1h3.5v-1h.6v1h1.8v.5h-1.8v1.4h-2v1h3.2v2h-3.2v.9h3.3v.5h-3.4c0 .3-.1.6-.1.9h4v.5h-3.7c.7.9 1.9 1.5 3.8 1.7-.1.2-.2.4-.3.6-2.1-.4-3.5-1.1-4-2.1-.4 1-1.8 1.7-4 2.2-.1-.2-.2-.4-.3-.6 2.1-.4 3.4-1 3.8-1.8h-3.4v-.5h3.6c.1-.3.1-.6.2-.9h-3.3v-.5h3.4c0-.3 0-.6 0-.9h-3.2v-2h3.3v-1h-2.1v-1.4h-1.7v-.5zm1.1 3.5v1h2.7c0-.3 0-.4 0-.4 0-.1 0-.2 0-.2 0-.1 0-.2 0-.3h-2.7zm1.2-3v.9h3.5v-.9zm4.7 3h-2.6v.6.4h2.6z" fill="#fbfcfa"/><path d="m393.6 386.7h.6v1.5h2.7v6.1h1.1v.6h-11v-.6h1.1v-6.1h2.7v-1.5h.6v1.5h2.1v-1.5zm-2.7 8.8.4.6c-1.2.6-2.5 1.3-3.8 1.9-.1-.2-.2-.4-.3-.6 1.2-.6 2.5-1.2 3.7-1.9zm-2.2-6.7v2.4h2.1v-2.4zm0 3v2.5h2.1v-2.5zm2.8-3v2.4h2.1v-2.4zm0 3v2.5h2.1v-2.5zm6 6.1c-1.4-.7-2.7-1.3-3.9-1.8l.3-.6c1.5.6 2.7 1.2 3.9 1.7zm-1.2-9.1h-2.1v2.4h2.1zm-2.1 3v2.5h2.1v-2.5z" fill="#fbfcfa"/><path d="m266.52 325.43c6.16 1.12 11.49 2.81 16.85 2.92 15.31.31 30.63.09 45.95-.17 5.79-.1 10.52 1.82 14.31 6 2.8 3.08 2.48 4.85-.86 7.3-9.32 6.86-20.11 10.25-31.22 12.44-8.52 1.68-17.26 2.23-25.85 3.61-6.94 1.12-13.99 2.14-20.67 4.23-15.55 4.86-31.24 4.59-47.13 2.86-2.16-.24-4.82.18-6.63 1.3-4.17 2.58-8.69 2.02-13.06 2.11-39.15.81-78.29 2.05-117.35 4.95-3.29.24-6.51 1.5-9.77 2.24-1.74.39-3.5.93-5.25.93-5.92 0-7.53-1.57-6.94-7.3.39-3.73-1.34-8.3 3.39-10.73 3.53-1.81 6.9-4.1 10.62-5.35 3.66-1.23 7.67-1.49 11.54-2.04 6.53-.93 13.1-1.6 19.6-2.7 2.71-.46 5.37-1.54 7.91-2.65 8.64-3.78 7.46-8.72 2.31-16.13-2.4-3.46-4.94-6.87-6.96-10.55-1.54-2.81-2.31-6.04-3.51-9.05-2.33-5.86-5.13-11.35-10.45-15.23-5.39-3.93-9.47-9.06-13-14.74-4.83-7.79-9.98-15.39-15.09-23.01-3.1-4.62-6.85-8.49-12.35-10.4-1.33-.46-2.82-1.76-3.31-3.04-.99-2.57-1.38-5.37-1.94-8.1-.77-3.74 2.68-4.59 4.63-6.25 8.56-7.3 15.08-16.17 20.49-25.93 5.36-9.68 10.4-19.56 16.1-29.03 3.15-5.23 7.25-9.92 11.11-14.69 22.83-28.18 45.7-56.32 68.6-84.44 1.25-1.54 2.76-2.93 4.35-4.12 8.15-6.1 16.42-12.05 24.52-18.22 1.26-.96 2.32-2.68 2.67-4.24 1.07-4.68 1.82-9.44 2.53-14.19.33-2.18 1.02-3.81 3.37-4.38.96-.24 1.81-.93 2.77-1.18 2.87-.75 5.17-3.73 8.7-1.91 4.64 2.4 8.65 5.43 9.95 10.71 1.2 4.87 1.8 9.89 2.77 14.82.34 1.72.68 3.57 1.55 5.05 17.58 30.29 30.66 62.57 42.43 95.45 1.53 4.28 4.79 7.94 7.25 11.89.82 1.32 1.88 2.54 2.42 3.97 4.67 12.31 9.43 24.6 13.81 37.01 4.78 13.56 8.59 27.44 7.57 41.97-.54 7.75-2.32 15.43-3.99 23.05-.38 1.75-2.36 3.48-4.03 4.57-4.53 2.96-7.51 6.78-8.59 12.15-2.2 10.87-8.92 19.35-15.1 28.1-2.11 2.99-4.18 6.03-7.02 10.14zm-56.11-264.41c-6.76 9.22-12.94 17.31-18.73 25.66-3.7 5.33-7.93 9.84-13.63 13.06-1.49.84-2.63 2.61-3.47 4.2-2.35 4.41-3.89 9.36-6.78 13.35-10.57 14.59-21.71 28.76-32.34 43.29-11.68 15.96-24.43 30.89-39.82 43.43-4.05 3.3-9.32 5.88-11.8 10.1-2.57 4.37-2.1 10.42-3.54 15.57-1.97 7.03 1 12.02 6 16.18 4.12 3.43 8.61 6.42 12.87 9.68 1.03.79 2.23 1.73 2.65 2.87 3.84 10.28 11.39 17.75 18.75 25.42 2.37 2.47 4.7 5.16 6.33 8.14 7.35 13.43 14.77 26.84 21.49 40.59 2.74 5.61 6.82 7.64 12.29 8 3.55.23 7.15-.08 10.71-.28 3.89-.23 7.88-1.33 11.65-.79 9.2 1.32 17.74-.36 26.09-3.97.72-.31 1.51-.45 2.22-.77 2.56-1.15 5.11-1.37 7.77-.3 7.22 2.89 13.41.4 18.93-4.11 7.06-5.77 13.13-12.49 17.76-20.41 6.6-11.29 12.9-22.78 19.83-33.86 4.27-6.83 6.93-13.94 7.4-21.91.41-7 1.78-14.2-2.16-20.66-5.69-9.31-8.9-19.52-11.01-30.05-3.91-19.5-9.89-38.27-18.68-56.13-2.76-5.6-6.01-11.01-8.2-16.82-6.02-16.01-11.81-32.09-20.09-47.12-4-7.24-8.05-14.41-12.49-22.36z" fill="#010101"/></svg>