<svg enable-background="new 0 0 400 400" viewBox="0 0 400 400" xmlns="http://www.w3.org/2000/svg"><path d="m374.8 390.4.4-.4c.7.5 1.3 1 1.8 1.4l-.5.5c-.5-.6-1.1-1.1-1.7-1.5zm1 7.3-.6-.3c.5-1.4 1.1-2.8 1.5-4.3.2.1.4.2.6.3-.5 1.3-1 2.8-1.5 4.3zm-.4-10.3.4-.4c.4.3 1 .8 1.7 1.4l-.5.5c-.4-.5-1-1-1.6-1.5zm2.5.3h1.7v-1h.6v1h3.5v-1h.6v1h1.8v.5h-1.8v1.4h-2v1h3.2v2h-3.2v.9h3.3v.5h-3.4c0 .3-.1.6-.1.9h4v.5h-3.7c.7.9 1.9 1.5 3.8 1.7-.1.2-.2.4-.3.6-2.1-.4-3.5-1.1-4-2.1-.4 1-1.8 1.7-4 2.2-.1-.2-.2-.4-.3-.6 2.1-.4 3.4-1 3.8-1.8h-3.4v-.5h3.6c.1-.3.1-.6.2-.9h-3.3v-.5h3.4c0-.3 0-.6 0-.9h-3.2v-2h3.3v-1h-2.1v-1.4h-1.7v-.5zm1.1 3.5v1h2.7c0-.3 0-.4 0-.4 0-.1 0-.2 0-.2 0-.1 0-.2 0-.3h-2.7zm1.2-3v.9h3.5v-.9zm4.7 3h-2.6v.6.4h2.6z" fill="#fbfcfa"/><path d="m393.6 386.7h.6v1.5h2.7v6.1h1.1v.6h-11v-.6h1.1v-6.1h2.7v-1.5h.6v1.5h2.1v-1.5zm-2.7 8.8.4.6c-1.2.6-2.5 1.3-3.8 1.9-.1-.2-.2-.4-.3-.6 1.2-.6 2.5-1.2 3.7-1.9zm-2.2-6.7v2.4h2.1v-2.4zm0 3v2.5h2.1v-2.5zm2.8-3v2.4h2.1v-2.4zm0 3v2.5h2.1v-2.5zm6 6.1c-1.4-.7-2.7-1.3-3.9-1.8l.3-.6c1.5.6 2.7 1.2 3.9 1.7zm-1.2-9.1h-2.1v2.4h2.1zm-2.1 3v2.5h2.1v-2.5z" fill="#fbfcfa"/><path d="m206.05 375.71c-2.73-13.27-5.42-26.29-8.09-39.31-3.43-16.76-6.7-33.55-10.35-50.26-1.59-7.28-6.44-12.96-10.93-18.66-10.17-12.9-22.49-23.66-34.71-34.52-12.38-11-24.63-22.16-36.93-33.26-1.24-1.12-2.42-2.3-3.81-3.62 8.63-6.51 18.19-10.01 28.68-10.05 6.88-.03 13.78 1.05 20.64 1.88 11.92 1.44 23.44.87 34.06-5.55 1.76-1.07 2.67-2.31 3-4.41 4.46-28.82 6.65-57.78 6.14-86.95-.31-17.58-.09-35.16 4.22-52.37 1.05-4.19 2.59-8.26 3.9-12.38 13.19 4.11 17.23 12.5 15.64 21.21-1.32 7.26-2.29 14.59-3.13 21.92-.28 2.47-.34 5.3.58 7.51 5.59 13.44 7.47 27.45 7.8 41.89.35 15.21 1.75 30.4 1.99 45.62.11 7.2 3.62 11.33 9.14 14.69 9.42 5.73 19.75 5.78 30.24 4.84 6.11-.55 12.22-1.61 18.33-1.6 8.71.01 11.94 5.08 8.63 13.15-1.33 3.23-3.28 6.37-5.56 9.01-21.28 24.66-40.43 50.65-53.79 80.64-5.3 11.9-4.94 24.11-4.67 36.51.19 8.62.66 17.24.5 25.84-.26 14.14-7.63 23.66-21.52 28.23zm-47.52-160.41c2.91 4.63 5.57 9.02 8.44 13.27.54.8 1.96 1.5 2.93 1.44 5.13-.31 10.25-.83 15.36-1.38.77-.08 1.79-.47 2.17-1.06 3.38-5.27 1.65-12.89-3.67-16.28-4.5-2.87-9.57-3.57-14.77-3.6-.71 0-1.54.34-2.1.78-2.73 2.15-5.37 4.37-8.36 6.83zm76.26 14.99c5.4-3.43 10.27-6.52 15.13-9.6 6.74-4.27 6.74-4.27 4.21-11.87-2.4-7.17-9.79-9.08-14.97-3.79-1.6 1.63-4.02 3.44-4.17 5.32-.52 6.38-.2 12.84-.2 19.94z" fill="#010101"/></svg>