<svg enable-background="new 0 0 400 400" viewBox="0 0 400 400" xmlns="http://www.w3.org/2000/svg"><path d="m259.48 287.8c-3.24 2.05-6.55 4.01-9.71 6.18-2.58 1.77-4.93 3.87-7.49 5.67-.94.66-2.24 1.33-3.3 1.21-3.3-.36-5.69 1.07-8.17 2.99-10.7 8.3-21.56 16.38-32.26 24.68-4.88 3.79-9.89 7.24-15.72 9.46-1.41.54-2.71 1.92-3.58 3.23-1.85 2.79-3.13 5.97-5.13 8.63-1.25 1.67-3.19 3.14-5.13 3.88-2.67 1.03-5.09-1.61-3.52-3.92 4.79-7.02 3.98-15.21 5.53-22.9 3.07-15.21 7.9-29.86 15.66-43.3 2.5-4.32 6.56-7.87 10.33-11.31 5.28-4.82 10.93-9.22 16.46-13.75.83-.68 1.88-1.26 2.91-1.49 17.34-3.85 23.22-13.72 24.88-29.81.88-8.55.73-17.21.83-25.82.01-1.07-1.07-2.65-2.07-3.15-5.3-2.63-10.73-5-16.14-7.43-.8-.36-1.75-.84-2.53-.71-4.2.71-7.27-1.38-10.33-3.74-2.13-1.64-4.54-2.92-6.56-4.67-7.32-6.34-16.27-9.01-24.97-11.69-1.55 3.29-3.02 6.35-4.42 9.44-.36.79-.78 1.74-.66 2.53 1.16 7.36-2.07 13.48-5.35 19.6-1.21 2.27-2.36 4.57-3.67 6.78-.47.8-1.28 1.87-2.02 1.94-2.99.3-2.75 2.2-2.63 4.32.33 6.23.8 6.86 7.22 7.03 3.34.09 6.69-.36 10.03-.56 3.29-.2 6.26.26 8 3.6.88 1.69.89 3-1.16 3.66-10.09 3.25-17.42 10.27-24.18 17.94-6.06 6.87-11.94 13.92-17.48 21.21-1.24 1.63-.73 4.58-1.09 7.36-.88.4-2.26 1.04-4.35 1.99-2.36-7.59-4.63-14.88-6.9-22.18 2.11-12.51-3.31-22.57-10.43-32.07-.81-1.07-1.67-2.11-2.41-3.23-1.74-2.64-1.1-5.08 1.65-6.51 5.75-2.99 6.59-2.8 11.39 1.43 1.63 1.44 3.54 2.88 5.57 3.48 3.45 1.03 5.25-.58 4.83-4.12-1.32-11.13-2.86-22.24-4.21-33.37-.31-2.53-.35-5.12-.25-7.68.58-14.87 1.5-29.74 1.75-44.61.13-7.58 2.95-14.11 5.77-20.8 1.37-3.26 2.48-6.63 3.97-10.66-4.6-.63-8.56-.97-12.43-1.78-2.21-.46-4.59-1.27-6.3-2.66-2.56-2.08-2.27-4.14.26-6.3 13.45-11.48 26.94-22.91 40.33-34.46 1.54-1.33 2.88-3.12 3.76-4.97 3.33-6.93 6.44-13.97 9.81-21.35 2.49 3.85 3.43 7.58 2.94 11.68-.48 3.99-.85 8-1.4 11.98-.65 4.74 1.46 8.18 4.84 11.15 7.31 6.44 13.91 20.73 14.15 30.8-5.71 1.91-11.48 3.96-17.33 5.75-2.48.76-4.05 2.22-4.08 4.66-.07 5.22.04 10.46.34 15.67.48 8.27 1.32 16.51 1.7 24.78.12 2.52 1.13 3.93 3.3 4.21 3.05.4 6.46 1.2 9.21.29 14.53-4.81 29.68-5.22 44.65-6.88 3.27-.36 4.47-1.17 4.48-4.75.05-13.64-.18-27.32 3.23-40.71.35-1.37.45-2.97.09-4.31-1.01-3.77.62-5.97 3.97-7.59 3.05 3.35 3.95 7.47 4.3 11.71.23 2.78.14 5.59.09 8.39-.19 9.05-.24 18.11-.7 27.15-.34 6.55-1.47 13.06-1.81 19.62-.2 3.82.22 7.71.78 11.51.58 3.97 1.74 7.85 2.47 11.81.17.93.02 2.39-.58 2.92-2.75 2.38-3.33 5.47-3.32 8.79.01 2.12.42 4.26.25 6.37-.23 2.84-.84 5.64-1.29 8.46-.53 3.37-1.46 6.73-1.51 10.11-.19 12.2-.05 24.42-3.83 36.22-.57 1.78-1.84 3.52-3.21 4.84-6.67 6.41-14.83 11.24-20.23 19.02-.54.77-1.55 1.25-2.41 1.75-2.43 1.39-4.78 2.98-7.36 4.01-9.47 3.77-16.15 10.45-20.83 19.34-.57 1.08-1.25 2.18-1.46 3.35-1.08 5.93-3.39 11.28-6.77 16.26-1.15 1.69-1.62 3.89-2.15 5.92-.21.8.05 2.33.55 2.56.82.39 2.34.41 3-.12 4.05-3.24 8.01-6.6 11.85-10.09 2.52-2.29 4.41-5.51 7.25-7.2 13.44-7.98 27.19-15.44 40.66-23.37 3.89-2.29 7.4-5.33 10.77-8.37 3.47-3.13 7.03-5.93 11.76-6.64.94-.14 2.38.39 2.98 1.11 3.8 4.57 3.85 6.28.88 11.43-.21.36-.36.87-.27 1.25 2.22 8.8-1.5 16.93-2.86 25.31-.43 2.64-1.42 5.18-1.94 7.81-1.25 6.46-2.88 12.9-3.41 19.42-.5 6.18-2.76 11.66-4.68 17.36-1.84 5.47-3.28 11.09-4.54 16.73-.78 3.52-2.26 6.23-6.33 8.19-.1-2.23-.75-4.28-.19-5.94 3.84-11.47 2.98-23.47 4.31-35.21.09-.78-.07-1.66.25-2.32 5.14-10.67 3.62-22.35 5.16-33.56.41-2.98.4-6.01.58-9.02-.2-.25-.44-.55-.69-.85zm-73.91-129.98c1.34 4.09 4.06 6.04 7.6 6.91 12.51 3.07 23.68 9.2 34.83 15.32 3.11 1.71 6.09 3.77 8.8 6.07 1.53 1.3 2.55 1.5 4.36.72 2.16-.93 3.01-2.27 3.14-4.55.16-2.78.8-5.53 1-8.31.42-5.88 1.06-11.79.9-17.67-.14-5.22-5.07-8.33-10.35-7.46-12.01 1.97-23.74 6.8-36.29 4.52-.2-.04-.44.05-.65.12-4.34 1.4-8.68 2.81-13.34 4.33zm-14.15-45.52c.22-.01.44-.02.66-.03 0-2.9.16-5.82-.07-8.71-.11-1.4-.6-3.56-1.52-3.94-1.69-.71-4.52-1.21-5.64-.29-4.03 3.31-8.36 6.73-11.09 11.05-6.79 10.7-6.37 22.71-4.3 34.7.17 1 1.2 2.42 2.07 2.62 3.89.9 7.85 1.93 11.8 1.98 6.28.09 9.1-2.74 9.61-8.99.25-3.1.07-6.25-.12-9.36-.4-6.35-.93-12.69-1.4-19.03zm-19.03 90.96c5.87-6.63 10.11-15.23 11.98-23.23.51-2.19 1.92-4.22 3.17-6.16 3.26-5.04 1.2-10.57-4.57-11.9-2.17-.5-4.38-.8-6.55-1.31-3.94-.93-6.74.26-7.91 4.28-.72 2.49-1.64 5.04-1.69 7.58-.08 3.88.35 7.8.85 11.67.83 6.5 1.53 13.06 4.72 19.07zm11.25 27.18c-3.21-.26-7.02-2.76-11.05-.04-4.06 2.75-8.14 5.45-12.15 8.26-.51.36-1.01 1.33-.9 1.89.71 3.57 1.6 7.11 2.52 11.01 3.75-2.06 7.23-3.79 10.5-5.86 1.53-.96 2.87-2.42 3.9-3.92 2.51-3.7 4.8-7.55 7.18-11.34zm29.91-145.12c-3.14-8.07-3.75-16.98-11.97-22.18-3.35 6.99-4.46 13.74-1.21 20.66.46.98 1.82 2.15 2.78 2.17 3.31.05 6.63-.37 10.4-.65zm-28.36-14.38c-.68-.89-1.54-2.23-2.64-3.33-.27-.27-1.52-.03-1.94.37-3.74 3.5-7.56 6.95-10.96 10.77-.73.82-.2 4.31.37 4.48 2.31.69 5.27 1.46 7.26.57 4.96-2.22 6.84-6.99 7.91-12.86z" fill="#010102"/><g fill="#fcfbfa"><path d="m385.2 377.6.6-.7c.6.4 1.3.9 1.9 1.5l-.6.7c-.8-.5-1.4-1-1.9-1.5zm.3 7.1c.6-1.4 1.1-2.9 1.5-4.5.3.1.6.3.9.4-.5 1.4-1 2.9-1.5 4.4zm.2-10.1.6-.6c.7.5 1.3 1.1 1.9 1.6l-.7.7c-.6-.6-1.2-1.2-1.8-1.7zm8.4-.8h.8v.9h1.8v.7h-1.8v1.8h-.8v-.3h-1.2v.9h3.3v2.6h-.8v-.4h-2.5c0 .3 0 .6-.1.8h3.4v.7h-3.5c0 .3-.1.6-.1.8h4v.7h-3.5c.7.9 1.9 1.3 3.6 1.5-.2.2-.4.5-.6.9-1.9-.3-3.2-1.1-3.8-2.3-.5 1.1-1.8 2-3.9 2.4-.2-.3-.4-.5-.6-.8 1.9-.4 3.1-.9 3.6-1.7h-3.2v-.7h3.5c.1-.2.1-.5.2-.8h-3.3v-.7h3.4c0-.2 0-.5 0-.8h-2.4v.3h-.8v-2.6h3.3v-.9h-1.2v.3h-.8v-1.8h-1.8v-.7h1.8v-.9h.8v.9h3.2zm-4.4 5.5h2.4c0-.3 0-.6 0-.9h-2.4zm1.2-3.1h3.2v-.8h-3.2zm4.4 2.2h-2.4v.9h2.5v-.9z"/><path d="m389.2 385.8h.9v1.5h1.9v-1.5h.9v1.5h2.7v6h1.1v.9h-11.3v-.9h1.1v-6h2.7zm.2 8.7.5.8c-1.2.6-2.5 1.3-4 1.9-.2-.3-.3-.6-.6-.8 1.6-.6 3-1.3 4.1-1.9zm-2-4.3h1.9v-2.1h-1.9zm0 3.1h1.9v-2.2h-1.9zm2.7-3.1h1.9v-2.1h-1.9zm0 3.1h1.9v-2.2h-1.9zm2.4 1.3c1.4.6 2.7 1.2 4.1 1.8l-.5.9c-1.5-.7-2.8-1.4-4.1-1.9zm2.2-6.5h-1.9v2.1h1.9zm-1.9 5.2h1.9v-2.2h-1.9z"/></g></svg>