<svg enable-background="new 0 0 400 400" viewBox="0 0 400 400" xmlns="http://www.w3.org/2000/svg"><path d="m124.62 358.08c-6.06 3.09-10.27-.76-14.7-3.65-7.59-4.94-15.09-10.02-22.68-14.97-1.69-1.1-2.38-2.41-2.24-4.43 1.01-13.66-1.54-26.66-5.4-39.84-4.79-16.37-7.68-33.3-11.14-50.03-.42-2.04.4-4.58 1.3-6.59 1.07-2.37 1.43-4.44.79-7.03-3.09-12.47-6.15-24.96-8.77-37.53-.64-3.07-.08-6.66.87-9.72 1.54-4.95 1.06-9.37-.47-14.27-1.14-3.63-.72-7.88-.42-11.8.62-8.14-3.26-12.97-11.53-13.77-1.89-.18-3.8-.27-5.67-.6-5.4-.95-9.48-3.72-11.9-9.12 8.76-3.61 17.39-7.23 26.08-10.67.75-.3 2.07.35 2.92.89 2.44 1.54 4.98 3.04 7.82 1.63 6.05-3 11.79-2.25 17.7.47 7.09 3.27 13.76 7 18.64 13.31.52.67.95 1.42 1.65 2.48-9.45 1.72-18.52 3.48-27.63 4.97-2.44.4-3.73 1.52-3.89 3.74-.17 2.31-.17 4.69.21 6.96.36 2.18 1.19 4.31 2 6.38 1.84 4.69 2.4 9.27.91 14.31-.84 2.82-.46 6.17 0 9.19 1.71 11.39 3.61 22.75 5.6 34.09.27 1.52 1.21 3.09 2.24 4.29 7.91 9.15 17.47 16.1 27.99 22.09 17.3 9.84 34.17 20.43 51.35 30.49 9.35 5.47 19.48 5.01 29.66 2.8.6-.13 1.22-.6 1.64-1.08 4.12-4.73 9.61-6.09 15.54-6.89 3.94-.54 8.02-1.38 11.59-3.04 16.01-7.44 32.05-14.87 47.68-23.05 6.74-3.52 12.58-8.77 18.73-13.38 1.97-1.48 2.51-3.66 2.38-6.25-.98-19.67-1.87-39.34-2.66-59.02-.22-5.57.19-11.18-.07-16.75-.27-5.61-2.71-10.02-8.19-12.37-4.31-1.85-8.53-3.9-12.81-5.82-3.04-1.37-6.11-2.68-8.98-3.93-.1-.59-.21-.82-.16-1.01 2.17-7.5 2.17-7.44 10.17-6.94 20.28 1.25 40.24 4.47 59.64 10.56 11.76 3.69 22.57 9.2 31.12 19.45-1.59 0-2.72.06-3.85-.01-14.18-.86-28.36-1.76-42.54-2.61-5.77-.35-8.23 2.06-7.64 7.89.51 5.11 1.51 10.17 2.24 15.25 2.4 16.6 4.75 33.21 7.24 49.8.27 1.78 1.08 3.64 2.13 5.1 2.18 3.05 2.83 5.96 1.66 9.72-1.17 3.78-1.84 7.87-1.9 11.83-.22 13.88-.05 27.76-.13 41.64-.01 1.98-.33 4.02-.9 5.91-4.72 15.61-9.49 31.22-14.4 46.77-.52 1.63-1.81 3.28-3.19 4.34-7.55 5.79-16 9.19-25.69 9.19-5.31 0-10.32 1.4-15.16 3.71-2.22 1.06-4.92 1.67-7.37 1.57-6.7-.28-13.08.77-19.4 2.95-6.44 2.22-13.18 3.64-19.49 6.17-8.33 3.34-16.55 3.48-25.18 1.61-7.42-1.61-14.97-2.73-22.52-3.6-2.64-.3-5.57.44-8.16 1.32-5.06 1.72-10.02 1.78-15.09.3-4.35-1.27-8.98-1.35-12.92-4.25-2.37-1.75-3.96-3.42-3.94-6.42-.02-.74-.38-1.47-.71-2.73zm146.34-23.78c4.91-.13 8.76-2.09 11.72-5.84 3.37-4.26 5.03-9.2 5.42-14.55.31-4.2 1.22-8.1 3.75-11.63.95-1.32 1.37-3.19 1.55-4.86.7-6.55 1.19-13.12 1.79-19.68.24-2.67.85-5.33.8-7.99-.14-7.87-7.79-12.55-14.85-9.24-7.49 3.51-14.99 6.99-22.45 10.55-3.32 1.58-7.07 2.75-9.76 5.09-8.19 7.11-17.5 11.38-28.16 12.95-1.1.16-2.17.54-3.25.82-5.35 1.37-6.81 2.83-6 8.29.44 2.99 1.95 6.38 4.09 8.42 3.07 2.94 7.02 5.1 10.85 7.12 8.55 4.49 16.83 9.33 23.76 16.18.6.59 1.44 1.13 2.24 1.28 6.15 1.08 12.33 2.07 18.5 3.09zm-33.85 12.05c-4.4-4.46-8.04-8.91-12.41-12.45-13.78-11.14-29.51-18.88-46.09-24.9-1.52-.55-3.78-.38-5.23.36-18.01 9.22-35.89 18.68-53.91 27.87-2.95 1.5-2.86 3.3-1.85 5.62.43.98 1.25 1.86 2.08 2.58 7.79 6.71 17.18 10.09 27.09 11.21 20.65 2.34 41.34 1.44 61.9-1.37 9.54-1.29 18.86-3.59 28.42-8.92zm-143.07-78.32c-.31 2.86-.81 5.39-.82 7.91-.06 13.01 2.72 25.48 7.77 37.43 2.89 6.83 3.83 7.35 10.77 4.77 12.22-4.53 23.44-10.99 33.85-18.79 5.66-4.24 4.47-11.88-2.1-14.54-1.63-.66-3.42-1.06-5.17-1.27-4.99-.61-9.51-2.26-13.57-5.27-2.15-1.59-4.7-2.71-6.66-4.48-6.97-6.28-15.63-4.61-24.07-5.76z" fill="#010100"/><path d="m243.38 209.99c-5.55 1.93-10.66 3.85-15.89 5.44-1.63.49-3.54.21-5.3.05-5.57-.52-11.12-1.26-16.7-1.67-2.18-.16-4.49.04-6.6.62-22.17 6.07-44.56 6.8-67.17 3.11-3.8-.62-3.92-.83-5.45-6.44 8.28-1.37 16.52-2.69 24.75-4.12 8.91-1.55 17.85-3.01 26.69-4.9 2.85-.61 5.49-2.39 8.12-3.82 1.55-.84 1.66-2.07.47-3.58-9.23-11.75-12.34-25.48-13.36-40.05-1.16-16.5-2.9-32.96-4.25-49.45-.09-1.12.77-2.53 1.58-3.45.85-.96 2.18-1.48 3.48-2.32-5.87-6.47-7.2-14.37-7.18-22.3.03-11.05 1.13-22.1 1.41-33.15.09-3.38-.91-6.81-1.63-10.17-.4-1.89.17-2.81 1.65-4.11 5.21-4.6 10.23-3.79 15.79-.69 6.49 3.62 8 5.13 6.71 12.46-1.6 9.12-1.93 18.15-1.04 27.32.13 1.31-.54 2.85-1.22 4.07-1.37 2.46-1.86 4.86-1.04 7.64 5.45 18.48 4.99 37.55 6.05 56.52.57 10.19 3.03 20.3 4.83 30.41 1.57 8.8 3.29 17.58 5.2 26.32.39 1.77 1.6 3.69 3 4.86 4.29 3.58 9.52 4.05 14.9 3.77 3.44-.18 6.93-.43 10.34-.06 4.91.54 8.7 3.22 11.86 7.69z" fill="#010100"/><g fill="#fcfafa"><path d="m342.2 3.2-6.3 9.2h6.1v1.2h-8.2v-.5l6.2-9.1h-5.7v-1.2h7.8v.4z"/><path d="m344 13.7v-10.9h3.1c1.6 0 3 .5 4.1 1.4 1.1 1 1.6 2.2 1.6 3.9s-.5 3-1.6 4-2.5 1.5-4.2 1.5h-3zm1.4-9.6v8.4h1.6c1.4 0 2.5-.4 3.2-1.1.8-.8 1.2-1.8 1.2-3.2s-.4-2.4-1.2-3.1-1.8-1-3.1-1z"/><path d="m356.3 2.8v10.9h-1.4v-10.9z"/><path d="m366.6 13.2c-.8.4-1.8.6-3 .6-1.6 0-2.8-.5-3.7-1.5s-1.4-2.3-1.4-3.9c0-1.7.5-3.2 1.6-4.2s2.4-1.6 4-1.6c1 0 1.9.1 2.6.4v1.5c-.8-.4-1.6-.6-2.6-.6-1.2 0-2.2.4-3 1.2s-1.1 1.9-1.1 3.3c0 1.3.4 2.3 1.1 3.1s1.6 1.1 2.8 1.1c1.1 0 2-.2 2.8-.7v1.3z"/><path d="m368.2 13c0-.3.1-.5.3-.6.2-.2.4-.3.6-.3.3 0 .5.1.7.3s.3.4.3.6-.1.5-.3.6c-.2.2-.4.3-.7.3s-.5-.1-.6-.3c-.2-.2-.3-.4-.3-.6z"/><path d="m381.1 13.7h-1.7l-5.5-8.4c-.2-.2-.3-.5-.4-.7 0 .2.1.8.1 1.5v7.6h-1.4v-10.9h1.8l5.3 8.3c.3.4.4.6.4.8 0-.3-.1-.8-.1-1.6v-7.5h1.4v10.9z"/><path d="m389.7 13.7h-5.8v-10.9h5.6v1.2h-4.2v3.5h3.9v1.2h-3.9v3.7h4.4z"/><path d="m398.4 4.1h-3.1v9.6h-1.4v-9.6h-3.1v-1.3h7.7v1.3z"/></g></svg>