<svg enable-background="new 0 0 400 400" viewBox="0 0 400 400" xmlns="http://www.w3.org/2000/svg"><path d="m95.09 358.89c6.77-.59 13.45-1.18 20.65-1.81.64-2.4 3.46-3.01 6.33-3.78 7.11-1.92 14.23-.78 21.36-.34 1.79.11 3.57.33 5.35.37 5.18.12 5.18.1 7.71 4.62.49-.43 1.08-.74 1.38-1.23 3.17-5.1 7.93-6.38 13.58-6 3.56.24 7.16.21 10.73.02 4.82-.25 7.49-3.37 7.32-8.15-.23-6.26-.33-12.53-.73-18.79-.3-4.74-.25-9.34 1.58-13.84.46-1.14.28-2.6.22-3.9-.2-4.42-.58-8.84-.72-13.26-.18-5.91-.53-11.85-.18-17.74.33-5.63 1.3-11.24 2.27-16.81.77-4.42 1.97-8.78 3.06-13.56.12.08-.3-.25-.78-.48-4.81-2.34-5.79-5.27-3.06-10.08 1.23-2.16 1.62-3.67.28-6.25-2.32-4.49-1.79-9.25 1.49-13.49.57-.74 1.03-2.39.63-2.94-2.94-3.95-1.17-7.09 1.36-10.21.28-.34.47-.76.87-1.45-2.88-2.88-2.63-6.44-1.76-10.17.3-1.26.34-2.75-.01-3.98-2.19-7.62-.87-15.07.76-22.54.14-.65.5-1.4.32-1.96-2.55-7.77 1.13-15.55-.27-23.52-.9-5.12 1.47-10.82 2.39-16.37 1.96.21 3.03.32 4.27.46 1.09-2.3.82-4.16-1.47-5.34-3.04-1.57-3.56-3.9-3.28-7.17.81-9.47 1.17-18.99 1.87-28.47.09-1.17.95-2.53 1.86-3.34 1.83-1.63 2.29-3.52.88-5.27-1.97-2.44-2.21-4.88-1.64-7.83 1.01-5.26-.15-7.32-5.32-8.34-5.96-1.17-10.56-3.88-12.93-9.11-3.3.83-6.14 1.62-9.01 2.26-7.04 1.57-13.68.32-20.19-2.62-1.69-.76-3.95-.71-5.87-.45-9.49 1.28-17.81-2.06-25.89-6.33-1.24-.65-2.28-1.83-3.17-2.95-3.41-4.29-2.9-5.65 1.41-8.79 5.16-3.75 10.98-2.27 16.51-2.81 11.59-1.13 22.71 1.87 33.66 4.98 8.07 2.29 16.15 3.19 24.44 3.25 2.12.01 4.29-.11 6.36.28 2.53.48 5.12 1.14 7.41 2.27 2.03 1 3.71 2.28 6.21 1.47.88-.28 2.23.23 3.11.78 2.94 1.83 5.83 1.85 8.89.37 3.37-1.62 6.35-.81 9.45 1.16 2.76 1.76 5.83 3.23 8.97 4.17 7.06 2.13 14.2 4.02 21.38 5.66 3.38.77 5.79 2.36 7.81 5.11 3.13 4.26 4.78 4.41 9.09 1.56 2.47-1.63 4.69-.45 6.91.69 2.46 1.27 5.09 2.31 7.33 3.88 1.13.79 2.2 2.52 2.26 3.87.31 6.64-1.74 8-7.66 5.27-2.15-.99-4.05-1.09-6.38-.39-2.24.67-4.8.78-7.14.47-7.29-.98-14.54-2.27-22.09-3.48.16-1.45.45-2.64.38-3.82-.04-.74-.44-1.77-1.01-2.09s-1.61-.11-2.33.17c-2.52 1-5.06 3.18-7.45 3-4.14-.31-8.26-1.83-12.22-3.28-1.84-.67-1.6-3.42.13-6-4.41-3.61-4.42-3.58-7.97.75-4.21 5.12-6.86 10.33-4.85 17.5 1.73 6.16.8 12.54-.99 18.86-.95 3.37-.66 7.33-.01 10.85.84 4.5.32 8.41-2.46 11.97-2.49 3.19-2.99 6.48-1.43 10.28 2.93 7.12 2.64 14.13-.13 21.4-1.2 3.16-.91 7.03-.71 10.55.55 9.49 1.64 18.96 2 28.45.08 2.1-1.71 4.42-3.01 6.38-1.43 2.15-2.71 3.99-.81 6.58.56.76.41 2.15.32 3.23-.36 4.57-1.12 9.13-1.18 13.7-.07 4.99.28 10.01.84 14.97.31 2.76.52 5.29-1.19 7.67-1.98 2.76-2.62 5.77-1.99 9.17.48 2.63.33 5.37.8 8.01 1.19 6.68.46 13.01-2.13 19.33-.92 2.24-.48 5.05-.55 7.61-.07 3.02-.04 6.04-.01 9.07.04 4.09.36 8.05 1.37 12.15 1.13 4.63.3 9.75.31 14.66 0 .21-.05.5-.19.63-3.9 3.51-1.7 7.13-.91 11.21.81 4.18-.45 8.77-.89 13.17-.18 1.76-.58 3.49-.91 5.38 6.89 2.78 14.9 2.31 20.47 8.32 4.53-4.81 9.94-4.44 15.47-3.36 2.74.53 5.48 1.08 8.21 1.71 2.66.61 5.17.93 7.7-.71.89-.58 2.37-.45 3.55-.35 7.43.62 15.03.58 22.2 2.3 3.53.84 6.68 4.65 9.2 7.76 1.51 1.86.54 4.27-2.48 5.28-14.51 4.88-29.47 6.49-44.63 5.77-3.07-.14-6.13-2.51-9.01-4.17-1.96-1.12-3.24-1.1-5 .45-1.1.97-2.95 1.48-4.48 1.5-4.36.07-8.72-.2-13.08-.39-1.1-.05-2.4-.01-3.26-.56-4.62-2.94-9.37-1.84-14.25-1.02-2.2.37-4.56-.28-6.85-.4-4.76-.25-9.53-.68-14.3-.63-8.6.08-17.21.7-25.69-1.36-.84-.2-1.93-.4-2.6-.05-3.96 2.08-8.01 1.47-12.11.71-.84-.16-1.92-.22-2.61.17-8.45 4.85-17.35 2.92-26.19 1.83-1.11-.14-2.21-.37-3.3-.6-7.67-1.59-8.07-2.1-7.95-11.34zm169.92-296.79c6.88 5.33 5.55 4.92 12.4 2.01-4.44-.58-7.63-4.81-12.4-2.01zm-21.87-3.71c1.76-.47 3.16-.79 4.52-1.22 1.37-.43 3.7-.63 2.42-2.74-.65-1.07-2.88-1.63-4.37-1.59-1.25.04-2.45 1.3-3.86 2.13.44 1.17.82 2.17 1.29 3.42zm-35.04 53.42c.26.14.53.28.79.42.6-.74 1.8-1.58 1.69-2.2-.33-1.83-1.17-3.56-1.81-5.34-.39.13-.79.26-1.18.39.17 2.25.34 4.49.51 6.73zm69.74 249.65c-.43-.21-.87-.41-1.3-.62-1 1.82-4.52 2.77-1.76 6.35 1.16-2.16 2.11-3.95 3.06-5.73z" fill="#010100"/><g fill="#fcfafa"><path d="m342.2 3.2-6.3 9.2h6.1v1.2h-8.2v-.5l6.2-9.1h-5.7v-1.2h7.8v.4z"/><path d="m344 13.7v-10.9h3.1c1.6 0 3 .5 4.1 1.4 1.1 1 1.6 2.2 1.6 3.9s-.5 3-1.6 4-2.5 1.5-4.2 1.5h-3zm1.4-9.6v8.4h1.6c1.4 0 2.5-.4 3.2-1.1.8-.8 1.2-1.8 1.2-3.2s-.4-2.4-1.2-3.1-1.8-1-3.1-1z"/><path d="m356.3 2.8v10.9h-1.4v-10.9z"/><path d="m366.6 13.2c-.8.4-1.8.6-3 .6-1.6 0-2.8-.5-3.7-1.5s-1.4-2.3-1.4-3.9c0-1.7.5-3.2 1.6-4.2s2.4-1.6 4-1.6c1 0 1.9.1 2.6.4v1.5c-.8-.4-1.6-.6-2.6-.6-1.2 0-2.2.4-3 1.2s-1.1 1.9-1.1 3.3c0 1.3.4 2.3 1.1 3.1s1.6 1.1 2.8 1.1c1.1 0 2-.2 2.8-.7v1.3z"/><path d="m368.2 13c0-.3.1-.5.3-.6.2-.2.4-.3.6-.3.3 0 .5.1.7.3s.3.4.3.6-.1.5-.3.6c-.2.2-.4.3-.7.3s-.5-.1-.6-.3c-.2-.2-.3-.4-.3-.6z"/><path d="m381.1 13.7h-1.7l-5.5-8.4c-.2-.2-.3-.5-.4-.7 0 .2.1.8.1 1.5v7.6h-1.4v-10.9h1.8l5.3 8.3c.3.4.4.6.4.8 0-.3-.1-.8-.1-1.6v-7.5h1.4v10.9z"/><path d="m389.7 13.7h-5.8v-10.9h5.6v1.2h-4.2v3.5h3.9v1.2h-3.9v3.7h4.4z"/><path d="m398.4 4.1h-3.1v9.6h-1.4v-9.6h-3.1v-1.3h7.7v1.3z"/></g></svg>