<svg enable-background="new 0 0 400 400" viewBox="0 0 400 400" xmlns="http://www.w3.org/2000/svg"><path d="m164.33 260.11c-3.89.19-6.93-.07-9.78.55-5.43 1.18-10.68 1.78-16.2.14-2.47-.74-5.51-.45-8.07.24-2.63.71-4.88.74-7.41-.18-9.64-3.52-19.35-6.88-29.02-10.32-.83-.3-1.94-.59-2.33-1.24-1.21-2.02-2.48-4.13-2.93-6.37-.13-.64 2.33-2.2 3.81-2.69 4.77-1.6 9.64-2.85 14.46-4.31 4.83-1.47 9.55-1.72 14.47-.11 2.36.77 5.04.67 7.58.78 6.14.27 12.3.31 18.43.69 5.62.34 11.08.17 16.61-1.27 3.56-.93 7.53-1.25 11.16-.75 5.5.75 10.71.08 15.85-1.47 5.3-1.59 10.44-1.83 15.72.04 1.27.45 2.96.52 4.21.07 13.61-4.83 27.35-2.57 41.13-1.19 4.27.43 7.77 1.63 10 5.6 2.41-1.63 4.38-3.07 6.45-4.35 4.6-2.83 9.45-3.49 14.8-2.23 5.86 1.38 11.88 2.07 17.79 3.26 1.39.28 2.9 1.09 3.88 2.11 4.2 4.4 6.55 9.61 7.49 15.74 1.15 7.49 3.09 14.86 4.74 22.27 3.47 15.58 5.67 31.29 3.79 47.27-.43 3.68-2.14 7.2-3.08 10.84-1.53 5.93-2.91 11.9-4.33 17.86-.39 1.63-.56 3.31-.99 4.93-2.19 8.1-4.2 9.42-12.49 10.15-8.22.72-16.4 2.04-24.59 3.09-1.21.16-2.66.74-3.62.3-4.62-2.11-9.33-.54-13.93-.84-8.27-.54-16.22.88-24.31 1.56-3.85.32-7.78-.55-11.68-.74-18.41-.86-36.67.05-54.59 4.85-1.04.28-2.2.27-3.29.19-17.63-1.19-35.25-2.49-52.89-3.59-8.37-.52-16.77-.59-25.14-1.09-1.76-.1-3.58-.97-5.18-1.84-2.35-1.27-4.49-2.94-6.81-4.27-2.67-1.54-4.05-3.58-3.92-6.8.14-3.33 1.55-5.8 4.69-6.49 5.62-1.24 11.38-2.93 17.04-2.76 9.47.27 18.89 2.11 28.37 2.75 4.04.27 8.26-.42 12.23-1.36 5.82-1.38 11.49-.93 17.3-.15 5.5.74 11.08 1.23 16.62 1.12 3.74-.07 5.48-2.7 4.93-6.47-.36-2.5-1.21-4.99-2.18-7.34-2.39-5.85-3.74-11.84-4.08-18.21-.35-6.46-1.34-12.9-2.44-19.28-.94-5.46-1.04-10.77-.22-16.29 1.06-7.03 1.28-14.19 1.95-22.4zm19.01 88.39c7.79 1.46 15.4 2.36 22.69 4.4 8.91 2.49 17.06 1.61 25.15-2.62 1.35-.71 3.37-.34 5.05-.17 3.52.37 7.08 1.6 10.52 1.31 10.67-.9 21.29-2.37 31.94-3.59 2.11-.24 4.29-.09 6.34-.54 4.96-1.08 10.5-2.44 11.85-7.9 3.21-12.89 4.56-25.96 1.13-39.17-.66-2.52.23-5.44.34-8.17.1-2.4.39-4.83.12-7.19-.47-4.08-1.4-8.11-1.96-12.18-.52-3.87-.47-7.84-1.28-11.64-1.09-5.1-1.99-5.36-7.17-4.81-6.78.72-13.6 1.87-20.36 1.68-15.2-.42-30.39-1.44-45.57-2.45-10.08-.67-20.09-.66-30.06 1.09-1.63.29-3.21.91-4.81 1.41-2.26.7-2.99 2.13-2.75 4.56 1.14 11.35 1.89 22.75 3.21 34.08.83 7.15.55 13.91-2.61 20.54-1.96 4.12-3.33 8.53-4.78 12.88-.33.99-.09 2.29.22 3.36.68 2.39 1.83 4.68 2.28 7.1.49 2.52.36 5.12.51 8.02z" fill="#010102"/><path d="m135.98 114.66c-.33.13.11.02.48-.2 8.03-4.87 16.97-5.87 26.07-6.27 4.85-.21 6.1-.95 6.38-5.85.26-4.71-.08-9.64-1.24-14.19-1-3.9-1.37-7.61-1.06-11.54.67-8.37 1.11-16.75 1.86-25.11.22-2.41-.71-3.71-2.57-4.88-6.8-4.3-14.27-4.85-21.99-4.02-8.23.88-16.46 1.78-24.68 2.65-.88.09-1.91.35-2.65.02-4.76-2.13-9.74-1.82-14.76-1.73-1.67.03-3.47-.78-4.99-1.61-1.59-.87-2.36-2.39-1.2-4.24.06-.09.09-.2.14-.31 1.76-3.84 2.45-8.3 7.77-9.54 4.15-.97 7.76-3.48 12.53-2.43 9.59 2.12 19.4 3.23 28.93 5.55 7.86 1.91 15.57.38 23.34.51 4.69.08 9.41-.16 14.07-.65 4.4-.46 8.75-1.44 13.13-2.19 1.2-.21 2.4-.62 3.61-.63 14.1-.15 28.2-.55 42.29-.27 12.29.24 24.55 1.35 36.84 1.89 8.03.35 16.09.17 24.11.63 2.94.17 5.82 1.47 8.7 2.32 6.15 1.82 8.13 6.68 8.36 12.35.18 4.34-.27 8.71-.61 13.05-.55 6.91-1.4 13.79-1.82 20.71-.19 3.2-.24 6.6.63 9.62 1.88 6.53.71 12.81-.32 19.22-.33 2.05.02 4.43.76 6.39 1.69 4.48 3.8 8.8 5.83 13.38-5.42 3.74-11.43 5.42-17.59 6.39-11.32 1.78-22.67 1.87-34.12.88-7.19-.62-14.51.29-21.76.23-3.28-.03-6.78-.15-9.78-1.28-5.48-2.08-10.98-2.39-16.73-2.51-9.81-.19-19.6-1.22-29.41-1.59-3.65-.14-7.33.87-10.99.87-5.9.01-11.88.16-17.68-.72-14.54-2.18-28.75-.76-42.94 2.49-7.88 1.81-15.89 1.68-23.53-.98-4.8-1.67-9.3-4.3-13.72-6.88-1.21-.71-1.88-2.69-2.37-4.22-.63-1.98.09-3.14 2.42-3.76 10.69-2.85 21.6-3.56 32.57-3.91 4.14-.13 8.29-.4 12.41-.18 1.51.07 2.97 1.37 5.28 2.54zm58.79-7.64c1.89 0 3.9.06 5.9-.01 9.65-.35 19.18.32 28.65 2.41 5.21 1.15 10.58 2.33 15.87 2.28 15.65-.15 31.29-.91 46.93-1.43.97-.03 1.95 0 3.1 0 .06-.85.13-1.38.14-1.91.19-10.74.48-21.47.52-32.21.02-5.91-.17-11.84-.65-17.73-.42-5.12-2.79-6.63-7.73-6.15-4.87.47-9.82 1.11-14.66.73-7.12-.55-14.16-1.99-21.25-2.95-5.19-.71-10.58-2.42-15.56-1.63-10.06 1.58-20.02 1.5-30.09 1.15-5.4-.19-10.81.16-16.77.27.8 1.95 1.2 2.97 1.64 3.97 2.19 5 2.86 10.21 2.86 15.66.01 12.27.35 24.54.57 36.81.01.08.13.17.53.74z" fill="#010102"/><g fill="#fcfbfa"><path d="m385.2 377.6.6-.7c.6.4 1.3.9 1.9 1.5l-.6.7c-.8-.5-1.4-1-1.9-1.5zm.3 7.1c.6-1.4 1.1-2.9 1.5-4.5.3.1.6.3.9.4-.5 1.4-1 2.9-1.5 4.4zm.2-10.1.6-.6c.7.5 1.3 1.1 1.9 1.6l-.7.7c-.6-.6-1.2-1.2-1.8-1.7zm8.4-.8h.8v.9h1.8v.7h-1.8v1.8h-.8v-.3h-1.2v.9h3.3v2.6h-.8v-.4h-2.5c0 .3 0 .6-.1.8h3.4v.7h-3.5c0 .3-.1.6-.1.8h4v.7h-3.5c.7.9 1.9 1.3 3.6 1.5-.2.2-.4.5-.6.9-1.9-.3-3.2-1.1-3.8-2.3-.5 1.1-1.8 2-3.9 2.4-.2-.3-.4-.5-.6-.8 1.9-.4 3.1-.9 3.6-1.7h-3.2v-.7h3.5c.1-.2.1-.5.2-.8h-3.3v-.7h3.4c0-.2 0-.5 0-.8h-2.4v.3h-.8v-2.6h3.3v-.9h-1.2v.3h-.8v-1.8h-1.8v-.7h1.8v-.9h.8v.9h3.2zm-4.4 5.5h2.4c0-.3 0-.6 0-.9h-2.4zm1.2-3.1h3.2v-.8h-3.2zm4.4 2.2h-2.4v.9h2.5v-.9z"/><path d="m389.2 385.8h.9v1.5h1.9v-1.5h.9v1.5h2.7v6h1.1v.9h-11.3v-.9h1.1v-6h2.7zm.2 8.7.5.8c-1.2.6-2.5 1.3-4 1.9-.2-.3-.3-.6-.6-.8 1.6-.6 3-1.3 4.1-1.9zm-2-4.3h1.9v-2.1h-1.9zm0 3.1h1.9v-2.2h-1.9zm2.7-3.1h1.9v-2.1h-1.9zm0 3.1h1.9v-2.2h-1.9zm2.4 1.3c1.4.6 2.7 1.2 4.1 1.8l-.5.9c-1.5-.7-2.8-1.4-4.1-1.9zm2.2-6.5h-1.9v2.1h1.9zm-1.9 5.2h1.9v-2.2h-1.9z"/></g></svg>