<svg enable-background="new 0 0 400 400" viewBox="0 0 400 400" xmlns="http://www.w3.org/2000/svg"><path d="m374.8 390.4.4-.4c.7.5 1.3 1 1.8 1.4l-.5.5c-.5-.6-1.1-1.1-1.7-1.5zm1 7.3-.6-.3c.5-1.4 1.1-2.8 1.5-4.3.2.1.4.2.6.3-.5 1.3-1 2.8-1.5 4.3zm-.4-10.3.4-.4c.4.3 1 .8 1.7 1.4l-.5.5c-.4-.5-1-1-1.6-1.5zm2.5.3h1.7v-1h.6v1h3.5v-1h.6v1h1.8v.5h-1.8v1.4h-2v1h3.2v2h-3.2v.9h3.3v.5h-3.4c0 .3-.1.6-.1.9h4v.5h-3.7c.7.9 1.9 1.5 3.8 1.7-.1.2-.2.4-.3.6-2.1-.4-3.5-1.1-4-2.1-.4 1-1.8 1.7-4 2.2-.1-.2-.2-.4-.3-.6 2.1-.4 3.4-1 3.8-1.8h-3.4v-.5h3.6c.1-.3.1-.6.2-.9h-3.3v-.5h3.4c0-.3 0-.6 0-.9h-3.2v-2h3.3v-1h-2.1v-1.4h-1.7v-.5zm1.1 3.5v1h2.7c0-.3 0-.4 0-.4 0-.1 0-.2 0-.2 0-.1 0-.2 0-.3h-2.7zm1.2-3v.9h3.5v-.9zm4.7 3h-2.6v.6.4h2.6z" fill="#fbfcfa"/><path d="m393.6 386.7h.6v1.5h2.7v6.1h1.1v.6h-11v-.6h1.1v-6.1h2.7v-1.5h.6v1.5h2.1v-1.5zm-2.7 8.8.4.6c-1.2.6-2.5 1.3-3.8 1.9-.1-.2-.2-.4-.3-.6 1.2-.6 2.5-1.2 3.7-1.9zm-2.2-6.7v2.4h2.1v-2.4zm0 3v2.5h2.1v-2.5zm2.8-3v2.4h2.1v-2.4zm0 3v2.5h2.1v-2.5zm6 6.1c-1.4-.7-2.7-1.3-3.9-1.8l.3-.6c1.5.6 2.7 1.2 3.9 1.7zm-1.2-9.1h-2.1v2.4h2.1zm-2.1 3v2.5h2.1v-2.5z" fill="#fbfcfa"/><path d="m233.01 374.25c.81-2.62 1.43-4.92 2.24-7.16.57-1.56 1.6-2.98 2.06-4.56.69-2.38.59-4.63-2.16-5.92-4.04-1.9-5.55-5.54-7.14-9.51-3.01-7.5-3.9-15.08-2.84-22.97 1.1-8.19-.12-16.01-3.42-23.54-4.27-9.73-6.22-19.73-3.81-30.31.65-2.86-.09-5.37-1.86-7.83-1.11-1.54-1.59-3.64-1.99-5.57-1.1-5.36-1.68-10.85-3.08-16.13-1.42-5.37-3.65-10.52-5.33-15.82-.47-1.47-.72-3.35-.22-4.73 1.34-3.7 1.35-7.33-.17-10.8-2.1-4.78-4.3-9.57-7.04-13.99-2.35-3.77-8.45-3.11-10.79.73-5.44 8.89-8.8 18.47-10.3 28.82-1.05 7.28-3.21 14.39-4.34 21.67-.88 5.69-1.42 11.52-1.19 17.26.23 5.87-.59 11.1-4.81 15.65 3.39 3.24 3.85 6.93 3.08 11.21-.56 3.14-.56 6.5-.17 9.68 1.79 14.71-1.3 28.96-3.71 43.29-.32 1.87-.7 3.74-1.05 5.6-.9 4.85-.89 4.85-6.61 5.24.63-8.45-2.54-17.09 2.05-25.27.4-.72.02-2.53-.63-3.08-4.51-3.77-5.11-9-5.54-14.25-.32-3.9-.12-7.84-.47-11.73-.36-4.03-1.2-8.07 4.25-9.15-.16-.59-.16-.92-.28-.97-4.28-1.89-4.79-5.34-4.6-9.58.32-7.15.29-14.33.02-21.48-.19-4.99.24-9.55 4.97-13.02-5.43-3.5-3.98-8.06-2.88-12.55.27-1.08.5-2.19.9-3.23 3.48-8.92 5.2-18.18 6.2-27.69.42-3.99 2.01-8.02 3.81-11.67 3.74-7.58 5.28-15.63 6.19-23.88.38-3.47 1.06-6.63 3.5-9.47 3.08-3.57 4.28-8.07 4.22-12.79-.06-5.15-.09-10.31-.56-15.42-.13-1.46-1.51-3.59-2.75-3.95-1.28-.37-3.38.69-4.58 1.74-3.43 3-6.73 6.2-9.83 9.54-7.44 8.03-14.79 16.15-22.05 24.34-.68.77-.86 2.31-.73 3.43.33 2.83-.88 4.76-3.05 6.25-5.91 4.06-12.12 7.46-19.19 9.09-1.27-4.91-1.18-5.11 3.03-7.14 8.19-3.94 8.11-3.94 7.79-12.99-.09-2.64.15-5.37.73-7.95.61-2.72 2.3-4.54 5.32-5.38 2-.55 4.05-1.99 5.42-3.58 2.98-3.47 5.65-7.22 8.26-10.99 9.67-13.99 19.16-28.1 28.95-42 2.05-2.91 2.42-5.62 2.13-9.01-.83-9.67-2.04-19.41-1.6-29.05.4-8.92 2.73-17.76 4.21-26.62 5.11.83 7.51 3.19 7.55 7.94.12 15.28 4.28 29.83 7.61 44.54.29 1.27 1.78 3.04-1.05 3.49-.1.02-.26 1.27 0 1.72.55.95 1.3 1.8 2.06 2.62 7.92 8.53 15.74 17.16 23.83 25.52 3.7 3.83 8.06 7.02 11.9 10.72 1.63 1.56 2.66 3.73 4.06 5.55 1.59 2.08 2.91 4.63 5 6.02 10.49 6.98 19.2 15.57 25.91 26.28 2.66 4.24 5.87 8.14 8.89 12.26-3.51 2.79-6.92 2.27-10.1.15-2.97-1.98-5.69-4.34-8.47-6.58-5.31-4.29-10.42-8.85-15.94-12.84-3.02-2.18-6.77-3.33-10.1-5.12-1.52-.82-3.08-1.82-4.19-3.11-5.1-5.94-10.04-12.01-15.31-18.36-1.73 3.08-3.78 2.96-6.58 1.46-3.06-1.64-5.45.13-5.46 3.54-.02 6.49-.1 12.99.06 19.47.03 1.42.58 3.18 1.54 4.16 8.06 8.31 13.04 18.22 16.07 29.3 1.35 4.94 3.26 9.75 5.07 14.55 1.59 4.23 2.78 8.46 2.38 13.05-.09 1.05.09 2.39.69 3.18 7.05 9.38 7.75 20.42 8.51 31.49.48 6.92 1.34 13.81 1.78 20.73.09 1.45-.55 3.23-1.46 4.4-3.32 4.3-3.56 7.23-.91 12 1.45 2.61 2.73 5.37 3.7 8.2.56 1.62 1.03 3.86.35 5.22-3.83 7.58-1.21 15.12-.36 22.69.6 5.33 1.24 10.66 1.52 16.01.23 4.48-1.83 7.96-5.85 9.95.1.46.09.78.19.81 4.46 1.68 5.13 4.98 4.52 9.3-.72 5.09-1.02 10.25-1.18 15.38-.12 2.75-1.13 3.9-4.79 3.5z" fill="#010101"/></svg>