<svg enable-background="new 0 0 400 400" viewBox="0 0 400 400" xmlns="http://www.w3.org/2000/svg"><path d="m202.57 273.04c-2.11 5.51-4.02 11.1-6.36 16.51-7.21 16.64-13.52 33.57-17.48 51.32-1.63 7.3-3.56 14.53-5.57 21.73-.62 2.21-2.07 4.17-2.94 6.32-.43 1.07-.28 2.36-.66 3.47-.31.92-1 1.71-1.93 3.21-.6-1.47-.98-1.96-.97-2.45.12-7.65.26-15.29.47-22.93.26-9.55 2.47-18.72 5.19-27.85 3.8-12.74 7.26-25.58 14.31-37.05.4-.65.71-1.41.88-2.15 1.76-7.66 4.81-14.79 7.97-21.98 1.86-4.22 1.75-9.38 2.17-14.15 1.28-14.55.57-29.06-1.23-43.53-.06-.52-.37-1.01-.79-2.09-1.37 1.6-2.69 2.77-3.56 4.2-5.93 9.74-11.73 19.55-17.65 29.3-1.15 1.89-2.49 3.71-3.97 5.35-2.84 3.13-5.79 6.18-8.82 9.12-1.2 1.17-2.75 1.99-4.69 2.39.34-.89.63-1.8 1.02-2.67 5.96-13.49 11.31-27.31 18.11-40.36 5.13-9.85 12.2-18.68 18.23-28.08 1.33-2.08 2.72-4.66 2.67-6.98-.13-6.45-.94-12.9-1.61-19.33-.32-3.07-2.61-3.71-5.16-3.38-5.66.73-11.27 1.6-16.87-.47-.98-.36-2.21.02-3.32-.05-4.87-.31-9.75-.57-14.61-1.08-1.09-.11-2.21-1.04-3.08-1.84-6.27-5.72-10.68-12.58-12.66-20.91-.05-.22-.04-.47-.13-.66-4.08-7.84-2.12-16.8-4.62-24.94-.25-.83-.23-1.79-.12-2.67.85-7.06-.4-14.02-.74-21.02-.31-6.25 1.32-12.62 2.42-18.88.1-.59 2.64-1.1 4-1 1.03.07 2.76 1.06 2.86 1.81.66 4.97 1.17 9.97 1.33 14.98.39 12.15-.63 24.33 2.55 36.35 1.35 5.11.93 10.67 1.66 15.97.45 3.27 1.39 6.52 2.45 9.65.32.95 1.7 1.81 2.79 2.2 5.5 1.98 11.11 3.38 17.06 2.3 1.28-.23 2.66.05 3.98.02 5.12-.14 10.26-.07 15.34-.57 3.38-.34 4.97-2.72 5.29-7.06.17-2.32-.24-4.68-.32-7.02-.34-10.38-.65-20.77-.97-31.15-.04-1.22 0-2.44 0-4.57-4.93-.21-9.65-.49-14.37-.57-2.45-.04-4.91.42-7.36.44-5.67.03-8.2-2.09-9.72-8.42 6.73-1.16 12.81-4.5 19.96-4.59 8.13-.1 16.25-.9 24.36-1.58 8.45-.72 16.73.05 24.98 1.92 2.7.61 4.11 1.92 4.19 4.88-6.73 5.03-14.74 6.32-22.91 7.02-2.56.22-5.14.37-7.71.34-2.44-.02-3.39 1.09-3.42 3.44-.04 3.24-.47 6.49-.31 9.72.58 11.72 1.33 23.43 2.03 35.35 10.24 1.16 20.2 1.94 29.98-1.46 2.96-1.03 5.89-2.19 8.93-2.88 3.12-.7 4.73-2.72 5.07-5.5.48-3.97.43-8.01.56-12.02.39-12.27.78-24.54 1.13-36.82.03-1.09.04-2.27-.32-3.26-1.78-4.94-1.77-10.03-1.82-15.2-.08-8.26-.68-16.52-1.08-24.78-.05-1-.2-2-.23-3.01-.11-3.66 2.74-7.85 5.6-8.26 2.5-.36 7.13 3.85 7.58 7.08.21 1.53.44 3.26-.04 4.67-3.18 9.28-1.73 18.85-1.79 28.28-.07 11.39.88 22.79.9 34.18.01 4.64-1.13 9.3-2.01 13.91-1.13 5.96-1.85 11.88-1.01 17.97.18 1.32-.64 3.18-1.62 4.21-7.81 8.22-18.31 10.08-28.82 11.81-5.85.96-11.71 1.85-17.57 2.69-2.4.34-2.74 1.63-2.45 3.79.25 1.89.14 3.89-.14 5.79-1.05 7.07-1.43 14.39 1.48 20.78 1.81 3.98 5.24 7.73 9.73 10.16 3.43 1.86 6.45 4.84 9 7.87 6.6 7.87 13.16 15.78 16.96 25.61 1.91 4.95 4.74 9.55 7.32 14.63-3.59.15-6.4-.24-8.78-3.07-9.29-11.04-18.8-21.9-28.16-32.89-1.52-1.78-1.34-5.21-5.71-4.69-.26 2.68-.91 5.63-.77 8.54.75 16.21 1.66 32.41 2.63 48.61.09 1.47.71 3.04 1.49 4.31 4.17 6.76 8.62 13.34 12.7 20.16 6.21 10.39 11.15 21.43 15.05 32.85 1.82 5.32 1.91 11.22 2.98 16.82.29 1.55 1.26 2.98 1.94 4.45.64 1.4 1.63 2.73 1.9 4.2 1.4 7.69 3.03 15.38 3.73 23.15.33 3.59-1.23 7.36-2.01 11.03-.21.99-.74 1.91-1.12 2.87-.67-.26-1.34-.51-2.01-.77-1.95-4.66-4.65-9.15-5.72-14-4.06-18.35-8.76-36.54-15.08-54.21-3.33-9.31-8.01-18.16-12.51-27-1.31-2.56-4.12-4.36-6.24-6.51-.44.19-.86.41-1.29.63z" fill="#010100"/><g fill="#fcfafa"><path d="m342.2 3.2-6.3 9.2h6.1v1.2h-8.2v-.5l6.2-9.1h-5.7v-1.2h7.8v.4z"/><path d="m344 13.7v-10.9h3.1c1.6 0 3 .5 4.1 1.4 1.1 1 1.6 2.2 1.6 3.9s-.5 3-1.6 4-2.5 1.5-4.2 1.5h-3zm1.4-9.6v8.4h1.6c1.4 0 2.5-.4 3.2-1.1.8-.8 1.2-1.8 1.2-3.2s-.4-2.4-1.2-3.1-1.8-1-3.1-1z"/><path d="m356.3 2.8v10.9h-1.4v-10.9z"/><path d="m366.6 13.2c-.8.4-1.8.6-3 .6-1.6 0-2.8-.5-3.7-1.5s-1.4-2.3-1.4-3.9c0-1.7.5-3.2 1.6-4.2s2.4-1.6 4-1.6c1 0 1.9.1 2.6.4v1.5c-.8-.4-1.6-.6-2.6-.6-1.2 0-2.2.4-3 1.2s-1.1 1.9-1.1 3.3c0 1.3.4 2.3 1.1 3.1s1.6 1.1 2.8 1.1c1.1 0 2-.2 2.8-.7v1.3z"/><path d="m368.2 13c0-.3.1-.5.3-.6.2-.2.4-.3.6-.3.3 0 .5.1.7.3s.3.4.3.6-.1.5-.3.6c-.2.2-.4.3-.7.3s-.5-.1-.6-.3c-.2-.2-.3-.4-.3-.6z"/><path d="m381.1 13.7h-1.7l-5.5-8.4c-.2-.2-.3-.5-.4-.7 0 .2.1.8.1 1.5v7.6h-1.4v-10.9h1.8l5.3 8.3c.3.4.4.6.4.8 0-.3-.1-.8-.1-1.6v-7.5h1.4v10.9z"/><path d="m389.7 13.7h-5.8v-10.9h5.6v1.2h-4.2v3.5h3.9v1.2h-3.9v3.7h4.4z"/><path d="m398.4 4.1h-3.1v9.6h-1.4v-9.6h-3.1v-1.3h7.7v1.3z"/></g></svg>