<svg enable-background="new 0 0 400 400" viewBox="0 0 400 400" xmlns="http://www.w3.org/2000/svg"><path d="m204.78 315.4c1.26-3.34 2.56-6.82 3.87-10.29.08-.21.35-.4.33-.57-.77-5.38 4.79-7.33 6.31-11.63 1.48-4.19 4.55-7.8 6.71-11.78.69-1.27.72-2.89.97-3.95-2.3-1.13-4.07-2.16-5.97-2.88-1.3-.49-2.79-.47-4.15-.81-1.53-.39-3-1.02-4.53-1.4-2.46-.62-5-.98-7.41-1.73-.91-.29-1.57-1.37-1.65-1.45-3.13-.31-5.61-.19-7.85-.86-3.09-.93-6.36-1.96-8.89-3.84-4.04-3-8.96-2.81-13.21-4.7-3.23-1.44-6.44-3.29-9.06-5.63-1.18-1.05-.9-3.74-1.36-6.07 1.34-.13 2.51-.28 3.68-.33 2.61-.12 4.77-3.02 4.55-5.6-.23-2.68-.24-5.43.11-8.09.53-4.08 1.58-8.09 2.13-12.17.16-1.17-1.07-2.5-.97-3.7.15-1.94.87-3.83 1.37-5.74.11-.43.55-.9.45-1.23-2.04-6.64 4.24-7.82 7.36-11.52 1.6 1.23 3.03 2.43 4.57 3.49 1.55 1.07 2.77 3.06 5.28 1.83.43-.21 1.52 1.04 2.36 1.53 2.06 1.19 4.16 2.3 6.21 3.51 1.11.66 2.14 1.46 3.29 1.99 1.7.79 3.39 1.59 5.09 2.38.68.31 1.59 1.02 2.03.81 2.87-1.41 4.54.67 6.62 1.87.9.52 2.26.18 3.34.47.97.27 1.84.9 2.78 1.32 1.48.66 2.98 1.29 4.47 1.93.61-1.67 1.61-3.31 1.77-5.02.42-4.61.61-9.25.65-13.88.02-2.6-.7-5.22-.61-7.82.05-1.54 1.04-3.05 1.62-4.62-2.06-4.68-5.82-6.59-10.97-6.77-1.87-.07-3.7-1.55-5.33-2.67-1.79-.34-3.72-.36-5.32-1.09-2.73-1.25-5.67-2.53-7.76-4.57-4.23-4.13-9.8-5.69-14.91-7.45-4.26-1.47-7.32-5.25-12.04-5.48-.47-.02-.71-1.57-1.34-2.02-2.95-2.11-6.05-4.01-8.99-6.13-2.06-1.49-4.06-3.1-5.87-4.87-1.92-1.87-3.59-3.98-5.64-6.3-1.89 3.09-.81 5.23.5 6.96 3.02 4 6.37 7.75 9.47 11.7.46.58.42 1.66.36 2.5-.09 1.28-.4 2.54-.71 4.42-2.59 2.01-4.26 1.68-6.73-1.52-1.98-2.56-4.29-4.86-6.33-7.36-.8-.98-1.28-2.21-1.89-3.33-.35-.64-.61-1.33-1.04-1.91-1.42-1.93-3.15-3.67-4.29-5.74-2.36-4.28-4.43-8.71-6.57-13.11-1.41-2.89-2.52-5.94-4.16-8.69-1.07-1.8-2.79-3.24-4.32-4.75-1.15-1.13-2.45-2.11-4.25-3.65 2.52-2.44 4.81-4.65 7.55-7.3.66 1.6.96 2.32 1.09 2.64 3.18 0 6.14.14 9.09-.05 1.89-.12 3.75-.8 5.64-1.11.61-.1 1.31.35 1.9.24 3.51-.69 6.68.07 9.94 1.46.87.37 2.63-1.37 4.23-2.29.29.89.54 1.65.51 1.58 3.73.51 7.06 1 10.41 1.41 1.86.23 3.74.54 5.6.47 2.59-.11 5.14-.06 6.34 2.57.46 1.01.06 2.71-.49 3.81-1.25 2.5-3.26 3.76-6.3 3.25-2.19-.37-4.46-.26-6.69-.32-2.94-.08-5.71.19-8.37-2.08-2.71-2.31-4.2-1.71-8.18 1.41 0-.81 0-1.46 0-2.26-2.09.22-4.02.43-6 .64-.42 7.13 4.99 10.91 9.72 15.1 4.1 3.64 8.25 7.23 12.4 10.82 3.39 2.93 6.63 5.83 11.21 7.26 5.39 1.69 10.44 4.5 15.61 6.89 1.58.73 3.05 1.69 4.58 2.53 3.4 1.88 6.76 3.86 10.23 5.6 2.18 1.09 4.54 1.8 6.82 2.69 3.21 1.26 6.41 2.53 10.03 3.96 1.48-.98 1.73-2.43.94-4.94-.52-1.67-.54-4.26-.18-5.82.53-2.23-.52-3.19-1.21-4.68-.44-.95-.98-2.67-.55-3.09 3.03-2.93 1.49-6.7 2.06-10.03.52-3.05-1.05-6.11.39-9.37.76-1.74-.29-4.22-.3-6.36-.03-3.88-.75-7.84-1.53-11.42-.59-2.69.24-5.41-.9-8.12-.82-1.94.29-4.7.57-7.09.04-.32.41-.72.3-.92-2.1-3.92-.57-8.28-.23-12.02.29-3.2-2.7-7.02.82-9.89-.51-5.58 1.51-11.54-2.04-16.65-1.73-2.5-4.07-4.58-6.34-7.07-.96 2.62-2.03 5.08-2.75 7.63-1.22 4.33-2.32 8.7-3.25 13.1-.21.98.49 2.15.77 3.23.33-.02.67-.03 1-.05-.18.5-.28 1.04-.55 1.48-2.04 3.32-1.93 7.12-2.44 10.78-.11.76-.07 1.66-.47 2.25-1.28 1.88-1.56 3.83-1.85 6.09-.23 1.79-2.58 3.58-4.39 4.74-.61.39-2.74-.87-3.63-1.86-.56-.61-.33-2.2-.06-3.25 1.04-3.98 2.47-7.87 3.32-11.88.49-2.33.01-4.86.27-7.26.19-1.7.86-3.36 1.37-5.02.22-.72 1.06-1.7.83-2.04-1.68-2.57.16-4.69.68-6.96 1.03-4.51 1.04-9.05 1.11-13.66.07-4.3 1.47-8.56 2.13-12.86.47-3.04.53-6.14 1.07-9.17.29-1.63.89-3.41 1.92-4.65 1.25-1.51 3.1-2.52 4.77-3.81 6.39 5.13 2.96 11.12 2.16 17.32 1.08 1.38 3.4 2.37 3.61 5.51.13 1.91 2.11 3.83 3.56 5.48 2.54 2.88 5.8 5.07 5.99 9.62.07 1.72 1.75 3.68 3.19 4.97 3.27 2.92 4.77 7 7.39 10.33.21.26.31.67.57.82 5.6 3.35 8.15 9.42 12.35 14.02 4.58 5.02 8.02 11.09 12.06 16.85-1.75 1.38-3.23 2.55-4.92 3.88-4.08-3.45-9.06-5.73-11.44-11.01-.66-1.46-2.41-2.43-2.94-2.94-1.12-2.2-1.61-3.84-2.62-5.03-3.25-3.81-6.66-7.48-10.08-11.14-.46-.5-1.44-1.09-1.88-.91-.64.26-1.39 1.16-1.44 1.83-.34 5.14-.5 10.29-.75 15.44-.05 1-.04 2.05-.38 2.97-1.37 3.78 0 7.41.44 11.1.14 1.21.18 2.44.31 3.65.49 4.45 1.13 8.89 1.45 13.36.49 6.73 1.61 13.45-.7 20.16-.86 2.5-1.16 5.39-.9 8.02.73 7.31 1.88 14.57 2.8 21.34 1.83.58 3.5 1.17 5.21 1.63s3.45.79 5.19 1.17c.21.05.48-.05.65.04 3.54 1.83 7.16 3.54 10.59 5.56 2.9 1.71 4.91 4.85 8.84 4.97 1.31.04 2.58 1.22 3.87 1.87.41-.29.81-.57 1.22-.86.26 1.84.62 3.68.76 5.53.31 4.05 1.4 8.32.52 12.12-1.05 4.53 2.99 7.63 2.08 11.63-1.49 6.57.32 13.02.27 19.52-.01 2.1-.02 4.48-2.35 5-2.22.49-4.7.2-6.99-.17-1.08-.18-1.91-1.57-3-2.06-1.84-.82-3.79-1.37-5.71-2-1.04-.34-2.16-.49-3.15-.95-6.29-2.9-12.55-5.88-18.84-8.8-2.92-1.36-4.38-.3-4.36 2.87.01 1.25-.48 2.5-.76 3.75-.16.74-.66 1.57-.48 2.21 1.76 6.48-.39 12.75-.9 19.11-.21 2.62.94 4.1 3.37 5.01.85.32 1.35 1.56 1.57 1.83 2.13.31 3.87.56 5.6.82 1.64.25 3.21-.78 5.01.72 1.32 1.09 3.87.53 5.73 1.15 3.13 1.04 6.11 1.04 9.4.64 1.62-.2 3.76 2.34 5.27 4 .33.36-.83 2.41-1.64 3.41-1.76 2.17-3.65 4.6-6.79 1.88-.72-.63-1.22-1.51-1.41-1.75-1.57-.1-2.86-.17-4.14-.25-2.71-.18-5.43-.34-8.13-.57-.89-.08-1.86-.15-2.63-.53-2.11-1.06-3.97-3.04-6.6-.95-.39.31-1.43-.21-2.65-.44 0 3.19-.01 6.28.01 9.38 0 .44-.02.93.15 1.33 1.54 3.73 3.75 7.32 4.55 11.2 1.23 5.98 5.53 10.83 6.31 16.54.53 3.91 1.35 8.46-1.07 12.76-3.38 5.98-5.87 12.46-8.8 18.71-.85 1.8-.6 3.25.46 4.95 2.63 4.23 5.08 8.57 7.48 12.93 1.51 2.74.16 6.29-3.25 8.73-2.09-2.25-4.74-3.71-5.22-7.6-.3-2.43-3.13-4.55-5.14-7.22-.68 1.53-1.05 2.81-1.76 3.87-.76 1.14-1.64 2.57-2.8 3.02-4.39 1.73-4.44 1.6-6.56-3.01.17-.28.31-.74.62-.98 3.72-2.77 3.79-7.46 5.66-11.17 1.49-2.95.57-6.23-1.45-9.44-3.46-5.48-6.1-11.48-9.06-17.28-1.27-2.49-3.83-4.55-2.65-7.93.14-.21-1.2-.9-2.58-1.81zm-26.36-102.37c-.43 1.28-1.82 3.21-1.36 4.49 1.81 5.07-1.84 9.57-.98 14.57.41 2.38-.88 5.05-1.34 7.61-.07.4.32.86.31 1.28-.02 2.66.15 5.36-.24 7.97-.35 2.38 1.19 4.86 3.42 4.07 2.54-.89 4.22.05 5.71 1.53 1.47 1.47 3.55 1.37 5.25 2.95 2.23 2.07 6.43 1.88 9.64 3.05 3.51 1.29 7.61.03 10.8 2.8 1 .87 2.57 1.25 3.95 1.49 3.01.52 6.05.81 8.84 1.16.08-1.54.17-3.1.24-4.67.1-2.19.37-4.4.24-6.58-.14-2.29-1.41-4.8-.8-6.79.62-2.02-.25-3.49-.2-5.17.08-2.51.93-4.99 1.12-7.51.24-3.21-.49-5.89-4.44-6.53-1.46-.24-2.74-1.4-4.17-2.01-3.48-1.47-7-2.87-10.52-4.26-.26-.1-.65.17-.97.14-1.25-.13-2.86.12-3.67-.56-2.39-2.02-5.1-2.72-8.06-3.38-1.88-.42-3.46-2.19-5.16-3.37-.35-.24-.6-.73-.96-.82-2.18-.53-4.39-.97-6.65-1.46zm57.03-21.54c-.96 3.9-2.44 7.49-2.6 11.13-.17 4 1.76 8.14-1.28 11.85-.1.12.01.42.03.64.22 3.28.45 6.57.67 9.79 1.67.16 3.32-.19 4.17.48 2.92 2.28 6.05 3.86 9.54 5.17 4.26 1.61 7.81 4.93 12.63 5.36.48.04.88.69 1.39.87.89.31 2.2.96 2.69.59.96-.72 1.5-2.02 2.18-3.11.33-.52.56-1.09.88-1.61.39-.65 1.21-1.31 1.16-1.91-.16-1.96-.34-4.01-1.03-5.83-1.73-4.59-1.66-9.3-1.62-14.08.02-2.34.19-6.09-1.03-6.75-3.41-1.84-5.97-4.93-9.08-6.52-5.79-2.95-12.47-4.16-18.7-6.07zm-10.24 144.89c4.13-1.53 5.48-3.74 5.27-8.17-.02-.49.32-1.12.68-1.49 2.21-2.26 1.92-4.45.56-7.16-1.04-2.07-.92-4.69-1.64-6.97-1.44-4.55-3.02-9.05-4.71-13.51-.48-1.26-1.56-2.28-2.37-3.41-.43.02-.86.05-1.29.07-.48 6.33-7.12 9.39-7.21 16.32-.06 4.56 4.02 6.53 4.48 10.43.12 1.05 1.66 2.1 1.52 2.99-.73 4.79 2.65 7.52 4.71 10.9z" fill="#010100"/><g fill="#fcfafa"><path d="m342.2 3.2-6.3 9.2h6.1v1.2h-8.2v-.5l6.2-9.1h-5.7v-1.2h7.8v.4z"/><path d="m344 13.7v-10.9h3.1c1.6 0 3 .5 4.1 1.4 1.1 1 1.6 2.2 1.6 3.9s-.5 3-1.6 4-2.5 1.5-4.2 1.5h-3zm1.4-9.6v8.4h1.6c1.4 0 2.5-.4 3.2-1.1.8-.8 1.2-1.8 1.2-3.2s-.4-2.4-1.2-3.1-1.8-1-3.1-1z"/><path d="m356.3 2.8v10.9h-1.4v-10.9z"/><path d="m366.6 13.2c-.8.4-1.8.6-3 .6-1.6 0-2.8-.5-3.7-1.5s-1.4-2.3-1.4-3.9c0-1.7.5-3.2 1.6-4.2s2.4-1.6 4-1.6c1 0 1.9.1 2.6.4v1.5c-.8-.4-1.6-.6-2.6-.6-1.2 0-2.2.4-3 1.2s-1.1 1.9-1.1 3.3c0 1.3.4 2.3 1.1 3.1s1.6 1.1 2.8 1.1c1.1 0 2-.2 2.8-.7v1.3z"/><path d="m368.2 13c0-.3.1-.5.3-.6.2-.2.4-.3.6-.3.3 0 .5.1.7.3s.3.4.3.6-.1.5-.3.6c-.2.2-.4.3-.7.3s-.5-.1-.6-.3c-.2-.2-.3-.4-.3-.6z"/><path d="m381.1 13.7h-1.7l-5.5-8.4c-.2-.2-.3-.5-.4-.7 0 .2.1.8.1 1.5v7.6h-1.4v-10.9h1.8l5.3 8.3c.3.4.4.6.4.8 0-.3-.1-.8-.1-1.6v-7.5h1.4v10.9z"/><path d="m389.7 13.7h-5.8v-10.9h5.6v1.2h-4.2v3.5h3.9v1.2h-3.9v3.7h4.4z"/><path d="m398.4 4.1h-3.1v9.6h-1.4v-9.6h-3.1v-1.3h7.7v1.3z"/></g></svg>