<svg enable-background="new 0 0 400 400" viewBox="0 0 400 400" xmlns="http://www.w3.org/2000/svg"><path d="m374.8 390.4.4-.4c.7.5 1.3 1 1.8 1.4l-.5.5c-.5-.6-1.1-1.1-1.7-1.5zm1 7.3-.6-.3c.5-1.4 1.1-2.8 1.5-4.3.2.1.4.2.6.3-.5 1.3-1 2.8-1.5 4.3zm-.4-10.3.4-.4c.4.3 1 .8 1.7 1.4l-.5.5c-.4-.5-1-1-1.6-1.5zm2.5.3h1.7v-1h.6v1h3.5v-1h.6v1h1.8v.5h-1.8v1.4h-2v1h3.2v2h-3.2v.9h3.3v.5h-3.4c0 .3-.1.6-.1.9h4v.5h-3.7c.7.9 1.9 1.5 3.8 1.7-.1.2-.2.4-.3.6-2.1-.4-3.5-1.1-4-2.1-.4 1-1.8 1.7-4 2.2-.1-.2-.2-.4-.3-.6 2.1-.4 3.4-1 3.8-1.8h-3.4v-.5h3.6c.1-.3.1-.6.2-.9h-3.3v-.5h3.4c0-.3 0-.6 0-.9h-3.2v-2h3.3v-1h-2.1v-1.4h-1.7v-.5zm1.1 3.5v1h2.7c0-.3 0-.4 0-.4 0-.1 0-.2 0-.2 0-.1 0-.2 0-.3h-2.7zm1.2-3v.9h3.5v-.9zm4.7 3h-2.6v.6.4h2.6z" fill="#fbfcfa"/><path d="m393.6 386.7h.6v1.5h2.7v6.1h1.1v.6h-11v-.6h1.1v-6.1h2.7v-1.5h.6v1.5h2.1v-1.5zm-2.7 8.8.4.6c-1.2.6-2.5 1.3-3.8 1.9-.1-.2-.2-.4-.3-.6 1.2-.6 2.5-1.2 3.7-1.9zm-2.2-6.7v2.4h2.1v-2.4zm0 3v2.5h2.1v-2.5zm2.8-3v2.4h2.1v-2.4zm0 3v2.5h2.1v-2.5zm6 6.1c-1.4-.7-2.7-1.3-3.9-1.8l.3-.6c1.5.6 2.7 1.2 3.9 1.7zm-1.2-9.1h-2.1v2.4h2.1zm-2.1 3v2.5h2.1v-2.5z" fill="#fbfcfa"/><g fill="#010101"><path d="m180.1 336.82c1.56-5.11 3.24-10.13 4.61-15.23.66-2.45.51-5.11 1.13-7.58.81-3.17 1.21-6.97 3.22-9.2 5.87-6.51 5.05-14.54 6.14-22.13 1-6.97 1.4-14.03 2.49-20.99.52-3.31-.33-5.11-2.12-5.57-5.43 4.9-10.58 9.08-15.14 13.84-3.37 3.52-7.6 2.61-11.51 3.39-.35.07-1.7-1.96-1.47-2.34 1.93-3.2 3.6-8.15 6.35-8.9 4-1.09 5.45-3.54 7.76-6.07 4.8-5.28 10.13-10.07 15.1-15.2.98-1.01 1.74-2.56 1.94-3.96 1.03-7.2 1.68-14.45 2.83-21.62.33-2.07 1.83-3.97 2.86-5.91 1.4-2.65 3.01-5.2 4.28-7.91 1.41-3 1.26-6.11-.28-9.06-1.63-3.13-1.57-6.25-.94-9.7.71-3.86.43-7.89.74-11.84.1-1.26.68-2.49 1.04-3.73.56.03 1.11.07 1.67.1 1.47 6.68 3.17 13.32 4.32 20.05.56 3.26-.03 6.71.15 10.06.16 3.15 1.78 5.55 4.76 6.72 2.7 1.05 4.55-.61 5.98-2.57 4.22-5.75 8.81-11.31 12.35-17.45 3.69-6.4 4-13.16-1.41-19.29-1.69-1.91-2.78-4.33-4.36-6.36-3.58-4.6-8.45-4.38-11.55.45-1.29 2.02-2.58 3.97-5.65 3.73-.81-3.02-2.1-5.79 1.37-8.46 2.57-1.98 3.15-5.16 1.83-8.26-2.6-6.12-3.99-12.64-7.52-18.52-5.29-8.84-5.12-18.84-3.64-28.74 2.56-17.02 5.24-34.02 7.97-51.02.36-2.27 1.26-4.45 1.91-6.68 3.68.18 3.59 2.42 3.52 4.75-.28 9.15-.43 18.31-.8 27.46-.13 3.15.65 5.81 2.25 8.53 1.47 2.51 2.15 5.48 3.43 8.13.47.98 1.53 1.94 2.54 2.35 5.46 2.17 8.3 6.18 9.47 11.87.88 4.26 2.65 8.15 5.64 11.6 3.3 3.8 1.56 11.54-2.25 15.58-2.59 2.75-4.81 6.12-6.28 9.59-1.35 3.18-.27 6.36 2.33 9.15 5.7 6.1 10.37 12.91 12 21.34.95 4.91.7 9.26-3.53 13.08-3.1 2.8-5.44 6.52-7.74 10.08-4.43 6.85-9.79 12.69-16.42 17.5-2.37 1.72-4.33 2.36-6.97 1.23-.98-.42-2.09-.51-3.58-.85 0 6.36-.02 12.37.01 18.38.02 5.14-1.29 10.86.54 15.27 1.83 4.4 6.82 7.49 10.44 11.13 5.45 5.48 10.74 11.07 13.91 19.3-2.64-.6-4.84-.75-6.73-1.59-4.7-2.1-9.14-4.57-12.33-8.93-2.96-4.04-6.92-3.46-8.44 1.31-3.6 11.31-5.76 22.77-1.74 34.51.31.91.48 2.01.27 2.93-.69 2.99-.83 5.67 2.36 7.42.41.22.92 1.1.78 1.36-2.2 4.22 2.06 7.86 1.03 12.02-.27 1.1.53 2.53 1.02 3.73 3.38 8.24 6.96 16.4 10.12 24.72.74 1.94-.24 4.46.15 6.61.46 2.52 1.69 4.9 2.32 7.4.46 1.81.94 3.81.59 5.56-.37 1.85-2.75 2-3.82.38-4.78-7.28-7.8-15.3-9.85-23.72-.08-.32-.21-.76-.07-.98 2.68-4.15-.79-5.94-3.08-8.23-2.96-2.97-4.43-6.29-2.8-10.6.4-1.07-.24-2.61-.59-3.89-.59-2.16-1.25-4.3-2.01-6.41-.42-1.18-.99-3.17-1.67-3.25-2.04-.24-4.75-1.1-5.82 1.74-1.16 3.09-1.94 6.01-5.27 8.03-1.73 1.05-2.04 4.53-2.89 6.94-1.34 3.75-2.48 4.41-7.25 3.42zm45.87-202.88c4.97-2.64 9.01-6.59 10.57-11.38 1.75-5.36.08-11.23-3.95-15.62-3.61-3.92-7.73-7.37-11.54-10.95-5.87 3.75-2.59 28.05 4.92 37.95z"/><path d="m156.01 36.06c-2.76-1.18-6.5-2.28-9.57-4.36-1.11-.75-.64-3.85-.89-5.88.32-.32.65-.65.97-.97 3.21 1.32 6.67 2.23 9.57 4.04 6.93 4.31 12.92 9.54 15.44 17.84.49 1.6 2.09 3.03 3.48 4.16 2.85 2.32 6.04 4.24 8.85 6.6 2.44 2.04 3.45 4.83 2.83 8.6-1.72-.47-3.33-.75-4.82-1.34-2.66-1.05-4.25.02-5.36 2.35-2.25 4.72-.57 12.54 3.5 15.72 3.26 2.55 6.86 4.7 9.88 7.5 2.4 2.23 4.19 5.13 6.11 7.82.3.42.14 1.58-.24 1.96-.43.42-1.56.68-2.03.4-1.42-.83-2.78-1.84-3.98-2.98-4.46-4.22-9.51-7.31-16.56-8.82-.44 3.97-.95 7.64-1.21 11.33-.09 1.18.47 2.4.68 3.61 1.64 9.21 5.27 17.01 13.92 21.95 3.84 2.19 6.93 5.67 10.62 8.19 2.86 1.95 4.08 4.23 3.14 8.37-1.89-.12-4.29.35-6.03-.5-3.85-1.89-7.84-3.95-10.94-6.84-8.09-7.53-14.38-16.53-18.79-26.7-.82-1.89-1.01-4.24-.83-6.33.26-3.1 1.18-6.14 1.67-9.23.19-1.17.34-2.6-.15-3.57-1.6-3.15-1.27-6.19-.2-9.35.57-1.69.75-3.53 1.45-5.16 2.94-6.88 1.6-13.36-1.68-19.64-2.28-4.36-4.84-8.56-7.06-12.95-.87-1.7-1.15-3.71-1.77-5.82z"/><path d="m173.83 354.58c1.27-4.01 2.44-7.71 3.68-11.62 3.68 1.53 3.31 3.98 2.87 6.37-.57 3.1-1.48 5.95-6.55 5.25z"/></g></svg>