<svg enable-background="new 0 0 400 400" viewBox="0 0 400 400" xmlns="http://www.w3.org/2000/svg"><path d="m374.8 390.4.4-.4c.7.5 1.3 1 1.8 1.4l-.5.5c-.5-.6-1.1-1.1-1.7-1.5zm1 7.3-.6-.3c.5-1.4 1.1-2.8 1.5-4.3.2.1.4.2.6.3-.5 1.3-1 2.8-1.5 4.3zm-.4-10.3.4-.4c.4.3 1 .8 1.7 1.4l-.5.5c-.4-.5-1-1-1.6-1.5zm2.5.3h1.7v-1h.6v1h3.5v-1h.6v1h1.8v.5h-1.8v1.4h-2v1h3.2v2h-3.2v.9h3.3v.5h-3.4c0 .3-.1.6-.1.9h4v.5h-3.7c.7.9 1.9 1.5 3.8 1.7-.1.2-.2.4-.3.6-2.1-.4-3.5-1.1-4-2.1-.4 1-1.8 1.7-4 2.2-.1-.2-.2-.4-.3-.6 2.1-.4 3.4-1 3.8-1.8h-3.4v-.5h3.6c.1-.3.1-.6.2-.9h-3.3v-.5h3.4c0-.3 0-.6 0-.9h-3.2v-2h3.3v-1h-2.1v-1.4h-1.7v-.5zm1.1 3.5v1h2.7c0-.3 0-.4 0-.4 0-.1 0-.2 0-.2 0-.1 0-.2 0-.3h-2.7zm1.2-3v.9h3.5v-.9zm4.7 3h-2.6v.6.4h2.6z" fill="#fbfcfa"/><path d="m393.6 386.7h.6v1.5h2.7v6.1h1.1v.6h-11v-.6h1.1v-6.1h2.7v-1.5h.6v1.5h2.1v-1.5zm-2.7 8.8.4.6c-1.2.6-2.5 1.3-3.8 1.9-.1-.2-.2-.4-.3-.6 1.2-.6 2.5-1.2 3.7-1.9zm-2.2-6.7v2.4h2.1v-2.4zm0 3v2.5h2.1v-2.5zm2.8-3v2.4h2.1v-2.4zm0 3v2.5h2.1v-2.5zm6 6.1c-1.4-.7-2.7-1.3-3.9-1.8l.3-.6c1.5.6 2.7 1.2 3.9 1.7zm-1.2-9.1h-2.1v2.4h2.1zm-2.1 3v2.5h2.1v-2.5z" fill="#fbfcfa"/><g fill="#010101"><path d="m222.07 196.3c-.94-3.63-1.49-7.33-2.88-10.69-1.24-2.98-3.17-5.78-5.23-8.29-1.38-1.68-3.28-1.6-5.26.04-4.99 4.13-10.21 7.97-15.34 11.93-.33-.15-.66-.31-.99-.46 2.25-5.62 3.99-11.52 6.91-16.77 2.57-4.64 6.39-8.61 9.79-12.76 1.4-1.7 2.01-3.34 1.31-5.51-.48-1.48-.53-3.1-1.03-4.57-3.66-10.66-.68-21.25.19-31.87.32-3.91 1.67-7.3 3.65-10.61 3.1-5.18 5.91-10.53 8.98-15.73 1.18-2 2.47-4.07 4.17-5.6 2.52-2.25 2.64-4.69 2.27-7.79-.64-5.4-.6-10.88-1.07-16.3-.43-4.89-1.11-9.76-1.77-14.62-1.03-7.58.95-14.59 3.64-21.5 3.91.76 6.6 3.51 6.64 8.85.04 6.42.85 12.49 2.7 18.65 1.15 3.85.51 8.23.88 12.35.09 1.03.75 2.3 1.56 2.86.44.31 1.94-.43 2.63-1.06 2.97-2.72 5.9-5.5 8.68-8.41 3.43-3.59 7.1-6.75 11.78-8.64 3.29-1.33 4.02-4.42 4.97-7.48.72-2.33 2-4.6 3.48-6.55.99-1.31 2.73-1.15 3.52.6 1.09 2.4 2.51 4.84 2.83 7.38 1.25 10.06 2.18 20.17 3.14 30.27 1.21 12.75.68 25.28-5.23 37.01-.83 1.65-2 3.27-3.39 4.47-6.7 5.76-13.38 11.58-20.4 16.94-3.45 2.64-4.22 5.73-3.19 9.36 1.25 4.39 3.12 8.59 4.57 12.93.59 1.76.99 3.66 1.05 5.5.08 2.58-.11 5.14 1.9 7.19.15.15.25.39.28.6 2.11 12.46 9.89 23.25 10.39 36.26.27 7.06.29 14-3.36 20.17-1.81 3.07-4.58 5.75-7.38 8.03-3.98 3.24-8.57 5.72-12.55 8.97-4.09 3.34-8.37 6.69-8.74 12.85-.08 1.33-2.06 2.85-3.5 3.75-5.1 3.18-7.45 7.62-7.68 13.63-.55 14.31-1.4 28.6-2.17 43.92 1.64-.62 3.13-.78 4.01-1.59 4.19-3.87 8.23-7.91 12.3-11.91.55-.54 1.43-1.25 1.37-1.8-.4-3.8 2.63-5.11 4.86-6.96 3.79-3.15 7.56-6.31 11.47-9.3 3.57-2.74 5.9-6.45 8.73-9.81 8.26-9.8 16.03-20.07 25.96-28.47 3.86-3.27 5.98-8.55 9.08-12.78.78-1.07 2.47-2.47 3.41-2.25 2.69.62 6.14-.64 7.8 3.16 2 4.58 1.56 9.06.88 13.79-.76 5.26-1.32 10.64-1.14 15.93.37 10.75-1.74 21.14-3.59 31.6-.12.66-.45 1.32-.4 1.96 1.32 16.41-4.28 31.52-9.09 46.69-2.45 7.72-5.87 15.17-9.33 22.51-1.45 3.06-4.16 5.53-6.3 8.27-.46-.26-.93-.52-1.39-.77 1.38-4.72 2.75-9.44 4.15-14.15 1.19-4.02 3.05-7.98 3.46-12.07.78-7.78.79-15.63 4.17-22.92.33-.71.48-1.97.08-2.46-1.85-2.31-1.08-4.53-.28-6.92 4.64-13.83 5.38-28.25 6.28-42.63.21-3.3-.47-6.68-.89-10-.31-2.48-1.56-2.81-3.31-1.06-1.82 1.82-3.65 3.63-5.38 5.54-4.01 4.41-8.36 8.36-13.68 11.2-1.04.56-2.21 1.78-2.41 2.86-.59 3.18-2.41 5.37-4.62 7.53-6.56 6.42-12.99 12.97-19.51 19.43-.93.92-1.99 2.01-3.18 2.34-4.79 1.34-7.79 4.51-9.87 8.81-.29.6-.79 1.11-1.04 1.72-2.33 5.79-6.57 8.52-12.83 8.66-1.76.04-2.53-.32-3.39-1.75-7.23-11.96-9.73-25.15-9.85-38.86-.05-5.56.7-11.14 1.35-16.68.37-3.18 1.15-6.15 3.79-8.63 1.54-1.44 2.01-4.14 2.68-6.36.98-3.24 2.41-5.85 5.82-7.23 1.54-.63 3.05-1.95 4-3.34 5.87-8.66 13.2-15.66 22.3-20.88 2.09-1.2 3.98-2.93 5.58-4.76 2.97-3.4 4.8-7.13 2.83-11.91-1.14-2.76-1.66-5.79-2.37-8.72-1.06-4.34-2.63-8.33-5.09-12.22-2.5-3.96-3.79-8.75-5.23-13.3-1.79-5.64-3.11-11.42-4.8-17.09-.53-1.79-1.44-3.54-2.5-5.08-2.23-3.23-5.11-3.18-7.48-.06-.47.62-.85 1.35-1.42 1.87-6.19 5.66-6.28 12.59-4.31 20.01.77 2.92 1.48 5.85 2.06 8.81 1.16 6.05-.28 10.19-4.49 12.73zm24.21-78.29c5.45 1.44 9.41-.23 12.64-5.37 3.03-4.83 5.96-9.72 8.81-14.66.88-1.52 1.76-3.24 1.92-4.93.8-8.79 1.41-17.6 1.97-26.41.1-1.65-.19-3.36-.54-4.99-.55-2.52-3.73-3.53-5.63-1.81-5.8 5.26-11.83 10.32-17.23 15.96-2.53 2.64-5.49 5.86-5.16 9.98.86 10.71 2.1 21.38 3.22 32.23zm-13.44-18.17c-13.27 10.63-18.15 33.15-10.32 43.8 9.91-3.77 13.53-12.82 12.72-20.97-.72-7.32-4.36-14.29-2.4-22.83z"/><path d="m104.93 92.56c6.79 1.41 12.89 2.77 19.03 3.9 3.06.56 6.2.83 9.31 1 2.53.13 4.27-1.1 4.65-3.78.32-2.21.94-4.44.85-6.63-.47-11.26-.91-22.53-1.79-33.77-.58-7.42.42-10.31 6.77-12.99 1.49 5.9 3.52 11.6 4.28 17.46 1.21 9.4 2.18 18.91 2.12 28.36-.06 9.1 5.53 11.37 12.28 9.29.43-.13.85-.38 1.28-.38 3.43-.01 5-1.79 5-5.13 0-.44.06-.93.26-1.31 4.29-7.78 3.6-16.89 6.74-24.98 3.11-8 5.97-16.09 8.92-24.06 5.87.39 6.64 1.82 5.5 7.14-2.53 11.78-4.68 23.64-7.07 35.45-.53 2.6-1.43 5.13-2.33 8.25 2.54 0 4.85-.24 7.07.08 1.46.21 3.91 1.14 3.97 1.9.15 1.98-.18 4.57-1.4 5.94-1.8 2.01-4.79 2.91-6.8 4.8-1.58 1.47-2.96 3.57-3.51 5.64-1.63 6.06.83 11.5 3.89 16.46 1.74 2.82 4.99 3.97 8.48 3.92 3.81-.06 7.01 3.05 6.95 6.86-.01.68-.73 1.8-1.32 1.95-2.85.73-5.82 1.88-8.65 1.64-8.84-.75-11.19 1.7-9.45 10.73 1.39 7.24 2.95 14.46 4.12 21.73 1.83 11.31 2.76 22.66.37 34.03-.11.51-.25 1.01-.38 1.51-.35.07-.69.15-1.04.22-.62-2.2-1.65-4.38-1.79-6.61-.31-5.01-.79-9.79-4.84-13.45-.74-.67-1.04-1.95-1.28-3.01-2.04-9.05-4.29-18.06-5.93-27.18-1.23-6.79-1.66-13.73-2.45-20.67-5.1 0-10.2-.09-15.3.1-.71.03-1.81 1.38-1.98 2.27-.81 4.13-1.75 8.3-1.93 12.48-.77 17.59-2.98 34.99-6.77 52.15-1.95 8.84-6.68 15.67-13.03 19.86 1.13-7.81 1.94-15.05 3.27-22.19 1.67-9 3.24-17.8 2.7-27.18-.49-8.45 1.74-17.06 2.74-25.6.3-2.55.81-5.12.69-7.65-.19-3.96-1.78-5.31-5.64-4.47-5.12 1.11-10.22 2.48-15.15 4.23-8 2.84-15.87 6.04-23.75 9.17-4.9 1.95-10.08.2-12.28-4.54 6.63-3.37 12.98-8.46 20-9.69 8.63-1.51 15.84-5.74 23.83-8.32 2.19-.71 4.63-.94 6.94-.88 2.58.07 4.12-1.01 5.47-3.02 1.37-2.04 3-3.9 4.51-5.84 2.44-3.13 1.93-5.79-1.57-7.88-5.57-3.34-11.74-4.78-18.1-5.7-7.09-1.02-13.1-3.69-16.46-11.61zm46.52 21.49c.01 5.26 3.27 8.76 8.5 9.57 3.35.52 6.65-2.24 7.93-6.71.37-1.28.67-2.6.85-3.92.68-4.88-3.07-7.8-7.76-6-2.19.84-4.26 1.99-6.48 2.71-2.44.81-3.35 2.35-3.04 4.35z"/></g></svg>