<svg enable-background="new 0 0 400 400" viewBox="0 0 400 400" xmlns="http://www.w3.org/2000/svg"><path d="m374.8 390.4.4-.4c.7.5 1.3 1 1.8 1.4l-.5.5c-.5-.6-1.1-1.1-1.7-1.5zm1 7.3-.6-.3c.5-1.4 1.1-2.8 1.5-4.3.2.1.4.2.6.3-.5 1.3-1 2.8-1.5 4.3zm-.4-10.3.4-.4c.4.3 1 .8 1.7 1.4l-.5.5c-.4-.5-1-1-1.6-1.5zm2.5.3h1.7v-1h.6v1h3.5v-1h.6v1h1.8v.5h-1.8v1.4h-2v1h3.2v2h-3.2v.9h3.3v.5h-3.4c0 .3-.1.6-.1.9h4v.5h-3.7c.7.9 1.9 1.5 3.8 1.7-.1.2-.2.4-.3.6-2.1-.4-3.5-1.1-4-2.1-.4 1-1.8 1.7-4 2.2-.1-.2-.2-.4-.3-.6 2.1-.4 3.4-1 3.8-1.8h-3.4v-.5h3.6c.1-.3.1-.6.2-.9h-3.3v-.5h3.4c0-.3 0-.6 0-.9h-3.2v-2h3.3v-1h-2.1v-1.4h-1.7v-.5zm1.1 3.5v1h2.7c0-.3 0-.4 0-.4 0-.1 0-.2 0-.2 0-.1 0-.2 0-.3h-2.7zm1.2-3v.9h3.5v-.9zm4.7 3h-2.6v.6.4h2.6z" fill="#fbfcfa"/><path d="m393.6 386.7h.6v1.5h2.7v6.1h1.1v.6h-11v-.6h1.1v-6.1h2.7v-1.5h.6v1.5h2.1v-1.5zm-2.7 8.8.4.6c-1.2.6-2.5 1.3-3.8 1.9-.1-.2-.2-.4-.3-.6 1.2-.6 2.5-1.2 3.7-1.9zm-2.2-6.7v2.4h2.1v-2.4zm0 3v2.5h2.1v-2.5zm2.8-3v2.4h2.1v-2.4zm0 3v2.5h2.1v-2.5zm6 6.1c-1.4-.7-2.7-1.3-3.9-1.8l.3-.6c1.5.6 2.7 1.2 3.9 1.7zm-1.2-9.1h-2.1v2.4h2.1zm-2.1 3v2.5h2.1v-2.5z" fill="#fbfcfa"/><g fill="#010101"><path d="m203.61 374.45c-.53-8.25-1.08-16.49-1.6-24.74-.62-9.83-1.34-19.65-1.73-29.49-.12-2.95.38-6.06 1.25-8.9 3.01-9.9 2.52-19.81.88-29.84-1.04-6.37-2.2-12.8-.69-19.31.23-1-.16-2.2-.44-3.26-3.85-14.7-7.68-29.41-11.65-44.08-.47-1.74-1.5-3.48-2.68-4.86-5.25-6.11-10.97-11.85-15.9-18.19-3.61-4.64-6.12-10.12-9.4-15.04-3.82-5.75-8.08-11.21-11.86-16.98-1.2-1.84-2.07-4.29-2.09-6.46-.13-17.41 1.32-34.53 7.83-51.02 4.79-12.14 10.27-23.79 18.32-34.09 3-3.83 4.53-8.07 5.22-12.82.29-1.99 1.2-4.07 2.37-5.73 5.73-8.11 11.64-16.1 17.51-24.16 3.51 1.19 4.63 3.57 3.73 6.65-2 6.86-4.16 13.67-6.4 20.45-2.98 9.01-6.08 18-9.21 26.96-.58 1.66-1.46 3.25-2.43 4.72-2.9 4.41-3.77 9.11-1.87 14.06 1.92 5 4.09 9.91 6.25 14.81.48 1.09 1.32 2.07 2.17 2.93 12.93 12.87 25.85 25.75 38.87 38.53 2.14 2.1 5.01 3.46 7.05 5.63 1.57 1.67 2.36 4.07 3.49 6.15-2.01 1.01-3.99 2.79-6.04 2.87-6.48.25-11.97-2.35-15.99-7.55-.44-.57-.29-1.83-.03-2.65 1.04-3.3.7-4.05-2.66-4.34-2.99-.26-5.37-1.37-7.75-3.35-9.07-7.59-17.4-15.71-23.04-26.33-2.36-4.44-6.4-7.07-11.87-7.95-4.4 10.36-11.56 19.9-9.5 32.26.16.97.42 1.97.86 2.83 3.43 6.66 6.9 13.29 10.41 19.91.57 1.07 1.21 2.25 2.14 2.93 6.7 4.94 10.7 11.99 14.64 18.98 6.49 11.48 12.67 23.13 18.83 34.79 4.28 8.09 5.8 16.99 5.77 25.97-.09 27.41.09 54.84-1.19 82.21-.53 11.44-4.35 22.75-6.97 34.05-.37 1.58-2.39 2.78-3.64 4.16-.3-.25-.63-.48-.96-.71z"/><path d="m241.28 158.9c-4.57-5.19-6.2-11.55-7.01-18.12-.6-4.86-.91-9.81-.74-14.7.11-3.11 1.48-6.15 2.04-9.27.44-2.48.87-5.04.68-7.52-.52-7 .61-13.54 4.99-20.26.92 2.02 2.11 3.56 2.31 5.23 1.61 13.07 3.28 26.13 4.4 39.24.49 5.74-.23 11.59-.4 17.39-.1 3.98-1.96 6.68-6.27 8.01z"/></g></svg>