<svg enable-background="new 0 0 400 400" viewBox="0 0 400 400" xmlns="http://www.w3.org/2000/svg"><path d="m122.92 279.27c.36-1.43.43-3.03 1.13-4.27 2.51-4.48 5.28-8.83 7.86-13.27 1.68-2.9 3.41-5.79 4.78-8.84 3.96-8.88 1.89-16.68-5.22-23.17-1.85-1.69-2.51-4.78-3.45-7.32-.71-1.92-1.39-3.24-3.55-4.28-2.09-1-3.32-3.73-5.05-5.59-.75-.8-2.07-2.01-2.66-1.79-1.12.41-2.52 1.61-2.73 2.7-1.51 7.55-2.56 15.19-4.15 22.72-.77 3.66-2.27 7.18-3.67 10.67-.65 1.63-1.86 3.03-2.87 4.62-3.64-3.82-4.38-7.08-3.33-10.24 4.25-12.74 3.63-26.08 5.16-39.15.42-3.55.58-7.14.88-10.71.07-.78-.04-1.77.38-2.29 3.17-3.88 1.16-7.99.99-12.15-.38-9.24.99-18.3 5.33-26.65.69-1.32 2.06-2.32 3.24-3.32 12.74-10.74 25.71-21.21 38.17-32.27 6.32-5.61 11.71-12.28 17.57-18.43 1.22-1.28 2.53-2.56 4.02-3.48 18.69-11.59 29.49-28.48 33.87-49.81 1.19-5.78 2.86-11.47 4.36-17.4 3.21 1.58 4.63 4.17 4.65 7.11.03 3.76-.36 7.58-1.08 11.27-1.24 6.42-2.45 12.82-.16 19.19.68 1.9 1.87 3.87 3.37 5.18 20.67 18.02 41.49 35.87 62.13 53.91 3.76 3.29 7.14 7.09 10.23 11.01 1.12 1.42 1.49 4.02 1.13 5.88-.98 5.1-1.14 10.05-.59 15.26.46 4.33-.79 8.83-1.21 13.27-.23 2.44-.77 4.96-.4 7.32 1.73 10.95-.84 21.64-1.72 32.42-.9 11.02-2.14 22.04-3.8 32.98-.85 5.59-2.86 11.01-4.49 16.46-1 3.36-5.67 4.25-8.15 1.64-1.92-2.03-3.75-4.15-5.63-6.22-1.86-2.06-3.73-4.1-5.77-6.34-3.48 4.32-4.23 9.3-4.76 14.26-1.01 9.41-.45 19.01-3.92 28.12-.71 1.87-.26 4.21-.22 6.34.09 4.26-.55 8.26-1.91 12.42-1.5 4.58-1.28 9.7-2.04 14.55-.67 4.28-1.83 8.49-2.48 12.78-1.31 8.71-2.47 17.44-3.59 26.18-.68 5.31-2.05 10.27-6.33 14.37-2.06-4.08-3.7-7.74-2.34-12.41 1.41-4.87 3.06-9.89 1.34-15.13-.15-.47.03-1.13.25-1.62 2.39-5.25 2.19-10.87 2.57-16.45.21-3.05 1.36-6.03 1.97-9.06.86-4.36 1.91-8.71 2.36-13.11 2.16-20.92 4.15-41.86 6.22-62.8.09-.86.22-1.86.7-2.52 4.03-5.5 3.81-11.47 2.1-17.63-2.72-9.8-5.29-19.64-8.25-29.36-1.1-3.63-1.38-6.92.39-10.29 1.36-2.59 1.28-5.08-.31-7.59-2.36-3.74-2.46-7.81-1.48-11.98 2.19-9.34 5.87-18.05 11.14-26.07.72-1.1 1.68-2.03 2.71-3.25 2.33 4.04 3.09 7.94 1.86 12.14-.28.97-.48 1.98-.93 2.87-3.99 7.81-5.11 15.98-3.94 24.69.82 6.08.65 12.29 1.31 18.4.23 2.11 1.63 4.08 2.88 7 2.69-3.7 4.66-6.36 6.58-9.05 4.63-6.45 8.9-13.2 13.96-19.31 6-7.25 6.78-15.28 5.35-23.99-.27-1.65-.69-3.28-1.01-4.93-1.43-7.23-4.22-13.54-10.68-17.86-19.32-12.92-35.27-29.89-53.22-44.46-2.59-2.1-5.51-3.81-8.33-5.62-1.63-1.05-2.89-.77-4.28.85-6.79 7.89-13.73 15.66-20.67 23.41-1.1 1.23-2.33 2.65-3.79 3.2-4.41 1.66-7.36 4.94-10.34 8.3-2.97 3.35-5.98 6.66-9.04 9.94-4.93 5.27-9.2 11.22-16.33 14.08-2.4.96-4.28 3.2-6.44 4.78-6.03 4.41-12.01 8.88-18.17 13.11-1.73 1.19-2.13 2.13-1.95 4.26.29 3.48-.09 7.06-.49 10.56-.88 7.53-1.96 15.04-2.93 22.56-.07.55.13 1.12.07 1.67-.37 3.94 1.2 6.15 5.27 6.89 1.37.25 2.89 1.66 3.64 2.95 2.42 4.15 4.93 7.91 8.99 10.94 2.8 2.09 4.22 6.15 5.96 9.49 1.58 3.03 2.97 6.05 6.61 6.52 4.75-10.49 5.06-21.57 5.56-32.62.04-.86-.23-1.76-.5-2.6-3.99-12.32-8.05-24.61-11.98-36.94-.74-2.32-1.37-4.8-1.31-7.19.03-1.26 1.67-2.47 2.59-3.71.98.8 2.38 1.4 2.89 2.44 4.38 8.91 9.14 17.69 12.73 26.93 3.93 10.13 4.67 20.9 3.31 31.73-.1.78-.36 1.6-.21 2.33 1.6 7.68-1.08 14.69-4.08 21.33-4 8.88-3.8 17.13.4 25.83 2.6 5.38 4.59 11.18 3.26 17.48-.21.98.32 2.19.74 3.2 3.34 8.05 5.06 16.24 4.58 25.12-1.07 19.78-1.52 39.59-2.17 59.39-.06 1.77-.23 3.15-3.23 2.86-.7-4.39-1.62-8.94-2.09-13.53-.37-3.66-.31-7.38-.21-11.07.14-5.19-.55-10.09-2.31-15.08-1.34-3.79-1.27-8.14-1.52-12.26-.82-13.28-1.18-26.61-2.47-39.85-.33-3.42-3.26-6.67-5.37-9.73-.22-.31-3.5.8-4.64 1.96-3.22 3.25-5.89 7.05-9.14 10.28-2.03 2.01-4.71 3.37-7.1 5.01-.45-.35-.91-.71-1.36-1.07zm150.74-35.23c2.78-.83 3.43-2.8 3.5-5.19.2-7.26.11-14.54.76-21.75.32-3.64 2-7.16 3.03-10.75.35-1.21.94-2.48.85-3.67-.17-2.32-.86-4.6-1.1-6.92-.27-2.61-1.36-5.12-3.97-4.88-1.87.18-4.16 2.05-5.19 3.79-1.79 3.04-2.81 6.54-4.03 9.89-5.17 14.25-1.48 27.11 6.15 39.48z" fill="#010100"/><path d="m198.66 109.86c3.12 1.36 3.72 4.16 3.7 6.76-.06 5.68 2.17 10.43 4.41 15.5 4.65 10.53 8.11 21.53 8.86 33.18.2 3.18-.41 5.92-2.19 8.8-3.09 5.01-5.43 10.5-8.06 15.8-3.08 6.2-6.07 12.45-9.29 18.57-.41.79-2.01 1.32-3.06 1.32-1.55.01-3.21.06-3.76-2.35-2.24-9.88-4.65-19.73-7.15-29.55-2.36-9.31-2.52-18.56.3-27.78 2.43-7.94 4.95-15.85 7.45-23.76.27-.85.48-2.05 1.11-2.39 5.38-2.91 5.25-8.66 7.08-13.39.08-.18.27-.33.6-.71zm-1.95 29.62c-9.73 13.88-11.31 37.31-3.14 46.4 15.54-15.53 16.58-32.93 3.14-46.4z" fill="#010100"/><g fill="#fcfafa"><path d="m342.2 3.2-6.3 9.2h6.1v1.2h-8.2v-.5l6.2-9.1h-5.7v-1.2h7.8v.4z"/><path d="m344 13.7v-10.9h3.1c1.6 0 3 .5 4.1 1.4 1.1 1 1.6 2.2 1.6 3.9s-.5 3-1.6 4-2.5 1.5-4.2 1.5h-3zm1.4-9.6v8.4h1.6c1.4 0 2.5-.4 3.2-1.1.8-.8 1.2-1.8 1.2-3.2s-.4-2.4-1.2-3.1-1.8-1-3.1-1z"/><path d="m356.3 2.8v10.9h-1.4v-10.9z"/><path d="m366.6 13.2c-.8.4-1.8.6-3 .6-1.6 0-2.8-.5-3.7-1.5s-1.4-2.3-1.4-3.9c0-1.7.5-3.2 1.6-4.2s2.4-1.6 4-1.6c1 0 1.9.1 2.6.4v1.5c-.8-.4-1.6-.6-2.6-.6-1.2 0-2.2.4-3 1.2s-1.1 1.9-1.1 3.3c0 1.3.4 2.3 1.1 3.1s1.6 1.1 2.8 1.1c1.1 0 2-.2 2.8-.7v1.3z"/><path d="m368.2 13c0-.3.1-.5.3-.6.2-.2.4-.3.6-.3.3 0 .5.1.7.3s.3.4.3.6-.1.5-.3.6c-.2.2-.4.3-.7.3s-.5-.1-.6-.3c-.2-.2-.3-.4-.3-.6z"/><path d="m381.1 13.7h-1.7l-5.5-8.4c-.2-.2-.3-.5-.4-.7 0 .2.1.8.1 1.5v7.6h-1.4v-10.9h1.8l5.3 8.3c.3.4.4.6.4.8 0-.3-.1-.8-.1-1.6v-7.5h1.4v10.9z"/><path d="m389.7 13.7h-5.8v-10.9h5.6v1.2h-4.2v3.5h3.9v1.2h-3.9v3.7h4.4z"/><path d="m398.4 4.1h-3.1v9.6h-1.4v-9.6h-3.1v-1.3h7.7v1.3z"/></g></svg>