<svg enable-background="new 0 0 400 400" viewBox="0 0 400 400" xmlns="http://www.w3.org/2000/svg"><path d="m374.8 390.4.4-.4c.7.5 1.3 1 1.8 1.4l-.5.5c-.5-.6-1.1-1.1-1.7-1.5zm1 7.3-.6-.3c.5-1.4 1.1-2.8 1.5-4.3.2.1.4.2.6.3-.5 1.3-1 2.8-1.5 4.3zm-.4-10.3.4-.4c.4.3 1 .8 1.7 1.4l-.5.5c-.4-.5-1-1-1.6-1.5zm2.5.3h1.7v-1h.6v1h3.5v-1h.6v1h1.8v.5h-1.8v1.4h-2v1h3.2v2h-3.2v.9h3.3v.5h-3.4c0 .3-.1.6-.1.9h4v.5h-3.7c.7.9 1.9 1.5 3.8 1.7-.1.2-.2.4-.3.6-2.1-.4-3.5-1.1-4-2.1-.4 1-1.8 1.7-4 2.2-.1-.2-.2-.4-.3-.6 2.1-.4 3.4-1 3.8-1.8h-3.4v-.5h3.6c.1-.3.1-.6.2-.9h-3.3v-.5h3.4c0-.3 0-.6 0-.9h-3.2v-2h3.3v-1h-2.1v-1.4h-1.7v-.5zm1.1 3.5v1h2.7c0-.3 0-.4 0-.4 0-.1 0-.2 0-.2 0-.1 0-.2 0-.3h-2.7zm1.2-3v.9h3.5v-.9zm4.7 3h-2.6v.6.4h2.6z" fill="#fbfcfa"/><path d="m393.6 386.7h.6v1.5h2.7v6.1h1.1v.6h-11v-.6h1.1v-6.1h2.7v-1.5h.6v1.5h2.1v-1.5zm-2.7 8.8.4.6c-1.2.6-2.5 1.3-3.8 1.9-.1-.2-.2-.4-.3-.6 1.2-.6 2.5-1.2 3.7-1.9zm-2.2-6.7v2.4h2.1v-2.4zm0 3v2.5h2.1v-2.5zm2.8-3v2.4h2.1v-2.4zm0 3v2.5h2.1v-2.5zm6 6.1c-1.4-.7-2.7-1.3-3.9-1.8l.3-.6c1.5.6 2.7 1.2 3.9 1.7zm-1.2-9.1h-2.1v2.4h2.1zm-2.1 3v2.5h2.1v-2.5z" fill="#fbfcfa"/><g fill="#010101"><path d="m217.54 292.27c0 7.83-.05 15.65.02 23.48.03 3.35.02 6.74.52 10.04 1.39 9.26-.91 18.05-3.54 26.69-2.07 6.82-5.03 13.37-7.66 20.01-.31.79-1.01 1.44-1.53 2.15-.39-.17-.79-.35-1.18-.52.75-2.44 1.47-4.9 2.25-7.33.67-2.1 2.03-4.19 2-6.27-.09-8.39 2.3-16.35 3.49-24.52.86-5.91.57-12 .64-18.01.03-2.9-.36-5.81-.43-8.72-.06-2.66-1.27-3.31-3.35-1.9-3.33 2.25-6.73 4.47-9.71 7.14-6.34 5.67-12.43 11.62-18.64 17.44-2.51 2.35-6.23 1.74-7.62-1.41-1.23-2.79-1.94-5.61.16-8.55.68-.94.56-2.78.24-4.07-2.81-11.18-1.42-22.16 3.16-32.37 1.92-4.29 6.52-7.57 10.36-10.75 4.73-3.92 9.95-7.23 14.91-10.87 1.71-1.25 3.35-2.61 4.87-4.08 3.36-3.24 3.32-3.28 8.04-2.51 1.58-5.86 1.8-11.74.83-17.77-1.12-6.96-1.89-13.97-2.84-20.95-.52-3.78-1.65-4.95-5.36-4.74-3.56.2-7.11.72-10.61 1.38-.84.16-1.79 1.3-2.15 2.21-1.2 3-1.98 6.18-3.26 9.14-.92 2.14-2.38 4.04-3.6 6.05-.54-.14-1.08-.28-1.62-.42 0-2.24.22-4.5-.04-6.7-.65-5.51-.04-10.48 4.23-14.62 1.21-1.17 1.87-3.06 2.42-4.74 4-12.17 12.48-20.92 21.81-29.09 1.08-.94 1.85-2.47 2.29-3.88 2.33-7.59 4.49-15.22 6.73-22.83.31-1.06.61-2.21 1.24-3.09 8.36-11.72 15.5-24.36 25.95-34.51.23-.22.56-.34.98-.58 2.75 1.91 1.87 4.4.61 6.42-1.64 2.64-3.75 5.01-5.82 7.35-2 2.26-4.08 4.48-6.34 6.48-3.62 3.21-6.36 6.83-7.04 11.77-.1.74-.42 1.58-.91 2.11-6.22 6.74-5.08 15.69-7.05 23.69-.15.63 1.37 1.83 2.3 2.52 1.21.9 2.6 1.55 4.68 2.74-3.28 1.59-5.74 2.45-7.79 3.88-1.49 1.04-3.33 2.74-3.5 4.31-.58 5.29-.72 10.66-.45 15.97.06 1.18 2.35 2.9 3.86 3.23 7.27 1.57 14.55-2.6 16.79-9.6 1.56-4.88 2.69-9.91 3.86-14.91.38-1.61.28-3.32.39-4.89-3.39-2.45-8.47 3.03-11.3-3.03 3.79-1.41 7.33-3.07 11.04-4.03 3.96-1.02 6.8.31 7.53 4.01.63 3.19-.08 6.69-.47 10.02-.24 2.07-1.35 4.07-1.46 6.13-.4 7.11-3.21 13.29-7.55 18.65-1.52 1.89-4.36 2.99-6.81 3.78-3.17 1.02-6.59 1.24-9.84 2.04-7.05 1.73-9.13 6.55-6.2 13.05 1.21 2.7 2.04 5.77 2.19 8.71.42 8.24.81 16.52.39 24.74-.32 6.29-3.49 9.23-9.66 10.16-5.23.79-9.68 2.49-13.6 6.34-2.55 2.5-6.16 4.01-9.47 5.62-5.75 2.8-8.9 7.35-9.61 13.55-.74 6.54-1.34 13.11-1.76 19.68-.13 2.04.5 4.12.96 7.5 7-5.18 13.26-9.68 19.38-14.37 6-4.59 11.85-9.38 17.76-14.08.32.18.6.36.89.53zm-6.52-104.35c-2.62 2.5-5.41 4.53-7.33 7.19-1.58 2.21-2.32 5.11-3 7.82-.16.65 1.25 2.28 2.18 2.52 6.29 1.63 9.89-.94 10.27-7.3.21-3.38.87-6.94-2.12-10.23z"/><path d="m152.83 53.17c5.91 4.58 9.05 11.64 14.63 17.04 2.26-3.77 3.1-7.66 2.87-11.66-.34-5.69-1.09-11.35-1.68-17.02-.56-5.29-1.14-10.59-1.76-16.31 3.44.81 4.83 2.77 5.26 5.26 1.53 8.86 2.77 17.78 4.36 26.63 1.4 7.83-.2 15.26-1.97 22.83-3.67 15.7-3.26 31.77-3.73 47.76-.22 7.46-.99 14.92-1.76 22.35-.51 4.93-.22 9.42 2.8 13.71 3.66 5.21 6.81 10.78 10.16 16.2.45.73.8 1.52 1.2 2.29-.2.26-.39.51-.59.77-1.17-.7-2.56-1.19-3.46-2.15-2.23-2.34-4.15-4.97-6.37-7.32-.79-.84-2.07-1.22-3.44-1.99-1.33 4.11-2.62 7.88-3.72 11.71-.19.66.32 1.62.71 2.33 1.16 2.04.92 3.74-1.04 5.43-1.93-1.93-3.06-3.82-3.1-6.69-.07-5.56-.49-11.15-1.24-16.66-.2-1.44-2.17-2.63-3.06-3.63-2.71 3.61-4.82 6.96-7.48 9.8-2.6 2.78-5.43 5.67-10.48 5.71.6-1.38.83-2.41 1.42-3.18 5.53-7.31 10.97-14.7 16.73-21.84 6.02-7.47 7.98-15.85 6.4-25.14-.24-1.41-1.17-2.82-2.09-3.96-4.14-5.12-8.6-9.99-12.52-15.27-1.57-2.11-2.04-5.02-2.53-7.89 6.48 4.21 8.53 12.78 16.89 15.99.73-2.4 1.85-4.71 2.08-7.11.73-7.45 1.2-14.93 1.61-22.41.31-5.64-1.16-10.68-4.76-15.28-4.73-5.95-8.85-12.35-10.34-20.3z"/></g></svg>