<svg enable-background="new 0 0 400 400" viewBox="0 0 400 400" xmlns="http://www.w3.org/2000/svg"><path d="m374.8 390.4.4-.4c.7.5 1.3 1 1.8 1.4l-.5.5c-.5-.6-1.1-1.1-1.7-1.5zm1 7.3-.6-.3c.5-1.4 1.1-2.8 1.5-4.3.2.1.4.2.6.3-.5 1.3-1 2.8-1.5 4.3zm-.4-10.3.4-.4c.4.3 1 .8 1.7 1.4l-.5.5c-.4-.5-1-1-1.6-1.5zm2.5.3h1.7v-1h.6v1h3.5v-1h.6v1h1.8v.5h-1.8v1.4h-2v1h3.2v2h-3.2v.9h3.3v.5h-3.4c0 .3-.1.6-.1.9h4v.5h-3.7c.7.9 1.9 1.5 3.8 1.7-.1.2-.2.4-.3.6-2.1-.4-3.5-1.1-4-2.1-.4 1-1.8 1.7-4 2.2-.1-.2-.2-.4-.3-.6 2.1-.4 3.4-1 3.8-1.8h-3.4v-.5h3.6c.1-.3.1-.6.2-.9h-3.3v-.5h3.4c0-.3 0-.6 0-.9h-3.2v-2h3.3v-1h-2.1v-1.4h-1.7v-.5zm1.1 3.5v1h2.7c0-.3 0-.4 0-.4 0-.1 0-.2 0-.2 0-.1 0-.2 0-.3h-2.7zm1.2-3v.9h3.5v-.9zm4.7 3h-2.6v.6.4h2.6z" fill="#fbfcfa"/><path d="m393.6 386.7h.6v1.5h2.7v6.1h1.1v.6h-11v-.6h1.1v-6.1h2.7v-1.5h.6v1.5h2.1v-1.5zm-2.7 8.8.4.6c-1.2.6-2.5 1.3-3.8 1.9-.1-.2-.2-.4-.3-.6 1.2-.6 2.5-1.2 3.7-1.9zm-2.2-6.7v2.4h2.1v-2.4zm0 3v2.5h2.1v-2.5zm2.8-3v2.4h2.1v-2.4zm0 3v2.5h2.1v-2.5zm6 6.1c-1.4-.7-2.7-1.3-3.9-1.8l.3-.6c1.5.6 2.7 1.2 3.9 1.7zm-1.2-9.1h-2.1v2.4h2.1zm-2.1 3v2.5h2.1v-2.5z" fill="#fbfcfa"/><path d="m89.21 268.38c8.33-.61 6.9-1.19 10.28 4.91 5.75 10.37 8.24 21.48 4.99 33.26-.84 3.04-.33 5.51 1.01 8.28 6 12.48 11.82 25.04 17.61 37.62 1.58 3.44 3.97 5.79 7.74 7.21 2.7-5.84 5.05-11.64 8.02-17.11 3.51-6.45 7.18-12.88 11.47-18.83 4.37-6.07 6.76-12.41 6.71-19.91-.14-19.26-.11-38.52.03-57.77.02-2.63-.92-3.74-3.2-4.57-4.77-1.74-9.46-1.02-14.21-.02-1.73.37-3.56.61-5.31.49-5.29-.37-10.01-1.48-11.94-7.61-1.19-3.8-3.11-7.45-5.15-10.9-5.17-8.74-5.94-18.66-7.93-28.24-2.5-12.04-5.08-24.08-6.99-36.22-1.59-10.11-1.17-20.31 1.48-30.31.94-3.56 2.82-4.23 5.59-1.76 4.38 3.92 9.27 5 14.95 3.58 2.41-.6 4.25-1.75 4.81-4.08 1.13-4.76 2.67-9.57 2.75-14.39.27-16.23-.78-32.35-3.77-48.42-1.08-5.79 1.06-12.3 2.41-18.33.33-1.44 3.28-2.62 5.24-3.29 2.49-.84 3.06 1.55 3.92 3.18 4.13 7.85 6.07 16.32 6.88 25.05 1.03 11.1.92 22.13-3.05 32.79-.16.42-.16 1-.45 1.25-5.94 5.02-2.33 11.96-3.51 17.92-.13.68 1.09 2.04 1.98 2.46 5.66 2.63 11.53 2.41 17.37.71 5.47-1.59 10.91-3.31 16.32-5.07 5.68-1.85 7.97-6.33 6.28-12.19-.59-2.04-1.57-3.96-2.09-6.01-.8-3.13-1.93-6.32-1.92-9.49.03-11.41.23-22.83.88-34.22.4-7.04 2.53-13.76 6.39-20.55 3.14 12.13 5.99 23.68 9.14 35.15 2.52 9.21 4.87 18.35 3.34 28.05-.3 1.9.07 4.06.69 5.91 1.36 4.14 4.04 5.79 8.3 5.42 6.69-.58 13.38-1.14 20.04-1.94 1.64-.2 3.38-1.01 4.73-2 3.24-2.39 6.33-4.99 9.35-7.65.68-.59 1.37-1.97 1.13-2.68-4.58-13.96-4.5-28.47-4.69-42.85-.11-8.31 1.16-16.67 2.19-24.96.21-1.72.04-4.93 3.65-4.44 3.96.54 5.7 2.17 5.69 6.06-.02 5.52 1.64 10.49 4.05 15.37.99 2.01 1.53 4.45 1.55 6.7.14 14.22.07 28.44.07 42.66 0 4.76.46 5.42 5.01 6.87 6.05 1.93 12.15 1.27 18.29.43 6.95-.95 13.79-.5 19.44 4.12 2.21 1.8 4.43 4.45 5.1 7.1 1.74 6.9 3.32 13.99 3.7 21.07.65 11.93 1.12 23.99.1 35.86-.58 6.78-4.14 13.34-6.57 19.91-1.85 5.02-2.99 10.87-6.37 14.62-3.39 3.75-9.11 5.44-13.9 7.83-6 3-11.93 6.25-18.19 8.57-9.88 3.66-12.96 8.02-12.09 20.28.44 6.18 2.34 12.26 3.71 18.36.23 1.01.9 2.09 1.68 2.77 5.97 5.23 9.86 11.78 12.45 19.2 2.49 7.14 7.54 11.99 14.04 15.57 1.72.95 2.76.72 3.92-.82 3.86-5.14 6.64-10.74 6.34-17.29-.37-8.04-1.44-16.06-1.65-24.1-.12-4.74.61-9.54 1.45-14.23.24-1.34 2.21-3.31 3.38-3.31 1.67.01 4.03 1.14 4.89 2.54 5.36 8.7 8.49 18.28 9.21 28.45 1.09 15.38-.44 30.62-3.58 45.7-.24 1.14-.75 2.39-1.52 3.24-2.93 3.23-5.88 6.47-9.11 9.38-1.69 1.52-3.86 2.75-6.03 3.45-5.83 1.87-10.88 1.74-16.3-2.83-8.38-7.06-15.34-14.9-20.04-24.74-5.3-11.08-10.91-22.04-15.59-33.38-1.85-4.48-1.82-9.82-2.2-14.8-.45-5.78-.39-11.6-.6-17.41-.03-.76-.28-1.54-.52-2.28-2.28-7.01-2.96-7.32-10.22-6.59-13.36 1.34-26.72 2.56-40.1 3.73-6.37.56-7.93 1.75-8.3 8.24-.21 3.65.27 7.37.79 11.01.76 5.4 1.26 10.62-2.23 15.43-.69.95-.79 2.54-.7 3.81.33 4.69.65 9.39 1.35 14.03 1.59 10.43-.75 20.48-2.72 30.56-2.31 11.79-5.95 23.17-11 34.06-5.98 12.88-16.67 19.77-30.2 22.64-3.59.76-7.3.97-10.93 1.6-2 .35-3.25-.27-4.59-1.79-12.73-14.5-20.31-31.42-23.93-50.26-3.5-18.15-3.92-36.38-.49-54.82zm50.03-109.13c0-.3 0-.6 0-.91-4.8 0-9.62.17-14.41-.08-2.07-.11-2.7.68-3.23 2.38-1.69 5.44-3.63 10.8-5.17 16.28-.47 1.66-.42 3.77.18 5.38 4.22 11.3 8.75 22.48 12.93 33.79.93 2.53 2.43 3.35 4.79 3.73 12.09 1.95 22.88-1.25 31.58-9.52 10.12-9.62 19.53-19.98 29.11-30.15 3.9-4.14 2.6-7.93-3.07-9.34-3.13-.78-6.5-.75-9.54-1.75-8.26-2.71-16.39-5.8-24.6-8.69-1.45-.51-2.99-1.03-4.5-1.08-4.69-.13-9.38-.04-14.07-.04zm56.61 49.96c4.77-.77 9.24-1.58 13.73-2.2 16.48-2.27 33.04-4.07 49.43-6.89 7.95-1.37 15.58-4.58 23.34-7.02 2.21-.69 2.98-2.09 2.51-4.6-.72-3.83-.89-7.77-1.31-11.66-1.24-11.53-2.88-22.98-.55-34.67.87-4.37-.18-9.29-1.1-13.8-.86-4.21-3.52-5.23-7.58-4-5.19 1.58-8.33 5.1-10.59 9.95-2.39 5.12-5.35 9.99-8.19 14.89-4.5 7.76-4.49 14.36 3.3 19.04 4.68 2.81 9.17 5.94 13.71 8.9-3.39 11.86-11.27 15.8-22.46 11.31-1.14-.46-2.24-1.08-3.42-1.37-6.6-1.63-13.18-3.35-19.84-4.66-1.6-.31-3.77.39-5.18 1.36-6.73 4.61-13.1 9.78-19.99 14.12-4.34 2.71-5.12 6.55-5.81 11.3zm-24.34-65.28c3.77 2.48 7.14 4.48 10.25 6.82 2.62 1.97 5.43 2.86 8.64 3.08 6.47.43 12.96.76 19.39 1.6 6.62.87 12.42-1.21 17.06-5.3 8.27-7.28 15.93-15.25 24.06-23.14-3.99-1.07-7.94-2.18-11.93-3.15-.67-.16-1.55.15-2.23.46-12.31 5.59-25.38 8.45-38.57 11.01-8.98 1.72-17.78 4.17-26.67 8.62z" fill="#010101"/></svg>