<svg enable-background="new 0 0 400 400" viewBox="0 0 400 400" xmlns="http://www.w3.org/2000/svg"><g fill="#010102"><path d="m291.7 331.45c-2.69-4.69-2.75-9.77-3.03-14.75-.76-13.4-1.1-26.83-2.14-40.21-.68-8.68-2.44-17.27-3.42-25.94-.51-4.54-.33-9.15-.52-13.72-.35-8.57.42-17.26-2.56-25.57-.11-.31-.17-.67-.14-.99 1.42-12.99-4.22-25.02-5.08-37.7-.08-1.11-.49-2.23-.41-3.32.75-10.58-2.43-20.56-4.46-30.74-.52-2.61.18-5.45.11-8.18-.04-1.66-.36-3.34-.75-4.96-.46-1.93-1.38-3.77-1.66-5.71-.94-6.51-1.63-13.06-2.57-19.57-.18-1.23-.76-2.62-1.6-3.51-6.27-6.67-12.15-13.83-19.09-19.72-13.62-11.57-26.27-23.98-37.33-38.01-1.16-1.47-2.44-2.85-3.83-4.48-4.74 5.03-9.25 9.81-13.77 14.6-14.21 15.07-28.26 30.28-42.7 45.12-5.12 5.27-11.24 9.56-16.8 14.41-1.66 1.45-3.06 3.21-4.45 4.93-3.09 3.81-5.78 8-9.23 11.44-2.76 2.75-3.95 5.87-3.43 9.29 1.97 12.79-.02 25.42-.74 38.14-.46 8.12.27 16.31.65 24.46.47 10.27 1.5 20.54-.76 30.75-.22 1 .56 2.23.89 3.34.8 2.7 2.1 5.36 2.34 8.11.95 10.69 1.89 21.4 2.18 32.11.17 6.08-.7 12.23-1.6 18.28-.27 1.82-2.22 3.39-3.41 5.07-.37-.15-.74-.3-1.1-.46-.82-3.77-1.1-7.76-2.57-11.26-4.88-11.63-6.65-23.7-7.34-36.22-.65-11.81-2.7-23.54-3.89-35.34-.67-6.67-2.15-13.62-1-20.04 2.77-15.52-.47-31.05 1.32-46.47 1.14-9.83 3.27-19.36 10.05-27.22 2.03-2.35 4.3-3.82 7.21-4.46 2-.44 3.27-1.34 2.81-3.63-.46-2.3.68-3.79 2.44-5.04 6.03-4.27 10.26-9.91 14.06-16.29 3.2-5.39 8-9.88 12.39-14.5 10.62-11.19 21.27-22.36 32.21-33.23 3.11-3.09 7.31-5.06 10.89-7.7 2.32-1.71 4.34-3.85 6.69-5.52 1.14-.81 2.77-1.49 4.1-1.36 11.3 1.06 20.27 6.98 27.85 14.79 5.49 5.66 9.91 12.35 14.9 18.5 1.66 2.06 3.47 4.04 5.44 5.79 6.19 5.5 12.48 10.88 18.74 16.29 7.79 6.72 10.71 15.9 12.08 25.51 1.88 13.19 4.5 26.15 7.95 39.04 2 7.48 2.05 15.49 2.87 23.27 1.26 11.9 2.55 23.81 3.56 35.73.35 4.07-.33 8.21-.1 12.3.32 5.88 1.05 11.75 1.59 17.62.1 1.11.57 2.38.19 3.3-1.92 4.64-.56 9.14-.1 13.79.54 5.42-.1 10.95.04 16.42.12 4.8.76 9.59.9 14.4.06 2.03-.57 4.09-.88 6.13-.11.75-.42 1.57-.25 2.26 2.72 10.79.43 21.61.19 32.41-.03 1.34-.21 2.68-.29 4.02-.13 2.91-.13 2.91-3.64 4.2z"/><path d="m210.86 374.69c0-4.25-.15-8.39.04-12.5.22-4.88-.67-9.48-2.15-14.13-1.07-3.34-1.44-6.97-1.7-10.5-1.56-20.64-3.43-41.26-4.35-61.93-1-22.35-1.06-44.74-1.56-67.1-.34-15.32-.72-30.64-1.13-45.97-.12-4.61-1.31-5.42-5.83-5.87-8.33-.84-16.62-2.08-24.94-3.05-2.53-.29-5.13-.45-7.65-.24-4.57.4-4.56.53-6.51-4.88 4.13-.71 8.11-1.43 12.1-2.06 5.7-.91 11.44-1.6 17.11-2.66 12.57-2.36 25.15-3.76 37.94-1.77 6.74 1.05 13.53 1.7 20.3 2.55.99.12 2.2.08 2.9.63 1.24.97 2.76 2.23 3 3.58.16.89-1.5 2.63-2.71 3.16-6.31 2.74-12.81 3.58-19.58 1.51-4.37-1.34-8.57.37-12.1 2.49-2.57 1.55-2.77 5.11-1.77 8.01 1.67 4.8 1.57 9.39-.55 14.01-.37.81-.53 2.15-.1 2.81 3.01 4.72 2.29 9.88 2.07 15-.06 1.45-.51 2.99-.17 4.33 3.15 12.49.92 25.18 1.58 37.74.6 11.36 1.56 22.71 2.58 34.05.68 7.66 2.34 15.27.76 23-.11.53-.08 1.13.05 1.66 2.42 9.87.89 19.81.61 29.72-.06 2-.07 4.04.2 6.02 1.41 10.36-.25 20.48-2.2 30.59-.49 2.52-.99 5.11-.91 7.65.11 3.66-1.52 4.75-5.33 4.15z"/><path d="m245.43 113.81c-4.63 1.01-9.21 2.45-13.89 2.93-11.67 1.21-23.39 1.98-35.09 2.91-.66.05-1.39.11-2-.08-7.28-2.27-14.29-.77-21.38 1.15-5.64 1.53-10.87.35-15.15-3.89-2.24-2.22-2.1-3.99.86-4.92 5.08-1.58 10.28-2.91 15.52-3.79 7.34-1.24 14.58-3.67 22.17-2.63 3.48.48 6.6 1.04 10.13-1.06 2.14-1.27 5.7-.49 8.57-.15 7.29.87 14.63 1.68 21.8 3.21 3.09.66 5.8 3.05 8.68 4.66-.08.56-.15 1.11-.22 1.66z"/></g><path d="m385.2 377.6.6-.7c.6.4 1.3.9 1.9 1.5l-.6.7c-.8-.5-1.4-1-1.9-1.5zm.3 7.1c.6-1.4 1.1-2.9 1.5-4.5.3.1.6.3.9.4-.5 1.4-1 2.9-1.5 4.4zm.2-10.1.6-.6c.7.5 1.3 1.1 1.9 1.6l-.7.7c-.6-.6-1.2-1.2-1.8-1.7zm8.4-.8h.8v.9h1.8v.7h-1.8v1.8h-.8v-.3h-1.2v.9h3.3v2.6h-.8v-.4h-2.5c0 .3 0 .6-.1.8h3.4v.7h-3.5c0 .3-.1.6-.1.8h4v.7h-3.5c.7.9 1.9 1.3 3.6 1.5-.2.2-.4.5-.6.9-1.9-.3-3.2-1.1-3.8-2.3-.5 1.1-1.8 2-3.9 2.4-.2-.3-.4-.5-.6-.8 1.9-.4 3.1-.9 3.6-1.7h-3.2v-.7h3.5c.1-.2.1-.5.2-.8h-3.3v-.7h3.4c0-.2 0-.5 0-.8h-2.4v.3h-.8v-2.6h3.3v-.9h-1.2v.3h-.8v-1.8h-1.8v-.7h1.8v-.9h.8v.9h3.2zm-4.4 5.5h2.4c0-.3 0-.6 0-.9h-2.4zm1.2-3.1h3.2v-.8h-3.2zm4.4 2.2h-2.4v.9h2.5v-.9z" fill="#fcfbfa"/><path d="m389.2 385.8h.9v1.5h1.9v-1.5h.9v1.5h2.7v6h1.1v.9h-11.3v-.9h1.1v-6h2.7zm.2 8.7.5.8c-1.2.6-2.5 1.3-4 1.9-.2-.3-.3-.6-.6-.8 1.6-.6 3-1.3 4.1-1.9zm-2-4.3h1.9v-2.1h-1.9zm0 3.1h1.9v-2.2h-1.9zm2.7-3.1h1.9v-2.1h-1.9zm0 3.1h1.9v-2.2h-1.9zm2.4 1.3c1.4.6 2.7 1.2 4.1 1.8l-.5.9c-1.5-.7-2.8-1.4-4.1-1.9zm2.2-6.5h-1.9v2.1h1.9zm-1.9 5.2h1.9v-2.2h-1.9z" fill="#fcfbfa"/></svg>