<svg enable-background="new 0 0 400 400" viewBox="0 0 400 400" xmlns="http://www.w3.org/2000/svg"><path d="m228.05 375.46c-1.41-.95-3.14-1.63-4.17-2.88-10.43-12.69-20.75-25.48-31.63-38.91-1.86 1.23-4.45 2.64-6.68 4.49-4.05 3.35-7.86 6.98-11.83 10.42-.88.76-2.02 1.22-3.14 1.87-.9-4.18 8.57-18.08 13.34-20.77.77-2.31 1.05-4.1 1.92-5.53 1.41-2.32 1.38-4.35-.14-6.53-5.35-7.65-9.04-15.99-9.57-25.4-.23-4.07.28-8.18.55-12.26.31-4.68.72-9.35 1.09-14.03.11-1.45-.25-3.22.45-4.28 2.4-3.61 3.27-7.65 4.43-11.71 1-3.5 2.8-6.85 4.7-9.99 5.7-9.45 8.48-19.6 8.43-30.63-.02-5.48.53-10.96.65-16.44.05-2.55-.44-5.11-.46-7.66-.02-2.5.38-5 .34-7.5-.06-3.54-.39-7.08-.57-10.62-.16-3.23-.64-6.49-.36-9.69 1.32-15.51 1.01-31.02.09-46.53-.11-1.77-.18-3.55-.36-5.31-.04-.38-.46-.72-.95-1.45-1.51 1.66-2.91 3.2-4.31 4.74-7.54 8.27-14.89 16.73-22.67 24.76-6.12 6.32-13.62 10.74-23 14.01 1.12-2.26 1.6-3.98 2.64-5.21 11.41-13.51 22.9-26.95 34.38-40.4.58-.68 1.22-1.32 1.93-1.86 9.8-7.52 14.46-17.34 14.69-29.79.21-11.73 1.33-23.44 2.26-35.15.27-3.38 1.29-6.69 2.08-10.54 2.88 1.35 4.39 2.66 4.53 5.22.89 16.39 1.87 32.77 1.29 49.19 0 .11.01.23-.01.34-1.89 8.53 1.28 15.43 6.21 22.25 6.47 8.97 12.09 18.55 18.22 27.77 2.72 4.09 5.92 7.85 8.69 11.91 1.34 1.95 2.1 4.29 3.29 6.35.94 1.62 2.06 3.16 3.24 4.61 1.53 1.88 2.28 3.8 1.05 6.32-2.75-.2-4.96-1.11-6.81-3.42-6.21-7.78-12.72-15.33-18.85-23.18-2.53-3.23-4.36-7.01-6.52-10.53-1.54-2.52-3.42-4.61-7.28-5.49 0 7.16.14 13.93-.03 20.68-.29 11.08-.48 22.15 1.28 33.15.13.83-.29 1.74-.28 2.62.02 2.14.1 4.27.25 6.4.17 2.42.72 4.84.62 7.24-.47 10.96-1.18 21.91-1.63 32.87-.09 2.17.3 4.46.94 6.54 3.51 11.31 7.9 22.4 10.57 33.89 2.32 9.98 3.47 20.65-1.38 30.29-4.2 8.35-9.33 16.3-14.66 24.01-4.42 6.39-4.73 7.86-1.3 14.86 4.16 8.47 10.73 15.08 16.24 22.52 2.84 3.84 5.49 7.95 7.37 12.31 1.45 3.35 1.56 7.27 2.27 10.94-.48.38-.96.75-1.44 1.12zm-23.17-130.93c-.44.01-.88.01-1.33.02-5.18 9.71-10.4 19.4-15.49 29.16-.46.88-.23 2.17-.18 3.26.22 4.23.3 8.49.81 12.68.58 4.72 1.38 9.44 2.48 14.06.33 1.37 2.06 3.46 3.01 3.39 1.42-.11 3.33-1.56 3.96-2.93 3.67-7.96 9.77-14.74 11.43-23.69.32-1.7 1.57-3.21 2.07-4.9.48-1.61 1.02-3.44.69-4.99-1.56-7.42-3.35-14.79-5.22-22.14-.35-1.41-1.47-2.62-2.23-3.92z" fill="#010100"/><g fill="#fcfafa"><path d="m342.2 3.2-6.3 9.2h6.1v1.2h-8.2v-.5l6.2-9.1h-5.7v-1.2h7.8v.4z"/><path d="m344 13.7v-10.9h3.1c1.6 0 3 .5 4.1 1.4 1.1 1 1.6 2.2 1.6 3.9s-.5 3-1.6 4-2.5 1.5-4.2 1.5h-3zm1.4-9.6v8.4h1.6c1.4 0 2.5-.4 3.2-1.1.8-.8 1.2-1.8 1.2-3.2s-.4-2.4-1.2-3.1-1.8-1-3.1-1z"/><path d="m356.3 2.8v10.9h-1.4v-10.9z"/><path d="m366.6 13.2c-.8.4-1.8.6-3 .6-1.6 0-2.8-.5-3.7-1.5s-1.4-2.3-1.4-3.9c0-1.7.5-3.2 1.6-4.2s2.4-1.6 4-1.6c1 0 1.9.1 2.6.4v1.5c-.8-.4-1.6-.6-2.6-.6-1.2 0-2.2.4-3 1.2s-1.1 1.9-1.1 3.3c0 1.3.4 2.3 1.1 3.1s1.6 1.1 2.8 1.1c1.1 0 2-.2 2.8-.7v1.3z"/><path d="m368.2 13c0-.3.1-.5.3-.6.2-.2.4-.3.6-.3.3 0 .5.1.7.3s.3.4.3.6-.1.5-.3.6c-.2.2-.4.3-.7.3s-.5-.1-.6-.3c-.2-.2-.3-.4-.3-.6z"/><path d="m381.1 13.7h-1.7l-5.5-8.4c-.2-.2-.3-.5-.4-.7 0 .2.1.8.1 1.5v7.6h-1.4v-10.9h1.8l5.3 8.3c.3.4.4.6.4.8 0-.3-.1-.8-.1-1.6v-7.5h1.4v10.9z"/><path d="m389.7 13.7h-5.8v-10.9h5.6v1.2h-4.2v3.5h3.9v1.2h-3.9v3.7h4.4z"/><path d="m398.4 4.1h-3.1v9.6h-1.4v-9.6h-3.1v-1.3h7.7v1.3z"/></g></svg>