<svg enable-background="new 0 0 400 400" viewBox="0 0 400 400" xmlns="http://www.w3.org/2000/svg"><path d="m171.7 53.34c-5.27 12.7-10.3 25.25-15.73 37.63-1.76 4.01-4.27 7.8-6.99 11.26-2.11 2.69-3.76 5.21-3.14 8.73 1.11 6.35-.98 11.24-6.45 14.78-1.57 1.02-2.72 2.69-4.24 3.81-4.78 3.52-7.7 8.07-9.13 13.9-.48 1.97-2.61 3.73-4.34 5.16-2.1 1.74-3.24 3.46-3.26 6.41-.06 10.29-.55 20.58-.76 30.87-.03 1.35.2 3.01.98 4.02 2.75 3.59 4.09 7.55 3.33 11.94-1.69 9.78.04 19.38 1.02 29.05 2.39 23.54 1.03 46.69-7.58 69.05-.73 1.9-1.42 2.96-3.69 2.87-2.36-.09-2.24-1.69-2.58-3.17-1.72-7.52-3.32-15.06-5.22-22.54-.94-3.71-.97-7.26.28-10.84 1.04-2.95 1.07-5.85-.1-8.8-3.15-7.95-3.77-15.95-.26-24 1.54-3.54 1.4-7.11.05-10.73-3.2-8.56-1.81-17.46-1.69-26.25.13-9.29.81-18.59.4-27.85-.18-4.05-2.19-8.14-3.9-11.98-1.34-3-.96-4.92 1.31-7.29 13.73-14.39 23.58-31.41 32.65-48.95 8.94-17.27 18.04-34.46 27.01-51.71 3.96-7.62 4.77-12.42 4.25-23.25.65.32 1.26.51 1.76.86 22.49 15.85 45.01 31.66 67.45 47.59 14.22 10.1 28.29 20.41 42.48 30.55 6.92 4.95 11.9 11.37 15.63 19.74-6.5-1.18-12.56-2.24-18.59-3.42-.52-.1-1.02-.85-1.32-1.42-1.94-3.63-5.45-4.34-8.91-4.05-1.4.12-2.63 2.35-3.84 3.53.53.8.61 1.08.78 1.15 6.4 2.43 9.23 6.91 8.35 13.84-.67 5.34.98 10.07 3.24 15.04 2.63 5.78 3.9 12.27 5.13 18.58 2.37 12.18 2.73 24.42-.55 36.9-2.84 0-5.73.13-8.61-.08-.92-.07-1.99-.84-2.63-1.59-6.47-7.76-8.77-17.2-10.58-26.81-.48-2.53-.78-5.09-1.12-7.64-.89-6.61-1.24-13.16 2.75-19.07 1.22-1.81.88-3.28-.72-4.64-3.93-3.33-5.31-7.47-5.21-12.69.13-7.03-.53-14.08-1.05-21.11-.09-1.28-.79-2.82-1.72-3.68-10.13-9.33-20.28-18.63-30.63-27.7-1.62-1.42-4.19-2.06-6.42-2.44-3.7-.62-6.68-2.3-9.37-4.79-4.35-4.04-8.74-8.02-13.15-11.98-4.3-3.86-9.25-6.2-15.37-6.79z" fill="#010100"/><path d="m190.95 296.35c-4.53-7.52-6.47-15.54-6.88-24.08-.31-6.47-.62-13.01-1.83-19.35-.97-5.08-3.37-9.88-4.98-14.85-.38-1.16-.67-2.78-.16-3.73 7.15-13.26 5.4-27.03 2.68-40.91-1.81-9.21-3.42-18.45-5.19-27.66-1.09-5.71-4.26-9.98-9.43-12.98-3.18 6.59-4.82 13.5-5.56 20.66-.82 7.9-4.99 13.15-12.66 16.15-2.69-14.68-5.33-29.15-8.04-43.94 4.52-.74 8.77-1.43 13.49-2.2-.34-3.85-.65-7.59-.99-11.32-.19-2.12-.25-4.27-.69-6.33-.69-3.24 1.25-4.32 3.68-3.98 2.55.36 5.01 1.56 7.43 2.57 3.16 1.33 6.17 3.05 9.39 4.2 2.21.79 4.32-.17 5.33-2.37 1.44-3.13 2.8-6.32 3.83-9.6 1.77-5.62 3.25-11.32 4.87-17.04.67.23.98.36 1.29.45 4.46 1.32 5.97 4.2 6.07 8.92.21 10.4 1.16 20.78 1.72 31.17.1 1.87.06 3.84-.42 5.62-4.71 17.27-3.91 34.76-2.5 52.33.7 8.7 1.21 17.42 1.39 26.14.11 5.19 1.07 9.97 4.02 14.23 2.96 4.28 3.35 8.62 1.46 13.51-2.45 6.33-3.03 12.99-2.75 19.78.24 5.92-.18 11.88.14 17.79.18 3.64-1.29 5.61-4.71 6.82z" fill="#010100"/><path d="m295.88 374.46c-2.63 1.05-3.79-.21-4.96-2.16-11.01-18.42-22.1-36.8-33.18-55.18-.98-1.63-2.06-3.19-3.15-4.75-3.91-5.6-9.82-5.39-13.88.06-6.52 8.75-13.69 16.89-24.13 21.2-1.81.75-3.81 1.06-6.07 1.67-.36-3.95-.8-6.98 2.31-10.28 8.28-8.77 14.18-19.22 18.63-30.41.73-1.84.48-4.33-.02-6.35-1.98-8.03-6.13-14.62-12.97-19.59-2.94-2.13-5.56-4.95-7.64-7.93-1.97-2.83-3.04-6.3-4.69-9.87 3.39-1.34 6.01-2.54 8.75-3.34.73-.21 1.96.66 2.73 1.31 3.77 3.15 7.08 7.08 11.27 9.46 10.55 5.99 12.77 4.56 13.43-6.01.43-6.97-1.54-14.1-2.58-21.14-.12-.82-1.07-1.73-1.86-2.21-5.15-3.12-10.24-6.36-15.58-9.12-6.13-3.18-12.04-6.44-15.37-13.4 3.44-1.39 6.77-2.92 10.22-4.04 1.1-.36 2.75.03 3.8.66 3.53 2.12 7.13 4.24 10.3 6.84 4.14 3.4 7.77 7.42 11.86 10.88 7.87 6.65 11.42 15.29 11.93 25.29.33 6.46.01 12.96.28 19.43.31 7.34.59 14.72 1.65 21.97.41 2.8 2.37 5.91 4.56 7.81 6.76 5.86 11.17 12.86 14.33 21.29 4.25 11.37 9.79 22.26 14.85 33.32 3.59 7.85 5.34 16.04 5.18 24.59z" fill="#010100"/><path d="m151.04 214.35c6.82 5.88 13.46 10.82 16.35 19.1 1.36 3.9 1.63 7.46-.48 11.24-1.9 3.4-3.41 7.02-4.87 10.64-.91 2.26-1.99 3.44-4.73 3.66-7.59.62-7.71.86-10.01-6.4-3.35-10.6-3.2-21.37-.54-32.05.54-2.15 2.66-3.92 4.28-6.19z" fill="#010100"/><path d="m217.81 161.11c-11.97-13.05-11.29-27.73-5.52-43.25 3.45.97 4.97 3.79 5.58 6.62 1.66 7.73 2.87 15.57 4.15 23.38.36 2.2.37 4.46.49 6.69.26 4.85.25 4.85-4.7 6.56z" fill="#010100"/><g fill="#fcfafa"><path d="m342.2 3.2-6.3 9.2h6.1v1.2h-8.2v-.5l6.2-9.1h-5.7v-1.2h7.8v.4z"/><path d="m344 13.7v-10.9h3.1c1.6 0 3 .5 4.1 1.4 1.1 1 1.6 2.2 1.6 3.9s-.5 3-1.6 4-2.5 1.5-4.2 1.5h-3zm1.4-9.6v8.4h1.6c1.4 0 2.5-.4 3.2-1.1.8-.8 1.2-1.8 1.2-3.2s-.4-2.4-1.2-3.1-1.8-1-3.1-1z"/><path d="m356.3 2.8v10.9h-1.4v-10.9z"/><path d="m366.6 13.2c-.8.4-1.8.6-3 .6-1.6 0-2.8-.5-3.7-1.5s-1.4-2.3-1.4-3.9c0-1.7.5-3.2 1.6-4.2s2.4-1.6 4-1.6c1 0 1.9.1 2.6.4v1.5c-.8-.4-1.6-.6-2.6-.6-1.2 0-2.2.4-3 1.2s-1.1 1.9-1.1 3.3c0 1.3.4 2.3 1.1 3.1s1.6 1.1 2.8 1.1c1.1 0 2-.2 2.8-.7v1.3z"/><path d="m368.2 13c0-.3.1-.5.3-.6.2-.2.4-.3.6-.3.3 0 .5.1.7.3s.3.4.3.6-.1.5-.3.6c-.2.2-.4.3-.7.3s-.5-.1-.6-.3c-.2-.2-.3-.4-.3-.6z"/><path d="m381.1 13.7h-1.7l-5.5-8.4c-.2-.2-.3-.5-.4-.7 0 .2.1.8.1 1.5v7.6h-1.4v-10.9h1.8l5.3 8.3c.3.4.4.6.4.8 0-.3-.1-.8-.1-1.6v-7.5h1.4v10.9z"/><path d="m389.7 13.7h-5.8v-10.9h5.6v1.2h-4.2v3.5h3.9v1.2h-3.9v3.7h4.4z"/><path d="m398.4 4.1h-3.1v9.6h-1.4v-9.6h-3.1v-1.3h7.7v1.3z"/></g></svg>