<svg enable-background="new 0 0 400 400" viewBox="0 0 400 400" xmlns="http://www.w3.org/2000/svg"><g fill="#fbfafa"><path d="m37.59 393.81c-.92.31-1.52.05-2-.78-.7-1.2-1.52-2.34-2.47-3.78v4.59c-.55.03-.95.05-1.41.07-.03-.37-.06-.64-.06-.91 0-1.91 0-3.81 0-5.7 1.13-.41 1.77-.03 2.29.91.62 1.11 1.38 2.14 2.31 3.19v-4.2h1.35v6.61z"/><path d="m12.94 393.88v-6.75c1.9.19 3.93-.54 5.37 1.29.8 1.01.78 2.88.03 3.97-1.37 1.97-3.4 1.51-5.4 1.49m1.45-1.22c2.04.12 2.92-.58 2.89-2.21-.03-1.51-.98-2.19-2.89-2z"/><path d="m11.81 393.87h-5.49c.68-2.18 2.47-3.48 3.51-5.45h-3.08v-1.21h5.29c-.71 2.13-2.44 3.48-3.47 5.51.86 0 1.63.04 2.39-.01.79-.05 1.14.21.85 1.16"/><path d="m39.33 393.86v-6.61h3.7v1.07h-2.22v1.52c.68.04 1.34.09 2.07.13v1.07c-.72.05-1.38.09-2.1.14v1.48h2.4v1.19h-3.85z"/><path d="m27.71 388.56c-1.15-.3-2.46-.61-3.1.64-.37.73-.41 1.93-.06 2.67.63 1.35 1.99.93 3.17.68.35.94-.01 1.32-.93 1.46-1.62.25-3.05-.27-3.76-1.48-.73-1.24-.6-3.03.31-4.17.88-1.11 2.71-1.7 4-1.16.32.13.44.74.65 1.12-.1.08-.19.16-.28.24"/><path d="m49.15 387.24v1.07c-.59.02-1.17.05-1.87.08v5.44h-1.48v-5.44h-1.85c-.05-.4-.08-.73-.13-1.15z"/><path d="m20.06 387.21h1.33v6.62h-1.33z"/><path d="m30.68 393.25c-.49.38-.8.79-1.05.76-.32-.05-.6-.45-.9-.7.26-.24.51-.64.8-.67.29-.04.62.3 1.15.61"/></g><path d="m71.12 178.21c7.53 4.23 15.25 2.64 22.86 2.32 1.26 4.4 3.3 5.98 7.83 4.91 4.27-1 8.36-2.81 13.06-4.44 2.3 1.72 5.26 4.05 8.36 6.2 2.66 1.85 5.38 2.26 8.44.41 1.94-1.17 4.32-1.6 6.95-2.51.73 5.74 4.57 5.9 8.82 6.12 11.27.58 22.52 1.5 34.1 2.31 1.65-8.2 3.28-16.27 4.9-24.34.55-2.74 1.36-5.47 1.54-8.23.41-6.12 3.54-10.66 7.82-14.64 7.05-6.55 14.07-13.12 21.18-19.61 5.04-4.6 10.03-9.28 15.33-13.57 6.14-4.98 12.64-9.53 18.9-14.37 3.33-2.57 6.86-5.03 9.66-8.13 4.72-5.22 5.17-11.45 2.56-17.89-2.43-6.01-4.93-11.98-7.43-17.96-.25-.61-.59-1.23-1.04-1.71-6.09-6.46-6.82-14.38-5.82-22.59.2-1.67 1.89-3.36 3.31-4.54.39-.33 2.49.93 3.43 1.84 1.52 1.46 3 3.08 4.01 4.9 3.23 5.83 7.15 11.05 12.23 15.42 1.04.89 1.79 2.27 2.35 3.56 8.47 19.48 12.31 39.92 12.1 61.08-.22 21.26-1.26 42.52-1.09 63.77.06 7.55 2.1 15.25 4.33 22.54.81 2.65 4.52 4.94 7.41 6.32 8.8 4.19 18.23 6.01 28 5.57 1.72-.08 3.53-.67 5.07-1.47 8.35-4.3 16.62-8.74 24.93-13.12.95-.5 1.94-.94 2.92-1.4.23.2.47.4.7.6-.71 1.07-1.23 2.38-2.17 3.16-4.81 4.01-9.75 7.87-14.62 11.81-3.83 3.1-7.55 6.29-9.21 11.03.22.42.28.74.43.78 6.97 2.13 11.46 7.47 16.35 12.37 4.66 4.66 9.56 9.07 14.62 13.84-4.18 2.86-7.94 2.88-11.38 1.62-7.81-2.87-15.88-5.16-22.52-10.73-6.74-5.65-14.71-5.57-22.58-2.88-6.22 2.12-12.26 4.83-18.26 7.54-.88.4-1.53 2.26-1.56 3.46-.42 17.45-.62 34.91-1.06 52.36-.45 18.01-.94 36.02-1.76 54.01-.26 5.65-1.28 11.33-2.55 16.86-1.02 4.44-2 4.69-6.07 2.98-1.94-.81-3.86-1.78-5.58-2.98-7.98-5.58-15.86-11.29-23.81-16.9-14.35-10.12-25.35-23.58-36.56-36.79-7.08-8.35-14.55-16.54-20.44-25.7-8.23-12.78-15.21-26.42-17.31-41.8-.51-3.72.54-7.74 1.28-11.54 1.61-8.21 3.5-16.37 5.34-24.87-9.19-.73-18.08-1.61-26.98-2.09-11.95-.63-23.93-.66-35.86-1.53-5.29-.39-10.41-2.63-15.7-3.29-9.74-1.22-19.54-1.96-29.33-2.77-2.02-.17-3.91 2.69-3.1 4.88.62 1.69 1.75 3.38 3.07 4.61 5.57 5.18 11.61 9.89 16.83 15.4 2.81 2.96 4.74 7 6.25 10.88 1.7 4.37-1.1 7.58-5.54 6.24-4.15-1.26-8.42-3.24-11.68-6.01-5.26-4.47-9.93-9.7-14.49-14.92-5.5-6.29-10.93-12.7-15.83-19.46-3.19-4.41-6.51-8.45-11.09-11.44-3.72-2.44-6.25-5.72-6.49-10.76 2.35-.36 4.75-.66 7.12-1.12 11-2.12 19.88-8.51 28.68-14.8 6.79-4.85 13.96-8.71 21.62-11.94 6.47-2.73 12.64-6.17 18.88-9.43 3.77-1.97 7.63-3.15 11.91-2.42 2.19.37 2.86 1.35 2.86 3.84.01 5.58-2.53 8.68-7.24 11.46-13.42 7.94-25.84 17.86-42.19 19.69zm127.02 39.87c-2.54 4.41-4.83 9.05-7.73 13.27-3.1 4.49-3.45 9.24-2.97 14.38 1.19 12.55 6.98 22.94 14.83 32.42 11.26 13.61 22.71 27.07 33.63 40.96 3.74 4.75 7.87 8.71 12.72 12.19 3.79 2.72 7.48 5.68 10.73 9.01 1.89 1.94 3.61 2.6 6.41 2.17 0-2.36-.11-4.59.02-6.81.41-6.91.31-13.93 1.55-20.7 1.41-7.71 1.43-15.25.72-22.97-1.05-11.45-2.43-22.92-.75-34.46.25-1.74.08-3.59-.21-5.34-.86-5.1-3.41-6.85-8.46-6.24-3.51.42-7.35 1.69-10.52.78-11.97-3.46-23.19-8.83-33.46-15.94-5.68-3.94-10.97-8.42-16.51-12.72zm68.22-96.92c0-1.79.06-3.58-.03-5.36-.03-.64-.36-1.29-.65-1.89-1.6-3.39-4.24-4.01-7.02-1.67-15.16 12.73-30.34 25.44-45.46 38.21-1.05.89-2.15 2.06-2.57 3.32-2.47 7.53-4.86 15.09-7.05 22.71-1.71 5.96-1.63 11.95 1.09 17.67.49 1.03 1.34 2.21 2.32 2.62 6.08 2.54 12.27 3.97 18.91 1.99 9.47-2.83 19.04-4.56 29.07-3.33 3.11.38 6.48-1.1 9.69-1.91.67-.17 1.57-1.14 1.63-1.8.67-7.67 1.73-15.35 1.65-23.02-.17-15.86-3.44-31.62-1.58-47.54zm-35.82 91.36c4.71 8.86 9.33 16.64 19.83 17.85 2.08.24 4.07 1.46 6.13 1.54 2.83.11 5.73-.21 8.48-.84.97-.23 2.14-1.86 2.29-2.98.51-3.64.38-7.37.92-11.01.38-2.6-.67-4.1-2.73-5.09-1.49-.71-3.13-1.52-4.72-1.55-7.9-.12-15.81-.14-23.71.12-2.13.08-4.23 1.25-6.49 1.96zm69.93 13.19c-3.71-2.75-6.92-5.13-10.52-7.8v10.51c3.47-.89 6.68-1.72 10.52-2.71z" fill="#010000"/></svg>