<svg enable-background="new 0 0 400 400" viewBox="0 0 400 400" xmlns="http://www.w3.org/2000/svg"><g fill="#010100"><path d="m190.74 288.8c-1.18-3.38-2.39-5.93-2.95-8.61-2.1-9.92-3.78-19.93-6.01-29.82-4.02-17.81-4.61-35.91-4.68-54.02-.07-16.23-.15-32.39-3.02-48.46-.7-3.93.55-8.19.74-12.3.15-3.28.76-6.76-.05-9.83-4.34-16.51-3.95-32.97-.31-49.48.19-.87.32-1.82.78-2.55 4.57-7.36 4.22-15.12 1.72-22.95-3.28-10.3-.26-18.61 7.75-25.74 5.21 3.69 7.26 9.23 7.7 14.96.92 12.02 1.06 24.1 1.5 36.15.08 2.24.23 4.48.14 6.71-.24 5.97 1.09 11.46 4.46 16.47.76 1.14 1.23 2.67 1.32 4.05.78 12.73 1.32 25.47 2.25 38.18.25 3.38 1.77 6.65 2.42 10.03.29 1.5.39 3.48-.36 4.66-3.35 5.32-2.96 10.81-2.12 16.72 1.19 8.38 2.04 16.87 2.16 25.32.3 21.14.55 42.3-.15 63.42-.24 7.28-2.91 14.63-5.42 21.6-.8 2.25-4.67 3.38-7.87 5.49z"/><path d="m261.76 165.11c3.34.77 7.07 1.49 10.71 2.55.9.26 1.95 1.46 2.18 2.41 3.55 14.66 7.41 29.26 10.27 44.06 1.75 9.07 2.18 18.44 2.74 27.7.77 12.88 3.63 25.4 5.74 38.07 4.97 29.8 6.3 59.83 3.15 89.95-.57 5.45-4.65 7.49-9.55 4.96-3.14-1.62-5.6-3.76-7.34-7.02-5.43-10.15-8.83-20.65-7.96-32.4 1.38-18.53-1.58-36.83-3.62-55.17-.63-5.67-.79-11.45-2.03-16.98-2.05-9.13-4.04-18.39-7.45-27.06-4.83-12.28-5.03-24.18-2-36.9 2.63-11.03 3.47-22.48 5.16-34.17z"/><path d="m114.76 155.07c4.86 6.47 9.62 12.02 13.39 18.17 1.81 2.96 2.31 7.04 2.46 10.65.8 18.76 1.69 37.53 1.79 56.3.09 17.88-.29 35.8-1.42 53.64-.49 7.76-2.85 15.55-5.32 23.01-3.31 9.99-6.74 19.84-7.9 30.41-.22 1.96-3.18 4.26-5.38 5.17-1.86.77-4.52-.01-6.68-.61-.59-.16-.88-2.13-.97-3.29-.75-10.15-1.42-20.31-2.12-30.46-.07-.99.05-2.17-.43-2.94-4.11-6.52-3.26-14.01-4.24-21.13-3.05-22.1-.17-43.91 2.82-65.78 2.41-17.65 6.25-34.92 10.69-52.13 1.68-6.57 2.15-13.45 3.31-21.01z"/></g><path d="m6.4 11.7c-1-.8-1.9-1.6-2.9-2.3l.6-.7c.9.7 1.9 1.4 2.9 2.2zm-2.1 8.3c.7-2.1 1.4-4.2 2-6.4.2.1.6.3 1 .4-.7 2.3-1.3 4.4-1.9 6.4zm3-12.8c-1.1-.9-2.1-1.7-2.9-2.4l.6-.7c1 .8 2 1.5 3 2.4zm1.4-1.3v-.9h10.2v.9c-.9 4.2-2.3 7.3-4.1 9.4 1.3 1.4 3.2 2.7 5.7 4-.2.2-.4.5-.7.9-2.5-1.4-4.4-2.7-5.7-4.2-1.4 1.5-3.5 3-6.1 4.4 0 0 0 0-.1-.1-.3-.4-.5-.7-.7-.8 2.7-1.3 4.7-2.8 6.2-4.2-1.8-2.2-3-5.3-3.7-9.4zm9.2 0h-7.1c.6 3.8 1.7 6.7 3.4 8.7 1.7-2 2.9-4.8 3.7-8.7z" fill="#fafbfa"/><path d="m31.6 3.6h.9v2.3h4.1v9.1h1.7v.9h-16.6v-.9h1.7v-9.1h4.1v-2.3h.9v2.3h3.1v-2.3zm-4 13.3.6.8c-1.9.9-3.8 1.9-5.8 2.8-.2-.3-.3-.6-.5-.9 2-.9 3.9-1.8 5.7-2.7zm-3.2-10.1v3.7h3.1v-3.7zm0 4.5v3.7h3.1v-3.7zm4.1-4.5v3.7h3.1v-3.7zm0 4.5v3.7h3.1v-3.7zm9.1 9.1c-2.1-1.1-4.1-2-5.8-2.7l.5-.8c2.2.9 4.1 1.8 5.8 2.6zm-1.9-13.6h-3.1v3.7h3.1zm-3.2 4.5v3.7h3.1v-3.7z" fill="#fafbfa"/></svg>