<svg enable-background="new 0 0 400 400" viewBox="0 0 400 400" xmlns="http://www.w3.org/2000/svg"><path d="m91.09 118.09c6.07-3.67 12.37-4.82 19.12-3.26 3.38.78 6.79 1.45 10.1 2.46 5.33 1.62 10.6 1.85 16.18 1.33 3.58-.34 7.36 1.43 11.51 2.36 1.66-3.69 3.82-7.97 5.46-12.44.6-1.64.19-3.78-.18-5.61-1.82-8.92-1.89-17.69 1.2-26.41.8-2.27.97-4.82 1.1-7.25.32-6.31-1.63-11.01-7.6-14.65-10.41-6.34-20.1-13.83-28.29-23.03-.74-.83-1.43-1.69-2.23-2.64 4.12-3.07 7.96-4.2 13.21-2.37 13.18 4.59 26.65 8.36 39.98 12.53 2.23.7 4.37 1.7 6.53 2.63 6.45 2.8 11.88 6.73 16.31 12.44 11.18 14.41 22.97 28.36 34.1 42.81 2.22 2.88 2.55 7.21 3.86 10.83.63 1.75 1.24 3.6 2.31 5.08 3.59 5 7.16 10.04 11.16 14.71 3.15 3.68 4.37 7.85 4.06 12.37-.51 7.34-1.19 14.69-2.42 21.93-1.32 7.81-1.59 15.39 2.06 22.61 1.14 2.25 2.65 4.44 4.42 6.23 11.56 11.72 23.33 23.23 34.8 35.03 2.4 2.47 4.71 5.66 5.53 8.91 3.02 12.01 5.83 24.11 7.88 36.32 1.59 9.46 2.02 19.12 2.72 28.7.17 2.39-.36 4.92-1 7.26-3.29 12.08-7.08 24.04-9.91 36.22-1.19 5.09-.64 10.64-.52 15.98.12 5.29-.84 10.19-4.32 14.85-.75-4.21-2.21-8.44-2.12-12.63.4-18.49-3.02-36.56-5.72-54.69-2.91-19.57-6.54-39.03-9.94-58.52-.28-1.6-.92-3.23-1.77-4.61-4.37-7.03-8.77-14.04-13.34-20.94-1.96-2.96-4.12-5.87-6.6-8.39-3.43-3.51-7.95-4.58-12.69-3.73-1.7.3-3.56 1.39-4.73 2.68-7.72 8.56-15.36 17.2-22.84 25.98-2.44 2.86-5.23 4.79-8.82 5.69-4.01 1.01-8.01 2.04-12 3.12-7.52 2.03-9.98 5.24-9.82 12.88.42 20.48.92 40.96 1.24 61.44.04 2.73-.46 5.6-1.36 8.18-.56 1.61-2.11 3.22-3.63 4.08-3.47 1.97-4.75 1.13-6.57-2.45-3.75-7.35-4.8-14.98-4.75-23.26.08-13.17-.86-26.36-1.91-39.5-.74-9.16-4.79-16.55-14.27-19.55-2.2-.7-4.58-1.01-6.91-1.15-10.25-.6-15-5.22-15.92-15.82 4.48-2.43 9.33-3.49 14.44-3.22 7.88.43 15.33-3.69 17.62-11.14 1.92-6.23 3.3-12.86 3.45-19.35.36-15.7-1.48-31.26-5.37-46.54-.82-3.22-2.56-5.19-5.32-6.8-9.13-5.31-19.17-7.76-29.36-10.04-6.15-1.38-12.23-3.47-17.99-6.03-4.89-2.19-8.19-6.42-10.13-11.62zm92.85-32.57c-3.51 11.66-6.57 23.09-6.07 35.07.2 4.74 1.4 9.41 6.08 11.99 3.03 1.67 6.11 3.3 9.31 4.56 9.37 3.69 18.93 7 24.49 16.11 5.56-2.21 5.56-2.21 5.03-7.48-.08-.78-.23-1.55-.35-2.32-2.26-14.68-9.3-27.12-18.16-38.68-5.67-7.39-12.22-13.87-20.33-19.25zm-2.06 78.11c-.27.78-.49 1.18-.54 1.6-.94 8.21-2.03 16.42-2.72 24.65-.64 7.61.43 14.9 6.13 21.82 4.1-2.35 8.5-4.31 12.23-7.16 3.88-2.96 6.92-6.99 10.65-10.17 3.84-3.27 3.97-7.18 2.22-11.14-1.22-2.76-3.12-5.55-5.43-7.45-6.58-5.45-14.18-9.24-22.54-12.15z" fill="#010100"/><g fill="#fafbfa"><path d="m6.4 11.7c-1-.8-1.9-1.6-2.9-2.3l.6-.7c.9.7 1.9 1.4 2.9 2.2zm-2.1 8.3c.7-2.1 1.4-4.2 2-6.4.2.1.6.3 1 .4-.7 2.3-1.3 4.4-1.9 6.4zm3-12.8c-1.1-.9-2.1-1.7-2.9-2.4l.6-.7c1 .8 2 1.5 3 2.4zm1.4-1.3v-.9h10.2v.9c-.9 4.2-2.3 7.3-4.1 9.4 1.3 1.4 3.2 2.7 5.7 4-.2.2-.4.5-.7.9-2.5-1.4-4.4-2.7-5.7-4.2-1.4 1.5-3.5 3-6.1 4.4 0 0 0 0-.1-.1-.3-.4-.5-.7-.7-.8 2.7-1.3 4.7-2.8 6.2-4.2-1.8-2.2-3-5.3-3.7-9.4zm9.2 0h-7.1c.6 3.8 1.7 6.7 3.4 8.7 1.7-2 2.9-4.8 3.7-8.7z"/><path d="m31.6 3.6h.9v2.3h4.1v9.1h1.7v.9h-16.6v-.9h1.7v-9.1h4.1v-2.3h.9v2.3h3.1v-2.3zm-4 13.3.6.8c-1.9.9-3.8 1.9-5.8 2.8-.2-.3-.3-.6-.5-.9 2-.9 3.9-1.8 5.7-2.7zm-3.2-10.1v3.7h3.1v-3.7zm0 4.5v3.7h3.1v-3.7zm4.1-4.5v3.7h3.1v-3.7zm0 4.5v3.7h3.1v-3.7zm9.1 9.1c-2.1-1.1-4.1-2-5.8-2.7l.5-.8c2.2.9 4.1 1.8 5.8 2.6zm-1.9-13.6h-3.1v3.7h3.1zm-3.2 4.5v3.7h3.1v-3.7z"/></g></svg>