<svg enable-background="new 0 0 400 400" viewBox="0 0 400 400" xmlns="http://www.w3.org/2000/svg"><g fill="#fbfafa"><path d="m37.59 393.81c-.92.31-1.52.05-2-.78-.7-1.2-1.52-2.34-2.47-3.78v4.59c-.55.03-.95.05-1.41.07-.03-.37-.06-.64-.06-.91 0-1.91 0-3.81 0-5.7 1.13-.41 1.77-.03 2.29.91.62 1.11 1.38 2.14 2.31 3.19v-4.2h1.35v6.61z"/><path d="m12.94 393.88v-6.75c1.9.19 3.93-.54 5.37 1.29.8 1.01.78 2.88.03 3.97-1.37 1.97-3.4 1.51-5.4 1.49m1.45-1.22c2.04.12 2.92-.58 2.89-2.21-.03-1.51-.98-2.19-2.89-2z"/><path d="m11.81 393.87h-5.49c.68-2.18 2.47-3.48 3.51-5.45h-3.08v-1.21h5.29c-.71 2.13-2.44 3.48-3.47 5.51.86 0 1.63.04 2.39-.01.79-.05 1.14.21.85 1.16"/><path d="m39.33 393.86v-6.61h3.7v1.07h-2.22v1.52c.68.04 1.34.09 2.07.13v1.07c-.72.05-1.38.09-2.1.14v1.48h2.4v1.19h-3.85z"/><path d="m27.71 388.56c-1.15-.3-2.46-.61-3.1.64-.37.73-.41 1.93-.06 2.67.63 1.35 1.99.93 3.17.68.35.94-.01 1.32-.93 1.46-1.62.25-3.05-.27-3.76-1.48-.73-1.24-.6-3.03.31-4.17.88-1.11 2.71-1.7 4-1.16.32.13.44.74.65 1.12-.1.08-.19.16-.28.24"/><path d="m49.15 387.24v1.07c-.59.02-1.17.05-1.87.08v5.44h-1.48v-5.44h-1.85c-.05-.4-.08-.73-.13-1.15z"/><path d="m20.06 387.21h1.33v6.62h-1.33z"/><path d="m30.68 393.25c-.49.38-.8.79-1.05.76-.32-.05-.6-.45-.9-.7.26-.24.51-.64.8-.67.29-.04.62.3 1.15.61"/></g><path d="m97.62 241.02c-3.14-4.77-2.18-9.64 2.46-12.71 9.85-6.53 20.96-8.6 32.5-9.24 13.18-.73 26.34-1.73 39.53-2.29 4.43-.19 8.91.6 13.37.91 4.53.31 6.64-.49 7.77-4.95 1.12-4.44 1.93-9.43 1.04-13.81-5.95-29.32-6.05-59.17-8.44-88.8-1.41-17.51-2.51-35.05-3.66-52.58-.14-2.12-.89-3.36-2.79-4.43-10.72-6.02-10.67-5.94-23.88-3.78-11.14 1.82-22.33 3.45-33.53 4.89-7.84 1.01-14.01-1.92-16.9-7.61-2.49-4.9-2.36-10.18-1.77-15.43.08-.74 1.65-1.76 2.63-1.89 7.41-1 14.83-1.98 22.28-2.63 8.35-.73 16.74-1.53 25.11-1.51 6.78.01 13.58 1.07 20.35 1.87 20 2.35 40 4.67 59.97 7.29 4.61.6 9.02 2.56 13.61 3.48 3.1.63 6.45 1.18 9.5.66 9.59-1.66 18.97 8.71 19.5 15.34.29 3.67-2.19 5.57-4.86 6.94-2.36 1.21-4.79.91-7.11-1.04-1.51-1.27-3.78-2.51-5.61-2.38-16.89 1.17-33.45-2.14-50.15-3.35-1.34-.1-2.67-.16-4.39-.27 0 5.2-.35 10.28.06 15.31 2.56 31.9 5.31 63.78 7.93 95.67 1.24 15.17 2.37 30.35 3.4 45.53.18 2.59 1.13 3.87 3.65 4.14 10.32 1.09 20.64 2.24 30.97 3.28 5.68.57 11.36 1.12 17.06 1.38 2.98.14 6.03-.18 9-.62 7.85-1.16 17.58 4.92 19.17 12.49 3.05 14.53 6.06 29.07 8.76 43.67 3.14 16.98 2.6 34.12.97 51.2-.95 9.89-2.6 19.73-4.17 29.55-.24 1.5-1.52 3.06-2.73 4.12-1.49 1.3-3.38 2.17-5.16 3.11-2.58 1.36-4.62 2.03-7.84.01-2.96-1.86-7.59-2.34-11.17-1.7-8.34 1.47-16.51 3.97-24.73 6.1-1.06.28-2.3.59-3.04 1.31-3.62 3.53-7.64 3.42-11.98 1.71-3.53-1.4-6.85-1.87-9.41 1.94-.44.65-1.74.91-2.68 1.02-28.31 3.26-56.52 2.78-84.5-2.85-6.62-1.33-12.95-4.15-19.41-6.26-4.77-1.56-7.6-5.25-10.27-9.19-8.96-13.26-13.51-28.15-15.91-43.76-2.81-18.33-3.76-36.73-.99-55.17.4-2.65.91-5.29 1.51-7.9.99-4.43 1.04-4.42 4.98-6.77zm181.93 5.67c.54-3.69-.63-6.92-3.54-9.18-1.01-.78-3.07-1.38-4.03-.88-9.6 5.07-19.01 4.05-28.45-.33-.6-.28-1.26-.56-1.91-.6-1.84-.12-3.79-.52-5.51-.08-9.64 2.44-19.19 5.21-28.84 7.62-2.87.72-5.94.78-8.93.88-6.44.21-12.89.29-19.34.35-2.61.02-5.25 0-7.84-.26-3.94-.4-7.86-1.43-11.79-1.44-3.41-.01-6.84.98-10.25 1.63-8.27 1.57-16.48 2.77-24.89.43-2.47-.69-5.34-.26-7.99.02-3.08.33-4.72 1.91-5.04 5.41-1.93 20.69-1.5 41.35.24 62 .18 2.19 1.09 4.66 2.47 6.32 2.78 3.36 2.93 6.44.81 10.1-2.01 3.48 1.9 11.8 5.76 12.59 20.69 4.24 41.39 8.48 62.09 12.64 1.6.32 3.36.33 4.97.06 6.5-1.1 12.97-2.41 19.46-3.56 19.24-3.41 38.29-8.12 58.1-7.25 3.6.16 7.39-1.45 10.91-2.75 1.73-.64 3.93-2.19 4.38-3.77 1.94-6.74 4.36-13.6 4.64-20.49.41-10.11-.5-20.33-1.53-30.43-.69-6.74-3.08-13.31-3.8-20.05-.68-6.26-.15-12.65-.15-18.98zm-89.54 119.91c-1.03-1.55-2.02-3.05-3.02-4.55-.2.14-.41.27-.61.41.3 1.58.6 3.16.93 4.89 1.28-.35 2.29-.63 2.7-.75z" fill="#010000"/></svg>