<svg enable-background="new 0 0 400 400" viewBox="0 0 400 400" xmlns="http://www.w3.org/2000/svg"><path d="m374.8 390.4.4-.4c.7.5 1.3 1 1.8 1.4l-.5.5c-.5-.6-1.1-1.1-1.7-1.5zm1 7.3-.6-.3c.5-1.4 1.1-2.8 1.5-4.3.2.1.4.2.6.3-.5 1.3-1 2.8-1.5 4.3zm-.4-10.3.4-.4c.4.3 1 .8 1.7 1.4l-.5.5c-.4-.5-1-1-1.6-1.5zm2.5.3h1.7v-1h.6v1h3.5v-1h.6v1h1.8v.5h-1.8v1.4h-2v1h3.2v2h-3.2v.9h3.3v.5h-3.4c0 .3-.1.6-.1.9h4v.5h-3.7c.7.9 1.9 1.5 3.8 1.7-.1.2-.2.4-.3.6-2.1-.4-3.5-1.1-4-2.1-.4 1-1.8 1.7-4 2.2-.1-.2-.2-.4-.3-.6 2.1-.4 3.4-1 3.8-1.8h-3.4v-.5h3.6c.1-.3.1-.6.2-.9h-3.3v-.5h3.4c0-.3 0-.6 0-.9h-3.2v-2h3.3v-1h-2.1v-1.4h-1.7v-.5zm1.1 3.5v1h2.7c0-.3 0-.4 0-.4 0-.1 0-.2 0-.2 0-.1 0-.2 0-.3h-2.7zm1.2-3v.9h3.5v-.9zm4.7 3h-2.6v.6.4h2.6z" fill="#fbfcfa"/><path d="m393.6 386.7h.6v1.5h2.7v6.1h1.1v.6h-11v-.6h1.1v-6.1h2.7v-1.5h.6v1.5h2.1v-1.5zm-2.7 8.8.4.6c-1.2.6-2.5 1.3-3.8 1.9-.1-.2-.2-.4-.3-.6 1.2-.6 2.5-1.2 3.7-1.9zm-2.2-6.7v2.4h2.1v-2.4zm0 3v2.5h2.1v-2.5zm2.8-3v2.4h2.1v-2.4zm0 3v2.5h2.1v-2.5zm6 6.1c-1.4-.7-2.7-1.3-3.9-1.8l.3-.6c1.5.6 2.7 1.2 3.9 1.7zm-1.2-9.1h-2.1v2.4h2.1zm-2.1 3v2.5h2.1v-2.5z" fill="#fbfcfa"/><path d="m318.08 326.88c.25 1.18.45 1.93.56 2.7.31 2.01 1.03 4.2 3.3 3.85 1.95-.3 4.53-1.43 5.38-2.99 3.01-5.51 3.19-11.62 1.61-17.62-2.2-8.36-3.2-16.66-.63-25.14.27-.89-.59-2.45-1.38-3.28-5.33-5.6-5.33-5.55-2.34-12.77.49-1.18 1.12-2.78.72-3.79-4.12-10.2-1.68-20.53-.89-30.84.48-6.28 2.38-12.6-.68-18.79-.41-.82-.16-1.98-.16-2.99-.01-4.24-.01-8.47-.01-13.21-4.7.56-9.12.87-13.46 1.65-13.28 2.41-26.56.63-39.84.28-18-.48-36-1.58-53.99-1.59-12.38-.01-24.8 1-37.12 2.31-6.34.68-11.94-1.19-17.71-2.69-3.07-.8-5.84-.98-8.74.33-9.09 4.13-18.89 2.58-28.39 3.57-10.48 1.09-20.04-2.67-29.91-4.82-1.56-.34-2.66-2.49-4.16-3.54-1.15-.8-2.66-1.81-3.89-1.67-8.95 1.09-15.19-2.82-19.32-10.36-1.19-2.17-1.45-4.89-2-7.38-.96-4.37-1.58-8.82-2.77-13.12-1.56-5.64-.52-11.13.43-16.61.61-3.52.33-6-3.26-7.99-1.83-1.01-3.58-3.64-3.85-5.73-1.13-8.85-2.05-17.77-2.36-26.69-.28-8.03.28-16.1.59-24.15.25-6.46-.98-12.23-6.44-16.44-1.05-.81-1.87-1.92-2.73-2.95-3.82-4.56-6-9.29-2.19-15.07 2.01-3.04 3.56-6.39 5.31-9.6.93-1.71 2.28-1.9 3.95-1.16 4.82 2.14 9.8 2.51 15.06 2 7.9-.76 15.86-.86 23.77-1.52 3.27-.27 5.89.29 7.96 2.95.6.77 1.47 1.32 2.39 2.11 4.12-3.74 8.54-4.08 13.8-2.75 3.11.78 6.87-.17 10.14-1.08 6.24-1.73 12.3-4.07 18.49-5.97 2-.62 4.17-.84 6.28-.94 4.14-.2 8.01.51 10.88 3.98.76.92 1.8 1.6 2.8 2.45 7.86-10.55 18.92-9.96 30.03-9.3 8.26.49 16.58 1.6 24.77 1.03 7.01-.49 13.94-2.8 20.8-4.67 4.13-1.13 8.03-1.97 12.44-1.31 15.24 2.31 30.58 1.2 45.9.82 9.15-.22 18.14.93 25.93 6.4 2.53 1.77 4.81 3.89 7.21 5.84-.3.45-.59.91-.89 1.36-4.89 1.41-9.71 3.14-14.68 4.13-5.29 1.06-9.35 3.34-11.49 8.43-1.18 2.79-3.11 3.16-5.89 2.51-5.22-1.21-10.49-2.41-15.81-2.98-3.6-.39-7.38-.09-10.96.58-9.44 1.78-18.86 2.26-28.33.58-8.24-1.46-16.25.47-24.31 1.49-9.32 1.18-18.7 2.11-27.89 3.99-6.5 1.33-12.67 4.23-19.08 6.11-2.8.82-5.84 1.25-8.74 1.15-5.92-.19-11.82-1.23-17.73-1.22-5.78 0-11.56.97-17.35 1.32-9.71.58-19.43 1.19-29.15 1.39-2.67.06-5.4-1.2-8.05-2.02-4.17-1.3-7.16-.46-8.57 3.69-1.3 3.84-1.75 8.04-2.02 12.12-.25 3.89-.16 7.88.45 11.72.97 6.09.14 11.8-2.49 17.27-1.36 2.83-1.37 5.45-.11 8.32 1.21 2.75 2.03 5.67 3.12 8.77-2.46 1.71-4.9 3.41-7.63 5.31 7.02 5.99 8.37 13.72 8.16 22.23-.1 4.28.83 8.63 1.72 12.85.23 1.1 2.06 1.91 3.24 2.73.41.28 1.08.2 1.64.25 5.46.47 10.55 1.79 14.37 6.12 1.26 1.43 2.42 1.47 3.94.11 3.66-3.27 8.18-4.58 12.96-4.75 4.13-.15 8.27.15 12.41.17 19.79.12 39.58.3 59.37.29 11.75-.01 23.5-.64 35.23-.36 6.21.15 12.41 1.5 18.56 2.59 4.65.82 9.11.79 13.72-1.46-.15 1.41-.67 2.72-.29 3.66.46 1.16 1.5 2.48 2.61 2.89.88.33 2.93-.29 3.25-1.02 1.96-4.45 5.46-5.05 9.79-5.07 15.44-.05 30.9-.94 46.31-.33 6.19.24 12.26 3.51 18.36 5.46 1.37.44 2.76.95 3.97 1.71 1.04.66 2.24 1.6 2.56 2.65.2.66-.9 2.21-1.77 2.62-8.06 3.83-8.22 11.21-3.39 18.95 5.37 8.63 8.23 18.12 9.48 28.05 2.56 20.37 2.6 40.85 2.29 61.34-.01.98-.09 2.1-.56 2.9-4.86 8.17-4.04 16.37-.25 24.6 1.21 2.63 2.52 5.22 3.91 8.1-4.67 4.45-9.33 8.95-14.07 13.34-.57.53-1.61.67-2.46.74-5.68.51-11.36 1.2-17.06 1.34-5.77.14-10.82 2.34-16.02 4.38-2.43.95-5.15 1.51-7.76 1.6-12.97.4-25.99.07-38.91 1.03-9.21.69-18.29 2.99-27.42 4.63-10.12 1.82-20.21 3.87-30.37 5.43-2.62.4-5.45-.84-8.2-.98-1.76-.09-3.96-.12-5.24.82-5.04 3.65-10.42 4.27-16.46 3.69-9.23-.9-18.53-1.54-27.8-1.54-7.01 0-14.03 1.12-21.04 1.81-9.35.92-18.75 1.55-28.03 2.98-6.81 1.05-13.4 3.5-20.2 4.73-6.21 1.13-12.3-.37-17.2-4.3-4.2-3.37-8.49-7.04-9.03-13.19-.27-3.08.54-5.3 2.61-7.8 5.21-6.28 12.05-5.73 18.99-5.82 5.54-.07 11.08-.77 16.63-.87 2.48-.04 4.96.89 7.47 1.06 2.12.14 4.47.33 6.38-.38 8.74-3.28 17.82-4.29 27.02-4.27 8.05.01 16.09.72 24.14.77 3.88.02 7.75-.86 11.64-1.16 3.1-.24 6.23-.44 9.33-.28 7.93.41 15.85 1.04 23.77 1.53 1.1.07 2.5.28 3.27-.27 5.19-3.7 10.93-2.45 16.53-1.95 3.32.3 6.41.16 9.37-1.52 3.52-2 7.19-2.67 11.26-1.66 9.94 2.47 19.79.18 29.64-.91 17.54-1.9 35.08-3.97 52.95-6.03zm-138.9-141.86c-5.12-4.02-6.47-3.72-10.98 2.3.91 1.28 1.84 2.6 2.9 4.09 2.83-2.25 5.34-4.23 8.08-6.39zm40.78 163.41c-6.58 2.63-7.21 3.32-4.52 5.81 1.71-.59 3.48-1.19 5.53-1.9-.37-1.41-.68-2.65-1.01-3.91zm23.78-165.58v6.09c2.52-.19 4.18-.66 3.99-3.7-.18-2.83-1.88-2.47-3.99-2.39z" fill="#010101"/></svg>