<svg enable-background="new 0 0 400 400" viewBox="0 0 400 400" xmlns="http://www.w3.org/2000/svg"><path d="m175.32 342.37c7.87-.6 7.87-.6 8.09-4.67-4.49-.49-9.04-.77-13.5-1.57-2.03-.36-4.32-1.34-5.7-2.79-2.12-2.21-4.25-4.86-5.15-7.71-3.65-11.49-7.22-23.03-10.1-34.74-3.62-14.71-3.57-29.78-1.92-44.73 2.12-19.23 4.11-38.53 7.67-57.51 2.29-12.2 7.31-23.89 11.14-35.81 1.4-4.35.56-7.48-3.62-9.43-3.59-1.67-7.64-2.34-11.45-3.57-4.77-1.54-9.52-3.14-14.22-4.88-.92-.34-1.95-1.32-2.26-2.23-4.78-14.2-9.84-28.38-9.59-43.66.1-5.91.66-11.82 1.24-17.72.15-1.54 1.23-2.97 1.72-4.51.35-1.1.77-2.35.55-3.41-.63-3.05-.43-5.78 2.01-7.99 2.09-1.89 2.64-4.21 2.46-6.95-.19-2.79.24-5.63-.1-8.39-.53-4.31 1.57-6.93 5.13-8.4 5.15-2.13 10.53-3.7 15.69-5.8 4.13-1.68 7.64-.44 11.12 1.56.96.55 1.76 1.38 2.65 2.06 2.92 2.2 6.01 3.4 9.63 1.65 5.31-2.57 10.69-1.91 16.3-.84 8.76 1.67 17.81 2.02 26.44 4.14 14.86 3.66 29.51 8.17 42.7 16.39 2.03 1.26 2.99 2.39 2.96 4.88-.15 12.53-.1 25.07-.08 37.61 0 2.34.46 4.71.24 7.02-.82 8.55-3.23 12.19-12.96 19.6.18-3.12-.27-5.8.56-7.98 2.94-7.67 3.21-15.56 2.31-23.48-1.01-8.94 1.46-17.28 3.48-25.74 1.38-5.78-1.97-10.71-7.89-11.51-.77-.1-1.57-.16-2.34-.1-7.89.66-14.9-1.04-20.93-6.62-1.36-1.26-4.41-1.86-6.23-1.3-12.68 3.89-24.51-.43-36.52-3.2-3.27-.76-6.59-1.35-9.78-2.34-4.66-1.45-9.1-1.61-13.65.5-1.25.58-3.06.35-4.52.03-4.25-.91-8.45-2.05-13.01-3.18-.99 3.75-1.75 7.44-3 10.96-.61 1.72-1.81 3.64-3.3 4.53-2.44 1.45-3.33 3.16-2.6 5.73.93 3.3-.09 5.73-2.67 7.91-.76.64-1.05 2.3-.95 3.43.21 2.33.7 4.65 1.31 6.91 2.01 7.46 1.64 14.98 1.3 22.61-.21 4.69 1.31 9.45 2.1 14.18.33 1.98 1.06 3.94 1.1 5.92.1 4.53 2.87 6.57 6.59 8.19 10.79 4.67 22.12 5.03 33.59 4.61 19.17-.71 38.11-2.94 56.69-7.93 4.93-1.32 9.69-.55 14.06 2.9-5.73 5.77-12.44 9.55-19.99 11.39-9 2.18-18.13 3.89-27.29 5.25-3.55.53-7.32-.48-10.99-.73-2.11-.14-4.27-.46-6.34-.2-5.94.77-7.08 2.14-7.25 8-.28 9.62-.43 19.25-.88 28.86-.15 3.18-.57 6.53-1.74 9.46-4.02 10.07-3.95 20.81-5.73 31.25-1.75 10.24-3.38 20.5-5.53 30.66-1.98 9.34-.76 18.4.71 27.62 2.5 15.71 8.96 30.17 13.58 45.2.3.98 1.38 1.69 2.01 2.59.49.7 1.37 1.64 1.19 2.21-1.07 3.55 1.18 4.57 3.8 5.32 5.66 1.61 9.94 5.25 14.27 9.05 8.32 7.3 16.57 14.76 26.99 19.12 8.46 3.54 9.06 3.28 14.78-3.95 9.38-11.88 14.43-25.57 17.49-40.2 1.3-6.2 3.13-12.3 4.97-18.37 1.33-4.38 1.15-8.09-1.24-12.37-10.27-18.41-18.26-37.81-23.67-58.22-.3-1.14-.34-2.35-.51-3.53 2.92-.91 4.66.07 6.7 1.96 12.54 11.6 17.17 27.2 21.85 42.72 7.26 24.08 7.21 48.06-2.03 71.71-.55 1.4-1.6 2.61-2.39 3.92-.85 1.42-2.08 2.76-2.42 4.3-.98 4.43-3.17 7.98-6.4 11.13-3.11 3.04-5.79 6.52-8.79 9.68-5.11 5.38-11.56 7.31-18.68 5.9-4.18-.83-8.14-2.78-12.21-4.2-.94-.33-1.93-.86-2.86-.78-5.43.46-10.05-1.73-13.8-5.11-6.28-5.67-12.12-11.83-18.03-17.9-1.07-1.05-1.48-2.66-2.36-4.37z" fill="#010100"/><g fill="#fcfafa"><path d="m342.2 3.2-6.3 9.2h6.1v1.2h-8.2v-.5l6.2-9.1h-5.7v-1.2h7.8v.4z"/><path d="m344 13.7v-10.9h3.1c1.6 0 3 .5 4.1 1.4 1.1 1 1.6 2.2 1.6 3.9s-.5 3-1.6 4-2.5 1.5-4.2 1.5h-3zm1.4-9.6v8.4h1.6c1.4 0 2.5-.4 3.2-1.1.8-.8 1.2-1.8 1.2-3.2s-.4-2.4-1.2-3.1-1.8-1-3.1-1z"/><path d="m356.3 2.8v10.9h-1.4v-10.9z"/><path d="m366.6 13.2c-.8.4-1.8.6-3 .6-1.6 0-2.8-.5-3.7-1.5s-1.4-2.3-1.4-3.9c0-1.7.5-3.2 1.6-4.2s2.4-1.6 4-1.6c1 0 1.9.1 2.6.4v1.5c-.8-.4-1.6-.6-2.6-.6-1.2 0-2.2.4-3 1.2s-1.1 1.9-1.1 3.3c0 1.3.4 2.3 1.1 3.1s1.6 1.1 2.8 1.1c1.1 0 2-.2 2.8-.7v1.3z"/><path d="m368.2 13c0-.3.1-.5.3-.6.2-.2.4-.3.6-.3.3 0 .5.1.7.3s.3.4.3.6-.1.5-.3.6c-.2.2-.4.3-.7.3s-.5-.1-.6-.3c-.2-.2-.3-.4-.3-.6z"/><path d="m381.1 13.7h-1.7l-5.5-8.4c-.2-.2-.3-.5-.4-.7 0 .2.1.8.1 1.5v7.6h-1.4v-10.9h1.8l5.3 8.3c.3.4.4.6.4.8 0-.3-.1-.8-.1-1.6v-7.5h1.4v10.9z"/><path d="m389.7 13.7h-5.8v-10.9h5.6v1.2h-4.2v3.5h3.9v1.2h-3.9v3.7h4.4z"/><path d="m398.4 4.1h-3.1v9.6h-1.4v-9.6h-3.1v-1.3h7.7v1.3z"/></g></svg>