<svg enable-background="new 0 0 400 400" viewBox="0 0 400 400" xmlns="http://www.w3.org/2000/svg"><path d="m289.98 104.51c3.69 10.19 7.66 20.29 10.9 30.61.98 3.11.32 6.92-.28 10.28-.9 5.04 1.12 9.46 2.16 14.1 3.2 14.24 2.54 28.7 2.53 43.12 0 3.79 0 7.65.65 11.37.6 3.44-.32 5.29-3.69 6.03-.85.19-1.63.65-2.58 1.04-6.54-7.08-8.77-15.76-9.59-24.9-1.04-11.7-1.85-23.42-2.77-35.13-.09-1.2-.26-2.4-.36-3.27-8.48 0-16.63-.16-24.78.04-9.28.23-18.56.74-27.84 1.18-5.71.27-9.45 3.93-9.3 9.72.13 5.19 1.55 10.18 4.96 14.31 7 8.45 14.24 16.7 21.03 25.31 2.28 2.89 3.49 6.63 5.22 9.97 1.48 2.85 2.73 5.88 4.56 8.49 6.36 9.06 13.2 17.79 19.33 27 4.6 6.91 7.2 14.65 5.86 23.21-.05.31-.19.62-.34 1.12-3.44-.5-6.86-.89-10.23-1.56-.97-.19-1.91-1.11-2.62-1.91-9.85-11.17-19.72-22.32-29.41-33.63-1.69-1.97-2.73-4.6-3.71-7.06-1.52-3.84-4.13-6.57-7.88-8.74-2.74 4.9-3.28 10.09-2.6 15.45.73 5.76 1.9 11.48 2.41 17.26.37 4.19.64 8.58-.19 12.64-1.2 5.9.52 11.27 1.44 16.85 3.49 21.11 2.22 42.19-1.06 63.17-1.26 8.08-3.52 16-5.77 23.95-3.97-3.67-5.77-8.09-6.17-12.92-.94-11.26-1.73-22.54-2.36-33.82-.84-14.86-.98-29.78-2.34-44.59-1.16-12.68-3.52-25.25-5.52-37.84-1.22-7.66-2.12-15.25-.46-22.98 1.05-4.88-.58-9.27-3.74-13.51-4.53 4.62-8.27 9.77-10.68 15.58-3.25 7.82-5.56 16.02-8.59 23.94-5.23 13.67-10.77 27.22-16.02 40.88-1.51 3.94-2.05 8.28-3.76 12.11-1.88 4.24-4.18 8.43-7.04 12.06-4.19 5.32-11.09 6.71-18.45 4.09 3.39-9.74 6.4-19.65 10.3-29.2 3.25-7.95 7.59-15.44 11.32-23.2.7-1.45 1.21-3.2 1.12-4.76-.27-4.38.83-8.31 2.64-12.26 9.77-21.34 19.35-42.76 29.1-64.1 2.99-6.55 4.51-13.26 3.91-20.5-.25-2.96-1.44-4.93-4.27-5.61-3.24-.77-6.52-1.47-9.83-1.82-15.23-1.63-30.47-3.09-45.69-4.76-1.24-.14-2.36-1.44-4.05-2.54-5.22 5.41-12.18 4.31-19.22 3.18-4.08-.66-8.21-.96-12.61-1.46-1.75 5.38-1.86 10.75-1.53 16.23.2 3.2.16 6.48-.29 9.65-.45 3.15-2.53 5.37-5.9 6.85-8.27-26.91-7.05-54.46-7.74-81.83.3-.18.59-.36.89-.54.95 1.01 2.37 1.87 2.77 3.07 2.13 6.34 4 12.76 5.95 19.15.29.96.45 1.96.73 2.93 2.78 9.59 4.64 10.91 14.48 11.01 21.05.21 42.09.52 63.13.76 4.39.05 6.78-2.71 5.5-6.85-1.04-3.35-2.35-6.77-4.29-9.66-9.59-14.31-19.55-28.38-29.11-42.72-2.55-3.83-4.22-8.27-6.15-12.5-2.35-5.17-4.77-10.32-6.73-15.64-1.37-3.7-2.17-7.63-2.95-11.52-.41-2.04.84-3.04 2.91-3.64 12.67-3.64 25.63-5.24 38.76-5.58 13.87-.36 27.65-1.05 41.36-3.77 5.42-1.08 11.33.21 17.01.54 14.07.81 28.13 1.74 42.19 2.51 5.73.31 8.95 5.18 7.25 10.61-7.2 22.98-19.57 43.58-29.62 65.26-4.94 10.66-9.53 21.44-11.48 33.16-.38 2.28.26 3.36 2.34 3.86 3.47.83 6.91 2.08 10.43 2.41 8.02.74 16.08.99 24.11 1.53 2.48.17 4.29-.72 4.88-3.07 1.27-5.05 2.68-10.12 3.31-15.27.69-5.63.37-11.38.88-17.05.19-2.07 1.49-4.05 2.28-6.07.34.06.67.12.99.19zm-88.57 29.24c3.28-.64 4.33-2.42 4.11-5.34-.16-2.1.16-4.24.24-6.37.43-11.95.81-23.86-.85-35.82-1.39-10.01-3.33-20.12-.87-30.31.34-1.4.47-2.88.5-4.33.15-6.48-2.65-10.04-9.03-11.26-2.18-.42-4.46-.69-6.66-.55-9.14.6-18.28 1.29-27.4 2.13-5.06.46-10.09 1.28-15.09 1.93.62 7.84 2.56 12.41 7.2 18.93 8.3 11.65 16.6 23.3 24.59 35.16 7.93 11.78 15.48 23.81 23.26 35.83zm20.53-11.68c2.21-2.59 4.29-4.89 6.21-7.3 6.28-7.89 9.66-17.29 13.91-26.27 6.02-12.71 12.73-25.1 19.07-37.66 3.49-6.92 1.61-9.83-5.97-10.61-10.71-1.09-21.17.43-31.71 1.88-3.07.42-4.08 1.64-4.5 4.42-2.62 17.65-3.72 35.38-2.64 53.18.47 7.56 1.8 15.05 5.63 22.36z" fill="#010100"/><g fill="#fafbfa"><path d="m6.4 11.7c-1-.8-1.9-1.6-2.9-2.3l.6-.7c.9.7 1.9 1.4 2.9 2.2zm-2.1 8.3c.7-2.1 1.4-4.2 2-6.4.2.1.6.3 1 .4-.7 2.3-1.3 4.4-1.9 6.4zm3-12.8c-1.1-.9-2.1-1.7-2.9-2.4l.6-.7c1 .8 2 1.5 3 2.4zm1.4-1.3v-.9h10.2v.9c-.9 4.2-2.3 7.3-4.1 9.4 1.3 1.4 3.2 2.7 5.7 4-.2.2-.4.5-.7.9-2.5-1.4-4.4-2.7-5.7-4.2-1.4 1.5-3.5 3-6.1 4.4 0 0 0 0-.1-.1-.3-.4-.5-.7-.7-.8 2.7-1.3 4.7-2.8 6.2-4.2-1.8-2.2-3-5.3-3.7-9.4zm9.2 0h-7.1c.6 3.8 1.7 6.7 3.4 8.7 1.7-2 2.9-4.8 3.7-8.7z"/><path d="m31.6 3.6h.9v2.3h4.1v9.1h1.7v.9h-16.6v-.9h1.7v-9.1h4.1v-2.3h.9v2.3h3.1v-2.3zm-4 13.3.6.8c-1.9.9-3.8 1.9-5.8 2.8-.2-.3-.3-.6-.5-.9 2-.9 3.9-1.8 5.7-2.7zm-3.2-10.1v3.7h3.1v-3.7zm0 4.5v3.7h3.1v-3.7zm4.1-4.5v3.7h3.1v-3.7zm0 4.5v3.7h3.1v-3.7zm9.1 9.1c-2.1-1.1-4.1-2-5.8-2.7l.5-.8c2.2.9 4.1 1.8 5.8 2.6zm-1.9-13.6h-3.1v3.7h3.1zm-3.2 4.5v3.7h3.1v-3.7z"/></g></svg>