<svg enable-background="new 0 0 400 400" viewBox="0 0 400 400" xmlns="http://www.w3.org/2000/svg"><path d="m214.51 198.1c-6.72 7.35-4.66 18.74-12.33 25.3-.33-.08-.67-.17-1-.25.84-4.51 1.52-9.07 2.56-13.54 1.57-6.74 3.87-13.35 2.94-20.43-.21-1.62-.64-3.21-1.09-5.44-6.13 6.96-11.07 14.35-19.24 18.07-.28-.18-.56-.35-.85-.53.48-1.26.7-2.7 1.47-3.74 6.71-9.06 12.57-18.73 20.84-26.64 4.7-4.49 5-11.09 5.44-17.21.19-2.7-.3-5.58-1.08-8.2-2.98-10.07-6.22-20.06-9.31-30.09-.46-1.49-.92-3.04-.96-4.57-.03-1.06.66-2.13 1.03-3.2 1 .52 2.29.79 2.94 1.59 2.38 2.96 4.54 6.1 6.8 9.15.37.5.81.94 1.61 1.85-.14-12.4.2-24.1-4.23-35.49-4.69-12.04-7.56-24.77-13.47-36.37-.72-1.42-1.68-2.72-2.58-4.15-4.94 7.78-9.46 15.2-14.3 22.41-6.86 10.21-13.96 20.26-20.94 30.39-1.97 2.86-4.23 4.95-8.18 3.6-.69-3.13-.05-5.39 2.52-7.88 2.97-2.88 5.48-6.59 7.12-10.4 5.33-12.4 12.69-23.61 19.83-34.96 1.32-2.1 3.46-3.79 5.47-5.34 3.33-2.56 4.11-5.76 3.67-9.78-.23-2.14.59-4.39.93-6.58 2.28.67 5.45.63 6.67 2.16 2.87 3.57 4.82 7.87 7.1 11.9 1.41 2.49 2.72 5.03 4.08 7.55.68 1.26 1.55 2.46 1.99 3.8 4.29 12.81 8.74 25.58 12.65 38.52 1.74 5.73 2.28 11.82 3.53 17.72.46 2.19 1.39 4.27 2.25 6.86 6.17-5.46 6.55-14.19 14.01-18.37-.4 1.55-.58 2.61-.95 3.6-4.84 13.08-9.79 26.12-14.52 39.24-1.11 3.09-1.57 6.42-2.21 9.66-1.26 6.32-2.09 12.76-3.74 18.98-1.98 7.47-2.36 14.51.9 21.86 4.06 9.18 7.3 18.73 10.95 28.1 1.57 4.03 4.12 7.88 4.76 12.04 1.06 6.92 1 14.01 1.26 21.04.03.81-.9 1.65-1.67 2.99-4.66-7.52-7.59-14.96-9.72-22.7-2.91-10.57-5.84-21.12-11.67-30.57-.36-.58-.74-1.12-1.28-1.95z" fill="#010102"/><path d="m196.3 270.88c-1.5 4.52-2.94 9.06-4.53 13.55-1.04 2.93-2.25 5.81-3.53 8.65-.4.88-1.13 1.82-1.96 2.23-1.69.85-4.03 2.38-5.23 1.81-2.38-1.14-2.65-3.89-1.83-6.5 2.78-8.84 5.26-17.78 8.4-26.49 2.86-7.92 1.38-14.9-3.03-21.63-4.78-7.3-9.44-14.67-14.44-21.81-2.12-3.03-2.07-6.12-1.96-9.72 6.3 2.4 10.89 6.52 14.96 11.33.65.77 1.26 1.57 1.87 2.37 9.73 12.63 19.31 25.38 26.49 39.68 3.9 7.77 4.48 16.31 4.21 24.87-.32 10.26-.82 20.51-1.29 30.77-.04.98-.39 1.95-.64 2.92-1.31 5.04-2.46 10.14-4.07 15.08-.5 1.53-2.04 3.1-3.51 3.86-2.34 1.21-3.22 2.54-2.75 5.21.65 3.69.88 7.28-.69 11.09-1.07 2.6-.1 5.98-.44 8.97-.3 2.62-1.17 5.17-2.36 7.66-2.02-5.45-4.34-10.26-3.65-16.43 2.27-20.17 3.8-40.44 5.16-60.71.44-6.52-.29-13.16-1-19.69-.27-2.47-1.98-4.79-3.04-7.18-.38.04-.76.07-1.14.11z" fill="#010102"/><g fill="#fcfbfa"><path d="m385.2 377.6.6-.7c.6.4 1.3.9 1.9 1.5l-.6.7c-.8-.5-1.4-1-1.9-1.5zm.3 7.1c.6-1.4 1.1-2.9 1.5-4.5.3.1.6.3.9.4-.5 1.4-1 2.9-1.5 4.4zm.2-10.1.6-.6c.7.5 1.3 1.1 1.9 1.6l-.7.7c-.6-.6-1.2-1.2-1.8-1.7zm8.4-.8h.8v.9h1.8v.7h-1.8v1.8h-.8v-.3h-1.2v.9h3.3v2.6h-.8v-.4h-2.5c0 .3 0 .6-.1.8h3.4v.7h-3.5c0 .3-.1.6-.1.8h4v.7h-3.5c.7.9 1.9 1.3 3.6 1.5-.2.2-.4.5-.6.9-1.9-.3-3.2-1.1-3.8-2.3-.5 1.1-1.8 2-3.9 2.4-.2-.3-.4-.5-.6-.8 1.9-.4 3.1-.9 3.6-1.7h-3.2v-.7h3.5c.1-.2.1-.5.2-.8h-3.3v-.7h3.4c0-.2 0-.5 0-.8h-2.4v.3h-.8v-2.6h3.3v-.9h-1.2v.3h-.8v-1.8h-1.8v-.7h1.8v-.9h.8v.9h3.2zm-4.4 5.5h2.4c0-.3 0-.6 0-.9h-2.4zm1.2-3.1h3.2v-.8h-3.2zm4.4 2.2h-2.4v.9h2.5v-.9z"/><path d="m389.2 385.8h.9v1.5h1.9v-1.5h.9v1.5h2.7v6h1.1v.9h-11.3v-.9h1.1v-6h2.7zm.2 8.7.5.8c-1.2.6-2.5 1.3-4 1.9-.2-.3-.3-.6-.6-.8 1.6-.6 3-1.3 4.1-1.9zm-2-4.3h1.9v-2.1h-1.9zm0 3.1h1.9v-2.2h-1.9zm2.7-3.1h1.9v-2.1h-1.9zm0 3.1h1.9v-2.2h-1.9zm2.4 1.3c1.4.6 2.7 1.2 4.1 1.8l-.5.9c-1.5-.7-2.8-1.4-4.1-1.9zm2.2-6.5h-1.9v2.1h1.9zm-1.9 5.2h1.9v-2.2h-1.9z"/></g></svg>