<svg enable-background="new 0 0 400 400" viewBox="0 0 400 400" xmlns="http://www.w3.org/2000/svg"><path d="m374.8 390.4.4-.4c.7.5 1.3 1 1.8 1.4l-.5.5c-.5-.6-1.1-1.1-1.7-1.5zm1 7.3-.6-.3c.5-1.4 1.1-2.8 1.5-4.3.2.1.4.2.6.3-.5 1.3-1 2.8-1.5 4.3zm-.4-10.3.4-.4c.4.3 1 .8 1.7 1.4l-.5.5c-.4-.5-1-1-1.6-1.5zm2.5.3h1.7v-1h.6v1h3.5v-1h.6v1h1.8v.5h-1.8v1.4h-2v1h3.2v2h-3.2v.9h3.3v.5h-3.4c0 .3-.1.6-.1.9h4v.5h-3.7c.7.9 1.9 1.5 3.8 1.7-.1.2-.2.4-.3.6-2.1-.4-3.5-1.1-4-2.1-.4 1-1.8 1.7-4 2.2-.1-.2-.2-.4-.3-.6 2.1-.4 3.4-1 3.8-1.8h-3.4v-.5h3.6c.1-.3.1-.6.2-.9h-3.3v-.5h3.4c0-.3 0-.6 0-.9h-3.2v-2h3.3v-1h-2.1v-1.4h-1.7v-.5zm1.1 3.5v1h2.7c0-.3 0-.4 0-.4 0-.1 0-.2 0-.2 0-.1 0-.2 0-.3h-2.7zm1.2-3v.9h3.5v-.9zm4.7 3h-2.6v.6.4h2.6z" fill="#fbfcfa"/><path d="m393.6 386.7h.6v1.5h2.7v6.1h1.1v.6h-11v-.6h1.1v-6.1h2.7v-1.5h.6v1.5h2.1v-1.5zm-2.7 8.8.4.6c-1.2.6-2.5 1.3-3.8 1.9-.1-.2-.2-.4-.3-.6 1.2-.6 2.5-1.2 3.7-1.9zm-2.2-6.7v2.4h2.1v-2.4zm0 3v2.5h2.1v-2.5zm2.8-3v2.4h2.1v-2.4zm0 3v2.5h2.1v-2.5zm6 6.1c-1.4-.7-2.7-1.3-3.9-1.8l.3-.6c1.5.6 2.7 1.2 3.9 1.7zm-1.2-9.1h-2.1v2.4h2.1zm-2.1 3v2.5h2.1v-2.5z" fill="#fbfcfa"/><path d="m195.56 374.67c-1.64-10.33-3.29-20.69-4.93-31.06-.09-.55.01-1.18-.22-1.65-5.24-10.47-3.38-21.94-4.38-32.96-.66-7.3.13-14.73.27-22.1.02-1.23.53-2.69.05-3.65-3.1-6.15-.34-12.26-.23-18.39.1-5.32-.29-10.68-.87-15.98-.55-5.11-3.62-8.97-8.38-10.41-5.71-1.73-11.71-2.56-17.63-3.44-.93-.14-2.69 1.3-3.11 2.38-2.56 6.53-5.11 13.08-7.17 19.78-3.35 10.89-6.2 21.93-9.52 32.82-.79 2.59-2.63 4.87-3.99 7.29-.39-.15-.78-.3-1.16-.45-.07-.92-.21-1.85-.2-2.77.26-14.43.52-28.87.85-43.3.04-1.65.43-3.32.89-4.91.74-2.57 1.4-5.23 2.57-7.61 4.97-10.12 5.06-20.44 2.28-31.19-1.56-6.04-2.1-12.34-3.05-18.53-.2-1.29-.19-2.61-.29-4.1 5.54-.97 10.82-1.81 16.05-2.89 1.27-.26 2.9-1.02 3.49-2.05 6.06-10.57 15.01-17.81 25.82-23 3.74-1.8 5.33-4.88 4.46-8.81-.79-3.56-2.09-7.03-3.43-10.45-.33-.84-1.58-1.5-2.55-1.89-3.21-1.29-6.4-2.86-9.76-3.53-9.61-1.91-15.05-8.69-19.72-16.33-8.05-13.15-11.38-27.36-8.79-42.73.23-1.36.87-2.65 1.32-3.98.51-.01 1.02-.03 1.53-.04 3.54 9.12 6.97 18.28 10.66 27.34 2.26 5.55 4.34 11.32 7.58 16.28 3.94 6.04 10.54 8.42 17.58 9.14.85.09 2.21-.87 2.66-1.7 1.83-3.33 3.31-6.84 5.09-10.19.89-1.67.46-2.75-.6-4.18-17.1-23.02-23.07-48.73-18.34-76.96.16-.95.51-1.88 1.12-4.04 2.48 3.09 5.11 5.17 6.15 7.87 2.86 7.47 5.01 15.22 7.54 22.82 2.11 6.33 4.07 12.75 6.71 18.87 1.16 2.69 3.84 4.73 6.3 7.62 1.28-2.36 2.3-3.81 2.91-5.41 3.48-9.07 6.74-18.23 10.32-27.26 2.18-5.49 4.63-10.88 7.3-16.15 1.16-2.28 3.17-4.13 5.36-6.89 2.61 10.2 4.72 19.29-.77 28.16-3.72 6-5.34 12.62-6.85 19.46-2.25 10.15-6.04 19.82-11.01 29.05-1.79 3.32-2.94 7.26-3.28 11.02-.43 4.79.33 4.67 5.03 5.18 4.94.53 7.88-1.64 10.53-5.38 8.01-11.34 12.96-23.67 13.02-37.73.01-2.46.07-4.93.31-7.38.42-4.33 2.62-6.62 6.79-7.63 2.1-.51 3.21.01 4.05 2.13 2.85 7.2 3.56 14.78 2.06 22.12-2.16 10.58-5.13 21.03-8.41 31.32-1.24 3.89-4.07 7.37-6.58 10.72-2.61 3.48-5.94 6.43-8.53 9.92-2.68 3.62-6.18 4.91-10.4 4.98-2.69.04-5.37.01-8.06.12-3.57.15-4.86 1.76-4 5.26.9 3.68 2.33 6.88 6.72 7.82 3.15.68 6.1 2.24 9.23 3.02 12.18 3.05 20.05 11.3 26.22 21.54 4.07 6.75 7.15 13.95 7.54 21.97.07 1.34-.52 3.05-1.41 4.04-3.06 3.41-4.49 7.3-3.59 11.73 2.16 10.62 4.07 21.32 6.95 31.74 4.16 15.09 5.88 30.5 7.28 45.97 1.34 14.82 2.26 29.67 3.35 44.51.04.54.01 1.09.01 1.57-5.17 2.01-5.66 2.18-7.44-2.72-4.64-12.8-8.91-25.73-13.11-38.68-1.72-5.31-3.31-10.72-4.19-16.21-.58-3.62-.25-7.54.51-11.16.58-2.79.92-5.23-.6-7.69-2.58-4.19-2.88-8.76-2.81-13.56.06-3.93-.37-7.98-1.31-11.79-.67-2.7-2.76-3.84-5.98-2.52-4.95 2.03-10.18 3.41-15.19 5.31-1.28.49-2.61 1.7-3.23 2.92-2.85 5.62-2.81 11.65-1.98 17.71 1.22 8.85 3.06 17.66 3.63 26.55 1.17 18.1-2.28 35.87-4.71 53.71-.9 6.58-.27 13.36-.35 20.05-.02 1.9.12 3.82-.18 5.68-.66 3.96-3.34 5.95-7.8 5.94zm-43.71-182.32c-.33.02-.66.04-.98.07 1.07 3.22 1.95 6.52 3.33 9.59.35.79 2.49 1.5 3.44 1.18 8.35-2.86 16.63-5.9 24.88-9.06 1.06-.4 2.15-1.6 2.56-2.68 1.8-4.77.56-8.01-3.94-12.07-1.95-1.76-3.68-2.27-6.26-1.15-6.25 2.71-12.59 5.23-19 7.53-3.28 1.16-5.5 2.52-4.03 6.59zm52.88 19.72c1.1 3.22 2.35 6.1 3.04 9.1.65 2.8 2.14 3.36 4.75 3.19 7.48-.49 11.85-5.64 16.32-10.62.39-.43.2-1.68-.1-2.39-1.37-3.27-5.96-5.3-10.33-4.08-4.57 1.27-8.98 3.12-13.68 4.8zm-40.49.87c3.95 7.95 10.64 10.75 18.72 10.92 3.78.08 4.6-.84 4.19-4.49-.23-2.1-.61-4.22-1.26-6.22-1-3.06-5.31-6.36-7.51-5.6-4.83 1.65-9.54 3.62-14.14 5.39zm43.64-22.28c2.37.36 4.23.65 6.09.91 1.95.27 3.9.51 5.78.76 2.53-7.64-1.75-12.21-10.86-11.75-.32 3.22-.65 6.5-1.01 10.08z" fill="#010101"/></svg>