<svg enable-background="new 0 0 400 400" viewBox="0 0 400 400" xmlns="http://www.w3.org/2000/svg"><path d="m374.8 390.4.4-.4c.7.5 1.3 1 1.8 1.4l-.5.5c-.5-.6-1.1-1.1-1.7-1.5zm1 7.3-.6-.3c.5-1.4 1.1-2.8 1.5-4.3.2.1.4.2.6.3-.5 1.3-1 2.8-1.5 4.3zm-.4-10.3.4-.4c.4.3 1 .8 1.7 1.4l-.5.5c-.4-.5-1-1-1.6-1.5zm2.5.3h1.7v-1h.6v1h3.5v-1h.6v1h1.8v.5h-1.8v1.4h-2v1h3.2v2h-3.2v.9h3.3v.5h-3.4c0 .3-.1.6-.1.9h4v.5h-3.7c.7.9 1.9 1.5 3.8 1.7-.1.2-.2.4-.3.6-2.1-.4-3.5-1.1-4-2.1-.4 1-1.8 1.7-4 2.2-.1-.2-.2-.4-.3-.6 2.1-.4 3.4-1 3.8-1.8h-3.4v-.5h3.6c.1-.3.1-.6.2-.9h-3.3v-.5h3.4c0-.3 0-.6 0-.9h-3.2v-2h3.3v-1h-2.1v-1.4h-1.7v-.5zm1.1 3.5v1h2.7c0-.3 0-.4 0-.4 0-.1 0-.2 0-.2 0-.1 0-.2 0-.3h-2.7zm1.2-3v.9h3.5v-.9zm4.7 3h-2.6v.6.4h2.6z" fill="#fbfcfa"/><path d="m393.6 386.7h.6v1.5h2.7v6.1h1.1v.6h-11v-.6h1.1v-6.1h2.7v-1.5h.6v1.5h2.1v-1.5zm-2.7 8.8.4.6c-1.2.6-2.5 1.3-3.8 1.9-.1-.2-.2-.4-.3-.6 1.2-.6 2.5-1.2 3.7-1.9zm-2.2-6.7v2.4h2.1v-2.4zm0 3v2.5h2.1v-2.5zm2.8-3v2.4h2.1v-2.4zm0 3v2.5h2.1v-2.5zm6 6.1c-1.4-.7-2.7-1.3-3.9-1.8l.3-.6c1.5.6 2.7 1.2 3.9 1.7zm-1.2-9.1h-2.1v2.4h2.1zm-2.1 3v2.5h2.1v-2.5z" fill="#fbfcfa"/><path d="m173.19 277.97c-.4 5.26-1.17 9.55-.94 13.79.31 5.63.81 11.12-2.02 16.35-.42.77-.41 2.33.1 2.95 2.17 2.68 2.5 5.7 2.06 8.88-.77 5.56-1.81 11.05-6.77 15.42 5.61 2.26 3.42 6.08 2.92 9.92-.73 5.63-.76 11.36-.95 17.05-.13 3.79-.02 7.58-.02 11.18-5.6 1.81-6.51 1.63-7.44-3.51-1.03-5.69-1.1-11.55-1.73-17.32-.68-6.23-1.76-12.42-2.23-18.65-.26-3.48.37-7.02.55-10.53.12-2.51.87-5.28.08-7.48-2.91-8-1.44-15.89-.21-23.83.67-4.3-.51-5.86-4.82-6.54-6.6-1.04-13.19-2.22-19.79-3.24-1.16-.18-2.44.03-3.59.33-2.71.69-5.4 1.44-8.04 2.35-4.02 1.38-7.85 3.02-11.76-.63-1.13-1.06-3.37-.99-5.13-1.31-4.82-.91-5.64-1.67-6.78-6.8.76-.29 1.54-.65 2.36-.89 5.69-1.65 11.36-3.38 17.1-4.83 1.48-.37 3.19.11 4.79.26 1.51.15 3.04.69 4.51.53 6.63-.72 13.23-1.71 19.85-2.45 5.36-.6 7.32-2.67 6.93-8-.44-6.03-1.02-12.04-1.52-18.06-.07-.88-.41-2.13.02-2.59 3.1-3.26 1.13-6.33.31-9.76-.94-3.94-.84-8.15-1.05-12.25-.23-4.33.61-8.95-.63-12.95-3.11-10.01-6.97-11.86-16.12-10.24-8.11 1.44-16.06 3.82-24.05 5.92-3.91 1.03-8.4-1.47-7.86-5.44 1.72-12.67-2.55-24.89-2.18-37.41.03-.97-.12-2.42.43-2.84 3.25-2.46 1.57-5.19 1.21-8.23-1.01-8.53-1.98-17.15-1.7-25.7.15-4.69 2.42-9.51 4.53-13.88 2.61-5.38 6.05-10.36 9.18-15.6 2.67 2.27 4.98 4.37 7.43 6.28 5.83 4.55 11.96 3.55 17.93.45 1.05-.55 1.64-2.53 1.9-3.95.64-3.47 1.77-6.27 5.43-7.71 2.46-.97 2.64-3.69 1.51-5.46-4.59-7.16-3.97-15.21-4.46-23.08-.13-2 .08-4.03.07-6.04-.03-3.86.91-7.13 3.16-10.56 2.36-3.6 3.21-8.25 4.37-12.54.32-1.17-.61-2.67-.97-4.04 5.65.65 8.32 4.17 8.48 11.55.29 13.2.45 26.41.65 39.61.06 4.03.37 8.08.04 12.08-.42 5.17 3.17 9.37 9.64 9.55 6.33.17 12.66.7 18.98.64 2.2-.02 4.4-1.31 6.83-2.09.59.75 1.32 1.68 2.5 3.19.84-1.08 1.48-2.11 2.32-2.95 3.08-3.11 6.46-4.55 10.87-2.41 1.61.78 3.7.89 5.54.8 3.22-.16 5.59-1.51 6.52-5.06.82-3.11 2.16-6.11 3.44-9.08 1.55-3.6 1.02-6.9-.93-10.16-3.37-5.63-3.09-11.68-2.17-17.9.65-4.37.96-8.82.94-13.23-.02-4.24 1.2-5.37 5.16-3.71 7.07 2.96 9.71 9.38 11.54 15.97 2.91 10.5 2.4 21.24 1.21 32-.37 3.32.01 6.89.86 10.12.78 2.96 3.24 4.46 6.59 3.45 3.27-.99 6.24-.43 9.29 1.22 4.91 2.65 10.02 4.91 14.33 6.98 2.59-2.09 4.55-4.5 7.08-5.53 4.19-1.7 3.65 3.49 6.14 4.97 2.02-2.75 5.04-2.99 7.87-1.74 1.56.68 2.56 2.66 4.46 4.79-6.41.95-11.89 1.29-17.1 2.67-5.58 1.48-9.64-1.56-14.54-3.73-.33 2.22-.62 4.16-1 6.72-2.51-.26-5-.61-7.49-.76-2.86-.18-5.84-.73-8.56-.14-4.11.9-6.41 4.11-7.72 8.09-2.35 7.19-2.3 14.56-1.68 21.94.47 5.71.86 11.37-.98 16.92-2.08 6.27.7 12.12 1.58 18.13.09.63.83 1.49 1.44 1.68 3.37 1.02 6.79 2.62 10.19 2.6 6.15-.04 12.12-.44 18.23 1.41 3.46 1.05 7.54-.08 11.32.13 1.57.09 3.13 1.02 4.63 1.72 1.73.81 3.39 1.79 4.72 2.51 1.43 3.86 2.89 7.64 4.2 11.47.33.97.52 2.26.15 3.15-4.09 9.71-3.89 19.96-3.25 30.08.82 13.04-1.11 25.33-7.24 36.9-.16.29-.24.62-.37.94-2.63 6.61-3.83 6.66-10.04 3.37-4.78-2.53-10.19-3.9-15.35-5.7-.47-.16-1.22.21-1.75.5-4.37 2.36-8.59 5.09-13.14 7.04-2.89 1.23-3.99 2.77-3.7 5.74.43 4.34.48 8.73 1.13 13.03 1.49 9.87-1.57 19.04-3.8 28.37-.5 2.07-.37 4.33-.3 6.49.14 4.56.28 9.13.69 13.67.69 7.65-1.09 14.79-3.89 21.81-.43 1.07-.4 2.48-.14 3.64.58 2.59-.51 4.02-3.55 5.27-.27-2.75-.86-5.21-.68-7.62.36-4.77.66-9.38-2.61-13.43-.55-.68-.69-1.88-.67-2.83.28-10.76-.44-21.34-2.92-31.94-1.04-4.44.86-9.65 1.85-14.43.43-2.06.66-3.53-.5-5.55-1.82-3.16-2.9-6.75-4.29-10.15-.67-1.65-1.27-3.33-2-4.96-1.21-2.74-3.08-4.03-6.34-3.59-2.37.32-4.85-.38-7.28-.36-3.66.03-7.47-.3-10.95.58-6.65 1.66-13.02 2.07-20.45-1.76zm9.64-91.42c2.53-3.39 4.95-4.79 8.45-1.71.84.74 3.17-.19 4.81-.37 1.22-.13 2.87-.88 3.57-.35 2.53 1.89 4.98 1.3 7.6.58 3.77-1.04 7.56-1.98 11.35-2.96 5.46-1.41 7.23-4.12 5.89-9.65-.87-3.63-.67-6.75 2-9.67.57-.63.22-3.33-.27-3.5-3.46-1.23-3.17-3.59-2.28-6.22 1.23-3.65 1.42-7.13-1.09-10.39-2.07-2.67-2.05-5.63-1.54-8.88.74-4.73 1.38-9.54 1.34-14.31-.04-5.57-2.33-7.39-7.76-7.63-7.03-.3-14.06-.72-21.09-1.03-2-.09-4.35-.66-5.94.16-4.78 2.46-8.76.72-12.93-1.34-1.3-.64-3.07-1.22-4.36-.85-2.77.79-5.38 2.15-8 3.4-.61.29-1.36 1.02-1.42 1.62-.64 6.32-1.82 12.67-1.58 18.97.5 13.17 1.64 26.33 2.82 39.46.28 3.12 1.64 6.19 2.77 9.18.33.88 1.52 1.92 2.42 2.04 4.08.51 8.26 2.9 12.2-.59 1.02 1.37 1.88 2.51 3.04 4.04zm31.1 9.53c-14.79 1.01-28.4 1.95-42.01 2.85-3.85.25-5.86 2.13-5.86 6.02 0 1.64.8 3.29.78 4.92-.03 2.25.26 5.09-.94 6.63-2.27 2.93-1.13 4.86.91 6.56 2.93 2.45 3.9 5.52 4.2 9.13.83 10.26 1.78 20.51 2.7 30.75.28 3.08 1.59 4.07 4.42 3.01 2.37-.89 4.25-.58 6.22.97.7.55 2.13.81 2.93.48 9.04-3.7 18.62-3.42 28.08-3.93 2.55-.14 4.17-.96 4.55-3.35 1.04-6.6 2.35-13.2 2.7-19.85.68-13.06.71-26.15 1.19-39.23.1-2.89-1.15-4.24-3.69-4.57-2.43-.33-4.89-.32-6.18-.39zm24.95 64.51c2.04.16 4.03.53 5.99.42 4.55-.24 8.33.59 9.72 5.67.02.06.38.03 1.2.07-.47-1.32-.87-2.42-1.59-4.43 2.91 0 5.49-.09 8.07.02 3.76.17 6.01-1.03 7.28-4.53 1.34-3.67 2.79-7.36 3.51-11.17 2.89-15.25 5.51-30.56 8.26-45.84.81-4.51-.51-6.71-4.97-7.67-2.84-.61-5.71-1.19-8.59-1.38-1.75-.12-3.56.47-5.34.82-3.13.61-6.22 1.5-9.37 1.85-3.52.39-7.11.21-10.65.5-2.11.17-3.13 1.3-3.13 3.77.01 10.96-.29 21.92-.38 32.88-.07 9.59-.01 19.18-.01 29.02zm-125.8-150.54c-2.48 4.35-2.39 4.53 1.85 6.21.55.22 1.13 1.01 1.25 1.62 1.93 9.96 3.66 19.93-3.6 28.02 1.72 3.8 3.87 7.15 4.73 10.8 1.19 5.04-.57 9.93-2.62 14.61-1.82 4.13-1.79 8.18.38 12.26 1.15 2.15 2.51 2.92 5.04 2.72 9.06-.71 18.14-2.98 27.23-.19.08.02.2-.09 1.02-.48 0-7.67-.06-15.7.02-23.72.04-4.22-.57-8.77.78-12.58 1.42-4.01 1.38-7.43.16-11.18-.24-.74-.34-1.53-.52-2.29-1.51-6.52-2.96-13.06-4.55-19.56-.66-2.71-2.19-4.3-5.38-4.29-3.34.01-6.73-.35-10-1.03-5.21-1.08-9.64-.58-12.57 4.47-.07.12-.41.1-.73.16-.8-1.79-1.61-3.59-2.49-5.55zm-6.09 82.48c-.85 1.16-1.53 2.09-2.13 2.91 2.21 3.56 4.33 1.29 6.98.5-1.8-1.27-3.22-2.26-4.85-3.41zm47.73 87.54c-6.12-3.38-7.07-3.32-8.45.46 2.64-.15 5.1-.28 8.45-.46zm63.25-179.31c-3.67-2.61-4.73.15-6.32 1.52.14.36.27.72.41 1.08 1.72-.77 3.46-1.53 5.91-2.6z" fill="#010101"/></svg>