<svg enable-background="new 0 0 400 400" viewBox="0 0 400 400" xmlns="http://www.w3.org/2000/svg"><path d="m374.8 390.4.4-.4c.7.5 1.3 1 1.8 1.4l-.5.5c-.5-.6-1.1-1.1-1.7-1.5zm1 7.3-.6-.3c.5-1.4 1.1-2.8 1.5-4.3.2.1.4.2.6.3-.5 1.3-1 2.8-1.5 4.3zm-.4-10.3.4-.4c.4.3 1 .8 1.7 1.4l-.5.5c-.4-.5-1-1-1.6-1.5zm2.5.3h1.7v-1h.6v1h3.5v-1h.6v1h1.8v.5h-1.8v1.4h-2v1h3.2v2h-3.2v.9h3.3v.5h-3.4c0 .3-.1.6-.1.9h4v.5h-3.7c.7.9 1.9 1.5 3.8 1.7-.1.2-.2.4-.3.6-2.1-.4-3.5-1.1-4-2.1-.4 1-1.8 1.7-4 2.2-.1-.2-.2-.4-.3-.6 2.1-.4 3.4-1 3.8-1.8h-3.4v-.5h3.6c.1-.3.1-.6.2-.9h-3.3v-.5h3.4c0-.3 0-.6 0-.9h-3.2v-2h3.3v-1h-2.1v-1.4h-1.7v-.5zm1.1 3.5v1h2.7c0-.3 0-.4 0-.4 0-.1 0-.2 0-.2 0-.1 0-.2 0-.3h-2.7zm1.2-3v.9h3.5v-.9zm4.7 3h-2.6v.6.4h2.6z" fill="#fbfcfa"/><path d="m393.6 386.7h.6v1.5h2.7v6.1h1.1v.6h-11v-.6h1.1v-6.1h2.7v-1.5h.6v1.5h2.1v-1.5zm-2.7 8.8.4.6c-1.2.6-2.5 1.3-3.8 1.9-.1-.2-.2-.4-.3-.6 1.2-.6 2.5-1.2 3.7-1.9zm-2.2-6.7v2.4h2.1v-2.4zm0 3v2.5h2.1v-2.5zm2.8-3v2.4h2.1v-2.4zm0 3v2.5h2.1v-2.5zm6 6.1c-1.4-.7-2.7-1.3-3.9-1.8l.3-.6c1.5.6 2.7 1.2 3.9 1.7zm-1.2-9.1h-2.1v2.4h2.1zm-2.1 3v2.5h2.1v-2.5z" fill="#fbfcfa"/><g fill="#010101"><path d="m195.28 374.47c.64-5.32 1.27-10.64 1.92-15.96.07-.54.12-1.25.46-1.56 3.91-3.5 4.89-8.31 6.31-13.04.7-2.35 2.37-4.55 4.01-6.47 5.6-6.6 9.96-13.67 10.83-22.59.2-2.02 1.59-4.2 3.02-5.76 4.17-4.52 5.85-9.87 6.31-15.81.17-2.22.84-4.41.96-6.63.25-4.39 1.27-8.08 6.29-9.21.65-.15 1.11-1.04 1.71-1.53 1.32-1.1 2.67-2.17 4.25-3.46-5.12-5.17-4.58-12.36-4.15-19.53.09-1.45-.03-2.92.14-4.36.63-5.05-.83-9.37-3.94-13.4-1.52-1.97-2.5-4.47-3.3-6.87-3.15-9.43-6.08-18.93-9.2-28.36-2.42-7.33-1.85-14.47.64-21.68 1.88-5.46 3.35-11.07 5.04-16.6.25-.83.52-1.75 1.07-2.37 11.77-13.13 12.55-26.83 3.81-42.18-4.88-8.56-7.83-18.25-11.31-27.56-2.04-5.45-4.96-10.07-8.97-14.31-4.05-4.28-7.41-9.2-11.06-13.86-.9-1.14-1.62-2.43-2.59-3.5-4.08-4.5-6.45-4.66-11.1-.86-3.04 2.47-5.95 5.12-9.14 7.38-6.23 4.41-11.28 9.75-14.39 16.82-.47 1.08-1.35 2.07-2.27 2.84-5.49 4.6-11.03 9.13-16.57 13.67-.49.4-1.06.69-1.92 1.26 1.13-8.31.77-16.55 6.18-23.27.75-.93 1.52-2.08 2.54-2.5 3.92-1.61 6.2-4.73 8.76-7.9 3.48-4.32 7.87-7.91 11.67-12 1.17-1.26 2.16-3.06 2.38-4.73.34-2.55.98-4.4 3.6-5.36 4.64-1.7 8.19-4.92 11.38-8.59 1.54-1.77 3.15-3.49 4.8-5.16 4.62-4.68 5.78-4.8 10.36-.03 2.06 2.14 3.69 4.76 5.19 7.36 4.14 7.15 8.1 14.4 12.13 21.61.32.58.93 1.23.84 1.77-.66 4.34 2.64 6.87 4.39 10.13 2.03 3.79 3.77 7.74 5.61 11.64 1.41 3 2.75 6.03 4.17 9.02 1.62 3.4 3.56 6.67 4.91 10.18 4.77 12.39 9.31 24.87 14.01 37.29 1.78 4.7 2.01 9.15-.2 13.91-4.54 9.74-8.95 19.5-15.95 27.83-1.27 1.51-2.06 3.44-2.95 5.23-1.44 2.9-1.16 5.52.37 8.55 1.93 3.83 3.35 8.04 4.25 12.24 2.13 9.89 5.18 19.34 10.07 28.26 4.76 8.69 4.1 18.41 4.18 27.88.02 2.73-1.37 5.15-4.2 6.36-1.21.52-2.33 1.27-3.79 2.09.98 1.06 2.08 1.79 2.5 2.81.73 1.78 1.83 3.97 1.35 5.56-1.32 4.44-3.38 8.67-5.13 12.98-.88 2.17-1.69 4.37-2.64 6.5-6.66 14.86-12.7 30.05-20.28 44.43-4.75 9.01-11.64 16.93-17.96 25.03-2.24 2.87-5.64 4.85-8.51 7.23-.3-.29-.59-.57-.89-.86z"/><path d="m137.51 139.57c.2-3.69.41-7.36.61-11.02.01-.22-.01-.52.12-.65 4.75-4.61 8.04-10.77 14.48-13.57.61-.27 1.4-.31 1.86-.72 6.53-5.92 13.61-11.38 19.37-17.99 6.58-7.55 11.99-16.13 18.5-25.08 2.5 2.3 5.18 4.11 6.99 6.57 3.97 5.39 7.78 10.94 8.86 17.83.13.85.93 1.86 1.7 2.29 4.77 2.64 5.48 7.16 6.09 11.96.48 3.81.79 7.99 2.59 11.22 4.04 7.26 3.71 14.78 3.09 22.51-.77 9.65-5.9 17.19-11.77 24.35-3.19 3.89-6.41 7.78-9.89 11.41-6.71 7.02-6.38 14.88-2.91 23.02 2.14 5.03 4.72 9.88 7.28 14.72.81 1.54 2.04 2.94 3.32 4.14 7.64 7.14 11.92 16.41 16.07 25.68 1.09 2.44 1.25 5.95.38 8.47-2.02 5.85-4.9 11.41-7.5 17.05-.51 1.1-1.58 1.97-1.98 3.09-4.39 12.21-13.08 21.44-21.25 31.07-3.9 4.6-7.49 9.47-11.02 14.37-3.01 4.17-6.75 5.97-12.54 4.49.88-2.48 1.37-5.01 2.61-7.1 2.8-4.7 5.84-9.28 9.06-13.71 1.45-1.99 3.59-3.47 5.34-5.25.82-.84 1.7-1.76 2.13-2.82 4.33-10.67 8.59-21.35 15.15-30.93 2.37-3.46 2.73-7.51 2.31-11.61-.08-.74-.23-1.77-.73-2.11-3.06-2.11-2.76-5.58-3.91-8.51-1.81-4.62-4.28-9.03-6.9-13.26-2.26-3.65-5.06-6.95-3.71-10.7-1.57-1.78-3.08-2.77-3.5-4.09-2.37-7.56-4.93-15.12-6.46-22.87-.67-3.38.85-7.22 1.59-10.81.12-.6 1.38-.92 2.04-1.45 1.61-1.3 4.06-2.35 4.61-4.02 3.21-9.78 9.66-17.61 15.23-25.92 3.2-4.77 3.81-9.63 2.94-14.98-.61-3.75-1.2-7.5-1.87-11.23-.15-.85-.43-1.74-.89-2.46-3.09-4.92-6.22-9.82-9.39-14.69-2.56-3.92-6.16-6-10.91-6.18-1.8-.07-3 .38-3.58 2.19-1.16 3.58-3.73 5.61-7.24 6.75-.98.32-1.89 1.13-2.6 1.92-2.27 2.52-4.34 5.23-6.66 7.7-3.5 3.72-7.26 7.19-10.72 10.95-3.81 4.14-7.56 8.29-13.26 9.84-.64.18-1.3.3-1.96.38-.3.01-.62-.13-1.17-.24z"/></g></svg>