<svg enable-background="new 0 0 400 400" viewBox="0 0 400 400" xmlns="http://www.w3.org/2000/svg"><path d="m222.45 75.86c-4.72-5.83-1.36-11.6 8.83-16.43 4.29 7.1 5.91 14.67 2.46 22.4-5.18 11.62-10.77 23.06-16.49 34.43-2.9 5.76-2.54 8.69 2.71 12.44 1.9 1.36 3.82 2.7 6.27 4.44 2.3-5.51 4.28-10.83 6.75-15.92 1.53-3.16 3.43-6.31 5.82-8.83 2.62-2.76 4.35-2.16 5.92 1.32 3.58 7.94 3.26 16.22 1.27 24.35-2.9 11.82-6.29 23.52-9.61 35.24-.47 1.64-1.78 3.03-2.58 4.6-1.76 3.43-3.64 6.82-5.08 10.39-.74 1.84.28 3.31 2.4 3.98 6.81 2.15 13.6 4.39 20.37 6.66 2.54.85 5.12 1.67 7.47 2.9 1.73.91 3.38 2.26 4.58 3.8 2.42 3.09 2.13 5.23-1.48 6.44-3.92 1.31-8.29 2.26-12.34 1.92-6.53-.56-12.97-2.29-19.44-3.56-.75-.15-1.51-.43-2.16-.82-7.37-4.41-18.2-2.39-23.71 4.54-.54.68-.68 1.84-.66 2.77.25 11.86.55 23.72.88 35.58.03.95.16 2.13.73 2.79 2.73 3.18 2.88 6.79 1.68 10.43-2.05 6.21-1.61 12 2.03 17.5 4.8 7.23 4.22 15.62 4.71 23.67.34 5.57 1.19 10.89 3.68 15.85 3.12 6.21 2.78 13.05 3.87 19.63.25 1.54.55 3.11.53 4.66-.08 7.96 4.77 12.63 11.17 15.72 5.6 2.71 11.53 4.87 17.51 6.62 3.09.9 6.6.39 9.91.51.22.01.45-.17.65-.13 1.99.38 4.52.2 5.77 1.38.98.93.37 3.54.47 5.54-14.54.81-28.37 1.81-42.22 2.18-3.12.08-6.29-2.06-9.47-3.04-1.09-.34-2.61-.76-3.42-.28-7.94 4.65-16.38 2.67-24.58 1.71-10.99-1.28-21.86-3.02-33.05-2.23-4.17.29-8.51-2.09-12.81-3.05-2.62-.59-5.39-1.32-7.99-1.05-4.55.48-6.07-.07-7.38-4.54-.62-2.1-.87-4.31-1.38-6.94 5.76-.47 11.09-.78 16.39-1.37 3.42-.38 6.83-1.06 10.19-1.83 2.07-.47 3.25-1.82 2.75-4.21-.89-4.23.25-8.11 1.96-11.99 2.53-5.72 4.82-11.55 7.08-17.39.55-1.41 1.03-3.1.77-4.52-1.68-9.2.67-17.95 2.31-26.87 1.62-8.84 5.04-16.87 9.18-24.68 1.89-3.57 2.91-7.23 2.69-11.24-.54-9.73 2.56-18.51 7.08-26.89 3.3-6.14 4.36-12.58 3.39-19.47-.26-1.85-.99-2.65-2.73-3.17-7.6-2.25-15.33-2.92-23.21-2.47-2.34.13-4.7.21-7.04.12-7.26-.29-11.33-4.34-11.71-11.56-.08-1.45-.01-2.9-.01-4.85 4.45.27 8.74.66 13.04.76 7.57.19 15.15.23 22.73.27.98 0 1.98-.37 2.94-.66 7.37-2.22 9.7-5.75 8.08-13.26-1.3-6.04-1.22-11.97-.17-17.97.64-3.63 1.71-7.25 1.84-10.9.16-4.3-.42-8.64-.86-12.94-.09-.87-.93-1.7-1.52-2.47-2.35-3.05-5.16-5.83-7.05-9.14-6.41-11.25-11.29-23.08-12.47-36.17-1.51-16.68.79-32.83 7.02-48.33 1-2.49 3.72-4.33 5.77-6.33.3-.29 1.47.01 2.04.36 2.91 1.78 3.88 4.56 3.51 7.79-1.32 11.64-2.6 23.29-4.14 34.91-1.43 10.86 1.33 20.63 7.31 29.56 1.12 1.67 3.01 3.06 4.85 3.96 3.48 1.69 5.8.67 7.52-2.73.4-.8.82-1.59 1.21-2.39 3.99-8.3 7.97-16.59 16.67-21.5zm-35.66 194.54c-.32.52-.61.99-.88 1.46-6.51 11.18-8.73 23.56-10.19 36.18-1.09 9.38-3.74 18.25-10.43 25.27-4.51 4.73-5.24 10.71-6.02 16.59-.48 3.65 1.02 4.77 4.85 5.19 5.33.59 10.66 1.27 16.01 1.69 4.89.39 9.82.87 14.69.62 7.99-.41 9.44-2.32 9.86-10.17.55-10.1-2.52-19.37-5.76-28.71-4.09-11.83-8.02-23.77-6.21-36.63.76-5.23-1.64-8.77-5.92-11.49zm21.42-98.97c3.1-2.51 5.94-4.6 8.54-6.97 1.88-1.71 2.59-6.57.94-7.64-1.9-1.23-4.43-2.06-6.68-2.04-2.21.02-4.62 4.29-4.31 6.61.43 3.16.94 6.31 1.51 10.04z" fill="#010100"/><g fill="#fafbfa"><path d="m6.4 11.7c-1-.8-1.9-1.6-2.9-2.3l.6-.7c.9.7 1.9 1.4 2.9 2.2zm-2.1 8.3c.7-2.1 1.4-4.2 2-6.4.2.1.6.3 1 .4-.7 2.3-1.3 4.4-1.9 6.4zm3-12.8c-1.1-.9-2.1-1.7-2.9-2.4l.6-.7c1 .8 2 1.5 3 2.4zm1.4-1.3v-.9h10.2v.9c-.9 4.2-2.3 7.3-4.1 9.4 1.3 1.4 3.2 2.7 5.7 4-.2.2-.4.5-.7.9-2.5-1.4-4.4-2.7-5.7-4.2-1.4 1.5-3.5 3-6.1 4.4 0 0 0 0-.1-.1-.3-.4-.5-.7-.7-.8 2.7-1.3 4.7-2.8 6.2-4.2-1.8-2.2-3-5.3-3.7-9.4zm9.2 0h-7.1c.6 3.8 1.7 6.7 3.4 8.7 1.7-2 2.9-4.8 3.7-8.7z"/><path d="m31.6 3.6h.9v2.3h4.1v9.1h1.7v.9h-16.6v-.9h1.7v-9.1h4.1v-2.3h.9v2.3h3.1v-2.3zm-4 13.3.6.8c-1.9.9-3.8 1.9-5.8 2.8-.2-.3-.3-.6-.5-.9 2-.9 3.9-1.8 5.7-2.7zm-3.2-10.1v3.7h3.1v-3.7zm0 4.5v3.7h3.1v-3.7zm4.1-4.5v3.7h3.1v-3.7zm0 4.5v3.7h3.1v-3.7zm9.1 9.1c-2.1-1.1-4.1-2-5.8-2.7l.5-.8c2.2.9 4.1 1.8 5.8 2.6zm-1.9-13.6h-3.1v3.7h3.1zm-3.2 4.5v3.7h3.1v-3.7z"/></g></svg>