<svg enable-background="new 0 0 400 400" viewBox="0 0 400 400" xmlns="http://www.w3.org/2000/svg"><g fill="#010100"><path d="m356.85 169.31c2.39 3.94 2.7 8.03 1.3 12.07-2.96 8.55-5.83 17.18-12.34 23.92-.54.56-1.03 1.19-1.46 1.84-11.25 17.04-27.14 29.29-43.17 41.28-3.13 2.34-7.71 2.69-11.48 4.29-2.48 1.05-5.13 2.3-6.89 4.21-1.15 1.25-1.39 3.93-1.06 5.8.69 3.94 1.82 7.85 3.13 11.64 3.12 9.04 4.13 18.23 3.18 27.75-1.18 11.8-2.3 23.6-6.12 34.93-.57 1.69-1.24 3.36-2 4.97-3.38 7.15-7.04 9.52-14.85 8.51-5.62-.72-11.15-2.25-16.66-3.65-1.55-.39-3.05-1.4-4.3-2.45-11.45-9.68-23.14-19.12-34.13-29.3-5.35-4.96-9.75-11.08-13.94-17.12-8.34-12.02-16.94-23.95-21.96-37.9-2.72-7.55-3.81-15.32-3.32-23.4.24-4 1.79-6.21 6.03-6.97-.82 4.08 1.1 5.75 4.99 6.41 2.88.49 5.12 2.43 6.38 5.4 1.61 3.8 3.54 7.47 5.37 11.18 2.93 5.95 8.06 8.47 14.61 7.17 1.31-.26 2.67-.55 3.84-1.17 12.94-6.85 26.12-13.37 36.25-24.38 4.74-5.15 6.93-11.11 5.63-18.16-.95-5.17-1.79-10.35-2.72-15.52-1.43-7.93 1.54-13.34 9.04-15.95 7.17 10.37 14.41 20.7 13.67 34.35-.22 4.15 1.54 5.88 5.69 5.45 7.61-.8 14.59-3.66 20.47-8.46 18.31-14.92 36.42-30.06 54.62-45.11.67-.57 1.41-1.05 2.2-1.63zm-144.99 109.67c2.33 7.5 5.77 12.96 10.56 17.47 5.05 4.75 10.3 9.29 15.5 13.88 5.22 4.61 5.24 4.61 11.38 1.07 1.78-1.02 4-1.62 4.17-4.29.48-7.91 1.45-15.82 1.4-23.73-.04-7.31-5.57-15.24-16.42-12.43-3.89 1.01-7.95 1.42-11.78 2.6-4.96 1.53-9.75 3.55-14.81 5.43z"/><path d="m290.71 89.01c0 13.09.05 26.19-.06 39.28-.01 1.7-.53 3.51-1.27 5.05-1.69 3.53-3.93 6.8-5.43 10.39-1.86 4.46-5.25 6.91-9.35 9-14.53 7.42-30.02 10.94-46.22 11.08-16.66.15-33.33-.27-50-.33-2.01-.01-3.25-.62-4.43-2.24-6.6-9.08-10.14-19.42-12.08-30.27-3.5-19.58-4.61-39.26-1.93-59.12.58-4.3-.79-8.85-1.27-13.29-.11-1-.08-2.06-.42-2.98-2.09-5.57 1.17-8.26 5.36-10.85 8.47-5.23 17.94-7.07 27.49-9.1 22.89-4.88 45.67-2.4 68.43.45 7.17.9 14.2 2.92 21.27 4.53 1.39.32 2.67 1.13 4 1.7 4.18 1.76 6.25 4.33 6.06 9.43-.47 12.41-.15 24.85-.15 37.27zm-105.64 36.77c.67 3.31 1.98 9.83 3.33 16.34.44 2.13 1.69 2.76 3.91 2.34 20.75-3.94 41.52-7.81 62.3-11.64 1.87-.35 2.8-1.06 3.28-3.04 2.91-12.05 6.13-24.03 8.95-36.11 1.81-7.76 2.59-15.65 1.27-23.63-.46-2.76-1.64-4.18-4.54-4.72-7.14-1.34-14.23-2.93-21.29-4.64-7.85-1.9-15.59-3.69-23.64-.71-3.33 1.23-6.92 2.25-10.43 2.39-8.46.33-11.75 4.88-13.5 12.73-3.5 15.69-8.21 31.12-9.64 50.69z"/><path d="m145.92 375.48c-3.61 0-6.61.12-9.6-.07-.92-.06-2.09-.79-2.63-1.57-15.56-22.38-26.09-46.82-29.64-73.97-.89-6.85-.58-13.85-.87-20.78-.22-5.14-1.85-9.59-6.14-12.85-1.89-1.43-3.19-1.61-5.05.33-6.43 6.71-13.06 13.22-19.69 19.73-.98.96-2.29 1.99-3.57 2.19-9.6 1.53-19.23 2.89-28.01 8.47-1.87-3.67-3.6-6.87-5.08-10.19-.28-.63.17-1.96.73-2.53 7.78-7.89 15.37-16 23.59-23.41 4-3.61 9.03-6.25 13.92-8.65 9.6-4.7 16.57-11.86 21.86-20.99 3.19-5.51 7.37-10.16 13.52-12.52 1.22-.47 2.63-.92 3.88-.75 5.53.72 11.14 1.25 16.51 2.65 6.79 1.78 10.21 8.33 8.69 15.22-1.39 6.33-3.41 12.61-3.99 19.01-.67 7.4-.37 14.92.02 22.37 1.33 25.14 2.71 50.28 4.53 75.39.37 5.09 2.68 10.05 4.19 15.05.75 2.43 1.72 4.8 2.83 7.87z"/><path d="m88.47 27.07c7.48 11.17 11.9 23.41 13.96 36.43 3.17 20.06 2.7 40.12-.85 60.09-.36 2.01-1.4 3.93-2.35 5.78-.81 1.58-1.82 3.1-2.94 4.48-4.8 5.89-7.84 12.38-7.38 20.19.16 2.7-1.1 4.51-3.44 5.94-3.54 2.16-6.05 4.86-5.94 9.67.07 3.3-1.56 6.5-4.95 8.2-4.34 2.18-7.33 5.7-9.81 9.79-1.8 2.96-4.39 5.52-5.73 8.65-3.18 7.4-9.06 6.87-15.58 6.01.9-4.47 1.75-8.83 2.69-13.16.13-.61.59-1.2 1.03-1.67 14.07-14.84 22.59-32.87 29.57-51.74 3.76-10.16 7.17-20.44 10.59-30.72.72-2.18 1.08-4.57 1.09-6.87.08-23.05.05-46.1.05-69.15-.01-.64-.01-1.28-.01-1.92z"/></g><path d="m6.4 11.7c-1-.8-1.9-1.6-2.9-2.3l.6-.7c.9.7 1.9 1.4 2.9 2.2zm-2.1 8.3c.7-2.1 1.4-4.2 2-6.4.2.1.6.3 1 .4-.7 2.3-1.3 4.4-1.9 6.4zm3-12.8c-1.1-.9-2.1-1.7-2.9-2.4l.6-.7c1 .8 2 1.5 3 2.4zm1.4-1.3v-.9h10.2v.9c-.9 4.2-2.3 7.3-4.1 9.4 1.3 1.4 3.2 2.7 5.7 4-.2.2-.4.5-.7.9-2.5-1.4-4.4-2.7-5.7-4.2-1.4 1.5-3.5 3-6.1 4.4 0 0 0 0-.1-.1-.3-.4-.5-.7-.7-.8 2.7-1.3 4.7-2.8 6.2-4.2-1.8-2.2-3-5.3-3.7-9.4zm9.2 0h-7.1c.6 3.8 1.7 6.7 3.4 8.7 1.7-2 2.9-4.8 3.7-8.7z" fill="#fafbfa"/><path d="m31.6 3.6h.9v2.3h4.1v9.1h1.7v.9h-16.6v-.9h1.7v-9.1h4.1v-2.3h.9v2.3h3.1v-2.3zm-4 13.3.6.8c-1.9.9-3.8 1.9-5.8 2.8-.2-.3-.3-.6-.5-.9 2-.9 3.9-1.8 5.7-2.7zm-3.2-10.1v3.7h3.1v-3.7zm0 4.5v3.7h3.1v-3.7zm4.1-4.5v3.7h3.1v-3.7zm0 4.5v3.7h3.1v-3.7zm9.1 9.1c-2.1-1.1-4.1-2-5.8-2.7l.5-.8c2.2.9 4.1 1.8 5.8 2.6zm-1.9-13.6h-3.1v3.7h3.1zm-3.2 4.5v3.7h3.1v-3.7z" fill="#fafbfa"/></svg>