<svg enable-background="new 0 0 400 400" viewBox="0 0 400 400" xmlns="http://www.w3.org/2000/svg"><g fill="#010100"><path d="m275.37 272.36c10.86 9 16.87 22.37 23.65 35.2.42.79.66 1.71 1.2 2.39 1.65 2.06 4.17 3.8 4.92 6.12.76 2.36-.19 5.27-.42 8.28 5.93.39 8.46 4.95 11.03 9.19 7.36 12.12 11.06 25.69 14.97 39.26-7.27-6.94-15.06-13.43-21.62-20.98-4.16-4.79-6.58-11.12-9.62-16.84-4.41-8.29-8.4-16.81-13.07-24.94-4.04-7.04-9.3-13.12-17.33-16.4-7.1 8.53-12.92 17.77-18.15 27.4-5.07 9.34-9.78 18.93-17.43 26.55-3.38 3.37-7.19 6.31-10.86 9.49-2.9-2.77-3.45-5.55-2.73-8.91 1.75-8.19 5.9-14.85 12.32-20.13 2.64-2.17 3.87-4.91 4.58-8.24.58-2.71 2.12-5.24 3.37-7.78 2.22-4.49 4.49-8.96 6.83-13.39 2.43-4.61 4.93-9.19 7.48-13.73.93-1.65 2.25-3.07 3.13-4.74 1.81-3.43 1.82-6.33-1.27-9.58-8.87-9.32-17.28-19.08-25.95-28.6-2.18-2.39-4.65-4.52-6.99-6.76-.81-.77-1.99-1.4-2.35-2.34-.61-1.59-1.22-3.52-.81-5.03.22-.8 2.7-1.59 3.97-1.36 2.44.44 5.1 1.14 7.06 2.57 7.05 5.14 14.01 10.44 20.67 16.07 2.37 2.01 3.75 5.18 5.66 7.77 1.47 2 3.05 3.92 4.7 6.02 3.72-3.08 5.32-6.59 5.41-10.42.27-11.17.12-22.36.23-33.54.1-9.52-.75-18.91-2.28-28.33-.87-5.32-.05-10.9-.11-16.36-.02-2.16-.25-4.33-.56-6.47-.44-2.98-1.33-5.91-1.54-8.9-.92-13.32-.31-26.58 2.06-40.98 2.31 1.84 4.56 2.86 5.56 4.61 1.57 2.75 3.11 5.95 3.23 9.01.39 10.49.46 21.02-.07 31.5-.13 2.56-3 4.98-4.75 7.68-.07-.2-.06.08.08.19 5.66 4.44 6.88 10.25 7.18 17.32.48 11.36 2.69 22.63 3.92 33.97.25 2.28-.58 4.69-1.01 7.02-.31 1.71-1.5 3.6-1.07 5.04 3.01 9.95.8 19.74-.53 29.54-.53 4.01-1.66 7.89-2.69 12.56z"/><path d="m171.8 157.17c3.39-.4 5.63.62 7.71 3.18 6.28 7.73 12.67 15.38 19.41 22.71 2.74 2.98 6.24 5.46 9.81 7.41 3.94 2.16 5.73 1.08 6.47-3.39.37-2.24.26-4.74-.33-6.94-1.46-5.52-3.18-10.92-1.67-16.76.3-1.15-.29-2.63-.74-3.86-6.9-18.89-13.61-37.86-20.94-56.58-2.08-5.3-5.84-9.99-9.17-14.73-1.9-2.71-3.1-5.39-2.56-8.67.53-3.23-.87-5.39-3.19-7.53-2.78-2.56-5.13-5.6-7.66-8.43-.37.19-.73.38-1.1.57-1.3 4.18-2.87 8.3-3.85 12.55-2 8.66-5.98 16.26-11.26 23.33-1.26 1.69-2.18 4.04-2.27 6.12-.12 2.86-1.78 4.07-3.8 5.68-2.58-5.02-2.31-10.02-1.58-14.99.75-5.09 1.7-10.15 2.75-15.18.33-1.55 1.4-2.94 1.92-4.47.48-1.42 1.26-3.09.91-4.38-1.12-4.05-.82-7.98.32-11.87 2.36-8.04 4.72-16.07 7.35-24.02.89-2.7 2.57-5.14 3.85-7.61 6.01 1.64 8.15 4.45 8.02 10.24-.1 4.33 1.16 8.06 4.11 11.34 2.38 2.64 5.51 4.96 4.92 9.36-.12.86 1.13 2.09 2 2.87 2.93 2.63 4.94 5.63 5.36 9.69.14 1.35 1.07 2.67 1.83 3.88 16.44 26.13 27.42 54.45 33.36 84.67 3.29 16.74 3.24 33.6-1.17 50.23-.97 3.65-2.55 7.14-4.03 10.63-.4.94-1.41 1.68-2.27 2.34-2.04 1.55-4.15 3-6.6 4.75 3.83 3.66 1.29 6.2-1.25 8.92-4.19 4.5-8.02 9.19-10.01 15.28-1.4 4.28-6.7 4.69-9.47 1.2-5.99-7.53-12.09-14.98-18.03-22.55-3.96-5.06-7.18-10.55-8.33-17-.31-1.72-.31-3.5-.45-5.26.31-.27.62-.54.93-.81 1.21.9 2.7 1.58 3.6 2.73 6.04 7.77 11.83 15.73 17.97 23.41 1.97 2.47 4.74 4.3 7.46 6.71 1.07-1.44 1.81-2.37 2.48-3.34 4.91-7.08 9.81-14.16 14.72-21.24 2.45-3.54 1.49-10.02-1.81-12.79-10.95-9.22-20.2-19.96-28.04-31.91-3.07-4.65-5.38-9.68-5.68-15.49z"/><path d="m116.97 52.51c-9.83 14.65-18.32 28.53-28.06 41.46-10.8 14.35-16.24 30.39-18.61 47.83-.18 1.33-.29 2.7-.71 3.96-4.13 12.49.8 24.24 2.94 36.21.24 1.32.85 2.62.84 3.92-.03 4.06 3.1 4.44 5.85 5.1.64.15 1.83-.66 2.3-1.35 3.65-5.35 7.2-10.76 10.74-16.19 2.32-3.55 4.34-7.32 6.9-10.68 2.53-3.34 5.91-5.73 11.21-6.66-.74 2.64-.86 5.07-2.01 6.81-6.02 9.01-12.36 17.81-18.48 26.76-4.25 6.21-7.93 12.76-9.2 20.3-.26 1.52.42 3.35 1.08 4.86 1.55 3.56 3.52 6.95 5 10.54 1.75 4.24 3.28 6.32 8.19 9.24 2.3-4.42 4.64-8.78 6.82-13.21 1.03-2.1 1.61-4.42 2.61-6.53 2.35-4.98 6.2-8.08 12.01-8.96.5 1.19.97 2.43 1.55 3.61.76 1.55.72 2.64-.65 4.1-1.15 1.22-1.48 3.29-2.01 5.03-.86 2.83-1.25 5.85-2.47 8.5-1.53 3.34-3.6 6.44-5.59 9.54-3.35 5.2-6.05 10.62-7.31 16.77-.35 1.7-1.52 3.55-2.86 4.67-2.67 2.23-4.61 1.71-6.55-1.15-.19-.28-.35-.58-.55-.84-10.73-13.73-17.4-29.18-22.58-45.88-3.64-11.74-4.99-22.99-4.64-35.03.63-21.9 3.43-43.58 5.6-65.33.91-9.12 4.93-17.39 10.06-24.97 6.89-10.19 13.88-20.32 21.04-30.33 1.58-2.21 3.82-4.1 6.09-5.63 3.99-2.69 6.27-6.49 8.35-10.64 1.93-3.86 4.23-7.57 6.71-11.1.66-.94 2.98-1.71 3.88-1.25 1.33.68 2.32 2.41 2.97 3.9.39.89.13 2.3-.29 3.28-3.61 8.36-1.46 16.54 1.11 24.5 3.25 10.09 7.19 19.96 10.78 29.94.68 1.89 1.46 3.83 1.59 5.79.1 1.42-.78 2.91-1.22 4.37-1.57-.74-4.01-1.08-4.55-2.27-2.36-5.29-4.26-10.79-6.15-16.28-1.86-5.38-3.19-10.96-5.36-16.21-1.41-3.51-3.91-6.56-6.37-10.5z"/></g><path d="m6.4 11.7c-1-.8-1.9-1.6-2.9-2.3l.6-.7c.9.7 1.9 1.4 2.9 2.2zm-2.1 8.3c.7-2.1 1.4-4.2 2-6.4.2.1.6.3 1 .4-.7 2.3-1.3 4.4-1.9 6.4zm3-12.8c-1.1-.9-2.1-1.7-2.9-2.4l.6-.7c1 .8 2 1.5 3 2.4zm1.4-1.3v-.9h10.2v.9c-.9 4.2-2.3 7.3-4.1 9.4 1.3 1.4 3.2 2.7 5.7 4-.2.2-.4.5-.7.9-2.5-1.4-4.4-2.7-5.7-4.2-1.4 1.5-3.5 3-6.1 4.4 0 0 0 0-.1-.1-.3-.4-.5-.7-.7-.8 2.7-1.3 4.7-2.8 6.2-4.2-1.8-2.2-3-5.3-3.7-9.4zm9.2 0h-7.1c.6 3.8 1.7 6.7 3.4 8.7 1.7-2 2.9-4.8 3.7-8.7z" fill="#fafbfa"/><path d="m31.6 3.6h.9v2.3h4.1v9.1h1.7v.9h-16.6v-.9h1.7v-9.1h4.1v-2.3h.9v2.3h3.1v-2.3zm-4 13.3.6.8c-1.9.9-3.8 1.9-5.8 2.8-.2-.3-.3-.6-.5-.9 2-.9 3.9-1.8 5.7-2.7zm-3.2-10.1v3.7h3.1v-3.7zm0 4.5v3.7h3.1v-3.7zm4.1-4.5v3.7h3.1v-3.7zm0 4.5v3.7h3.1v-3.7zm9.1 9.1c-2.1-1.1-4.1-2-5.8-2.7l.5-.8c2.2.9 4.1 1.8 5.8 2.6zm-1.9-13.6h-3.1v3.7h3.1zm-3.2 4.5v3.7h3.1v-3.7z" fill="#fafbfa"/></svg>