<svg enable-background="new 0 0 400 400" viewBox="0 0 400 400" xmlns="http://www.w3.org/2000/svg"><g fill="#010102"><path d="m260.65 186.7c3.13-9.4 6.25-18.8 9.39-28.2 4.46-13.35 8.99-26.68 13.36-40.05.78-2.4 1.23-4.98 1.37-7.5 1.24-22.45 2.4-44.93 7.93-66.85 1.63-6.45 4.2-12.66 6.39-19.1 4.73.96 6.91 3.78 8.3 7.29 2.81 7.09 2.41 14.5 1.75 21.87-1.2 13.37-2.39 26.74-3.89 40.07-.69 6.15.96 11.58 4.1 16.57 3.15 5 6.83 9.66 10.21 14.52 4.01 5.77 8.08 11.5 11.87 17.41 4.64 7.25 4.52 15.04 3.4 23.46-5.04 37.76-15.85 74.31-22.81 111.65-4.48 24.06-14.88 45.8-23.83 68.16-.35.86-1.06 1.72-1.83 2.25-2.85 1.95-5.8 3.76-9.48 6.12.91-5.08 1.66-9.48 2.5-13.86 7.54-39.53 14.83-79.1 22.82-118.54 2.07-10.22 6.33-19.99 9.62-29.96 1.96-5.94 4.01-11.85 6-17.79 3.96-11.82-2.82-31.25-13.26-37.99-.47-.3-.95-.59-1.44-.86-5.02-2.69-5.82-2.5-8.47 2.39-5.38 9.92-10.49 20-16.15 29.76-2.95 5.09-6.62 9.8-10.34 14.39-1.77 2.18-4.4 3.65-6.64 5.44-.29-.23-.58-.44-.87-.65z"/><path d="m123.99 374.41c-3.56-14.7-7.42-29.38-10.58-44.21-1.7-7.95-2.84-16.15-3.04-24.26-.2-8.09.93-16.24 1.79-24.33.75-7.01-1.26-11.34-8.01-15.13-1.66 2.38-3.55 4.69-5.02 7.25-7.24 12.6-14.29 25.3-21.56 37.88-4.04 6.99-8.64 13.62-15.17 18.61-.8.61-1.65 1.15-2.51 1.67-.36.22-.79.32-2.24.88.68-3.75 1.02-6.88 1.87-9.87.57-2 1.66-3.95 2.89-5.65 4.26-5.87 6.65-12.28 6.7-19.59.01-1.38.7-2.81 1.27-4.13 7.32-16.92 14.66-33.83 22.06-50.72.56-1.27 1.38-2.61 2.45-3.45 3.71-2.9 6.48-6.38 8.19-10.81 2.26-5.83 5.56-10.95 10.95-14.45 3.41-2.21 4.57-5.48 3.82-9.3-.79-4.06 1.44-6.84 3.64-9.66.36-.46 1.34-.7 2.01-.64 6.94.61 11.8 5.67 11.9 12.63.05 3.57-.31 7.15-.62 10.71-.89 10.31-.05 20.49 1.21 30.75 3.1 25.16 3.17 50.46 1.99 75.75-.71 15.1-2.52 30.06-6.45 44.74-.98 3.68-2.76 5.31-7.54 5.33z"/><path d="m202.43 45.53c7.55 4.72 10.92 13.04 8.53 23.46-2.37 10.33-5.7 20.44-8.24 30.74-1.39 5.62-2.19 11.41-2.91 17.17-.19 1.5.48 3.55 1.5 4.68 10.2 11.3 20.37 22.64 30.96 33.57 3.97 4.1 5.55 8.61 5.21 13.91-.46 7.25-.66 14.62-2.18 21.67-2.18 10.17-1.05 19.92 1.11 29.82.48 2.2.23 4.99-.73 7-2.82 5.9-3.6 11.94-3.88 18.43-.32 7.3-2.17 14.55-3.5 21.8-2.03 11.11-4.37 22.16-6.18 33.3-.65 4.02-2.51 5.57-6.52 5.4-2.22-6.78-2.17-13.76-.54-20.7 2.5-10.64 3.46-21.38 3.29-32.29-.17-10.97.19-21.95-.1-32.91-.3-11.58.54-22.94 3.47-34.2 1.63-6.25 2.63-12.74 1.12-19.27-1.34-5.82-3.6-10.83-9.25-14.01-5.25-2.95-10.08-6.64-15.68-10.39-1.86 3.54-3.84 6.84-5.4 10.34-5.81 13.01-8.19 26.89-10.01 40.89-1.46 11.24-3.41 22.35-8.85 32.49-2.5 4.66-5.59 8.87-10.52 12.05-.09-1.08-.24-1.88-.22-2.68.26-9.51.76-19.02.77-28.53.01-6.62 1.3-12.88 3.75-18.94 2.93-7.27 3.89-14.86 4.31-22.6.39-7.15.42-14.4 1.71-21.4 1.21-6.52 3.84-12.79 5.9-19.15 6-18.52 11.49-37.16 13.66-56.61.09-.78.31-1.57.22-2.33-1.01-8.56 3.07-14.96 9.2-20.71z"/><path d="m69.97 170.48c-2.69-4.37-1.59-6.66 1.61-9.2 13.58-10.78 26.95-21.84 40.28-32.93 1.15-.95 2.12-2.95 2.05-4.41-.96-21.65 2.76-42.79 6.88-63.87 1.9-9.72 6.18-18.64 11.39-27.04.41-.66 1.87-1.2 2.65-1.01 3.85.95 7.09 3.21 7.31 7.32.3 5.75-.04 11.57-.49 17.33-1.04 13.15-2.62 26.26-3.44 39.42-.87 13.95-3.8 27.19-11 39.31-.56.95-1.13 2.03-1.98 2.65-13.7 10.05-27.11 20.58-42.55 27.96-4.07 1.95-8.55 3.03-12.71 4.47z"/></g><path d="m385.2 377.6.6-.7c.6.4 1.3.9 1.9 1.5l-.6.7c-.8-.5-1.4-1-1.9-1.5zm.3 7.1c.6-1.4 1.1-2.9 1.5-4.5.3.1.6.3.9.4-.5 1.4-1 2.9-1.5 4.4zm.2-10.1.6-.6c.7.5 1.3 1.1 1.9 1.6l-.7.7c-.6-.6-1.2-1.2-1.8-1.7zm8.4-.8h.8v.9h1.8v.7h-1.8v1.8h-.8v-.3h-1.2v.9h3.3v2.6h-.8v-.4h-2.5c0 .3 0 .6-.1.8h3.4v.7h-3.5c0 .3-.1.6-.1.8h4v.7h-3.5c.7.9 1.9 1.3 3.6 1.5-.2.2-.4.5-.6.9-1.9-.3-3.2-1.1-3.8-2.3-.5 1.1-1.8 2-3.9 2.4-.2-.3-.4-.5-.6-.8 1.9-.4 3.1-.9 3.6-1.7h-3.2v-.7h3.5c.1-.2.1-.5.2-.8h-3.3v-.7h3.4c0-.2 0-.5 0-.8h-2.4v.3h-.8v-2.6h3.3v-.9h-1.2v.3h-.8v-1.8h-1.8v-.7h1.8v-.9h.8v.9h3.2zm-4.4 5.5h2.4c0-.3 0-.6 0-.9h-2.4zm1.2-3.1h3.2v-.8h-3.2zm4.4 2.2h-2.4v.9h2.5v-.9z" fill="#fcfbfa"/><path d="m389.2 385.8h.9v1.5h1.9v-1.5h.9v1.5h2.7v6h1.1v.9h-11.3v-.9h1.1v-6h2.7zm.2 8.7.5.8c-1.2.6-2.5 1.3-4 1.9-.2-.3-.3-.6-.6-.8 1.6-.6 3-1.3 4.1-1.9zm-2-4.3h1.9v-2.1h-1.9zm0 3.1h1.9v-2.2h-1.9zm2.7-3.1h1.9v-2.1h-1.9zm0 3.1h1.9v-2.2h-1.9zm2.4 1.3c1.4.6 2.7 1.2 4.1 1.8l-.5.9c-1.5-.7-2.8-1.4-4.1-1.9zm2.2-6.5h-1.9v2.1h1.9zm-1.9 5.2h1.9v-2.2h-1.9z" fill="#fcfbfa"/></svg>