<svg enable-background="new 0 0 400 400" viewBox="0 0 400 400" xmlns="http://www.w3.org/2000/svg"><path d="m248.94 374.44c2.02-9.45 4.07-18.9 6.04-28.36 1.23-5.9 2.37-11.83 3.5-17.75 1.53-8 2.73-16.07 6.1-23.62.89-1.99 1.51-4.32 1.44-6.47-.06-1.68-1.08-4.4-2.2-4.71-1.48-.4-4.33.62-5.08 1.9-1.69 2.91-4.16 3.43-6.93 3.78-2.25.28-3.95 1.06-4.64 3.53-.26.94-1.24 1.83-2.11 2.42-3.51 2.39-7.11 4.66-10.68 6.97-.47.3-.96.88-1.42.85-4.03-.25-5.71 3.58-8.68 4.9-6.11 2.71-10.33 7.95-15.83 11.09-2.99 1.71-6.2 3.4-9.3 5.14-.51.29-1.45-.17-2.25-.29-1.01 3.82-4.08 3.96-7.18 3.91-3.08-.05-6.28-.21-7.12-4.04-1.23-5.65-2.83-11.31-3.21-17.04-.46-6.89-.6-13.99.61-20.74.95-5.31 4.14-10.22 6.34-15.3.04-.1.14-.17.21-.26 5.15-6.31 10.09-12.84 17.95-16.17 1.21-.51 2.21-1.51 3.34-2.23 4.58-2.94 6.53-6.42 5.77-12.48-.88-6.97-.02-14.26.83-21.31 2.33-19.2 5.32-38.33 7.55-57.54 1.71-14.68 2.48-29.46 4.04-44.16.88-8.33 2.64-16.56 3.74-24.87.35-2.69.27-5.58-.33-8.22-1.74-7.62-4.25-15.09-5.68-22.76-1.03-5.5-.81-11.23-1.17-17.07 4.24-.12 6.61 1.24 7.96 4.36 4.51 10.45 9.68 20.65 12.16 31.88.46 2.06 1.43 3.99 2.02 6.03 4.96 16.97 11.94 33.38 13.74 51.21.29 2.86 1.11 5.73 2.08 8.45 4.08 11.47 5.65 23.44 7.25 35.41.24 1.77.42 3.6 1.02 5.26 3.88 10.68 4.2 21.94 5.3 33.03.98 9.92-2.84 15.29-11.92 19.78-2.21 1.09-3.88 3.21-5.99 4.57-2.89 1.86-5.93 3.5-8.96 5.14-1.51.82-3.17 1.36-4.69 2.16-2.45 1.28-4.84 2.67-7.27 3.99-.78.42-1.64.71-2.38 1.19-6.61 4.35-13.07 8.95-19.84 13.02-5.53 3.33-10.12 7.44-12.94 13.2-1.19 2.44-1.79 5.29-2.09 8.02-.4 3.66-.17 7.38-.36 11.07-.13 2.58 1.04 3.21 3.27 2.51.84-.26 1.65-.68 2.43-1.1 10.87-5.94 21.59-12.17 32.62-17.76 9.69-4.92 19.72-9.19 29.65-13.63 2.89-1.29 5.75-2.83 9.25-1.7s5.1 3.6 4.17 7.31c-2.12 8.49-4.39 16.94-6.25 25.48-.79 3.66-.42 7.56-1.06 11.26-2.42 13.91-4.62 27.9-12.01 40.36-2.52 4.25-4.96 8.48-9.58 10.79-.39-.15-.81-.27-1.23-.39zm-6.96-234.79c-.41.17-.82.33-1.23.5-.14.75-.32 1.5-.42 2.25-1.6 12.08-3.11 24.18-4.81 36.24-.95 6.74-2.62 13.41-3.22 20.18-1.33 14.93-2.21 29.89-3.22 44.84-.09 1.26.2 2.54.42 5.11 8.83-5.07 16.84-9.64 24.82-14.29.58-.34.98-1.15 1.27-1.82.8-1.82 1.65-3.64 2.19-5.54.56-1.97.97-4.01 1.09-6.05.1-1.65-.29-3.33-.51-4.99-.63-4.64-1.17-9.29-1.97-13.9-1.17-6.78-2.54-13.53-3.82-20.3-1.15-6.12-2.2-12.26-3.47-18.35-.67-3.19-3.08-6.07-1.51-9.64.12-.28-.26-.77-.41-1.16-.92-2.43-1.81-4.87-2.76-7.29-.78-1.95-1.63-3.87-2.44-5.79z" fill="#010100"/><path d="m157.21 25.29c1.46 2.49 3.45 4.81 4.27 7.49 1.79 5.87 3.22 11.89 1.6 18.14-.2.75.06 1.82.48 2.5 2.1 3.38 2.24 7 2.35 10.9.21 7.35 1.27 14.67 1.91 22 .16 1.87.01 3.76.11 5.63.18 3.51.44 7.01.68 10.51.06.88.34 1.77.24 2.62-.9 7.72.47 15.03 3.19 22.29 2.58 6.86 6.14 13.9 6.41 20.96.37 10.02-1.83 20.15-3.1 30.21-.13 1.07-1.27 2.06-2.06 2.98-5.46 6.38-11 12.68-16.4 19.1-2.94 3.5-2.92 4.51.13 7.64 11.4 11.7 14.12 25.95 12.54 41.56-1.09 10.79-3.93 21.04-8.69 30.79-1.81 3.71-3.55 7.51-4.79 11.44-2.83 9.03-8.39 16.49-13.53 24.18-1.58 2.36-3.94 3.09-6.71 1.68-.75-.38-1.72-.74-2.5-.6-3.51.63-4.93-1.06-5.93-4.22-2.73-8.63-5.4-17.3-8.79-25.68-4.19-10.37-3.88-21.01-3-31.73.36-4.44 1.32-8.84 2.18-13.22 1.57-7.98 5.63-14.93 9.53-21.91 1.74-3.12 4.02-5.93 5.78-9.04 2.22-3.93 2.58-7.6-.54-11.73-3.54-4.69-6.18-10.07-9.1-15.22-3.97-7.02-2.9-13.71 1.79-19.95 4.03-5.36 8.28-10.54 12.33-15.89 2.22-2.93 4.24-6.01 6.31-9.05 2.18-3.19 4.44-6.35 6.42-9.66 1.1-1.84 2.47-3.99 2.42-5.98-.24-10.73-1.57-21.47-1.26-32.17.63-21.6-2.37-43.47 4.07-64.72.13-.42.26-.83.39-1.25.43-.19.85-.39 1.27-.6zm-13.24 194.05c-8.08 7.6-14.94 15.83-15.51 27.37-.36 7.35-.17 14.73.03 22.09.08 2.98.46 6.06 1.36 8.89 1.55 4.85 3.58 9.55 5.53 14.26.4.96 1.48 2.51 1.95 2.41 1.36-.3 3.07-.99 3.74-2.08 1.32-2.15 2.18-4.63 2.97-7.05 3.54-10.93 6.93-21.91 10.49-32.83 3.88-11.93-2.1-25.81-10.56-33.06zm-6.69-41.02c-.28.11-.57.22-.85.33 1.28 2.87 2.14 6.04 3.92 8.56 4.48 6.33 7.24 6.43 11.79.14 4.5-6.21 9.37-12.25 12.04-19.64.8-2.21 1.11-4.09.34-6.39-1.35-4-2.22-8.17-3.44-12.21-.48-1.58-1.39-3.03-2.1-4.53-1.35.84-2.75 1.63-4.04 2.56-.52.37-1.03.99-1.19 1.59-1.63 6.07-6.24 10.06-10.38 14.18-4.43 4.39-5.9 9.54-6.09 15.41z" fill="#010100"/><g fill="#fafbfa"><path d="m6.4 11.7c-1-.8-1.9-1.6-2.9-2.3l.6-.7c.9.7 1.9 1.4 2.9 2.2zm-2.1 8.3c.7-2.1 1.4-4.2 2-6.4.2.1.6.3 1 .4-.7 2.3-1.3 4.4-1.9 6.4zm3-12.8c-1.1-.9-2.1-1.7-2.9-2.4l.6-.7c1 .8 2 1.5 3 2.4zm1.4-1.3v-.9h10.2v.9c-.9 4.2-2.3 7.3-4.1 9.4 1.3 1.4 3.2 2.7 5.7 4-.2.2-.4.5-.7.9-2.5-1.4-4.4-2.7-5.7-4.2-1.4 1.5-3.5 3-6.1 4.4 0 0 0 0-.1-.1-.3-.4-.5-.7-.7-.8 2.7-1.3 4.7-2.8 6.2-4.2-1.8-2.2-3-5.3-3.7-9.4zm9.2 0h-7.1c.6 3.8 1.7 6.7 3.4 8.7 1.7-2 2.9-4.8 3.7-8.7z"/><path d="m31.6 3.6h.9v2.3h4.1v9.1h1.7v.9h-16.6v-.9h1.7v-9.1h4.1v-2.3h.9v2.3h3.1v-2.3zm-4 13.3.6.8c-1.9.9-3.8 1.9-5.8 2.8-.2-.3-.3-.6-.5-.9 2-.9 3.9-1.8 5.7-2.7zm-3.2-10.1v3.7h3.1v-3.7zm0 4.5v3.7h3.1v-3.7zm4.1-4.5v3.7h3.1v-3.7zm0 4.5v3.7h3.1v-3.7zm9.1 9.1c-2.1-1.1-4.1-2-5.8-2.7l.5-.8c2.2.9 4.1 1.8 5.8 2.6zm-1.9-13.6h-3.1v3.7h3.1zm-3.2 4.5v3.7h3.1v-3.7z"/></g></svg>