<svg enable-background="new 0 0 400 400" viewBox="0 0 400 400" xmlns="http://www.w3.org/2000/svg"><path d="m225.13 376.08c-6.56-11.01-10.66-21.52-11.65-33.13-.03-.33-.12-.7-.02-1 3.08-9.52.75-19.02-.01-28.54-.36-4.53-.49-9.17.07-13.67.77-6.24-.21-12.19-1.19-18.29-.77-4.79-.44-9.76-.75-14.63-.2-3.17-.72-6.32-1.02-9.49-.67-7.21-2.27-14.52-1.6-21.6.53-5.59-.92-11.02.28-16.68 1.13-5.33 1.36-11.41-.05-16.6-2.75-10.14-.94-19.93-.25-29.95.64-9.24.34-18.56.27-27.84-.09-11.53-.52-23.05-.49-34.58.01-3.43-1.3-4.44-4.4-4.7-7.76-.64-15.08 1.41-22.46 3.21-.87.21-1.71.51-2.57.77-11.28 3.39-11.27 3.39-15.26 14.53-.45 1.25-.82 2.68-1.69 3.6-4.95 5.27-7.38 11.91-10.39 18.26-.78 1.65-2.06 3.13-3.32 4.49-2.5 2.7-5.09 5.3-7.74 7.85-1.76 1.69-3.5 3.52-5.58 4.72-1.25.72-3.64 1.04-4.57.32-1-.78-1.44-3.1-1.14-4.55.69-3.36 1.5-6.86 3.11-9.85 3.75-6.96 8.07-13.61 12.05-20.45 5.21-8.94 9.82-18.09 9.57-28.87-.05-2.32-.81-3.95-2.7-5.38-5.35-4.05-10.57-8.28-15.84-12.44-.53-.42-1.01-1.01-1.62-1.18-8.22-2.31-12.94-9.17-18.86-14.46-3.43-3.06-3.9-4.73-3.13-9.91 1.62-.22 3.4-.83 5.07-.63 11.15 1.34 21.73 3.83 28.98 13.7 1.29 1.76 4.18 2.28 6.22 3.56 2.31 1.45 4.81 2.8 6.67 4.73 4.51 4.66 8.61 9.72 13.07 14.43 1 1.06 2.79 1.88 4.24 1.91 5.7.12 11.47.35 17.09-.38 4.99-.65 10.1-1.94 14.62-4.07 2.07-.98 3.05-4.59 4.17-7.15.55-1.25.59-2.91.35-4.3-1.56-9.13 1.25-17.67 3.09-26.4 1.1-5.21 1.32-10.62 1.6-15.96.2-3.75 1.31-6.75 4.63-8.74 3.24-1.94 6.45-.92 7.1 2.84 1.74 10.1 5.88 20.18.87 30.5-.41.84-.34 1.96-.3 2.94.26 7.04.62 14.08.85 21.12.13 3.95 1.54 5.55 5.52 5.27 3.78-.27 7.55-.88 11.3-1.46 11.07-1.72 21.56.57 31.71 4.71 3.85 1.57 4.41 5.2 1.78 8.61-3.04 3.96-7.82 5.07-12.47 2.93-.47-.22-1.17-.49-1.55-.3-4.95 2.47-9.93-.15-14.88.17-6.78.44-13.56.99-20.34 1.45-2.93.2-4.45 1.86-4.76 4.62-.79 7.09-2.01 14.18-2.1 21.28-.14 10.85.51 21.7.88 32.55.04 1.21.15 2.52.63 3.6 1.18 2.66.95 5.06-.33 7.66-.53 1.08-.46 2.89.08 3.99 1.8 3.63 2.2 7.37 2.18 11.36-.11 17.91-.06 35.83-.04 53.74 0 1.22-.23 2.73.38 3.59 1.89 2.69 1.06 5.45 1.07 8.33.03 8.25.42 16.49.86 24.73.75 14.41 1.41 28.83 2.59 43.21.53 6.41 2.17 12.74 3.41 19.09 1.87 9.62-.66 18.46-5.03 26.82-1.15 2.26-3.8 3.72-6.26 5.99z" fill="#010100"/><g fill="#fcfafa"><path d="m342.2 3.2-6.3 9.2h6.1v1.2h-8.2v-.5l6.2-9.1h-5.7v-1.2h7.8v.4z"/><path d="m344 13.7v-10.9h3.1c1.6 0 3 .5 4.1 1.4 1.1 1 1.6 2.2 1.6 3.9s-.5 3-1.6 4-2.5 1.5-4.2 1.5h-3zm1.4-9.6v8.4h1.6c1.4 0 2.5-.4 3.2-1.1.8-.8 1.2-1.8 1.2-3.2s-.4-2.4-1.2-3.1-1.8-1-3.1-1z"/><path d="m356.3 2.8v10.9h-1.4v-10.9z"/><path d="m366.6 13.2c-.8.4-1.8.6-3 .6-1.6 0-2.8-.5-3.7-1.5s-1.4-2.3-1.4-3.9c0-1.7.5-3.2 1.6-4.2s2.4-1.6 4-1.6c1 0 1.9.1 2.6.4v1.5c-.8-.4-1.6-.6-2.6-.6-1.2 0-2.2.4-3 1.2s-1.1 1.9-1.1 3.3c0 1.3.4 2.3 1.1 3.1s1.6 1.1 2.8 1.1c1.1 0 2-.2 2.8-.7v1.3z"/><path d="m368.2 13c0-.3.1-.5.3-.6.2-.2.4-.3.6-.3.3 0 .5.1.7.3s.3.4.3.6-.1.5-.3.6c-.2.2-.4.3-.7.3s-.5-.1-.6-.3c-.2-.2-.3-.4-.3-.6z"/><path d="m381.1 13.7h-1.7l-5.5-8.4c-.2-.2-.3-.5-.4-.7 0 .2.1.8.1 1.5v7.6h-1.4v-10.9h1.8l5.3 8.3c.3.4.4.6.4.8 0-.3-.1-.8-.1-1.6v-7.5h1.4v10.9z"/><path d="m389.7 13.7h-5.8v-10.9h5.6v1.2h-4.2v3.5h3.9v1.2h-3.9v3.7h4.4z"/><path d="m398.4 4.1h-3.1v9.6h-1.4v-9.6h-3.1v-1.3h7.7v1.3z"/></g></svg>