<svg enable-background="new 0 0 400 400" viewBox="0 0 400 400" xmlns="http://www.w3.org/2000/svg"><path d="m231.94 374.48c-1.07-6.77-1.95-13.27-3.14-19.71-1.61-8.66-3.48-17.27-5.2-25.91-.22-1.08-.3-2.22-.27-3.32.16-5.59.19-11.2.6-16.77.95-12.96-1.61-25.64-2.86-38.43-1.04-10.69-2.41-21.34-3.6-32.01-.11-.99-.31-2.17.1-2.98 3.29-6.48 1.21-13.01.75-19.64-.58-8.43.06-16.94.04-25.41-.02-10.05.18-20.13-.41-30.15-.41-7.06-2.41-8.4-9.56-7.81-6.57.54-13.11 1.48-19.65 2.33-.82.11-1.67.62-2.34 1.15-8.18 6.4-17.32 11.03-26.89 14.92-7.99 3.25-15.02 7.76-20.42 14.73-3 3.89-4.03 7.97-2.67 12.51 2.11 7.04 4.56 13.99 6.79 21 1.31 4.12 3.02 8.22 3.54 12.46.66 5.31-3.66 9.43-9.02 9.42-.87 0-1.86-.62-2.59-1.2-21.91-17.5-32.06-41.16-35.53-68.25-.14-1.09.91-2.46 1.68-3.51.64-.87 1.68-1.44 2.83-2.38-2.38-3.29-4.83-6.45-6.99-9.79-.85-1.31-1.48-3.03-1.48-4.56-.01-8.28.02-16.57.43-24.84.17-3.37.68-7.02 2.15-9.98 3.73-7.52 4.41-15.61 5.6-23.66.7-4.74 1.92-9.19 5.44-12.99 1.99-2.15 2.58-5.58 3.86-8.4 1.75-3.84 3.06-7.99 5.43-11.41 6.31-9.08 12.96-17.94 19.76-26.66 2.02-2.59 5.02-4.41 7.49-6.67 2.82-2.58 5.66-1.31 8.38-.02 2.85 1.35 4.21 3.97 3.68 6.93-1.46 8.23-2.74 16.53-7.55 23.76-4.02 6.04-7.74 12.28-11.72 18.64 1.04.52 1.96.89 2.79 1.41 5.75 3.61 11.5 7.22 17.2 10.92 1.4.91 2.58 2.14 3.88 3.2 6.01 4.92 12.41 8.72 20.66 7.8 4.19-.47 7.86.98 11.24 3.43 1.53 1.11 3.43 1.76 4.85 2.97 6.92 5.88 14.84 4.81 22.62 2.99 1.72-.4 3.44-3.11 4.13-5.11 1.04-3.01.73-6.5 1.78-9.5 1.98-5.65 4.09-11.34 6.91-16.6 6.31-11.82 12.9-23.51 19.77-35.02 3.01-5.06 6.91-9.61 12.63-12.36 2.79 2.87 3.68 6.27 3.06 9.9-1.19 7.05-2.95 13.82-6.89 20.09-6.99 11.09-9.33 23.85-11.52 36.54-.91 5.28-1.2 10.66-1.88 15.99-.25 1.95.45 3.03 2.1 4.04 7.52 4.63 14.93 9.45 22.46 14.07 1.12.69 2.83 1.21 4 .87 4.72-1.36 7.8.89 10.38 4.27 1.14 1.49 1.94 3.26 2.76 4.97 2.91 6.13 2.85 6.26-3.14 9.11-7.32 3.48-14.64 3.46-22.02.15-2.64-1.18-5.3-2.46-8.08-3.21-4.28-1.15-8.06.15-10.7 3.74-3.22 4.41-5 9.03-4.28 14.94 1.12 9.06 1.22 18.26 1.51 27.41.22 6.93-.26 13.89.11 20.82.64 12.09-.91 23.85-4.25 35.43-.3 1.06-.77 2.33-.46 3.26 2.62 7.89 1.24 16 1.35 23.99.07 5.32.25 10.54 2.62 15.36 3.24 6.58 1.89 13.32 1.12 20.06-.84 7.41-1.05 14.89-4.75 21.78-.91 1.69.44 4.52.51 6.83.05 1.82.21 3.88-.51 5.45-3.12 6.84-5.31 13.63-3.38 21.36.88 3.48-1.85 5.62-5.24 7.26zm-45.07-244.19c-8.59-7.07-16.7-13.91-25.02-20.5-1.8-1.43-4.27-2.47-6.54-2.77-6.92-.88-13.62-2.25-19.8-5.65-1.81-.99-3.77-1.73-5.47-2.5-5.59 9-9.51 18.11-8.84 28.62.06.99-.23 2-.32 3-.69 7.7-1.19 15.35 1.84 22.8 2.65 6.49 3.09 6.88 9.76 5.2 1.73-.44 3.44-.96 5.13-1.55 13.38-4.66 25.42-11.99 37.55-19.11 3.9-2.29 7.63-4.9 11.71-7.54z" fill="#010100"/><path d="m291.78 157.6c.82-1.93 1.37-3.22 2.07-4.87 1.45.88 2.72 1.64 4.76 2.87-2.44.71-4.25 1.24-6.83 2z" fill="#010100"/><g fill="#fcfafa"><path d="m342.2 3.2-6.3 9.2h6.1v1.2h-8.2v-.5l6.2-9.1h-5.7v-1.2h7.8v.4z"/><path d="m344 13.7v-10.9h3.1c1.6 0 3 .5 4.1 1.4 1.1 1 1.6 2.2 1.6 3.9s-.5 3-1.6 4-2.5 1.5-4.2 1.5h-3zm1.4-9.6v8.4h1.6c1.4 0 2.5-.4 3.2-1.1.8-.8 1.2-1.8 1.2-3.2s-.4-2.4-1.2-3.1-1.8-1-3.1-1z"/><path d="m356.3 2.8v10.9h-1.4v-10.9z"/><path d="m366.6 13.2c-.8.4-1.8.6-3 .6-1.6 0-2.8-.5-3.7-1.5s-1.4-2.3-1.4-3.9c0-1.7.5-3.2 1.6-4.2s2.4-1.6 4-1.6c1 0 1.9.1 2.6.4v1.5c-.8-.4-1.6-.6-2.6-.6-1.2 0-2.2.4-3 1.2s-1.1 1.9-1.1 3.3c0 1.3.4 2.3 1.1 3.1s1.6 1.1 2.8 1.1c1.1 0 2-.2 2.8-.7v1.3z"/><path d="m368.2 13c0-.3.1-.5.3-.6.2-.2.4-.3.6-.3.3 0 .5.1.7.3s.3.4.3.6-.1.5-.3.6c-.2.2-.4.3-.7.3s-.5-.1-.6-.3c-.2-.2-.3-.4-.3-.6z"/><path d="m381.1 13.7h-1.7l-5.5-8.4c-.2-.2-.3-.5-.4-.7 0 .2.1.8.1 1.5v7.6h-1.4v-10.9h1.8l5.3 8.3c.3.4.4.6.4.8 0-.3-.1-.8-.1-1.6v-7.5h1.4v10.9z"/><path d="m389.7 13.7h-5.8v-10.9h5.6v1.2h-4.2v3.5h3.9v1.2h-3.9v3.7h4.4z"/><path d="m398.4 4.1h-3.1v9.6h-1.4v-9.6h-3.1v-1.3h7.7v1.3z"/></g></svg>