<svg enable-background="new 0 0 400 400" viewBox="0 0 400 400" xmlns="http://www.w3.org/2000/svg"><path d="m374.8 390.4.4-.4c.7.5 1.3 1 1.8 1.4l-.5.5c-.5-.6-1.1-1.1-1.7-1.5zm1 7.3-.6-.3c.5-1.4 1.1-2.8 1.5-4.3.2.1.4.2.6.3-.5 1.3-1 2.8-1.5 4.3zm-.4-10.3.4-.4c.4.3 1 .8 1.7 1.4l-.5.5c-.4-.5-1-1-1.6-1.5zm2.5.3h1.7v-1h.6v1h3.5v-1h.6v1h1.8v.5h-1.8v1.4h-2v1h3.2v2h-3.2v.9h3.3v.5h-3.4c0 .3-.1.6-.1.9h4v.5h-3.7c.7.9 1.9 1.5 3.8 1.7-.1.2-.2.4-.3.6-2.1-.4-3.5-1.1-4-2.1-.4 1-1.8 1.7-4 2.2-.1-.2-.2-.4-.3-.6 2.1-.4 3.4-1 3.8-1.8h-3.4v-.5h3.6c.1-.3.1-.6.2-.9h-3.3v-.5h3.4c0-.3 0-.6 0-.9h-3.2v-2h3.3v-1h-2.1v-1.4h-1.7v-.5zm1.1 3.5v1h2.7c0-.3 0-.4 0-.4 0-.1 0-.2 0-.2 0-.1 0-.2 0-.3h-2.7zm1.2-3v.9h3.5v-.9zm4.7 3h-2.6v.6.4h2.6z" fill="#fbfcfa"/><path d="m393.6 386.7h.6v1.5h2.7v6.1h1.1v.6h-11v-.6h1.1v-6.1h2.7v-1.5h.6v1.5h2.1v-1.5zm-2.7 8.8.4.6c-1.2.6-2.5 1.3-3.8 1.9-.1-.2-.2-.4-.3-.6 1.2-.6 2.5-1.2 3.7-1.9zm-2.2-6.7v2.4h2.1v-2.4zm0 3v2.5h2.1v-2.5zm2.8-3v2.4h2.1v-2.4zm0 3v2.5h2.1v-2.5zm6 6.1c-1.4-.7-2.7-1.3-3.9-1.8l.3-.6c1.5.6 2.7 1.2 3.9 1.7zm-1.2-9.1h-2.1v2.4h2.1zm-2.1 3v2.5h2.1v-2.5z" fill="#fbfcfa"/><g fill="#010101"><path d="m224.41 25.25c4.01 1.77 5.76 4.94 6.39 8.89.26 1.66.28 3.36.64 4.99.92 4.29 3.42 6.29 7.8 6.3 21.62.02 43.24.17 64.85-.11 5.06-.07 10.08-1.87 15.17-2.45 4.37-.49 8.86-.82 13.2-.36 3.67.39 5.25 3.5 4.82 7.21-.57 4.97-2.6 8.27-7.98 9.68-12.24 3.19-24.71 3.81-37.22 4.69-16.94 1.19-33.47-1.52-49.99-4.56-4.69-.86-6-.19-7.28 4.4-.56 2.02-.99 4.22-.8 6.28 1.25 13.09-1.19 25.9-2.81 38.75-1.35 10.73-2.52 21.34.74 31.91.13.42.17.88.22 1.32.75 6.34.88 7.21 7.26 7.55 7.75.42 15.59-.2 23.35-.85 6.21-.52 12.32-2.21 18.53-2.61 18.97-1.2 37.97-2.06 56.96-2.96 2.21-.1 4.51.12 6.67.63 1.9.46 3.93 1.2 5.41 2.41 2.96 2.42 2.21 5.67-1.33 6.95-9.78 3.53-19.55 7.1-29.35 10.57-1.2.43-2.8.91-3.82.46-3.38-1.48-6.49-.85-9.75.27-2.96 1.02-6.05 1.63-9 2.68-12.94 4.58-26.27 4.91-39.76 3.86-6.82-.53-13.02 1.26-17.73 6.29-2.19 2.34-3.95 2.69-6.48 1.13-.63-.39-1.41-.52-2.55-.93-.32 5.16-.71 10.03-.91 14.91-.87 20.68-2.06 41.37-2.35 62.06-.12 8.66 1.65 17.35 2.6 26.02 1.65 15.01 3.65 30 4.84 45.04.52 6.63-.5 13.39-1 20.08-.45 6.01-.45 6.26 5.54 7.38 7.52 1.41 14.92.11 22.31-1.23 8.91-1.62 17.86-3.02 26.77-4.64 1.6-.29 3.03-1.49 4.63-1.77 6.57-1.15 13.17-2.19 19.79-3.05.8-.1 2.26.99 2.59 1.84.96 2.47 1.51 5.11 2.3 7.99-4.35 1.49-8.54 2.94-12.75 4.35-11.97 4.03-23.94 8.06-35.92 12.07-1.05.35-2.18.86-3.23.77-8.51-.76-16.59 1.3-24.76 3.29-14.71 3.58-29.57 2.43-44.39.48-2.66-.35-5.3-1.02-7.97-1.15-4.1-.19-5.95-2.28-6.09-6.44 5.84-2.75 12.15-3.19 18.53-3.17 5.23.02 10.23-.64 14.76-3.61 3.23-2.12 5.39-4.73 5.05-8.78-.7-8.46-1.32-16.92-2.24-25.36-1.85-16.89-3.83-33.77-5.88-50.64-.55-4.54-.95-9.25-2.48-13.49-2.25-6.21-1.98-12.29-.74-18.44 1.44-7.16 1.34-14.17-.67-21.21-.47-1.63-.66-3.67-.11-5.22 2.14-5.99 2.12-12 1.2-18.18-.89-5.97-1.56-11.99-2.04-18-.21-2.67-1.39-4.25-3.82-4.67-2.72-.47-5.74-1.33-8.24-.63-9.83 2.74-19.57.76-29.35.2-11.32-.65-22.49-2.01-33.13-6.23-1.79-.71-2.84-.05-3.27 1.64-.73 2.91-1.85 5.84-1.89 8.78-.34 22.83-.42 45.65-.71 68.48-.06 4.23.43 8.19 2.46 11.96.58 1.07 1.09 2.82.62 3.72-4.21 7.89-3.94 16.67-5.18 25.12-.36 2.45-.99 4.2-3.46 5.09-5.12 1.84-8.25 5.43-10.26 10.57-3.23 8.28-9.47 14.48-15.37 20.97-6.37 7.01-12.09 14.62-17.98 22.06-4.77 6.01-10.75 9.61-18.63 10.19-.56-4.4-.58-8.32 2.42-12.07 3.9-4.88 7.06-10.36 10.85-15.34 5.08-6.67 8.76-13.9 11.01-22 .78-2.82 2.69-5.66 4.84-7.7 2.95-2.81 4.7-5.87 4.84-9.86.11-3.32 1.44-5.99 3.81-8.27 1.21-1.16 2.1-2.65 3.33-3.77 5.17-4.68 8.19-10.03 6.46-17.35-.33-1.41.5-3.28 1.23-4.73 1.55-3.11 2.11-6.16 1.4-9.66-1.09-5.37-1.62-10.84-2.63-16.22-.28-1.5-1.42-2.83-2.48-4.82-3.61 4.55-6.69 8.22-9.53 12.07-3.35 4.55-7.13 8.58-11.93 11.64-1.79 1.14-3.4 2.55-5.14 3.78-5.68 4-10.85 8.34-14.91 14.22-4.07 5.88-9.25 11.01-16.63 12.93-1.58.41-3.23.58-5.43.97 2.76-7.42 5.29-14.3 7.93-21.14.29-.76 1.15-1.34 1.84-1.89 16.21-12.96 27.4-29.51 35.48-48.48 2.65-6.22 6.88-11.75 9.95-17.81 4.99-9.86 10.02-19.7 11.75-30.88 1.1-7.11-1.07-13.75-1.62-20.61-.54-6.67-.5-13.39-.62-20.1-.09-5.04.06-10.08-.08-15.11-.03-1-.88-1.98-1.35-2.97-.92.58-2.17.93-2.72 1.76-9.64 14.25-20.39 27.54-33.55 38.7-4.14 3.51-8.89 6.3-13.36 9.42-.25-.2-.49-.41-.74-.61.51-1.86 1-3.74 1.55-5.59 1.04-3.54 2.22-7.04 3.16-10.6 1.18-4.46 2.61-8.6 6.56-11.64 1.93-1.49 3.2-4 4.4-6.25 8.69-16.13 17.12-32.4 25.98-48.44 4.53-8.2 9.61-16.13 14.8-23.94 3.17-4.77 7.86-7.16 14.53-6.08-1.27 37.75 1.65 75.29 5.44 113.6 7.74.38 15.75 1.19 23.75 1.08 16.89-.24 33.78-.91 50.66-1.57 1.36-.05 3.07-1.11 3.94-2.23 3.17-4.12 4.39-9.01 4.53-14.13.27-9.62-.29-19.31.77-28.84 2.94-26.57 6.54-53.07 9.88-79.59.04-.41.17-.82.3-1.42z"/><path d="m252.3 188.94c-1.58.42-2.47.65-3.52.93-.76-1.73-1.45-3.29-2.13-4.85.14-.13.27-.26.41-.38 1.54 1.26 3.09 2.53 5.24 4.3z"/></g></svg>