<svg enable-background="new 0 0 400 400" viewBox="0 0 400 400" xmlns="http://www.w3.org/2000/svg"><path d="m374.8 390.4.4-.4c.7.5 1.3 1 1.8 1.4l-.5.5c-.5-.6-1.1-1.1-1.7-1.5zm1 7.3-.6-.3c.5-1.4 1.1-2.8 1.5-4.3.2.1.4.2.6.3-.5 1.3-1 2.8-1.5 4.3zm-.4-10.3.4-.4c.4.3 1 .8 1.7 1.4l-.5.5c-.4-.5-1-1-1.6-1.5zm2.5.3h1.7v-1h.6v1h3.5v-1h.6v1h1.8v.5h-1.8v1.4h-2v1h3.2v2h-3.2v.9h3.3v.5h-3.4c0 .3-.1.6-.1.9h4v.5h-3.7c.7.9 1.9 1.5 3.8 1.7-.1.2-.2.4-.3.6-2.1-.4-3.5-1.1-4-2.1-.4 1-1.8 1.7-4 2.2-.1-.2-.2-.4-.3-.6 2.1-.4 3.4-1 3.8-1.8h-3.4v-.5h3.6c.1-.3.1-.6.2-.9h-3.3v-.5h3.4c0-.3 0-.6 0-.9h-3.2v-2h3.3v-1h-2.1v-1.4h-1.7v-.5zm1.1 3.5v1h2.7c0-.3 0-.4 0-.4 0-.1 0-.2 0-.2 0-.1 0-.2 0-.3h-2.7zm1.2-3v.9h3.5v-.9zm4.7 3h-2.6v.6.4h2.6z" fill="#fbfcfa"/><path d="m393.6 386.7h.6v1.5h2.7v6.1h1.1v.6h-11v-.6h1.1v-6.1h2.7v-1.5h.6v1.5h2.1v-1.5zm-2.7 8.8.4.6c-1.2.6-2.5 1.3-3.8 1.9-.1-.2-.2-.4-.3-.6 1.2-.6 2.5-1.2 3.7-1.9zm-2.2-6.7v2.4h2.1v-2.4zm0 3v2.5h2.1v-2.5zm2.8-3v2.4h2.1v-2.4zm0 3v2.5h2.1v-2.5zm6 6.1c-1.4-.7-2.7-1.3-3.9-1.8l.3-.6c1.5.6 2.7 1.2 3.9 1.7zm-1.2-9.1h-2.1v2.4h2.1zm-2.1 3v2.5h2.1v-2.5z" fill="#fbfcfa"/><g fill="#010101"><path d="m105.98 240.66c-.41-2.24-.85-4.63-1.33-7.29 5.16-1.84 10.39-1.87 15.58-1.37 9.23.89 18.44 2.04 27.66 3.13 8.57 1.02 9.53.18 9.03-8.15-.19-3.24-.38-6.48-.61-9.71-.19-2.69-1.21-4.32-4.23-5.1-10.27-2.65-20.5-5.5-30.62-8.68-5.28-1.66-9.67-4.96-12.98-9.81 3.04-1.81 5.97-1.37 8.8-.23 11.11 4.48 22.79 5.15 34.55 5.44 1.97.05 3.06-.31 3.27-2.62.28-3.09 1.05-6.14 1.63-9.36 2.74-.17 4.51 1.17 5.38 3.31 1 2.45 1.48 5.12 2.2 7.69.8 2.85 1.63 5.7 2.39 8.56.2.73.23 1.51.28 2.28.23 3.62.4 7.25.66 10.87.26 3.56.66 7.11.93 10.67.37 4.91 1.1 5.62 6 6.03 12.03.99 24.06 2.02 36.08 3.07 1.44.13 2.98.23 4.27.8 5.09 2.25 10.14 2.33 15.35.48.95-.34 2.16-.19 3.2.01 3.26.6 6.48 1.4 9.74 2.01 9.77 1.83 19.55 3.6 29.31 5.46.63.12 1.6.83 1.62 1.29.02.73-.48 1.98-1.02 2.15-2.52.77-5.14 1.78-7.71 1.73-20.57-.4-41.14-.92-61.71-1.63-7.81-.27-15.6-1.25-23.41-1.69-2.75-.15-5.54.33-8.58.55 0 1.29-.02 2.28 0 3.27.48 25.17.94 50.34 1.45 75.51.17 8.6.54 17.2.61 25.8.02 2.13.77 3.26 2.68 3.47 4.09.45 8.21.71 12.31 1.02 2.89.22 5.85.07 8.64.7 1.92.43 3.59 1.91 5.64 3.07-2.93 3.44-6.26 4.92-9.91 5.54-7.38 1.25-14.94 3.76-22.16 3.06-14.07-1.37-27.44 3.54-41.24 2.89-3.97-.19-7.89-1.95-11.75-3.24-.98-.33-1.64-1.61-2.95-2.98 4.65-1.2 7.84-3.26 12.76-2.7 6.7.76 13.75-.86 20.55-2.04 4.24-.74 8.31-2.51 12.43-3.88 1.94-.65 2.7-2.03 2.57-4.13-.65-10.83-1.41-21.66-1.76-32.5-.39-12.18-.24-24.37-.56-36.55-.28-10.59-.71-21.18-1.43-31.75-.38-5.61-1.66-5.93-7.2-6.47-13.85-1.35-27.96-1.36-41.11-7.01-1.45-.64-3.2-.61-5.3-.97z"/><path d="m130.91 159.35c2.67-.41 5.34-1.15 8.01-1.15 6.23.01 12.47.4 18.7.58 3.02.08 6.05.07 9.07.01 18.14-.36 36.25.04 54.24 2.7 3.51.52 5.36-1.07 6.26-4.06.57-1.9.83-3.93.99-5.92 1.28-15.94 2.5-31.89 3.75-47.84.08-1 .36-2.03.23-3.01-1.78-13.89 1.23-27.68.77-41.53-.15-4.57-.64-9.14-1.33-13.66-.19-1.21-1.54-2.96-2.63-3.2-5.75-1.28-11.58-2.22-17.4-3.14-4.7-.74-8.62-2.63-11.56-6.88 5.08-2.46 10.21-2.29 15.32-2.21 4.59.07 9.18.06 13.75.38 2.37.17 2.72-1.52 3.52-2.89 1.71-2.92 3.2-3.56 5.33-1.09 4.49 5.24 10.43 5.5 16.47 5.93 2.65.19 5.35.42 7.24 3.38-4.76 2.26-9.27 4.7-14.01 6.54-3.41 1.32-5.15 3.61-5.24 6.93-.18 6.68.03 13.38.05 20.07.01 3.12-.15 6.23-.09 9.35.05 2.86.55 5.73.38 8.57-.22 3.76-.91 7.49-1.38 11.24-.17 1.32-.48 2.66-.43 3.98.8 18.65-.12 37.25-1.77 55.81-.27 3.08.61 5.01 3.3 5.42 4.68.72 9.47 1.32 14.19 1.16 10.39-.36 20.24 1.41 29.52 6.12.96.49 1.81 1.2 2.9 1.93-3.03 2.53-6.3 2.57-9.36 1.55-5.51-1.83-11.02-1.19-16.56-.75-3.79.3-7.57.83-11.37.89-2.18.03-4.4-.56-6.56-1.06-3.62-.85-5.41.05-6.04 3.64-.95 5.46-2.89 10.75-1.85 16.54.31 1.72-1.24 3.94-2.3 5.71-3.27 5.49-1.95 8 4.47 8.33 12.7.65 25.39 1.3 38.08 2.1 1.06.07 2.06 1.26 3.08 1.92-.77.81-1.4 2.09-2.32 2.35-5.25 1.48-10.5 3.23-15.87 3.94-9.2 1.22-18.52 1.9-27.69-.35-3.22-.79-6.39-2.13-9.29-3.74-4.05-2.24-3.88-5.38-.12-8.02.85-.6 1.47-2.12 1.48-3.23.06-8.82.03-17.64-.22-26.46-.03-1.23-1.15-3.23-2.14-3.5-4.9-1.32-9.89-2.51-14.92-3.13-7.75-.95-15.55-1.4-23.34-2.05-.66-.06-1.46-.28-1.98-.01-5.18 2.71-10.45 1.03-15.74.59-3.97-.33-8.02.19-11.99-.2-6.29-.62-12.62-1.36-18.77-2.74-2.58-.58-4.77-2.91-7.13-4.44.11-.46.2-.93.3-1.4z"/></g></svg>