<svg enable-background="new 0 0 400 400" viewBox="0 0 400 400" xmlns="http://www.w3.org/2000/svg"><g fill="#010100"><path d="m163.33 39.83c5.8 6.82 9.39 13.78 8.16 22.36-.93 6.52-2.35 12.98-3.53 19.47-.14.76-.49 1.94-.14 2.25 3.56 3.22 1.26 6.91.79 10.33-.27 2.01.04 3.33 1.5 4.71 3.41 3.23 6.59 6.71 10.06 9.88 1 .91 2.67 1.47 4.05 1.5 3.35.08 6.73-.57 10.05-.33 13.15.96 25.75-2.24 38.51-4.49 4.62-.81 9.56-.26 14.28.31 1.51.18 2.78 2.43 4.16 3.73-1.06 1.12-1.94 2.68-3.24 3.23-1.65.71-3.66.6-5.51.84-2.91.38-6.02.25-8.7 1.25-8.43 3.15-16.99 5.59-26.01 5.96-4.9.2-9.82.04-15.25.04v2.61c0 9.16-.13 18.32.11 27.48.06 2.19 1.03 4.57 2.22 6.46 1.47 2.34 3.54 4.32 5.46 6.35 3.76 3.96 8.93 3.85 12.9.19 1.85-1.71 4.21-2.88 6.38-4.22 1.8-1.11 3.87-1.88 5.43-3.25 2.05-1.8 2.77-3.94 1.23-6.82-2.59-4.85-5.47-9.08-10.84-11.35-3.4-1.43-3.76-4.95-4.03-8.4 3.41-.47 6.04.26 8.49 2.81 6.97 7.27 14.27 14.22 21.27 21.47 1.9 1.97 3.82 2.91 6.46 2.41.33-.06.67-.1 1-.07 5.53.61 9.13-1.57 10.7-7.06.35-1.22 1.19-2.46 2.14-3.33 3.21-2.92 5.81-2.16 6.99 1.93 2.37 8.22 1.23 16.43-.32 24.59-.96 5.02-1.17 9.78 2.3 13.99 1.61 1.95 1.74 3.99.6 6.2-2.87 5.57-1.09 11.43-.85 17.15.13 3.23.25 6.17-2.05 8.78-.52.59-.84 1.98-.5 2.6 3.82 7.06 4.95 14.83 5.88 22.59.69 5.76.93 11.59 1.01 17.4.08 5.44-.31 5.69-5.87 7.69-2.06-9.6-3.96-19.2-6.23-28.72-2.01-8.47-4.34-16.86-6.74-25.23-.41-1.43-1.64-2.91-2.9-3.77-5.8-3.99-11.83-7.66-17.61-11.68-3.1-2.16-6.1-2.31-9.49-1.07-5.27 1.93-8.42-.02-8.86-5.72-.25-3.24-1.38-5.81-3.8-7.88-5.41-4.63-10.82-9.27-16.35-14-4.7 4.93-6.41 10.07-5.93 15.89 1.94 23.3-2.82 45.83-7.68 68.36-.35 1.62-.99 3.19-1.72 5.49-.47-1.36-.77-2.08-.97-2.84-.64-2.49-1.26-4.98-1.84-7.48-.97-4.13-2.78-8.3-2.63-12.4.14-3.87 2.35-7.67 3.3-10.46-.64-2.72-1.38-4.6-1.47-6.5-.31-6.93-.46-13.87-.55-20.8-.06-4.87.32-9.65 1.05-14.53.9-6.02-.34-12.39-.93-18.58-.09-.92-1.61-2.17-2.68-2.44-10.68-2.7-14.98-12.1-20.78-19.81-1.32-1.76-1.46-4.65-1.54-7.05-.28-8.47-.47-16.96-.38-25.44.09-8.6.41-17.2.98-25.78.15-2.29 1.83-4.44 2.44-6.75 1-3.83 1.87-7.72 2.46-11.64.31-2.07.23-4.31-.23-6.35-1.8-8.04 2.38-14.43 5.79-22.06zm91.55 132.06c-4.97 2.84-9.39 5.33-13.77 7.91-.47.28-.94 1.13-.87 1.64.41 3.02.22 6.47 1.67 8.91 2.42 4.07 5.82 7.61 9.05 11.15 1.52 1.67 4.14 2.42 5.56.37 1.59-2.29 3.31-5.42 2.98-7.92-.93-7.14-2.87-14.13-4.62-22.06zm-31.82 7.9c2.13-.6 4.59-.72 6.33-1.9 3.59-2.44 6.84-5.4 10.14-8.25.47-.41.69-1.38.65-2.08-.24-4.94-6.14-8.41-10.62-6.25-3.82 1.85-7.6 3.79-11.38 5.73-.68.35-1.52.73-1.84 1.34-1.92 3.55 2.61 11.02 6.72 11.41zm-47.8-33.92c4-1.55 2.85-5 3.13-7.6.25-2.36-1.53-3.2-4.08-3.13.31 3.51.61 6.93.95 10.73z"/><path d="m229.4 280.31c1.59 5.34 3.05 10.72 4.83 16 1.03 3.04 2.35 6.03 3.96 8.8 1.43 2.46 3.64 3.58 6.44 1.53.89-.65 1.94-1.13 2.98-1.53 3.12-1.21 5.56-2.81 4.69-6.78-.11-.48.12-1.13.38-1.59 3.51-6.21 7.06-12.4 10.64-18.68 3.38 1.56 4.71 3.99 3.98 7.39-1.16 5.41-3.1 10.43-6.87 14.68-6.01 6.78-11.75 13.8-17.84 20.51-3.32 3.66-3.91 7.73-2.64 12.12 1.07 3.71 1.41 7.15-.55 10.69-.34.61.14 2.08.72 2.73 6.36 7.15 8.18 15.61 7.71 24.89-.17 3.39-2.28 4.65-4.82 3.87-4.51-1.38-9.67-2.58-12.97-5.59-8.98-8.21-17.16-17.33-22.64-28.43-.68-1.38-1.14-3.17-.91-4.65.34-2.21-.51-3.07-2.25-4.15-1.56-.97-3.36-2.56-3.77-4.2-2.05-8.08-3.67-16.26-5.4-24.2 2.85-1.56 4.11-.82 5.26.94 4.27 6.56 8.61 13.07 12.94 19.59 2.39 3.6 8.17 3.82 10.17-.07 2.1-4.09 4.11-8.61 4.5-13.09.54-6.05-.72-12.24-.79-18.37-.05-4.13.61-8.28.95-12.41.45-.02.88-.01 1.3 0zm-4.76 49.32c-4.47 8.96-4.08 15.8.56 21.07 1.84 2.08 4.81 2.39 6.74.52 1.19-1.15 2.18-2.53 3.12-3.9 1.08-1.59 1.21-3.02-.92-4.01-3.38-1.58-4.96-4.47-5.99-7.97-.54-1.84-2.04-3.4-3.51-5.71z"/><path d="m130.19 246.16c-5.3 6.71-11.85 10.35-20.73 9.08-.65-2.31-.32-4.12 1.79-5.99 8.39-7.4 16.59-15.02 25.37-23.02 1.19 2.09 2.76 3.83 3.2 5.81 1.64 7.5 3.5 15.03 4.2 22.65 1.23 13.47 1.91 27.01 2.35 40.54.26 8.02-.47 16.08-.57 24.12-.07 5.56-.1 11.15.34 16.68.34 4.26.3 8.18-2.76 11.78-3.23-3.33-4.62-7.27-5.19-11.51-.37-2.77-.66-5.58-.6-8.36.13-6.13-.71-11.99-3.19-17.67-.82-1.86-1.02-4.13-1-6.21.13-11.86.32-23.72.72-35.58.11-3.32.82-6.66 1.62-9.9 1.46-5.88.2-9.11-5.55-12.42z"/><path d="m267.24 134.48c-1.27-3.5-1.03-5.85 1.77-8.34 9.61-8.56 9.72-24.1 6.68-33.1-.55-1.64-3.51-2.29-5.09-1.41-4.91 2.74-9.86 5.41-15.78 8.64 0-2.17-.38-3.41.07-4.13 1.48-2.35 3.3-4.49 4.93-6.74 1.58-2.18 3.09-4.4 4.63-6.6.42.42.84.83 1.26 1.25.02-.21.12-.47.05-.64-2.16-4.84-2.4-5.11 1.82-8.67 3.41-2.88 3.94-6.07 3.2-10.07-1.42-7.69-2.91-15.38-3.93-23.13-.8-6.05.25-11.81 5.13-16.51 2.88 3.17 3.96 6.84 3.75 10.78-.24 4.57-.67 9.16-1.42 13.67-.48 2.88.07 5.28 1.59 7.6 2.23 3.4 3.06 7 2.59 11.12-.21 1.79.59 3.95 1.55 5.58 5.72 9.77 8.54 20.26 7.09 31.48-.7 5.45-2.8 10.73-4.34 16.06-.2.69-.78 1.37-1.36 1.84-4.6 3.74-9.25 7.4-14.19 11.32z"/><path d="m128.76 120.75c9.45 8.34 14.81 43.82 7.92 51.76 3.34 2.03 2.39 4.73 1.09 7.49-1.28 2.73-2.63 5.43-3.78 8.21-4.63 11.17-14.41 14.09-25.01 15.68-.58.09-1.27-.54-1.92-.83.39-.72.62-1.62 1.19-2.14 6.45-5.86 12.89-11.75 19.49-17.44 2.08-1.79 2.77-3.6 2.67-6.31-.66-17.87-1.13-35.75-1.66-53.62-.01-.84.01-1.68.01-2.8z"/></g><path d="m6.4 11.7c-1-.8-1.9-1.6-2.9-2.3l.6-.7c.9.7 1.9 1.4 2.9 2.2zm-2.1 8.3c.7-2.1 1.4-4.2 2-6.4.2.1.6.3 1 .4-.7 2.3-1.3 4.4-1.9 6.4zm3-12.8c-1.1-.9-2.1-1.7-2.9-2.4l.6-.7c1 .8 2 1.5 3 2.4zm1.4-1.3v-.9h10.2v.9c-.9 4.2-2.3 7.3-4.1 9.4 1.3 1.4 3.2 2.7 5.7 4-.2.2-.4.5-.7.9-2.5-1.4-4.4-2.7-5.7-4.2-1.4 1.5-3.5 3-6.1 4.4 0 0 0 0-.1-.1-.3-.4-.5-.7-.7-.8 2.7-1.3 4.7-2.8 6.2-4.2-1.8-2.2-3-5.3-3.7-9.4zm9.2 0h-7.1c.6 3.8 1.7 6.7 3.4 8.7 1.7-2 2.9-4.8 3.7-8.7z" fill="#fafbfa"/><path d="m31.6 3.6h.9v2.3h4.1v9.1h1.7v.9h-16.6v-.9h1.7v-9.1h4.1v-2.3h.9v2.3h3.1v-2.3zm-4 13.3.6.8c-1.9.9-3.8 1.9-5.8 2.8-.2-.3-.3-.6-.5-.9 2-.9 3.9-1.8 5.7-2.7zm-3.2-10.1v3.7h3.1v-3.7zm0 4.5v3.7h3.1v-3.7zm4.1-4.5v3.7h3.1v-3.7zm0 4.5v3.7h3.1v-3.7zm9.1 9.1c-2.1-1.1-4.1-2-5.8-2.7l.5-.8c2.2.9 4.1 1.8 5.8 2.6zm-1.9-13.6h-3.1v3.7h3.1zm-3.2 4.5v3.7h3.1v-3.7z" fill="#fafbfa"/></svg>