<svg enable-background="new 0 0 400 400" viewBox="0 0 400 400" xmlns="http://www.w3.org/2000/svg"><path d="m225.96 374.35c-3.96-11.74-7.97-23.21-11.66-34.79-1.11-3.48-1.26-7.25-1.97-10.87-2.22-11.28-4.99-22.48-6.65-33.85-3.51-24.1-4.35-48.33-2-72.63.28-2.86-.66-5.83-.92-8.77-.14-1.52-.18-3.09.01-4.6.34-2.66 1.45-5.32 1.28-7.92-.9-14.08 2.29-28.18-.29-42.22-.31-1.67-1.2-3.88-2.5-4.6-4.55-2.5-9.2-5.47-14.17-6.44-14.08-2.73-27.13-8.02-40.16-13.71-9.9-4.32-20.19-7.78-30.33-11.53-3.22-1.19-5.79-2.89-6.63-6.45-.48-2.04.07-3.68 2.28-4.03 2.5-.4 5.18-1.07 7.55-.56 21.45 4.59 42.52 10.45 62.52 19.7 6.08 2.81 12.33 5.27 18.42 8.07 2.9 1.34 5 .42 6.05-2.13 1-2.41 1.57-5.15 1.66-7.76.14-4.12-.58-8.28-.41-12.4.27-6.54.4-13.18 1.63-19.57 1.44-7.51 2.37-14.87 1.99-22.57-.27-5.35 1.09-10.81 1.98-16.18 1.8-10.81 6.51-21.28 3.05-32.89 4.97.38 8.14 2.79 9.31 6.66 1.47 4.85 2.65 9.99 2.7 15.02.1 11.62-.52 23.25-.95 34.87-.05 1.39-.37 2.97-1.12 4.09-2.29 3.42-2.89 7.07-2.8 11.11.17 7.58.69 15.23-1.94 22.59-.21.59-.37 1.43-.1 1.91 3.05 5.6 1.76 11.24.41 16.96-1.23 5.23.69 8.92 6.12 9.85 14.34 2.44 26.82 9.68 40.09 14.84 4.57 1.78 8.97 4 13.39 6.14 3.19 1.54 4.08 4.17 3.06 7.74-8.81-1.26-17.54-2.4-26.23-3.83-1.65-.27-3.03-1.86-4.67-2.49-7.92-3-15.78-6.19-23.86-8.7-5.56-1.73-7.5.06-7.99 5.92-.07.88-.13 1.85.13 2.66 1.89 5.81 1.65 11.65.58 17.55-1.49 8.22.97 16.21 1.54 24.31.09 1.34.3 2.67.46 4 .59 4.81.39 9.92 5.11 13.13 4.98 11.61 15.3 18.42 24 26.69 2.75 2.62 5.68 5.18 7.85 8.25 1.92 2.72 3.54 5.99 4.14 9.23.82 4.47 3.38 7.47 6.45 10.23 3.03 2.72 3.95 6.03 3.85 9.95-2.86 1.09-5.24.79-7.98-.66-7.8-4.15-13.81-9.86-18.33-17.52-2.28-3.85-5.68-7.13-8.98-10.24-5.36-5.05-11.06-9.75-17.55-15.42-.59 3.98-1.24 7.13-1.5 10.32-.43 5.44-.75 10.9-.82 16.35-.02 1.9.52 3.98 1.38 5.69 1.8 3.57 2.35 7.09 1.09 10.93-2.4 7.28-1.96 14.49.96 21.53 2.57 6.19.65 12.38-.03 18.51-.41 3.72-.4 7.05 1.93 10.14 2.33 3.08 3 6.55 2.81 10.4-.24 4.69-.24 9.41.01 14.09.15 3.01-.93 4.9-3.25 5.9z" fill="#010102"/><g fill="#fcfbfa"><path d="m385.2 377.6.6-.7c.6.4 1.3.9 1.9 1.5l-.6.7c-.8-.5-1.4-1-1.9-1.5zm.3 7.1c.6-1.4 1.1-2.9 1.5-4.5.3.1.6.3.9.4-.5 1.4-1 2.9-1.5 4.4zm.2-10.1.6-.6c.7.5 1.3 1.1 1.9 1.6l-.7.7c-.6-.6-1.2-1.2-1.8-1.7zm8.4-.8h.8v.9h1.8v.7h-1.8v1.8h-.8v-.3h-1.2v.9h3.3v2.6h-.8v-.4h-2.5c0 .3 0 .6-.1.8h3.4v.7h-3.5c0 .3-.1.6-.1.8h4v.7h-3.5c.7.9 1.9 1.3 3.6 1.5-.2.2-.4.5-.6.9-1.9-.3-3.2-1.1-3.8-2.3-.5 1.1-1.8 2-3.9 2.4-.2-.3-.4-.5-.6-.8 1.9-.4 3.1-.9 3.6-1.7h-3.2v-.7h3.5c.1-.2.1-.5.2-.8h-3.3v-.7h3.4c0-.2 0-.5 0-.8h-2.4v.3h-.8v-2.6h3.3v-.9h-1.2v.3h-.8v-1.8h-1.8v-.7h1.8v-.9h.8v.9h3.2zm-4.4 5.5h2.4c0-.3 0-.6 0-.9h-2.4zm1.2-3.1h3.2v-.8h-3.2zm4.4 2.2h-2.4v.9h2.5v-.9z"/><path d="m389.2 385.8h.9v1.5h1.9v-1.5h.9v1.5h2.7v6h1.1v.9h-11.3v-.9h1.1v-6h2.7zm.2 8.7.5.8c-1.2.6-2.5 1.3-4 1.9-.2-.3-.3-.6-.6-.8 1.6-.6 3-1.3 4.1-1.9zm-2-4.3h1.9v-2.1h-1.9zm0 3.1h1.9v-2.2h-1.9zm2.7-3.1h1.9v-2.1h-1.9zm0 3.1h1.9v-2.2h-1.9zm2.4 1.3c1.4.6 2.7 1.2 4.1 1.8l-.5.9c-1.5-.7-2.8-1.4-4.1-1.9zm2.2-6.5h-1.9v2.1h1.9zm-1.9 5.2h1.9v-2.2h-1.9z"/></g></svg>