<svg enable-background="new 0 0 400 400" viewBox="0 0 400 400" xmlns="http://www.w3.org/2000/svg"><g fill="#010102"><path d="m299.94 163.73c-2.61 2.01-5.08 1.47-7.67.28-3.03-1.4-6.18-2.53-9.22-3.91-.96-.44-1.79-1.23-2.58-1.96-4.02-3.7-7.61-8.01-12.08-11.05-14.99-10.22-27.61-23.11-40.99-35.16-1.19-1.07-2.69-2.12-4.21-2.47-14.33-3.27-28.03-8.35-41.57-13.94-9.64-3.98-19.74-3.2-29.78-2.43-4 .31-7.94 1.38-11.94 1.67-3.65.26-5.25 2.39-6.3 5.43-2.28 6.58-1.35 13.27-.65 19.94.68 6.43 2.53 12.44 6.28 17.82 1.59 2.29 3.01 4.73 4.2 7.25 2.62 5.5 6.45 9.79 11.6 13.08 1.47.94 2.71 2.66 3.43 4.3 4.46 10.12 8.74 20.32 13.11 30.58-2.5 1.76-4.76 2.11-7.03-.37-1.05-1.14-2.36-2.05-3.61-3-8.8-6.63-16.9-13.96-23.42-23.37-.09 1.91-.43 3.84-.23 5.72.84 8.11 1.41 16.29 2.88 24.3 2.42 13.19 2.62 26.48 2.65 39.78.01 5.32.74 10.37 2.48 15.44 1.06 3.09 1.03 6.58 1.34 9.9 1.21 13.02 2.57 26.02 3.46 39.06.49 7.13.19 14.32.21 21.48.02 7.49 0 14.97 0 22.42-2.98 1.26-4.78.34-5.48-2.47-1.8-7.25-3.58-14.5-5.2-21.78-2.16-9.7-4.5-19.38-6.11-29.17-1.36-8.24-2.38-16.61-2.54-24.95-.41-21.44-3.38-42.6-6.59-63.71-4.48-29.48-7.29-59.07-7.05-88.88.07-8.39-1.52-15.74-7.11-22.23-4.56-5.3-7.22-11.69-9.55-18.3-3.56-10.11-7.8-19.98-11.34-30.09-1.14-3.26-1.2-6.95-1.37-10.47-.04-.94 1.18-2.56 2.09-2.78 1.71-.41 3.6-.6 4.85 1.68 5.28 9.6 10.75 19.1 16.15 28.63.54.95 1.13 1.88 2.65 2.88 1.2-5.3 2.4-10.6 3.6-15.89 1.03-4.55 1.55-9.32 3.27-13.59 1.25-3.1 4.12-5.54 6.76-8.04 2.74 6.68 3.18 13.25 3.14 19.95-.06 10.39.43 20.79.23 31.17-.1 5.45 5.74 9.45 10.73 5.96 2.86-2 7.08-2.8 10.7-2.83 13.52-.1 27.09-.34 40.46 2.38.99.2 2 .35 2.93.69 2.34.85 3.72.22 4.64-2.2.39-1.02 1.66-2.04 2.73-2.32.5-.13 1.86 1.35 2.15 2.31 1.08 3.52 2.93 5.55 6.95 5.1 1.11-.13 2.33.61 3.48.98.31.1.59.32.88.49 17 9.48 34 18.75 46.41 34.66 4.93 6.32 12.41 10.58 18.19 16.31 3.82 3.78 6.76 8.47 9.97 12.84 3.05 4.17 5.92 8.44 9.02 12.88z"/><path d="m173.61 130.1c5.64 2.78 9.62 6.83 12.8 11.61 3.71 5.58 7.21 11.31 10.66 17.06 2 3.33 4.32 6.24 7.86 7.99 2.21 1.09 3.05 2.72 3.26 5.28.19 2.29 1 4.97 2.5 6.61 5.06 5.58 8.12 11.88 8.93 19.36.16 1.5.52 3.32 1.48 4.35 8.01 8.66 8.81 18.78 6.9 29.78-1.24 7.15-2.03 14.42-2.37 21.67-.22 4.63.78 9.32 1.13 13.99.52 7.03.53 14.12 1.53 21.08 1.06 7.38 2.64 14.73 4.69 21.9 2.74 9.6 3.86 19.24 3.15 29.17-.76 10.71-1.26 21.44-2.03 32.16-.08 1.13-1.21 2.18-1.85 3.26-.43-.13-.87-.26-1.3-.38-1.13-5.06-2.29-10.12-3.4-15.19-3.76-17.25-7.66-34.47-11.16-51.77-.96-4.77-.42-9.83-1.07-14.69-1.06-7.95-2.53-15.84-3.82-23.76-.18-1.09-.52-2.23-.38-3.3.86-6.55-.13-12.92-1.56-19.28-1.98-8.8-1.17-17.62.51-26.31 1.77-9.16-2.43-15.9-8.33-23.13 0 2.1-.11 3.38.02 4.63 1.24 12.62-1.34 24.97-2.74 37.39-1.12 9.89-2.39 19.76-3.83 29.61-.46 3.17-1.45 6.31-2.57 9.33-1.05 2.84-3.13 4.84-7.04 5.4-.82-6.02-1.73-11.95-2.41-17.9-.66-5.75-.91-11.29 1.03-17.15 1.55-4.68.65-10.19.71-15.33.17-14.88.11-29.77.51-44.64.13-4.99 1.38-9.94 2.05-14.92.13-.95.24-2.09-.16-2.88-3.96-7.83-7.86-15.69-12.11-23.35-3.11-5.62-4.05-11.21-1.59-17.65z"/><path d="m305.91 342.62c-.57.49-.64.6-.73.63-7.88 2.5-7.87 2.5-11.17-5.04-6.9-15.76-14.23-31.35-20.55-47.34-3.22-8.14-4.71-16.97-6.83-25.53-2.21-8.89-4.13-17.85-6.41-26.72-1.22-4.74-.88-9.26.48-13.86 1.58-5.35 3.16-10.71 4.43-16.13 1.35-5.76.42-11.47-2.18-16.66-2.92-5.84-6.44-11.37-9.7-17.04-.43.12-.85.23-1.28.35-.3 4.51-.76 9.01-.85 13.53-.16 7.93.15 15.88-.21 23.8-.28 6.17-2.74 10.14-7.49 13.43-1.32-2.7-2.76-5.28-3.87-7.99-3.72-9.06-4.66-18.59-4.48-28.29.19-10.29.45-20.58.59-30.87.07-5.18-2.54-9.38-5.25-13.54-1.7-2.61-3.62-5.2-4.64-8.08-.93-2.61-.78-5.6-1.14-8.74 4.08-.25 6.92 1.03 9.16 3.23 9.63 9.49 19.52 18.75 28.59 28.75 12.12 13.36 18.79 29.6 21.12 47.34.66 5.06-1.3 10.51-2.36 15.72-.51 2.49-1.7 4.84-2.61 7.24-2.22 5.82-2.5 11.53.86 17.07 4.68 7.72 4.6 16.69 6.55 25.13.5 2.15 1.12 4.35 2.15 6.28 6.73 12.55 13.02 25.32 15.5 39.45 1.39 7.87 1.6 15.97 2.32 23.88z"/></g><path d="m385.2 377.6.6-.7c.6.4 1.3.9 1.9 1.5l-.6.7c-.8-.5-1.4-1-1.9-1.5zm.3 7.1c.6-1.4 1.1-2.9 1.5-4.5.3.1.6.3.9.4-.5 1.4-1 2.9-1.5 4.4zm.2-10.1.6-.6c.7.5 1.3 1.1 1.9 1.6l-.7.7c-.6-.6-1.2-1.2-1.8-1.7zm8.4-.8h.8v.9h1.8v.7h-1.8v1.8h-.8v-.3h-1.2v.9h3.3v2.6h-.8v-.4h-2.5c0 .3 0 .6-.1.8h3.4v.7h-3.5c0 .3-.1.6-.1.8h4v.7h-3.5c.7.9 1.9 1.3 3.6 1.5-.2.2-.4.5-.6.9-1.9-.3-3.2-1.1-3.8-2.3-.5 1.1-1.8 2-3.9 2.4-.2-.3-.4-.5-.6-.8 1.9-.4 3.1-.9 3.6-1.7h-3.2v-.7h3.5c.1-.2.1-.5.2-.8h-3.3v-.7h3.4c0-.2 0-.5 0-.8h-2.4v.3h-.8v-2.6h3.3v-.9h-1.2v.3h-.8v-1.8h-1.8v-.7h1.8v-.9h.8v.9h3.2zm-4.4 5.5h2.4c0-.3 0-.6 0-.9h-2.4zm1.2-3.1h3.2v-.8h-3.2zm4.4 2.2h-2.4v.9h2.5v-.9z" fill="#fcfbfa"/><path d="m389.2 385.8h.9v1.5h1.9v-1.5h.9v1.5h2.7v6h1.1v.9h-11.3v-.9h1.1v-6h2.7zm.2 8.7.5.8c-1.2.6-2.5 1.3-4 1.9-.2-.3-.3-.6-.6-.8 1.6-.6 3-1.3 4.1-1.9zm-2-4.3h1.9v-2.1h-1.9zm0 3.1h1.9v-2.2h-1.9zm2.7-3.1h1.9v-2.1h-1.9zm0 3.1h1.9v-2.2h-1.9zm2.4 1.3c1.4.6 2.7 1.2 4.1 1.8l-.5.9c-1.5-.7-2.8-1.4-4.1-1.9zm2.2-6.5h-1.9v2.1h1.9zm-1.9 5.2h1.9v-2.2h-1.9z" fill="#fcfbfa"/></svg>