<svg enable-background="new 0 0 400 400" viewBox="0 0 400 400" xmlns="http://www.w3.org/2000/svg"><path d="m355.42 82.58c-10.89 2.32-21.34 2.21-31.59.39-25.97-4.6-51.85-9.76-77.79-14.57-2.2-.41-4.59-.04-6.85.29-1.75.26-3.5.84-5.11 1.59-5.17 2.39-9.85 2.19-15.2-.4-3.7-1.79-8.49-1.41-12.82-1.77-7.69-.63-15.39-1.16-23.1-1.56-2.06-.11-4.24.16-6.22.73-5.26 1.52-10.49 3.16-15.63 5.03-6.05 2.19-11.98 3.45-18.61 2.51-14.44-2.06-28.8.41-43.09 2.28-8.73 1.15-17.34 3.19-25.97 4.99-.96.2-2.49 1.62-2.39 2.28.92 6.38-2.13 11.6-4.99 16.7-2.62 4.67-3.09 9.23-2.17 14.4 1.21 6.71 1.84 13.52 2.66 20.29.1.85-.12 1.74-.21 2.62-.02.22-.07.45-.16.65-6.04 13.45-6.54 27.56-5.58 42.01.78 11.82 1.03 23.72.76 35.57-.31 13.97-1.39 27.93-2.22 41.9-.95 16.09-2 32.17-2.99 48.25-.06.99-.01 1.98-.01 3.29 3.28.2 6.41.19 9.48.62 7.5 1.06 14.94 2.61 22.46 3.42 5.85.63 11.8.79 17.69.56 9.61-.36 19.19-1.71 28.79-1.76 41.53-.2 83.06-.13 124.6-.06 10.96.02 21.63-1.62 31.99-5.07 11.03-3.67 22.15-6.32 33.89-4.83.3.04.63-.09 1.28-.19.14-3.09.45-6.19.4-9.29-.36-20.91 3.07-41.46 5.83-62.07.99-7.43 2.39-14.83 2.88-22.29.32-4.96-.31-10.06-1.13-15-1.63-9.86-.31-19.57.54-29.37 1.7-19.61 5.31-38.75 12.23-57.2 1.49-3.96 3.36-7.8 5.42-11.49.57-1.02 2.42-1.74 3.73-1.82 2.09-.13 4.29.14 6.3.72 1.42.4 3.16 1.28 3.84 2.47 5.02 8.85 7.8 18.28 6.32 28.6-2.81 19.66-3.99 39.41-2.12 59.22.82 8.72-1.58 16.78-3.49 25.04-1.06 4.61-1.42 9.43-1.59 14.17-.47 13.18-.37 26.38-1.14 39.53-.31 5.27-2.05 10.52-3.61 15.63-2.22 7.3-2.29 14.36-.05 21.74 1.13 3.71.88 7.9.8 11.86-.02 1.13-1.45 2.74-2.61 3.25-16.87 7.45-33.68 15.04-50.79 21.91-5.71 2.3-12.17 2.74-18.31 3.93-12.51 2.42-25.02 4.85-37.57 7.09-2.55.45-5.5.73-7.86-.09-7.28-2.51-14.34-.92-21.47.29-8.82 1.49-17.66 2.9-26.45 4.55-1.44.27-3.12 1.27-3.91 2.45-1.22 1.82-2.38 2.08-4.14 1.19-.1-.05-.21-.07-.31-.12-14.96-6.48-30.59-8.8-46.8-7.47-1.89.15-3.81.09-5.71.01-17.62-.69-35.12.15-52.24 4.7-7.1 1.89-12.99-1.24-18.71-4.22-4.4-2.29-8.54-4.2-13.6-3.69-1.63.16-3.33-.27-4.99-.5-3.74-.52-6.13-2.23-7.13-6.27-.59-2.39-2.4-4.69-4.19-6.51-3.21-3.27-6.94-6.02-10.18-9.26-1.08-1.08-1.97-3.02-1.89-4.5 1.08-19.78 2.68-39.53 3.45-59.32.51-13.06-.1-26.17-.25-39.26-.05-4.03-.08-8.06-.4-12.08-.81-10.39-.01-20.47 4.19-30.2 1-2.31.93-5.25.76-7.86-1.14-16.97-2.83-33.91-3.51-50.9-.27-6.59 1.46-13.28 2.53-19.89 2.5-15.34 5.34-30.63 7.67-45.99.71-4.71 3.52-6.91 7.38-8.03 3.82-1.11 7.71-.79 11 2.06 4.96 4.3 10.88 5.52 17.24 4.97 8.47-.73 16.91-1.98 25.38-2.28 13.86-.49 27.73-.51 41.6-.53 13.29-.01 25.9-2.88 38.13-8 2.93-1.23 6.5-1.47 9.73-1.33 26.59 1.16 53.18 2.51 79.76 3.84 1.31.07 2.65.38 3.91.79 5.53 1.79 11.2 3.29 16.51 5.6 7.79 3.39 15.73 3.36 23.95 2.84 6.32-.4 12.9-.92 19 .36 12.12 2.56 20.46 10.11 23.96 22.33.5 1.7.53 3.5.81 5.53z" fill="#010102"/><path d="m185.51 177.82c6.81 0 13.64-.29 20.43.07 9.57.5 19.19.95 28.65 2.38 12.8 1.95 25.51 4.56 38.15 7.38 7.83 1.75 10.76 6.3 10.18 14.21-.07.89-1.29 2.28-2.16 2.43-20.92 3.65-41.85 7.27-62.83 10.55-2.19.34-4.83-1.27-7.06-2.36-2.12-1.04-4.04-1.33-6.37-.72-7.14 1.85-14.34 3.45-21.5 5.22-8.79 2.18-17.13-.08-25.28-2.87-9.72-3.32-19.26-7.15-28.83-10.89-1.03-.4-2.06-1.61-2.46-2.67-1.17-3.14-1.92-6.42-3.02-9.59-.64-1.86-.07-2.8 1.57-3.72 8.09-4.53 16.96-6.37 26.02-7.06 11.48-.87 23-1.18 34.5-1.73 0-.22.01-.42.01-.63z" fill="#010102"/><g fill="#fcfbfa"><path d="m385.2 377.6.6-.7c.6.4 1.3.9 1.9 1.5l-.6.7c-.8-.5-1.4-1-1.9-1.5zm.3 7.1c.6-1.4 1.1-2.9 1.5-4.5.3.1.6.3.9.4-.5 1.4-1 2.9-1.5 4.4zm.2-10.1.6-.6c.7.5 1.3 1.1 1.9 1.6l-.7.7c-.6-.6-1.2-1.2-1.8-1.7zm8.4-.8h.8v.9h1.8v.7h-1.8v1.8h-.8v-.3h-1.2v.9h3.3v2.6h-.8v-.4h-2.5c0 .3 0 .6-.1.8h3.4v.7h-3.5c0 .3-.1.6-.1.8h4v.7h-3.5c.7.9 1.9 1.3 3.6 1.5-.2.2-.4.5-.6.9-1.9-.3-3.2-1.1-3.8-2.3-.5 1.1-1.8 2-3.9 2.4-.2-.3-.4-.5-.6-.8 1.9-.4 3.1-.9 3.6-1.7h-3.2v-.7h3.5c.1-.2.1-.5.2-.8h-3.3v-.7h3.4c0-.2 0-.5 0-.8h-2.4v.3h-.8v-2.6h3.3v-.9h-1.2v.3h-.8v-1.8h-1.8v-.7h1.8v-.9h.8v.9h3.2zm-4.4 5.5h2.4c0-.3 0-.6 0-.9h-2.4zm1.2-3.1h3.2v-.8h-3.2zm4.4 2.2h-2.4v.9h2.5v-.9z"/><path d="m389.2 385.8h.9v1.5h1.9v-1.5h.9v1.5h2.7v6h1.1v.9h-11.3v-.9h1.1v-6h2.7zm.2 8.7.5.8c-1.2.6-2.5 1.3-4 1.9-.2-.3-.3-.6-.6-.8 1.6-.6 3-1.3 4.1-1.9zm-2-4.3h1.9v-2.1h-1.9zm0 3.1h1.9v-2.2h-1.9zm2.7-3.1h1.9v-2.1h-1.9zm0 3.1h1.9v-2.2h-1.9zm2.4 1.3c1.4.6 2.7 1.2 4.1 1.8l-.5.9c-1.5-.7-2.8-1.4-4.1-1.9zm2.2-6.5h-1.9v2.1h1.9zm-1.9 5.2h1.9v-2.2h-1.9z"/></g></svg>