<svg enable-background="new 0 0 400 400" viewBox="0 0 400 400" xmlns="http://www.w3.org/2000/svg"><path d="m374.8 390.4.4-.4c.7.5 1.3 1 1.8 1.4l-.5.5c-.5-.6-1.1-1.1-1.7-1.5zm1 7.3-.6-.3c.5-1.4 1.1-2.8 1.5-4.3.2.1.4.2.6.3-.5 1.3-1 2.8-1.5 4.3zm-.4-10.3.4-.4c.4.3 1 .8 1.7 1.4l-.5.5c-.4-.5-1-1-1.6-1.5zm2.5.3h1.7v-1h.6v1h3.5v-1h.6v1h1.8v.5h-1.8v1.4h-2v1h3.2v2h-3.2v.9h3.3v.5h-3.4c0 .3-.1.6-.1.9h4v.5h-3.7c.7.9 1.9 1.5 3.8 1.7-.1.2-.2.4-.3.6-2.1-.4-3.5-1.1-4-2.1-.4 1-1.8 1.7-4 2.2-.1-.2-.2-.4-.3-.6 2.1-.4 3.4-1 3.8-1.8h-3.4v-.5h3.6c.1-.3.1-.6.2-.9h-3.3v-.5h3.4c0-.3 0-.6 0-.9h-3.2v-2h3.3v-1h-2.1v-1.4h-1.7v-.5zm1.1 3.5v1h2.7c0-.3 0-.4 0-.4 0-.1 0-.2 0-.2 0-.1 0-.2 0-.3h-2.7zm1.2-3v.9h3.5v-.9zm4.7 3h-2.6v.6.4h2.6z" fill="#fbfcfa"/><path d="m393.6 386.7h.6v1.5h2.7v6.1h1.1v.6h-11v-.6h1.1v-6.1h2.7v-1.5h.6v1.5h2.1v-1.5zm-2.7 8.8.4.6c-1.2.6-2.5 1.3-3.8 1.9-.1-.2-.2-.4-.3-.6 1.2-.6 2.5-1.2 3.7-1.9zm-2.2-6.7v2.4h2.1v-2.4zm0 3v2.5h2.1v-2.5zm2.8-3v2.4h2.1v-2.4zm0 3v2.5h2.1v-2.5zm6 6.1c-1.4-.7-2.7-1.3-3.9-1.8l.3-.6c1.5.6 2.7 1.2 3.9 1.7zm-1.2-9.1h-2.1v2.4h2.1zm-2.1 3v2.5h2.1v-2.5z" fill="#fbfcfa"/><g fill="#010101"><path d="m231.17 350.5c3.33-1 6.6-2.42 10-2.9 5.19-.74 8.94-3.26 11.71-7.51 2-3.08 4.34-5.68 8.63-6.37-1.58 4.1.14 5.27 3.88 4.96 1-.08 2.08.83 4.14 1.73-4.27 1.96-7.63 3.34-10.81 5.07-1.02.55-2.2 2.02-2.19 3.05.03 2.24-.96 3.32-2.65 4.54-11.53 8.29-23.91 14.76-37.55 18.93-16.07 4.91-31.76 4.78-47.02-2.61-3.88-1.88-7.37-4.57-11.19-6.98 1.05-2.17 1.94-4.04 2.84-5.9-.12-.33-.23-.66-.35-.99-2.26.47-4.65.63-6.76 1.5-2.37.98-3.89.48-5.57-1.28-6.23-6.58-12.81-12.85-18.77-19.67-3.5-4-6.27-8.69-9.03-13.26-2.87-4.74-4.06-9.91-2.19-15.4.86-2.54.35-4.56-1.92-6.1-3.36-2.29-4.87-5.58-5.33-9.57-.31-2.65-1.3-5.22-1.63-7.87-.18-1.46.36-3.01.62-4.84-.75-3.74-1.53-7.94-2.45-12.11-.33-1.49-.66-3.16-1.55-4.32-2.49-3.22-2.99-6.73-2.85-10.67.37-9.95.61-19.91.58-29.87-.01-3.06.82-5.07 3.49-6.43.77-.39 1.41-1.06 2.41-1.82-1.87-2.18-3.66-4.28-5.66-6.62 3.09-1.99 3.58-4.66 2.55-8.1-1.21-4.04 1.08-6.83 4.72-8.81-3.27-3.91-3.09-7.97-1.7-12.19 1.61-4.88 3.18-9.77 4.81-14.65.2-.6.5-1.36.99-1.65 4.72-2.77 7.07-7.4 9.36-11.99 3.77-7.53 8.19-14.45 14.16-20.56 3.97-4.07 6.07-9.82 10.95-13.36 4.98-3.61 9.65-7.64 14.67-11.19 2.41-1.71 4.21-3.51 4.71-6.5.71-4.24 3.06-7.12 6.97-9.09 3.38-1.7 6.54-3.89 9.63-6.09 2.23-1.58 4.22-2.51 6.51.37 3.32-4.97 6.47-9.68 9.76-14.6-1.59-1.47-3.15-2.86-4.65-4.32-6.2-6.06-7.8-14.14-9.56-22.12-.56-2.51-.77-5.09-1.35-7.59s.2-4.71 2.58-4.83c1.82-.09 4.65 1.12 5.42 2.59 2.85 5.41 5.04 11.18 7.61 17.12-2.38.64-4.57 1.23-7.22 1.94 3.08 4.14 5.92 7.97 8.99 12.09 10.88-6.7 23.63-10.81 27.73-25.04 1.57-5.46 5.5-9.61 10.08-13.15 2.77 1.52 3.23 4.06 2.25 6.37-1.72 4.03-3.99 7.83-6.09 11.69-.9 1.66-2.36 3.12-2.87 4.88-2.57 8.87-8.25 15.18-15.78 20.12-3.26 2.13-5.23 5.13-5.64 9.07-.29 2.76.12 5.11 2.21 7.35 3.42 3.68 6.78 7.52 9.45 11.74 1.7 2.68 2.06 6.19 3.12 9.29.44 1.28.88 2.72 1.78 3.65 2.48 2.58 5.27 4.85 7.79 7.39 3.26 3.28 5.25 7.14 4.92 12.47-4.43-2.16-9.89-1.53-12.16-6.89-9.97-6-13.91-16.95-20.89-25.4-3.22-3.9-7.18-7.19-10.12-10.08-7.03 5.03-13.25 9.33-19.27 13.9-1.49 1.13-2.63 2.98-3.38 4.73-1.11 2.56-2.44 4.66-5.09 5.85-6.53 2.93-11.57 7.55-14.9 13.88-3.71 7.05-9.99 11.3-16.39 15.42-2.11 1.36-3.6 2.84-3.71 5.5-.03.78-.5 1.92-1.1 2.23-4.85 2.46-6.09 7.29-7.56 11.77-2.44 7.42-4.07 15.11-8.46 21.8-.38.58.54 2 .81 3.04s1.06 2.5.65 3.09c-5.64 8.13-4.73 17.54-5.11 26.59-.42 10.17-.1 20.37-.1 30.56 0 .45-.14.96.03 1.33 2.52 5.51 2.11 11.77 3.75 17.23 2.65 8.82 4.47 17.72 6.35 26.67.42 2 .9 4.43 2.26 5.72 3.58 3.39 5.06 7.52 5.53 12.16.38 3.69 1.82 6.8 4.12 9.68 7.54 9.42 14.81 19.06 22.54 28.31 2.21 2.64 5.47 4.55 8.53 6.32 6 3.46 12.12 6.75 18.35 9.77 2.18 1.06 4.81 1.34 7.28 1.6 2.09.22 4.25-.05 6.37-.19 4.07-.25 7.99-.34 11.48-3.4 2.02-1.78 5.29-2.18 8.04-3.06.63-.2 1.46.2 2.19.37.2.05.34.28.54.39 2.81 1.65 7.66 1.58 9.48-.19 3.04-2.98-1.34-4.28-1.75-7.69z"/><path d="m173.59 212.76c2.6 2.24 4.92 4 6.93 6.07 1.07 1.1 2.13 2.68 2.29 4.14 1.14 10.45 2 20.94 3.05 31.4.21 2.09-.34 3.51-1.87 5s-2.53 3.52-3.77 5.32c.25.37.51.75.76 1.12 2.43-.92 4.85-1.84 6.76-2.56 1.15 1.89 2.49 3.9 3.62 6.02.54 1.01.97 2.22 1 3.36.29 10.65 8.11 19.85 18.67 22.02 1.88.39 3.05.08 4.24-1.53 4.74-6.41 6.55-13.88 8.09-21.46 2.08-10.26 2.21-20.43-1.67-30.37-1.61-4.14-1.48-8.36-.17-12.49.37-1.17 1.67-2.71 2.69-2.83 1.24-.15 3.23.67 3.85 1.7 2.19 3.61 4.32 7.36 5.77 11.31 3.54 9.59 5.6 19.54 5.88 29.81.12 4.2-.37 8.17-2.71 11.88-1.9 3.01-3.41 6.29-4.87 9.55-1.02 2.28-2.34 2.71-4.76 2.21-2.31-.47-4.79-.07-7.2-.05-.12.44-.24.88-.36 1.33 2.44 2.1 4.89 4.19 7.71 6.61-6.82 4.89-12.82 9.32-20.9 8.83-2.44-.15-4.92-.34-6.13-3.16-.28-.65-1.4-.95-2.16-1.37-2.45-1.38-5.3-2.32-7.28-4.2-5.12-4.84-9.93-10.02-14.69-15.21-1.02-1.11-1.78-2.82-1.93-4.32-.55-5.54-.46-11.19-5.44-15.18-.65-.52-.8-2-.74-3.01.13-2.57.32-5.16.83-7.67.69-3.37.43-6.3-2.04-8.98-.67-.73-.66-2.29-.59-3.45.16-2.45.44-4.91.91-7.32.62-3.19.17-6.08-1.06-9.12-.87-2.14-1.18-4.75-.92-7.06 1.04-9.22 2.28-18.43 3.73-27.6.4-2.52 1.68-4.93 2.76-7.3 2.26-4.97 4.57-9.93 7.02-14.8 1.45-2.87 2.77-6 4.91-8.29 7.04-7.53 12.53-8.26 21.12-2.91 6.04 3.76 12.22 6.83 18.78 9.44 10.47 4.16 12.51 8.63 9.37 20.31-3.34-3.16-6.22-6.47-9.68-8.97-3.5-2.51-7.48-4.42-11.43-6.2-4.05-1.82-8.32-3.17-12.69-4.8-.54 1.09-1.08 1.92-1.38 2.83-1.05 3.19-2.8 5.83-5.81 7.46-3.21 1.74-4.8 4.63-5.5 8.01-.93 4.47-1.87 8.97-2.33 13.51-.69 6.49-3.79 10.83-10.66 12.97zm9.79 40.3c-2.94-.99-5.04-1.71-7.43-2.51-.18 1.49-.31 2.63-.49 4.12 2.55-.52 4.77-.97 7.92-1.61z"/><path d="m264.34 329.4c1.96.5 3.92 1 6.23 1.59 1.92-1.4 1.05-3.36-.23-5.16-1.54-2.18-1.34-3.69.64-5.7 4.85-4.93 5.62-11.4 6.19-17.97.4-4.62.83-9.38 2.32-13.71 1.65-4.77.8-9.25.27-13.87-.62-5.44-1.29-10.88-2.11-16.29-1.28-8.45-6.01-15.51-9.54-23.05-.37-.79-1.19-1.72-1-2.35 1.04-3.5-1.52-4.61-3.45-6.68-3.1-3.33-5.26-7.55-7.53-10.96 2.77-1.8 5.01-3.26 7.61-4.96 3.24 2.36 6.2 5.72 8.06 10.01 1.87 4.3 3.7 8.61 5.65 12.87.5 1.09 1.15 2.29 2.07 2.99 3.27 2.48 4.14 5.63 3.86 9.64-.7 9.94 3.82 18.95 5.4 28.49.9 5.47 1.26 11.02 1.86 16.54.05.44.15 1-.06 1.32-3 4.69-2.55 10.08-3.05 15.25-.43 4.43-2.95 7.4-6.36 9.76-2.78 1.93-4.08 4.23-2.97 7.63.59 1.8.07 3.15-1.67 4.2-1.91 1.15-3.61 2.64-5.44 3.92-2.52 1.79-5.8.65-6.75-3.51z"/><path d="m260.71 207.83c-3.56-.2-7.12-.34-10.67-.62-.82-.07-1.86-.39-2.35-.98-4.12-4.95-8.14-9.99-12.29-15.13 9.73-2.28 12.03-3.15 18.56 4.86 2.78 3.41 4.97 7.3 7.43 10.98-.22.29-.45.59-.68.89z"/></g></svg>