<svg enable-background="new 0 0 400 400" viewBox="0 0 400 400" xmlns="http://www.w3.org/2000/svg"><g fill="#010102"><path d="m231.15 186.6c2.97 3.28 5.77 6.75 8.96 9.8 8.82 8.42 17.48 16.95 23.83 27.5.63 1.05 1.29 2.1 2.03 3.08 3.09 4.1 5 4.27 9.68 2.38 5.86-2.37 9.83-6.93 14.05-11.19 13.14-13.3 26.05-26.81 37.08-42 1.48-2.03 3.98-3.39 6.2-4.76.39-.24 2.3.85 2.45 1.54.96 4.6.85 9.09-2.27 13.05-1.03 1.31-2.1 2.7-2.67 4.24-4.99 13.38-15.55 22.48-24.84 32.56-2.73 2.96-5.79 5.63-8.38 8.71-2.7 3.21-5.23 6.61-7.44 10.17-1.47 2.38-3.2 3.5-5.77 2.65-4.88-1.62-9.76-1.64-14.86-1.23-3.89.31-7.7-.99-10.17-4.71-.75-1.14-2.02-2.17-3.28-2.69-3.56-1.47-5.76-4.16-8.12-7.1-9.16-11.42-18.68-22.56-28.09-33.78-1.51-1.8-3.11-3.52-4.68-5.28-4.71-5.28-8.74-5.26-13.89-.25-4.48 4.35-9.18 8.47-13.78 12.69-.41.38-1.05.69-1.18 1.15-1.88 6.53-7.88 9.49-12 14.09-1.64 1.83-2.35 4.49-3.98 6.32-4.05 4.56-8.43 8.84-12.59 13.31-1.13 1.22-2 2.69-2.89 4.11-1.62 2.58-3.38 4.78-6.41 6.07-3.46 1.47-3.44 3.75-.33 6.25 2.08 1.68 2.91 3.59 1.64 6.08-10.78 1.92-18.63-3.61-26.25-9.88-14.87-12.24-25.59-28.19-38.23-42.43-2.37-2.66-5.29-4.84-7.61-7.54-1.58-1.83-2.57-4.16-3.79-6.29-.92-1.59-1.31-3.65-4-3.3-.41.05-1.49-1.77-1.48-2.73.01-.91.88-2.44 1.62-2.61 4.82-1.1 9.55-.41 13.1 3.14 12.12 12.09 24.07 24.35 36 36.63 2.33 2.4 4.21 5.22 6.33 7.82.99 1.21 1.92 2.5 3.07 3.54 3.9 3.54 5.47 3.38 8.68-.7 12.8-16.27 25.24-32.85 40.32-47.17.39-.37.69-.83 1.52-1.84-3.46-.37-6.39-1.02-9.31-.92-7.12.23-14.23 1.12-21.35 1.14-6.44.01-13.04-.02-19.27-1.4-10.01-2.22-19.67-6.03-29.68-8.33-10.2-2.35-15.12-9.2-17.23-18.43-2.17-9.51-5.03-18.98-4.72-28.92.29-9.45.67-18.9 1.01-28.35.07-2.12 0-4.26.19-6.37.51-5.88.98-11.78 1.7-17.64 1.1-8.89 2.77-17.73 3.48-26.65.43-5.42 1.37-8.35 6.83-8.9 9.02-.91 16.41-5.61 24.39-8.99 1.92-.81 4-1.35 6.05-1.77 3.94-.8 7.88-1.71 11.87-2.03 5.76-.47 11.57-.89 17.32-.59 14.21.76 28.37 1.14 42.45-1.53 1.72-.33 3.56-.17 5.33-.11 6.35.2 12.57.37 18.98-.86 5.4-1.04 11.28.34 16.94.76 3.67.28 7.35.58 10.97 1.2 10.9 1.87 21.75 4 32.66 5.8 4.05.67 6.25 3.09 7.84 6.49 7.59 16.29 11.94 33.46 13.37 51.32.5 6.23 0 12.53-.03 18.8 0 .89-.31 2.16.15 2.61 2.89 2.87 1.63 5.7.38 8.72-.49 1.18-.48 2.65-.4 3.97.66 10.81-2.64 20.78-6.61 30.56-1.01 2.49-3.08 4.55-4.65 6.81-1.2 1.73-2.74 3.33-3.51 5.23-1.93 4.77-5.64 7.46-10.17 9.1-9.59 3.48-19.47 5.79-29.66 6.79-4.17.41-8.31 1.14-12.47 1.73-.15.46-.29.91-.43 1.36zm-136.23-139.82c5 5.39 2.73 10.2 1.48 15.02-.84 3.23-2.47 6.61-2.11 9.74 1.1 9.69-1.41 19.18-.55 28.91.95 10.77-.21 21.7.15 32.54.19 5.74 1.5 11.47 2.59 17.16 1.35 7.09 7.18 10.96 12.56 14.07 4.76 2.75 10.84 3.63 16.46 4.42 10.96 1.53 21.98 2.05 33.1 1.09 8.09-.7 16.28-.31 24.43-.3 7.98.01 15.8 1.25 23.97.34 14.8-1.65 29.81-1.29 44.6-3.74 6.12-1.01 12.62.06 18.3-3.28 1.29-.76 2.88-1.74 3.37-2.99 3.63-9.31 8.32-18.16 9.15-28.54.94-11.7 2.91-23.3 1.42-35.08-1.26-9.98-2.33-20-3.87-29.94-.82-5.27-2.18-10.5-3.82-15.57-1.19-3.68-3.81-6.27-8.17-6.32-1.09-.01-2.57-.09-3.2-.76-3.1-3.28-7.25-2.43-10.99-3.05-3.3-.55-6.65-.9-10-1.1-9.14-.55-18.46-2.29-27.39-1.12-10.18 1.34-20.24 1.47-30.4 1.47-1.51 0-3.03.48-4.53.81-2.7.6-5.35 1.53-8.08 1.81-3.32.34-6.69.04-10.03.22-7.1.38-14.16-.69-21.34.94-4.4 1-9.32-.42-14.01-.51-2.29-.04-4.99 1.39-6.8.57-2.77-1.25-4.58-.06-6.81.71-1.55.53-3.23.74-4.87.93-4.5.52-9 .96-14.61 1.55z"/><path d="m267.96 334.01c4.93-3.57 9.45-6.84 13.95-10.13.45-.33.94-.68 1.21-1.13 6.27-10.58 15.74-18.23 24.26-26.77 6.99-7 13.13-14.65 17.96-23.33 2.32-4.18 5.33-7.75 10.07-9.39 2.68-.93 5.92-1.38 7.32 1.13 1.08 1.95 1.09 5.43.07 7.47-4.77 9.48-9.73 18.93-17.83 26.17-2.24 2.01-4.58 3.92-6.92 5.81-4.38 3.53-8.49 7.23-10.33 12.83-.33.99-1.29 1.79-1.99 2.65-5.87 7.27-13.37 12.65-20.75 18.24-4.21 3.19-7.59 7.52-11.16 11.5-1.27 1.41-2.34 2.02-4.27 1.59-4.36-.98-8.77-1.77-13.17-2.53-2.88-.49-4.46-2.02-4.26-4.98.16-2.42-.98-3.81-2.85-5.21-7.42-5.56-14.77-11.22-22.03-17-5.56-4.43-10.9-9.13-16.41-13.62-1.61-1.31-3.48-2.3-5.44-3.56-6.26 8.15-12.19 16.13-18.42 23.88-3.99 4.97-8.33 9.65-12.63 14.36-7.91 8.68-16.22 17.03-23.76 26.02-6.27 7.48-13.69 7.45-21.74 4.83-6.14-2-11.72-4.85-16.56-9.65-7.97-7.91-15.44-16.07-21.63-25.5-7.05-10.76-14.66-21.15-22-31.72-.76-1.09-1.62-2.24-1.95-3.48-1.78-6.71-5.93-11.88-10.37-16.99-2.6-2.99-4.62-6.49-6.92-9.78 2.61-2.4 4.6-1.03 6.84-.71 5.38.77 9.23 3.88 12.86 7.32 2.14 2.03 3.73 4.66 5.44 7.11 1.59 2.28 2.79 4.86 4.54 7 7.22 8.82 14.16 17.83 19.68 27.86.68 1.23 1.69 2.47 2.86 3.22 4.85 3.1 7.84 7.79 11.37 12.12 3.91 4.8 8.74 8.86 13.23 13.17 2.41 2.31 5.07 4.37 7.39 6.75 1.91 1.96 3.56 2.06 5.4.11 7.51-7.97 15.01-15.96 22.54-23.91 8.2-8.65 16.56-17.16 24.61-25.95 3.97-4.34 7.79-8.92 10.96-13.85 2.59-4.04 1.78-5.25-1.96-8.22-.95-.75-1.79-2.38-1.67-3.5.08-.79 1.86-1.98 2.9-1.99 5.22-.07 10.04.05 13.73 5.34 7.65 10.96 17.95 19.29 29.28 26.29 3.66 2.26 7.02 4.6 8.79 8.85 1.08 2.59 3.35 3.85 6.44 3.99 2.08.1 4.28 1.05 6.13 2.13 2.61 1.49 4.91 3.48 7.19 5.16z"/><path d="m204.26 239.99c-3.74 6.28-7.1 11.93-10.47 17.58-.74 1.25-1.39 2.58-2.31 3.69-7.45 9.05-14.96 18.05-22.44 27.07-4.04 4.88-7.67 10.18-12.2 14.56-6.72 6.5-13.85 12.8-23.73 13.99-1.46.18-3.44-.73-4.59-1.78-3.7-3.38-7.07-7.1-10.65-10.61-8.78-8.61-17.61-17.16-26.41-25.75-.4-.39-.69-.88-1.01-1.34-8.11-11.35-16.23-22.69-24.32-34.05-.64-.9-1.3-1.88-1.59-2.92-1.01-3.61-3.3-6.17-5.98-8.68-1.45-1.35-1.99-3.68-2.94-5.57 2.12-.29 4.33-1.11 6.32-.73 1.88.36 3.56 1.93 5.28 3.04 1.68 1.09 3.39 2.17 4.93 3.44 1.52 1.25 3.22 2.52 4.18 4.17 5.85 10.02 12.44 19.28 22.85 25.17 1.41.8 2.71 2.37 3.34 3.89 2.48 6 6.11 11.04 10.82 15.52 4.86 4.62 9.3 9.69 13.95 14.53 1.32 1.37 2.67 2.72 4.14 3.92 5.17 4.18 6.2 4.02 10.17-1.24 7.89-10.45 15.68-20.97 23.75-31.28 2.72-3.48 6.35-6.25 9.21-9.64 8.01-9.53 14.8-19.9 20.46-31.01.45-.89.88-2 1.65-2.47 2.92-1.81 4.45-3.85 3.41-7.63-.52-1.9 1.02-3.19 3.4-2.76 3.97.72 7.06 2.64 9.26 6.03 2.01 3.09 4.25 6.06 6.06 9.26 8.83 15.63 21.74 27.72 34.39 40.06 3.5 3.41 6.68 7.2 9.67 11.08 4.24 5.49 5.45 5.76 10.56 1.26 8.06-7.1 16.18-14.14 24.11-21.39 2.26-2.06 3.95-4.75 5.9-7.16.63-.77 1.08-1.82 1.87-2.3 4.6-2.77 7.09-7.29 10.04-11.5 2.94-4.21 6.02-8.37 9.51-12.12 1.8-1.94 4.44-3.44 6.99-4.26 3.43-1.11 6.04 1.59 5.08 5.06-.67 2.42-1.63 5.01-3.21 6.89-10.59 12.58-21.23 25.13-32.2 37.38-3.39 3.79-7.76 6.73-11.84 9.84-3.77 2.88-7.21 5.92-9.58 10.15-.75 1.33-2.3 2.74-3.73 3.07-5.46 1.27-11.05 3.08-16.17-1.26-3.91-3.32-8.24-6.17-11.91-9.72-8.46-8.2-16.69-16.65-24.88-25.12-4.04-4.18-7.65-8.77-11.73-12.9-2.05-2.06-4.72-3.51-7.41-5.46z"/><path d="m216.59 92.05c2.88.47 6.24.82 9.47 1.63 1.64.41 3.45 1.35 4.5 2.62.95 1.14 1.32 3.08 1.21 4.62-.04.52-2.35 1.22-3.63 1.23-12.95.16-25.56 2.64-38.08 5.59-4.1.97-8.13 2.57-11.91 4.43-6.23 3.06-12.2.98-18.26-.22-1.96-.39-3.9-.95-5.76-1.64-1.24-.46-3.29-1.29-3.31-1.99-.04-1.46.62-3.63 1.73-4.3 3.02-1.81 6.33-3.28 9.69-4.38 12.98-4.24 26.42-5.31 39.99-5.64 4.64-.11 9.26-1.23 14.36-1.95z"/></g><path d="m385.2 377.6.6-.7c.6.4 1.3.9 1.9 1.5l-.6.7c-.8-.5-1.4-1-1.9-1.5zm.3 7.1c.6-1.4 1.1-2.9 1.5-4.5.3.1.6.3.9.4-.5 1.4-1 2.9-1.5 4.4zm.2-10.1.6-.6c.7.5 1.3 1.1 1.9 1.6l-.7.7c-.6-.6-1.2-1.2-1.8-1.7zm8.4-.8h.8v.9h1.8v.7h-1.8v1.8h-.8v-.3h-1.2v.9h3.3v2.6h-.8v-.4h-2.5c0 .3 0 .6-.1.8h3.4v.7h-3.5c0 .3-.1.6-.1.8h4v.7h-3.5c.7.9 1.9 1.3 3.6 1.5-.2.2-.4.5-.6.9-1.9-.3-3.2-1.1-3.8-2.3-.5 1.1-1.8 2-3.9 2.4-.2-.3-.4-.5-.6-.8 1.9-.4 3.1-.9 3.6-1.7h-3.2v-.7h3.5c.1-.2.1-.5.2-.8h-3.3v-.7h3.4c0-.2 0-.5 0-.8h-2.4v.3h-.8v-2.6h3.3v-.9h-1.2v.3h-.8v-1.8h-1.8v-.7h1.8v-.9h.8v.9h3.2zm-4.4 5.5h2.4c0-.3 0-.6 0-.9h-2.4zm1.2-3.1h3.2v-.8h-3.2zm4.4 2.2h-2.4v.9h2.5v-.9z" fill="#fcfbfa"/><path d="m389.2 385.8h.9v1.5h1.9v-1.5h.9v1.5h2.7v6h1.1v.9h-11.3v-.9h1.1v-6h2.7zm.2 8.7.5.8c-1.2.6-2.5 1.3-4 1.9-.2-.3-.3-.6-.6-.8 1.6-.6 3-1.3 4.1-1.9zm-2-4.3h1.9v-2.1h-1.9zm0 3.1h1.9v-2.2h-1.9zm2.7-3.1h1.9v-2.1h-1.9zm0 3.1h1.9v-2.2h-1.9zm2.4 1.3c1.4.6 2.7 1.2 4.1 1.8l-.5.9c-1.5-.7-2.8-1.4-4.1-1.9zm2.2-6.5h-1.9v2.1h1.9zm-1.9 5.2h1.9v-2.2h-1.9z" fill="#fcfbfa"/></svg>