<svg enable-background="new 0 0 400 400" viewBox="0 0 400 400" xmlns="http://www.w3.org/2000/svg"><g fill="#010100"><path d="m131.93 63.37c2.24.87 3.91 1.17 5.16 2.05 6.58 4.64 13.09 9.39 19.55 14.2 1.21.9 2.24 2.16 3.08 3.44 1.85 2.8 3.85 5.56 5.19 8.6 2.22 5.02 6.2 6.9 11.64 7.49.4-1.65.96-3.33 1.21-5.05.73-5.09 1.35-10.19 2-15.29.67-5.26.2-10.22-3.32-14.57-.59-.73-.95-2.2-.63-3.02 4.46-11.42 9.06-22.79 13.71-34.38 4.85 2.33 7.44 6 7.12 10.98-.36 5.55-1.64 11.04-2.27 16.58-.54 4.76-.79 9.55-1.04 14.33-.3 5.67-.37 11.35-.72 17.01-.22 3.45.12 4.7 3.04 7.24 5.25-5.26 10.41-10.67 15.84-15.78 5.02-4.72 9.5-9.83 12.47-16.05 1.79-3.75 4.58-5.5 8.77-5.82 1 2.89 1.68 5.67-.02 8.77-3.06 5.58-5.8 11.34-8.75 16.98-.61 1.17-1.46 2.25-2.35 3.22-9.61 10.47-19.19 20.97-28.92 31.32-2.16 2.3-3.51 4.66-3.92 7.84-.78 6.1-1.94 12.14-2.89 18.22-.24 1.54-.36 3.12-.38 4.68-.04 5.33.02 5.98 5.15 6.66 6.7.88 10.53 4.03 12.09 10.64.49 2.09 2.19 4.21 3.9 5.64 6.22 5.19 9.03 12.13 10.48 19.7 2.73 14.28 2.04 28.39-6.39 40.64-3.79 5.51-9.67 9.84-15.23 13.82-9.06 6.48-19.23 9.95-30.65 8.06-.44-.07-.99.03-1.32-.2-5.74-4.02-11.93-7.56-17.04-12.27-4.9-4.52-6.42-11.16-6.93-17.75-.7-8.98-.3-17.77 3-26.42 1.59-4.18 1.42-9.01 2.32-13.49.32-1.61 1.17-3.31 2.26-4.54 4.7-5.31 10.46-8.94 17.49-10.45 1.51-.32 2.99-.97 4.36-1.69 3.94-2.07 5.14-5.89 3.13-9.79-2.37-4.6-2.04-9.29-.55-14.02 1.89-6.04 3.19-12.15 1.39-18.44-.41-1.44-1.2-2.86-2.1-4.07-1.33-1.79-2.83-3.48-4.42-5.05-14.09-13.94-23.45-31.22-33.74-47.83-.14-.3-.21-.64-.77-2.14zm74.24 138.65c-.14-15.44-10.05-28.72-21.86-31.54-1.64-.39-3.74-.6-5.15.08-8.58 4.14-16.75 8.98-23.8 15.49-.7.65-1.53 1.55-1.62 2.4-.83 7.99-1.96 15.99-2.02 23.99-.02 3.23 1.79 6.96 3.85 9.61 3.2 4.11 7.37 7.45 11.06 11.19 4.87 4.93 11.14 5.11 17.41 5.18 1.11.01 2.56-.56 3.31-1.37 5.92-6.43 13.03-11.98 15.03-21.26 1.19-5.42 2.94-10.72 3.79-13.77z"/><path d="m241.29 303.02c-3.03-7.55-2.34-15.36.74-22.04 3.35-7.27 2.87-14.51 3.65-21.77-5.16-2.21-13.46-.43-17.4 3.01-3.14 2.74-6.51 5.58-10.29 7.13-4.92 2.01-5.33 1.39-7.88-3.86 6.26-4.59 12.56-9.22 18.87-13.84 4.78-3.5 9.43-7.21 14.41-10.42 2.93-1.89 3.73-4.35 3.36-7.36-.64-5.22-1.8-10.41.86-15.44.21-.4.09-1.16-.17-1.58-2.97-4.81-2.57-10.3-3.31-15.58-.42-3.01-1.24-6.1-2.53-8.84-2.48-5.25-5.37-10.3-8.19-15.38-2.5-4.5-3.15-9.33-2.39-14.29.63-4.08 1.7-8.09 2.68-12.1.23-.94.76-1.86 1.35-2.65 8.56-11.55 14.03-24.62 18.4-38.16.82-2.55.7-5.51.56-8.26-.36-7.36-1.24-14.71.87-21.99.33-1.14.14-2.79-.48-3.79-1.61-2.6-1.27-5.1-1.01-7.98.36-3.89-.25-7.9-.69-11.83-.7-6.2-2.11-12.36-2.26-18.56-.1-4.09 1.49-8.22 2.34-12.39 4.87.37 7.92 2.64 9.41 6.32 1.36 3.35 2.48 7.05 2.57 10.62.53 20.8.63 41.62 1.15 62.42.06 2.57 1.79 5.09 2.87 7.94-1.12 1.79-2.67 3.97-3.93 6.31-1.71 3.16-1.82 6.4.21 9.54.24.37.49.76.63 1.18 2.51 7.73 6.59 14.64 10.4 21.78 5.02 9.39 3.12 19.59-.31 29.33-.36 1.02-1.58 1.8-2.51 2.54-7.96 6.34-13.86 13.96-15.16 24.41-.85 6.76.81 13.1 3.63 19.18.27.58 1.11 1.32 1.65 1.29 3.38-.19 6.74.17 9.67-2.66 4.18-4.04 8.94-7.53 14.82-8.77 1.16-.24 3.33.16 3.62.86.54 1.29.49 3.24-.13 4.51-.69 1.41-2.2 2.49-3.5 3.53-8.48 6.77-16.96 13.55-25.56 20.16-2.04 1.57-2.98 3.29-3.29 5.81-1.31 10.32-2.88 20.6-4.21 30.91-.76 5.9-3.12 10.89-7.49 14.95-2.05 1.9-4.01 3.86-6.03 5.81zm4.48-142.76c.08 8.29 2.19 13.83 5.94 18.77 2.73 3.6 6.03 3.27 8.12-.79 3.58-6.96 5.21-14.48 5.7-22.2.4-6.33-3.42-10.77-9.53-11.77-.74-.12-1.87.05-2.32.55-4.57 4.93-8.16 10.35-7.91 15.44z"/><path d="m194.36 306.52c-.83 1.39-1.36 3.14-2.53 4.12-5.99 5.03-12.12 9.9-18.25 14.76-2.63 2.08-5.32 4.1-8.08 5.99-10.4 7.12-17.15 16.35-18 29.4-.19 2.91-1.39 5.87-2.63 8.57-.87 1.9-2.6 3.42-4.47 5.76-.4-1.8-.68-2.61-.75-3.43-.75-9.25-1.62-18.49-2.12-27.76-.16-2.92-1.11-4.48-3.87-5.29-14.78-4.33-22.66-15.91-29.65-28.39-.58-1.03-.86-2.23-1.32-3.46 4.08-.66 7.27-.24 10.4 2.59 6.88 6.23 14.17 11.99 21.3 17.93.84.7 1.71 1.36 2.69 2.14 5.29-10.05 6.01-20.51 4.75-31.24-1.27-10.87.71-21.11 5.36-30.95 1.17-2.48 2.54-2.86 4.97-1.88 5.19 2.09 7.41 6.24 7.24 11.36-.19 5.99-1.24 11.96-1.85 17.94-.79 7.77-1.72 15.53-2.11 23.32-.08 1.69 1.51 4.35 2.99 4.97 1.5.63 4.2-.19 5.72-1.28 4.26-3.05 8.1-6.69 12.27-9.88 4.98-3.81 10.58-6.08 16.91-6.15.35.31.69.59 1.03.86z"/><path d="m125.62 292.9c-.39-1.47-.7-2.63-1.1-4.14 3.49-.99 6.43-4.13 10.25-1.64.96.62 1.68 2.26 1.68 3.43 0 .59-1.8 1.53-2.89 1.71-2.48.4-5.04.43-7.94.64z"/><path d="m170.59 192.31c.35-1.66.25-3.66 1.15-4.93 2.78-3.93 4.84-4.14 8.92-1.56 5.51 3.49 8.11 12.52 5.3 18.42-1.41 2.95-3.91 4.05-6.84 2.78-2.14-.93-4.23-2-6.2-3.25-.66-.42-1.12-1.53-1.23-2.38-.36-2.99-.52-5.99-.76-8.99-.1-.03-.22-.06-.34-.09z"/></g><path d="m6.4 11.7c-1-.8-1.9-1.6-2.9-2.3l.6-.7c.9.7 1.9 1.4 2.9 2.2zm-2.1 8.3c.7-2.1 1.4-4.2 2-6.4.2.1.6.3 1 .4-.7 2.3-1.3 4.4-1.9 6.4zm3-12.8c-1.1-.9-2.1-1.7-2.9-2.4l.6-.7c1 .8 2 1.5 3 2.4zm1.4-1.3v-.9h10.2v.9c-.9 4.2-2.3 7.3-4.1 9.4 1.3 1.4 3.2 2.7 5.7 4-.2.2-.4.5-.7.9-2.5-1.4-4.4-2.7-5.7-4.2-1.4 1.5-3.5 3-6.1 4.4 0 0 0 0-.1-.1-.3-.4-.5-.7-.7-.8 2.7-1.3 4.7-2.8 6.2-4.2-1.8-2.2-3-5.3-3.7-9.4zm9.2 0h-7.1c.6 3.8 1.7 6.7 3.4 8.7 1.7-2 2.9-4.8 3.7-8.7z" fill="#fafbfa"/><path d="m31.6 3.6h.9v2.3h4.1v9.1h1.7v.9h-16.6v-.9h1.7v-9.1h4.1v-2.3h.9v2.3h3.1v-2.3zm-4 13.3.6.8c-1.9.9-3.8 1.9-5.8 2.8-.2-.3-.3-.6-.5-.9 2-.9 3.9-1.8 5.7-2.7zm-3.2-10.1v3.7h3.1v-3.7zm0 4.5v3.7h3.1v-3.7zm4.1-4.5v3.7h3.1v-3.7zm0 4.5v3.7h3.1v-3.7zm9.1 9.1c-2.1-1.1-4.1-2-5.8-2.7l.5-.8c2.2.9 4.1 1.8 5.8 2.6zm-1.9-13.6h-3.1v3.7h3.1zm-3.2 4.5v3.7h3.1v-3.7z" fill="#fafbfa"/></svg>