<svg enable-background="new 0 0 400 400" viewBox="0 0 400 400" xmlns="http://www.w3.org/2000/svg"><g fill="#fbfafa"><path d="m37.59 393.81c-.92.31-1.52.05-2-.78-.7-1.2-1.52-2.34-2.47-3.78v4.59c-.55.03-.95.05-1.41.07-.03-.37-.06-.64-.06-.91 0-1.91 0-3.81 0-5.7 1.13-.41 1.77-.03 2.29.91.62 1.11 1.38 2.14 2.31 3.19v-4.2h1.35v6.61z"/><path d="m12.94 393.88v-6.75c1.9.19 3.93-.54 5.37 1.29.8 1.01.78 2.88.03 3.97-1.37 1.97-3.4 1.51-5.4 1.49m1.45-1.22c2.04.12 2.92-.58 2.89-2.21-.03-1.51-.98-2.19-2.89-2z"/><path d="m11.81 393.87h-5.49c.68-2.18 2.47-3.48 3.51-5.45h-3.08v-1.21h5.29c-.71 2.13-2.44 3.48-3.47 5.51.86 0 1.63.04 2.39-.01.79-.05 1.14.21.85 1.16"/><path d="m39.33 393.86v-6.61h3.7v1.07h-2.22v1.52c.68.04 1.34.09 2.07.13v1.07c-.72.05-1.38.09-2.1.14v1.48h2.4v1.19h-3.85z"/><path d="m27.71 388.56c-1.15-.3-2.46-.61-3.1.64-.37.73-.41 1.93-.06 2.67.63 1.35 1.99.93 3.17.68.35.94-.01 1.32-.93 1.46-1.62.25-3.05-.27-3.76-1.48-.73-1.24-.6-3.03.31-4.17.88-1.11 2.71-1.7 4-1.16.32.13.44.74.65 1.12-.1.08-.19.16-.28.24"/><path d="m49.15 387.24v1.07c-.59.02-1.17.05-1.87.08v5.44h-1.48v-5.44h-1.85c-.05-.4-.08-.73-.13-1.15z"/><path d="m20.06 387.21h1.33v6.62h-1.33z"/><path d="m30.68 393.25c-.49.38-.8.79-1.05.76-.32-.05-.6-.45-.9-.7.26-.24.51-.64.8-.67.29-.04.62.3 1.15.61"/></g><path d="m209.4 317.87c-.15 1.83-.23 2.81-.33 4-.76.1-1.51.31-2.25.29-9.06-.18-18.12-.55-27.18-.58-18.06-.06-36.01-.95-53.89-3.87-10.13-1.65-20.45-2.18-30.7-2.93-2.67-.19-4.47-.91-5.5-3.33-1.3-3.08-3.58-3.86-6.48-2.55-9.64 4.35-18.13 1.79-26.48-3.71-9.95-6.54-19.94-12.89-26.31-23.43-2.65-4.39-4.72-8.8-3.86-14.19.4-2.52.01-5.15.26-7.71.43-4.59-.54-8.49-3.06-12.6-2-3.26-2.38-7.61-.36-11.75 1.01-2.07 1.16-4.77 1.01-7.14-.36-5.93-2.09-11.66.09-17.81 1.09-3.07-.38-7.04-.66-10.6-.07-.87-.35-2.07.09-2.56 3.13-3.44 2.44-7.58 2.01-11.49-.66-5.93.92-11.52 1.69-17.26.5-3.79-.05-7.72-.14-11.59-.04-1.44-.06-2.89-.19-4.32-.24-2.72-.59-5.43-.81-8.15-.11-1.31-.27-2.7.02-3.96 1.63-7.06 3.53-14.06 5.04-21.14.75-3.53.85-7.2 1.3-10.79.15-1.19.33-2.43.79-3.53 3.69-8.87 7.41-17.73 11.25-26.55.43-.99 1.93-2.48 2.41-2.3 1.42.51 2.91 1.53 3.73 2.77.65.99.23 2.62.49 3.93.36 1.84.47 3.93 1.44 5.42 2.42 3.72 2.95 7.13-.1 10.72-.38.45-.53 1.57-.24 2.04 2.2 3.58 1.07 7.21.16 10.74-4.09 16.08-5.4 32.4-3.79 48.88.34 3.47-.19 6.08-2.39 7.81 1.18 2.89 2.09 5.46 3.26 7.9.81 1.68 1.9 3.25 3 4.77 10.2 14.22 24.53 16.62 40.56 14.11 3.42-.54 6.84-1.39 10.28-1.48 1.75-.04 3.87.91 5.24 2.09 2.41 2.07 4.69 2.19 7.66 1.53 2.71-.61 5.64-.19 8.47-.28 3.44-.11 6.9-.09 10.32-.43 11.1-1.12 22.11-.54 33.1 1.17 3.08.48 6.25.67 9.36.54 4.07-.17 8.04-.36 11.66 2.01.47.3 1.54.15 2.07-.2 2.62-1.73 5.18-1.49 7.97-.37 2.29.92 4.75 2.31 6.95-.51.39-.5 1.68-.38 2.55-.4 18.57-.46 37.13-.9 55.7-1.36 2.64-.06 5.09 1.46 7.92.72.67-.17 1.92 1.92 3.19 3.26 2.52-5.82 7.35-4.93 12.72-4.33 5.25.59 10.81.36 15.96-.78 6.45-1.42 11.78.38 17.24 3.18 3.37 1.73 6.82 3.39 10.41 4.54 3.99 1.28 5.36.15 4.92-3.92-1.1-9.94.94-19.62 2.3-29.34.55-3.96.49-7.7-.61-11.55-1.9-6.66-2.72-13.38.13-20.05.3-.7.44-1.53.43-2.29-.14-8.16-.22-16.32-.55-24.48-.24-5.99.16-8.2 3.23-12.22-.94-1.08-1.92-2.21-3.03-3.5 1.35-1.14 2.62-2.2 3.88-3.27-.33-.05-.66-.09-.98-.14.16-2.56.22-5.13.53-7.67.16-1.31 1.01-2.55 1.1-3.85.2-2.63 1.53-4.69 3.96-4.5 2.42.19 5.7 1.04 6.92 2.78 3.7 5.28 5.72 11.11 3.88 18-1.69 6.31.23 12.63 1.89 18.81 1.19 4.42 2.16 8.79 1.63 13.53-.26 2.3 1.15 4.95 2.26 7.21 1.47 3 1.55 5.94.94 9.1-.67 3.51-1.36 7.05-1.57 10.61-.12 1.95.71 3.97 1.15 5.95.21.94.76 1.86.77 2.79.07 8.58-.5 17.2.19 25.73 1.78 21.96 4.12 43.88 6.19 65.82.13 1.4.05 2.92-.36 4.26-2.25 7.49-4.55 14.97-7.03 22.39-.49 1.46-1.59 2.99-2.85 3.88-5.53 3.94-10.4 8.26-13.38 14.66-1.04 2.23-3.91 3.98-6.33 5.12-15.19 7.13-31.47 10.02-48 11.6-6.76.64-13.61.21-20.39.71-4.99.37-9.92 1.5-14.89 2.26-1.1.17-2.22.28-3.34.33-8.01.38-16.03.88-24.05 1.03-4.22.08-8.47-.29-12.66-.82-2.22-.28-5.12-.16-5.22-3.86.03-.47-2.12-.91-3.71-1.55zm130.86-85.35c-.41-4.17-.82-7.41-1-10.65-.09-1.54.39-3.11.38-4.67-.02-6.25-6.67-10.58-12.32-7.94-11.71 5.47-24.14 8.01-36.9 9.18-10.34.95-20.72 1.48-31.01 2.79-4.17.53-7.43-.23-10.56-2.72-3.79-3.02-5.31-2.81-9.17.19-1.44 1.12-3.51 1.98-5.29 1.99-8.95.06-17.91.11-26.83-.49-4.75-.31-8.85.77-12.78 2.99-4.05 2.29-8.28 2.21-12.7 1.78-5.2-.51-10.43-.69-15.63-1.1-2.42-.19-5.3.14-7.14-1.05-3.28-2.11-6.1-2.66-9.35-.49-.17.12-.43.09-.65.16-8.08 2.39-16.22.6-24.34.31-3.01-.11-6.29-.95-8.96-.04-4.73 1.61-9.42 1.6-14.22 1.6-8.51 0-17.02-.23-25.51.08-6 .22-11.13-1.4-15.99-4.84-1.98-1.4-4.6-2.17-7.04-2.57-2.52-.42-3.97.73-3.91 3.84.35 16.22.46 32.44.7 48.67.01.83.13 2.05.67 2.43 5.13 3.66 9.16 8.77 15.58 10.77 7.83 2.45 16.17 3.78 22.87 9.13.39.31 1.04.39 1.58.44 11.02.91 22.04 1.8 33.06 2.71 1.21.1 2.9-.05 3.51.66 3.01 3.47 6.23 1.59 9.57.94 2.61-.51 5.33-.55 8.01-.53 2.56.02 5.12.42 7.69.6 5.59.38 10.91-.05 16.4-2.03 8.67-3.12 17.9-2.33 26.92-1.33 10.64 1.18 21.22 3 31.97.87 6.17-1.23 12.38-1.32 18.66-.36 2.56.39 5.29-.29 7.94-.49 2.85-.21 5.71-.75 8.54-.58 5.23.31 10.51 1.45 15.57-.57 9.17-3.65 19.53-1.44 28.5-5.94.37-.19.88-.07 1.33-.11 6.91-.61 13.81-1.26 20.72-1.82 5.49-.45 8.13-3.01 8.26-8.51.22-9.62.15-19.25.53-28.86.18-5.27-.12-10.77 2.34-14.44zm-30.73 67.27c-1.46 2.17-2.68 3.5-3.26 5.07-.26.7.81 2.72 1.2 2.7 1.51-.08 3-.74 4.64-1.23-.84-2.15-1.49-3.78-2.58-6.54z" fill="#010000"/><path d="m113.38 107.37c8.05-3.76 16.59-4.46 25.23-4.58 7.5-.11 15-.15 22.49-.24 1-.01 2.07.07 2.99-.25 9.02-3.06 18.32-2.2 27.59-2.25 18.39-.1 36.65 1.58 54.89 3.59 4.18.46 8.32 1.71 12.34 3.01 1.81.58 3.57 1.93 4.84 3.38 1.5 1.73 1.48 3.58-.45 5.57-6.85 7.05-15.44 9.13-24.76 8.88-7.15-.2-14.36-.42-21.41-1.53-9.78-1.54-19.47-1.8-29.27-.63-2.06.25-4.35.06-6.29-.62-3.55-1.24-6.71-1.08-9.8 1.52-2.54-4.35-6.21-5.46-11.81-4.33 2.03 1.36 3.3 2.2 4.56 3.05-2.33.26-4.81 1.76-6.17-1.85-.44-1.15-2.8-1.58-4.48-2.43-.45 1.44-.83 2.66-.95 3.02-9.25-1.23-18.24-2.42-27.24-3.62-.55-.07-1.1-.22-1.65-.28-5.61-.57-9.14-3.59-10.65-9.41z" fill="#010000"/></svg>