<svg enable-background="new 0 0 400 400" viewBox="0 0 400 400" xmlns="http://www.w3.org/2000/svg"><path d="m105.32 365.62c11.67-8.22 21-17.96 25.9-31.29 2.27-6.18 4.55-12.37 6.5-18.66 9.42-30.41 18.97-60.78 24.89-92.14 4.31-22.83 6.99-45.73 5.2-69.03-.5-6.54-.67-13.2-.09-19.72 1.2-13.41-1.34-26.53-2.38-39.76-.4-5.13-1.35-10.22-1.54-15.35-.36-9.65-2.44-18.79-7.02-27.3-1.79-3.32-2.1-6.61-1.18-10.29 1.37-5.52 2.35-11.13 3.56-16.96 5.32.21 10.26 1.68 14.53 4.5 4.63 3.06 9.22 6.4 13.1 10.35 24.06 24.51 47.99 49.15 71.75 73.96 2.92 3.04 4.86 7.17 6.71 11.06 10.73 22.55 17.99 46.24 21.72 70.9 3.03 20.04 1.11 39.72-7.27 58.44-1.12 2.5-3.02 4.65-4.6 6.94-2.92 4.21-4.98 8.48-4.2 14.01.67 4.75-1.77 8.97-4.97 12.39-14.67 15.69-29.44 31.29-44.22 46.89-.89.94-2.06 1.72-3.24 2.29-21.02 10.16-42 20.42-63.13 30.35-9.19 4.32-18.56 8.7-28.99 8.7-5.4 0-10.8-1.25-16.18-2.12-.87-.14-1.84-1.16-2.29-2.02-.99-1.9-1.66-3.92-2.56-6.14zm76.42-56.77c1.46-.2 2.47-.29 3.45-.49 1.09-.22 2.18-.51 3.24-.84 11.08-3.4 19.8-10.33 27.1-18.99 11.47-13.6 22.61-27.46 33.82-41.28.85-1.05 1.28-2.59 1.5-3.97.96-5.85 1.87-11.7 2.59-17.58.55-4.52 1.62-9.19 1.01-13.59-2.92-21.03-9.58-41.08-16.88-60.92-4.7-12.78-10.71-24.85-19.98-35.03-4.98-5.46-10.58-10.15-17.78-13.33.17 2.64.3 4.86.45 7.08.76 11.83 2.24 23.67 2.14 35.49-.2 23.04-1.55 46.07-1.91 69.11-.2 12.31-2.28 24.02-6.22 35.71-4.7 13.94-8.3 28.27-12.03 42.52-1.36 5.15-1.78 10.55-.5 16.11z" fill="#010102"/><g fill="#fcfbfa"><path d="m385.2 377.6.6-.7c.6.4 1.3.9 1.9 1.5l-.6.7c-.8-.5-1.4-1-1.9-1.5zm.3 7.1c.6-1.4 1.1-2.9 1.5-4.5.3.1.6.3.9.4-.5 1.4-1 2.9-1.5 4.4zm.2-10.1.6-.6c.7.5 1.3 1.1 1.9 1.6l-.7.7c-.6-.6-1.2-1.2-1.8-1.7zm8.4-.8h.8v.9h1.8v.7h-1.8v1.8h-.8v-.3h-1.2v.9h3.3v2.6h-.8v-.4h-2.5c0 .3 0 .6-.1.8h3.4v.7h-3.5c0 .3-.1.6-.1.8h4v.7h-3.5c.7.9 1.9 1.3 3.6 1.5-.2.2-.4.5-.6.9-1.9-.3-3.2-1.1-3.8-2.3-.5 1.1-1.8 2-3.9 2.4-.2-.3-.4-.5-.6-.8 1.9-.4 3.1-.9 3.6-1.7h-3.2v-.7h3.5c.1-.2.1-.5.2-.8h-3.3v-.7h3.4c0-.2 0-.5 0-.8h-2.4v.3h-.8v-2.6h3.3v-.9h-1.2v.3h-.8v-1.8h-1.8v-.7h1.8v-.9h.8v.9h3.2zm-4.4 5.5h2.4c0-.3 0-.6 0-.9h-2.4zm1.2-3.1h3.2v-.8h-3.2zm4.4 2.2h-2.4v.9h2.5v-.9z"/><path d="m389.2 385.8h.9v1.5h1.9v-1.5h.9v1.5h2.7v6h1.1v.9h-11.3v-.9h1.1v-6h2.7zm.2 8.7.5.8c-1.2.6-2.5 1.3-4 1.9-.2-.3-.3-.6-.6-.8 1.6-.6 3-1.3 4.1-1.9zm-2-4.3h1.9v-2.1h-1.9zm0 3.1h1.9v-2.2h-1.9zm2.7-3.1h1.9v-2.1h-1.9zm0 3.1h1.9v-2.2h-1.9zm2.4 1.3c1.4.6 2.7 1.2 4.1 1.8l-.5.9c-1.5-.7-2.8-1.4-4.1-1.9zm2.2-6.5h-1.9v2.1h1.9zm-1.9 5.2h1.9v-2.2h-1.9z"/></g></svg>