<svg enable-background="new 0 0 400 400" viewBox="0 0 400 400" xmlns="http://www.w3.org/2000/svg"><path d="m72.4 351.05c6.55-1.1 12.09-2.48 17.71-2.86 7.91-.54 15.88-.25 23.82-.5 1.94-.06 3.88-.74 5.76-1.31 1.16-.36 2.28-.96 3.3-1.63 8.91-5.86 18.79-7.32 29.28-7.55 11.99-.26 23.87-.37 35.77 1.49 8.23 1.29 16.16-4.05 17.75-12.31 1.02-5.28 1.41-11.02.44-16.26-1.64-8.86-4.28-17.57-7.06-26.16-2.23-6.91-7.8-10.47-15.26-10.38-4.68.05-9.36.72-14.04.93-1.62.07-3.36-.11-4.87-.66-27.79-10.22-55.79-19.94-83.24-31.01-17.41-7.02-29.59-19.88-32.21-39.39-3.22-23.93-6.75-47.88-8.45-71.94-2.49-35.35 1.81-70.13 13.12-103.89.21-.62.54-1.2.83-1.86 8.76 1.96 14.08 7.76 16.44 15.73 2.27 7.65 3.79 15.64 4.65 23.58 3.12 28.83 1.3 57.69-.24 86.52-.8 14.89.35 29.62 5.16 43.71 1.59 4.66 5.57 8.9 9.36 12.33 10.65 9.62 23.92 14.18 37.53 17.72 17.15 4.46 34.52 7.66 52.31 7.46 5.67-.06 11.35-.91 16.97-1.75 1.37-.2 2.99-1.5 3.73-2.74 6.69-11.2 9.46-23.52 10.3-36.42.8-12.28 1.33-24.62 3.05-36.78 1.15-8.12 3.86-16.08 6.5-23.89 1.53-4.54 1.22-8.07-1.99-11.57-1.56-1.71-2.7-3.8-4.34-6.16 3.15-.46 5.86-.98 8.6-1.18.79-.06 1.85.64 2.46 1.3 10.78 11.78 17.47 25.43 17.89 41.59.37 13.98.07 27.97.43 41.95.3 11.62 1.12 23.23 1.72 35.18 8.05-1.1 15.87-2.16 23.68-3.25 6.76-.95 13.49-2.09 20.26-2.85 3.62-.4 5.57-2.61 7.08-5.4 1.77-3.29.13-12.09-2.57-14.78-2.51-2.5-5.06-4.96-8-7.85 3.58-1.22 6.5-2.23 9.42-3.2 5.34-1.78 5.42-1.77 5.66-7.48.99-23.15 1.94-46.3 2.9-69.44.37-8.83.51-17.68 1.2-26.49 1.12-14.28-.81-28.37-2.2-42.5-.69-7-1.4-14.01-2.16-21.52 2.97.31 5.69.54 8.41.89 4.33.55 8.63 1.34 12.97 1.7 2.26.19 3.44 1.18 4.18 3.12 3.56 9.39 7.66 18.62 10.59 28.21 4.34 14.2 7.89 28.64 11.69 43 .84 3.16.63 6.06-1.1 9.26-1.68 3.11-2.54 7.01-2.61 10.58-.35 20.25-.32 40.51-.51 60.77-.02 2.19-.36 4.47-1.04 6.56-5.88 18.06-12.15 36-17.71 54.16-2.59 8.44-8.15 13.65-15.38 17.61-8.76 4.81-18.33 5.25-28.05 4.83-10.41-.46-20.82-.62-30.95 2.5-.21.07-.44.08-.66.14-8.53 2.53-8.59 2.75-9.24 11.62-1.27 17.52-2.62 35.04-4.08 52.55-.21 2.46.66 3.54 2.7 4.6 11.47 5.95 23.49 6.4 35.93 4.18 6.15-1.1 12.41-1.7 18.64-2.31 9.62-.94 18.71.29 27.53 4.98 7.25 3.85 15.06 6.93 22.95 9.17 4.26 1.21 6.85 3.24 9.09 6.86-9.58 8.47-20.7 11.32-33.21 10.08-13.34-1.33-26.69-2.93-40.07-3.38-7.39-.25-14.83 1.84-22.28 2.47-18.05 1.54-36.11 2.98-54.18 4.23-24.02 1.66-47.8-1.49-71.6-4.05-13.68-1.47-27.37-2.82-41.06-4.22-.22-.02-.49.04-.66-.06-4.93-2.92-10.09-5.54-14.67-8.94-1.82-1.42-2.45-4.49-4.07-7.64z" fill="#010102"/><g fill="#fcfbfa"><path d="m385.2 377.6.6-.7c.6.4 1.3.9 1.9 1.5l-.6.7c-.8-.5-1.4-1-1.9-1.5zm.3 7.1c.6-1.4 1.1-2.9 1.5-4.5.3.1.6.3.9.4-.5 1.4-1 2.9-1.5 4.4zm.2-10.1.6-.6c.7.5 1.3 1.1 1.9 1.6l-.7.7c-.6-.6-1.2-1.2-1.8-1.7zm8.4-.8h.8v.9h1.8v.7h-1.8v1.8h-.8v-.3h-1.2v.9h3.3v2.6h-.8v-.4h-2.5c0 .3 0 .6-.1.8h3.4v.7h-3.5c0 .3-.1.6-.1.8h4v.7h-3.5c.7.9 1.9 1.3 3.6 1.5-.2.2-.4.5-.6.9-1.9-.3-3.2-1.1-3.8-2.3-.5 1.1-1.8 2-3.9 2.4-.2-.3-.4-.5-.6-.8 1.9-.4 3.1-.9 3.6-1.7h-3.2v-.7h3.5c.1-.2.1-.5.2-.8h-3.3v-.7h3.4c0-.2 0-.5 0-.8h-2.4v.3h-.8v-2.6h3.3v-.9h-1.2v.3h-.8v-1.8h-1.8v-.7h1.8v-.9h.8v.9h3.2zm-4.4 5.5h2.4c0-.3 0-.6 0-.9h-2.4zm1.2-3.1h3.2v-.8h-3.2zm4.4 2.2h-2.4v.9h2.5v-.9z"/><path d="m389.2 385.8h.9v1.5h1.9v-1.5h.9v1.5h2.7v6h1.1v.9h-11.3v-.9h1.1v-6h2.7zm.2 8.7.5.8c-1.2.6-2.5 1.3-4 1.9-.2-.3-.3-.6-.6-.8 1.6-.6 3-1.3 4.1-1.9zm-2-4.3h1.9v-2.1h-1.9zm0 3.1h1.9v-2.2h-1.9zm2.7-3.1h1.9v-2.1h-1.9zm0 3.1h1.9v-2.2h-1.9zm2.4 1.3c1.4.6 2.7 1.2 4.1 1.8l-.5.9c-1.5-.7-2.8-1.4-4.1-1.9zm2.2-6.5h-1.9v2.1h1.9zm-1.9 5.2h1.9v-2.2h-1.9z"/></g></svg>