<svg enable-background="new 0 0 400 400" viewBox="0 0 400 400" xmlns="http://www.w3.org/2000/svg"><g fill="#010100"><path d="m269.8 374.67c-4.4-7.23-5.97-14.96-7.36-22.78-1.18-6.6-.24-12.84 2.26-19.02.78-1.92.84-4.34.57-6.45-.73-5.65-2.37-11.23-2.58-16.89-.16-4.33 1.02-8.8 2.14-13.06.84-3.18.85-6-.33-9.08-1.99-5.22-3.7-10.54-5.38-15.87-.58-1.84-1.46-2.23-3.36-2.22-5.09.04-9.07 1.52-12.25 5.89-2.6 3.57-6.03 6.61-9.4 9.54-3.37 2.92-7.49 4.27-12.13 4.18-1.1-3.95-2.42-7.51 1.56-10.74 1.49-1.21 2.46-3.55 2.85-5.54 1.34-6.75 4.47-12.59 8.38-18.11 3.1-4.38 6.09-8.85 9.42-13.06 2.99-3.78 3.66-7.89 2.45-12.31-1.92-6.99-5.03-13.46-10.32-18.53-5.32-5.1-10.8-10.05-16.48-14.74-2.16-1.78-5.06-2.65-8.05-4.15-2.04 5.75-3.92 10.97-5.74 16.21-2.56 7.4-9.64 9.61-15.96 4.89-.47-.35-.87-1.39-.7-1.91 3.19-9.99 1.43-19.96-.14-29.9-1.4-8.94-1.2-17.75.71-26.62 3.49-16.24 3.06-32.71 2.23-49.15-.75-14.79-.01-29.27 5.52-43.24 1.73-4.35 1.5-9-.79-13.02-4.64-8.14-2.08-16.2 3.71-23.78 5.43 8.68 8.99 17.79 8.93 28.07-.04 7.83-.1 15.67-.28 23.5-.03 1.37-.86 2.7-1.09 4.09-.51 3-2.09 6.5-1.11 8.94 4.57 11.36 3.05 22.86 1.98 34.43-.78 8.47-1.8 16.93-2.03 25.42-.1 3.78 1.78 7.58 2.23 11.43.81 6.87 4.1 11.77 9.77 15.79 5.45 3.86 10.16 8.76 15.27 13.11 4.98 4.24 10.43 7.64 16.88 9.32 2.51.66 3.63-.05 4.44-2.42 2.02-5.89 1.04-11.71-.01-17.56-1.16-6.49-2.06-13.03-3.48-19.46-.83-3.78-2.44-7.38-3.84-11.48 4.17-.85 8.27-1.76 12.41-2.43.62-.1 1.72.79 2.08 1.49 3.06 5.95 6.71 11.74 8.77 18.04 1.91 5.83 2.29 12.2 2.83 18.38.12 1.44-1.86 3.06-2.52 4.06 2 2.22 4.77 4.12 5.77 6.71 1.05 2.72 1.21 6.33.38 9.15-2.94 9.95-6.01 19.91-9.91 29.51-3.14 7.73-3.71 14.81.27 22.31 1.82 3.42 2.6 7.38 4.18 10.94 5.29 11.92 7.67 24.39 8.23 37.39.59 13.87 1.66 27.71-.2 41.55-.42 3.16-1.07 5.84-4.3 7.68-3.22 1.83-3.32 5.55-.86 8.3 4.45 4.98 3.87 8.29-2 11.37-1.05.56-2.15 1.09-3.62 1.83z"/><path d="m141.53 270.79c1.32 12.3-2.86 23.16-6.73 34.13-.64 1.81-.23 4.04-.03 6.06.11 1.19.63 2.39 1.16 3.49 5.28 10.95.97 21.18-2.64 31.31-1.5 4.2-5.31 6.77-9.73 8.45-5.4-7.86-8.13-16.62-9.45-25.88-1.66-11.68-1.09-23.21 2.54-34.51.3-.94.58-2.03 1.23-2.71 3.38-3.52 3.97-7.51 2.73-12.11-1.84-6.84.06-13.29 2.61-19.57 1.46-3.59 1.54-6.96.3-10.69-2.6-7.83-5.21-15.71-7.04-23.74-1.43-6.24-1.45-12.68 2.84-18.27 4.64-6.03 3.61-13.38 4.68-20.25.33-2.1 1.02-4.33 2.18-6.07 1.6-2.39 3.57-4.66 5.8-6.48 3.51-2.86 4.98-6.44 4.88-10.77-.08-3.69 1.4-5.75 5.14-6.85 4.79-1.41 9.37-3.57 14.35-5.53-1.2-3.69-2.35-7.25-3.51-10.83 5.44-1 9.96 3.41 11.36 7.5.25.74.38 1.53.68 2.25 3.16 7.56 2.29 12.89-4.85 18.96-14.36 12.21-24.24 27.99-28.8 46.65-.08.33-.23.64-.28.97-1.48 10.41-2.64 7.84 7.11 13.69 4.36-6.25 8.9-12.44 13.1-18.87 3.88-5.93 7.74-11.81 13.85-15.73 2.24-1.44 4.6-2.68 7.53-4.37-.28 1.51-.38 2.34-.59 3.13-.8 3.02-1.69 6.03-2.46 9.06-2.23 8.78-5.03 17.06-11.04 24.36-5.66 6.88-9.76 14.97-10.53 24.29-.47 5.71.25 10.57 5.96 13.61 4.53 2.41 8.78 5.35 13.23 7.91 5.33 3.06 9.23 7.34 11.76 12.89-3.74 4.79-9.23 6.62-14.85 4.79-4.25-1.38-8.45-2.92-12.63-4.49-4.71-1.77-6.33-5.03-5.08-9.9.55-2.11-.78-3.82-4.78-5.88z"/><path d="m194.61 261.24c-4.94-4.14-5.99-9.02-5.42-14.73.7-6.99.8-14.03 1.18-21.36 5.27-.1 10.14.6 14.62 3.16 3.45 1.98 4.74 5.24 4.96 8.97.41 6.75-1.72 12.99-4.18 19.13-.28.7-1.18 1.33-1.93 1.61-3.12 1.17-6.29 2.21-9.23 3.22z"/></g><path d="m6.4 11.7c-1-.8-1.9-1.6-2.9-2.3l.6-.7c.9.7 1.9 1.4 2.9 2.2zm-2.1 8.3c.7-2.1 1.4-4.2 2-6.4.2.1.6.3 1 .4-.7 2.3-1.3 4.4-1.9 6.4zm3-12.8c-1.1-.9-2.1-1.7-2.9-2.4l.6-.7c1 .8 2 1.5 3 2.4zm1.4-1.3v-.9h10.2v.9c-.9 4.2-2.3 7.3-4.1 9.4 1.3 1.4 3.2 2.7 5.7 4-.2.2-.4.5-.7.9-2.5-1.4-4.4-2.7-5.7-4.2-1.4 1.5-3.5 3-6.1 4.4 0 0 0 0-.1-.1-.3-.4-.5-.7-.7-.8 2.7-1.3 4.7-2.8 6.2-4.2-1.8-2.2-3-5.3-3.7-9.4zm9.2 0h-7.1c.6 3.8 1.7 6.7 3.4 8.7 1.7-2 2.9-4.8 3.7-8.7z" fill="#fafbfa"/><path d="m31.6 3.6h.9v2.3h4.1v9.1h1.7v.9h-16.6v-.9h1.7v-9.1h4.1v-2.3h.9v2.3h3.1v-2.3zm-4 13.3.6.8c-1.9.9-3.8 1.9-5.8 2.8-.2-.3-.3-.6-.5-.9 2-.9 3.9-1.8 5.7-2.7zm-3.2-10.1v3.7h3.1v-3.7zm0 4.5v3.7h3.1v-3.7zm4.1-4.5v3.7h3.1v-3.7zm0 4.5v3.7h3.1v-3.7zm9.1 9.1c-2.1-1.1-4.1-2-5.8-2.7l.5-.8c2.2.9 4.1 1.8 5.8 2.6zm-1.9-13.6h-3.1v3.7h3.1zm-3.2 4.5v3.7h3.1v-3.7z" fill="#fafbfa"/></svg>