<svg enable-background="new 0 0 400 400" viewBox="0 0 400 400" xmlns="http://www.w3.org/2000/svg"><path d="m210.47 205.65c-1.97 5.61-3.97 11.21-5.89 16.83-.86 2.53-1.63 5.1-2.28 7.69-.7 2.77-1.42 5.57-1.8 8.4-.99 7.41-4.22 13.75-9.54 19.41.67-5.77.78-11.68 2.13-17.29 2.14-8.9 5.08-17.6 7.74-26.37.45-1.49 1.2-2.88 1.75-4.34 1.06-2.82 2.56-5.59 2.95-8.5s-.37-5.97-.62-8.96c-3.35.33-6.82.26-10.03 1.12-2.26.61-4.19 2.49-6.52 3.96-2.12-3.12-4.25-3.25-7.3-.75-3.8 3.11-10.25 3.93-15.73 2.66 5.44-2.64 10.19-5.22 15.15-7.29 11-4.58 9.71-2.57 11.42-14.86 1.38-9.89.48-19.58-2.35-28.85-1.26-4.13-1.47-9.36-5.75-12.35-.37-.26-.73-1.01-.63-1.42 1.05-4.13-1.73-3.93-4.26-3.67-3.5.35-7.03.77-10.46 1.51-7.27 1.56-11.93-2.12-10.48-9.44 1.25-6.29 2.81-13.08 6.35-18.19 3.17-4.59 8.01-8.78 14.26-10.39 3.14-.81 5.93-2.97 9.43-4.8-4.42-2.23-3.2-5.2-1.81-8.1 1.83-3.81 3.77-7.56 5.66-11.33.15-.3.35-.6.4-.92 1.57-10.43 8.36-18.39 12.99-27.36 1.52-2.95 2.14-5.68 1.68-8.94-.34-2.4.09-4.91.2-8.02 5.03 2.05 7.86 5.12 8.8 9.21 1.34 5.85 2.12 11.86 2.73 17.85 2.21 21.31 3.03 42.79 8.27 63.7 2.41 9.61 4.61 19.29 7.37 28.8 1.55 5.34 1.63 10.44.4 15.77-.65 2.81-.51 5.8-1.16 8.6-1.46 6.31-9.31 18.65-17.98 18.59-4.41-.03-6.81 4.5-4.15 8.02 3.49 4.61 7.6 8.74 11.32 13.18 7.22 8.63 12.83 18.07 12.6 29.76-.08 3.83-1.24 7.7-2.25 11.45-1.16 4.31-2.59 8.56-4.14 12.75-.87 2.35-2.45 4.44-3.36 6.78-1.76 4.53-3.61 9.06-4.78 13.75-1.4 5.63-2.06 11.43-3.17 17.14-.34 1.75-1.13 3.42-1.85 5.51 2.01 1.91 1.74 4.48.33 7.21-.4.78-.71 1.7-.72 2.56-.1 5.26-.12 10.53-.13 15.79 0 2.66.11 5.33.11 7.99 0 5.12.28 10.26-.15 15.34-.47 5.62-1.54 11.2-2.49 16.77-.17 1-1.01 1.89-1.72 3.15-.42-.72-.79-1.06-.81-1.41-.77-15.5-1.7-30.99-2.17-46.5-.22-7.43.41-14.88.73-22.32.06-1.32.48-2.62.72-3.94.76-4.13 1.43-8.28 2.3-12.38.46-2.17 1.28-4.27 1.94-6.4 1.18-3.82 2.37-7.64 3.52-11.47.98-3.26 1.97-6.51 2.88-9.79 1.92-6.98 3.81-13.96 5.67-20.96.19-.72.4-1.64.13-2.26-3.34-7.89-3.78-16.85-8.79-24.13-1.83-2.66-3.7-5.3-5.54-7.95-.36.13-.74.27-1.12.4zm-9.77-31.82c-.3.04-.59.08-.89.12 0 2.57.09 5.14-.02 7.7-.12 2.73 1.19 3.44 3.69 3.22 6.03-.52 11.63-2.18 16.45-5.93 1.09-.85 2.29-2.04 2.64-3.3 3.22-11.56 5.98-23.17 1.97-35.18-.91-2.73-1.17-5.67-1.91-8.47-.99-3.76-2.08-7.5-3.3-11.19-.51-1.55-1.65-2.29-3.42-1.4-3.35 1.67-6.74 3.27-10.14 4.85-.66.3-1.43.35-2.14.54-3.61.96-7.27 1.76-10.8 2.95-1.99.67-2.73 2.17-1.9 4.52 2.31 6.56 4.83 13.1 6.39 19.85 1.65 7.11 2.3 14.46 3.38 21.72zm12.12-82.45c-.35.37-.71.73-1.06 1.1-2.62.57-5.24 1.6-7.86 1.61-8.19.02-16.09 1.36-23.68 4.38-7.33 2.92-13.43 7.03-14.2 15.89-.32 3.7-.8 7.38-1.25 11.47 2.85 0 4.74.1 6.63-.02 14.9-.9 28.3-7.83 42.74-10.66 2.96-.58 3.58-3.23 2.98-6.18-.72-3.58-.96-7.26-1.76-10.82-.52-2.33-1.67-4.52-2.54-6.77zm-21.28-2.09c6.13-.89 11.61-1.72 17.09-2.47 4.89-.66 4.96-.69 5.33-5.75.71-9.7-1.29-19.09-3.39-28.46-.17-.77-.87-1.41-2.03-3.22-7.13 13.12-12.61 25.92-17 39.9z" fill="#010102"/><g fill="#fcfbfa"><path d="m385.2 377.6.6-.7c.6.4 1.3.9 1.9 1.5l-.6.7c-.8-.5-1.4-1-1.9-1.5zm.3 7.1c.6-1.4 1.1-2.9 1.5-4.5.3.1.6.3.9.4-.5 1.4-1 2.9-1.5 4.4zm.2-10.1.6-.6c.7.5 1.3 1.1 1.9 1.6l-.7.7c-.6-.6-1.2-1.2-1.8-1.7zm8.4-.8h.8v.9h1.8v.7h-1.8v1.8h-.8v-.3h-1.2v.9h3.3v2.6h-.8v-.4h-2.5c0 .3 0 .6-.1.8h3.4v.7h-3.5c0 .3-.1.6-.1.8h4v.7h-3.5c.7.9 1.9 1.3 3.6 1.5-.2.2-.4.5-.6.9-1.9-.3-3.2-1.1-3.8-2.3-.5 1.1-1.8 2-3.9 2.4-.2-.3-.4-.5-.6-.8 1.9-.4 3.1-.9 3.6-1.7h-3.2v-.7h3.5c.1-.2.1-.5.2-.8h-3.3v-.7h3.4c0-.2 0-.5 0-.8h-2.4v.3h-.8v-2.6h3.3v-.9h-1.2v.3h-.8v-1.8h-1.8v-.7h1.8v-.9h.8v.9h3.2zm-4.4 5.5h2.4c0-.3 0-.6 0-.9h-2.4zm1.2-3.1h3.2v-.8h-3.2zm4.4 2.2h-2.4v.9h2.5v-.9z"/><path d="m389.2 385.8h.9v1.5h1.9v-1.5h.9v1.5h2.7v6h1.1v.9h-11.3v-.9h1.1v-6h2.7zm.2 8.7.5.8c-1.2.6-2.5 1.3-4 1.9-.2-.3-.3-.6-.6-.8 1.6-.6 3-1.3 4.1-1.9zm-2-4.3h1.9v-2.1h-1.9zm0 3.1h1.9v-2.2h-1.9zm2.7-3.1h1.9v-2.1h-1.9zm0 3.1h1.9v-2.2h-1.9zm2.4 1.3c1.4.6 2.7 1.2 4.1 1.8l-.5.9c-1.5-.7-2.8-1.4-4.1-1.9zm2.2-6.5h-1.9v2.1h1.9zm-1.9 5.2h1.9v-2.2h-1.9z"/></g></svg>