<svg enable-background="new 0 0 400 400" viewBox="0 0 400 400" xmlns="http://www.w3.org/2000/svg"><path d="m274.43 363.12c-.89-.52-1.98-.85-2.63-1.58-3.88-4.34-7.72-8.72-11.42-13.21-.95-1.15-1.54-2.7-1.94-4.17-2.09-7.65-3.96-15.37-6.14-22.99-.76-2.66-2.32-5.07-3.32-7.67-1.05-2.76-1.85-5.61-2.8-8.41-.38-1.14-.77-2.29-1.33-3.35-.41-.78-1.04-1.46-1.66-2.11-6.31-6.59-10.5-14.33-13.11-23.06-.53-1.77-1.88-3.55-3.33-4.76-6.94-5.81-14.04-11.42-21.78-17.67-.36 3.17-.99 5.68-.87 8.15.87 17.97 1.53 35.97 2.98 53.9 1.08 13.44-.12 26.6-2.73 39.69-.59 2.97-2.55 5.66-3.88 8.48-.33-.13-.67-.26-1-.39-.04-.4-.16-.81-.1-1.2.7-4.93-.79-9.17-3.66-13.16-.7-.98-.91-2.77-.57-3.96 1.3-4.5 1.6-9 .66-13.57-.66-3.23-1-6.28 3.53-8.28-6.35-2.61-5.36-7.83-6.08-12.25-1.18-7.17-2.09-14.39-3.14-21.58-.51-3.51-1.67-7.1 2.23-10.03-5.06-2.53-5.51-6.02-3.51-10.53 1.33-3 1.54-6.29-.43-9.33-1.76-2.71-1-5.54-.51-8.43.22-1.29.05-3.53-.68-3.91-1.98-1.02-3.39.26-4.45 2.21-6.43 11.9-13.17 23.64-19.38 35.66-2.85 5.51-4.86 11.48-6.99 17.33-1.76 4.83-3.33 9.74-4.62 14.71-2.05 7.9-5.28 15.06-10.62 21.38-1.85 2.19-2.67 5.37-3.54 8.23-.91 3-2.19 5.59-4.82 7.39-3.83 2.63-5.59 6.29-6.31 10.88-.95 6.11-2.02 7.38-5.68 9.25-1.99-3.86-1.42-7.83-.48-11.77 2.29-9.6 5.39-18.92 10.31-27.53 2.67-4.66 4.06-9.63 4.19-14.98.08-2.97.6-5.66 3.48-7.49.84-.54 1.48-2.28 1.32-3.35-.67-4.59.18-8.81 1.93-13.05 2.43-5.88 4.47-11.93 6.84-17.84 6.92-17.26 16.38-33.02 28.44-47.16 3.71-4.35 6.15-9.06 6.64-14.7.51-5.9 1.04-11.82 1.11-17.74.06-5.34-.74-6.38-5.95-6.81-12.09-1.01-21.64-8.04-32.08-12.95-.84-.39-1.46-1.35-2.07-2.14-3.96-5.14-7.94-10.27-11.78-15.5-.8-1.08-1.54-2.65-1.4-3.9.55-4.99-1.17-9.12-3.85-13.16-.87-1.32-.72-3.3-1.14-4.95-.34-1.32-.47-2.96-1.33-3.82-3.13-3.12-3.77-6.6-3.39-10.93.36-4.14-.52-8.38-.86-12.58-.12-1.42-.85-3.12-.32-4.2 2.27-4.62.85-8.85-.68-13.21-.52-1.49-1.11-3.49-.55-4.75 2.72-6.13 1.65-12.22.53-18.39-.19-1.06-.52-2.48-.02-3.23 5.07-7.71 5.64-16.28 4.64-25.44 2.14-.38 3.93-.7 5.87-1.04.14 1.01.41 1.68.29 2.29-.64 3.34.86 5.57 3.59 7.19 2.24 1.33 2.98 3.39 3.23 5.85.36 3.67.74 7.36 1.42 10.98.64 3.44.13 6.41-2.77 9.08 5.72 3.37 5.99 8.64 5.55 14.15-.24 3.01-.74 6-.88 9.02-.12 2.64.09 5.29.15 7.94.03 1.42.49 3.01.02 4.25-2.84 7.47-1.74 14.96-.43 22.47.19 1.1.29 2.22.5 3.32 3.86 20.12 18.82 35.11 37.42 38.65.61.12 1.41.1 1.91-.2 2.44-1.48 4.37-6.57 3.74-9.58-.67-3.17-1.1-6.42-2.06-9.5-1.78-5.69-.74-11.25.18-16.87.3-1.85.45-3.81.16-5.64-.56-3.53-1.41-6.95.7-10.35.52-.83.29-2.18.27-3.29-.16-10.41-.54-20.82-.43-31.22.05-4.64.51-9.43 1.77-13.87 3.47-12.23 3.17-24.77 4.05-37.24.33-4.7 1.78-9.33 2.69-13.86 5.81.21 10.99 5.39 13.3 12.71-5.62 3.46-5.5 9.09-5.65 14.96-.25 9.6-1.41 19.18-1.69 28.78-.48 16.21-.65 32.43-.81 48.65-.09 9.85.25 19.7.07 29.55-.06 3.28.73 5.81 3.52 7.31 2.88 1.54 5.06-.42 7.19-2.1 1.75-1.39 3.5-2.82 5.38-4.01 3.58-2.27 6.09-5.09 6.52-9.57.12-1.28 1.22-2.61 2.17-3.65 7.06-7.7 13.44-15.89 17.92-25.39.82-1.75 1.32-3.76 1.47-5.68.24-3.23-.2-6.52.14-9.73.34-3.14 1.3-6.21 1.99-9.3.37-1.62 1.02-3.22 1.09-4.85.27-6.15.19-12.32.57-18.46.18-2.93 1.1-5.81 1.64-8.73.16-.86.45-1.85.18-2.6-1.5-4.12-.58-8.02 1.29-11.64 3.03-5.87 1.52-11.74.55-17.67-.23-1.4-.39-2.82-.61-4.42 2.36-.27 4.44-.62 6.54-.69.76-.03 1.74.43 2.27 1 3.74 4.01 6.12 8.74 5.27 14.29-1.01 6.62-2.65 13.13-3.91 19.71-.51 2.7-1 5.46-1.02 8.2-.03 4.58-.07 9.22.58 13.75 1.5 10.52-.55 20.35-4.38 30.1-1.62 4.11-2.32 8.62-3.11 13.01-.55 3.04-1.49 5.5-4.58 6.74-4.12 1.64-5.78 4.56-5.25 9.14.22 1.88-.61 4.2-1.68 5.87-6.38 9.93-13.78 18.95-23.25 26.24-5.65 4.36-11.49 3.26-15.28-.56-.7 4.71-1.56 9.92-2.18 15.15-.21 1.74.18 3.55.35 5.32.74 7.46 1.37 14.93 2.35 22.36.21 1.63 1.29 3.78 2.63 4.53 14.12 7.95 23.46 20.9 34.24 32.34.52.55.98 1.28 1.13 2 1.11 5.32 4.54 9.21 7.53 13.54 4.74 6.85 8.59 14.33 12.58 21.68.91 1.68 1.26 3.91 1.13 5.84-.34 5.22 1.41 9.65 4.43 13.69 2.19 2.93 3.05 6.1 2.68 9.72-.72 6.95 2.59 13.05 4.2 19.52 1.63 6.55 3.28 13.08 4.93 19.63-.44.36-.85.73-1.27 1.1z" fill="#010100"/><g fill="#fcfafa"><path d="m342.2 3.2-6.3 9.2h6.1v1.2h-8.2v-.5l6.2-9.1h-5.7v-1.2h7.8v.4z"/><path d="m344 13.7v-10.9h3.1c1.6 0 3 .5 4.1 1.4 1.1 1 1.6 2.2 1.6 3.9s-.5 3-1.6 4-2.5 1.5-4.2 1.5h-3zm1.4-9.6v8.4h1.6c1.4 0 2.5-.4 3.2-1.1.8-.8 1.2-1.8 1.2-3.2s-.4-2.4-1.2-3.1-1.8-1-3.1-1z"/><path d="m356.3 2.8v10.9h-1.4v-10.9z"/><path d="m366.6 13.2c-.8.4-1.8.6-3 .6-1.6 0-2.8-.5-3.7-1.5s-1.4-2.3-1.4-3.9c0-1.7.5-3.2 1.6-4.2s2.4-1.6 4-1.6c1 0 1.9.1 2.6.4v1.5c-.8-.4-1.6-.6-2.6-.6-1.2 0-2.2.4-3 1.2s-1.1 1.9-1.1 3.3c0 1.3.4 2.3 1.1 3.1s1.6 1.1 2.8 1.1c1.1 0 2-.2 2.8-.7v1.3z"/><path d="m368.2 13c0-.3.1-.5.3-.6.2-.2.4-.3.6-.3.3 0 .5.1.7.3s.3.4.3.6-.1.5-.3.6c-.2.2-.4.3-.7.3s-.5-.1-.6-.3c-.2-.2-.3-.4-.3-.6z"/><path d="m381.1 13.7h-1.7l-5.5-8.4c-.2-.2-.3-.5-.4-.7 0 .2.1.8.1 1.5v7.6h-1.4v-10.9h1.8l5.3 8.3c.3.4.4.6.4.8 0-.3-.1-.8-.1-1.6v-7.5h1.4v10.9z"/><path d="m389.7 13.7h-5.8v-10.9h5.6v1.2h-4.2v3.5h3.9v1.2h-3.9v3.7h4.4z"/><path d="m398.4 4.1h-3.1v9.6h-1.4v-9.6h-3.1v-1.3h7.7v1.3z"/></g></svg>