<svg enable-background="new 0 0 400 400" viewBox="0 0 400 400" xmlns="http://www.w3.org/2000/svg"><path d="m193.64 374.58c-1.41-4.63-2.72-8.9-4.22-13.83 3.69-2.98 3.35-7.68 2.32-12.55-.46-2.19-.62-4.45-1.2-6.59-.3-1.09-1.11-2.66-1.93-2.83-1.07-.22-2.68.43-3.54 1.25-5.97 5.73-11.7 11.72-17.73 17.4-4.42 4.16-9.36 7.7-15.47 9-1.21.26-3.53-.02-3.7-.55-.39-1.27.09-2.88.45-4.29.14-.57.86-1 1.32-1.49 8.95-9.56 17.95-19.07 26.83-28.7 2.95-3.2 5.64-6.64 8.36-10.04 1.86-2.33 1.88-4.55-.39-6.83-13.46-13.48-24.47-28.76-33.24-45.67-.41-.79-1.15-1.57-1.19-2.38-.31-6.21-4.49-10.54-7.25-15.58-.74-1.36-.88-3.09-1.09-4.68-.5-3.71-1-7.42-1.29-11.15-.44-5.65-1.35-11.36-.9-16.95.9-11.14 1.99-22.33 4.15-33.27 1.78-9.04 5.46-17.7 7.86-26.64 3.12-11.62 9.29-21.72 14.97-32.11 4.68-8.55 9.7-16.8 16.27-24.1 4.92-5.48 4.48-13.64-.1-19.3-6.16-7.61-11.14-15.93-14.13-25.33-.55-1.73-1.58-3.83.74-5.06 2.25-1.19 3.72.3 5.08 1.93 1.86 2.23 3.67 4.55 5.79 6.53 3.35 3.14 7.84 5.3 8.42 10.63.03.32.63.57 1.44 1.26.76-5.04 1.66-9.67 2.12-14.34.5-5.08.61-10.2.88-15.3.03-.56-.21-1.32.07-1.64 3.09-3.59 2.91-8.04 3.52-12.33.2-1.43 1.33-2.72 2.02-4.03 4.45 1.62 7.12 5.48 7.15 10.18.05 8.51-.04 17.01.08 25.52.02 1.08.75 2.83 1.51 3.05.9.26 2.54-.5 3.24-1.33 4.39-5.21 8.82-10.42 12.79-15.95 1.63-2.26 2.15-5.31 3.18-8-.29-.38-.57-.76-.86-1.14 2.15-.08 4.92-1.04 6.32-.05 2.68 1.9 2.95 5.24 1.23 8.17-3.39 5.77-6.83 11.52-10.51 17.1-5.42 8.21-11.18 16.2-16.52 24.46-1.14 1.77-1.59 4.37-1.45 6.52.64 9.52 4.35 18.21 8.09 26.82 3.1 7.14 5.57 14.68 11.48 20.25.46.43.73 1.11.98 1.72 5.87 14.24 11.9 28.43 17.53 42.77 5.24 13.34 8.98 27.08 10.8 41.4 1.5 11.76-1.61 22.16-7.36 32.02-2 3.42-4.73 6.42-7.14 9.6-.67.89-1.52 1.67-2.09 2.62-6.73 11.28-16.22 20.18-25.22 29.52-2.11 2.19-3.81 4.97-5.07 7.76-2.2 4.89-1.38 7.61 2.58 11.21 8.2 7.46 16.34 14.97 24.63 22.32 2.04 1.81 3.19 3.64 2.28 6.84-1.67-.18-3.54-.17-5.3-.6-3.79-.93-7.55-2.02-11.28-3.2-.86-.27-1.74-1.02-2.24-1.79-2.15-3.31-5.24-5.09-8.99-5.93-3.31-.74-5.44.11-6.06 3.38-1.58 8.34-3.05 16.73-4.02 25.16-.62 5.27-.17 5.32-5 9.16zm-30.88-199.05c-.96 1.75-1.31 2.32-1.59 2.91-11.6 24.52-10.96 49.24-1.17 74.1.24.62.58 1.21.93 1.78 2.49 4.13 5.38 4.06 7.95-.15.98-1.61 1.9-3.3 3.12-4.73 4.65-5.44 9.42-10.79 14.14-16.17 5.23-5.96 4.89-15.65.01-21.85-4.81-6.12-9.02-12.72-13.29-19.25-3.39-5.2-6.46-10.61-10.1-16.64zm71.51 79.96c1.46-1.35 3.11-2.15 3.52-3.37 3.23-9.45 6.06-18.92 2.69-29.08-2.28-6.88-4.56-13.84-5.8-20.95-.95-5.42-3.56-9.6-6.61-14.22-.82 1.35-1.41 2.39-2.06 3.38-4.59 7-8.99 14.14-13.87 20.93-2.79 3.87-3.68 6.38-1.04 10.23 7.44 10.88 15.11 21.6 23.17 33.08zm-44.73-145.83c-7.69 14.36-15.26 28.42-22.73 42.55-1.08 2.04-1.45 4.71.86 6.01 3.12 1.75 4.28 4.3 4.84 7.52.23 1.29.7 2.62 1.38 3.73 4.46 7.24 8.96 14.45 13.59 21.58.61.94 2 1.38 3.03 2.05.37-.27.73-.53 1.1-.8-.85-3.5-2.4-7.02-2.35-10.51.05-3.78 1.76-7.52 2.46-11.32.87-4.76-2.15-9.23-.87-14.27.9-3.54-.16-7.53.04-11.3.49-9.38 1.27-18.75 1.78-28.14.15-2.6.27-5.45-3.13-7.1zm16.63 130.84c-2.69 18.2-5.13 35.19-.44 52.72 2.8-2.09 5.15-4.37 6.9-7.05 3.53-5.41 6.56-11.16 10.1-16.56 4.23-6.45 4.1-10.93-1.24-16.62-2.29-2.44-4.7-4.8-7.28-6.92-2.26-1.87-4.83-3.37-8.04-5.57zm-1.44-106.14c.25 4.69.26 8.8.72 12.86.8 7.03-.44 14.43 3.6 20.94.35.56.09 1.8-.3 2.49-3.74 6.59-3.17 13.86-3.15 20.97.01 2.83 1.09 5.65 1.86 9.33 4.69-5.74 8.99-10.34 12.51-15.48 3.65-5.33 6-11.15 3.01-17.9-1.94-4.38-2.87-9.22-4.96-13.5-1.87-3.82-4.72-7.17-7.14-10.73-.49-.71-1.42-1.48-1.36-2.15.33-3.51-2.38-4.64-4.79-6.83zm-14.1 166.75c.36-1.69.64-2.4.65-3.11.17-14.96.38-29.93.39-44.89 0-2.16-.92-4.32-1.42-6.47-.35-.02-.7-.04-1.06-.06-2.16 2.67-5.02 5.05-6.3 8.09-1.85 4.41-4.72 7.25-8.72 9.56-5.4 3.12-5.65 3.9-3.25 9.82 4.19 10.33 11.75 18.24 19.71 27.06z" fill="#010102"/><g fill="#fcfbfa"><path d="m385.2 377.6.6-.7c.6.4 1.3.9 1.9 1.5l-.6.7c-.8-.5-1.4-1-1.9-1.5zm.3 7.1c.6-1.4 1.1-2.9 1.5-4.5.3.1.6.3.9.4-.5 1.4-1 2.9-1.5 4.4zm.2-10.1.6-.6c.7.5 1.3 1.1 1.9 1.6l-.7.7c-.6-.6-1.2-1.2-1.8-1.7zm8.4-.8h.8v.9h1.8v.7h-1.8v1.8h-.8v-.3h-1.2v.9h3.3v2.6h-.8v-.4h-2.5c0 .3 0 .6-.1.8h3.4v.7h-3.5c0 .3-.1.6-.1.8h4v.7h-3.5c.7.9 1.9 1.3 3.6 1.5-.2.2-.4.5-.6.9-1.9-.3-3.2-1.1-3.8-2.3-.5 1.1-1.8 2-3.9 2.4-.2-.3-.4-.5-.6-.8 1.9-.4 3.1-.9 3.6-1.7h-3.2v-.7h3.5c.1-.2.1-.5.2-.8h-3.3v-.7h3.4c0-.2 0-.5 0-.8h-2.4v.3h-.8v-2.6h3.3v-.9h-1.2v.3h-.8v-1.8h-1.8v-.7h1.8v-.9h.8v.9h3.2zm-4.4 5.5h2.4c0-.3 0-.6 0-.9h-2.4zm1.2-3.1h3.2v-.8h-3.2zm4.4 2.2h-2.4v.9h2.5v-.9z"/><path d="m389.2 385.8h.9v1.5h1.9v-1.5h.9v1.5h2.7v6h1.1v.9h-11.3v-.9h1.1v-6h2.7zm.2 8.7.5.8c-1.2.6-2.5 1.3-4 1.9-.2-.3-.3-.6-.6-.8 1.6-.6 3-1.3 4.1-1.9zm-2-4.3h1.9v-2.1h-1.9zm0 3.1h1.9v-2.2h-1.9zm2.7-3.1h1.9v-2.1h-1.9zm0 3.1h1.9v-2.2h-1.9zm2.4 1.3c1.4.6 2.7 1.2 4.1 1.8l-.5.9c-1.5-.7-2.8-1.4-4.1-1.9zm2.2-6.5h-1.9v2.1h1.9zm-1.9 5.2h1.9v-2.2h-1.9z"/></g></svg>