<svg enable-background="new 0 0 400 400" viewBox="0 0 400 400" xmlns="http://www.w3.org/2000/svg"><g fill="#010100"><path d="m188.56 78.98c4.96 7.7 2.02 16.83 4.27 25.35 2.9-.23 5.67-.36 8.41-.75.68-.1 1.58-.95 1.79-1.64 1.09-3.6 2.64-7.23 2.84-10.91.41-7.81.07-15.67.08-23.5 0-1.1-.21-2.57.38-3.23 1.88-2.08 4.09-3.86 6.17-5.76 1.17 2.03 2.63 3.95 3.42 6.11.67 1.84.85 3.96.77 5.95-.3 7.93-.74 15.85-1.22 23.78-.24 4.01.43 4.42 4.21 3.46 7.93-2.02 14.49-6.67 20.52-11.68 2.31-1.92 2.36-6.75 3.06-10.33.32-1.64-.53-3.48-.41-5.19.85-12.39 1.83-24.78 2.75-37.17.23-3.09.77-6 3.74-7.96 3.26 1.86 4.68 5.02 4.76 8.35.43 17.56 1.18 35.16-4.49 52.21-1.63 4.89-3.88 9.08-8.68 11.76-7.79 4.35-15.42 9.02-23.01 13.72-1.23.76-2.51 2.3-2.74 3.65-1.67 9.9-4.09 19.78-1.2 29.9.29 1.03-.26 2.65-.98 3.55-3.3 4.09-6.31 8.68-10.39 11.81-3.45 2.65-8.22 3.58-12.46 5.13-.34.12-1.2-.8-1.63-1.38-3.41-4.67-4.85-10.07-5.27-15.69-.77-10.37-1.26-20.76-1.85-31.14-.03-.53-.05-1.21.23-1.59 3.28-4.34 2.45-9.35 2.42-14.23-.03-5.8-.37-11.61-.05-17.39.2-3.38 1.31-4.09 4.56-5.19zm5.64 70.09c2.93-1.49 5.56-2.7 8.03-4.17.63-.37 1.08-1.6 1.06-2.42-.17-6.24-.4-12.48-.78-18.72-.08-1.3-.72-3.56-1.32-3.64-1.81-.23-4.06-.12-5.54.8-3.24 2.01-3.64 5.41-2.86 8.92.76 3.37.74 6.61-.99 9.74-.37.67-.45 1.73-.22 2.47.7 2.24 1.62 4.39 2.62 7.02z"/><path d="m189.52 236.87c.56 2.48 1.66 4.97 1.58 7.42-.37 11.14.16 22.37-2.83 33.29-.03.11-.07.21-.09.32-2.79 12.99-1.62 16.15 9.57 23.31 4.25 2.72 5.73 2.07 6.69-2.34 1.04-4.78 1.46-9.7 2.16-14.56.58-4 2.09-7.42 6.01-9.62 3.09 6.13 2.41 12.38 1.89 18.6-.2 2.34-.33 4.71-.8 7-1.67 8.04 2.57 12.86 8.84 16.61 3.29 1.96 5.44 1.35 6.2-2.31 1.61-7.75 2.8-15.6 4.18-23.4.43-2.41.7-4.88 1.51-7.17.36-1.03 1.76-2.06 2.87-2.31.54-.13 1.78 1.39 2.21 2.38 2.02 4.63 1.23 9.43.67 14.22-1.04 8.77-1.64 17.62-3.14 26.31-2.01 11.66-4.64 23.22-7.13 34.8-.65 3.03-2 5.91-2.64 8.93-.4 1.87-.07 3.9-.07 6.13-2.13.83-4.71 1.25-6.16-.92-7-10.5-14.66-20.78-16.99-33.56-1.2-6.58-1.63-13.33-1.97-20.02-.18-3.58-1.3-5.99-4.38-7.96-4.05-2.58-7.64-5.87-11.69-8.45-3.46-2.21-5.18-5.31-5.41-9.11-.45-7.58-.55-15.18-.76-22.78-.02-.66-.04-1.58.34-1.94 3.26-3.06 2.06-6.73 1.67-10.36-.46-4.32 3.19-16.68 6.39-22.32.42-.05.85-.12 1.28-.19zm23.53 87.19c-2.09 10.8 2.75 19.18 7.92 27.86 3.94-5.74 5.71-11.64 5.21-18.06-.12-1.55-1.04-3.63-2.27-4.39-3.27-2.04-6.91-3.5-10.86-5.41z"/><path d="m170.62 156.36c-.26.3-.8 1.49-1.7 1.88-3.77 1.64-7.57 3.96-11.49 4.25-3.46.25-7.18-1.65-10.62-3.01-1.91-.75-3.76-2.09-5.16-3.61-1.12-1.23-2.03-3.11-2.04-4.72-.01-.91 1.82-2.11 3.04-2.74 7.69-3.92 15.37-2.02 22.99.31 3.22.99 4.95 3.26 4.98 7.64z"/></g><path d="m6.4 11.7c-1-.8-1.9-1.6-2.9-2.3l.6-.7c.9.7 1.9 1.4 2.9 2.2zm-2.1 8.3c.7-2.1 1.4-4.2 2-6.4.2.1.6.3 1 .4-.7 2.3-1.3 4.4-1.9 6.4zm3-12.8c-1.1-.9-2.1-1.7-2.9-2.4l.6-.7c1 .8 2 1.5 3 2.4zm1.4-1.3v-.9h10.2v.9c-.9 4.2-2.3 7.3-4.1 9.4 1.3 1.4 3.2 2.7 5.7 4-.2.2-.4.5-.7.9-2.5-1.4-4.4-2.7-5.7-4.2-1.4 1.5-3.5 3-6.1 4.4 0 0 0 0-.1-.1-.3-.4-.5-.7-.7-.8 2.7-1.3 4.7-2.8 6.2-4.2-1.8-2.2-3-5.3-3.7-9.4zm9.2 0h-7.1c.6 3.8 1.7 6.7 3.4 8.7 1.7-2 2.9-4.8 3.7-8.7z" fill="#fafbfa"/><path d="m31.6 3.6h.9v2.3h4.1v9.1h1.7v.9h-16.6v-.9h1.7v-9.1h4.1v-2.3h.9v2.3h3.1v-2.3zm-4 13.3.6.8c-1.9.9-3.8 1.9-5.8 2.8-.2-.3-.3-.6-.5-.9 2-.9 3.9-1.8 5.7-2.7zm-3.2-10.1v3.7h3.1v-3.7zm0 4.5v3.7h3.1v-3.7zm4.1-4.5v3.7h3.1v-3.7zm0 4.5v3.7h3.1v-3.7zm9.1 9.1c-2.1-1.1-4.1-2-5.8-2.7l.5-.8c2.2.9 4.1 1.8 5.8 2.6zm-1.9-13.6h-3.1v3.7h3.1zm-3.2 4.5v3.7h3.1v-3.7z" fill="#fafbfa"/></svg>