<svg enable-background="new 0 0 400 400" viewBox="0 0 400 400" xmlns="http://www.w3.org/2000/svg"><path d="m179.92 363.61c3.32-.02 6.19-.02 9.06-.07.64-.01 1.53.05 1.89-.33 6.31-6.48 14.68-4.81 22.4-5.78 6.09-.77 12.16-1.66 18.23-2.52 3.31-.47 4.66-2.36 4.57-5.75-.22-7.6.31-15.25-.38-22.8-1.06-11.62.63-22.97 2.08-34.39.41-3.19.41-6.44.38-9.67-.07-8.04-1.58-16.31-.15-24.06 3.56-19.28 1.17-38.6 2.05-57.87.09-1.89.34-3.81.83-5.62 3.11-11.46 1.9-23.09 1.62-34.7-.05-2.21-1.24-2.51-2.92-2.76-19.57-2.9-39.17-5.63-58.68-8.84-8.97-1.48-17.79-.98-26.72-.13-6.55.63-12.59-1.32-18.24-4.57-.29-.17-.64-.35-.79-.61-1.5-2.65-2.97-5.32-4.44-7.98 2.27-1.2 4.44-3.09 6.83-3.44 4.03-.59 8.21-.26 12.33-.23 3.89.03 7.87.78 11.64.17 10.14-1.64 19.77 1.44 29.61 2.51 3.24.35 6.37 1.72 9.55 2.58.74.2 1.62.52 2.28.31 8.77-2.79 17.28.59 25.91 1.05 3.34.18 6.72.53 9.98 1.25 2.51.55 4-.34 4.76-2.41 1.3-3.52 2.65-7.09 3.35-10.75.56-2.92.31-6.02.22-9.04-.5-16.11 1.67-31.9 5.81-47.43.73-2.75 2.19-5.36 3.63-7.85 3.7-6.37 7.51-12.68 11.43-18.91 5.82-9.27 14.41-14.82 24.8-17.66 1.27-.35 3.15.23 4.29 1.04 3.06 2.16 3.64 9.68 1.13 12.52-6.08 6.87-12.09 13.82-18.38 20.5-3.33 3.54-5.68 7.49-6.73 12.15-2.75 12.21-5.35 24.45-8.01 36.67-.14.65-.14 1.38-.45 1.95-5 9.31-2.24 19.01-1.34 28.59.1 1.12 1.51 2.8 2.56 3.02 3.77.8 7.65 1.1 11.49 1.56 3.65.43 7.34.58 10.93 1.29 7.12 1.4 14.24 2.88 21.25 4.76 5.98 1.6 11.79 3.82 18.18 5.93-4.25 3.58-7.42 4.97-12.59 4.65-13.39-.83-26.75-2-40.14-2.93-2.76-.19-5.61-.3-8.3.2-4.61.86-6.07 3.05-6.15 7.74-.29 16.44-.16 32.9-1.05 49.31-.99 18.29-2.93 36.53-4.43 54.8-.16 1.89-.38 3.82-.16 5.68 1.16 9.87-1.95 19.28-2.91 28.92-1.23 12.35-2.25 24.72-3.09 37.1-.21 3.07.5 6.23 1 9.32.43 2.7 3.88 4.57 8.06 4.55 1.11 0 2.23-.22 3.34-.26 4.28-.18 8.85-1.59 12.3 4.4-.12-4.98 2.01-5.58 4.94-5.2 6.54.84 13.09 1.54 19.61 2.52.97.15 2.31 1.4 2.48 2.32.16.88-.73 2.43-1.6 2.95-10.83 6.56-22.78 8.78-35.27 8.93-1.92.02-3.83.66-5.75.97-1.63.26-3.27.61-4.91.64-8.8.19-17.61.12-26.41.49-5.91.25-11.86.76-17.69 1.74-7.45 1.25-14.33-1.08-21.44-2.35-4.33-.77-6.33-3.08-7.68-8.17zm62.2 3.52c1.74-1.41 3.45-2.4 4.49-3.86.3-.43-1.31-2.2-2.32-3.81-1.7 2.6-4.15 3.91-2.17 7.67z" fill="#010100"/><path d="m176.08 60.01c-8.68 6.27-17.52 9.32-26.89 10.54-11.52 1.5-23.12 2.29-34.66 3.66-2.57.3-5.11 1.53-7.49 2.68-5.97 2.89-11.91 5.59-18.86 4.72-.99-.12-2.74.9-3.14 1.82-1.35 3.13-3.01 6.42-3.14 9.7-.21 5.31.75 10.67 1.13 16.01.93 13.04 2.63 26.06 1.16 39.18-.28 2.53.08 5.13.03 7.69-.25 12.75-.4 25.5-.93 38.24-.13 3.09.85 4.67 3.54 5.4 1.92.52 3.89 1 5.87 1.1 5.79.29 11.59.54 17.38.51 12.07-.07 24.14-.45 36.21-.47 6.7-.01 13.41.3 20.08.83 2.03.16 3.97 1.5 5.94 2.3-.06.33-.11.65-.17.98-.76.34-1.5.74-2.28 1-10.6 3.55-21.19 7.14-31.84 10.53-1.41.45-3.41.36-4.67-.33-2.61-1.43-4.88-1.12-7.6-.35-3.81 1.07-7.84 2.13-11.72 1.97-9.56-.39-18.66 1.88-27.83 3.81-2.74.58-4.64.15-6.52-1.9-2.95-3.21-6.25-6.1-9.14-9.35-1.46-1.64-3.15-3.7-3.34-5.7-.5-5.35-.44-10.78-.21-16.16.1-2.4 1.02-4.8 1.76-7.14 2.39-7.57 2.83-15.12 1.8-23.1-.84-6.54-.49-13.44.62-19.96 2.11-12.47 1.28-24.67-1-36.96-.55-2.98-.13-6.21.2-9.29.67-6.23 1.43-12.45 2.5-18.62.28-1.61 1.46-3.77 2.8-4.35 4.57-1.97 9.3-3.75 14.15-4.87 8.16-1.89 16.42-3.41 24.71-4.69 3.55-.55 7.3.22 10.88-.21 10.1-1.23 20.13-3.07 30.25-4.07 4.81-.47 9.81.11 14.62.86 1.91.32 3.54 2.38 5.8 3.99z" fill="#010100"/><g fill="#fafbfa"><path d="m6.4 11.7c-1-.8-1.9-1.6-2.9-2.3l.6-.7c.9.7 1.9 1.4 2.9 2.2zm-2.1 8.3c.7-2.1 1.4-4.2 2-6.4.2.1.6.3 1 .4-.7 2.3-1.3 4.4-1.9 6.4zm3-12.8c-1.1-.9-2.1-1.7-2.9-2.4l.6-.7c1 .8 2 1.5 3 2.4zm1.4-1.3v-.9h10.2v.9c-.9 4.2-2.3 7.3-4.1 9.4 1.3 1.4 3.2 2.7 5.7 4-.2.2-.4.5-.7.9-2.5-1.4-4.4-2.7-5.7-4.2-1.4 1.5-3.5 3-6.1 4.4 0 0 0 0-.1-.1-.3-.4-.5-.7-.7-.8 2.7-1.3 4.7-2.8 6.2-4.2-1.8-2.2-3-5.3-3.7-9.4zm9.2 0h-7.1c.6 3.8 1.7 6.7 3.4 8.7 1.7-2 2.9-4.8 3.7-8.7z"/><path d="m31.6 3.6h.9v2.3h4.1v9.1h1.7v.9h-16.6v-.9h1.7v-9.1h4.1v-2.3h.9v2.3h3.1v-2.3zm-4 13.3.6.8c-1.9.9-3.8 1.9-5.8 2.8-.2-.3-.3-.6-.5-.9 2-.9 3.9-1.8 5.7-2.7zm-3.2-10.1v3.7h3.1v-3.7zm0 4.5v3.7h3.1v-3.7zm4.1-4.5v3.7h3.1v-3.7zm0 4.5v3.7h3.1v-3.7zm9.1 9.1c-2.1-1.1-4.1-2-5.8-2.7l.5-.8c2.2.9 4.1 1.8 5.8 2.6zm-1.9-13.6h-3.1v3.7h3.1zm-3.2 4.5v3.7h3.1v-3.7z"/></g></svg>