<svg enable-background="new 0 0 400 400" viewBox="0 0 400 400" xmlns="http://www.w3.org/2000/svg"><g fill="#fbfafa"><path d="m37.59 393.81c-.92.31-1.52.05-2-.78-.7-1.2-1.52-2.34-2.47-3.78v4.59c-.55.03-.95.05-1.41.07-.03-.37-.06-.64-.06-.91 0-1.91 0-3.81 0-5.7 1.13-.41 1.77-.03 2.29.91.62 1.11 1.38 2.14 2.31 3.19v-4.2h1.35v6.61z"/><path d="m12.94 393.88v-6.75c1.9.19 3.93-.54 5.37 1.29.8 1.01.78 2.88.03 3.97-1.37 1.97-3.4 1.51-5.4 1.49m1.45-1.22c2.04.12 2.92-.58 2.89-2.21-.03-1.51-.98-2.19-2.89-2z"/><path d="m11.81 393.87h-5.49c.68-2.18 2.47-3.48 3.51-5.45h-3.08v-1.21h5.29c-.71 2.13-2.44 3.48-3.47 5.51.86 0 1.63.04 2.39-.01.79-.05 1.14.21.85 1.16"/><path d="m39.33 393.86v-6.61h3.7v1.07h-2.22v1.52c.68.04 1.34.09 2.07.13v1.07c-.72.05-1.38.09-2.1.14v1.48h2.4v1.19h-3.85z"/><path d="m27.71 388.56c-1.15-.3-2.46-.61-3.1.64-.37.73-.41 1.93-.06 2.67.63 1.35 1.99.93 3.17.68.35.94-.01 1.32-.93 1.46-1.62.25-3.05-.27-3.76-1.48-.73-1.24-.6-3.03.31-4.17.88-1.11 2.71-1.7 4-1.16.32.13.44.74.65 1.12-.1.08-.19.16-.28.24"/><path d="m49.15 387.24v1.07c-.59.02-1.17.05-1.87.08v5.44h-1.48v-5.44h-1.85c-.05-.4-.08-.73-.13-1.15z"/><path d="m20.06 387.21h1.33v6.62h-1.33z"/><path d="m30.68 393.25c-.49.38-.8.79-1.05.76-.32-.05-.6-.45-.9-.7.26-.24.51-.64.8-.67.29-.04.62.3 1.15.61"/></g><path d="m114.07 319.9c-5-8.11-5.22-16.6-5.08-24.73 1.76-1.43 3.29-2.66 4.81-3.89-.14-.34-.29-.68-.43-1.03-4.23-1.35-4.87-3.7-3.73-7.72.67-2.36-1.13-5.35-1.45-8.1-.21-1.73.26-3.54.41-5.32.07-.85.18-1.71.1-2.55-.93-9.45-1.93-18.9-2.83-28.35-.29-2.99-.79-6.05-.43-8.99.98-7.92.71-15.75-.7-23.09 6.01 1.14 11.99 2.14 17.9 3.47 1.9.43 3.6 1.72 5.39 2.62-.12.41-.23.82-.35 1.22 2.93-.55 5.86-1.1 8.79-1.65 1.83-.34 2.71-1.37 2.42-3.29-.48-3.19-.84-6.4-1.42-9.57-.31-1.67-2.12-3.56 1.74-3.95-3.67-2.89-4.31-6.04-4.18-9.95.12-3.71-1.28-7.44-1.71-11.19-.65-5.52-.95-11.08-1.56-16.61-.48-4.32-1.55-8.61-1.73-12.94-.27-6.76.03-13.55.02-20.33 0-1.07-.23-2.19-.58-3.21-1.76-5.12-2.52-10.3-2.42-15.79.21-11.5-.2-23.02-.2-34.53 0-2.4.62-4.8.99-7.39 3.22.62 3.64 2.81 4.25 4.94 2.92 10.17 3.76 20.65 4.6 31.12.48 6.04.9 12.1 1.68 18.11.56 4.32 2.13 5.55 6.46 5.21 4.96-.38 9.91-1.05 14.85-1.76 6.08-.88 12.11-2.26 18.21-2.83 5.52-.51 11.12-.38 16.68-.17 1.97.07 3.9 1.2 5.86 1.84.03.43.06.86.09 1.29-3.25 1.21-6.5 2.44-9.77 3.61-1.04.37-2.3.36-3.17.95-3.14 2.14-6.26 3.35-9.91 1.16-.48-.29-1.31.01-1.97.01-1.75.01-3.49 0-5.28-.52-4.77 4.02-10.56 3.1-16.27 2.94-3.1-.09-6.23.18-9.33.5-3.21.33-4.69 2.17-4.22 5.49.66 4.65 1.32 9.3 1.81 13.97.22 2.09-.09 4.22.02 6.33.13 2.54.03 5.19.76 7.57 2.9 9.41 3.36 19.21 1.95 28.59-1.03 6.87 2.32 13.69-1.72 20.48 5.32 1.29 10.09 3.86 14.29 3.14 6.4-1.1 11.77 1.67 17.62 2.31 3.69.4 7.26 2.03 10.82 3.29.55.19.97 1.37 1.05 2.13.31 2.89.25 5.83.71 8.69.49 3.04 1.43 6 2.14 9 .43 1.81 1.15 3.64 1.14 5.45-.06 9.62-.39 19.24-.43 28.87-.01 2.74.72 5.47 1 8.22.12 1.15.34 2.57-.19 3.45-1.58 2.64-1.14 5.21-.76 8.03.43 3.14.18 6.39.1 9.59-.05 2.12-.73 4.29-.44 6.34 1.62 11.67-1.75 22.64-4.24 33.78-1.11 4.98-1.32 10.16-2.34 15.17-.58 2.87-1.85 5.62-3.08 8.3-.3.66-1.74 1.23-2.53 1.1-.56-.1-1.26-1.42-1.3-2.23-.3-5.34-.5-10.7-.61-16.05-.11-5.31.8-10.55-.83-15.92-.91-3.01.2-6.64.38-9.99.6-11.17 1.17-22.34 1.79-33.51.06-1.09.2-2.23.57-3.25.64-1.71 1.3-3.17-.1-4.99-.55-.71.02-2.31.11-4.02-1.01.26-2.02.41-2.94.78-8.15 3.24-16.11 7.1-24.47 9.62-8.79 2.65-17.01 6.72-25.74 9.48-1.52.48-3.11 3.36-3.21 5.21-.33 6.17.13 12.37-.02 18.55-.04 1.44-1.33 2.86-2.27 4.73-.04-.04.31.53.81.87 1.01.66 3.06 1.3 3.01 1.77-.24 2.24-.82 4.52-1.72 6.59-.49 1.12-1.84 1.87-3.25 3.21 1.07.86 2.28 1.44 2.84 2.4.6 1.01 1.05 2.53.74 3.57-.97 3.29-2.3 6.47-3.58 9.66-.32.79-.98 1.44-2.07 3-1.21-2.46-2.62-4.26-2.96-6.24-.8-4.7-1.21-9.48-1.55-14.24-.34-4.64-.39-9.29-.59-13.94-.08-1.82-.73-4.02 2.75-3.89zm.2-100.62c0 1.56-.02 3.13.01 4.69.02.75-.04 1.57.24 2.23 3.37 7.96 4.23 16.09 1.78 24.47-.12.41-.12.88-.08 1.32.72 8.19 1.46 16.37 2.15 24.56.05.63-.28 1.29-.26 1.93.04 1.42-.26 3.08.36 4.22 1.51 2.74 2.69 5.29 1.53 8.54-.39 1.1.18 2.54.36 4.31 5.99-3.41 11.34-6.21 16.42-9.43 3.83-2.43 7.72-3.85 12.28-3.29.81.1 1.79-.04 2.48-.43 3.65-2.04 7.02-4.82 10.9-6.15 5.1-1.74 10.58-2.37 16.21-3.54-.33-11.13 3.49-22.52.01-33.98-.29-.94-.26-1.99-.29-3-.09-4.04-1.05-8.49 4.85-9.89-1.92-.24-4.23.44-5.02-.37-2.97-3-6.35-2.3-9.9-2.27-3.76.04-7.53-.74-11.31-1.05-1.64-.13-3.34-.22-4.94.07-3.7.68-8.76-.9-10.46-2.93-3.58.31-6.64 1.05-9.58.71-4.41-.51-8.8-1.55-13.06-2.83-2.46-.74-4.05-.48-4.68 2.11z" fill="#010000"/><path d="m266 318.78c-.26-.71-.53-1.41-.79-2.12-.47.24-.94.49-1.41.73.59 2.15 1.48 4.28 1.68 6.47.18 2-.23 4.1-.64 6.1-.35 1.7-1.54 3.32-1.56 4.99-.08 7.38-1.8 14.31-4.99 20.93-.3.62-.11 1.48-.13 2.23-.02 1.22.47 2.8-.11 3.61-2.65 3.69-2.52 8.44-4.95 12.13-.39.59-1.62 1.26-2.03 1.05-.86-.43-2.02-1.42-2.05-2.2-.13-4.66-.3-9.37.18-13.99 1.09-10.44 2.9-20.77 6.24-30.79.76-2.28.76-4.84.94-7.28.83-10.77 2.13-21.45 5.3-31.85.49-1.59-.28-3.53-.24-5.31.08-3.2.14-6.43.58-9.6.9-6.52 2-13.01 3.09-19.51.37-2.19.91-4.35 1.39-6.52.14-.64.7-1.57.46-1.86-2.41-2.9.15-5.18.8-7.7.29-1.13.4-2.34.42-3.51.09-4.73-.51-9.57.34-14.15.89-4.82 2.7-9.35 1.1-14.39-.5-1.58 0-3.55.27-5.3.88-5.64-.59-10.4-4.36-14.8-2.36-2.76-4.04-6.15-5.73-9.41-.75-1.44-.76-3.26-1.17-5.2-6.06-.3-5.72-7.62-10.39-11.41-1.42 3.62-2.72 6.51-3.68 9.51-.63 1.97-.33 4.28-2.78 5.35-.35.15-.62 1.23-.46 1.71 1 2.99.29 5.71-1.05 8.38-.1.2-.2.43-.18.64.46 6.37-3.59 11.54-4.63 17.52-.22 1.29-.72 2.66-1.49 3.69-1.58 2.12-2.26 4.2-1.35 6.83.31.9-.12 2.17-.48 3.18-2.84 7.87-5.75 15.71-8.63 23.56-.11.31-.05.76-.26.96-5.02 4.99-3.2 13.31-9.71 17.84.63-2.74 1.47-5.46 1.83-8.23.32-2.44-.08-4.96.16-7.42.4-4.19.75-8.41 1.66-12.5 1.34-6.07 3.41-11.99 4.69-18.07 1.01-4.79 1.21-9.67 3.67-14.16 1.1-2.01.75-4.8 1.18-7.21 1.32-7.46 1.99-15.13 4.19-22.33 4.25-13.9 5.67-28.25 7.91-42.47.58-3.65.99-7.32 1.56-10.96.4-2.55 1.66-4.48 4.21-5.45.13-.05-.04-1.78-.31-1.85-3.77-1-2.45-4.03-2.99-6.52-.73-3.35.81-4.98 3.23-6.48.45-.28.83-.68 1.05-1.6-1.29.21-2.59.42-4.54.73.37-3.47.92-6.82 1.01-10.18.06-2.28-.65-4.58-.81-6.88-.39-5.51-.75-11.03-.88-16.56-.02-.78 1.38-1.6 2.38-2.68-3.2-3.78-1.54-7.87-.45-12.32 1.29-5.29 1.26-10.9 1.95-16.36.18-1.47.87-2.88 1.34-4.34 3.87.46 5.14 2.92 5.54 5.8.96 6.86.83 14 2.72 20.58 2.65 9.26.67 18.89 3.37 28.02.24.81.03 1.76-.02 2.64-.4 7.41-.58 14.85-1.3 22.23-.37 3.82-2.17 7.52-2.48 11.34-.5 6.1-.44 12.27-.32 18.4.03 1.55 1.12 3.13 1.9 4.6 3.25 6.17 4.86 13.32 10.69 17.96.17.14.34.32.43.51 3.01 7.13 5.96 14.28 9.04 21.37.82 1.9 1.93 3.69 3.08 5.41.93 1.41 2.88 2.27 1.87 4.56-.17.39.71 1.25 1.11 1.88 2.43 3.83 4.94 7.61 7.24 11.52.56.95.65 2.35.52 3.5-.76 6.77-1.61 13.54-2.51 20.3-.23 1.75-.77 3.47-1.16 5.2-.93 4.1-1.84 8.21-2.8 12.3-.25 1.06-.35 2.29-.98 3.09-3.45 4.46-4.33 9.67-4.95 15.07-.69 5.96-1.78 11.88-2.69 17.81-.08.55-.27 1.13-.18 1.66 1.67 10.29-1.77 19.92-3.93 29.69-.58 2.63-1.81 5.12-2.75 7.67-.33.1-.67.16-1.02.22z" fill="#010000"/></svg>