<svg enable-background="new 0 0 400 400" viewBox="0 0 400 400" xmlns="http://www.w3.org/2000/svg"><path d="m374.8 390.4.4-.4c.7.5 1.3 1 1.8 1.4l-.5.5c-.5-.6-1.1-1.1-1.7-1.5zm1 7.3-.6-.3c.5-1.4 1.1-2.8 1.5-4.3.2.1.4.2.6.3-.5 1.3-1 2.8-1.5 4.3zm-.4-10.3.4-.4c.4.3 1 .8 1.7 1.4l-.5.5c-.4-.5-1-1-1.6-1.5zm2.5.3h1.7v-1h.6v1h3.5v-1h.6v1h1.8v.5h-1.8v1.4h-2v1h3.2v2h-3.2v.9h3.3v.5h-3.4c0 .3-.1.6-.1.9h4v.5h-3.7c.7.9 1.9 1.5 3.8 1.7-.1.2-.2.4-.3.6-2.1-.4-3.5-1.1-4-2.1-.4 1-1.8 1.7-4 2.2-.1-.2-.2-.4-.3-.6 2.1-.4 3.4-1 3.8-1.8h-3.4v-.5h3.6c.1-.3.1-.6.2-.9h-3.3v-.5h3.4c0-.3 0-.6 0-.9h-3.2v-2h3.3v-1h-2.1v-1.4h-1.7v-.5zm1.1 3.5v1h2.7c0-.3 0-.4 0-.4 0-.1 0-.2 0-.2 0-.1 0-.2 0-.3h-2.7zm1.2-3v.9h3.5v-.9zm4.7 3h-2.6v.6.4h2.6z" fill="#fbfcfa"/><path d="m393.6 386.7h.6v1.5h2.7v6.1h1.1v.6h-11v-.6h1.1v-6.1h2.7v-1.5h.6v1.5h2.1v-1.5zm-2.7 8.8.4.6c-1.2.6-2.5 1.3-3.8 1.9-.1-.2-.2-.4-.3-.6 1.2-.6 2.5-1.2 3.7-1.9zm-2.2-6.7v2.4h2.1v-2.4zm0 3v2.5h2.1v-2.5zm2.8-3v2.4h2.1v-2.4zm0 3v2.5h2.1v-2.5zm6 6.1c-1.4-.7-2.7-1.3-3.9-1.8l.3-.6c1.5.6 2.7 1.2 3.9 1.7zm-1.2-9.1h-2.1v2.4h2.1zm-2.1 3v2.5h2.1v-2.5z" fill="#fbfcfa"/><g fill="#010101"><path d="m232.74 233.97c-12.19-4.89-24.59-9.33-36.51-14.81-7.96-3.66-15.4-8.55-22.74-13.38-3.1-2.04-5.18-5.57-8.05-8.03-3-2.56-6.4-4.65-10.44-7.53-.5 4.8-1.05 8.4-1.22 12.02-.5 10.37-1.68 20.67.12 31.13.7 4.03-1.11 8.56-2.09 12.78-.81 3.47-1.08 6.74.4 10.12.56 1.27.54 2.82.62 4.26.93 17.78-2.44 35.22-4.25 52.78-.65 6.33-1.02 12.7-1.72 19.03-.52 4.75-1.03 9.54-2.17 14.16-1.07 4.32-1.69 8.43-.63 12.86 1.19 4.96-.86 7.91-5.39 8.06.34-3.46.71-6.88.98-10.31.08-.96.14-2.11-.3-2.9-5.03-9.06-4.75-19-4.28-28.76 1.38-28.06 3.84-56.07 4.63-84.14.57-20.11-.96-40.27-1.4-60.41-.39-18.01-1.52-36.07-.65-54.03 1.5-31.15 2.55-62.38 7.31-93.3.42-2.73 1.39-4.93 3.53-6.51.94-.69 2.63-1.54 3.32-1.15 1.15.65 1.95 2.16 2.55 3.46.32.71.06 1.8-.2 2.63-1.24 3.99-.31 7.56.74 11.57 1.04 3.93-.46 8.53-.85 12.84-.01.11-.05.22-.09.32-3.93 10.43-2.75 21.1-1.53 31.79.24 2.06.32 4.34-.31 6.25-2.37 7.11-.58 14.23-.45 21.33.3 16.11.87 32.21 1.12 48.32.09 5.54 2 10.05 6.11 13.58 8.07 6.92 16.56 13.13 25.86 18.48 9.56 5.49 18.22 12.55 27.27 18.93 1.01.71 1.91 1.85 3.01 2.08 8.84 1.89 12.18 10.23 18.37 15.21-.22.44-.44.86-.67 1.27z"/><path d="m239.63 324.99c-1.13-.59-2.59-.91-3.35-1.82-9.75-11.67-19.36-23.45-29.12-35.11-1.78-2.13-4.11-3.81-6.19-5.69-.31.19-.62.37-.93.56-1.16 8.47-2.36 16.94-3.47 25.42-2.47 18.73-4.9 37.47-7.36 56.2-.53 4.02-2.22 7.4-6.21 10.45 0-1.78-.01-2.93 0-4.07.27-18.34.17-36.7.95-55.03.63-14.84-.71-29.48-2.5-44.14-1.09-8.99.27-17.58 3.87-25.88.92-2.11 2.19-2.52 3.84-1.33 1.87 1.35 4.29 2.69 5.11 4.61 7.66 17.95 21.7 31.34 32.97 46.69 5.66 7.71 10.69 15.72 12.57 25.3.19.98.31 1.97.46 2.96-.21.28-.42.58-.64.88z"/><path d="m193.87 51.33c4.28 1.29 5.73 3.05 5.97 7.15.05.89.15 1.81.01 2.68-1.79 11.71-.04 23.48-.66 35.17-.46 8.65-2.35 17.22-3.62 25.82-.21 1.44-.3 2.93-.76 4.29-1.8 5.35-.24 9.83 3.38 13.81 2.86 3.15 5.57 6.47 8.71 9.31 5.85 5.3 10.37 11.6 15.12 17.83 7.24 9.48 15.38 18.28 23.21 27.32 2.78 3.21 5.97 6.09 8.59 9.43 2.05 2.61 3.49 5.68 5.32 8.73-3.5 1.54-5.63 1.24-7.83-.8-3.44-3.2-7.28-5.95-10.77-9.1-1.69-1.53-2.92-3.56-4.47-5.27-.95-1.05-1.94-2.2-3.16-2.84-7.39-3.85-13.14-9.35-17.96-16.16-6.32-8.95-13.37-17.38-19.76-26.28-6.41-8.92-10.83-18.89-12.43-29.76-.77-5.2-.25-10.69.32-15.98 1.34-12.44 3.11-24.84 4.6-37.27.82-6.72 2.43-11.8 6.19-18.08z"/></g></svg>