<svg enable-background="new 0 0 400 400" viewBox="0 0 400 400" xmlns="http://www.w3.org/2000/svg"><g fill="#fbfafa"><path d="m37.59 393.81c-.92.31-1.52.05-2-.78-.7-1.2-1.52-2.34-2.47-3.78v4.59c-.55.03-.95.05-1.41.07-.03-.37-.06-.64-.06-.91 0-1.91 0-3.81 0-5.7 1.13-.41 1.77-.03 2.29.91.62 1.11 1.38 2.14 2.31 3.19v-4.2h1.35v6.61z"/><path d="m12.94 393.88v-6.75c1.9.19 3.93-.54 5.37 1.29.8 1.01.78 2.88.03 3.97-1.37 1.97-3.4 1.51-5.4 1.49m1.45-1.22c2.04.12 2.92-.58 2.89-2.21-.03-1.51-.98-2.19-2.89-2z"/><path d="m11.81 393.87h-5.49c.68-2.18 2.47-3.48 3.51-5.45h-3.08v-1.21h5.29c-.71 2.13-2.44 3.48-3.47 5.51.86 0 1.63.04 2.39-.01.79-.05 1.14.21.85 1.16"/><path d="m39.33 393.86v-6.61h3.7v1.07h-2.22v1.52c.68.04 1.34.09 2.07.13v1.07c-.72.05-1.38.09-2.1.14v1.48h2.4v1.19h-3.85z"/><path d="m27.71 388.56c-1.15-.3-2.46-.61-3.1.64-.37.73-.41 1.93-.06 2.67.63 1.35 1.99.93 3.17.68.35.94-.01 1.32-.93 1.46-1.62.25-3.05-.27-3.76-1.48-.73-1.24-.6-3.03.31-4.17.88-1.11 2.71-1.7 4-1.16.32.13.44.74.65 1.12-.1.08-.19.16-.28.24"/><path d="m49.15 387.24v1.07c-.59.02-1.17.05-1.87.08v5.44h-1.48v-5.44h-1.85c-.05-.4-.08-.73-.13-1.15z"/><path d="m20.06 387.21h1.33v6.62h-1.33z"/><path d="m30.68 393.25c-.49.38-.8.79-1.05.76-.32-.05-.6-.45-.9-.7.26-.24.51-.64.8-.67.29-.04.62.3 1.15.61"/></g><path d="m176.72 375.16c0-5.2-.93-10.04.17-14.36 3.76-14.83 4.8-30.01 6.95-45.05.48-3.34 1.92-6.62 3.4-9.7 1.61-3.36 2.14-6.69 1.76-10.36-.87-8.56.64-16.81 3.51-24.86.2-.57.24-1.41-.04-1.9-2.27-4.03-4.63-8.01-7.47-11.94.01 4.89-3.08 7.92-5.57 11.27-3.54 4.76-7.25 9.41-10.52 14.34-2.37 3.58-4.11 7.58-6.21 11.35-.68 1.22-1.4 2.64-2.51 3.37-3.02 2.01-4.55 4.83-6.17 8-3 5.84-6.8 11.28-10.4 16.8-.55.83-1.82 1.2-2.78 1.75-1.16.66-2.54 1.06-3.47 1.96-4.22 4.07-4.17 4.12-10.94 4.65.51-5.17-1.1-10.77 4.43-14.47.83-.55 1.58-1.81 1.65-2.8.32-4.46 2.78-7.62 5.71-10.68 1.35-1.41 2.76-3.12 3.23-4.94 1.13-4.39 3.35-7.84 6.64-10.93 2.31-2.17 4.18-4.91 5.87-7.64 4.72-7.6 9.22-15.33 13.85-22.98.57-.94 1.21-2.21 2.1-2.51 3.72-1.26 4.73-4.74 6.82-7.42 4.05-5.19 8.18-10.4 12.9-14.94 5.2-5 6.69-10.52 5.09-17.32-.66-2.81-.91-5.75-1.11-8.64-.17-2.47.31-4.49 3.73-3.93 1.97.32 2.55-1.33 1.62-3.37-.78-1.72-1.04-3.66-1.82-5.38-.66-1.48-1.49-3.02-2.65-4.1-3.05-2.83-4.53-6.26-4.98-10.31-.58-5.26-1.87-6.53-7.11-7.63-1.71 1.54-3.31 2.91-4.82 4.36-.69.67-1.66 1.46-1.74 2.27-.56 5.94-4.48 8.39-9.63 9.69-1.4.35-2.79.71-4.61 1.18 1.07 1.38 1.97 2.55 2.93 3.79-4.77 5.3-8.81 11.45-14.39 15.45-4.44 3.18-5.24 8.29-9.2 11.59-3.71 3.08-6.11 7.83-8.81 12.02-1.74 2.69-3.35 5.28-7.49 5.85.1-1.98.01-3.81.31-5.57.43-2.53 1-5.05 1.77-7.5.43-1.38 1.25-2.7 2.12-3.89 2.08-2.87 4.81-5.4 6.35-8.53 3.56-7.22 7.01-14.23 13.03-20.06 4.14-4.01 6.74-9.7 9.69-14.83 5.28-9.18 11.4-17.6 19.65-24.39 2.91-2.4 2.7-8.15-.03-10.81-1.55-1.5-1.58-3.14-.16-4.72.74-.82 1.66-1.48 2.33-2.07-6.04-13.19-3.77-26.25-.28-39.29 1.38-5.18 2.57-10.46 4.54-15.43 1.9-4.81.72-9.22-.37-13.75-.19-.77-1.17-1.67-1.96-1.92-13.62-4.29-22.69-14.36-31.37-24.84-2.02-2.44-3.58-3.2-6.43-1.43-1.15.72-3.77.98-4.35.29-.93-1.1-1.32-3.36-.86-4.79.87-2.69 2.51-5.14 4-8.02 13.69 7.7 28.08 13.34 38.94 24.68 4.16 4.35 9.17 5.81 15 3.92.41-.13.77-.4 1.55-.81-3.89-4.85-.26-8.27 2.03-12.15 2.46-4.18 4.48-8.61 6.87-13.28 3.86-.46 4.07-.37 4.82 4.01.91 5.34-.97 10.05-3.22 14.78-2.14 4.49-3.91 9.19-5.42 13.93-.89 2.81.32 5.14 2.62 7.36 9.82 9.48 19.49 19.11 28.97 28.92 3.7 3.83 6.52 8.4 7.61 14.16-9.62-2.56-17.67-7.22-25.04-13.07-6.92-5.49-13.63-11.23-20.46-16.85-.69-.57-1.45-1.06-2.23-1.49-4.17-2.32-6.08-1.44-7.32 4.05 1.99-.36 3.7-.67 6.14-1.11-.22 1.25-.26 2.42-.63 3.48-.99 2.82-2.41 5.51-3.12 8.39-1.8 7.32-4.65 14.55-3.15 22.31 1.67 8.64 3.46 17.27 5.37 25.86.64 2.91 2.39 5.17 5.1 6.74 2.2 1.27 4.17 2.94 6.34 4.5-.54 1.06-.98 1.9-1.51 2.95 1.42.63 2.69 1.38 4.06 1.77 7.79 2.26 13.92 6.97 19.29 12.85.45.5.96.95 1.37 1.47 6.46 8.28 15.36 13.87 22.95 20.9 7.3 6.76 12.33 15.23 15.85 24.67-3.24 1.05-5.98.71-9.11-.52-9.74-3.85-16.41-11.36-23.62-18.37-6.16-5.99-12.62-11.68-19.18-17.23-2.12-1.79-4.96-2.73-7.93-4.31.97 7.48 2.27 14.19 2.62 20.95.54 10.82.42 21.67.67 32.51.02.95.45 2.44 1.11 2.74 4.4 1.96 6.02 6.02 8.14 9.82 1.17 2.1 2.83 3.93 4.31 5.86 5.08 6.65 10.32 13.17 15.23 19.94 6.16 8.51 12.1 17.18 18.04 25.85 1.31 1.91 2.53 3.97 3.3 6.13 3.38 9.47 6.57 18.99 9.83 28.5-.21.3-.43.6-.64.91-2.01-1.22-4.53-2.02-5.95-3.73-15.9-19.12-30.03-39.52-42.93-60.77-.41-.67-.73-1.54-1.34-1.9-2.25-1.35-4.52-3.01-6.98-3.47-.7-.13-2.52 3.34-3.05 5.36-.91 3.43-1.78 7.05-1.65 10.56.48 12.38-3.05 24.12-5.2 36.08-.3 1.65-.79 3.27-1.01 4.93-.87 6.53-2.87 12.56-7.03 17.82-.92 1.16-1.45 3.09-1.27 4.55.45 3.59-.31 6.66-1.82 9.95-2.21 4.84-3.69 10.02-5.38 15.1-1.37 3.91-3.12 7.39-7.84 9.82zm22.67-217.34c-3.44-2.87-6.68-2.17-8.25 1.87 3.14.9 5.99 1.14 8.25-1.87zm26.98 26.27h7.47c.06-.19.12-.38.18-.56-2.49-1.31-4.98-2.62-7.65-4.02z" fill="#010000"/></svg>