<svg enable-background="new 0 0 400 400" viewBox="0 0 400 400" xmlns="http://www.w3.org/2000/svg"><path d="m374.8 390.4.4-.4c.7.5 1.3 1 1.8 1.4l-.5.5c-.5-.6-1.1-1.1-1.7-1.5zm1 7.3-.6-.3c.5-1.4 1.1-2.8 1.5-4.3.2.1.4.2.6.3-.5 1.3-1 2.8-1.5 4.3zm-.4-10.3.4-.4c.4.3 1 .8 1.7 1.4l-.5.5c-.4-.5-1-1-1.6-1.5zm2.5.3h1.7v-1h.6v1h3.5v-1h.6v1h1.8v.5h-1.8v1.4h-2v1h3.2v2h-3.2v.9h3.3v.5h-3.4c0 .3-.1.6-.1.9h4v.5h-3.7c.7.9 1.9 1.5 3.8 1.7-.1.2-.2.4-.3.6-2.1-.4-3.5-1.1-4-2.1-.4 1-1.8 1.7-4 2.2-.1-.2-.2-.4-.3-.6 2.1-.4 3.4-1 3.8-1.8h-3.4v-.5h3.6c.1-.3.1-.6.2-.9h-3.3v-.5h3.4c0-.3 0-.6 0-.9h-3.2v-2h3.3v-1h-2.1v-1.4h-1.7v-.5zm1.1 3.5v1h2.7c0-.3 0-.4 0-.4 0-.1 0-.2 0-.2 0-.1 0-.2 0-.3h-2.7zm1.2-3v.9h3.5v-.9zm4.7 3h-2.6v.6.4h2.6z" fill="#fbfcfa"/><path d="m393.6 386.7h.6v1.5h2.7v6.1h1.1v.6h-11v-.6h1.1v-6.1h2.7v-1.5h.6v1.5h2.1v-1.5zm-2.7 8.8.4.6c-1.2.6-2.5 1.3-3.8 1.9-.1-.2-.2-.4-.3-.6 1.2-.6 2.5-1.2 3.7-1.9zm-2.2-6.7v2.4h2.1v-2.4zm0 3v2.5h2.1v-2.5zm2.8-3v2.4h2.1v-2.4zm0 3v2.5h2.1v-2.5zm6 6.1c-1.4-.7-2.7-1.3-3.9-1.8l.3-.6c1.5.6 2.7 1.2 3.9 1.7zm-1.2-9.1h-2.1v2.4h2.1zm-2.1 3v2.5h2.1v-2.5z" fill="#fbfcfa"/><g fill="#010101"><path d="m86.17 252.37c3.98-.08 6.15 1.56 7.63 4.81 1.52 3.36 2.71 7.16 6.93 8.55.67.22.76 1.95 1.29 2.89 1.15 2.06 2.39 4.08 3.64 6.09 1.97 3.17 3.93 6.34 5.97 9.47 1.14 1.74 2.2 3.61 3.66 5.05 7.2 7.1 14.12 14.39 18.31 23.78.59 1.32.47 2.96.67 4.45.14 1.07-.04 2.32.46 3.19 5.87 10.28 11.84 20.51 18.13 31.35 3.82-5.41 7.41-10.45 10.93-15.53.27-.39.21-1.1.11-1.63-.95-5.22.04-10.21 1.62-15.17.29-.9.25-2.48-.32-3-5.21-4.7-7.43-11.06-9.89-17.29-.74-1.87-1.68-3.75-1.93-5.7-.33-2.57-.08-5.22-.08-8.15.28.12-.03-.13-.33-.12-6.13.2-9.3-3.62-11.95-8.45-1.61-2.93-3.62-5.65-5.55-8.4-2.19-3.13-4.32-6.18-3.71-10.4.16-1.09-.72-2.6-1.55-3.52-10.26-11.4-12.94-25.71-15.53-40.06-.15-.85-.23-1.91.14-2.63 2.09-4.06 1.24-8.23.84-12.46-.29-3.08-.06-6.2-.06-9.78-.99-.41-2.49-1.13-4.05-1.66-3.46-1.18-6.34-3.04-8.69-5.96-.82-1.03-2.82-1.64-4.24-1.56-5.48.3-7.18-.57-8.85-5.89-.97-3.1-2.42-5.59-5.27-7.4-1.06-.67-1.94-2.44-1.99-3.75-.78-20.35-1.52-40.7-1.98-61.05-.1-4.31.74-8.69 1.51-12.97 1.06-5.92 1.29-11.74-.6-17.54-.41-1.25-.56-2.58-.87-4.08 4.27-1 8.16-1.77 11.01 2.63.96 1.48 2.52 2.55 3.61 3.96 2.56 3.32 5.99 4.99 9.88 6.42 3.24 1.19 6.04 3.63 8.93 5.68 2.81 1.99 5.45 4.23 8.23 6.28 2.37 1.75 4.4 1.06 5.83-1.29 1.08-1.78 2.73-3.76 2.65-5.58-.45-10.53 3.04-20.28 5.42-30.25 2.18-9.13 4.65-18.19 6.8-27.32.57-2.44 1.64-3.42 4.09-3.08.99.14 2.01.02 3.02.02 4.96 0 6.35.82 6.71 5.67.75 10.11-.26 19.96-4.25 29.54-1.84 4.42-1.97 9.55-2.91 14.36-.3 1.52-.42 3.15-1.07 4.52-4.97 10.31-5.15 21.67-7.17 32.61-.16.88.96 2.36 1.87 3.01 7.81 5.56 14.96 11.7 19.97 20.06 5.91 9.87 10.8 20.19 12.08 31.71.68 6.17.07 12.5-.11 18.76-.21 7.57.42 15.18-1.88 22.64-.51 1.65.57 4.2 1.66 5.86 1.88 2.87 3.95 5.85 6.6 7.93 7.52 5.88 14.42 12.09 16.99 22.12 1.16-.94 1.98-1.61 2.66-2.16 1.97 2.18 3.83 4.2 5.65 6.27.51.58 1.12 1.22 1.29 1.92.32 1.31.34 2.69.49 4.05-1.38-.07-3.05.33-4.08-.31-3.49-2.13-7.08-4.28-10.02-7.06-6.1-5.78-11.9-11.83-20.87-15.24-1.72 3.75-3.63 7.45-5.12 11.32-1.36 3.53-2.37 7.21-3.3 10.89-.68 2.67-2.2 3.96-5.2 4.08-.07-1.06-.21-2.12-.2-3.17.16-9.84.41-19.68.43-29.52 0-1.29-.82-2.98-1.82-3.8-6.47-5.34-12.98-10.63-19.73-15.6-2.02-1.48-4.84-1.88-7.29-2.77-.72 2.28-1.92 4.53-2.08 6.85-.5 7.2 1.64 13.93 4.68 20.36 1.67 3.53 3.6 6.94 5.41 10.41 1.23 2.36 2.79 4.57 1.84 7.56-.21.67.51 1.92 1.15 2.54 6.46 6.18 10.61 13.69 13.21 22.17.39 1.28 1.37 2.66 2.47 3.39 3.49 2.32 5.69 5.46 7.32 9.27 2.15 5.03 4.69 9.89 6.98 14.86.44.96 1.04 2.35.67 3.1-1.52 3.08.28 5.26 1.51 7.74 5.49 11.04 5.53 21.94-1.04 32.63-3.22 5.24-6.29 10.57-9.53 15.79-2.02 3.27-4.43 6.18-8.32 7.45-2.06.67-3.8.61-4.65-1.74-1.26-3.44-3.78-5.41-7.22-6.31-2.68-.7-4.24-2.49-5.63-4.82-3.77-6.3-6.82-13.12-12.6-18.06-.84-.72-1.15-2.12-1.58-3.25-4.39-11.66-9.8-22.8-17.2-32.86-2.43-3.3-5.46-6.16-8.51-9.55-3.73 5.45-5.23 11.09-6.56 16.82-1.08 4.67-2.03 9.4-3.62 13.9-.81 2.3-2.67 4.37-4.46 6.14-.9.89-2.68.9-4.06 1.3-.12-.3-.24-.6-.37-.9-.07.2-.25.46-.18.58 2.71 4.82 1.12 8.92-1.55 13.28-4.03 6.57-7.67 13.39-11.19 20.24-1.43 2.79-3.3 4.34-6.79 4.48-1.07-3.83-1.22-7.62.34-11.56 1.43-3.6 2.44-7.36 3.68-11.03.24-.7.53-1.51 1.05-1.97 1.86-1.65 2.95-3.47 2.74-6.13-.19-2.33 1.55-3.2 3.62-3.62 3.07-.62 3.32-1.49 1.98-4.19-.64-1.3-1.12-3.06-.78-4.39.9-3.49 2.3-6.85 3.46-10.27.39-1.15.9-2.36.89-3.54-.04-5.84 2.21-10.84 5.21-15.66.86-1.37 1.3-3.04 1.74-4.63 1.25-4.6 2.06-9.34 3.68-13.79 1.24-3.41 1.63-6.59.96-10.11-.81-4.25-1.28-8.58-1.92-13.12zm6.72-157.97c.37 8.41.89 15.88.96 23.35.04 4.43.04 9.07-1.18 13.25-.96 3.28-1.56 6.05-.14 9.19.31.69.26 1.85-.12 2.5-3.41 5.74-1.96 11.76-.93 17.64 1.18 6.7 3.62 8.33 10.38 9.19 2.62.33 5.36 1.54 7.56 3.05 3.06 2.09 5.19 1.68 6.06-2.01 1.6-6.85 3.15-13.71 4.63-20.59.75-3.48 1.73-6.99 1.85-10.51.21-6.08-.24-12.2 5.64-16.18-8.25-13.56-19.23-23.16-34.71-28.88zm36.11 90.16c8.69 5.39 18.34 11.38 27.98 17.36-.39 1.14-.7 1.98-.97 2.83-.26.82-.47 1.64-.71 2.47.3.22.6.44.9.66.72-.86 1.78-1.61 2.1-2.59 4.94-15.34 4.17-30.6-.93-45.73-2.52-7.48-5.17-14.91-7.84-22.34-.32-.88-.99-1.86-1.78-2.32-2.53-1.47-5.19-2.72-8.11-4.21-2.43 10.77-4.79 20.87-6.94 31.02-.97 4.56-1.49 9.21-2.23 13.82-.43 2.69-.88 5.4-1.47 9.03z"/><path d="m240.33 329.95c-2.69-2.48-3.15-4.93-2.3-8.15 1-3.81 4.77-2.73 7.2-4.99-4.82-4.81-1.38-9.24 1.21-13.39 8.26-13.26 11.36-28.3 15.28-43.06.77-2.9 1.63-5.34 5.27-5.42.64-.02 1.61-.91 1.77-1.56.13-.55-.8-1.29-1.06-2.01-.47-1.28-1.54-3.17-1.05-3.84 4.19-5.73 2.94-12.19 2.89-18.49-.03-4.14-.41-8.28-.29-12.41.22-7.45-1.16-14.58-2.98-21.79-1.4-5.57-1.26-11.52-1.8-17.3-.07-.78.07-1.64-.21-2.33-4-9.87-1.69-20.56-4.05-30.64-.17-.73-.33-1.69-.02-2.28 2.7-5.16.89-10.26-.09-15.37-.41-2.16-1.34-4.32.59-6.28.25-.25.36-.95.2-1.26-2.32-4.41.21-7.8 2.53-11.04 1.88-2.63 2.21-5.27 1.33-8.2-.76-2.54-.47-4.8 1.35-6.84 4.65-5.22 6.12-11.75 7.68-18.29.61-2.53 1.72-5.07 3.12-7.26 5.19-8.1 10.5-16.12 15.95-24.04 3.39-4.91 6.41-9.95 7.8-15.81.48-2.05 1.55-2.63 3.59-2.28 2.85.48 5.74.7 9.33 1.11-2.06 5.59-3.9 10.91-6 16.12-.78 1.94-2.06 3.72-3.3 5.44-2.94 4.08-5.01 8.41-4.56 13.62.24 2.83-1.05 4.93-3.22 6.57-3.73 2.81-5.64 6.41-5.33 11.21.09 1.36-.55 2.83-1.11 4.14-3.32 7.81-6.63 15.63-10.11 23.38-2.08 4.62-3.72 9.24-3.81 14.42-.16 9.03-.66 18.06-1 27.1-.03.67-.17 1.55.17 1.97 3.41 4.15 2.13 8.83 1.78 13.46-.11 1.39-.09 3.28.72 4.17 4.48 4.95 4.65 11.17 5.6 17.19 1.45 9.16 3.18 18.29 4.34 27.49.58 4.58.4 9.3.11 13.93-.54 8.47-1.34 16.92-2.23 25.36-.26 2.48-1.17 4.89-1.81 7.33-.31 1.18-1.15 2.4-.98 3.49.6 3.92-1.17 6.74-3.83 9.15-3.92 3.56-6.43 7.92-7.88 12.97-.37 1.29-1.01 2.49-1.36 3.78-5.66 21.07-17.51 38.77-30.91 55.47-2.7 3.37-5.66 6.08-6.65 10.56-.46 2.1-2.73 3.76-3.95 5.76-2.37 3.89-4.65 7.83-6.8 11.84-1.2 2.23-6.7 3.17-8.08 1.1-.3-.45-.01-1.92.41-2.13 3.95-1.96 6.27-4.83 5.92-9.46-.03-.37.32-.87.64-1.14 2.89-2.54 3.5-6.09 4.43-9.54.36-1.35.99-2.78 1.91-3.79 2.18-2.39 3.76-4.83 3.71-8.27-.02-1.07 1.08-2.38 2.01-3.19 2.43-2.12 5.05-4.03 7.93-6.28z"/><path d="m324.2 220.05c1.8 2.03 4.22 3.79 5.27 6.16 1.97 4.46 3.17 9.27 4.64 13.95.15.49.2 1.3-.08 1.6-2.72 2.9-.78 5.4.22 8.27.86 2.45.71 5.32.68 8-.03 2.51-1.08 5.1-.68 7.49 1.78 10.59-.78 20.68-3.22 30.74-1.14 4.7-2.88 9.41-5.29 13.57-1.53 2.63-4.8 4.23-7.3 6.3-.29-.24-.58-.48-.87-.72 0-1.53 0-3.05 0-4.58 0-11.19.17-22.38-.06-33.56-.16-7.77.64-15.37 2.27-22.94.36-1.69-.41-3.61-.55-5.44-.21-2.72-.78-5.51-.4-8.15.98-6.8 2.4-13.53 3.65-20.29.57-.14 1.14-.27 1.72-.4z"/><path d="m223.27 47c1.74.58 3.13.99 4.47 1.51 1.47.57 3.95 1.02 4.14 1.91.55 2.6.75 5.58-.03 8.06-.54 1.72-.86 2.8-.08 4.5 2.72 5.92 2.52 12.26 1.55 18.44-1.19 7.59-2.87 15.11-4.73 22.56-.59 2.37-2.21 4.61-3.78 6.58-2.17 2.74-4.87 2.3-6.4-.79-4.31-8.72-5.11-18.06-3.95-27.46 1.06-8.59 3.08-17.06 4.6-25.59.89-5.05 1.54-10.14 2.48-15.18.2-1.05.96-2.27 1.84-2.83.51-.32 2.39.35 2.54.89.36 1.3.36 2.87-.05 4.16-.34 1.08-1.48 1.9-2.6 3.24z"/><path d="m208.07 160.79c9.01 4.17 16.02 8.98 19.2 17.61.95 2.57.79 5.73.46 8.53-.45 3.74-.68 7.28 1.21 10.72 2.04 3.73 2.61 7.74 2.39 11.98-.2 4.02-.51 8.12.07 12.06.72 4.89-1.61 8.17-4.77 11-1.17 1.05-3.96 1.81-4.96 1.14-1.29-.87-2.46-3.6-2.02-5 1.07-3.35.15-5.39-2.21-7.65-1.17-1.12-1.96-3.24-1.94-4.89.16-12.66-.04-25.28-2.74-37.71-.61-2.82-1.76-5.51-2.51-8.31-.76-2.83-1.33-5.72-2.18-9.48z"/><path d="m308.9 102.99c1.05.93 2.18 1.79 3.13 2.81 1.31 1.4 2.2 3.57 3.78 4.27 4.95 2.2 6.58 6.38 7.6 11.08.4 1.85.61 3.75.85 5.63.33 2.54 1.26 4.51 3.63 6 1.32.83 2.59 2.73 2.75 4.27.71 7.09 1.08 14.21 1.37 21.33.04.92-1.05 2.64-1.71 2.69-1.84.13-4.28.22-5.49-.82-4.71-4.06-8.15-9.15-10.12-15.14-.42-1.27-.62-2.74-1.4-3.75-3.9-5.09-3.57-11.06-3.88-16.95-.37-6.89-.9-13.78-1.35-20.67.29-.25.56-.5.84-.75z"/></g></svg>