<svg enable-background="new 0 0 400 400" viewBox="0 0 400 400" xmlns="http://www.w3.org/2000/svg"><path d="m203.96 24.98c1.11 1.39 2.89 2.64 3.22 4.19 1.4 6.63 1.76 13.55 3.75 19.97.93 2.98.21 6.91 3.7 9.27 1.13.77.96 3.49 1.33 5.33 1.56 7.86 4.3 15.17 9.18 21.66 1.62 2.15 2.53 4.83 3.79 7.26.87 1.68 1.56 3.51 2.7 5 6.93 9.11 10.48 20.01 14.67 30.32 5.33 13.13 9.87 26.92 10.98 41.21.63 8.08.15 16.5-4.64 23.89-4.62 7.13-8.92 14.47-13.36 21.72-.29.48-.52 1.02-.9 1.41-7.13 7.38-10.31 16.84-13.76 26.16-.34.91-.43 1.94-.44 2.92-.09 6.49-.31 12.99-.1 19.47.11 3.16 1.12 6.29 1.62 9.45 1.14 7.11 1.8 14.33 3.42 21.33 2.05 8.79 4.9 17.4 7.32 26.11.59 2.13.85 4.36 1.25 6.54.83 4.59 1.66 9.18 2.49 13.77.16.88.46 1.75.49 2.63.32 8.93.61 17.87.87 26.81.04 1.34.69 3.36-1.53 3.28-.87-.03-2.41-1.73-2.4-2.66.05-7.52-4.34-13.44-6.8-20.05-1.51-4.05-2.13-8.42-3.34-12.59-.84-2.88-1.91-5.7-3.05-8.47-4.38-10.63-9.33-21.08-10.61-32.71-.1-.88-.46-1.87-.18-2.61 1.76-4.57.44-8.72-.7-13.24-1.93-7.66-2.78-15.59-3.92-23.43-.18-1.23.6-2.57.81-3.88.35-2.18.65-4.37.9-6.56.93-8.3 3.28-15.91 8.47-22.78 5.83-7.73 11.1-15.92 16.19-24.18 3.22-5.22 6.01-10.76 8.37-16.42 4.15-9.96 4.92-19.96-.94-29.76-1.41-2.35-2.54-5.06-3.03-7.75-1.47-8.05-4.4-15.42-8.81-22.29-.9-1.4-.99-3.32-1.48-4.99-.33-1.13-.38-2.55-1.11-3.33-4.73-5.07-7.06-11.28-8.95-17.77-1.35-4.61-2.67-9.26-4.5-13.68-2.07-5.02-4.39-9.98-7.16-14.64-2.81-4.73-4.96-9.42-4.62-15.1.1-1.6-.6-3.49-1.52-4.85-2.58-3.82-2.86-8.03-2.2-12.26.68-4.38 2-8.66 3.04-12.98.48-.25.98-.48 1.49-.72z" fill="#010102"/><path d="m152.31 98.41c3.27 3.23 8.98 3.96 9.49 10.15.07.88 2.07 1.8 3.34 2.36 17.18 7.67 33.01 17.49 46.75 30.36 5.69 5.33 10.58 11.52 15.75 17.38.85.96 1.31 2.26 2.12 3.72-2.74.53-4.86.57-6.62-1.51-.63-.75-1.57-1.25-2.42-1.79-13.89-8.73-27.8-17.44-41.68-26.19-1.02-.64-2.23-1.37-2.73-2.37-1.66-3.3-4.41-4.34-7.82-4.71-3.94-.43-4.64-.15-5.47 3.77-.37 1.74-.63 3.55-.57 5.32.18 5.49-.99 10.63-3.3 15.58-.74 1.6-1.72 3.44-1.54 5.05.46 4.07-1.21 6.85-4.23 9.15-1.61 1.23-2.15 2.69-1.42 4.68.38 1.03.35 2.21.6 3.29 1.66 7 .96 13.55-3.79 19.47 2.21 2.14 2.7 4.25.84 7.07-.9 1.36-.79 3.69-.49 5.47 1.11 6.68.66 13.25.09 19.99-.99 11.58-.93 23.31 2.48 34.61 1.57 5.2 4.13 10.09 6.22 15.13.21.51.48 1.09.43 1.61-.66 6.5 2.68 12.33 3.11 18.66.15 2.23 1.36 4.39 1.59 7.05-.84-.82-1.86-1.53-2.5-2.48-10.16-15.41-17.71-31.77-22.22-49.91-2.55-10.26-1.76-19.74-.61-29.66.62-5.3.68-10.66 1.02-15.99.07-1.1.02-2.3.44-3.28 2.15-4.92 1.69-10.01 1.59-15.17-.07-3.23.77-6.54 1.61-9.71 1.78-6.65 3.51-13.33 5.83-19.79 4.07-11.33 4.18-23.26 6.07-34.93.82-5.05.16-9.65-1.85-14.34-.98-2.29-.79-5.09-1.13-7.66.34-.13.68-.25 1.02-.38z" fill="#010102"/><g fill="#fcfbfa"><path d="m385.2 377.6.6-.7c.6.4 1.3.9 1.9 1.5l-.6.7c-.8-.5-1.4-1-1.9-1.5zm.3 7.1c.6-1.4 1.1-2.9 1.5-4.5.3.1.6.3.9.4-.5 1.4-1 2.9-1.5 4.4zm.2-10.1.6-.6c.7.5 1.3 1.1 1.9 1.6l-.7.7c-.6-.6-1.2-1.2-1.8-1.7zm8.4-.8h.8v.9h1.8v.7h-1.8v1.8h-.8v-.3h-1.2v.9h3.3v2.6h-.8v-.4h-2.5c0 .3 0 .6-.1.8h3.4v.7h-3.5c0 .3-.1.6-.1.8h4v.7h-3.5c.7.9 1.9 1.3 3.6 1.5-.2.2-.4.5-.6.9-1.9-.3-3.2-1.1-3.8-2.3-.5 1.1-1.8 2-3.9 2.4-.2-.3-.4-.5-.6-.8 1.9-.4 3.1-.9 3.6-1.7h-3.2v-.7h3.5c.1-.2.1-.5.2-.8h-3.3v-.7h3.4c0-.2 0-.5 0-.8h-2.4v.3h-.8v-2.6h3.3v-.9h-1.2v.3h-.8v-1.8h-1.8v-.7h1.8v-.9h.8v.9h3.2zm-4.4 5.5h2.4c0-.3 0-.6 0-.9h-2.4zm1.2-3.1h3.2v-.8h-3.2zm4.4 2.2h-2.4v.9h2.5v-.9z"/><path d="m389.2 385.8h.9v1.5h1.9v-1.5h.9v1.5h2.7v6h1.1v.9h-11.3v-.9h1.1v-6h2.7zm.2 8.7.5.8c-1.2.6-2.5 1.3-4 1.9-.2-.3-.3-.6-.6-.8 1.6-.6 3-1.3 4.1-1.9zm-2-4.3h1.9v-2.1h-1.9zm0 3.1h1.9v-2.2h-1.9zm2.7-3.1h1.9v-2.1h-1.9zm0 3.1h1.9v-2.2h-1.9zm2.4 1.3c1.4.6 2.7 1.2 4.1 1.8l-.5.9c-1.5-.7-2.8-1.4-4.1-1.9zm2.2-6.5h-1.9v2.1h1.9zm-1.9 5.2h1.9v-2.2h-1.9z"/></g></svg>