<svg enable-background="new 0 0 400 400" viewBox="0 0 400 400" xmlns="http://www.w3.org/2000/svg"><path d="m374.8 390.4.4-.4c.7.5 1.3 1 1.8 1.4l-.5.5c-.5-.6-1.1-1.1-1.7-1.5zm1 7.3-.6-.3c.5-1.4 1.1-2.8 1.5-4.3.2.1.4.2.6.3-.5 1.3-1 2.8-1.5 4.3zm-.4-10.3.4-.4c.4.3 1 .8 1.7 1.4l-.5.5c-.4-.5-1-1-1.6-1.5zm2.5.3h1.7v-1h.6v1h3.5v-1h.6v1h1.8v.5h-1.8v1.4h-2v1h3.2v2h-3.2v.9h3.3v.5h-3.4c0 .3-.1.6-.1.9h4v.5h-3.7c.7.9 1.9 1.5 3.8 1.7-.1.2-.2.4-.3.6-2.1-.4-3.5-1.1-4-2.1-.4 1-1.8 1.7-4 2.2-.1-.2-.2-.4-.3-.6 2.1-.4 3.4-1 3.8-1.8h-3.4v-.5h3.6c.1-.3.1-.6.2-.9h-3.3v-.5h3.4c0-.3 0-.6 0-.9h-3.2v-2h3.3v-1h-2.1v-1.4h-1.7v-.5zm1.1 3.5v1h2.7c0-.3 0-.4 0-.4 0-.1 0-.2 0-.2 0-.1 0-.2 0-.3h-2.7zm1.2-3v.9h3.5v-.9zm4.7 3h-2.6v.6.4h2.6z" fill="#fbfcfa"/><path d="m393.6 386.7h.6v1.5h2.7v6.1h1.1v.6h-11v-.6h1.1v-6.1h2.7v-1.5h.6v1.5h2.1v-1.5zm-2.7 8.8.4.6c-1.2.6-2.5 1.3-3.8 1.9-.1-.2-.2-.4-.3-.6 1.2-.6 2.5-1.2 3.7-1.9zm-2.2-6.7v2.4h2.1v-2.4zm0 3v2.5h2.1v-2.5zm2.8-3v2.4h2.1v-2.4zm0 3v2.5h2.1v-2.5zm6 6.1c-1.4-.7-2.7-1.3-3.9-1.8l.3-.6c1.5.6 2.7 1.2 3.9 1.7zm-1.2-9.1h-2.1v2.4h2.1zm-2.1 3v2.5h2.1v-2.5z" fill="#fbfcfa"/><g fill="#010101"><path d="m369.86 290.05c-17.03 3.84-33.01 10.32-50.19 9.16-8.85-.6-17.65-2.56-26.35-4.49-10.9-2.41-21.65-5.55-32.53-8.08-3.78-.88-6.57-2.7-9.32-5.34-3.89-3.73-5.82-7.67-6.3-13.28-.76-8.95-3.08-17.77-4.61-26.66-1.55-9.01-1.93-17.98.92-26.88.63-1.96 1.49-2.81 3.59-3.12 4.09-.59 7.58-.26 11.39 2.01 9.31 5.55 19.54 5.76 29.9 3.35 7.3-1.7 14.54-3.65 22.16-2.36 6.2 1.05 11.67 3.49 16.6 8.14-7.14 3.37-14.28 5.72-21.74 5.86-7.09.13-14.25-.6-21.3-1.54-7.77-1.04-13.21 1.29-16.46 8.36-3.69 8.04-4.1 16.44-3.25 25.24.61 6.35 3.22 8.97 9.24 10.54 12.31 3.2 24.38 7.33 36.59 10.98 1.66.5 3.51.65 5.24.53 8.7-.58 17.39-1.38 26.1-1.93 2.27-.14 3.33-1.18 4.11-3.13 1.89-4.72 1.52-9.34.03-14.09-4.98-15.88-9.9-31.77-14.69-47.71-.75-2.5-1.16-5.31-.85-7.87 1.67-13.78-.81-27.16-3.49-40.54-1.36-6.79-2.46-13.64-3.86-20.43-.26-1.27-1.13-2.67-2.14-3.48-6.14-4.97-13.53-6.67-20.86-4.84-11.36 2.82-22.38 1.98-33.2-1.36-10.57-3.26-20.52-.88-30.58 1.73-8.32 2.16-15.93-.27-23.33-3.64-2.76-1.25-4.49-3.65-4.61-7.65 6.26-1.43 12.56-3.57 19.01-4.22 16.34-1.66 32.74-3.25 49.14-3.69 9.3-.25 18.7 1.61 28 2.9 10.24 1.42 20.45 2.07 30.72.56 2.43-.36 4.23.41 6.04 2 6.63 5.84 9.96 13.08 10.87 21.91 2.3 22.24 5.02 44.44 7.6 66.65.46 4 1.2 7.97 1.56 11.97.44 4.95 1.22 9.81 3.81 14.1 4.62 7.69 4.6 16.16 3.33 24.41-1.42 9.06-1.56 17.59 3.71 25.93z"/><path d="m139.01 374.61c-.13-3.02-.63-6.07-.34-9.05.9-9.21 2.61-18.36 3.09-27.59.92-17.87 2.08-35.79 1.5-53.64-.46-13.89-3.38-27.71-5.3-41.55-.14-1.04-.88-2.04-1.49-2.95-4.77-7.17-9.48-14.39-14.43-21.43-2.44-3.47-4.31-7.06-4.52-11.32-.46-9.31-5.4-16.4-11.36-22.94-6.02-6.59-11.71-13.49-13.58-22.39-1.34-6.41-1.77-13.06-2.1-19.63-1.25-24.72 4.27-48.45 10.97-71.96 3.55-12.46 7.61-24.78 11.23-37.22 1.04-3.57 4.06-4.85 6.5-6.86.27-.22.83-.17 1.24-.11 7.01 1.1 13.12 8.2 12.45 15.25-.5 5.18-1.33 10.48-3.03 15.37-6.96 20.01-12.51 40.39-15.59 61.32-2.09 14.16-3.71 28.75 2.28 42.36 4.66 10.59 10.82 20.53 16.34 30.74.69 1.27 1.36 2.68 2.41 3.62 9.2 8.29 13.2 19.8 18.8 30.28 4.2 7.86 8.44 15.84 11.35 24.22 4.73 13.62 4.78 27.92 3.52 42.17-1.27 14.39-2.84 28.87-8.07 42.38-4.01 10.36-9.69 20.08-14.7 30.04-1.88 3.75-3.97 7.39-5.97 11.08-.4-.08-.8-.13-1.2-.19z"/><path d="m332.2 81.97c-4.51 1.55-8.77 3.31-13.19 4.39-1.72.42-3.8-.86-5.75-1.02-1.64-.13-3.7-.31-4.93.51-5.14 3.42-10.42 5.39-16.67 3.71-1.1-.3-2.56-.18-3.59.31-9.91 4.7-20.39 5.34-31.13 4.92-10.94-.42-21.91-.33-32.86-.67-2.98-.09-5.96-.84-8.9-1.45-4.23-.87-6.63-3.35-6.3-8.29 7.02-.97 14.17-1.97 21.32-2.94 23.81-3.25 47.6-6.67 71.45-9.59 4.97-.61 10.17.57 15.25 1.05 2.11.2 4.19.68 6.27 1.07 4.43.82 7.53 3.21 9.03 8z"/><path d="m186 185.7c6.58 3.7 10.48 9.76 12.64 16.84 5.7 18.7 6.45 37.67 3.1 56.96-1.28 7.38-5.98 9.04-12.47 9.64-3.42-5.33-5.81-11.52-6.64-18.01-1.17-9.16-1.78-18.43-2.05-27.67-.29-9.82.27-19.67.12-29.5-.07-4.09 1.17-6.84 5.3-8.26z"/><path d="m85.11 286.25c-6.18-.36-11.54-.54-16.86-1.12-.95-.1-2.28-1.78-2.47-2.89-1.24-7.15-2.71-14.31-3.15-21.53-.59-9.57-.36-19.19-.36-28.79 0-1.74.6-3.48.91-5.17 8.93.62 16.53 6.31 18.36 15.76 2.04 10.58 2.55 21.46 3.52 32.23.33 3.72.05 7.51.05 11.51z"/><path d="m45.25 169.29c-4.01.46-6.51-.75-8.28-4.33-6.76-13.7-11.5-27.87-10.98-43.37.21-6.21 1.83-12.11 4.83-17.8 5.4 1.26 9.13 4.72 10.79 9.56 2.12 6.17 3.78 12.62 4.6 19.08 1.38 10.87 1.7 21.85-.11 32.76-.21 1.31-.54 2.6-.85 4.1z"/><path d="m169.12 82.37c-8.61-17.36-3.49-33.85-.49-50.33 6.72-.05 12.2 4.6 13.04 11.44 1.36 11.03.32 21.98-4.09 32.18-1.2 2.76-5.27 4.28-8.46 6.71z"/></g></svg>