<svg enable-background="new 0 0 400 400" viewBox="0 0 400 400" xmlns="http://www.w3.org/2000/svg"><path d="m41.17 199.91c-4.04 0-7.31.27-10.49-.13-1.36-.17-3.49-1.61-3.62-2.67-.33-2.77-.68-6.19.61-8.41 6.72-11.53 8.63-24.04 8.96-37.07.17-6.91.41-13.88 1.53-20.68 1.37-8.26 6.33-13.87 13.38-16.66 3.72 5.16 7.49 10.38 11.21 15.55 6.17-2.59 5.42-6.88 1.83-11.26-1.67-2.04-4-3.54-6.28-5.51 1.56-.97 2.27-1.51 3.05-1.88 10.61-5.02 19.27-12.37 26.54-21.54 1.63-2.06 4.37-3.23 6.62-4.8.27-.19.61-.27.94-.36 12.45-3.2 21.92-10.49 29.12-21 3.02-4.41 7.1-7.63 11.87-10.09 3.67-1.89 7.3-3.95 10.69-6.31 7.51-5.21 15.68-8.5 24.8-9.19 3.2-.24 5.56-1.43 6.96-4.33 2.62-5.47 6.76-7.07 12.88-6.85 6.23.23 11.59 1.47 17.02 4.63 23.48 13.67 47.23 26.89 70.76 40.48 3.7 2.13 7 5.08 10.11 8.06 3.95 3.79 7.41 8.1 11.31 11.94.95.94 2.93 1.47 4.28 1.25 3.85-.62 7.63-1.72 11.43-2.65 7.43-1.82 14.06 5.13 11.94 12.52-.43 1.5-1.33 3.09-1.11 4.5.34 2.16 1.06 4.49 2.35 6.21 1.39 1.85 3.17 1.83 5.32-.09 6.84-6.11 14.74-10 24.2-10.08 2.91-.02 4.65.91 5.94 3.69 3.82 8.22 4.37 16.6 3.16 25.53-.97 7.14-.69 14.46-.64 21.7.01 2.29-.03 4.11-2.12 5.48-1.3.86-2.41 2-3.62 3-4.36 3.59-4.8 7.36-.64 11.2 6.01 5.54 8.24 12.28 7.79 20.21-.33 5.7-.39 11.42-.92 17.1-.28 3.03-.02 5.73 1.58 8.33 2.73 4.45 3.64 9.44 3.36 14.5-.86 16.08-1.69 32.16-3.1 48.19-.79 9-2.34 17.97-4.23 26.81-1.08 5.04-3.62 9.76-5.3 14.69-.43 1.27-.55 2.98-.05 4.17 4.34 10.48 5.26 21.41 4.58 32.57-.03.44-.08.95-.32 1.29-1.49 2.13-10.66 1.78-11.62-.61-1.11-2.76-1.71-5.73-2.43-8.64-.21-.85-.14-1.8-.02-2.68 1.4-10.8-1.01-20.81-5.89-30.43-1.07-2.1-1.65-4.66-1.72-7.03-.95-30.98-1.68-61.98-2.72-92.96-.14-4.02.74-6.81 4.18-8.88 1.52-.91 2.8-2.22 4.43-3.54-2.28-1.93-4.47-3.78-6.92-5.86.79-.46 1.39-.83 2.01-1.16 5.39-2.89 6.25-6.75 2.7-11.85-1.4-2.02-2.86-4.03-3.98-6.2-3.6-7.01-4.08-14.28-1.51-21.77 2.34-6.83 3.9-13.74 2.48-21.06-.76-3.93-2.31-6.91-6.07-8.94-5.51-2.97-10.66-6.58-16.09-9.7-3.85-2.21-7.29-4.63-9.25-8.84-.43-.92-1.99-1.72-3.1-1.83-2.54-.26-5.16-.36-7.68-.01-7.1.99-12.89-1.55-18.19-5.98-8.84-7.4-17.78-14.68-26.67-22.02-3.19-2.64-6.21-5.53-9.61-7.86-3.26-2.23-4.89-5.06-4.88-8.89.01-2.61-1.25-3.63-3.73-4.14-4.48-.93-8.86-2.37-13.32-3.38-8.75-1.98-16.46-5.92-22.55-12.49-3.96-4.28-8.56-5.79-14.08-4.87-1.07.18-2.43 1.01-2.92 1.93-6.63 12.34-16.49 21.41-28.75 27.77-3.46 1.8-7.72 2.1-11.66 2.87-1.89.37-3.04 1.14-3.32 3.1-1.16 8.05-5.72 13.08-13.43 15.58-2.52.82-4.73 2.55-7.2 3.56-5.95 2.43-11.02 5.77-13.78 11.9-.42.93-1.47 1.63-2.35 2.27-1.09.78-2.24 1.53-3.47 2.02-9.75 3.85-15.98 11-19.35 20.74-1.39 4-4.38 5.42-8.19 5.69-2.9.21-5.82.12-8.71.38-1.98.18-4.09.38-5.85 1.19-2.61 1.2-4.25 3.12-2.82 6.44 4.31 9.96 5.3 20.35 4.34 31.14-.73 8.23-.25 16.57-.92 24.82-.51 6.22.99 11.72 4.02 16.91 1.6 2.74 1.57 4.67-.74 7.25-5.07 5.64-6.86 12.75-7.13 20.16-.36 9.76-2.26 19.06-6.86 27.76-.43.82-.18 2.34.3 3.25 1.26 2.36 2.82 4.56 4.37 7-1.86 2.36-3.78 4.68-5.54 7.12-.5.7-1.06 1.99-.75 2.54 4.64 8.27 4.9 17.26 3.5 26.15-1.69 10.67-4.16 21.24-6.74 31.74-2.13 8.66-9.29 13.99-14.83 20.99-3.36-5.33-6.44-10.44-6.38-16.49.03-2.67 1.15-5.85 2.87-7.87 5.26-6.14 6.14-12.97 4.46-20.44-.86-3.81-1.89-7.59-3.01-11.34-3.28-10.91-4.07-21.73.91-32.38 1.02-2.17.86-3.61-1.52-4.86-.97-.51-1.82-2.22-1.83-3.4-.13-11.98-.62-23.99.1-35.92.51-8.42 2.7-16.75 4.26-25.1.19-1.01 1.08-1.93 1.77-2.79 3.01-3.81 6.1-7.61 9.7-12.1z" fill="#010102"/><path d="m295.56 313.08c-1-1.68-1.68-3.11-2.61-4.35-1.94-2.57-4.52-3.55-7.7-2.6-.11.03-.22.06-.32.11-13.38 6.4-27.77 5.95-42.06 6.33-18.9.5-37.79 1.41-56.69 1.66-5.48.07-11.2-.81-16.41-2.49-10.5-3.39-20.81-7.43-31.03-11.6-8.47-3.46-13.62-10.17-15.24-19.07-1.89-10.31-4.02-20.7-4.47-31.12-1.03-23.49-.36-47 3.05-70.33.23-1.6 1.17-3.37 2.32-4.51 2.99-2.98 4.87-6.29 5.09-10.59.28-5.43 2.01-10.35 5.14-15.35 1.34.68 2.74 1.3 4.05 2.08 1.9 1.13 2.1 2.53.91 4.49-2.93 4.81-2.23 7.08 2.63 9.51 1 .5 1.97 1.1 3.01 1.47 8.52 2.99 14.66 8.82 19.04 16.47 1.85 3.23 3.87 6.92 3.99 10.46.25 7.2 3.73 11.93 9.44 16.19 1.24-2.33 2.48-4.5 3.57-6.74 5.42-11.16 10.63-22.43 16.23-33.49 5.44-10.73 13.73-18.08 26-20.15.64-.11 1.3-.1 2.22-.16.84 4.36 1.69 8.61 2.47 12.88.11.62.09 1.44-.23 1.94-4.16 6.44-3.41 13.71-3.73 20.83-.18 4 .14 7.88 2.23 11.32 2.06 3.39 1.94 6.45-.57 9.47-1.52 1.84-1.09 3.14.35 5.16 3.41 4.78 6.45 9.87 9.17 15.08 2.39 4.58 5.34 8.21 10.46 9.71 1.9.56 3.23.19 4.68-1.4 11.35-12.44 16.53-27.64 19.96-43.68 1.87-8.77 2.2-17.47.09-26.26-1.48-6.18.33-9.48 7.26-13.79 5.57 6.01 11.24 12.02 16.74 18.17.68.76.68 2.29.69 3.46.05 9.74-.02 19.48.08 29.22.01 1.34.32 3.16 1.21 3.92 5.65 4.87 6.8 11.32 7.45 18.27 1.27 13.47 3.18 26.89 4.34 40.37.34 4.01-.89 8.17-1.51 12.25-1.61 10.61-3.55 21.19-4.81 31.84-.55 4.53-3.51 4.31-6.49 5.02zm-98.95-17.51c.82-.38 1.41-.66 2-.92 5.17-2.34 10.15-5.42 15.56-6.85 9.84-2.6 20-1.79 30.03-.63 7.59.88 15.03 2.47 21.15 7.61.47.39 1.48.57 2.04.35 6.86-2.67 13.68-5.44 20.61-8.22-.46-19.4-6.56-36.88-15.89-54.05-.86 1.07-1.38 1.81-2 2.45-9.22 9.65-16.42 20.61-21.69 32.87-.46 1.07-1.77 2.42-2.78 2.51-3.66.3-7.36.12-11.28.12-.97-3.92-1.96-7.67-2.83-11.46-1.53-6.66-3.87-13.14-9.04-17.63-4.14-3.6-5.29-8.04-6.38-12.81-.37-1.63-.5-3.32-.9-4.95-1.6-6.54-.56-12.03 6.28-15.42-1.6-2.5-3.06-4.78-4.67-7.31-8.46 8.27-17.64 15.12-23.83 25-4.15 6.62-9.12 12.73-13.52 19.21-1.35 1.99-2.6 2.15-4.7 1.47-5.78-1.87-10.25-5.42-13.77-10.22-3.29-4.49-6.45-9.07-9.55-13.44-3.35.31-4.36 2.08-4.6 5.14-1.14 14.5-2.43 28.98-3.89 43.45-.3 2.95.41 4.92 3.18 5.66 5.68 1.52 11.38 3.09 17.17 4.08 6.92 1.17 13.97 1.6 20.91 2.63 3.92.58 7.02 2.66 8.96 6.33.94 1.75 2.24 3.3 3.43 5.03z" fill="#010102"/><g fill="#fcfbfa"><path d="m385.2 377.6.6-.7c.6.4 1.3.9 1.9 1.5l-.6.7c-.8-.5-1.4-1-1.9-1.5zm.3 7.1c.6-1.4 1.1-2.9 1.5-4.5.3.1.6.3.9.4-.5 1.4-1 2.9-1.5 4.4zm.2-10.1.6-.6c.7.5 1.3 1.1 1.9 1.6l-.7.7c-.6-.6-1.2-1.2-1.8-1.7zm8.4-.8h.8v.9h1.8v.7h-1.8v1.8h-.8v-.3h-1.2v.9h3.3v2.6h-.8v-.4h-2.5c0 .3 0 .6-.1.8h3.4v.7h-3.5c0 .3-.1.6-.1.8h4v.7h-3.5c.7.9 1.9 1.3 3.6 1.5-.2.2-.4.5-.6.9-1.9-.3-3.2-1.1-3.8-2.3-.5 1.1-1.8 2-3.9 2.4-.2-.3-.4-.5-.6-.8 1.9-.4 3.1-.9 3.6-1.7h-3.2v-.7h3.5c.1-.2.1-.5.2-.8h-3.3v-.7h3.4c0-.2 0-.5 0-.8h-2.4v.3h-.8v-2.6h3.3v-.9h-1.2v.3h-.8v-1.8h-1.8v-.7h1.8v-.9h.8v.9h3.2zm-4.4 5.5h2.4c0-.3 0-.6 0-.9h-2.4zm1.2-3.1h3.2v-.8h-3.2zm4.4 2.2h-2.4v.9h2.5v-.9z"/><path d="m389.2 385.8h.9v1.5h1.9v-1.5h.9v1.5h2.7v6h1.1v.9h-11.3v-.9h1.1v-6h2.7zm.2 8.7.5.8c-1.2.6-2.5 1.3-4 1.9-.2-.3-.3-.6-.6-.8 1.6-.6 3-1.3 4.1-1.9zm-2-4.3h1.9v-2.1h-1.9zm0 3.1h1.9v-2.2h-1.9zm2.7-3.1h1.9v-2.1h-1.9zm0 3.1h1.9v-2.2h-1.9zm2.4 1.3c1.4.6 2.7 1.2 4.1 1.8l-.5.9c-1.5-.7-2.8-1.4-4.1-1.9zm2.2-6.5h-1.9v2.1h1.9zm-1.9 5.2h1.9v-2.2h-1.9z"/></g></svg>