<svg enable-background="new 0 0 400 400" viewBox="0 0 400 400" xmlns="http://www.w3.org/2000/svg"><path d="m374.8 390.4.4-.4c.7.5 1.3 1 1.8 1.4l-.5.5c-.5-.6-1.1-1.1-1.7-1.5zm1 7.3-.6-.3c.5-1.4 1.1-2.8 1.5-4.3.2.1.4.2.6.3-.5 1.3-1 2.8-1.5 4.3zm-.4-10.3.4-.4c.4.3 1 .8 1.7 1.4l-.5.5c-.4-.5-1-1-1.6-1.5zm2.5.3h1.7v-1h.6v1h3.5v-1h.6v1h1.8v.5h-1.8v1.4h-2v1h3.2v2h-3.2v.9h3.3v.5h-3.4c0 .3-.1.6-.1.9h4v.5h-3.7c.7.9 1.9 1.5 3.8 1.7-.1.2-.2.4-.3.6-2.1-.4-3.5-1.1-4-2.1-.4 1-1.8 1.7-4 2.2-.1-.2-.2-.4-.3-.6 2.1-.4 3.4-1 3.8-1.8h-3.4v-.5h3.6c.1-.3.1-.6.2-.9h-3.3v-.5h3.4c0-.3 0-.6 0-.9h-3.2v-2h3.3v-1h-2.1v-1.4h-1.7v-.5zm1.1 3.5v1h2.7c0-.3 0-.4 0-.4 0-.1 0-.2 0-.2 0-.1 0-.2 0-.3h-2.7zm1.2-3v.9h3.5v-.9zm4.7 3h-2.6v.6.4h2.6z" fill="#fbfcfa"/><path d="m393.6 386.7h.6v1.5h2.7v6.1h1.1v.6h-11v-.6h1.1v-6.1h2.7v-1.5h.6v1.5h2.1v-1.5zm-2.7 8.8.4.6c-1.2.6-2.5 1.3-3.8 1.9-.1-.2-.2-.4-.3-.6 1.2-.6 2.5-1.2 3.7-1.9zm-2.2-6.7v2.4h2.1v-2.4zm0 3v2.5h2.1v-2.5zm2.8-3v2.4h2.1v-2.4zm0 3v2.5h2.1v-2.5zm6 6.1c-1.4-.7-2.7-1.3-3.9-1.8l.3-.6c1.5.6 2.7 1.2 3.9 1.7zm-1.2-9.1h-2.1v2.4h2.1zm-2.1 3v2.5h2.1v-2.5z" fill="#fbfcfa"/><g fill="#010101"><path d="m134.34 74.97c15.29-2.78 30.29-5.64 45.34-8.12 3.34-.55 4.76-2.04 4.36-4.98-1.11-8.26 1.05-16.02 3.31-23.74 1.02-3.49 1.78-7.55 6.58-8.6 1.65 2.94 2.95 5.62 2.07 9.16-.66 2.66-.26 5.56-.46 8.34-.27 3.67-.63 7.34-1.01 11.01-.57 5.51.34 6.94 5.87 7.15 3.99.15 8.01-.54 12.02-.87 1-.08 2-.27 3-.35 6.36-.53 8.41-3.94 6.27-10.23-.5-1.46-.91-3.08-.81-4.6.47-7.79 1.11-15.56 1.69-23.34.4-.24.81-.49 1.21-.73 1.5 1.04 3.46 1.76 4.4 3.17 2.25 3.39 3.76 7.27 2.63 11.42-.82 3.01.25 5.61.66 8.42.59 3.97.67 8.04.63 12.06-.02 3.09 1.6 4.3 4.26 4.41 4.31.18 8.64.17 12.96.16 3.72-.01 7.17.48 9.29 4.1.84 1.44.95 2.6-.63 3.69-3.53 2.45-7.3 3.69-11.66 3.22-3.66-.39-7.37-.74-11.03-.58-1.48.06-3.8 1.2-4.2 2.37-3.32 9.55-10.96 15.95-16.78 23.66-2.1 2.78-2.06 6.76.43 9.31 1.79 1.85 3.6 3.71 5.62 5.29 8.5 6.66 12.2 16.32 16.28 25.75.25.58.44 1.4.23 1.93-1.95 4.97-2.49 10.43-7.68 13.98-7.18 4.91-13.76 10.71-20.8 16.29 8.07 8.7 20.56 11.59 27.49 21.37-.08.39-.15.77-.23 1.16-1.85 0-3.79.38-5.52-.08-4.1-1.08-8.19-2.31-12.09-3.95-3.36-1.41-6.43-3.5-9.66-5.22-1.07-.57-2.27-.92-3.79-1.53-2.83 5.01-2.88 10.33-1.25 15.49 2.04 6.48 4.31 12.97 7.28 19.07 2.85 5.84 2.96 11.9 3.78 18.07 1.31 9.83.26 19.57.15 29.32-.06 5.49-1.9 10.95-2.78 16.44-.24 1.49-.08 3.11.18 4.61.71 4.02-.26 7.26-4.13 9.68-1.87-2.83-1.36-5.81-1.11-8.74 1.67-20.3.79-40.55-2.2-60.63-.83-5.59-3.82-10.89-6.08-16.21-.6-1.42-2.17-2.44-3.49-3.85-3.85 4.1-6.29 8.57-7.63 13.56-3.63 13.49-8.17 26.86-10.22 40.59-1.29 8.65-2.73 17.32-4.06 25.98-.63 4.07-1.54 8.13-2.72 12.08-.56 1.87-2.02 3.48-3.07 5.21-.39-.1-.79-.19-1.18-.29-.22-1.44-.75-2.92-.61-4.33 1.58-16.23 3.26-32.45 4.92-48.67.44-4.31.89-8.63 1.35-12.94.08-.77.03-1.64.38-2.27 3.86-6.83 3.88-14.62 5.58-21.98.4-1.71.96-3.44 1.81-4.96 3.37-6.06 6.88-12.04 10.34-18.05.33-.58.91-1.15.95-1.75.14-1.74.64-3.84-.14-5.11-.49-.8-3.18-.88-4.57-.4-3.45 1.21-6.82 2.75-10.04 4.5-7 3.8-14.16 7.13-23.09 9.04.79-1.71 1.02-2.98 1.77-3.68 1.29-1.21 2.91-2.05 4.38-3.06 5.4-3.74 10.75-7.58 16.23-11.2 2.11-1.39 4.59-2.21 6.79-3.48 1.52-.87 3.12-1.85 4.19-3.18 1.2-1.5 1.02-2.92-.32-4.96-4.42-6.73-10.31-12.68-11.54-21.24-1.08-7.52-.53-14.73 2.75-21.62.71-1.49 1.77-2.83 2.67-4.23 2.29-3.53 4.38-7.21 6.95-10.52 1.61-2.07 3.91-3.64 6-5.3 3.89-3.09 4.04-6.61 1.1-10.68-2.19-3.04-3.6-6.63-5.41-9.95-1.06-1.94-2-4.03-3.41-5.69-1.7-1.99-3.92-2.38-6.8-2.42-11.11-.15-21.65 3.13-32.49 4.48-5.11.67-9.78-2.02-11.46-7.23zm72.22 86.13c.37.18.75.36 1.12.53 2.05-1.07 4.6-1.69 6.03-3.31 2.7-3.08 5.97-5.01 9.64-6.39 2.02-.76 2.75-2.1 2.76-4.06.05-6.21-.99-11.99-5.93-16.43-2.24-2.02-4.25-4.29-6.48-6.32-.72-.65-1.81-.9-2.73-1.34-.36.98-.94 1.95-1.04 2.96-.86 8.2-1.64 16.41-2.44 24.61-.31 3.26-.62 6.51-.93 9.75zm-7.77-42.85c-3.32 3.53-6.15 6.1-8.44 9.09-2.42 3.14-4.93 6.45-6.33 10.09-2.52 6.55 2.16 19.42 8.08 23.32.69.45 3.25-.33 3.4-.93.84-3.29 1.46-6.69 1.68-10.09.59-8.94.94-17.89 1.38-26.84.07-1.23.13-2.47.23-4.64zm9.5-41.65v.14c-1.34-.07-2.67-.15-4.01-.22-4.67-.24-6.64 2.3-4.65 6.39 1.05 2.16 2.82 3.98 4.31 5.92 1.78 2.31 4.04 2.11 5.76.3 2.05-2.15 3.94-4.6 5.27-7.25 2-3.98.83-5.42-3.66-5.29-1.02.04-2.02.01-3.02.01z"/><path d="m218.01 355.51c1.17-2.7 2.46-4.54 2.73-6.51.94-6.87 2.81-13.3 7.81-18.8-3.45-1.41-2.32-3.52-1.77-5.88.98-4.28 1.5-8.68 2.06-13.04.3-2.31 1.91-2.81 3.55-2.36.82.23 1.82 1.9 1.78 2.88-.87 17.88-1.81 35.78-10.26 52.16-.64 1.25-2.01 2.45-3.32 2.96-5.17 2.03-10.39 3.95-15.7 5.59-3.93 1.21-7.97 2.29-12.04 2.76-5.5.63-10.85-.06-15.63-3.51-3.71-2.68-7.67-5.02-11.66-7.27-11.03-6.2-15.84-16.26-16.51-28.19-.45-7.86.71-15.82 1.29-23.73.05-.74.98-1.71 1.72-2 .44-.17 1.74.64 1.94 1.24 1.31 3.98 2.88 7.95 3.51 12.05.87 5.73.92 11.58 1.5 17.36.15 1.54.96 3.01 1.68 5.15 8.95-13.85 17.42-26.95 26.51-41.01 1.78 3.17 3.22 5.58 4.51 8.07 2.03 3.93 3.67 8.09 5.99 11.83 5.29 8.52 10.88 16.86 16.4 25.24.97 1.53 2.22 2.88 3.91 5.01zm-56.26-6.33c6.31 6.48 12.53 11.81 20.5 14.68 8.35 3.01 16.53 1.96 24.43-1.56 3.68-1.64 3.53-2.66 1.42-6.13-5.8-9.52-11.35-19.19-17.08-28.75-1.48-2.47-3.29-4.74-5.21-7.47-3.49 5.45-6.72 9.84-9.24 14.6-3.32 6.28-6.82 12.15-14.82 14.63z"/></g></svg>