<svg enable-background="new 0 0 400 400" viewBox="0 0 400 400" xmlns="http://www.w3.org/2000/svg"><path d="m157.47 74.26c3.24 11.31 7.67 22.29 7.3 34.36.35.15.69.31 1.04.46 2.17-3.07 4.63-5.98 6.47-9.24 4.4-7.82 5.98-16.56 7.39-25.28.55-3.39.31-6.9.68-10.33.3-2.75 1.25-5.44 1.42-8.19.3-5.01.48-10.05.25-15.06-.26-5.47.37-10.69 2.7-15.88 3.6 1.55 5.12 4.47 5.84 7.98 3.7 18.19 3.68 36.35.46 54.67-1.63 9.25-5.99 17.23-9.55 25.62-.37.87-1.26 1.55-2.01 2.21-3.94 3.49-7.73 7.17-11.91 10.34-3.4 2.59-4.43 5.87-4.72 9.84-.97 13.5-2.07 26.99-3.13 40.49-.06.78 0 1.69-.38 2.29-.8 1.24-1.86 2.31-2.82 3.44-1.08-.96-2.61-1.71-3.16-2.92-4.43-9.75-5.81-20.12-5.71-30.73.01-1.21 0-2.43 0-4.11-3.55.83-6.79 1.26-9.73 2.44-1.18.47-2.43 2.59-2.41 3.94.05 5.75.51 11.51.94 17.25.11 1.53 1.06 3.05.94 4.52-.76 9.4 2.96 17.86 6.11 26.22 1.48 3.93 6.01 6.71 9.16 10.01 5.44-1.08 9.65 3.03 14.7 3.5 5.11.47 10.26 1.07 15.37.96s10.22-.93 15.29-1.72c.89-.14 2.15-1.62 2.23-2.57 1.13-12.8 1.97-25.63 3.18-38.42.17-1.81 1.5-3.93 2.95-5.1 1.91-1.55 4.03-.4 4.83 2.01 2.34 7.05 2.38 14.27 1.88 21.58-.29 4.23-.34 8.5-.13 12.74.07 1.31 1.09 3.19 2.16 3.65 1.01.43 3.06-.3 3.97-1.2 6.27-6.21 12.53-12.44 18.42-19 2.17-2.41 3.67-5.6 4.88-8.67 5.97-15.18 11.83-30.4 17.52-45.69 1.75-4.69 2.69-9.68 4.24-14.46.6-1.84 1.86-3.47 3.03-5.59 4.4 9.39 6.29 18.62 3.39 28.05-3.8 12.37-8.45 24.48-12.44 36.79-3.51 10.81-9.85 19.57-17.73 27.62-6.8 6.95-13.85 13.35-23.05 16.82-4.57 1.72-5.92 4.99-5.66 9.4.08 1.44.23 2.88.42 5.22 1.77-.57 3.37-.76 4.58-1.54 2.71-1.77 5.3-3.75 7.82-5.79 4.21-3.41 8.75-6.12 13.94-7.81 1.73-.56 3.24-1.89 4.76-3 1.61-1.18 3.29-2.36 5.02-.62 1.8 1.8 1.82 3.75.1 5.96-5.2 6.69-12.4 10.83-19.05 15.74-3.99 2.95-7.54 6.55-10.96 10.18-1.99 2.11-2.19 4.79-1.03 7.77 4.95 12.81 9.68 25.71 14.46 38.59 1.52 4.08 2.9 8.21 4.45 12.28.71 1.85 1.56 3.66 2.54 5.39 1.57 2.79 2.11 5.59.46 9.45-1.63-.85-3.28-1.45-4.62-2.46-11.75-8.88-16.45-22.58-23.37-34.72-1.77-3.11-2.04-7.04-3.26-10.51-1-2.85-2.39-5.57-4.17-8.29-6 8.89-12.17 17.35-14.5 27.62-2.28 10.08-2.66 20.37-1.23 30.67s3.19 20.56 4.26 30.9c.56 5.4-.02 10.92-.16 16.39-.02.75-.21 1.76-.71 2.18-1.02.87-2.3 1.9-3.5 1.94-.84.03-2.11-1.3-2.54-2.31-3.9-9.24-6.03-18.74-6.09-28.94-.06-11.16-1.61-22.3-2.19-33.47-.34-6.46-.07-12.95-.04-19.42 0-.88.01-1.84.36-2.61 3.5-7.61 6.7-15.39 10.74-22.71 2.67-4.84 6.64-8.95 9.83-13.53.94-1.35 1.64-3.16 1.69-4.79.2-5.7-.02-11.42.13-17.12.05-2.1-.74-3.44-2.65-3.48-4.3-.09-8.62.26-12.92.25-2.61 0-5.3 0-7.82-.59-6.18-1.45-12.39-2.93-18.37-5.01-3.61-1.26-6.82-3.67-10.21-5.56-2.57-1.43-5.18-2.8-7.72-4.27-4.15-2.4-6.95-6.05-8.51-10.45-1.42-3.99-2.32-8.16-3.36-12.27-1.42-5.63-2.92-11.25-4.07-16.93-.65-3.22-.77-6.56-.99-9.86-.4-5.91-1.12-11.83-.94-17.73.34-11.62 1.3-23.21 1.79-34.83.13-3.18-.22-6.46-.88-9.58-.56-2.63.5-3.8 2.66-4.43 2.26-.66 4.48-.85 5.66 1.89 2.44 5.66 2.53 11.59 1.32 17.45-1.38 6.65.35 13.09.68 19.62.09 1.77 1.3 2.54 3.39 1.95 1.98-.56 4.24-.98 6.19-.57 3.01.62 4.25-.53 5.11-3.13 3.63-10.99 4.83-22.22 3.74-33.75-.42-4.43-.57-8.94-.34-13.38.25-4.26 2.49-7.79 5.9-11.02z" fill="#010100"/><g fill="#fcfafa"><path d="m342.2 3.2-6.3 9.2h6.1v1.2h-8.2v-.5l6.2-9.1h-5.7v-1.2h7.8v.4z"/><path d="m344 13.7v-10.9h3.1c1.6 0 3 .5 4.1 1.4 1.1 1 1.6 2.2 1.6 3.9s-.5 3-1.6 4-2.5 1.5-4.2 1.5h-3zm1.4-9.6v8.4h1.6c1.4 0 2.5-.4 3.2-1.1.8-.8 1.2-1.8 1.2-3.2s-.4-2.4-1.2-3.1-1.8-1-3.1-1z"/><path d="m356.3 2.8v10.9h-1.4v-10.9z"/><path d="m366.6 13.2c-.8.4-1.8.6-3 .6-1.6 0-2.8-.5-3.7-1.5s-1.4-2.3-1.4-3.9c0-1.7.5-3.2 1.6-4.2s2.4-1.6 4-1.6c1 0 1.9.1 2.6.4v1.5c-.8-.4-1.6-.6-2.6-.6-1.2 0-2.2.4-3 1.2s-1.1 1.9-1.1 3.3c0 1.3.4 2.3 1.1 3.1s1.6 1.1 2.8 1.1c1.1 0 2-.2 2.8-.7v1.3z"/><path d="m368.2 13c0-.3.1-.5.3-.6.2-.2.4-.3.6-.3.3 0 .5.1.7.3s.3.4.3.6-.1.5-.3.6c-.2.2-.4.3-.7.3s-.5-.1-.6-.3c-.2-.2-.3-.4-.3-.6z"/><path d="m381.1 13.7h-1.7l-5.5-8.4c-.2-.2-.3-.5-.4-.7 0 .2.1.8.1 1.5v7.6h-1.4v-10.9h1.8l5.3 8.3c.3.4.4.6.4.8 0-.3-.1-.8-.1-1.6v-7.5h1.4v10.9z"/><path d="m389.7 13.7h-5.8v-10.9h5.6v1.2h-4.2v3.5h3.9v1.2h-3.9v3.7h4.4z"/><path d="m398.4 4.1h-3.1v9.6h-1.4v-9.6h-3.1v-1.3h7.7v1.3z"/></g></svg>