<svg enable-background="new 0 0 400 400" viewBox="0 0 400 400" xmlns="http://www.w3.org/2000/svg"><path d="m219.87 207.03c-6.49 8.68-12.56 16.7-18.52 24.81-4.54 6.17-9.29 12.15-16.2 15.78-3.4 1.79-7.16 2.91-10.75 4.33-.38-.28-.77-.55-1.15-.83 1.32-5.89 1.57-12.3 4.15-17.57 8.47-17.37 17.75-34.34 26.82-51.42 1.09-2.05 1.06-3.71.4-5.93-2.36-7.98-7.14-14.04-13.83-18.72-9.51-6.66-18.81-13.68-28.72-19.69-4.52-2.74-10.25-3.52-15.48-5.05-3.31-.97-5.03.45-5.16 3.9-.3 8.36-.64 16.73-.96 25.09-.18 4.79.08 9.64-.62 14.35-.8 5.33-4.05 8.02-8.58 8.45-2.09.2-3.45-.3-4.54-2.38-5.64-10.82-9-22.39-11.22-34.29-3.67-19.62-5.43-39.4-5-59.41.3-13.96-.08-27.94-.22-41.91-.04-4.24 2.57-5.63 6.55-5.13 6.01.76 7.88 5.06 10.03 9.42 3.69 7.48 4.66 15.52 5.07 23.74.4 8.12 1.2 16.23 2.08 24.32.4 3.69 2.47 6.02 6.33 7.27 18.3 5.9 33.65 17.44 50.17 26.76 7.1 4.01 14.05 8.29 21.33 12.59 4.3-6.37 5.59-13.25 3.86-20.48-2.51-10.46-6.1-20.46-12.32-29.5-8.81-12.8-17.21-25.89-25.58-38.99-2.7-4.23-5.72-7.87-10.15-10.38-1.03-.58-1.94-2.41-1.9-3.64.16-5.35.69-10.69 1.13-16.59 1.21.9 2.01 1.43 2.74 2.04 12.58 10.6 25.15 21.21 37.7 31.85 1.18 1 2.43 2.09 3.15 3.42 10.96 20.08 20.15 40.92 25.15 63.32 1.13 5.05.16 10.66-.33 15.97-1.01 11.14-2.39 22.24-3.48 33.37-.12 1.18.31 2.75 1.08 3.62 8.5 9.6 12.59 21.29 16.96 33.09 10.83 29.24 17.94 59.42 24.63 89.76 3.03 13.74 6.77 27.33 9.65 41.1 1.91 9.14 1.79 18.46-.34 27.66-.42 1.81-.91 3.81-3.09 3.66-1.35-.09-2.96-1.09-3.88-2.17-7.74-9.09-12.37-19.72-13.94-31.46-3.6-26.91-13.21-52.1-21.38-77.73-3.28-10.3-5.03-21.08-8.14-31.44-1.87-6.25-4.78-12.24-7.67-18.13-1.19-2.42-3.55-4.23-5.83-6.83z" fill="#010100"/><g fill="#fafbfa"><path d="m6.4 11.7c-1-.8-1.9-1.6-2.9-2.3l.6-.7c.9.7 1.9 1.4 2.9 2.2zm-2.1 8.3c.7-2.1 1.4-4.2 2-6.4.2.1.6.3 1 .4-.7 2.3-1.3 4.4-1.9 6.4zm3-12.8c-1.1-.9-2.1-1.7-2.9-2.4l.6-.7c1 .8 2 1.5 3 2.4zm1.4-1.3v-.9h10.2v.9c-.9 4.2-2.3 7.3-4.1 9.4 1.3 1.4 3.2 2.7 5.7 4-.2.2-.4.5-.7.9-2.5-1.4-4.4-2.7-5.7-4.2-1.4 1.5-3.5 3-6.1 4.4 0 0 0 0-.1-.1-.3-.4-.5-.7-.7-.8 2.7-1.3 4.7-2.8 6.2-4.2-1.8-2.2-3-5.3-3.7-9.4zm9.2 0h-7.1c.6 3.8 1.7 6.7 3.4 8.7 1.7-2 2.9-4.8 3.7-8.7z"/><path d="m31.6 3.6h.9v2.3h4.1v9.1h1.7v.9h-16.6v-.9h1.7v-9.1h4.1v-2.3h.9v2.3h3.1v-2.3zm-4 13.3.6.8c-1.9.9-3.8 1.9-5.8 2.8-.2-.3-.3-.6-.5-.9 2-.9 3.9-1.8 5.7-2.7zm-3.2-10.1v3.7h3.1v-3.7zm0 4.5v3.7h3.1v-3.7zm4.1-4.5v3.7h3.1v-3.7zm0 4.5v3.7h3.1v-3.7zm9.1 9.1c-2.1-1.1-4.1-2-5.8-2.7l.5-.8c2.2.9 4.1 1.8 5.8 2.6zm-1.9-13.6h-3.1v3.7h3.1zm-3.2 4.5v3.7h3.1v-3.7z"/></g></svg>