<svg enable-background="new 0 0 400 400" viewBox="0 0 400 400" xmlns="http://www.w3.org/2000/svg"><path d="m135.05 39.37c.37 7.6.15 14.92 1.2 22.07 1.58 10.84-.94 21.4-1.18 32.1-.26 11.22-.69 22.45 3.13 33.19 1.39 3.91 3.36 7.93 6.07 11 8.52 9.62 17.37 18.97 26.41 28.12 4.5 4.55 10.27 7.03 17.67 7.25.94-6.55 2.51-13.12 2.69-19.72.35-12.96-.04-25.95-.18-38.93-.05-4.48-.4-8.95-.36-13.42.05-4.53 2.73-7.68 6.73-8.4s5.65.16 7.43 3.78c4.74 9.58 4.36 19.62 3.14 29.88-1.28 10.75-3.37 21.49-1.81 32.41.05.33.04.67.08 1 .82 7.5 4.69 9.2 10.87 4.75 4.09-2.94 7.97-6.22 12.28-8.79 10.17-6.06 15.32-15.51 19.22-26.18 3.76-10.28 3.57-20.93 3.6-31.49.04-15.31 2.7-30.27 4.7-45.34.6-4.54.28-9.22 1.13-13.7.79-4.18 2.5-8.21 3.96-12.25.7-1.94 2.19-1.84 3.83-1 3.11 1.59 4.68 4.27 4.79 7.57 1.01 32.7 1.08 65.35-6.03 97.55-1.25 5.66-4 10.36-7.5 15.07-10.92 14.71-25.23 25.61-39.47 36.62-2.81 2.18-6.12 3.71-9.09 5.7-.91.61-1.98 1.74-2.06 2.71-1.47 16.7-4.63 33.3-3.64 50.16.25 4.22 1.15 8.4 1.77 12.67 4.8.62 8.61.13 12.63-2.92 15.57-11.83 29.37-25.55 43.3-39.17 5.86-5.73 12.59-10.34 20.39-13.39 1.97 3.01 1.33 6.03-.17 8.62-6.43 11.08-12.06 22.63-22.39 31.05-13.45 10.96-26.48 22.42-39.6 33.78-4.3 3.72-8.43 7.66-12.4 11.74-3.11 3.2-3.27 7.43-3.16 11.65.36 14.21 1.3 28.44.81 42.62-.37 10.78-2.56 21.49-4.04 32.22-.14 1.04-.81 2.11-1.48 2.96-1.77 2.24-3.48 2.05-4.68-.54-3.96-8.55-5.3-17.73-6.36-26.97-1.77-15.53-1.55-31.06.41-46.55.34-2.69-.37-4.53-2.23-6.52-17.49-18.74-34.96-37.5-52.24-56.44-7.87-8.62-14.86-17.94-18.68-29.2-.64-1.88-1.72-4.26-1.08-5.77 1.19-2.79 3.26-5.34 5.41-7.55 1.82-1.87 5.47-.89 7.2 1.58 15.83 22.42 35.24 41.35 56.75 58.24.7.55 1.42 1.09 2.15 1.6.15.11.39.1.86.22.07-1 .21-1.94.21-2.89.01-17.91-.05-35.83.07-53.74.02-2.5-.99-3.65-2.94-4.97-10.36-7.01-21.7-13.06-30.63-21.59-23.9-22.83-35.44-51.33-34.68-84.61.34-15 3.11-29.55 7.75-43.76.39-1.18 1.82-2.39 3.04-2.84 1.95-.75 4.13-.85 6.4-1.24z" fill="#010100"/><path d="m172.64 60.03c3.74 1.28 4.89 3.69 3.27 6.78-.3.57-1.04.9-1.58 1.34-.34-.51-.89-.99-.97-1.53-.32-2.16-.49-4.34-.72-6.59z" fill="#010100"/><g fill="#fafbfa"><path d="m6.4 11.7c-1-.8-1.9-1.6-2.9-2.3l.6-.7c.9.7 1.9 1.4 2.9 2.2zm-2.1 8.3c.7-2.1 1.4-4.2 2-6.4.2.1.6.3 1 .4-.7 2.3-1.3 4.4-1.9 6.4zm3-12.8c-1.1-.9-2.1-1.7-2.9-2.4l.6-.7c1 .8 2 1.5 3 2.4zm1.4-1.3v-.9h10.2v.9c-.9 4.2-2.3 7.3-4.1 9.4 1.3 1.4 3.2 2.7 5.7 4-.2.2-.4.5-.7.9-2.5-1.4-4.4-2.7-5.7-4.2-1.4 1.5-3.5 3-6.1 4.4 0 0 0 0-.1-.1-.3-.4-.5-.7-.7-.8 2.7-1.3 4.7-2.8 6.2-4.2-1.8-2.2-3-5.3-3.7-9.4zm9.2 0h-7.1c.6 3.8 1.7 6.7 3.4 8.7 1.7-2 2.9-4.8 3.7-8.7z"/><path d="m31.6 3.6h.9v2.3h4.1v9.1h1.7v.9h-16.6v-.9h1.7v-9.1h4.1v-2.3h.9v2.3h3.1v-2.3zm-4 13.3.6.8c-1.9.9-3.8 1.9-5.8 2.8-.2-.3-.3-.6-.5-.9 2-.9 3.9-1.8 5.7-2.7zm-3.2-10.1v3.7h3.1v-3.7zm0 4.5v3.7h3.1v-3.7zm4.1-4.5v3.7h3.1v-3.7zm0 4.5v3.7h3.1v-3.7zm9.1 9.1c-2.1-1.1-4.1-2-5.8-2.7l.5-.8c2.2.9 4.1 1.8 5.8 2.6zm-1.9-13.6h-3.1v3.7h3.1zm-3.2 4.5v3.7h3.1v-3.7z"/></g></svg>