<svg enable-background="new 0 0 400 400" viewBox="0 0 400 400" xmlns="http://www.w3.org/2000/svg"><path d="m374.8 390.4.4-.4c.7.5 1.3 1 1.8 1.4l-.5.5c-.5-.6-1.1-1.1-1.7-1.5zm1 7.3-.6-.3c.5-1.4 1.1-2.8 1.5-4.3.2.1.4.2.6.3-.5 1.3-1 2.8-1.5 4.3zm-.4-10.3.4-.4c.4.3 1 .8 1.7 1.4l-.5.5c-.4-.5-1-1-1.6-1.5zm2.5.3h1.7v-1h.6v1h3.5v-1h.6v1h1.8v.5h-1.8v1.4h-2v1h3.2v2h-3.2v.9h3.3v.5h-3.4c0 .3-.1.6-.1.9h4v.5h-3.7c.7.9 1.9 1.5 3.8 1.7-.1.2-.2.4-.3.6-2.1-.4-3.5-1.1-4-2.1-.4 1-1.8 1.7-4 2.2-.1-.2-.2-.4-.3-.6 2.1-.4 3.4-1 3.8-1.8h-3.4v-.5h3.6c.1-.3.1-.6.2-.9h-3.3v-.5h3.4c0-.3 0-.6 0-.9h-3.2v-2h3.3v-1h-2.1v-1.4h-1.7v-.5zm1.1 3.5v1h2.7c0-.3 0-.4 0-.4 0-.1 0-.2 0-.2 0-.1 0-.2 0-.3h-2.7zm1.2-3v.9h3.5v-.9zm4.7 3h-2.6v.6.4h2.6z" fill="#fbfcfa"/><path d="m393.6 386.7h.6v1.5h2.7v6.1h1.1v.6h-11v-.6h1.1v-6.1h2.7v-1.5h.6v1.5h2.1v-1.5zm-2.7 8.8.4.6c-1.2.6-2.5 1.3-3.8 1.9-.1-.2-.2-.4-.3-.6 1.2-.6 2.5-1.2 3.7-1.9zm-2.2-6.7v2.4h2.1v-2.4zm0 3v2.5h2.1v-2.5zm2.8-3v2.4h2.1v-2.4zm0 3v2.5h2.1v-2.5zm6 6.1c-1.4-.7-2.7-1.3-3.9-1.8l.3-.6c1.5.6 2.7 1.2 3.9 1.7zm-1.2-9.1h-2.1v2.4h2.1zm-2.1 3v2.5h2.1v-2.5z" fill="#fbfcfa"/><g fill="#010101"><path d="m106.85 294.58c.95-.08 1.96-.4 2.84-.19 12.09 2.85 23.69.25 35.27-2.94 2.01-.55 4.27-1.36 6.17-.94 4.85 1.06 8.3-2.36 10.02-6.49 1.93-4.63 1.23-9.36.13-13.87-1.35-5.57-.52-10.6 1-16.01 1.3-4.63.88-9.74 1.37-14.62.5-4.89.9-9.81 1.87-14.61 1.15-5.69 1.39-5.65 7.2-6.17 1.55-.14 3.1-.22 4.71-.33 1.41 4.41-1.91 6.89-3.8 10.11 2.69 2.51 2.98 5.82 1.95 8.96-2.5 7.64-2.06 15.46-2.08 23.27-.01 8.06-.03 16.12.01 24.18.01 3.35 2.42 5.88 5.3 4.6 7.82-3.47 16.12-1.69 24.09-3.07 9.68-1.67 19.38-3.25 29.04-5.05 1.15-.22 2.09-1.6 3.01-2.34-.29-.7-.32-1.03-.47-1.09-4.05-1.71-4.83-4.89-4.42-8.92.31-2.99-.12-6.05.1-9.06.36-4.85-.32-9.28-3.73-13.05-.66-.73-.8-2-1.04-3.05-.67-2.99-.64-6.31-2-8.93-4.36-8.43-3.02-16.84-1.06-25.47 3.36-14.79 11.32-27.12 20.33-38.92 1.79-2.35 2.86-4.74 2.44-7.7-.38-2.69.43-4.64 3.33-5.11.26-2.64-1.19-3.54-3.3-4.35-2.63-1.01-5.05-2.57-7.58-3.86-.56-.28-1.29-.73-1.77-.58-7.43 2.43-14.36-.75-21.4-2.06-2.82-.53-4.53-.01-5.8 2.31-4.5 8.22-9.15 16.37-13.34 24.75-2.33 4.66-3.62 9.84-5.79 14.59-3.18 6.96-6.74 13.76-10.4 21.15.13.16.79.97 2.22 2.71-2.66.46-4.61.8-7.07 1.23.84-5.41 1.46-10.17 2.42-14.85.19-.93 1.65-1.67 2.62-2.36 1.36-.96 2.81-1.78 4.23-2.66-3.46-4.9-2.66-10.54 2.31-15.65 3.43-3.53 7.1-6.83 10.51-10.38.8-.83 1.63-2.48 1.33-3.39-1.9-5.75-.04-10.68 2.73-15.57 1.3-2.3 2.24-4.81 3.44-7.44-10.96-1.66-21.6-3.05-32.14-4.98-4.43-.81-8.8-2.46-12.88-4.39-1.35-.64-1.73-3.35-2.69-5.42-.61.26-2.09.43-2.75 1.26-2.54 3.18-5.26 2.67-8.28.96-.56-.32-1.27-.49-1.92-.51-5.64-.16-10.99-1.45-16.07-3.92-.63-.31-1.57-.32-2.26-.11-7.38 2.25-13.42-2-19.21-4.93-3.85-1.95-5.6-7.21-6.89-12.93 2.85.66 5.06.81 6.94 1.67 4.41 2.02 8.94 1.79 13.5 1.25 4.62-.55 8.86.07 12.72 2.9.67.5 2.07.48 2.93.16 4.15-1.51 12.87.23 15.88 3.45 1.76 1.89 3.79 2.6 6 1.26 4.74-2.88 9.56-1.46 14.22-.24 6.91 1.81 13.76 3.94 20.47 6.38 1.77.64 2.96 2.9 4.39 4.44.85.91 1.5 2.15 2.53 2.68.42.21 1.88-.9 2.39-1.7 1.45-2.31 3.37-2.79 5.98-2.57 7.51.64 14.21 3.63 21.04 6.46 3.76 1.56 7.8 2.73 11.82 3.27 2.21.3 4.75-.82 6.95-1.77 2.16-.93 3.4-2.76 3.17-5.37-.12-1.32-.1-2.73.21-4.01.68-2.78-.24-4.54-2.61-6.14-1.15-.77-1.46-2.72-2.31-4.03-1.19-1.84-2.21-3.96-3.84-5.29-8.07-6.56-16.41-12.79-24.46-19.37-3.23-2.64-5.99-5.86-8.54-8.4 2.1-1.63 4.03-3.09 5.92-4.61 1.5-1.2 6.13-.15 8.47 2.32 4.25 4.5 8.33 9.17 12.65 13.97.18-.09 1.09-.75 2.1-1 5.18-1.31 5.19-1.28 5.12-6.37-.06-4.48.05-8.96-.23-13.43-.13-2.01-1.04-3.96-1.61-5.94-.21-.72-.84-1.54-.66-2.13 1.57-5.41-.18-10.65-.64-15.95-.06-.74-.1-2.04.21-2.16 4.11-1.64 2.46-5.23 2.86-8.1.12-.85.12-1.72.19-2.86 3.62 1.73 5.89 3.8 5.22 8-.95 5.98 1.87 11.36 2.91 17.03.74 4.02.77 8.18 1.04 12.29.14 2.1-.69 3.19-3.03 3.47-1.22.14-2.92 1.32-3.29 2.41-.66 1.94.63 3.38 2.71 3.76 5.43 1 7.25 4.43 7.12 9.68-.07 3.21 1.08 6.46.95 9.66-.17 4.49 1.89 6.93 5.71 8.71 1.62.75 2.83 2.4 4.21 3.66.41.37.66.97 1.11 1.23 5.79 3.42 11.55 6.91 17.44 10.16 4.42 2.44 9.15 4.43 10.23 10.93-1.86 0-3.68.42-5.18-.09-3.32-1.13-6.45-2.8-9.72-4.11-1.31-.53-2.77-.94-4.16-.96-4.3-.07-7.99-1.21-11.31-4.2-3.53-3.18-4.73-2.76-6.46 1.13-2.57 5.77-4.32 11.55.24 17.35 1.86 2.37 1.94 5.15.48 7.9-.84 1.58-1.83 3.16-2.24 4.86-.52 2.17-.44 4.48-.77 6.71-.39 2.55-.28 5.48-1.54 7.54-6.56 10.67-13.42 21.16-20.35 31.59-1.44 2.18-3.43 4.08-5.46 5.75-3.12 2.57-3.42 4.45-1.33 7.94 5.39 9.02 9.28 18.58 9.83 29.25.03.66-.05 1.46.28 1.96 4.87 7.38 3.6 16.21 5.78 24.22 1.82 6.71.48 12.82-2.67 19-4.66 9.15-8.3 18.83-15.36 26.59-.65.71-1.17 1.68-1.4 2.62-1.04 4.18-2.84 7.58-7 9.64-1.11.55-2.3 3.43-1.8 4.34 2.94 5.4 1.16 10.96 1.12 16.45-.02 2.35-.5 4.7-.34 7.03.07.98 1.17 2.63 1.93 2.7 2.59.26 5.34.35 7.85-.23 2.9-.68 5.7-1.98 8.39-3.32 2.8-1.39 5.07-1.04 7.21 1.13.44.45 1.06.73 2.04 1.39 0-1.26.17-2.12-.03-2.9-1.19-4.71 1.27-7.73 4.75-10.16 10.56-7.39 19.17-16.86 27.95-26.14 2.86-3.02 5.71-5.85 10.78-6.9-.75 1.3-1.05 2.05-1.54 2.65-3.02 3.75-5.92 7.6-9.16 11.16-3.69 4.05-6.37 8.54-7.77 13.86-.34 1.31-1.21 2.73-2.26 3.57-10.77 8.53-21.62 16.96-32.47 25.39-.61.48-1.34.8-2.03 1.18-13.89 7.49-20.96 2.85-24.27-11.53-2.59-11.25-.71-22.48 3.25-33.29.33-.9 1.02-1.76 1.75-2.4 2.25-1.97 3.33-4.27 3.03-7.35-.1-1.07.63-2.3 1.21-3.34 1.41-2.54 3.23-4.88 4.37-7.53 2.31-5.32.01-8.72-5.78-8.93-1.22-.04-2.45.13-3.68.22-5.46.4-10.92.7-16.36 1.24-3.95.39-7.86 1.1-11.8 1.66-.66.09-1.39.41-1.97.22-7.37-2.36-14.33.65-21.45 1.55-1.07.14-2.3.3-3.24-.08-2.92-1.19-5.61-1.16-8.24.68-.44.3-1.18.69-1.53.52-4.05-2-7.56.64-11.32 1.12-5.63.71-11.32.86-16.99 1.18-.61.03-1.4-.24-1.85-.65-3.42-3.12-6.77-6.3-10.14-9.47.25-.39.52-.83.79-1.28zm57.4-169.64c-.43.18-.86.35-1.29.53.54 1.5.65 3.58 1.72 4.37 1.96 1.45 4.5 2.33 6.78-.49-2.53-1.55-4.87-2.98-7.21-4.41z"/><path d="m213.87 72.72c-7.34 1.15-14.14 1.11-19.79-4.83-7.09-7.45-14.47-14.63-21.58-22.06-1.31-1.37-2.28-3.26-2.85-5.09-1.51-4.89-2.71-9.88-4.11-15.1 3.93-.27 6.83.86 9.18 3.88 1.96 2.53 3.95 5.36 6.6 6.96 4.28 2.58 7.57 5.76 9.79 10.17 3.68 7.32 10.29 11.92 16.21 17.11 4.11 3.59 5.29 4.73 6.55 8.96z"/></g></svg>