<svg enable-background="new 0 0 400 400" viewBox="0 0 400 400" xmlns="http://www.w3.org/2000/svg"><g fill="#010102"><path d="m174.22 118.79c-2.8 7.64-5.51 15.03-8.15 22.21-1.96.7-3.17-3.58-5.33-.08 10.13 7.07 13.96 17.96 17.69 28.91.07.21.12.43.2.64 2.67 6.1 6.34 12.11.49 19.16-.46-.43-1.7-1.1-2.22-2.14-3.37-6.73-8.25-11.17-14.8-12.84-.37 4.73-.78 9.37-1.09 14.02-.49 7.47-.7 14.97-1.49 22.4-.27 2.59-1.91 5.04-3.22 8.26-4.46-6.2-5.49-12.45-6.79-18.68-1.47-7.05-.51-13.82.41-20.86 1.23-9.36.9-18.94 1.11-28.43.05-2.22.55-3.86 2.05-5.69 1.42-1.73 2.48-4.48 2.29-6.66-.51-5.83.73-11.07 3.38-16.15 1.19-2.27 1.92-4.81 3.25-6.98 1.11-1.8 2.82-3.22 4.22-4.85.96-1.12 2.29-2.2 2.64-3.52 1.16-4.34 2.56-8.37 5.71-11.84 3.92-4.33 4.29-9.23 1.26-14.51-2.42-4.22-3.87-8.97-9.17-10.89-1.92-.7-3.18-1.16-4.55.65-1.28 1.69-2.71 3.25-3.69 4.41-2.76-2.36-4.94-4.22-7.35-6.28 6.06-6.23 11.89-12.23 17.73-18.23.62-.64 1.33-1.22 1.86-1.93 2.66-3.58 5.91-5.56 10.57-4.29 2.42.66 3.57-1.19 4.24-2.93 1.01-2.59 1.57-5.34 2.37-8.01.8-2.66 1.65-5.3 2.51-8.05 3.64.02 6.32 1.62 8.46 3.89 6.69 7.11 10.1 15.68 10.79 25.37.04.55.11 1.19-.1 1.67-2.02 4.65-3.23 9.36-1.89 14.48.15.56-.88 1.44-1.38 2.16-1.34 1.92-2.93 3.71-3.98 5.78-2.58 5.02-1.3 9.61 2.98 13.2 3.33 2.8 6.25 6.1 9.61 8.86 1.41 1.16 3.47 1.97 5.3 2.12 5.22.42 7.24 2.25 7.38 7.48.03 1.23.06 2.46.03 3.69-.11 4.04-2.21 5.69-5.75 3.75-4.26-2.33-8.33-5.19-12.02-8.36-2.85-2.45-4.87-5.83-7.45-8.62-4.33-4.7-12.29-4.76-15.97-.26-2.85 3.49-2.65 7.44.64 10.75 7.42 7.46 14.92 14.84 22.26 22.38.87.89 1.61 2.88 1.2 3.84-1.07 2.54-.13 3.7 1.98 4.65 13.06 5.83 16.6 17.5 18.49 30.17.19 1.28.03 2.61.03 3.79-4.08 1.1-6.35.02-8.49-3.44-8.51-13.79-16.9-27.72-27.99-39.7-5.66-6.13-12.29-10.96-20.26-14.47zm9.64-46.46c5.54-3.77 10.98-7.47 16.41-11.17 3.77-2.57 3.9-3.07 2.02-7.53-3.58 4.95-7.25 4.64-11.16-.37-1.29-1.65-5.12-3.66-5.62-3.2-2.66 2.5-5.68 5.44-6.61 8.78-1.36 4.89.46 9.69 4.96 13.49z"/><path d="m199.33 374.66c-3.3.52-4.72-.54-5.77-3-4.19-9.75-8.28-19.56-13.02-29.04-3.54-7.08-3.63-14.69-4.78-22.13-1.19-7.77-3.54-14.73-9.96-19.82-1.36-1.08-2.3-1.22-3.81-.38-5.45 3.03-10.98 5.9-17.37 8.42.37-1.3.38-2.9 1.17-3.85 4.88-5.8 9.97-11.41 14.91-17.16 1.96-2.28 3.7-4.74 5.65-7.26-6.09-4.28-8.8-10.6-11.04-17.24-1.33-3.95-1.77-7.84.13-11.72 1.29-2.62.87-5.09-1.09-7.1-3.66-3.75-4.38-8.4-4.58-13.41 1.91-1.24 3.29-1.02 4.64 1.02 1.97 2.98 4.25 5.76 6.34 8.67 2.6 3.61 4.35 7.54 4.41 12.09.06 5.03 1.94 9.12 6.6 11.98 7.07-6.67 11.3-14.55 9.73-24.62-.72-4.62-2.32-9.09-3.12-13.7-.74-4.25-1.23-8.58-1.27-12.88-.01-1.66 1.24-3.63 2.49-4.89.74-.75 2.73-.81 3.89-.41.96.33 1.78 1.69 2.24 2.78 1.26 3.02 2.19 6.18 3.46 9.2.68 1.63 1.97 3 2.63 4.63.89 2.19 1.03 4.05-1.9 5.34-3.4 1.49-3.49 4.35-1.21 8.19 1.87 3.14 3.93 6.33 4.96 9.78 1.48 4.99.39 9.96-2.18 14.55-4.58 8.2-9.28 16.38-11.1 25.73-.4 2.05-.35 4.53.44 6.41 8.26 19.72 12.81 40.45 16.71 61.33 1.09 5.99 1.2 12.18 1.8 18.49z"/><path d="m226.98 125.24c-.17-5.44 3.7-5.38 6.05-6.92 2.17-1.43 3.2.67 3.98 1.82 3.5 5.18 7.01 10.37 10.02 15.84 3.61 6.55 6.73 13.37 10.05 20.07.77 1.56 1.59 3.44-.39 4.36-1.19.55-3.01.13-4.4-.31-.96-.31-1.75-1.32-2.47-2.15-2.48-2.88-4.74-5.97-7.38-8.7-4.08-4.23-6.49-9.09-7.78-14.85-.49-2.21-3.22-3.92-4.91-5.87-1.15-1.34-2.28-2.7-2.77-3.29z"/><path d="m242.58 193.49c-5.46 1.8-7.78-1.94-10.24-4.95-1.85-2.26-.85-4.77.26-7.31 6.09 2.03 8.39 6.69 9.98 12.26z"/><path d="m144.56 85.03c.19-3.33.35-6.07.51-8.76 4.6-.6 5.54.02 6.93 4.7-2.22 1.2-4.51 2.46-7.44 4.06z"/></g><path d="m385.2 377.6.6-.7c.6.4 1.3.9 1.9 1.5l-.6.7c-.8-.5-1.4-1-1.9-1.5zm.3 7.1c.6-1.4 1.1-2.9 1.5-4.5.3.1.6.3.9.4-.5 1.4-1 2.9-1.5 4.4zm.2-10.1.6-.6c.7.5 1.3 1.1 1.9 1.6l-.7.7c-.6-.6-1.2-1.2-1.8-1.7zm8.4-.8h.8v.9h1.8v.7h-1.8v1.8h-.8v-.3h-1.2v.9h3.3v2.6h-.8v-.4h-2.5c0 .3 0 .6-.1.8h3.4v.7h-3.5c0 .3-.1.6-.1.8h4v.7h-3.5c.7.9 1.9 1.3 3.6 1.5-.2.2-.4.5-.6.9-1.9-.3-3.2-1.1-3.8-2.3-.5 1.1-1.8 2-3.9 2.4-.2-.3-.4-.5-.6-.8 1.9-.4 3.1-.9 3.6-1.7h-3.2v-.7h3.5c.1-.2.1-.5.2-.8h-3.3v-.7h3.4c0-.2 0-.5 0-.8h-2.4v.3h-.8v-2.6h3.3v-.9h-1.2v.3h-.8v-1.8h-1.8v-.7h1.8v-.9h.8v.9h3.2zm-4.4 5.5h2.4c0-.3 0-.6 0-.9h-2.4zm1.2-3.1h3.2v-.8h-3.2zm4.4 2.2h-2.4v.9h2.5v-.9z" fill="#fcfbfa"/><path d="m389.2 385.8h.9v1.5h1.9v-1.5h.9v1.5h2.7v6h1.1v.9h-11.3v-.9h1.1v-6h2.7zm.2 8.7.5.8c-1.2.6-2.5 1.3-4 1.9-.2-.3-.3-.6-.6-.8 1.6-.6 3-1.3 4.1-1.9zm-2-4.3h1.9v-2.1h-1.9zm0 3.1h1.9v-2.2h-1.9zm2.7-3.1h1.9v-2.1h-1.9zm0 3.1h1.9v-2.2h-1.9zm2.4 1.3c1.4.6 2.7 1.2 4.1 1.8l-.5.9c-1.5-.7-2.8-1.4-4.1-1.9zm2.2-6.5h-1.9v2.1h1.9zm-1.9 5.2h1.9v-2.2h-1.9z" fill="#fcfbfa"/></svg>