<svg enable-background="new 0 0 400 400" viewBox="0 0 400 400" xmlns="http://www.w3.org/2000/svg"><path d="m81.26 109.98c3.24-2.9 6.8-4.19 10.73-3.67 7.09.94 13.92-.03 20.94-1.11 5.74-.88 11.79.41 17.71.56 4.79.12 9.58-.05 14.38-.04 3.57.01 7.15.09 10.72.18 3.02.08 6.05.43 9.05.28 5.05-.26 6.88-2.02 7.62-7 1.78-11.95 3.7-23.87 5.13-35.86.45-3.8-.59-7.75-.71-11.65-.05-1.8.2-3.72.82-5.39.85-2.29 2.08-4.46 3.32-6.58 1.75-3 2.59-6.01 1.91-9.59-.24-1.28.85-3.43 1.99-4.17.84-.54 2.77.51 4.16 1 .46.16.98.73 1.11 1.21 2.18 8 8.46 14.16 9.24 22.99.95 10.77 3.5 21.4 5 32.14.52 3.7.29 7.59-.17 11.33-.92 7.42.98 10.08 8.52 10.11 3.88.01 7.76-.88 11.65-1.23 3.4-.31 6.81-.65 10.21-.61 10.62.14 21.26.21 31.86.78 6.11.33 12.18 1.5 18.24 2.45 1.25.2 2.55.91 3.55 1.72 1.91 1.56 2.23 4.78.53 6.31-4.64 4.16-9.53 7.95-16.39 6.88-4.08-.64-7.94-.39-12.11.56-5.82 1.33-11.99 1.2-18.03 1.42-9.03.33-18.07.43-27.1.6-6.14.11-7.44 1.62-5.99 7.56 6.83 28.01 13.72 56 20.6 84 .19.75.35 1.58.78 2.19 7.49 10.49 8.31 22.93 10.28 35.03.13.77-.05 1.69.3 2.31 5.88 10.29 6.96 22.1 10.23 33.18 4.51 15.29 7.42 31.05 11.03 46.6.43 1.85.88 3.7 1.42 5.52 1.36 4.55 3.49 5.89 8.35 5.99 15.51.33 30.71 2.48 45.31 8.01 5.27 2 5.93 4.82 2.21 8.87-5.5 5.99-11.86 9.42-20.39 8.88-5.27-.33-10.7.33-15.93 1.24-7.96 1.39-15.57.16-23.22-1.73-1.17-.29-2.65-.74-3.59-.3-4.72 2.24-9.5.83-14.2.38-5.06-.48-9.78.01-14.81 1.16-5.76 1.31-11.99.66-18.01.59-1.11-.01-2.21-1.33-3.54-2.19-.89 3.4-3.45 3.36-6.28 3.32-19.02-.3-38.04-.49-57.06-.7-1.34-.01-2.75-.14-4.01.22-10.26 2.9-20.35.78-30.54-.61-4.53-.62-9.27.04-13.89.35-4.86.33-9.68 1.11-14.54 1.32-1.1.05-2.56-1.18-3.33-2.22-1.46-1.96-2.63-4.16-3.77-6.34-2.85-5.44-1.35-10.43 4.17-13.02 2.59-1.22 5.44-2.24 8.25-2.54 7.96-.84 15.85-2.74 24.01-1.36 4.83.82 6.28-.77 7.03-5.72 1.09-7.19 1.78-14.48 3.55-21.5 1.12-4.45 4.04-8.42 5.85-12.73.96-2.29 2.02-4.9 1.81-7.26-1.54-17.48 4.09-33.83 7.67-50.49 2.98-13.87 7.11-27.52 7.36-41.87.01-.54.21-1.09.37-1.61 2.55-8.42 5.06-16.86 7.69-25.26.7-2.22 1.88-4.29 2.59-6.52.85-2.69 1.39-5.49 2.14-8.21.41-1.49.94-2.95 1.5-4.38 4.16-10.63 8.08-21.33 9.37-32.77.61-5.41-.01-6.23-5.4-5.96-3.77.19-7.49 1.12-11.24 1.72-18.06 2.88-36.05 2.83-54.02-.86-6.96-1.43-11.54-5.01-12.83-12.25-.22-1.19-.74-2.34-1.16-3.66zm166.09 233.36c-1.97-3.82-3.56-6.63-4.9-9.55-8.24-17.88-15.25-36.24-20.97-55.07-4.56-15-10.76-29.49-13.64-45.01-.56-3.03-2.41-5.82-3.07-8.84-1.27-5.76-3.56-11.12-5.53-16.63-5.11-14.28-9.79-28.74-11.71-43.93-.3-2.36-1.74-4.58-2.65-6.87-1.58 2.86-1.62 5.88-3.12 7.66-2.33 2.74-2.57 5.8-3.22 8.93-.52 2.5-1.07 5.02-1.86 7.44-2.61 7.95-5.5 15.82-7.96 23.81-2.68 8.68-2.63 18.18-7.93 26.07-.35.53-.39 1.27-.53 1.93-2.75 12.88-5.37 25.79-8.29 38.64-2.29 10.12-5.12 20.12-7.38 30.25-1.55 6.94-2.29 14.07-3.84 21.01-1.09 4.89-3.04 9.57-4.4 14.41-.59 2.12-.94 4.38-.91 6.57.03 2.07 1.09 3.41 3.64 3.32 3-.11 6.05.05 9.03.46 11.96 1.65 23.93 1.59 35.9.23 3.54-.4 7.03-1.55 10.56-1.7 12.84-.54 25.7-.68 38.55-1.24 4.59-.21 9.15-1.2 14.23-1.89z" fill="#010100"/><g fill="#fafbfa"><path d="m6.4 11.7c-1-.8-1.9-1.6-2.9-2.3l.6-.7c.9.7 1.9 1.4 2.9 2.2zm-2.1 8.3c.7-2.1 1.4-4.2 2-6.4.2.1.6.3 1 .4-.7 2.3-1.3 4.4-1.9 6.4zm3-12.8c-1.1-.9-2.1-1.7-2.9-2.4l.6-.7c1 .8 2 1.5 3 2.4zm1.4-1.3v-.9h10.2v.9c-.9 4.2-2.3 7.3-4.1 9.4 1.3 1.4 3.2 2.7 5.7 4-.2.2-.4.5-.7.9-2.5-1.4-4.4-2.7-5.7-4.2-1.4 1.5-3.5 3-6.1 4.4 0 0 0 0-.1-.1-.3-.4-.5-.7-.7-.8 2.7-1.3 4.7-2.8 6.2-4.2-1.8-2.2-3-5.3-3.7-9.4zm9.2 0h-7.1c.6 3.8 1.7 6.7 3.4 8.7 1.7-2 2.9-4.8 3.7-8.7z"/><path d="m31.6 3.6h.9v2.3h4.1v9.1h1.7v.9h-16.6v-.9h1.7v-9.1h4.1v-2.3h.9v2.3h3.1v-2.3zm-4 13.3.6.8c-1.9.9-3.8 1.9-5.8 2.8-.2-.3-.3-.6-.5-.9 2-.9 3.9-1.8 5.7-2.7zm-3.2-10.1v3.7h3.1v-3.7zm0 4.5v3.7h3.1v-3.7zm4.1-4.5v3.7h3.1v-3.7zm0 4.5v3.7h3.1v-3.7zm9.1 9.1c-2.1-1.1-4.1-2-5.8-2.7l.5-.8c2.2.9 4.1 1.8 5.8 2.6zm-1.9-13.6h-3.1v3.7h3.1zm-3.2 4.5v3.7h3.1v-3.7z"/></g></svg>