<svg enable-background="new 0 0 400 400" viewBox="0 0 400 400" xmlns="http://www.w3.org/2000/svg"><path d="m62.31 368.24c.5-4.68.8-9.26 1.6-13.75.2-1.13 1.84-2.56 3.06-2.86 7.69-1.9 15.39-3.93 23.21-5.15 17.03-2.65 34.13-4.84 51.42-4.54 7.69.13 15.39.77 23.07.67 5.15-.07 9.95-1.84 13.12-6.29.9-1.26 1.55-3.02 1.56-4.55.11-18.25.07-36.5.07-54.74 0-.45.15-.99-.05-1.33-3.4-5.85-6.43-13.32-12.73-15.22-11.98-3.6-20.56-10.33-28.91-19.46-19.26-21.03-39.88-40.82-59.8-61.25-5.85-6-11.49-12.24-16.71-18.79-6.79-8.52-7.2-18.26-3.87-28.3 1.02-3.09 6.25-4.73 9.46-2.83 4.14 2.45 7.93 5.22 10.25 9.8 3.73 7.38 7.85 14.56 11.95 21.75.85 1.48 2.08 3.02 3.53 3.85 11.85 6.75 21.91 15.51 29.58 26.75 8.82 12.92 22.21 20.16 34.56 28.74 4.86 3.38 9.79 6.65 14.95 10.14 4.96-5.18 7.25-11.35 7.42-18.2.2-8.05-.59-16.14-.06-24.15 1.48-22.1 3.18-44.2 5.27-66.25 2.36-24.99 3.36-50.01 2.99-75.1-.03-2.03.83-4.35 1.98-6.06 3.31-4.91 6.89-9.65 10.6-14.28.76-.94 2.62-1.67 3.81-1.49 9.53 1.44 14.42 7.04 14.36 16.69-.05 8.61-.35 17.23-.87 25.82-.19 3.18-1.01 6.42-2.11 9.43-2.11 5.76-2.89 11.61-2.96 17.72-.38 32.01-.82 64.02-1.53 96.02-.15 6.55-1.41 13.1-2.42 19.61-.96 6.22.41 10.1 5.36 12.86.9.5 2.73.55 3.47-.03 15.29-12 31.28-23.07 45.07-37.03 13.04-13.19 27.07-25.44 41.11-37.59 8.39-7.26 17.97-12.94 28.79-16.11 1.39-.41 2.82-.69 4.24-.98.63-.13 1.28-.13 2.42-.24-2.16 7.9-4.2 15.41-6.3 22.9-.17.6-.73 1.11-1.19 1.59-28.26 29.97-56.44 60.01-84.85 89.84-5.85 6.14-12.42 11.61-18.86 17.16-4.63 3.99-7.72 8.9-10.13 14.4-5.6 12.8-7.44 26.4-8.59 40.15-.26 3.12-.44 6.27-.98 9.34-.36 2.08.2 2.96 2.17 3.65 10.69 3.72 21.72 4.71 32.75 2.92 9.78-1.58 19.4-4.23 29.05-6.6 9.19-2.25 18.37-3.93 27.82-1.69 5.62 1.33 10.31 4.11 13.96 8.73-9.5 9.76-19.94 17.35-34.17 18.25-12.61.79-25.25 1.63-37.75 3.36-9.7 1.34-19.23 3.94-28.78 6.22-10.11 2.42-20.07 5.46-30.24 7.58-6.42 1.34-13.07 1.6-19.64 2.12-14.27 1.15-28.54 2.49-42.84 3.08-6.41.26-12.9-1.03-19.34-1.73-12.01-1.3-24.01-2.66-36.02-4.02-.71-.06-1.44-.32-2.33-.53z" fill="#010102"/><g fill="#fcfbfa"><path d="m385.2 377.6.6-.7c.6.4 1.3.9 1.9 1.5l-.6.7c-.8-.5-1.4-1-1.9-1.5zm.3 7.1c.6-1.4 1.1-2.9 1.5-4.5.3.1.6.3.9.4-.5 1.4-1 2.9-1.5 4.4zm.2-10.1.6-.6c.7.5 1.3 1.1 1.9 1.6l-.7.7c-.6-.6-1.2-1.2-1.8-1.7zm8.4-.8h.8v.9h1.8v.7h-1.8v1.8h-.8v-.3h-1.2v.9h3.3v2.6h-.8v-.4h-2.5c0 .3 0 .6-.1.8h3.4v.7h-3.5c0 .3-.1.6-.1.8h4v.7h-3.5c.7.9 1.9 1.3 3.6 1.5-.2.2-.4.5-.6.9-1.9-.3-3.2-1.1-3.8-2.3-.5 1.1-1.8 2-3.9 2.4-.2-.3-.4-.5-.6-.8 1.9-.4 3.1-.9 3.6-1.7h-3.2v-.7h3.5c.1-.2.1-.5.2-.8h-3.3v-.7h3.4c0-.2 0-.5 0-.8h-2.4v.3h-.8v-2.6h3.3v-.9h-1.2v.3h-.8v-1.8h-1.8v-.7h1.8v-.9h.8v.9h3.2zm-4.4 5.5h2.4c0-.3 0-.6 0-.9h-2.4zm1.2-3.1h3.2v-.8h-3.2zm4.4 2.2h-2.4v.9h2.5v-.9z"/><path d="m389.2 385.8h.9v1.5h1.9v-1.5h.9v1.5h2.7v6h1.1v.9h-11.3v-.9h1.1v-6h2.7zm.2 8.7.5.8c-1.2.6-2.5 1.3-4 1.9-.2-.3-.3-.6-.6-.8 1.6-.6 3-1.3 4.1-1.9zm-2-4.3h1.9v-2.1h-1.9zm0 3.1h1.9v-2.2h-1.9zm2.7-3.1h1.9v-2.1h-1.9zm0 3.1h1.9v-2.2h-1.9zm2.4 1.3c1.4.6 2.7 1.2 4.1 1.8l-.5.9c-1.5-.7-2.8-1.4-4.1-1.9zm2.2-6.5h-1.9v2.1h1.9zm-1.9 5.2h1.9v-2.2h-1.9z"/></g></svg>