<svg enable-background="new 0 0 400 400" viewBox="0 0 400 400" xmlns="http://www.w3.org/2000/svg"><path d="m200.53 358.88c-.45-3.67-.95-6.98-1.2-10.31-.06-.84.48-1.89 1.06-2.58 3.41-4.11 3-7.33-1.43-9.96-2.4-1.42-3.18-3.45-3.03-6.19.35-6.69.6-13.39.67-20.08.01-1.36-.56-3.18-1.53-3.99-1.84-1.52-2.58-3.09-2.43-5.44.4-6.32-.88-12.76 1.51-18.94.23-.6-.14-1.46-.31-2.18-.59-2.53-1.55-5.02-1.76-7.58-.32-3.74-1.32-5.35-5.16-5.46-2.51-.07-5.08.51-7.54 1.13-5.19 1.32-10.35 2.79-15.46 4.36-1.05.32-2.13 1.18-2.78 2.09-2.29 3.2-5.26 4.64-9.19 4.5-1.37-.05-3.02.19-4.1.94-3.5 2.42-7.29 3.09-11.44 2.97-5.05-.15-6.3 1.66-7.66 6.45-1.73 6.07-1.42 12.09-1.2 18.2.03.88.05 1.89-.35 2.63-4.6 8.64-4.66 18.31-6.48 27.59-.87 4.46-2.47 8.78-3.75 13.16-1.46 5.01-2.84 10.04-4.43 15.01-.91 2.82-2.09 5.56-3.34 8.25-.3.65-1.35.95-2.44 1.66 0-4.52-.21-8.59.09-12.61.14-1.81 1.49-3.49 1.94-5.32.55-2.22.7-4.54 1.09-6.81.27-1.54.73-3.05.98-4.59.13-.82.03-1.69-.02-2.53-.19-3.04-.81-6.12-.5-9.11.44-4.32 1.75-8.55 2.29-12.86.5-3.93.63-7.93.6-11.9-.01-1.8.1-3.17 2.08-3.48 4.14-.65 5.55-3.7 6.6-7.26-.52-.23-1.01-.5-1.53-.67-6.39-2.09-6.42-2.08-6.38-8.63.02-3.62-.45-7.22 1.78-10.65.86-1.32.62-3.82.05-5.5-1.86-5.5-.49-10.59 1.46-15.64 1.36-3.54 2.91-7 3.82-9.19-.94-4.79-2.02-8.48-2.35-12.24-.95-10.92-1.61-21.86-2.33-32.79-.11-1.65.13-3.32.13-4.97-.01-4.99-.05-9.98-.09-14.97-.01-.77-.47-1.95-.12-2.25 2.76-2.43.61-4.94.28-7.39-.57-4.21-1.28-8.4-1.74-12.62-.14-1.23.35-2.53.19-3.73-.14-1.92-.46-3.85-.38-5.77.07-1.77.44-3.56.91-5.28 1.22-4.46.5-8.55-.73-13.03-1.54-5.63-1.54-11.69-2.04-17.58-1.3-15.39-2.4-30.79-1.41-46.24.08-1.21.16-2.42.25-3.67 3.17-.91 5.14-.11 7.38 2.31 4.33 4.68 5.55 10.18 6.26 16.14 1.07 8.98 2.44 17.93 3.73 27.24-2.32 0-4.39 0-6.46 0-.1.24-.2.47-.31.71 1.3.87 2.55 1.82 3.9 2.61 4.32 2.5 4.85 4.69 1.98 8.5 4.11 4.12 4.67 7.05.75 10.77 4.1 3.11 4.52 5.12 1.92 9.38.18.25.31.63.56.78 3.83 2.26 4.81 5.41 3.36 9.59-2.17 6.26.35 12.36.88 18.53.31 3.62 0 7.32.55 10.9.3 1.95 1.4 4.7 2.88 5.33 2.35 1.01 5.66 2.92 7.78-1.13.59-1.14 1.88-2.22 3.09-2.67 4.47-1.66 9.11-2.88 13.57-4.59 5.84-2.23 11.52-4.91 17.38-7.1 1.86-.7 4.16-.91 6.1-.53 3.08.59 5.51.32 7.89-1.98 2.64-2.54 5.67-4.67 8.48-6.93-3.18-9.3-2.07-18.55-1.09-27.77.69-6.44 1.48-12.88 2.39-19.29.42-2.95.74-6.09 1.98-8.73 3.45-7.27 3.23-15.25 5.07-22.82 2.62-10.74 5.51-21.42 7.9-32.21.95-4.32.97-8.87 1.21-13.33.35-6.4 1.38-9.86 4.41-13.76 6.07 3.37 9 9.62 8.3 16.9-.61 6.33-.85 12.69-1.35 19.02-.08 1.01-.42 2.26-1.1 2.93-3.82 3.79-5.34 8.46-5.45 13.66-.15 7.72-1.12 15.12-3.67 22.63-2.33 6.85-2.22 14.53-3.14 21.85-.55 4.33-.98 8.67-1.57 12.99-.16 1.17-.4 2.75-1.2 3.35-3.16 2.36-1.81 4.79-.87 7.62 1.07 3.22 1.88 6.64 2.01 10.01.11 2.63 1.13 3.92 3.36 3.92 5.33-.02 10.74.13 15.96-.74 5.92-.98 11.74-2.76 17.47-4.6 5.46-1.75 5.78-1.75 6.12 4.53 1.62-1.02 3.06-1.61 4.07-2.63 2.37-2.38 5.06-3.71 8.42-3.14.74.13 1.94 1.14 1.89 1.63-.24 2.38 1.29 3.35 2.89 4.45 7.09 4.86 9.6 12.05 10.07 20.21.04.7-.22 1.63-.69 2.1-4 4.03-3.73 9.03-3.61 14.14.06 2.79-.72 5.6-1 8.41-.22 2.15-.2 4.32-.36 6.48-.24 3.18-.23 6.43-.91 9.52-.79 3.58-2.32 6.99-3.32 10.54-1.35 4.81-2.63 9.65-3.69 14.53-.45 2.06-.97 3.31-3.38 3.66-5.42.78-10.78 1.93-16.18 2.89-.98.17-2.1.48-2.98.19-6.3-2.08-12.02.42-17.98 1.82-5.82 1.37-11.83 2.02-17.79 2.69-2.05.23-3.29.66-3.82 2.8-1.83 7.37-3.81 14.7-5.65 22.07-.2.81-.18 1.89.21 2.58 2.56 4.54 2.67 9.03.14 13.62-.25.45-.15 1.26.07 1.79 4.54 10.77 3.76 22 1.87 33-.64 3.75-1.34 7-.46 10.8 1.23 5.24-2.04 11.45-7.37 14.88zm-33.77-167.43c-5.02 2.27-10 4.5-14.95 6.79-1 .46-1.97 1.03-2.83 1.71-3.83 3.04-7.67 6.07-11.39 9.24-.9.77-1.95 2.07-1.93 3.11.17 8.43-2.48 16.3-4.4 24.33-.4 1.7-.79 3.67-.31 5.24.91 2.99.46 5.19-2.02 6.49.81 2.69 1.9 5.03 2.16 7.46.49 4.52.51 9.09.72 13.65 4.89-1.18 8.96-1.95 12.88-3.18 3.55-1.11 6.88-2.95 10.43-4.07 3.22-1.02 6.74-2.41 9.87-1.94 2.46.37 4.03.24 5.88-1.1 2.63-1.9 5.27-3.8 8.04-5.47 1.37-.83 3.06-1.65 4.59-1.64 4.94.06 7.59-2.51 8.84-6.92.61-2.14 1.26-4.34 1.36-6.54.22-4.82.88-9.36 5.16-12.29-5.3-10.43-4.45-20.78-1.21-31.23.69-2.23 1.35-4.52 1.56-6.82.3-3.18-1.55-5.95-3.99-6.04-4.29-.15-8.98-2.02-12.14 2.5-1.46-.83-2.6-1.48-3.9-2.22-1.13 1.94-2.17 3.72-3.4 5.83-3.51-3.82-7.06-2.44-10.74-.57.56 1.21 1.08 2.31 1.72 3.68zm87.86 51.13c1.68-1.2 2.9-2.37 4.34-3.05 2.23-1.05 2.9-2.61 2.95-5.01.11-4.91.53-9.82.94-14.72.97-11.58 2.16-23.14 2.96-34.73.36-5.18.86-10.22 3.31-14.9.46-.88.77-1.87.94-2.85.49-2.88-.63-3.94-3.45-3.33-3.05.67-6.12 1.31-9.14 2.08-12.22 3.09-24.54 5.89-36.61 9.48-8.09 2.4-8.8 4.67-8.16 13.12.31 4.04-.05 8.21-.65 12.24-.86 5.81-2.65 11.39-2.31 17.49.34 5.93-.63 11.96-1.26 17.92-.3 2.87 1.22 7.92 3.63 8.94 3.44 1.46 6.55 2.08 10.02-.83 1.29-1.08 3.28-1.8 4.98-1.85 7.36-.22 14.77.43 21.96-1.83 2.31-.72 4.42-.78 5.55 1.83z" fill="#010100"/><g fill="#fcfafa"><path d="m342.2 3.2-6.3 9.2h6.1v1.2h-8.2v-.5l6.2-9.1h-5.7v-1.2h7.8v.4z"/><path d="m344 13.7v-10.9h3.1c1.6 0 3 .5 4.1 1.4 1.1 1 1.6 2.2 1.6 3.9s-.5 3-1.6 4-2.5 1.5-4.2 1.5h-3zm1.4-9.6v8.4h1.6c1.4 0 2.5-.4 3.2-1.1.8-.8 1.2-1.8 1.2-3.2s-.4-2.4-1.2-3.1-1.8-1-3.1-1z"/><path d="m356.3 2.8v10.9h-1.4v-10.9z"/><path d="m366.6 13.2c-.8.4-1.8.6-3 .6-1.6 0-2.8-.5-3.7-1.5s-1.4-2.3-1.4-3.9c0-1.7.5-3.2 1.6-4.2s2.4-1.6 4-1.6c1 0 1.9.1 2.6.4v1.5c-.8-.4-1.6-.6-2.6-.6-1.2 0-2.2.4-3 1.2s-1.1 1.9-1.1 3.3c0 1.3.4 2.3 1.1 3.1s1.6 1.1 2.8 1.1c1.1 0 2-.2 2.8-.7v1.3z"/><path d="m368.2 13c0-.3.1-.5.3-.6.2-.2.4-.3.6-.3.3 0 .5.1.7.3s.3.4.3.6-.1.5-.3.6c-.2.2-.4.3-.7.3s-.5-.1-.6-.3c-.2-.2-.3-.4-.3-.6z"/><path d="m381.1 13.7h-1.7l-5.5-8.4c-.2-.2-.3-.5-.4-.7 0 .2.1.8.1 1.5v7.6h-1.4v-10.9h1.8l5.3 8.3c.3.4.4.6.4.8 0-.3-.1-.8-.1-1.6v-7.5h1.4v10.9z"/><path d="m389.7 13.7h-5.8v-10.9h5.6v1.2h-4.2v3.5h3.9v1.2h-3.9v3.7h4.4z"/><path d="m398.4 4.1h-3.1v9.6h-1.4v-9.6h-3.1v-1.3h7.7v1.3z"/></g></svg>