<svg enable-background="new 0 0 400 400" viewBox="0 0 400 400" xmlns="http://www.w3.org/2000/svg"><path d="m219.8 133.26c12.37-11.56 24.47-23.04 36.76-34.3 10.16-9.31 19.74-19.14 28.84-29.5 3.23-3.68 7.7-6.32 11.78-9.17 1.26-.88 3.11-.93 5.07-1.46.68 3.8 1.41 7.16 1.8 10.56.1.9-.65 2.07-1.32 2.85-12.75 14.86-25.33 29.9-38.48 44.4-4.28 4.72-10.19 7.96-15.21 12.04-1.96 1.59-3.85 3.43-5.24 5.51-7.32 10.98-14.77 21.82-23.3 31.94-5.54 6.58-9.72 14.22-12.09 22.63-2.34 8.34-1.26 16.43 2.43 24.15.47.98 2.08 1.87 3.23 1.97 4.45.38 8.95.69 13.4.52 8.91-.33 17.19 2.11 25.5 4.87 9.54 3.17 19.19 6.01 28.8 8.99 7.78 2.42 12.4 8.06 12.91 16.32.33 5.47-.08 10.98.35 16.44.9 11.48 2.27 22.92 3.21 34.4.89 10.83.7 21.57-1.25 32.4-.95 5.29.54 11.08 1.38 16.58.41 2.69-.27 3.99-2.55 5.3-8.72 5.02-17.31 10.26-25.98 15.39-.94.56-2.07 1.36-3.02 1.26-9.44-1.03-17.98 3.01-26.95 4.61-33.66 6-67.13 6.76-100.34-2.99-5.67-1.66-10.11-4.46-13.96-9.07-11.26-13.5-16.72-29.21-18.3-46.38-1.1-11.91-1.64-23.88-2.1-35.84-.11-2.92 1.29-5.86 1.7-8.83.59-4.28 1.13-8.59 1.28-12.9.28-7.92.27-15.85.38-23.77 0-.22.01-.46.09-.66 1.21-3.23 1.82-6.92 3.81-9.57 2.43-3.22 6.27-.72 9.16-.06 8.85 2.02 17.12-.62 25.42-2.51 12.28-2.79 24.65-4.27 37.21-4.32 1.32-.01 2.65-.12 4.23-.2-.31-2.91-.39-5.59-.9-8.19-1.55-7.94-1.55-15.75 1.3-23.42.79-2.13.27-3.27-1.85-4.45-9.96-5.51-20.21-10.09-28.75-18.47-9.82-9.63-21.75-17.17-33.07-25.19-14.58-10.34-25.44-23.74-33.84-39.32-.36-.67-.65-1.38-1.16-2.45 4.54-.19 8.47-.97 12.28 2.63 10.09 9.51 22.04 16.33 34.43 22.47 8.21 4.07 16.12 8.73 24.26 12.94 7.26 3.76 12.83 9.24 17.31 15.97 2.32 3.49 5.35 5.94 9.8 4.73 1.47-.4 3.42-1.73 3.78-3.02 1.94-6.85 3.99-13.75 4.96-20.78 1.2-8.74 1.6-17.61 1.9-26.44.15-4.54-.39-9.17-1.14-13.67-.96-5.8-.95-11.46.01-17.29 2.3-14.01 4.24-28.08 6.33-42.13.13-.88.38-1.74.62-2.8 3.34 1.02 4.88 3.4 5.3 6.55 2.72 20.23 4.22 40.48 1.02 60.83-1.45 9.22-1.79 18.51.97 27.62 1.45 4.67 3.69 8.86 7.79 12.28zm-10.89 190.2c-.18.03-.35.07-.53.1 0 5.58-.69 11.27.14 16.73 1.9 12.44 2.91 14.17 16.58 9.82 10.84-3.45 21.49-5.51 32.89-4.48 9.54.86 16.67-4.43 18.26-13.77 1.52-8.89 2.48-17.96 2.58-26.96.06-4.81-2.08-9.69-3.56-14.43-.3-.96-2.44-2.29-3.19-2.01-5.06 1.89-9.08-.76-13.41-2.43-2.65-1.02-5.52-2.39-8.21-2.21-11.26.73-22.49 1.97-33.72 3.04-1.88.18-10.4 7.6-10.77 9.41-.13.63.08 1.32.16 1.99.93 8.38 1.85 16.79 2.78 25.2zm-22.84 20.66c-1.51-18.77-3-37.31-4.57-56.83-8.1 0-15.91-.03-23.71.01-3.99.02-8.18-.59-11.92.41-5.79 1.54-11.34 4.09-16.86 6.49-1.25.54-2.56 2.14-2.87 3.48-3.93 17.18 1.52 31.7 13.07 44.34.83.91 2.18 1.53 3.41 1.86 5.83 1.56 11.68 3.02 17.56 4.4 1.11.26 2.6.41 3.49-.11 6.16-3.61 12.81-4.32 19.73-3.81.73.05 1.49-.12 2.67-.24zm-31-73.43c7.54-.96 16.05-1.98 24.53-3.21 1.26-.18 3.09-1.11 3.44-2.12 2.06-5.92 3.64-11.99 2.91-18.37-.51-4.39-2.28-6.2-6.72-7.09-4.93-.99-10.02-1.44-14.75-3.01-9.18-3.03-18.27-2.53-27.32-.13-3.34.89-7.84 2.19-9.22 4.72-3.36 6.13-5.19 13.13-3.29 20.35.93 3.53 2.8 6.15 7.02 6.49 7.44.61 14.86 1.49 23.4 2.37zm50.23-17.51c-.03 5.29 1.12 10.28 4.57 14.38.98 1.17 2.89 2.06 4.43 2.16 4.68.28 9.41.28 14.09.03 2.49-.13 5.25-.45 7.36-1.63 5.97-3.35 12.19-3.1 18.57-2.29 4.53.58 9.05 1.47 13.61 1.67 4.46.2 8.6-1.83 11.18-5.2 1.23-1.61.14-5.01.03-7.6-.04-.89-.47-1.78-.41-2.64.26-3.6-1.85-4.84-4.95-5.41-11.97-2.23-23.91-4.65-35.9-6.77-7.53-1.33-14.93-2.98-22.75-.17-8.96 3.23-9.71 3.48-9.83 13.14z" fill="#010100"/><g fill="#fcfafa"><path d="m342.2 3.2-6.3 9.2h6.1v1.2h-8.2v-.5l6.2-9.1h-5.7v-1.2h7.8v.4z"/><path d="m344 13.7v-10.9h3.1c1.6 0 3 .5 4.1 1.4 1.1 1 1.6 2.2 1.6 3.9s-.5 3-1.6 4-2.5 1.5-4.2 1.5h-3zm1.4-9.6v8.4h1.6c1.4 0 2.5-.4 3.2-1.1.8-.8 1.2-1.8 1.2-3.2s-.4-2.4-1.2-3.1-1.8-1-3.1-1z"/><path d="m356.3 2.8v10.9h-1.4v-10.9z"/><path d="m366.6 13.2c-.8.4-1.8.6-3 .6-1.6 0-2.8-.5-3.7-1.5s-1.4-2.3-1.4-3.9c0-1.7.5-3.2 1.6-4.2s2.4-1.6 4-1.6c1 0 1.9.1 2.6.4v1.5c-.8-.4-1.6-.6-2.6-.6-1.2 0-2.2.4-3 1.2s-1.1 1.9-1.1 3.3c0 1.3.4 2.3 1.1 3.1s1.6 1.1 2.8 1.1c1.1 0 2-.2 2.8-.7v1.3z"/><path d="m368.2 13c0-.3.1-.5.3-.6.2-.2.4-.3.6-.3.3 0 .5.1.7.3s.3.4.3.6-.1.5-.3.6c-.2.2-.4.3-.7.3s-.5-.1-.6-.3c-.2-.2-.3-.4-.3-.6z"/><path d="m381.1 13.7h-1.7l-5.5-8.4c-.2-.2-.3-.5-.4-.7 0 .2.1.8.1 1.5v7.6h-1.4v-10.9h1.8l5.3 8.3c.3.4.4.6.4.8 0-.3-.1-.8-.1-1.6v-7.5h1.4v10.9z"/><path d="m389.7 13.7h-5.8v-10.9h5.6v1.2h-4.2v3.5h3.9v1.2h-3.9v3.7h4.4z"/><path d="m398.4 4.1h-3.1v9.6h-1.4v-9.6h-3.1v-1.3h7.7v1.3z"/></g></svg>