<svg enable-background="new 0 0 400 400" viewBox="0 0 400 400" xmlns="http://www.w3.org/2000/svg"><path d="m116.94 81.08c3.42 7.72 6.86 15.35 10.13 23.05.48 1.13.33 2.64.15 3.92-.47 3.21-.93 6.44-1.75 9.56-.88 3.35.27 5.78 3.02 7.31 2.9 1.61 5.96 3.52 9.12 3.89 5.6.66 11.33.32 17 .25 3.5-.04 5.61-2.11 7.14-5.16 2.32-4.63 2.63-9.46 1.78-14.4-1.18-6.84-1.4-13.55 1.32-20.13.36-.87-.06-2.11-.22-3.15-.63-4.03-1.4-8.05-1.94-12.09-.28-2.08.06-4.26-.33-6.32-.76-4-3.25-5.81-7.28-5.94-13.75-.42-27.52-.64-41.24-1.46-4.95-.3-9.79-2.18-14.73-3.12-9.43-1.8-18.9-3.35-28.33-5.17-7.65-1.47-9.76-4.52-9.04-12.9 7.37-1.6 15-2.77 22.33-4.94 16.39-4.87 33.05-2.91 49.66-2.68 8.5.12 17 .38 25.5.64 1.3.04 2.87.08 3.83.78 5.16 3.73 11.11 3.64 17 3.89 17.43.74 34.9 1.02 52.29 2.39 7.23.57 14.32 3.34 21.41 5.32 29.06 8.13 58.09 16.35 87.14 24.53 12.41 3.49 19.26 15.76 15.37 27.98-3.37 10.58-4.18 20.95.79 31.34 1.38 2.88 2.44 6.13 2.72 9.29.73 8.21 1.69 16.51 1.19 24.69-1.04 17.11.33 33.94 3.22 50.77 2.78 16.2 5.6 32.41 7.5 48.73.69 5.92-1.05 12.16-2 18.21-2.02 12.81-4.23 25.59-6.45 38.37-.28 1.59-.86 3.27-1.77 4.59-5.73 8.28-11.62 16.45-17.37 24.72-1.09 1.56-2.17 2.21-4.14 1.9-2.98-.48-6.01-.86-9.01-.81-2.84.05-5.81.25-8.47 1.16-11.31 3.88-22.5 8.11-33.8 12.02-1.58.55-3.87.56-5.29-.2-3.79-2.03-7.66-2.66-11.91-2.59-9.85.18-19.71.33-29.55-.01-14.4-.5-28.64 1.05-42.78 3.23-7.53 1.16-14.36-1.56-21.56-2.01-5.23-.33-10.48-.41-15.71-.73-9.91-.61-19.83-1.19-29.72-2-7.13-.59-14.24-1.47-21.35-2.33-2.37-.29-4.2.18-6.05 1.87-4.2 3.84-8.65 7.4-13.39 11.4-1.7-6.01-3.43-11.61-4.81-17.29-.58-2.39-1.7-3.43-4.07-3.41-9.71.1-19.42.01-29.12.32-8.43.27-16.1-1.36-21.91-7.89-1.36-1.53-2.32-3.83-2.54-5.87-.57-5.22-.91-10.5-.8-15.75.13-6.43-1.28-12.33-4.05-18.1-1.05-2.2-1.53-4.93-1.43-7.39 1.54-38.58 2.84-77.17 5.01-115.72 1.21-21.43 3.93-42.77 5.99-64.16.72-7.46 1.49-14.92 2.23-22.37.06-.56-.02-1.16.17-1.67 2.35-6.35 4.71-12.7 7.14-19.02.35-.92.99-1.77 1.65-2.51 3.46-3.89 6.12-3.55 8.53.97 3.59 6.74 3.83 13.81 2.61 21.2-1.09 6.59-2.11 13.25-2.34 19.91-.25 7.12 2.36 9.95 9.4 11.71 9.6 2.39 19.39 1.79 29.06.93 10.91-.97 8.28.65 10.36-9.92 1.1-5.58 1.48-11.3 2.13-16.97.9-7.79 4.7-13.02 10.56-14.41.51-.14 1.06-.16 1.8-.25zm213.47 205.17h.82c0-.67.02-1.34 0-2.01-.52-13.28-.51-26.62-1.82-39.82-.61-6.13-3.64-12.07-5.92-17.96-.55-1.42-2.41-3.25-3.73-3.29-7.26-.23-14.59-.49-21.78.27-8.65.9-17.18 2.93-25.8 4.2-2.36.35-3.51 1.48-4.44 3.41-3.05 6.31-3.37 12.94-2.17 19.67 1.38 7.74 2.38 15.78-2.07 22.51-4.42 6.68-5.11 13.79-5.7 21.22-.18 2.23-.4 4.48-.94 6.64-1.85 7.52-.89 14.84.95 22.2.69 2.75 1.82 3.79 4.76 3.68 13.52-.5 27.07-.38 40.57-1.27 7.97-.52 15.85-2.45 23.74-3.87 2.45-.44 3.63-1.91 3.58-4.7-.14-10.3-.05-20.59-.05-30.88zm-161.41-7.67h.03c-.67-16.43-1.37-32.86-1.96-49.3-.07-1.92-.63-2.67-2.56-3.06-7.66-1.58-15.44-2.86-22.87-5.21-7.83-2.48-14.8-1.83-21.52 2.74-.27.19-.59.34-.91.43-2.06.59-2.52 2-2.62 4.03-.42 8.27-1.13 16.52-1.55 24.78-1.2 23.68-2.34 47.35-3.41 71.04-.21 4.59 1.4 6.4 5.98 7.07 1.62.24 3.32-.22 4.99-.19 1.76.02 3.88-.34 5.21.49 3.52 2.18 7.22 1.76 10.99 1.81 3.46.04 6.94.2 10.35.71 6.72 1.02 13.09.41 19.21-2.78 2.05-1.07 2.82-2.25 2.7-4.61-.77-15.98-1.39-31.97-2.06-47.95zm-118.23-72.2c-3.08 6.97-6.11 13.41-8.77 20-1.19 2.94-2.1 6.15-2.32 9.29-.92 12.83-1.49 25.68-2.26 38.51-.88 14.55 2.18 28.21 9.31 40.91.64 1.14 1.81 2.35 3 2.76 7.91 2.75 15.83 5.54 23.89 7.77 3.57.99 7.49.87 11.26.92 2.3.03 3.75-1.18 4.12-3.85 1.53-11.14 1.92-22.24.38-33.42-1.66-11.99-2.35-24.03-1.09-36.13.95-9.12 1.59-18.27 2.75-27.36.47-3.64-.66-5.76-3.89-6.97-2.92-1.09-5.81-2.47-8.84-3.01-9.55-1.71-19.27-2.79-27.54-9.42zm190.98 81.14c-.82-14.46-1.22-26.32-2.26-38.12-.83-9.37-2.86-18.55-7.48-26.96-.95-1.73-1.94-2.32-3.99-1.76-8.62 2.36-17.28 4.59-25.96 6.75-1.87.46-2.7 1.18-3.01 3.24-4.27 28.76-8.66 57.5-13.01 86.25-.34 2.23 6.76 13.63 8.87 14.3.32.1.66.13.99.16 8.01.61 16.01 1.56 24.03 1.7 5.58.09 10.75-2.13 15.04-5.82 1.24-1.07 2.51-2.77 2.7-4.31 1.6-12.62 2.94-25.28 4.08-35.43zm55.18-144.72c9.59.76 17.56-.87 22.05-4.1.89-.64 1.82-1.73 2.02-2.75 2.5-13.07 4.84-26.11 3.19-39.6-.61-4.98-2.72-8.04-6.75-10.3-1.36-.76-2.76-1.49-4.21-2.07-12.08-4.83-24.9-6.15-37.62-8.03-5.25-.77-9.75.3-13.65 3.73-1.02.9-1.98 2.37-2.12 3.67-.79 7.23-1.32 14.48-1.94 21.73-.72 8.55-.86 16.99 3.65 24.81 1.4 2.42 3.18 4.03 5.78 5.23 10.08 4.69 20.49 7.76 29.6 7.68zm-100.27-7.68c10.66 1.99 21.02 2.33 31.35.41 2.9-.54 5.74-1.83 8.35-3.25 1.03-.56 1.96-2.42 1.92-3.66-.14-4.91-.87-9.81-1.04-14.72-.27-7.71-3.09-15.59.69-23.1 3.48-6.92 2.95-13.47-1.14-19.8-.79-1.22-2.23-2.53-3.57-2.81-7.77-1.62-15.58-3-23.41-4.3-1.44-.24-3.11-.07-4.48.43-3.88 1.42-7.62 3.21-11.5 4.64-1.9.7-2.49 1.58-2.27 3.68.71 6.78 1.13 13.6 1.68 20.4 1.12 13.91 2.26 27.84 3.42 42.08zm92.98 64.84c.05-.31.09-.61.14-.92 1.34 0 2.68.04 4.02-.01 10.71-.4 21.13-2.05 30.55-7.56.89-.52 1.98-1.79 1.92-2.64-.34-5.44-.65-10.92-1.62-16.27-.86-4.71-3.99-7.29-9.04-7.99-13.92-1.95-27.78-4.26-41.68-6.38-.92-.14-2.04-.03-2.84.39-2.38 1.23-4.72 2.57-6.91 4.1-.77.54-1.43 1.74-1.49 2.68-.42 6.24-1 12.5-.83 18.74.08 3.22 1.41 6.46 2.54 9.56.38 1.04 1.8 2.16 2.92 2.38 7.41 1.43 14.87 2.63 22.32 3.92zm-237.29 2.26c.52-.18.95-.25 1.3-.46 7.63-4.48 15.97-5.79 24.69-6.47 5.09-.4 10.06-2.58 15.04-4.1.84-.26 1.83-1.12 2.1-1.93 3-8.8 5.64-17.74 4.79-27.16-.34-3.72-1.44-7.58-5.99-8.75-10.49-2.7-20.96-5.43-31.45-8.12-3.88-.99-9.24 3.23-9.35 7.3-.37 13.07-.77 26.14-1.11 39.21-.1 3.41-.02 6.84-.02 10.48zm117.11-6.67c-.87-10.13-1.52-20.05-2.64-29.91-.67-5.93-2.39-11.62-7.24-15.76-1.34-1.14-2.45-1.4-4.13-.39-4.7 2.81-9.8 4.63-15.34 3.53-5.09-1.02-9.45.3-13.7 2.91-1.91 1.17-2.69 2.69-2.91 4.87-.58 5.78-1.38 11.54-2.04 17.31-.7 6.18-.54 12.22 2.29 18.01.89 1.84 2.03 2.39 3.82 2.47 6.36.29 12.72.66 19.09.9 7.89.28 15.51-1.05 22.8-3.94zm20.44-33.44c4.79 5.98 4.99 12.66 5.06 19.61.04 4.08 1.54 8.26 2.97 12.18.7 1.92 2.41 4.14 4.22 4.88 8.57 3.5 17.54 4.56 26.56 2.05 2.64-.73 6.08-2.33 7.09-4.5 3.48-7.48 6.03-15.38 5.92-23.85-.06-5.16-2.22-8.87-7.19-10.5-9.33-3.06-18.69-5.99-28.08-8.86-.92-.28-2.26-.12-3.08.38-4.38 2.66-8.65 5.5-13.47 8.61z" fill="#010100"/><g fill="#fcfafa"><path d="m342.2 3.2-6.3 9.2h6.1v1.2h-8.2v-.5l6.2-9.1h-5.7v-1.2h7.8v.4z"/><path d="m344 13.7v-10.9h3.1c1.6 0 3 .5 4.1 1.4 1.1 1 1.6 2.2 1.6 3.9s-.5 3-1.6 4-2.5 1.5-4.2 1.5h-3zm1.4-9.6v8.4h1.6c1.4 0 2.5-.4 3.2-1.1.8-.8 1.2-1.8 1.2-3.2s-.4-2.4-1.2-3.1-1.8-1-3.1-1z"/><path d="m356.3 2.8v10.9h-1.4v-10.9z"/><path d="m366.6 13.2c-.8.4-1.8.6-3 .6-1.6 0-2.8-.5-3.7-1.5s-1.4-2.3-1.4-3.9c0-1.7.5-3.2 1.6-4.2s2.4-1.6 4-1.6c1 0 1.9.1 2.6.4v1.5c-.8-.4-1.6-.6-2.6-.6-1.2 0-2.2.4-3 1.2s-1.1 1.9-1.1 3.3c0 1.3.4 2.3 1.1 3.1s1.6 1.1 2.8 1.1c1.1 0 2-.2 2.8-.7v1.3z"/><path d="m368.2 13c0-.3.1-.5.3-.6.2-.2.4-.3.6-.3.3 0 .5.1.7.3s.3.4.3.6-.1.5-.3.6c-.2.2-.4.3-.7.3s-.5-.1-.6-.3c-.2-.2-.3-.4-.3-.6z"/><path d="m381.1 13.7h-1.7l-5.5-8.4c-.2-.2-.3-.5-.4-.7 0 .2.1.8.1 1.5v7.6h-1.4v-10.9h1.8l5.3 8.3c.3.4.4.6.4.8 0-.3-.1-.8-.1-1.6v-7.5h1.4v10.9z"/><path d="m389.7 13.7h-5.8v-10.9h5.6v1.2h-4.2v3.5h3.9v1.2h-3.9v3.7h4.4z"/><path d="m398.4 4.1h-3.1v9.6h-1.4v-9.6h-3.1v-1.3h7.7v1.3z"/></g></svg>