<svg enable-background="new 0 0 400 400" viewBox="0 0 400 400" xmlns="http://www.w3.org/2000/svg"><path d="m374.8 390.4.4-.4c.7.5 1.3 1 1.8 1.4l-.5.5c-.5-.6-1.1-1.1-1.7-1.5zm1 7.3-.6-.3c.5-1.4 1.1-2.8 1.5-4.3.2.1.4.2.6.3-.5 1.3-1 2.8-1.5 4.3zm-.4-10.3.4-.4c.4.3 1 .8 1.7 1.4l-.5.5c-.4-.5-1-1-1.6-1.5zm2.5.3h1.7v-1h.6v1h3.5v-1h.6v1h1.8v.5h-1.8v1.4h-2v1h3.2v2h-3.2v.9h3.3v.5h-3.4c0 .3-.1.6-.1.9h4v.5h-3.7c.7.9 1.9 1.5 3.8 1.7-.1.2-.2.4-.3.6-2.1-.4-3.5-1.1-4-2.1-.4 1-1.8 1.7-4 2.2-.1-.2-.2-.4-.3-.6 2.1-.4 3.4-1 3.8-1.8h-3.4v-.5h3.6c.1-.3.1-.6.2-.9h-3.3v-.5h3.4c0-.3 0-.6 0-.9h-3.2v-2h3.3v-1h-2.1v-1.4h-1.7v-.5zm1.1 3.5v1h2.7c0-.3 0-.4 0-.4 0-.1 0-.2 0-.2 0-.1 0-.2 0-.3h-2.7zm1.2-3v.9h3.5v-.9zm4.7 3h-2.6v.6.4h2.6z" fill="#fbfcfa"/><path d="m393.6 386.7h.6v1.5h2.7v6.1h1.1v.6h-11v-.6h1.1v-6.1h2.7v-1.5h.6v1.5h2.1v-1.5zm-2.7 8.8.4.6c-1.2.6-2.5 1.3-3.8 1.9-.1-.2-.2-.4-.3-.6 1.2-.6 2.5-1.2 3.7-1.9zm-2.2-6.7v2.4h2.1v-2.4zm0 3v2.5h2.1v-2.5zm2.8-3v2.4h2.1v-2.4zm0 3v2.5h2.1v-2.5zm6 6.1c-1.4-.7-2.7-1.3-3.9-1.8l.3-.6c1.5.6 2.7 1.2 3.9 1.7zm-1.2-9.1h-2.1v2.4h2.1zm-2.1 3v2.5h2.1v-2.5z" fill="#fbfcfa"/><path d="m190.96 375.41c-.65-3.35-1.75-6.34-1.69-9.3.11-5.79-.86-11.22-2.48-16.78-1.21-4.13-.63-8.78-.87-13.19-.08-1.43.21-3.11-.43-4.26-3.5-6.31-3.39-13.1-3.04-19.94.31-6-.78-11.56-4.66-16.84-2.45 4.02-5.97 4.02-9.42 2.01-4.02-2.34-4.95-7.01-3.15-12.87 6.87-2.21 11.29.46 13.48 7.55.41-.14.81-.29 1.22-.43.55-2.71 1.94-5.55 1.52-8.1-2.53-15.15-.59-30.43-1.74-45.58-.83-10.92-2.51-21.78-3.94-32.64-.1-.76-1.22-1.78-2.04-1.98-4.34-1.05-8.73-1.95-13.13-2.74-1.26-.22-2.68-.11-3.92.23-4.42 1.2-8.89 2.31-13.16 3.94-3.96 1.51-7.14.4-9.81-2.24-3.98-3.95-8.62-6.43-13.8-8.56-5.09-2.09-9.88-5.21-14.33-8.52-6.11-4.55-7.41-11.19-6.14-18.38.19-1.06 1.37-2.24 2.4-2.8 5.64-3.09 11.79-3.69 17.93-2.44 17.14 3.5 34.38.41 51.56 1.05 1.03.04 2.87-1.58 3.04-2.64.55-3.39 1.05-6.95.59-10.3-1.81-12.96-1.58-25.92-.37-38.87.5-5.38-.26-10.46-1.75-15.52-2.05-6.99-2.36-13.75 1.19-20.52 1.11-2.12 1.12-4.99 1.07-7.51-.15-7.3 1.33-14.09 4.75-20.62 3.21-6.13 5.92-12.53 8.63-18.91.95-2.23 2.17-2.43 4.15-1.7 4.26 1.57 5.31 3.39 4.61 7.63-.12.73.69 1.66 1.18 2.43 1.65 2.6 3.3 5.2 5.04 7.74 1.54 2.26 2.87 4.8 4.87 6.57 3.71 3.28 5.41 7.31 5.77 12.04.18 2.34.31 4.71.15 7.05-.37 5.34.67 10.24 2.58 15.3 1.35 3.59.91 7.91.97 11.91.2 12.54.34 25.07.32 37.61-.01 3.56-.74 7.12-1 10.69-.21 2.9-.48 5.83-.25 8.71.49 6.19 2.87 8.47 9.07 8.19 21.1-.93 41.92 2.87 62.91 3.64 1.22.04 2.6.09 3.6.67 1.34.79 3.17 1.97 3.36 3.2.24 1.56-.46 3.89-1.62 4.93-8.43 7.58-18.84 11.09-29.71 13.05-13.42 2.41-26.93 4.25-40.41 6.33-.77.12-1.55.21-2.32.35-7.63 1.34-7.89 1.82-5.63 9.11.55 1.79.83 3.71.95 5.58 1.24 19.46 2 38.9-.9 58.31-.75 5.03-1.32 10.31-.62 15.28 1.65 11.79-1.37 22.87-3.84 34.09-2.67 12.11-5.39 24.22-7.95 36.35-.78 3.71-.91 7.56-1.74 11.26-1.24 5.4-4.64 9.04-11.05 11.38z" fill="#010101"/></svg>