<svg enable-background="new 0 0 400 400" viewBox="0 0 400 400" xmlns="http://www.w3.org/2000/svg"><path d="m174.54 260.58c4.53-4.32 8.62-8.27 12.77-12.16 4.96-4.65 10.58-8.02 17.18-10.09 4.07-1.27 7.63-4.07 11.59-5.82 3.02-1.34 6.29-2.1 9.24-3.05 1.77 2.3 3.36 4.03 4.54 6.01.75 1.26 1.27 2.91 1.19 4.35-.24 4.92-.22 9.62 1.35 14.51 1.34 4.18.36 9.05 1.39 13.39 3.76 15.8 1.91 31.37-1.45 46.88-.63 2.92-2.38 5.6-3.94 9.14-1.17-4.09-2.57-7.08-2.79-10.14-.82-11.14-1.28-22.31-1.79-33.47-.41-8.83-.8-17.67-.97-26.5-.04-2.11.58-4.35 1.37-6.34 1.16-2.92.09-5.03-2.9-4.1-4.82 1.49-9.39 3.83-14 5.95-1.08.49-1.85 1.61-2.84 2.34-4.92 3.63-9.78 7.65-17.19 2.44.51 2.56.49 4.16 1.15 5.38 1.39 2.58.48 3.71-1.91 4.88-7.08 3.45-11.46 9.41-14.24 16.55-.57 1.45.01 3.38.18 5.07.09.87.72 1.75.61 2.56-.68 5.02 1.21 9.46 2.99 13.91 2.35 5.88 2.29 12.6 6.28 17.91.3.39.33 1.1.27 1.63-.66 6.08 1.99 11.08 5.23 15.85 4.79 7.03 7.8 14.73 9.42 23.09.45 2.32 2.08 4.4 3.01 6.65.99 2.39 1.79 4.85 2.67 7.28-.38.21-.77.42-1.15.63-.57-.62-1.19-1.19-1.69-1.86-1.72-2.31-3.11-4.94-5.15-6.9-3.34-3.21-4.87-7.04-5.62-11.47-.21-1.26-1.61-2.29-2.4-3.47-1.74-2.61-3.87-4.69-6.86-5.94-.61-.25-1.03-2.09-.81-3.03.73-3.18-.81-4.94-3.14-6.67-1.17-.87-2.25-2.29-2.66-3.67-1.9-6.47-3.43-13.06-5.33-19.54-3.63-12.41-8.31-24.59-10.81-37.22-1.65-8.34-1.5-17.26.68-25.93 1.7-6.77 2.41-13.79 3.6-20.69.15-.86.28-1.94.84-2.47 4-3.76 4.82-8.96 6.52-13.78.93-2.62 2.06-5.18 3.11-7.76.17-.41.29-.97.61-1.18 6.45-4.08 6.18-12.3 10.83-17.48 1.03-1.15 1.8-2.6 2.99-3.54 2.53-1.98 4.83-3.84 4.21-7.65-.13-.81 1.12-2.07 2-2.79 4.33-3.56 8.56-7.09 10.69-12.61.63-1.63 2.49-2.8 3.82-4.14 6.82-6.86 13.85-13.82 15.71-23.68 1.36-7.19 1.32-14.65 1.67-22 .1-2.09-2.94-3.05-4.8-1.61-2.56 2-4.91 4.27-7.54 6.15-2.32 1.66-5.01 2.8-7.35 4.43-1.11.78-2.37 2.09-2.54 3.3-.32 2.25-1.24 3.68-3.19 4.67-8.14 4.13-12.32 12.13-18.18 18.51-2.19 2.39-5.04 4.2-7.63 6.21-2.05 1.59-4.01 1.32-5.38-.84-2.11-3.34-4.19-6.73-5.94-10.27-.75-1.52-.36-3.19 1.71-4.08 2.48-1.07 2.83-3.46 3.13-5.89 1.72-13.98 3.47-27.96 5.38-41.92.2-1.44 1.66-2.67 2.33-4.09.74-1.59 1.85-3.34 1.73-4.94-.26-3.36-.42-3.46 3.11-3.1 1.13 8.08 1.56 16.14-.44 24.17-.59 2.38-1.14 4.83-1.2 7.26-.16 6.81-.06 13.63-.06 20.69 3.24.23 6.14.62 8.17-2.49.59-.9 1.54-1.65 2.47-2.24 2.92-1.86 5.45-3.79 7.87-6.59 6.87-7.96 14.84-14.97 22.43-22.3 2.99-2.89 4.68-6 3.68-10.44-1.08-4.79-1.44-9.74-2.4-14.56-.42-2.11-1.5-4.11-2.4-6.1-1.8-3.96-3.74-7.85-5.51-11.83-1.98-4.45-4.11-8.68-8.7-11.11-.98-.52-1.56-1.79-2.31-2.73-1.78-2.23-3.35-4.68-5.38-6.65-1.75-1.69-2.44-3.34-1.64-6.06 7.08 2.93 14.75 4.01 18.9 11.92 4.08 7.79 9.16 15.05 13.78 22.55 5.57 9.04 8.41 19.05 9.3 29.46.91 10.56.97 21.2 1.1 31.8.02 1.41-1.74 2.85-2.55 4.1 1.58 7.66.06 14.7-4.95 20.68-3.41 4.07-7.9 7.14-9.57 12.66-.79 2.61-3.8 2.54-5.16.88-1.29 2.02-2.32 4.63-4.17 6.36-5.5 5.14-7.89 12.12-11.53 18.36-2.47 4.23-4.67 8.66-9.31 11.12-.7.37-1.18 1.59-1.34 2.49-.8 4.62-3.55 8.35-5.33 12.49-3.71 8.66-6.39 17.77-9.35 26.75-1.45 4.41-2.58 8.93-3.85 13.4-.2.7-.74 1.62-.48 2.07 1.51 2.7 3.22 5.27 5.02 8.1zm25.9-12.65c-3.66-2.26-5.39-1.74-5.53 1.58 1.76-.5 3.41-.98 5.53-1.58z" fill="#010100"/><path d="m180.88 72.85c-1.87-.54-3.2-.93-4.83-1.41.57-2.35 1.08-4.43 1.63-6.73 3.61 1.85 3.55 4.7 3.2 8.14z" fill="#010100"/><g fill="#fcfafa"><path d="m342.2 3.2-6.3 9.2h6.1v1.2h-8.2v-.5l6.2-9.1h-5.7v-1.2h7.8v.4z"/><path d="m344 13.7v-10.9h3.1c1.6 0 3 .5 4.1 1.4 1.1 1 1.6 2.2 1.6 3.9s-.5 3-1.6 4-2.5 1.5-4.2 1.5h-3zm1.4-9.6v8.4h1.6c1.4 0 2.5-.4 3.2-1.1.8-.8 1.2-1.8 1.2-3.2s-.4-2.4-1.2-3.1-1.8-1-3.1-1z"/><path d="m356.3 2.8v10.9h-1.4v-10.9z"/><path d="m366.6 13.2c-.8.4-1.8.6-3 .6-1.6 0-2.8-.5-3.7-1.5s-1.4-2.3-1.4-3.9c0-1.7.5-3.2 1.6-4.2s2.4-1.6 4-1.6c1 0 1.9.1 2.6.4v1.5c-.8-.4-1.6-.6-2.6-.6-1.2 0-2.2.4-3 1.2s-1.1 1.9-1.1 3.3c0 1.3.4 2.3 1.1 3.1s1.6 1.1 2.8 1.1c1.1 0 2-.2 2.8-.7v1.3z"/><path d="m368.2 13c0-.3.1-.5.3-.6.2-.2.4-.3.6-.3.3 0 .5.1.7.3s.3.4.3.6-.1.5-.3.6c-.2.2-.4.3-.7.3s-.5-.1-.6-.3c-.2-.2-.3-.4-.3-.6z"/><path d="m381.1 13.7h-1.7l-5.5-8.4c-.2-.2-.3-.5-.4-.7 0 .2.1.8.1 1.5v7.6h-1.4v-10.9h1.8l5.3 8.3c.3.4.4.6.4.8 0-.3-.1-.8-.1-1.6v-7.5h1.4v10.9z"/><path d="m389.7 13.7h-5.8v-10.9h5.6v1.2h-4.2v3.5h3.9v1.2h-3.9v3.7h4.4z"/><path d="m398.4 4.1h-3.1v9.6h-1.4v-9.6h-3.1v-1.3h7.7v1.3z"/></g></svg>