<svg enable-background="new 0 0 400 400" viewBox="0 0 400 400" xmlns="http://www.w3.org/2000/svg"><path d="m149.44 355c-4.92-15.65-5.94-31.6-3.62-47.73 1.96-13.61 4.22-27.18 6.3-40.77.2-1.32.39-2.72.16-4-1-5.63.49-10.74 2.54-15.92 4.85-12.26 9.2-24.72 14.14-36.94 5.01-12.38 5.93-25.06 4.6-38.2-.76-7.54-.51-15.18-.68-22.77-.2-8.94-1.03-17.93-.4-26.82 1.06-14.87-1.21-29.47-2.28-44.18-.04-.52-.25-1.03-.53-2.12-3.86 1.25-7.72 2.05-11.16 3.71-8.16 3.92-16.54 7.62-24.04 12.6-6.44 4.27-11.88 10.1-17.59 15.42-4.91 4.57-9.35 9.65-14.44 14-3.06 2.62-6.94 4.27-10.54 6.41-1.7-3.25-1.08-5.21.89-7.43 6.85-7.69 13.41-15.62 20.14-23.41 7.27-8.42 15.98-14.91 26.06-19.64 10.12-4.75 20.12-9.74 30.24-14.49 2.1-.98 3.02-2.01 2.83-4.5-.41-5.35-.92-10.78-.43-16.09.52-5.58 2.16-11.06 3.34-16.71 4.36 1.12 6.21 3.99 6.68 7.38.66 4.73.32 9.61.96 14.35.74 5.49 1.85 10.95 3.28 16.3.45 1.7 2.21 3.34 3.78 4.4 9.55 6.45 19.14 12.84 28.85 19.04 18.04 11.51 30.13 28.07 39.76 46.69 2.46 4.75 4.24 9.84 6.49 14.71 1.34 2.91 3.12 5.62 4.44 8.53.86 1.88 1.58 3.93 1.79 5.96.59 5.78 2.24 11.09 5.32 16.07 1.09 1.76 1.21 4.21 1.4 6.37.07.82-.83 2.41-1.41 2.47-1.14.12-2.63-.28-3.5-1.02-1.15-.98-1.78-2.55-2.78-3.75-.61-.73-1.47-1.73-2.25-1.77-3.59-.18-6.07-2.16-8.17-4.71-3.1-3.76-7-6.05-11.68-7.34-3.65-1-7.17-2.47-11.4-3.97-.3 3-1.16 5.82-.73 8.42 2.11 12.77 3.69 25.74 7.26 38.11 1.76 6.09 5.72 12.7 13.67 14.25 1.2.23 2.53 1.43 3.19 2.53 4.83 8.06 9.96 15.98 14 24.43 1.62 3.39 1.16 8.03.84 12.03-.33 4.08-1.56 8.11-2.6 12.11-2 7.72.2 13.88 6.65 18.5 3.64 2.6 7.47 4.93 11.05 7.6 4.26 3.18 8.35 6.59 12.97 10.25-4 1.77-6.64 2.23-9.6-.55-5.69-5.36-12.8-8.46-20.25-11.42-4.4 5.85-6.35 12.54-7.96 19.38-1.36 5.76-2.4 11.62-4.19 17.24-1.03 3.22-3.28 6.06-4.98 9.06-.54-.22-1.08-.44-1.63-.66.61-2.48.84-5.13 1.89-7.41 3.11-6.78 3.22-6.81-2.41-12.46 6.06-.06 5.88-4.73 6.34-8.43.92-7.31 1.47-14.69 1.84-22.05.07-1.42-1.02-3.37-2.19-4.32-14.02-11.33-22.41-25.92-23.85-43.8-.56-6.95 1.66-14.12 2.49-21.2.18-1.59.1-3.33-.37-4.84-1.15-3.73-2.62-7.37-3.9-11.06-1.37-3.96-2.2-7.86-2.47-12.23-.83-13.11-5.05-25.34-13.25-35.91-.33-.42-.86-.68-1.69-1.33-2.29 5.55-4.25 11.02-6.79 16.21-2.13 4.35-4.83 8.45-7.53 12.49-.79 1.18-2.49 1.76-4.12 2.84-2.12-7.59-1.13-14.59 1.4-21.3 3.03-8.02 6.44-15.91 10.02-23.71 2.35-5.1 2.49-10.1.92-15.32-.84-2.78-1.79-5.54-2.34-8.38-.66-3.38-.24-6.67 2.26-9.77 1.45 3.98 2.56 7.85 4.23 11.47 2.43 5.26 4.94 10.53 7.97 15.46 4.7 7.66 12.07 12.2 20.28 15.27 4.56 1.71 8.31 4.25 11.32 8.01 2.24 2.79 5.04 4.67 9.14 5.2-.95-4.68.89-9.57-2.7-13.6-.47-.52-.71-1.49-.64-2.2.86-8.2-3.79-14.32-8.71-19.58-7.46-7.99-14.22-16.32-19.59-25.83-.78-1.38-2.07-2.65-3.42-3.52-12.44-7.95-24.99-15.73-37.39-23.74-2.49-1.61-4.76-2.19-8.2-.64 0 7.81.55 16-.12 24.1-1.38 16.68.47 33.01 3.33 49.38.76 4.34-.81 9.06-1.04 13.62-.18 3.51.04 7.03.1 10.55.04 1.9.33 3.82.15 5.69-.99 10.25 3.02 19.06 7.39 27.95 2.21 4.51 3.61 9.59 4.44 14.56.93 5.56 2.39 10.42 6.41 14.69 7.29 7.74 12.41 16.91 15.82 27.01.32.94.88 2.08.61 2.89-1.27 3.96.88 7.13 1.96 10.6.63 2.03.92 4.37.56 6.44-.43 2.5-.05 4.33 1.29 6.54 1.74 2.87 2.89 6.18 3.87 9.43 2.31 7.66 3.2 15.4 2.13 23.49-.57 4.34.36 8.91.82 13.36.57 5.48.64 10.86-.69 16.3-1.4 5.73-2.32 11.57-3.45 17.36-.33.13-.66.27-.99.4-.61-1.04-1.47-2.01-1.79-3.13-2.55-8.89-3.14-18.01-3.25-27.23-.33-28.78-5.56-56.69-15.76-83.6-4.63-12.22-9.71-24.27-14.75-36.33-1.9-4.54-4.46-8.71-8.96-11.55-5.18 6.55-7.85 13.99-10.24 21.56-3.83 12.12-5.16 24.98-10.76 36.59-.31.65-.37 1.59-.17 2.29 2.53 8.53.55 16.9-1.08 25.2-.6 3.04-2.3 5.95-3.88 8.7-.99 1.72-1.64 3.07-.18 4.75 2.7 3.08 2.66 6.4 1.55 10.25-.94 3.25-1.43 6.86-1.12 10.22.8 8.08-2.85 14.92-5.52 22.19zm100.3-117.94c0 4.31-.01 7.98 0 11.65.02 11.52 3.25 21.8 11.85 29.88.88.83 2.69 1.66 3.54 1.28 1.04-.46 1.99-2.13 2.15-3.38.38-3.09.28-6.23.36-9.36.35-13.31-5.59-23.02-17.9-30.07z" fill="#010102"/><g fill="#fcfbfa"><path d="m385.2 377.6.6-.7c.6.4 1.3.9 1.9 1.5l-.6.7c-.8-.5-1.4-1-1.9-1.5zm.3 7.1c.6-1.4 1.1-2.9 1.5-4.5.3.1.6.3.9.4-.5 1.4-1 2.9-1.5 4.4zm.2-10.1.6-.6c.7.5 1.3 1.1 1.9 1.6l-.7.7c-.6-.6-1.2-1.2-1.8-1.7zm8.4-.8h.8v.9h1.8v.7h-1.8v1.8h-.8v-.3h-1.2v.9h3.3v2.6h-.8v-.4h-2.5c0 .3 0 .6-.1.8h3.4v.7h-3.5c0 .3-.1.6-.1.8h4v.7h-3.5c.7.9 1.9 1.3 3.6 1.5-.2.2-.4.5-.6.9-1.9-.3-3.2-1.1-3.8-2.3-.5 1.1-1.8 2-3.9 2.4-.2-.3-.4-.5-.6-.8 1.9-.4 3.1-.9 3.6-1.7h-3.2v-.7h3.5c.1-.2.1-.5.2-.8h-3.3v-.7h3.4c0-.2 0-.5 0-.8h-2.4v.3h-.8v-2.6h3.3v-.9h-1.2v.3h-.8v-1.8h-1.8v-.7h1.8v-.9h.8v.9h3.2zm-4.4 5.5h2.4c0-.3 0-.6 0-.9h-2.4zm1.2-3.1h3.2v-.8h-3.2zm4.4 2.2h-2.4v.9h2.5v-.9z"/><path d="m389.2 385.8h.9v1.5h1.9v-1.5h.9v1.5h2.7v6h1.1v.9h-11.3v-.9h1.1v-6h2.7zm.2 8.7.5.8c-1.2.6-2.5 1.3-4 1.9-.2-.3-.3-.6-.6-.8 1.6-.6 3-1.3 4.1-1.9zm-2-4.3h1.9v-2.1h-1.9zm0 3.1h1.9v-2.2h-1.9zm2.7-3.1h1.9v-2.1h-1.9zm0 3.1h1.9v-2.2h-1.9zm2.4 1.3c1.4.6 2.7 1.2 4.1 1.8l-.5.9c-1.5-.7-2.8-1.4-4.1-1.9zm2.2-6.5h-1.9v2.1h1.9zm-1.9 5.2h1.9v-2.2h-1.9z"/></g></svg>