<svg enable-background="new 0 0 400 400" viewBox="0 0 400 400" xmlns="http://www.w3.org/2000/svg"><path d="m114.2 249.17c3.81.46 6.57 2.02 8.62 5.48 4.15 7.03 8.94 13.67 13.12 20.68 3.19 5.35 5.86 11.01 8.75 16.54 1.41 2.71 2.85 5.37 6.61 5.85.46-1.11.97-2.19 1.36-3.31 3.01-8.54 6.05-17.06 8.95-25.64.78-2.3 1.45-4.74 1.55-7.14.18-4.6 1.61-8.67 3.83-12.64 5.15-9.19 9.15-18.83 11.83-29.08 2.99-11.45 6.56-22.76 9.97-34.1.54-1.78.25-2.91-.84-4.51-1.72-2.53-2.79-5.52-4.01-8.38-1.97-4.6-3.54-9.4-5.82-13.84-3.99-7.75-8.96-15.03-12.52-22.95-6.93-15.43-15.89-29.91-21.29-46.06-1-3-3.2-5.59-4.84-8.37-.37.14-.74.29-1.11.43-3.01 9.44-5.91 18.91-9.08 28.29-.87 2.58-2.36 5-3.84 7.32-2.64 4.14-5.5 8.14-8.24 12.23-2.12 3.16-4.87 5.16-9.9 4.96.51-2.47.44-5.02 1.53-6.89 3.15-5.44 4.91-11.15 5.53-17.41.26-2.63 1.62-5.23 2.81-7.68 1.17-2.4 2.6-4.72 4.22-6.85 2.02-2.65 2.53-5.18 1.06-8.29-.55-1.17-.4-2.86-.1-4.2 2.88-13.09 8.51-25.13 14.07-37.23 1.64-3.56 2.3-7.63 3.01-11.54.55-3.04.89-5.98 4.34-7.62 3.33 5.33 5.02 10.89 4.13 17.16-.67 4.75-1.28 9.52-1.74 14.3-.39 4.06-.05 8.04 2.52 11.49.26.35.6.8.58 1.19-.3 6.14 4.41 9.44 7.62 13.61 1.34 1.74 2.69 3.62 3.45 5.65 4.46 11.99 10.07 23.39 17.23 34.01.87 1.3 2.22 2.64 2.31 4.03.36 5.11 3.78 8.07 6.86 11.53 1.67 1.87 2.3 4.77 3.11 7.3.98 3.09 2.68 5.32 5.98 6.34 3.33-3.47 4.76-7.74 5.35-12.36.33-2.55.49-5.12.82-7.68.65-5.01 1.49-9.92 5.25-13.8.84-.86 1.56-2.41 1.43-3.54-.53-4.52 1.16-8.24 3.35-11.98.75-1.29.68-3.08.9-4.65.14-.97-.01-2 .22-2.94.65-2.72 1.17-5.5 2.19-8.08 2.34-5.92 1.54-11.83.42-17.77-.14-.76-.32-1.6-.76-2.19-5.46-7.34-11.14-14.53-16.43-21.99-4.05-5.71-7.7-11.71-11.39-17.66-.44-.71-.42-2.53.03-2.81.92-.58 2.49-.95 3.42-.54 5.25 2.29 9.21 6.19 12.72 10.65 5.61 7.12 11.33 14.15 17.02 21.21.7.87 1.37 2.19 2.27 2.39 4.07.95 4.48 4.32 5.63 7.43.95 2.57 2.17 5.17 3.84 7.32 8.4 10.77 17.08 21.31 25.42 32.11 1.89 2.45 3.11 5.56 4.07 8.55.68 2.11 1.32 3.91 3.35 5.04 5.32 2.97 9.08 7.36 11.99 12.7 2.89 5.29 6.27 10.31 9.91 16.23-2.21-.96-3.84-1.39-5.14-2.28-14.7-10.1-27.78-21.81-36.9-37.44-2.76-4.74-6.03-9.13-11.85-12.14-2 5.18-4.27 10-5.75 15.05-5.13 17.47-10 35.01-14.91 52.54-.84 3.01-1.48 6.08-2.06 9.16-.94 4.91-.65 9.52 1.59 14.31 8.04 17.21 15.64 34.63 23.49 51.93.91 2.01 2.44 3.73 3.57 5.65.66 1.12 1.52 2.37 1.55 3.58.1 3.48 1.84 6.03 3.81 8.68 3.8 5.1 7.54 10.26 10.93 15.64 1.31 2.07 1.42 4.86 2.38 7.2.47 1.15 1.62 2.02 2.46 3.02.79-.77 1.9-1.39 2.31-2.32 2.96-6.75 6.23-13.42 8.51-20.41 1.84-5.63 5.51-8.25 11.7-9.76 0 2.74.63 5.52-.12 7.86-2.31 7.3-1.81 14.82-2.51 22.24-.28 2.95-1.14 5.84-1.82 8.74-1.11 4.75-3.02 9.43-3.3 14.22-.75 12.66-4.96 24.53-9.96 35.66-4.09 9.11-8.33 18.22-12.35 27.41-1 2.28-2.63 4.29-4.44 7.16-2.39-7.93-2.11-14.94-.94-22 1.44-8.71 2.84-17.42 4.31-26.12.2-1.17.67-2.32 1.15-3.42 2.92-6.62 3.73-12.96.05-19.86-7.09-13.29-15.89-25.39-24.61-37.58-.89-1.24-1.8-2.65-2.09-4.11-.87-4.3-2.75-8.04-5.78-11.14-2.92-2.98-3.66-6.81-4.63-10.59-.28-1.08-.3-2.5-1.01-3.14-4.15-3.82-4.54-9.33-6.76-14.01-1.11-2.35-3.08-4.53-5.17-6.11-1.87-1.41-3.66-.76-4.27 2.08-.8 3.71-2.13 7.29-3.03 10.98-2.77 11.33-6.37 22.36-12.23 32.51-3.87 6.71-5.22 14.2-7.31 21.49-1.41 4.89-3.37 9.64-5.28 14.37-1 2.48-2.43 4.78-3.67 7.16-6.87 13.12-6.89 13.12-1.64 26.74.43 1.1 1.29 2.07 2.05 3.01 8.91 11.03 13.9 23.6 14.96 37.73.03.42-.07.86-.2 2.19-1.59-.79-3.21-1.09-3.95-2.05-4.34-5.65-9.49-10.78-11.92-17.73-.21-.61-.6-1.24-1.09-1.65-6.98-5.91-9.47-14.16-11.81-22.5-.2-.72-.42-1.61-.95-2.05-4.43-3.72-5.95-9.08-8.1-14.07-2.73-6.36-5.41-12.65-9.83-18.2-2.02-2.53-2.34-6.41-3.43-9.67-.35-1.06-.4-2.4-1.1-3.12-4.23-4.41-5.25-10.24-7.39-15.61-1.55-3.89-3.78-7.55-6.01-11.12-1.59-2.67-3.2-5.12-2.15-8.41z" fill="#010100"/><g fill="#fcfafa"><path d="m342.2 3.2-6.3 9.2h6.1v1.2h-8.2v-.5l6.2-9.1h-5.7v-1.2h7.8v.4z"/><path d="m344 13.7v-10.9h3.1c1.6 0 3 .5 4.1 1.4 1.1 1 1.6 2.2 1.6 3.9s-.5 3-1.6 4-2.5 1.5-4.2 1.5h-3zm1.4-9.6v8.4h1.6c1.4 0 2.5-.4 3.2-1.1.8-.8 1.2-1.8 1.2-3.2s-.4-2.4-1.2-3.1-1.8-1-3.1-1z"/><path d="m356.3 2.8v10.9h-1.4v-10.9z"/><path d="m366.6 13.2c-.8.4-1.8.6-3 .6-1.6 0-2.8-.5-3.7-1.5s-1.4-2.3-1.4-3.9c0-1.7.5-3.2 1.6-4.2s2.4-1.6 4-1.6c1 0 1.9.1 2.6.4v1.5c-.8-.4-1.6-.6-2.6-.6-1.2 0-2.2.4-3 1.2s-1.1 1.9-1.1 3.3c0 1.3.4 2.3 1.1 3.1s1.6 1.1 2.8 1.1c1.1 0 2-.2 2.8-.7v1.3z"/><path d="m368.2 13c0-.3.1-.5.3-.6.2-.2.4-.3.6-.3.3 0 .5.1.7.3s.3.4.3.6-.1.5-.3.6c-.2.2-.4.3-.7.3s-.5-.1-.6-.3c-.2-.2-.3-.4-.3-.6z"/><path d="m381.1 13.7h-1.7l-5.5-8.4c-.2-.2-.3-.5-.4-.7 0 .2.1.8.1 1.5v7.6h-1.4v-10.9h1.8l5.3 8.3c.3.4.4.6.4.8 0-.3-.1-.8-.1-1.6v-7.5h1.4v10.9z"/><path d="m389.7 13.7h-5.8v-10.9h5.6v1.2h-4.2v3.5h3.9v1.2h-3.9v3.7h4.4z"/><path d="m398.4 4.1h-3.1v9.6h-1.4v-9.6h-3.1v-1.3h7.7v1.3z"/></g></svg>