<svg enable-background="new 0 0 400 400" viewBox="0 0 400 400" xmlns="http://www.w3.org/2000/svg"><path d="m118.15 350.61c6.36.57 12.47 1.14 18.59 1.67 1.11.1 2.24.15 3.35.07 8.77-.61 9.51-1.49 11.62-10.02 1.38-5.6 3.15-11.14 5.28-16.5 4.67-11.76 9.26-23.54 10.83-36.18.49-3.94.05-8.01-.2-12.01-.06-.96-.89-1.99-1.59-2.79-3.27-3.68-6.48-7.44-9.99-10.88-5.45-5.33-9.46-11.28-11.61-18.79-.88-3.08-4.57-5.3-6.71-8.11-1.13-1.48-2.23-3.36-2.4-5.15-1-10.7-1.77-21.41-2.49-32.13-.11-1.6.03-3.51.81-4.81 1.65-2.74 1.75-5.14-.19-7.64-4.05-5.23-4.14-10.97-2.36-17.05 1.55-5.26 1.05-10.39-.37-15.75-2.25-8.52-3.94-17.23-5.3-25.94-1.17-7.52-4.5-13.43-10.49-18.03-2.02-1.56-4.02-3.31-5.51-5.35-1.23-1.67-1.7-3.9-2.89-6.82-1.73-.43-4.7-.96-7.51-1.95-1.55-.55-3.5-1.55-4.12-2.88-2.2-4.73-4-9.65-5.76-14.56-1.23-3.44.59-5.95 3.39-8.03-1.57-1.02-2.96-1.75-4.15-2.72-3.56-2.92-4.55-6.75-3.69-11.16 1.29-6.58 2.55-13.16 3.89-19.73.17-.83.54-1.78 1.14-2.32 3.83-3.42 7.76-6.74 11.58-10.04 5.48 2.62 7.05 5.92 5.44 11.49-1.08 3.76-2.11 7.56-3.59 11.16-2.67 6.5-2.27 12.93.05 19.3 2.73 7.5 6.69 14.16 13.96 18.22.48.27 1 .46 1.72.79 3.25-5.82 3.92-12.12 4.38-18.45.31-4.12.24-8.3.84-12.37.83-5.63 4.39-8.33 9.69-8.13 1.81.07 2.77.55 3.12 2.58.82 4.85 2.01 9.63 2.93 14.46.17.9.07 2.04-.34 2.85-4.47 8.88-3.68 18.51-4.01 27.96-.03.85.95 1.96 1.74 2.59 5.65 4.5 12.5 5.76 19.36 6.83.77.12 1.96-.82 2.58-1.58 3.13-3.8 3.6-8.5 4.48-13.13.75-3.96 2.29-7.77 3.47-11.65.48.04.96.09 1.43.13 1.05 4.27 2.37 8.5 3.12 12.82 3.28 19.11 2.12 37.88-4.77 56.14-.39 1.02-.95 2.06-1.68 2.85-10.22 11.04-14.18 24.58-15.59 39.13-.25 2.56-.09 5.19-.59 7.69-.71 3.58 1.06 5.29 3.91 6.74 8.19 4.18 16.93 4.91 25.83 3.98 12.68-1.33 25.33-2.93 37.97-4.6 1.22-.16 2.79-1.42 3.32-2.57 2.74-5.96 2.6-12.16.7-18.34-3.91-12.71-7.88-25.4-11.8-38.11-.36-1.17-.77-2.36-.86-3.57-1.21-15.83-2.32-31.66-3.55-47.48-.77-9.92.17-19.65 2.82-29.24.28-1.01.29-2.5-.26-3.27-2.73-3.77-1.37-8.51 3.03-9.92 1.26-.4 2.52-.79 3.86-1.21 3.29 4.44 4.62 9.41 4.67 14.59.06 6.37-.28 12.75-.76 19.1-.87 11.75 1.01 23.2 3.46 34.59.32 1.47.91 3.3 2.01 4.09 1.17.84 3.47 1.39 4.6.79 6.03-3.18 11.87-6.72 17.7-10.25.86-.52 1.57-1.56 1.98-2.52 2.49-5.86 4.93-11.75 7.23-17.69.44-1.13.38-2.58.13-3.8-.43-2.07-.94-4.2-1.87-6.07-2.63-5.26-1.27-9.32 3.68-12.77 1.15 4.64 2.77 9.17 3.29 13.82.61 5.41 3.66 7.72 8.82 8.8 6.17-8.39 14.67-15.39 17.81-26.18.43-1.47 1.54-3.18 2.83-3.88 4.41-2.38 6.71-6.34 9.06-10.46 1.69-2.96 3.53-6 5.95-8.33 2.54-2.44 3.86-1.77 4.85 1.64 1.56 5.4.74 10.65-1.3 15.75-2.87 7.16-5.82 14.28-8.83 21.38-.36.84-1.17 1.53-1.87 2.18-2.34 2.16-4.82 4.17-7.08 6.41-4.99 4.95-9.82 10.07-14.82 15.01-3.82 3.77-8.91 6.75-11.4 11.21-2.43 4.35-2.18 10.17-3.25 15.31-1.87 8.96-3.47 18-5.9 26.81-1.58 5.73-4.75 11.05-10 14.28-3.02 1.86-6.69 2.65-10.43 4.06.26 1.95.73 4.24.86 6.55.81 14.07 1.6 28.14 2.25 42.21.08 1.68-.75 3.41-1.19 5.11-.69 2.69-1.93 5.36-1.99 8.06-.22 8.83-5.48 15.71-8.55 23.43-.31.78-1.46 1.31-2.33 1.76-2.48 1.29-4.9 2.85-7.54 3.63-4.12 1.22-4.69 4.19-4.69 7.7-.02 10.65 3.11 20.69 7.62 30.01 7.01 14.48 11.12 29.92 16.41 44.97.85 2.41 2.06 4.06 4.43 4.35 4.4.54 8.85.97 13.28 1 4.61.02 7.33 1.09 8.77 4.17.94 2.02.83 3.31-1.48 4.54-9.77 5.18-20.39 6.5-31.15 7.05-11.93.61-23.85.81-35.7 2.92-4.46.79-9.32-.5-13.98-.96-16.92-1.7-33.84-3.42-50.74-5.25-1.26-.14-2.64-.99-3.58-1.91-1.83-1.8-3.37-3.88-5.04-5.84-2.36-2.74-2.97-5.87-2.08-9.86zm81.04 7.09c3.17-.7 9.35-1.98 15.48-3.47 2.54-.62 3.3-2.15 2.47-5.01-4.76-16.51-9.15-33.14-13.99-49.63-.97-3.31-3.03-6.45-5.15-9.25-2.41-3.19-7.09-4.04-10.18-1.5-4.43 3.64-8.28 7.99-12.31 12.11-.39.4-.33 1.26-.46 1.9-1.02 4.91-1.77 9.91-3.12 14.73-2.74 9.78-5.9 19.43-8.68 29.2-1.25 4.4-.95 4.76 3.38 6.36 9.48 3.52 19.43 3.88 32.56 4.56zm-50.29-131.46c.85 2.23 1.43 4.29 2.38 6.16 6.08 11.96 14.46 22.29 23.08 32.45.67.79 2.1 1.19 3.22 1.3 7.59.73 14.4-1.36 20.32-6.16 5.73-4.65 11.2-9.65 17.11-14.06 5.23-3.91 7.12-9.27 7.89-15.26.6-4.64-.93-7.21-5.23-9.01-5.5-2.3-11.37-3.09-17.09-1.65-9.07 2.27-18.08 2.49-27.28 1.34-8.44-1.05-16.45.6-24.4 4.89zm-8.48-107.63c-3.81 11.47-2.73 21.47 4.68 30.84 2.39-2.68 4.43-5.35 6.86-7.6 4.6-4.26 5.48-9.72 5.63-15.53.08-3.14-1.42-5.25-4.41-5.84-4.13-.81-8.33-1.24-12.76-1.87zm105.61 9.33c-6.07 4.89-11.99 9.64-17.89 14.42-.5.41-1.25.96-1.26 1.45-.07 5.52-.03 11.04 3.74 16.05 5.71-7.09 11.3-13.77 16.58-20.69 3.1-4.05 2.59-7.39-1.17-11.23z" fill="#010100"/><path d="m259.72 61.91c-1.35.27-2.49.5-3.87.78-.29-1.84-.55-3.43-.79-5 3.63-1.19 3.69-1.14 4.66 4.22z" fill="#010100"/><g fill="#fafbfa"><path d="m6.4 11.7c-1-.8-1.9-1.6-2.9-2.3l.6-.7c.9.7 1.9 1.4 2.9 2.2zm-2.1 8.3c.7-2.1 1.4-4.2 2-6.4.2.1.6.3 1 .4-.7 2.3-1.3 4.4-1.9 6.4zm3-12.8c-1.1-.9-2.1-1.7-2.9-2.4l.6-.7c1 .8 2 1.5 3 2.4zm1.4-1.3v-.9h10.2v.9c-.9 4.2-2.3 7.3-4.1 9.4 1.3 1.4 3.2 2.7 5.7 4-.2.2-.4.5-.7.9-2.5-1.4-4.4-2.7-5.7-4.2-1.4 1.5-3.5 3-6.1 4.4 0 0 0 0-.1-.1-.3-.4-.5-.7-.7-.8 2.7-1.3 4.7-2.8 6.2-4.2-1.8-2.2-3-5.3-3.7-9.4zm9.2 0h-7.1c.6 3.8 1.7 6.7 3.4 8.7 1.7-2 2.9-4.8 3.7-8.7z"/><path d="m31.6 3.6h.9v2.3h4.1v9.1h1.7v.9h-16.6v-.9h1.7v-9.1h4.1v-2.3h.9v2.3h3.1v-2.3zm-4 13.3.6.8c-1.9.9-3.8 1.9-5.8 2.8-.2-.3-.3-.6-.5-.9 2-.9 3.9-1.8 5.7-2.7zm-3.2-10.1v3.7h3.1v-3.7zm0 4.5v3.7h3.1v-3.7zm4.1-4.5v3.7h3.1v-3.7zm0 4.5v3.7h3.1v-3.7zm9.1 9.1c-2.1-1.1-4.1-2-5.8-2.7l.5-.8c2.2.9 4.1 1.8 5.8 2.6zm-1.9-13.6h-3.1v3.7h3.1zm-3.2 4.5v3.7h3.1v-3.7z"/></g></svg>