<svg enable-background="new 0 0 400 400" viewBox="0 0 400 400" xmlns="http://www.w3.org/2000/svg"><path d="m140.16 123.9c1.98 3.35 3.61 6.11 5.71 9.66 1.54-8.08 2.94-15.34 4.31-22.6 1.37-7.25 2.68-14.51 4.13-21.75.25-1.25.95-2.49 1.7-3.56 3.48-4.94 6.9-9.93 10.62-14.69 10.18-13.01 18.77-26.95 25.47-42.06.45-1 1.04-1.94 1.69-3.15.87.48 1.63.86 2.36 1.31 9.68 6.04 19.38 12.04 28.99 18.19 1.3.83 2.56 2.24 3.1 3.67 3.25 8.64 7.68 16.08 14.78 22.54 13.72 12.48 22.26 28.75 29.18 45.75 8.97 22.02 16.19 44.65 18.55 68.39 1.49 14.94 3.63 29.71 6.48 44.42.27 1.39-.08 3.22-.83 4.42-2.61 4.17-3.05 8.66-3.23 13.44-.27 7.34-.87 14.7-1.97 21.96-.46 3.06-2.18 6.1-3.93 8.77-14.67 22.35-29.59 44.55-44.16 66.96-2.7 4.16-4.37 9.03-6.23 13.69-6.19 15.54-19.34 21.09-34.51 13.67-9.42-4.6-18.31-10.29-27.37-15.6-3.08-1.81-5.86-4.15-8.98-5.88-7.21-4.02-12.71-9.6-17.04-16.63-1.7-2.76-4.35-5.13-7.01-7.08-16.07-11.79-26.09-28.02-33.98-45.82-5.73-12.94-10.03-26.32-11.27-40.53-.63-7.29-.21-14.38 2.15-21.5 8.57-25.88 16.74-51.9 25.15-77.83.56-1.72 1.64-3.41 2.89-4.74 4.23-4.46 8.62-8.75 13.25-13.42zm112.68 87.02c6.16.23 10.56-2.5 14.55-6.11.48-.43.81-1.39.72-2.03-1.04-7.52-1.59-15.18-3.38-22.52-6.19-25.3-17.73-48.34-30.46-70.88-4.87-8.63-9.36-17.53-13.29-26.62-2.98-6.88-7.44-11.79-13.98-15.15-2.41-1.24-3.74-1.1-5.43 1.31-11.4 16.32-22.95 32.53-34.54 48.71-3.06 4.27-5.41 8.42-5.91 14.07-1.02 11.58-6.75 21.61-12.52 31.49-3.32 5.69-6.88 11.28-9.65 17.23-3.86 8.29-5.38 17.03-2.29 26.05 2.43 7.11 2.78 7.31 10.31 7.59 19.66.71 39.32 1.45 58.98 2.24 7.06.28 14.04.43 20.69-2.65 6.56-3.04 13.6-3.37 20.68-3.16 2 .07 4 .31 5.52.43zm-20.11 26.21c0-.12 0-.23 0-.35-1.79 0-3.59-.13-5.36.02-14.81 1.27-29.62 2.52-44.41 3.92-12.76 1.21-25.65 1.92-37.2 8.58-1.73 1-2.92 1.66-2.41 3.94 1.26 5.66 1.86 11.5 3.59 17 3.86 12.29 9.56 23.64 19.43 32.35 6.46 5.7 13.4 10.87 19.59 16.83 5.31 5.11 11.51 7.5 18.52 8.33 6.84.81 12.63-.18 17.28-6.57 8.1-11.1 17.21-21.46 25.59-32.36 2.39-3.1 4.3-6.84 5.39-10.59 1.3-4.52 2.57-8.76 6.47-11.75.49-.37.89-1.08.99-1.69.79-5.17 2-10.34 2.1-15.53.15-7.6-4.17-11.79-11.81-12.07-5.91-.23-11.84-.06-17.76-.06z" fill="#010102"/><g fill="#fcfbfa"><path d="m385.2 377.6.6-.7c.6.4 1.3.9 1.9 1.5l-.6.7c-.8-.5-1.4-1-1.9-1.5zm.3 7.1c.6-1.4 1.1-2.9 1.5-4.5.3.1.6.3.9.4-.5 1.4-1 2.9-1.5 4.4zm.2-10.1.6-.6c.7.5 1.3 1.1 1.9 1.6l-.7.7c-.6-.6-1.2-1.2-1.8-1.7zm8.4-.8h.8v.9h1.8v.7h-1.8v1.8h-.8v-.3h-1.2v.9h3.3v2.6h-.8v-.4h-2.5c0 .3 0 .6-.1.8h3.4v.7h-3.5c0 .3-.1.6-.1.8h4v.7h-3.5c.7.9 1.9 1.3 3.6 1.5-.2.2-.4.5-.6.9-1.9-.3-3.2-1.1-3.8-2.3-.5 1.1-1.8 2-3.9 2.4-.2-.3-.4-.5-.6-.8 1.9-.4 3.1-.9 3.6-1.7h-3.2v-.7h3.5c.1-.2.1-.5.2-.8h-3.3v-.7h3.4c0-.2 0-.5 0-.8h-2.4v.3h-.8v-2.6h3.3v-.9h-1.2v.3h-.8v-1.8h-1.8v-.7h1.8v-.9h.8v.9h3.2zm-4.4 5.5h2.4c0-.3 0-.6 0-.9h-2.4zm1.2-3.1h3.2v-.8h-3.2zm4.4 2.2h-2.4v.9h2.5v-.9z"/><path d="m389.2 385.8h.9v1.5h1.9v-1.5h.9v1.5h2.7v6h1.1v.9h-11.3v-.9h1.1v-6h2.7zm.2 8.7.5.8c-1.2.6-2.5 1.3-4 1.9-.2-.3-.3-.6-.6-.8 1.6-.6 3-1.3 4.1-1.9zm-2-4.3h1.9v-2.1h-1.9zm0 3.1h1.9v-2.2h-1.9zm2.7-3.1h1.9v-2.1h-1.9zm0 3.1h1.9v-2.2h-1.9zm2.4 1.3c1.4.6 2.7 1.2 4.1 1.8l-.5.9c-1.5-.7-2.8-1.4-4.1-1.9zm2.2-6.5h-1.9v2.1h1.9zm-1.9 5.2h1.9v-2.2h-1.9z"/></g></svg>