<svg enable-background="new 0 0 400 400" viewBox="0 0 400 400" xmlns="http://www.w3.org/2000/svg"><g fill="#fbfafa"><path d="m37.59 393.81c-.92.31-1.52.05-2-.78-.7-1.2-1.52-2.34-2.47-3.78v4.59c-.55.03-.95.05-1.41.07-.03-.37-.06-.64-.06-.91 0-1.91 0-3.81 0-5.7 1.13-.41 1.77-.03 2.29.91.62 1.11 1.38 2.14 2.31 3.19v-4.2h1.35v6.61z"/><path d="m12.94 393.88v-6.75c1.9.19 3.93-.54 5.37 1.29.8 1.01.78 2.88.03 3.97-1.37 1.97-3.4 1.51-5.4 1.49m1.45-1.22c2.04.12 2.92-.58 2.89-2.21-.03-1.51-.98-2.19-2.89-2z"/><path d="m11.81 393.87h-5.49c.68-2.18 2.47-3.48 3.51-5.45h-3.08v-1.21h5.29c-.71 2.13-2.44 3.48-3.47 5.51.86 0 1.63.04 2.39-.01.79-.05 1.14.21.85 1.16"/><path d="m39.33 393.86v-6.61h3.7v1.07h-2.22v1.52c.68.04 1.34.09 2.07.13v1.07c-.72.05-1.38.09-2.1.14v1.48h2.4v1.19h-3.85z"/><path d="m27.71 388.56c-1.15-.3-2.46-.61-3.1.64-.37.73-.41 1.93-.06 2.67.63 1.35 1.99.93 3.17.68.35.94-.01 1.32-.93 1.46-1.62.25-3.05-.27-3.76-1.48-.73-1.24-.6-3.03.31-4.17.88-1.11 2.71-1.7 4-1.16.32.13.44.74.65 1.12-.1.08-.19.16-.28.24"/><path d="m49.15 387.24v1.07c-.59.02-1.17.05-1.87.08v5.44h-1.48v-5.44h-1.85c-.05-.4-.08-.73-.13-1.15z"/><path d="m20.06 387.21h1.33v6.62h-1.33z"/><path d="m30.68 393.25c-.49.38-.8.79-1.05.76-.32-.05-.6-.45-.9-.7.26-.24.51-.64.8-.67.29-.04.62.3 1.15.61"/></g><path d="m77.79 283.56c-.98-3.72-1.89-7.01-2.71-10.33-3.06-12.47-1.42-24.91.23-37.35.66-4.98 1.69-9.66 4.7-14.06 4.08-5.97 4.72-13.26 4.99-20.29.5-12.95 3.59-24.92 11.4-35.49 1.71-2.32 2.9-5.03 4.31-7.57.32-.58.78-1.2.82-1.82.44-5.69 4.14-9.46 7.73-13.31.75-.81 1.89-1.77 1.9-2.66.04-5.42 4.15-8.39 6.83-12.27 1.25-1.82 1.77-4.14 2.63-6.24.45-1.1.64-2.46 1.42-3.23 4.84-4.78 7.78-10.56 9.51-17.04.53-1.99 1.56-3.27 3.67-3.85 2.14-.59 4.58-1.12 6.17-2.5 7.92-6.82 17.86-7.61 27.37-9.81 4.88-1.13 9.69-2.58 14.55-3.81 1.17-.3 2.44-.16 3.62-.43 2.64-.6 5.24-1.4 7.89-1.96 1.56-.33 3.3-.79 4.76-.4 3.93 1.04 7.14.45 10.15-2.44 1.16-1.11 3.11-1.56 4.78-1.94 1.95-.44 4.1-.13 5.97-.74 8.33-2.72 16.35-6.48 25.29-6.98 4.25-4.21 10.16-4.92 15.32-7.22.79-.35 2.09-.88 2.49-.54 2.52 2.14 4.36.13 6.31-.87 2.89-1.47 5.75-3 8.54-4.65 2.48-1.47 4.94-2.47 7.92-1.66.68.19 1.61-.38 2.38-.72 2.72-1.19 5.33-2.72 8.14-3.6 5.03-1.58 6.91-4.59 5.54-9.79-.4-1.51-1.22-2.95-1.36-4.47-.17-1.82-.13-3.78.37-5.53.69-2.42 2.45-3.15 4.59-1.46 4.29 3.39 8.58 6.79 12.71 10.36.88.76 1.62 2.33 1.54 3.46-.45 6.12-1.16 12.21-1.82 18.31-.31 2.88-1.12 5.77-.98 8.62.5 10.36-1.31 20.31-5.23 29.82-3.76 9.12-3.74 18.81-4.69 28.32-.84 8.44-4.33 15.94-7.35 23.57-2.86 7.22-9.21 12.05-14.11 17.86-.53.62-1.5.93-2.32 1.24-6.98 2.69-13.98 5.35-20.98 7.99-.93.35-1.96.79-2.89.68-5.34-.6-10.09 1.44-14.95 3.09-1.46.5-3.07 1.2-4.52 1.02-5.8-.71-10.82 1.05-15.31 4.46-3.32 2.52-6.9 2.68-10.78 2.02-1.48-.25-3.16-.27-4.58.16-11.73 3.59-23.49 3.96-35.24.31-2.75-.85-4.64-.18-6.98 1.39-9.55 6.42-19.3 12.53-29 18.73-.65.41-1.44.88-2.15.86-7.07-.15-11.27 4.53-15.7 9-2.38 2.4-4.37 5.41-8.24 5.92-.8.11-1.58 1.18-2.17 1.96-3.86 5.12-8.74 8.86-14.64 11.39-5.54 2.37-7.13 7.49-7.9 12.78-1.44 9.96-2.54 19.97-3.84 29.95-.59 4.75-2.25 5.56-6.1 3.76zm72.03-177.81c.45 2.49.99 4.57 1.14 6.67.1 1.33.04 3.03-.69 4.01-3.59 4.85-4.6 10.19-4.13 16.08.33 4.23-.05 8.51.24 12.74.2 2.98.88 5.95 1.57 8.87.74 3.13 2.51 5.37 5.95 6.01 1.04.19 2.2.78 2.9 1.55 5.28 5.89 12.22 8.28 19.7 9.67 2.52.47 4.97 1.37 7.49 1.78 2.04.32 4.15.25 6.23.25 2.98 0 5.97-.12 8.95-.13 4.97-.01 9.98.39 14.9-.08 3.14-.3 6.09-2.34 9.24-2.77 5.12-.69 7.67-3.83 8.98-8.24 2.14-7.15 4.66-14.28 5.79-21.61 1.6-10.34 2.29-20.84 2.94-31.3.31-4.98.11-10.11-.77-15-.97-5.34-5.06-7.39-10.33-6.09-5.31 1.3-10.58 2.84-15.93 3.95-2.67.55-5.54.72-8.25.42-2.71-.31-4.97-.34-7.06 1.77-.74.75-2.21.86-3.38 1.1-4.44.9-8.93 1.56-13.32 2.64-7.46 1.85-14.84 4.03-22.29 5.91-3.12.79-6.35 1.17-9.87 1.8zm102.17 57.26c3.95-.1 7.91-1.36 10.5 0 4.28 2.25 6.51.27 9.21-2.03 1.02-.87 2.05-1.75 3.19-2.45 4.97-3.05 8.42-6.97 9.08-13.14.22-2.06 2.01-3.92 2.94-5.93.55-1.17.97-2.44 1.2-3.71.54-2.92.65-5.95 1.44-8.79 1.32-4.73 3.07-9.33 4.58-14.01.3-.92.78-2.29.37-2.83-1.87-2.46-.42-4.62.15-6.94.36-1.47.4-3.02.52-4.54.19-2.35.12-4.75.55-7.05.66-3.55 2.75-7.21 2.26-10.53-.79-5.24-1.82-10.08 2.94-15.22-4.23-.68-7.43-1.38-10.67-1.61-1.1-.08-2.37.89-3.42 1.59-2.44 1.62-4.58 3.96-7.23 4.92-3.85 1.39-8.22 1.33-12.03 2.79-3.96 1.52-8.95 3.23-10.91 6.44-2.98 4.87-3.21 11.09.11 16.6 1.26 2.09 2.01 4.11.67 6.54-.42.77-.22 2.02.02 2.97.35 1.39 1.41 2.7 1.42 4.05.05 6.36.6 12.84-.43 19.05-1.53 9.21-4.35 18.2-6.38 27.34-.51 2.28-.08 4.77-.08 6.49zm-149.18 55.91c.5-7.07 6.03-9.44 10.66-12.64.46-.32.85-.73 1.33-1.03 11.02-6.8 21.98-13.7 33.11-20.33 3.56-2.12 4.17-3.53 1.49-6.81-.7-.86-1.49-1.73-2.41-2.32-6.91-4.44-11.35-10.85-15.04-18.03-1.67-3.25-3.21-6.25-2.58-10.09.27-1.63-.39-3.41-.75-5.97-1.2 1.69-2.02 2.58-2.55 3.62-2.28 4.47-4.56 8.96-6.69 13.5-2.12 4.52-4.8 8.35-10.07 9.5.67.92 1.91 1.87 1.79 2.6-.56 3.46-.72 7.33-2.47 10.17-2.53 4.11-4.21 8.22-4.91 12.96-.68 4.58-.74 9.41-4.03 13.28-2.78 3.29-1.55 8.9 3.12 11.59zm208.68-162.19c-1.1-.79-2.12-1.69-3.29-2.3-.53-.28-1.55-.24-1.98.11-.45.37-.8 1.41-.6 1.93.93 2.45 2.06 4.81 3.29 7.61.96-2.72 1.71-4.88 2.58-7.35z" fill="#010000"/><path d="m279.25 231.58c6.63 1.99 7.65 4.1 5.85 10.23-.38 1.31-.04 3.15.63 4.39 1.83 3.36 2.43 6.83 2.24 10.61-.58 11.6-1.26 23.21-1.42 34.82-.09 6.67.74 13.36 1.16 20.04.03.55.26 1.18.09 1.65-3.46 9.23-1.42 18.82-1.85 28.25-.31 6.8-.09 13.64-.74 20.4-.5 5.3-3.66 9.43-8.21 13.14-.88-2.22-1.64-4.14-2.39-6.06-.6-1.56-.76-3.54-1.84-4.61-2.9-2.88-2.69-6.31-2.82-9.9-.34-9.7-1.07-19.39-1.33-29.09-.08-2.8 1.25-5.61 1.32-8.44.19-8.39.09-16.78.05-25.17-.01-1.78-.04-3.21 2.37-3.57 2.04-.3 2.12-1.73.75-3.14-3.65-3.76-3.36-7.7-2-12.62 1.88-6.82 2.26-14.04 3.38-21.08.81-5.05 1.7-10.1 2.74-15.11.34-1.6 1.28-3.06 2.02-4.74z" fill="#010000"/><path d="m214.3 243.75c2.92 1.66 4.07 3.57 3.68 6.36-.7 5.03 1.18 9.44 3.45 13.73 1.93 3.65 1.93 6.89.42 11.06-2.48 6.87-3.85 14.22-4.98 21.48-2.43 15.66-3.53 31.55-8.4 46.78-.67 2.1-1.11 4.42-.99 6.6.18 3.26-1.11 5.65-3.4 7.63-1.13.98-1.88 2.88-4.14 1.66-2.04-1.1-3.51-1.88-3.46-4.83.23-14.09.05-28.19.18-42.28.01-1.56.79-3.33 1.73-4.62 2.48-3.37 1.29-7.09 1.5-10.7.13-2.15.6-4.28.98-6.4.47-2.61 1.46-5.21 1.44-7.81-.06-7.97 2.79-15 5.99-22.07 1.71-3.78 2.36-8.02 3.66-11.99.5-1.55 1.47-2.93 2.34-4.6z" fill="#010000"/><path d="m152.81 255.38c0 3.02-.06 6.03.02 9.05.08 3.12.02 5.94-2.13 8.75-1.3 1.7-1.45 4.67-1.3 7.01.34 5.22-.05 10.2-2.05 15.1-.78 1.9-1.1 4.09-1.17 6.17-.22 6.85-1.18 13.46-3.8 19.91-1.92 4.71-2.37 10.06-4.55 14.6-1.08 2.24-4.51 3.47-7.09 4.74-.43.21-2.2-1.5-2.84-2.62-3-5.28-3.95-10.45-2.34-16.87 1.46-5.81 2.5-11.69 4.25-17.52 1.48-4.92 2.71-10.48 1.19-16.03-.39-1.44.59-3.51 1.45-4.99 3.34-5.71 4.03-11.66 2.1-17.94-.64-2.09-.41-3.8 1.12-5.55.74-.84 1.1-2.53.83-3.64-.81-3.31.1-5.83 2.52-8.08.7-.65 1.48-1.64 1.52-2.52.25-5.1 4.53-5.5 7.88-6.83 1.79-.71 3.78 1.4 3.81 3.84.06 4.47.02 8.94.02 13.41.18.01.37.01.56.01z" fill="#010000"/></svg>