<svg enable-background="new 0 0 400 400" viewBox="0 0 400 400" xmlns="http://www.w3.org/2000/svg"><path d="m219.73 367.96c-17.11-1.57-33.93 1.11-50.79 3.31-8.43 1.1-16.86 2.21-25.3 3.14-1.04.11-2.44-.64-3.26-1.42-1.93-1.85-3.5-4.07-5.41-5.94-1.97-1.93-4.21-2.97-7.26-2.45-3.82.66-7.73-2.17-9.02-5.87-.4-1.16-.86-2.31-1.2-3.49-3.47-12.1-8.61-23.26-16-33.63-6.21-8.72-10.85-18.53-12.65-29.34-1.35-8.1-.72-16.07 1.98-23.82.43-1.24 1.53-2.42 2.61-3.24 9.7-7.38 20.96-11.27 32.51-14.62 6.21-1.8 12.31-4.01 18.33-6.37 12.21-4.8 15.39-14.6 14.76-25.22-.46-7.65-1.93-15.32-3.79-22.77-1.41-5.66-1.67-11.21-1.46-16.92.42-11.85.8-23.71 1.05-35.57.04-1.95-.33-4.02-.99-5.86-3.05-8.52-5.95-17.12-9.52-25.42-3.91-9.07-4.22-18.14-1.91-27.54 1.8-7.3 1.95-14.64-.25-21.87-.42-1.39-1.61-2.92-2.87-3.6-3.92-2.12-8.01-3.96-12.11-5.73-3.67-1.58-5.38-4.33-5.1-8.18.18-2.43.62-4.9 1.39-7.21.35-1.05 1.64-2.05 2.74-2.54 8.24-3.68 16.79-4.26 25.6-2.49 4.38.88 8.81 1.56 13.23 2.19 3.94.56 7.68.03 11.42-1.67 10.62-4.8 22.11-6.25 33.46-8.17 11.86-2.01 23.68-.33 35.44.97 9.43 1.04 18.88 2.41 28.12 4.53 5.2 1.2 10.27 3.76 14.88 6.57 5.03 3.06 7.44 8.15 7.68 14.17.08 1.96-.47 2.96-2.49 3.58-8.75 2.71-17.47 5.53-26.12 8.53-1.48.51-2.88 1.9-3.8 3.24-1.51 2.2-2.74 4.62-3.84 7.06-3.87 8.58-8.96 16.14-16.75 21.74-1.07.77-1.85 2.79-1.77 4.17.83 14.75 1.88 29.48 2.82 44.22.07 1.08-.25 2.19-.41 3.28-.05.33-.13.67-.27.97-7.35 16.48-9.58 33.74-8.43 51.67.54 8.36 0 16.79.19 25.18.03 1.37 1.01 3.16 2.12 4 6.49 4.91 14.21 6.16 22.07 7.02 5.33.58 10.63 1.48 15.94 2.2 6.6.89 10.65 5.4 14.24 10.32 7.86 10.76 11.85 23.23 15.23 35.9 2.6 9.76 4.65 19.62 3.31 29.81-.16 1.22-.7 2.68-1.57 3.46-6.43 5.75-9.63 13.13-12.07 21.24-1.94 6.46-5.12 12.57-7.92 18.75-.41.91-1.71 1.83-2.71 1.99-16.2 2.65-32.4 5.35-48.66 7.61-5.06.72-10.28.13-15.42.13zm49.57-62.56c-.04 0-.09-.01-.13-.01.12-2.01.45-4.04.31-6.03-.48-6.44-1.03-12.87-1.76-19.28-.26-2.31-1.82-3.48-4.3-3.89-8.26-1.37-16.48-3.05-24.73-4.49-4.6-.8-9.48-2.61-13.83-1.8-18.78 3.52-37.73 4.3-56.73 4.86-13.71.4-26.75 3.26-38.84 10.13-4.42 2.51-6.15 5.64-6.02 10.71.33 12.6 5.87 23.23 11.99 33.69.45.77 1.79 1.21 2.79 1.42 12.15 2.5 24.37 4.68 36.46 7.46 8.49 1.95 16.83 2.82 25.49 1.17 15.01-2.86 30.15-3.34 45.39-1.98 7.14.64 14.06-.78 20.24-4.63 1-.62 1.98-2.09 2.08-3.23.65-8.02 1.08-16.06 1.59-24.1zm-94.96-242.04c0 .84-.07 1.52.01 2.17 1.6 12.75 2.75 25.57 4.96 38.21 2.89 16.61 6.07 33.22 15.97 47.59 1.91 2.77 3.5 6.52.13 9.49-5.01 4.39-6.35 10.33-7.6 16.35-2.43 11.73-.97 23.42.93 35.02 1.16 7.1 2.99 14.1 4.53 21.14.46.12.92.25 1.37.37 1.73-2 4.64-3.82 5-6.04 1.8-11.24 3.61-22.55 4.15-33.89.69-14.51.13-29.08.23-43.63.02-2.42.35-4.9 1.01-7.23 4.83-17.09 9.83-34.13 14.66-51.22 2.33-8.25 4.38-16.58 6.55-24.81-.52-.37-.76-.63-1.05-.73-9.41-3.19-18.82-6.39-28.25-9.52-.89-.29-2.02-.39-2.88-.1-6.58 2.2-13.09 4.51-19.72 6.83z" fill="#010100"/><g fill="#fcfafa"><path d="m342.2 3.2-6.3 9.2h6.1v1.2h-8.2v-.5l6.2-9.1h-5.7v-1.2h7.8v.4z"/><path d="m344 13.7v-10.9h3.1c1.6 0 3 .5 4.1 1.4 1.1 1 1.6 2.2 1.6 3.9s-.5 3-1.6 4-2.5 1.5-4.2 1.5h-3zm1.4-9.6v8.4h1.6c1.4 0 2.5-.4 3.2-1.1.8-.8 1.2-1.8 1.2-3.2s-.4-2.4-1.2-3.1-1.8-1-3.1-1z"/><path d="m356.3 2.8v10.9h-1.4v-10.9z"/><path d="m366.6 13.2c-.8.4-1.8.6-3 .6-1.6 0-2.8-.5-3.7-1.5s-1.4-2.3-1.4-3.9c0-1.7.5-3.2 1.6-4.2s2.4-1.6 4-1.6c1 0 1.9.1 2.6.4v1.5c-.8-.4-1.6-.6-2.6-.6-1.2 0-2.2.4-3 1.2s-1.1 1.9-1.1 3.3c0 1.3.4 2.3 1.1 3.1s1.6 1.1 2.8 1.1c1.1 0 2-.2 2.8-.7v1.3z"/><path d="m368.2 13c0-.3.1-.5.3-.6.2-.2.4-.3.6-.3.3 0 .5.1.7.3s.3.4.3.6-.1.5-.3.6c-.2.2-.4.3-.7.3s-.5-.1-.6-.3c-.2-.2-.3-.4-.3-.6z"/><path d="m381.1 13.7h-1.7l-5.5-8.4c-.2-.2-.3-.5-.4-.7 0 .2.1.8.1 1.5v7.6h-1.4v-10.9h1.8l5.3 8.3c.3.4.4.6.4.8 0-.3-.1-.8-.1-1.6v-7.5h1.4v10.9z"/><path d="m389.7 13.7h-5.8v-10.9h5.6v1.2h-4.2v3.5h3.9v1.2h-3.9v3.7h4.4z"/><path d="m398.4 4.1h-3.1v9.6h-1.4v-9.6h-3.1v-1.3h7.7v1.3z"/></g></svg>