<svg enable-background="new 0 0 400 400" viewBox="0 0 400 400" xmlns="http://www.w3.org/2000/svg"><path d="m245.96 376.12c-4.63-8.88-9.15-16.39-12.49-24.38-1.93-4.62-2.32-10-2.82-15.09-1.24-12.84-7.02-24.16-11.57-35.89-2.95-7.6-6.45-15.02-8.97-22.75-1.96-6.01-2.51-12.47-4.24-18.58-1.48-5.24-3.48-10.38-5.71-15.35-2.88-6.4-10.79-9.78-17.53-7.85-.91.26-1.76.94-2.51 1.57-9.8 8.14-21.25 12.08-33.75 13.44-2.54.27-4.13-.4-4.09-3.33 7.39-5.12 14.86-10.19 22.23-15.42 6.22-4.42 12.12-9.22 16.15-15.9 1.6-2.65 2.5-5.31 1.94-8.56-.8-4.62-.93-9.35-1.72-13.98-.33-1.95-1.49-3.81-2.5-5.58-4.07-7.17-8.65-14.09-12.25-21.49-5.27-10.85-9.81-22.06-12.15-33.99-.28-1.42-.42-2.87-.55-4.32-.08-.87-.01-1.74-.01-2.73 4.04-.83 7.42-.55 10.05 3.17 2.58 3.64 5.91 6.77 8.34 10.5 7.37 11.33 14.55 22.79 21.61 34.32 1.67 2.73 2.47 5.98 3.89 8.89.82 1.67 1.85 3.38 3.19 4.64 4.24 3.98 6.21 3.73 8.92-1.33 3.16-5.9 6.9-11.16 12.73-14.74.95-.59 1.76-2.05 1.9-3.2 1.17-9.09 2.2-18.21 3.16-27.33.13-1.28-.17-2.67-.55-3.92-6.68-21.9-13.38-43.8-20.15-65.67-.48-1.54-1.41-3-2.36-4.33-6.22-8.71-11.2-18.05-13.83-28.47-1.05-4.16-1.02-8.39.68-12.71 8.49.74 15.52 4.27 19.1 11.8 4.25 8.93 7.12 18.51 10.81 27.72 2.1 5.25 4.25 10.55 7.11 15.4 4.54 7.7 6.46 16.2 8.17 24.69 2.77 13.78 4.85 27.71 7.02 41.6.35 2.21-.13 4.66-.67 6.88-.9 3.68-2.34 7.24-3.24 10.92-2.52 10.31-6.94 19.46-13.61 27.93-5.96 7.58-10.41 16.37-15.32 24.75-.7 1.2-.88 3.51-.18 4.59 13.82 21.52 20.73 45.74 26.92 70.1 5.41 21.31 9.68 42.92 14.02 64.48.82 4.09 0 8.66-.82 12.86-.44 2.12-2.53 3.94-4.35 6.64z" fill="#010100"/><g fill="#fafbfa"><path d="m6.4 11.7c-1-.8-1.9-1.6-2.9-2.3l.6-.7c.9.7 1.9 1.4 2.9 2.2zm-2.1 8.3c.7-2.1 1.4-4.2 2-6.4.2.1.6.3 1 .4-.7 2.3-1.3 4.4-1.9 6.4zm3-12.8c-1.1-.9-2.1-1.7-2.9-2.4l.6-.7c1 .8 2 1.5 3 2.4zm1.4-1.3v-.9h10.2v.9c-.9 4.2-2.3 7.3-4.1 9.4 1.3 1.4 3.2 2.7 5.7 4-.2.2-.4.5-.7.9-2.5-1.4-4.4-2.7-5.7-4.2-1.4 1.5-3.5 3-6.1 4.4 0 0 0 0-.1-.1-.3-.4-.5-.7-.7-.8 2.7-1.3 4.7-2.8 6.2-4.2-1.8-2.2-3-5.3-3.7-9.4zm9.2 0h-7.1c.6 3.8 1.7 6.7 3.4 8.7 1.7-2 2.9-4.8 3.7-8.7z"/><path d="m31.6 3.6h.9v2.3h4.1v9.1h1.7v.9h-16.6v-.9h1.7v-9.1h4.1v-2.3h.9v2.3h3.1v-2.3zm-4 13.3.6.8c-1.9.9-3.8 1.9-5.8 2.8-.2-.3-.3-.6-.5-.9 2-.9 3.9-1.8 5.7-2.7zm-3.2-10.1v3.7h3.1v-3.7zm0 4.5v3.7h3.1v-3.7zm4.1-4.5v3.7h3.1v-3.7zm0 4.5v3.7h3.1v-3.7zm9.1 9.1c-2.1-1.1-4.1-2-5.8-2.7l.5-.8c2.2.9 4.1 1.8 5.8 2.6zm-1.9-13.6h-3.1v3.7h3.1zm-3.2 4.5v3.7h3.1v-3.7z"/></g></svg>