<svg enable-background="new 0 0 400 400" viewBox="0 0 400 400" xmlns="http://www.w3.org/2000/svg"><path d="m264.25 365.42c-6.35 5.91-13.81 9.98-22.64 10.09-8.47.1-16.97-.67-25.44-1.39-18.43-1.56-36.86-1.8-55.3-.5-8.21.58-15.75-1.04-22.76-5.34-3.02-1.85-7.49-2.84-8.87-5.49-1.39-2.68.19-6.93.52-10.48 1.87-20.27 3.76-40.54 5.65-60.81.41-4.46 1.13-8.91 1.19-13.37.11-7.35-.25-14.71-.33-22.06-.09-8.6-.33-17.2-.06-25.79.31-10.17 1.59-20.34 1.51-30.5-.06-7.18-1.54-14.37-2.66-21.51-2.4-15.22-6.36-30.23-6.34-45.78.01-6.04.27-11.95 4.07-17.27 1.59-2.23 1.76-5.46 2.65-8.22 2.05-6.35 4.01-12.74 6.26-19.02 1.12-3.14 3.03-6 4.16-9.14 7.21-19.95 20.58-35.94 33.41-52.28.59-.75 1.97-1.65 2.63-1.43 3.32 1.1 7.42 1.7 9.63 4.01 13.81 14.41 26.43 29.76 34.84 48.14 4.98 10.89 8.61 21.94 7.95 34.21-.43 8.02-.08 16.12.38 24.15.66 11.79-1.87 23.21-4.22 34.53-3.97 19.07-1.94 37.39 4.7 55.33 6.4 17.32 12.01 34.82 15.68 52.94.75 3.69 2.12 7.31 3.65 10.77 5.35 12.08 7.45 24.96 10.06 37.78 1.52 7.47 1.04 14.26-1.86 21.15-1.21 2.87-2.91 6.01-2.66 8.89.22 2.85 2.64 5.49 4.2 8.39zm-10.5-11.64c-.3-1.21-.44-1.96-.67-2.68-8.75-27.56-17.49-55.12-26.31-82.65-.36-1.12-1.41-2.53-2.43-2.85-4.33-1.35-8.72-2.96-13.18-3.34-16.37-1.38-32.59.45-48.68 3.41-1.04.19-2.38 1.58-2.65 2.65-.96 3.78-1.43 7.68-2.23 11.51-4.22 20.2-6.41 40.83-12.67 60.62-.9 2.86-.63 6.18-.47 9.26.15 2.96 1.79 4.17 5.09 4.16 33.44-.14 66.89-.09 100.34-.09zm-80.05-164.25c1.9 1.79 3.47 3.36 5.14 4.8.82.7 1.83 1.67 2.76 1.68 6.47.07 13.01.47 19.41-.29 7.57-.9 8.29-2.45 7.98-10.03-.35-8.49-1.01-17-.7-25.47.33-9.22 3.33-17.93 6.77-26.49 4.06-10.11 4.12-20.21-.89-30.16-2.56-5.08-5.2-10.18-7.09-15.52-1.26-3.56-1.26-7.57-1.84-11.37-.25-1.63-.01-3.64-.89-4.82-5.31-7.19-10.87-14.19-16.38-21.23-.51-.66-1.27-1.12-2.1-1.84-2.72 2.79-5.48 5.26-7.81 8.09-2.83 3.44-5.79 6.93-7.81 10.86-7.07 13.69-13.73 27.59-20.62 41.37-2.96 5.92-4.54 12.23-4.53 18.74.04 23.54 7.85 44.88 19.25 65.1.48.85 1.62 1.56 2.59 1.84 3.58 1.02 4.61.22 6.76-5.26zm-7.73 26.14c-3.8 8.6-5.06 17.19.07 25.85 1.08 1.82 2.44 2.51 4.66 2.35 10.6-.78 21.21-1.37 31.82-2.05 5.32-.34 10.63-.75 16.53-1.18-1.27-3.94-2.13-7.42-3.5-10.68-4.8-11.39-11.79-15.19-23.83-13.08-8.26 1.45-16.5 3.23-24.46-1.19-.25-.14-.65-.02-1.29-.02z" fill="#010100"/><g fill="#fafbfa"><path d="m6.4 11.7c-1-.8-1.9-1.6-2.9-2.3l.6-.7c.9.7 1.9 1.4 2.9 2.2zm-2.1 8.3c.7-2.1 1.4-4.2 2-6.4.2.1.6.3 1 .4-.7 2.3-1.3 4.4-1.9 6.4zm3-12.8c-1.1-.9-2.1-1.7-2.9-2.4l.6-.7c1 .8 2 1.5 3 2.4zm1.4-1.3v-.9h10.2v.9c-.9 4.2-2.3 7.3-4.1 9.4 1.3 1.4 3.2 2.7 5.7 4-.2.2-.4.5-.7.9-2.5-1.4-4.4-2.7-5.7-4.2-1.4 1.5-3.5 3-6.1 4.4 0 0 0 0-.1-.1-.3-.4-.5-.7-.7-.8 2.7-1.3 4.7-2.8 6.2-4.2-1.8-2.2-3-5.3-3.7-9.4zm9.2 0h-7.1c.6 3.8 1.7 6.7 3.4 8.7 1.7-2 2.9-4.8 3.7-8.7z"/><path d="m31.6 3.6h.9v2.3h4.1v9.1h1.7v.9h-16.6v-.9h1.7v-9.1h4.1v-2.3h.9v2.3h3.1v-2.3zm-4 13.3.6.8c-1.9.9-3.8 1.9-5.8 2.8-.2-.3-.3-.6-.5-.9 2-.9 3.9-1.8 5.7-2.7zm-3.2-10.1v3.7h3.1v-3.7zm0 4.5v3.7h3.1v-3.7zm4.1-4.5v3.7h3.1v-3.7zm0 4.5v3.7h3.1v-3.7zm9.1 9.1c-2.1-1.1-4.1-2-5.8-2.7l.5-.8c2.2.9 4.1 1.8 5.8 2.6zm-1.9-13.6h-3.1v3.7h3.1zm-3.2 4.5v3.7h3.1v-3.7z"/></g></svg>