<svg enable-background="new 0 0 400 400" viewBox="0 0 400 400" xmlns="http://www.w3.org/2000/svg"><g fill="#010100"><path d="m152.87 125.14c-1.14-3.91-.26-6.49 3-8.82 5.91-4.22 11.66-8.71 17.11-13.51 6.99-6.15 7.81-10.72 4.6-19.46-2.05-5.57-4.31-10.84-8.51-15.35-4.11-4.43-7.22-9.76-7.72-16.05-.13-1.66.2-4.52 1.09-4.87 2.19-.85 4.74-1.48 6.99 1.04 5.81 6.51 11.92 12.76 17.88 19.14.53.56.83 1.34 1.23 2.01.28-.17.56-.33.84-.5 1.49-9.14 3.25-18.24 4.37-27.42.69-5.66 2.73-10.56 5.94-15.07.43-.6 1.92-.96 2.68-.7 4.46 1.49 6.55 5.07 6.87 9.43.31 4.21-.34 8.49-.13 12.71.29 5.76.92 11.52 1.56 17.26.14 1.26.97 2.44 1.49 3.66 15.08-10.94 29.21-23.13 48.62-27.05-.59 5.36-1.25 9.35-5.39 12.67-13.01 10.43-25.61 21.36-38.4 32.05-5.31 4.44-7.66 9.62-5.25 16.58 1.69 4.87 3.5 9.37 7.15 13.37 9.26 10.16 15.56 22.31 21.78 34.41-3.3 2.47-8.93 1.6-12.96-1.92-4.54-3.97-8.97-8.06-14.53-12.05-.57 6.12-1.16 12.24-1.7 18.36-.3 3.44-.26 6.94-.86 10.32-.52 2.92-2.49 4.96-5.61 5.55s-5.46.09-7.02-3.28c-3.26-7.02-3.72-14.34-3.8-21.92-.12-10.05-.94-20.08-1.51-30.12-.15-2.54-.75-4.95-3.56-5.9-2.71-.92-4.32.83-6.07 2.48-7.7 7.22-16.45 12.3-27.29 12.92-.99.08-1.96.03-2.89.03z"/><path d="m242.98 223.35c-4.6.84-8.9 1.68-13.22 2.39-4.58.76-9.24 1.15-13.75 2.19-2.66.62-3.8 2.76-4.08 5.79-1.72 18.49-3.91 36.94-5.52 55.43-1.14 13.15-1.43 26.37-2.43 39.53-1.26 16.64-7.03 31.73-16.74 45.96-2.75-4.56-3.53-9.17-3.27-14 1.5-27.7 3.21-55.39 4.5-83.09.71-15.11 1.77-30.14 4.48-45.03 1.24-6.84-1.42-9.17-8.37-9.18-7.11 0-14.23-1.04-21.33-1.71-5.67-.53-11.38-.9-16.98-1.88-5.88-1.03-10.36-4.34-13.47-10.88 6.65-.06 12.63-.53 18.54-.07 8.01.62 15.95 2.14 23.95 2.92 8.29.8 16.25-.57 23.69-4.58.93-.5 2.55-.3 3.64.13 5.69 2.22 11.18 5.12 17.02 6.8 4.1 1.18 8.65.81 13 1.09 6.09.38 8.73 2.2 10.34 8.19z"/><path d="m222.51 192.7c-5.2 4.66-11.12 5.83-17.12 3.85-8.15-2.69-16.03-6.2-23.95-9.54-.81-.34-1.77-2.56-1.57-2.75 1.6-1.52 3.47-3.9 5.24-3.88 7.36.07 14.73.69 22.05 1.52 4.89.56 9.17 2.85 12.44 6.68 1.07 1.24 1.9 2.67 2.91 4.12z"/></g><path d="m6.4 11.7c-1-.8-1.9-1.6-2.9-2.3l.6-.7c.9.7 1.9 1.4 2.9 2.2zm-2.1 8.3c.7-2.1 1.4-4.2 2-6.4.2.1.6.3 1 .4-.7 2.3-1.3 4.4-1.9 6.4zm3-12.8c-1.1-.9-2.1-1.7-2.9-2.4l.6-.7c1 .8 2 1.5 3 2.4zm1.4-1.3v-.9h10.2v.9c-.9 4.2-2.3 7.3-4.1 9.4 1.3 1.4 3.2 2.7 5.7 4-.2.2-.4.5-.7.9-2.5-1.4-4.4-2.7-5.7-4.2-1.4 1.5-3.5 3-6.1 4.4 0 0 0 0-.1-.1-.3-.4-.5-.7-.7-.8 2.7-1.3 4.7-2.8 6.2-4.2-1.8-2.2-3-5.3-3.7-9.4zm9.2 0h-7.1c.6 3.8 1.7 6.7 3.4 8.7 1.7-2 2.9-4.8 3.7-8.7z" fill="#fafbfa"/><path d="m31.6 3.6h.9v2.3h4.1v9.1h1.7v.9h-16.6v-.9h1.7v-9.1h4.1v-2.3h.9v2.3h3.1v-2.3zm-4 13.3.6.8c-1.9.9-3.8 1.9-5.8 2.8-.2-.3-.3-.6-.5-.9 2-.9 3.9-1.8 5.7-2.7zm-3.2-10.1v3.7h3.1v-3.7zm0 4.5v3.7h3.1v-3.7zm4.1-4.5v3.7h3.1v-3.7zm0 4.5v3.7h3.1v-3.7zm9.1 9.1c-2.1-1.1-4.1-2-5.8-2.7l.5-.8c2.2.9 4.1 1.8 5.8 2.6zm-1.9-13.6h-3.1v3.7h3.1zm-3.2 4.5v3.7h3.1v-3.7z" fill="#fafbfa"/></svg>