<svg enable-background="new 0 0 400 400" viewBox="0 0 400 400" xmlns="http://www.w3.org/2000/svg"><g fill="#010106"><path d="m261.31 308.06c-1.95 7.31-1.84 14.5-6.64 20.54-5.2 6.55-9.65 13.7-14.55 20.76 2.82 3.03 6.24 4.82 10.24 5.02 13.94.68 27.88 1.44 41.83 1.67 12.38.21 24.49-1.93 36.24-5.92 4.25-1.44 8.07-6.67 6.96-10.19-.57-1.82-1.97-3.82-3.57-4.81-7.22-4.48-14.73-8.47-21.95-12.94-5.73-3.55-11.03-7.69-13.27-15.44 4.43 1.01 8.41 1.78 12.32 2.85 7.64 2.08 15.18 4.59 22.89 6.38 3.15.73 6.64.15 9.96 0 3.14-.14 4.98-2.06 5.28-5.06.86-8.55 1.69-17.11 2.23-25.68.25-4-.25-8.04-.29-12.07-.03-2.67-.95-4.47-3.77-5.06-8.29-1.74-16.59-3.45-24.85-5.35-6.18-1.41-12.37-2.87-18.42-4.72-3.8-1.16-6.28-3.73-5.36-8.3.26-1.28.04-2.66.04-4.28 8.18-1.68 16.26-1.05 24.37-.55 6.22.38 12.49.61 18.71.26 4.96-.28 5.58-1.34 5.71-6.24.19-7.27.3-14.54.36-21.82.06-7.15.01-14.3.01-21.54 6.65.86 13.26 7.32 14.46 14.69 1.48 9.13 2.76 18.36 3.1 27.59.51 13.86.05 27.75.18 41.62.05 5.35.01 10.81 1.04 16.02 1.54 7.77-.28 15.09-1.6 22.53-.82 4.62-1.49 9.29-2.7 13.81-.93 3.49-2.23 6.99-4.04 10.1-3.58 6.19-7.53 12.17-11.54 18.09-.97 1.43-2.61 2.8-4.23 3.36-17.2 5.98-35.03 8.99-53.08 10.89-14.66 1.55-29.24 1.56-43.66-2.02-2.06-.51-4.06-1.24-6.12-1.73-11.99-2.85-19.34-11.33-24.79-21.46-2.12-3.94-2.09-9.02-3.14-13.55-2.36-10.23-5.4-20.34-7.03-30.69-1.77-11.22-2.72-22.63-3.15-33.99-.45-11.84.23-23.71.23-35.57 0-2.57.81-3.75 3.26-4.45 2.81-.8 2.99 1.53 3.67 2.85 3.48 6.75 6.77 13.6 10.11 20.42 3.41 6.96 8.59 8.93 15.76 5.42 4.4-2.15 8.53-4.88 12.63-7.58 3.31-2.18 6.74-2.14 10.3-1.24 2.22.56 2.97 1.97 2.19 4.32-1.78 5.38-4.4 9.94-8.88 13.79-6.69 5.75-12.57 12.42-19.06 18.41-8.96 8.27-10.41 18.58-8.69 29.84.47 3.08 1.27 6.13 2.06 9.15 1 3.85 6.53 5.31 9.38 2.48 3.81-3.78 7.52-7.67 11.35-11.43 4.71-4.64 10.02-8.21 17.51-9.18z"/><path d="m278.39 203.99c-9.38 4.92-18.77 5.06-28.2 2.61-11.63-3.01-23.07-7.04-32.79-14.11-8.48-6.17-17.8-12.18-21.92-22.55-5.89-14.79-5.63-29.7.96-44.3.85-1.88 2.47-3.43 3.82-5.06 9.21-11.12 18.06-22.56 27.77-33.22 9.78-10.74 20.39-20.72 30.71-30.97 9.92-9.86 19.93-19.63 29.9-29.44 2.46-2.42 8.84-2.39 10.78.38.72 1.03.8 3.13.26 4.31-2.68 5.84-5.43 11.5-10.07 16.39-4.6 4.84-7.7 11.11-12 17.57 8.16 5.07 15.67 9.79 23.24 14.43 5.42 3.32 11.19 6.14 16.29 9.89 5.88 4.32 9.64 10.42 11.85 17.71-4.94 1.74-9.85 1.77-14.54.26-4.97-1.61-9.82-3.69-14.5-6.02-11.8-5.88-23.5-11.97-35.19-18.07-1.74-.91-2.88-.86-4.4.45-4.41 3.79-9.27 7.1-13.4 11.17-3.62 3.57-6.48 7.9-10.03 12.34 4.23 2.81 7.97 5.59 11.97 7.91 8.8 5.1 17.8 9.85 26.58 14.98 6.64 3.88 12.9 8.48 15.23 16.27 3.04 10.19 1.63 11.43-8.71 10.42-3.14-.31-6.32-1.52-9.21-2.88-7.29-3.41-14.58-6.85-21.57-10.82-5.03-2.86-9.37-6.91-14.36-9.84-4.38-2.58-9.19-4.47-13.92-6.41-2.41-.99-4.23-.17-5.7 2.39-8.8 15.3-7.81 27.09 5.08 44.17.51.67 1.37 1.14 2.14 1.54 8.14 4.21 16.12 8.78 24.51 12.43 5.05 2.2 10.68 3.28 16.15 4.3 4.63.86 8.02 2.85 10.12 7.12.78 1.55 1.97 2.93 3.15 4.65z"/><path d="m99.77 46.48c4.25.15 7.15 2.07 9.48 4.95 5.86 7.27 8.78 15.73 9.69 24.93 1.97 19.8 1.74 39.51-2.81 58.99-.39 1.66-.95 3.98-2.15 4.59-2.31 1.18-5.11 1.53-7.75 1.82-.66.07-1.67-1.26-2.2-2.15-3.73-6.31-5.33-13.29-5.5-20.5-.24-10.17.36-20.36-.16-30.51-.61-12.09-.47-24.12.81-36.15.21-1.88.38-3.76.59-5.97z"/><path d="m56.04 204.11c5.96-5.18 12.96-6.37 20.07-7.54 16.33-2.7 32.54-.57 48.74 1.04 2.64.26 5.42 1.57 7.62 3.12 3.62 2.54 3.18 5.86-.66 7.95-10.31 5.61-21.35 8.35-33.08 8.54-11.22.18-22.33-.52-33.32-3.02-3.13-.71-5.24-1.99-6.49-4.94-.73-1.73-1.83-3.3-2.88-5.15z"/><path d="m30.84 346.28c-1.97-8.83-.54-16.99 2.1-24.87 3.82-11.43 8.17-22.68 12.38-33.98.35-.94 1.25-1.78 2.09-2.4 1.16-.85 2.45-1.59 3.79-2.13 2.33-.95 5.2-2.96 7.03-2.3 4.46 1.62 7.82 5.41 7.84 10.35.02 4.46-.75 9.15-2.29 13.34-2.26 6.16-5.33 12.04-8.35 17.89-5.09 9.83-12.61 17.43-22.15 23.02-.66.38-1.4.62-2.44 1.08z"/><path d="m95.53 278.77c4.55.35 7.01 2.8 8.41 6.55 4.69 12.52 6.63 25.49 6.17 38.83-.2 5.93-.22 11.86-.54 17.78-.3 5.55-5.94 8.84-11.12 6.79-3.99-1.58-6.42-3.57-6.44-8.66-.04-10.95-1.19-21.89-1.53-32.85-.29-9.69 1.68-19.08 5.05-28.44z"/><path d="m175.68 97.18c-.14 6.23-3.35 9.66-8.49 9.82-4.15.13-7.86-1.08-10.88-4.19-8.12-8.37-12.84-18.2-13.01-29.96-.02-1.3.75-2.94 1.7-3.88 2.14-2.11 4.76-3.73 6.92-5.82 1.95-1.89 3.97-2.11 5.98-.72 2.81 1.95 5.97 3.78 7.96 6.44 6.46 8.66 8.9 18.84 9.82 28.31z"/><path d="m171.25 322.95c-.1 1.25-.15 2.6-.32 3.93-.86 6.66-3.82 7.81-10.16 5.55-3.83-1.36-7.78-4.08-10.22-7.29-5.37-7.09-10.11-14.71-14.5-22.45-1.74-3.07-2.1-7.01-2.71-10.61-.66-3.91 1.33-5.49 5.44-4.82 9.81 1.6 17.16 7.14 23.36 14.54 5.13 6.11 9.03 12.75 9.11 21.15z"/><path d="m54.92 66.39c8.64 4.11 11.14 11.56 11.95 19.88.69 7.12.41 14.04-4.88 19.82-1.77 1.94-2.83 4.54-4.27 6.8-.9 1.41-1.78 2.87-2.9 4.1-2.67 2.93-6.32 5.35-9.94 4.33-1.82-.51-3.39-4.84-3.61-7.55-.47-5.72-.67-11.63.28-17.25 1.87-11 5.9-21.25 13.37-30.13z"/></g><path d="m385.2 377.6.6-.7c.6.4 1.3.9 1.9 1.5l-.6.7c-.8-.5-1.4-1-1.9-1.5zm.3 7.1c.6-1.4 1.1-2.9 1.5-4.5.3.1.6.3.9.4-.5 1.4-1 2.9-1.5 4.4zm.2-10.1.6-.6c.7.5 1.3 1.1 1.9 1.6l-.7.7c-.6-.6-1.2-1.2-1.8-1.7zm8.4-.8h.8v.9h1.8v.7h-1.8v1.8h-.8v-.3h-1.2v.9h3.3v2.6h-.8v-.4h-2.5c0 .3 0 .6-.1.8h3.4v.7h-3.5c0 .3-.1.6-.1.8h4v.7h-3.5c.7.9 1.9 1.3 3.6 1.5-.2.2-.4.5-.6.9-1.9-.3-3.2-1.1-3.8-2.3-.5 1.1-1.8 2-3.9 2.4-.2-.3-.4-.5-.6-.8 1.9-.4 3.1-.9 3.6-1.7h-3.2v-.7h3.5c.1-.2.1-.5.2-.8h-3.3v-.7h3.4c0-.2 0-.5 0-.8h-2.4v.3h-.8v-2.6h3.3v-.9h-1.2v.3h-.8v-1.8h-1.8v-.7h1.8v-.9h.8v.9h3.2zm-4.4 5.5h2.4c0-.3 0-.6 0-.9h-2.4zm1.2-3.1h3.2v-.8h-3.2zm4.4 2.2h-2.4v.9h2.5v-.9z" fill="#fcfbfa"/><path d="m389.2 385.8h.9v1.5h1.9v-1.5h.9v1.5h2.7v6h1.1v.9h-11.3v-.9h1.1v-6h2.7zm.2 8.7.5.8c-1.2.6-2.5 1.3-4 1.9-.2-.3-.3-.6-.6-.8 1.6-.6 3-1.3 4.1-1.9zm-2-4.3h1.9v-2.1h-1.9zm0 3.1h1.9v-2.2h-1.9zm2.7-3.1h1.9v-2.1h-1.9zm0 3.1h1.9v-2.2h-1.9zm2.4 1.3c1.4.6 2.7 1.2 4.1 1.8l-.5.9c-1.5-.7-2.8-1.4-4.1-1.9zm2.2-6.5h-1.9v2.1h1.9zm-1.9 5.2h1.9v-2.2h-1.9z" fill="#fcfbfa"/></svg>