<svg enable-background="new 0 0 400 400" viewBox="0 0 400 400" xmlns="http://www.w3.org/2000/svg"><g fill="#fbfafa"><path d="m37.59 393.81c-.92.31-1.52.05-2-.78-.7-1.2-1.52-2.34-2.47-3.78v4.59c-.55.03-.95.05-1.41.07-.03-.37-.06-.64-.06-.91 0-1.91 0-3.81 0-5.7 1.13-.41 1.77-.03 2.29.91.62 1.11 1.38 2.14 2.31 3.19v-4.2h1.35v6.61z"/><path d="m12.94 393.88v-6.75c1.9.19 3.93-.54 5.37 1.29.8 1.01.78 2.88.03 3.97-1.37 1.97-3.4 1.51-5.4 1.49m1.45-1.22c2.04.12 2.92-.58 2.89-2.21-.03-1.51-.98-2.19-2.89-2z"/><path d="m11.81 393.87h-5.49c.68-2.18 2.47-3.48 3.51-5.45h-3.08v-1.21h5.29c-.71 2.13-2.44 3.48-3.47 5.51.86 0 1.63.04 2.39-.01.79-.05 1.14.21.85 1.16"/><path d="m39.33 393.86v-6.61h3.7v1.07h-2.22v1.52c.68.04 1.34.09 2.07.13v1.07c-.72.05-1.38.09-2.1.14v1.48h2.4v1.19h-3.85z"/><path d="m27.71 388.56c-1.15-.3-2.46-.61-3.1.64-.37.73-.41 1.93-.06 2.67.63 1.35 1.99.93 3.17.68.35.94-.01 1.32-.93 1.46-1.62.25-3.05-.27-3.76-1.48-.73-1.24-.6-3.03.31-4.17.88-1.11 2.71-1.7 4-1.16.32.13.44.74.65 1.12-.1.08-.19.16-.28.24"/><path d="m49.15 387.24v1.07c-.59.02-1.17.05-1.87.08v5.44h-1.48v-5.44h-1.85c-.05-.4-.08-.73-.13-1.15z"/><path d="m20.06 387.21h1.33v6.62h-1.33z"/><path d="m30.68 393.25c-.49.38-.8.79-1.05.76-.32-.05-.6-.45-.9-.7.26-.24.51-.64.8-.67.29-.04.62.3 1.15.61"/></g><path d="m154.03 374.19c.05-1.08-.29-2.43.23-3.19 1.52-2.22 1.45-4.38.44-6.66-1.32-2.99-1.26-5.93-.54-9.13 7.11-31.62 13.76-63.35 21.26-94.88 3.23-13.56 7.93-26.79 12.44-40 1.45-4.25 4.21-8.14 6.78-11.91 4.17-6.13 6.47-12.86 7.93-20.07 2.2-10.84 4.89-21.59 7.11-32.43.46-2.23.26-4.88-.51-7.03-2.86-8-6-15.89-9.22-23.75-.68-1.67-2.11-3.03-3.86-5.47-5 7.43-9.77 13.65-13.58 20.4-3.88 6.89-6.97 14.24-10.14 21.51-5.45 12.51-13.29 23.19-24.32 32.78 2.8-8.73 5.75-16.45 7.75-24.41 4.77-18.96 15.33-35.14 24.26-52.11 1.35-2.57 2.73-5.14 4.17-7.65 2.65-4.6 1.72-8.58-.96-13.06-5.09-8.5-9.57-17.38-14.19-26.16-3.61-6.88-8.52-12.5-15.2-16.88-3.59 5.51-4.13 11.64-5.06 17.69-2.57 16.63-7.97 32.24-16.84 46.57-.37.05-.73.09-1.1.14-.49-2-1.51-4.03-1.4-5.99 1.26-23.5 3.05-46.93 12.77-68.85 1.73-3.9 2.99-8.24 7.46-10.33 4.52-2.11 11.99-.42 14.75 3.6 8.85 12.92 17.67 25.86 26.54 38.76.75 1.09 1.64 2.17 2.7 2.93 3 2.18 4.45 1.83 6.37-1.28 10-16.17 19.99-32.35 29.99-48.52.69-1.12 1.43-2.22 2.41-3.75 7 7.05 9.59 16.18 14.32 24.21-.77.55-1.41 1.01-1.82 1.31 10.27 14.61 15.81 30.85 19.69 47.92-3.2 1-5.01.19-6.99-2.1-7.49-8.66-12.94-18.39-16.87-29.11-2.47-6.75-6.06-12.89-11.43-18.47-2.52 4.38-5.21 8.36-7.22 12.66-6.02 12.84-11.84 25.77-17.56 38.74-.48 1.1-.17 3.09.56 4.09 4.14 5.66 6.36 11.99 7.5 18.82.25 1.48.62 3.26 1.59 4.26 7.61 7.82 9.25 17.81 10.62 27.97.62 4.57-.04 8.74-2.06 12.95-7.37 15.31-10.57 32-15.3 48.17-1.47 5.03-3.16 9.45-8 12.03-1.85.98-2.21 2.36-1.76 4.43.36 1.66.23 3.57-.23 5.22-3.16 11.3-6.31 22.61-9.81 33.81-1.22 3.9-3.55 7.44-5.12 11.26-1 2.44-1.84 5.03-2.21 7.63-1.28 9.19-2.31 18.42-3.49 27.63-.14 1.08-.36 2.32-.99 3.16-5.43 7.29-6.87 15.93-8.14 24.54-.99 6.71-3.41 12.6-7.43 18.05-2.21 3.01-3.68 6.56-5.48 9.86-.24.04-.52.07-.81.09z" fill="#010000"/></svg>