<svg enable-background="new 0 0 400 400" viewBox="0 0 400 400" xmlns="http://www.w3.org/2000/svg"><g fill="#fbfafa"><path d="m37.59 393.81c-.92.31-1.52.05-2-.78-.7-1.2-1.52-2.34-2.47-3.78v4.59c-.55.03-.95.05-1.41.07-.03-.37-.06-.64-.06-.91 0-1.91 0-3.81 0-5.7 1.13-.41 1.77-.03 2.29.91.62 1.11 1.38 2.14 2.31 3.19v-4.2h1.35v6.61z"/><path d="m12.94 393.88v-6.75c1.9.19 3.93-.54 5.37 1.29.8 1.01.78 2.88.03 3.97-1.37 1.97-3.4 1.51-5.4 1.49m1.45-1.22c2.04.12 2.92-.58 2.89-2.21-.03-1.51-.98-2.19-2.89-2z"/><path d="m11.81 393.87h-5.49c.68-2.18 2.47-3.48 3.51-5.45h-3.08v-1.21h5.29c-.71 2.13-2.44 3.48-3.47 5.51.86 0 1.63.04 2.39-.01.79-.05 1.14.21.85 1.16"/><path d="m39.33 393.86v-6.61h3.7v1.07h-2.22v1.52c.68.04 1.34.09 2.07.13v1.07c-.72.05-1.38.09-2.1.14v1.48h2.4v1.19h-3.85z"/><path d="m27.71 388.56c-1.15-.3-2.46-.61-3.1.64-.37.73-.41 1.93-.06 2.67.63 1.35 1.99.93 3.17.68.35.94-.01 1.32-.93 1.46-1.62.25-3.05-.27-3.76-1.48-.73-1.24-.6-3.03.31-4.17.88-1.11 2.71-1.7 4-1.16.32.13.44.74.65 1.12-.1.08-.19.16-.28.24"/><path d="m49.15 387.24v1.07c-.59.02-1.17.05-1.87.08v5.44h-1.48v-5.44h-1.85c-.05-.4-.08-.73-.13-1.15z"/><path d="m20.06 387.21h1.33v6.62h-1.33z"/><path d="m30.68 393.25c-.49.38-.8.79-1.05.76-.32-.05-.6-.45-.9-.7.26-.24.51-.64.8-.67.29-.04.62.3 1.15.61"/></g><path d="m284.67 298.38c4.39 7.64 2.51 14.85-.93 22.06-.89 1.86-1.41 3.95-1.78 5.99-.79 4.48-.73 9.23-2.19 13.46-2.94 8.53-6.5 16.86-10.16 25.13-1.14 2.58-3.23 4.81-5.18 6.94-2.25 2.47-5.23 2.99-8.58 2.84-5.11-.23-10.23.09-15.35.05-6.01-.04-12.03-.2-18.04-.33-1.23-.03-2.46-.36-3.67-.3-10.92.58-19.86-4.34-28.72-9.91-10.46-6.57-16.97-15.77-20.07-27.6-.42-1.59-1.18-3.1-1.85-4.8 2.65-.54 3.74.45 4.54 2.73.67 1.92 1.88 3.86 3.37 5.25 2.1 1.96 3.94 1.47 4.81-1.23.99-3.06 1.68-6.26 2.14-9.45 1.63-11.39 3.16-22.8 4.6-34.22.21-1.68.3-3.8-.52-5.11-3.54-5.62-4.52-11.35-2.76-17.83.62-2.27.05-5.05-.59-7.43-1.32-4.93-2.38-9.71-2.6-14.98-.23-5.54-2.82-11.24-5.36-16.38-3.45-7-5.83-13.97-4.92-21.87.12-1.03-.64-2.67-1.5-3.24-8.94-5.87-14.56-14.3-19.17-23.69-1.74-3.55-4.44-6.62-6.63-9.96-3.87-5.87-7.67-11.79-11.52-17.67-2.38-3.64-4.69-7.34-7.27-10.84-1.02-1.39-2.56-2.53-4.09-3.4-3.59-2.04-5.27-1.44-7.41 2.1-2.08 3.45-4.16 6.95-9.12 8.63-.29-3.47-1.27-6.85-.69-9.93 1.85-9.98 3.78-20 6.66-29.72 1.74-5.89 5.7-11.1 7.9-16.9 2.32-6.14 3.59-12.66 5.62-18.92.92-2.83 2.68-5.38 3.83-8.15.56-1.34.59-2.91.86-4.37.19-1.04.04-2.42.65-3.07 5.52-5.83 7.54-13.33 10.12-20.57 2.08-5.83 3.17-7.14 8.81-10.72 4.61 5.31 4.85 10.62 1.01 16.41-3.95 5.95-7.03 12.3-6.28 19.7.17 1.67 1.25 3.69 2.56 4.71 7.73 6.05 15.33 12.36 24.77 15.76.4.14.98.38 1.08.7 1.15 3.9 4.43 4.46 7.72 5.24.95.23 1.77 1.27 2.5 2.08 3.37 3.75 6.53 7.69 10.07 11.27 2.55 2.58 5.62 4.62 8.36 7.02 1.13.99 2.34 2.12 2.91 3.45 2.42 5.63 5.63 10.61 10.32 14.65 1.1.95 1.81 2.52 2.31 3.95 1.64 4.63 2.97 9.38 4.73 13.97.56 1.46 2 2.66 3.24 3.75 1.5 1.33 3.18 2.46 4.84 3.59.49.34 1.2.64 1.76.55 6.82-1.03 13.66-1.95 20.42-3.29 5.5-1.09 9.88-5.93 9.89-11.74.03-11.53-2.03-22.56-9.1-32.28-5.08-6.98-10.9-13.01-18.3-17.44-10.96-6.56-18.79-16.48-27.35-25.59-2.59-2.75-5.31-5.01-8.89-6.29-5.22-1.87-9.57-5.06-13.91-8.5-4.88-3.87-10.31-7.08-15.65-10.32-4.6-2.79-8.45-6.21-11.04-10.97-1.53-2.82.67-6.51 3.95-6.31 3.41.21 7.34-.43 8.69 4.28.18.64 1.37 1.05 2.15 1.44 2.92 1.42 5.8 2.93 8.81 4.12 4.16 1.64 7.72 3.9 10.27 7.69.72 1.07 1.87 1.91 2.96 2.67 4.51 3.11 8.98 6.31 13.65 9.17 4.19 2.57 7.62 5.75 10.27 9.88.68 1.06 1.79 2.16 2.93 2.54 5.7 1.91 9.96 5.74 14.26 9.71 2.21 2.04 5.01 3.72 7.83 4.77 5.24 1.94 9.88 4.17 10.98 10.37.34 1.92 1.66 2.55 3.48 3 1.13.28 2.3 1.42 2.95 2.49 1.95 3.23 3.46 6.73 5.48 9.91 4.91 7.74 7.16 16.31 8.47 25.23 2.28 15.49 4.51 30.98 6.88 46.46.44 2.85 1.32 5.66 2.26 8.4 2.79 8.14 4.22 16.28 2.63 24.99-.7 3.84.09 8.04.72 12 1.12 6.97.78 13.74-.98 20.57-.48 1.87-.29 4.29.5 6.05 3.97 8.85 5.16 18.28 5.83 27.75.53 7.3-1.06 14.23-6.18 19.85zm-6.06-20.22c.2-9.53-1.28-11.14-8.13-11.38-.33-.01-.67-.06-1-.07-12.15-.4-24.33-1.13-35.99 3.57-1.83.74-3.89 1.19-5.85 1.24-9.3.2-17.52 2.76-23.75 10.1-.43.5-.98.93-1.54 1.29-1.78 1.16-2.29 2.57-1.99 4.8 1.44 10.87 2.03 21.69-.45 32.61-2.57 11.32-4.27 22.83-6.34 34.26-.52 2.88-.68 5.89 2.36 7.37 8.06 3.92 17.54 1.3 22.42-6.22 7.4-11.4 15.47-22.17 26.29-30.63 1.15-.9 1.81-2.44 2.67-3.7.99-1.44 1.73-3.13 2.95-4.33 7.59-7.43 15.31-14.74 22.92-22.14 1-.98 2.08-2.2 2.41-3.49 1.34-5.18 2.39-10.43 3.02-13.28zm-69.1-112.63c-2.23-6.74-4.18-13.13-6.49-19.4-1.14-3.09-2.64-6.15-4.51-8.86-8.94-12.96-19.43-24.55-31.82-34.31-8.54-6.73-17.86-12.17-28.57-15.63-.93 1.57-1.98 3.02-2.69 4.62-1.41 3.15-2.52 6.44-3.98 9.57-1.26 2.71-2.87 5.25-4.24 7.91-.88 1.71-1.89 3.43-2.33 5.27-.55 2.26-.82 4.66-.71 6.98.07 1.46.64 3.36 1.68 4.23 3.52 2.96 6.02 6.43 7.55 10.79.58 1.67 1.85 3.38 3.28 4.43 2.7 1.97 4.19 4.4 4.87 7.64 1.1 5.19 3.15 9.64 8.69 11.84 2.98 1.18 3.05 3.26.92 6.01 3.72 3.37 7.72 6.49 11.11 10.18 3.57 3.88 8 3.93 11.98 2.51 11.76-4.19 23.28-9.04 35.26-13.78zm20.69 6.07c0 10.5-.05 20.42.04 30.34.02 1.76.64 3.5.94 5.26 1.42 8.36 3.02 16.69 4.14 25.09.68 5.08.5 10.26.91 15.39.08.99.92 2.38 1.78 2.77 4.26 1.95 8.56 3.93 13.02 5.32 5.85 1.82 11.75 1.61 17.11-1.78 1.21-.76 2.6-2.16 2.8-3.44 1.9-12.13 2.27-24.24-.92-36.27-.45-1.68-.52-3.52-.45-5.28.29-6.68 1.07-13.37-2.44-19.63-.63-1.12-.46-2.84-.28-4.23.61-4.65.17-9.05-1.88-13.37-.81-1.71-.95-3.84-1-5.8-.07-2.94-1.54-4.3-4.44-3.42-9.93 3.01-19.82 6.11-29.33 9.05zm-56.34 17.41c1.29 4.72 3.08 8.55 3.22 12.44.17 4.73 1.77 8.28 4.82 11.69 2.02 2.26 4.04 4.9 4.93 7.72 3.67 11.7 6.87 23.54 10.32 35.3.5 1.7 1.46 3.26 2.12 4.91.82 2.07 2.41 3 4.47 2.64 4.48-.77 9.08-1.29 13.34-2.76 8.55-2.94 8.47-3.18 6.23-11.71-.37-1.4-.7-2.82-1.16-4.2-2.42-7.3-3.29-14.79-2.81-22.46.57-9.09-4.29-17.67-2.38-27.02.47-2.31-1.83-5.15-2.75-7.79-.51-1.46-1.04-2.98-1.15-4.5-.37-4.83-1.98-5.72-6.65-4.02-5.13 1.87-10.35 3.5-15.58 5.05-5.54 1.67-11.13 3.11-16.97 4.71zm94.35 127.97c-2.81 2.87-5.23 5.69-8 8.11-3.62 3.16-7.43 6.12-11.32 8.94-2.65 1.91-4.28 4.31-5.56 7.29-1.01 2.35-2.66 4.61-4.54 6.35-3.52 3.27-7.53 6-11.06 9.25-1.16 1.07-1.48 3.05-2.19 4.62 1.46.65 2.87 1.7 4.38 1.88 4.77.55 9.65.39 14.36 1.21 6.79 1.19 11.29-1.63 14.44-7.2 3.08-5.44 6.15-10.91 8.81-16.56 1.13-2.4 1.32-5.27 1.75-7.96.53-3.34.63-6.77 1.35-10.06.66-2.97-.06-4.85-2.42-5.87z" fill="#010000"/></svg>