<svg enable-background="new 0 0 400 400" viewBox="0 0 400 400" xmlns="http://www.w3.org/2000/svg"><g fill="#fbfafa"><path d="m37.59 393.81c-.92.31-1.52.05-2-.78-.7-1.2-1.52-2.34-2.47-3.78v4.59c-.55.03-.95.05-1.41.07-.03-.37-.06-.64-.06-.91 0-1.91 0-3.81 0-5.7 1.13-.41 1.77-.03 2.29.91.62 1.11 1.38 2.14 2.31 3.19v-4.2h1.35v6.61z"/><path d="m12.94 393.88v-6.75c1.9.19 3.93-.54 5.37 1.29.8 1.01.78 2.88.03 3.97-1.37 1.97-3.4 1.51-5.4 1.49m1.45-1.22c2.04.12 2.92-.58 2.89-2.21-.03-1.51-.98-2.19-2.89-2z"/><path d="m11.81 393.87h-5.49c.68-2.18 2.47-3.48 3.51-5.45h-3.08v-1.21h5.29c-.71 2.13-2.44 3.48-3.47 5.51.86 0 1.63.04 2.39-.01.79-.05 1.14.21.85 1.16"/><path d="m39.33 393.86v-6.61h3.7v1.07h-2.22v1.52c.68.04 1.34.09 2.07.13v1.07c-.72.05-1.38.09-2.1.14v1.48h2.4v1.19h-3.85z"/><path d="m27.71 388.56c-1.15-.3-2.46-.61-3.1.64-.37.73-.41 1.93-.06 2.67.63 1.35 1.99.93 3.17.68.35.94-.01 1.32-.93 1.46-1.62.25-3.05-.27-3.76-1.48-.73-1.24-.6-3.03.31-4.17.88-1.11 2.71-1.7 4-1.16.32.13.44.74.65 1.12-.1.08-.19.16-.28.24"/><path d="m49.15 387.24v1.07c-.59.02-1.17.05-1.87.08v5.44h-1.48v-5.44h-1.85c-.05-.4-.08-.73-.13-1.15z"/><path d="m20.06 387.21h1.33v6.62h-1.33z"/><path d="m30.68 393.25c-.49.38-.8.79-1.05.76-.32-.05-.6-.45-.9-.7.26-.24.51-.64.8-.67.29-.04.62.3 1.15.61"/></g><path d="m159.57 80.61c6.58-.29 9.49-5.18 12.67-9.59 5.02-6.95 10.94-12.92 17.55-18.37 2.65-2.19 4.86-5.21 6.47-8.27 1.84-3.5 4.23-5.98 7.46-8.23 3.72-2.59 6.93-5.98 10.07-9.29 1.7-1.8 3.29-2.09 5.29-1.07 1.38.71 2.98 1.32 3.96 2.43 4.01 4.54 9.24 6.54 14.96 7.58 2.64.48 4.12 1.82 5.31 4.32 1.5 3.14 3.67 6.01 5.8 8.8 3.93 5.14 8.19 10.05 12.01 15.26 1.38 1.88 1.93 4.38 3.32 7.7-2.81-.38-4.67-.3-6.27-.92-2.79-1.07-5.17-1.17-7.24 1.29-.35.42-.82.77-1.28 1.08-7.75 5.08-13.06 11.83-15.43 20.99-.58 2.24-2.64 4.49-4.62 5.91-5.25 3.77-7.91 8.37-8.7 15.01-1.58 13.22-3.76 26.37-3.24 39.73.18 4.74.71 9.7 2.33 14.09 2.77 7.5 3.51 15.1 3.92 22.96.3 5.71 2.03 11.35 3.14 17.01.56 2.85 1.34 5.67 1.69 8.54.74 6.12-.11 11.89-3.3 17.43-3.51 6.09-6.07 12.73-9.61 18.8-3.61 6.2-5.23 12.7-5.05 19.77.21 8.14.07 16.3.65 24.42.26 3.67 2.04 7.2 2.86 10.86.94 4.22 1.55 8.51 2.34 12.77.73 3.94 1.29 7.93 2.33 11.8 1.79 6.66 2.8 13.31 1.93 20.22-.65 5.1-.92 10.25-1.5 15.36-.29 2.56-1.49 4.57-4.53 5.44-.23-3.57-.65-6.88-.61-10.18.05-4.45-2.19-7.67-5.14-10.5-2.17-2.09-4.71-3.79-6.93-5.83-2.21-2.02-4.23-4.24-6.32-6.38-.54-.56-.94-1.34-1.58-1.7-8.84-4.92-14.17-13.54-21.38-20.16-13-11.94-15.13-26.91-12.74-43.32.22-1.49.04-3.13-.33-4.6-1.85-7.37-3.91-14.69-5.7-22.07-.41-1.67-.06-3.53-.06-4.99-3.84-4.3-7.79-8.65-11.65-13.07-.64-.73-1.22-1.73-1.34-2.67-.64-4.86-3.34-8.69-5.91-12.63-.58-.89-.98-2-1.15-3.05-.86-5.61-1.26-11.32-2.49-16.85-2.37-10.63-.88-21.17.18-31.72.36-3.55.5-7.29 1.75-10.56 1.92-5.02 3.03-9.81 1.08-15.03-.3-.81.22-1.97.46-2.94.98-4.02 2.36-7.97 2.93-12.05.93-6.65 4.14-11.62 8.92-16.27 2.62-2.55 3.89-6.65 5.34-10.22 1.66-4.1 3.39-7.94 7.3-10.48 1.8-1.17 1.64-1.42.08-6.56zm-14.76 72.46c-.38 2.45-.9 4.31-.92 6.18-.1 7.22-.09 14.45-.05 21.68.04 8.17.15 16.34 3.56 24 .46 1.03 1.27 2.2 2.23 2.65 6.27 2.96 12.8 4.35 19.77 2.81 2.83-.63 4.8-1.63 4.35-5.07-.32-2.43-.12-4.93-.47-7.35-1.9-13.15 2.31-25.53 4.52-38.48-4.59-4.58-10.36-5.45-16.73-3.75-5.6 1.49-11.04 1.93-16.26-2.67zm17.13-9.31v.08c3.46 0 6.94.19 10.39-.04 6.79-.46 7.05-1.04 7.44-7.76.35-6.09.51-12.3 1.92-18.18 1.3-5.45 4.05-10.57 6.35-15.75 1.75-3.96 1.15-5.61-2.82-6.56-1.63-.39-3.25-.82-4.88-1.18-3.59-.79-7.65-2.94-10.65-1.93-2.98 1-4.89 5.18-7.25 7.98-.86 1.03-1.7 2.08-2.49 3.16-1.44 1.97-3.35 3.79-4.17 6.01-2.42 6.59-4.61 13.29-6.44 20.07-.89 3.27-.99 6.82-1.03 10.24-.02 2.48 1.33 4.07 4.24 3.9 3.12-.18 6.26-.04 9.39-.04zm23.16 43.66c.3.04.6.08.9.12-.28 3.1-.68 6.2-.82 9.31-.14 3.1-.35 6.27.12 9.31.26 1.66 1.58 4.12 2.9 4.49 7.2 2.01 14.56 3.73 22.08 1.64 4.45-1.24 5.41-3.24 4.46-7.73-3.03-14.36-7.57-28.43-7.86-43.32-.03-1.7-2.42-4.49-4.05-4.77-3.07-.51-6.45.18-9.57.91-1.47.34-3.58 1.75-3.81 2.98-1.67 8.99-2.94 18.04-4.35 27.06zm4.98 85.11c-.25.04-.5.07-.75.11.4 2.63.48 5.36 1.26 7.87 1.5 4.8 5.48 5.8 9 2.16 1.19-1.24 2.04-3.78 1.66-5.4-1.69-7.11 1.77-13.92.82-20.95-.12-.91.98-1.94 1.4-2.96 1.41-3.35 3.1-6.64 4.07-10.12 1.52-5.43 2.53-11 3.78-16.5.49-2.15-.35-3.34-2.46-3.97-2.33-.69-4.97-1.14-6.79-2.56-3.48-2.71-6.49-2.82-9.75.02-.41.36-.95.57-1.44.85-5.25 3.05-5.97 4.78-4.91 10.86.42 2.4.98 4.95.58 7.28-.73 4.23-.55 8.13 1.47 11.96.37.7.19 1.71.22 2.58.08 2.4-.02 4.83.23 7.21.42 3.86 1.07 7.7 1.61 11.56zm-4.73 10.9c-3.28-2.49-5.27-5.06-5.47-8.84-.24-4.57-.9-9.13-1.54-13.66-1.32-9.4-2.82-18.78-4.07-28.18-.19-1.42.87-2.97.81-4.44-.12-2.95.45-7.28-1.18-8.52-3.03-2.31-7.16-4.29-11.54-2.73-2.7.96-5.21.82-7.73-.55-.79-.43-1.76-.54-3.01-.91 2.36 7.92 4.21 15.43 6.89 22.63 1.66 4.45 4.43 8.52 6.97 12.59 4.11 6.57 5.98 13.63 5.72 21.36-.1 2.89.28 5.81.58 8.7.08.79.54 2.06 1.08 2.21 3.83 1.07 7.72 2.02 12.49.34zm35.57-243.21c-5.81-.97-9.51 2.43-12.89 6.3-1.08 1.24-1.59 2.95-2.56 4.3-2.14 2.97-4.11 6.15-6.67 8.71-4.41 4.42-9.22 8.45-13.88 12.63-5.53 4.95-4.99 6.75 1.51 10.1 4.77 2.45 8.29 1.29 11.81-1.8 5.1-4.48 9.49-9.38 10.62-16.53.28-1.75 1.66-3.61 3.05-4.85 5.17-4.61 10.57-8.95 15.81-13.47.73-.63 1.64-1.99 1.4-2.59-.38-.98-1.54-2.03-2.56-2.29-1.8-.47-3.75-.37-5.64-.51zm-36.07 96.45c1.52.44 2.67 1.19 3.44.91 3.31-1.18 3.92.05 3.62 3.14-.35 3.59 3.4 6.46 8.15 6.6 3.59.1 4.27-.97 4.75-5.48.89-8.4 1.72-16.84 3.23-25.14.88-4.85 3.03-9.47 4.59-14.15-2.1-1.48-3.9-2.76-5.88-4.17-1.1 1.01-2.19 1.8-3.02 2.81-4.87 5.9-8.01 12.75-9.07 20.21-.87 6.11-1.83 11.59-8.42 14.02-.29.11-.5.44-1.39 1.25zm29.31-46.22c5.03-.26 8.88-2.79 12.01-6.5 5.62-6.64 11.17-13.33 16.72-20.03 1.51-1.82 1.04-5.95-1-7.62-2.09-1.7-4.19-2.15-6.43.16-5.82 6.02-11.53 12.17-17.78 17.73-3.77 3.36-5.2 7.69-6.92 11.95-1.19 3.02.2 4.46 3.4 4.31zm-3.23 248.75c-2.41-6.92-2.37-6.9-.41-13.78.25-.86-.11-1.96-.4-2.89-2.33-7.7-4.78-15.36-7.03-23.08-.65-2.23-1.79-3.67-4.09-3.57-2.32.1-4.75 3.19-4.54 5.52.63 7.02 1.92 14.04 1.81 21.04-.13 7.53 2.78 12.58 8.99 16.42 2.1 1.31 3.68 1.69 5.67.34zm-25.94-44.14c-1.46-.63-3.9-1.71-6.36-2.76-2.86-1.23-4.77-.28-5.64 2.77-2.7 9.56 4.69 24.47 13.94 28.34 2.46 1.03 3.21.05 2.89-2.14-.44-2.98-1.18-5.91-1.73-8.87-1-5.44-1.95-10.87-3.1-17.34z" fill="#010000"/></svg>