<svg enable-background="new 0 0 400 400" viewBox="0 0 400 400" xmlns="http://www.w3.org/2000/svg"><g fill="#fbfafa"><path d="m37.59 393.81c-.92.31-1.52.05-2-.78-.7-1.2-1.52-2.34-2.47-3.78v4.59c-.55.03-.95.05-1.41.07-.03-.37-.06-.64-.06-.91 0-1.91 0-3.81 0-5.7 1.13-.41 1.77-.03 2.29.91.62 1.11 1.38 2.14 2.31 3.19v-4.2h1.35v6.61z"/><path d="m12.94 393.88v-6.75c1.9.19 3.93-.54 5.37 1.29.8 1.01.78 2.88.03 3.97-1.37 1.97-3.4 1.51-5.4 1.49m1.45-1.22c2.04.12 2.92-.58 2.89-2.21-.03-1.51-.98-2.19-2.89-2z"/><path d="m11.81 393.87h-5.49c.68-2.18 2.47-3.48 3.51-5.45h-3.08v-1.21h5.29c-.71 2.13-2.44 3.48-3.47 5.51.86 0 1.63.04 2.39-.01.79-.05 1.14.21.85 1.16"/><path d="m39.33 393.86v-6.61h3.7v1.07h-2.22v1.52c.68.04 1.34.09 2.07.13v1.07c-.72.05-1.38.09-2.1.14v1.48h2.4v1.19h-3.85z"/><path d="m27.71 388.56c-1.15-.3-2.46-.61-3.1.64-.37.73-.41 1.93-.06 2.67.63 1.35 1.99.93 3.17.68.35.94-.01 1.32-.93 1.46-1.62.25-3.05-.27-3.76-1.48-.73-1.24-.6-3.03.31-4.17.88-1.11 2.71-1.7 4-1.16.32.13.44.74.65 1.12-.1.08-.19.16-.28.24"/><path d="m49.15 387.24v1.07c-.59.02-1.17.05-1.87.08v5.44h-1.48v-5.44h-1.85c-.05-.4-.08-.73-.13-1.15z"/><path d="m20.06 387.21h1.33v6.62h-1.33z"/><path d="m30.68 393.25c-.49.38-.8.79-1.05.76-.32-.05-.6-.45-.9-.7.26-.24.51-.64.8-.67.29-.04.62.3 1.15.61"/></g><path d="m68.72 248.21c1.24-17.34 2.54-32.26 3.32-47.22 1.25-23.85 7.6-46.18 19.15-67.04 1.2-2.17 2.94-4.31 4.94-5.73 5.05-3.59 8.98-7.96 11.47-13.64.58-1.32 1.53-2.49 2.09-3.83 2.13-5.05 5.42-8.84 10.69-10.81 1.19-.45 2.24-1.47 3.15-2.42 5.98-6.21 11.91-12.46 17.82-18.73.76-.8 1.56-1.71 1.91-2.71 4.59-12.99 14.13-22.41 23.31-32 5.71-5.97 12.06-11.34 18.16-16.94 2.35-2.16 3.81-2.04 5.08.86.91 2.07 1.4 4.51 1.38 6.78-.06 6.48-.89 12.97-.69 19.44.61 19.35 4.92 38.07 10.24 56.61 1.81 6.32 3.58 12.74 4.38 19.23.79 6.4 4.39 9.9 9.82 11.77 4.72 1.62 9.66 2.8 14.6 3.56 12.03 1.84 22.32 7.72 32.61 13.59 14.19 8.09 28.26 16.43 40.68 27.17 10.27 8.88 18 19.57 21.67 32.83.44 1.58.35 3.55-.16 5.12-2.29 7.01-4.8 13.95-7.31 20.88-.4 1.1-.94 2.44-1.84 3.04-13.1 8.73-25.72 18.4-40.99 23.25-11.6 3.69-23.32 7.01-35.04 10.31-2.78.78-3.67 1.86-3.81 4.95-.54 12.19 1.45 23.73 6.58 34.85 2.85 6.17 5.1 12.65 7.22 19.12 1.4 4.27 3.56 7.59 7.73 9.44 2.12.94 2.64 2.34 2.24 4.78-1.47 8.82-4.64 12.31-15.56 13.26-15.63 1.36-31.08 3.53-46.41 6.8-1 .21-2.32.05-3.2-.44-4.68-2.62-9.72-3.31-14.91-2.73-10.85 1.21-20.81-1.09-29.91-7.11-7.42-4.9-16.02-5.58-24.43-6.2-10.24-.76-18.53-5.38-26.32-11.4-.82-.64-1.38-1.74-1.82-2.73-4.52-10.11-10.21-19.56-15.66-29.18-4.13-7.28-6.43-16.02-7.73-24.39-2.27-14.77-3.18-29.76-4.45-42.39zm88.93-93.47c-3.2.2-6.49-.01-9.58.68-6.85 1.52-13.6 3.5-20.39 5.29-6.67 1.76-13.37 3.44-20 5.34-2.58.74-4.13 2.71-5.15 5.31-2.2 5.64-2.56 11.45-2.8 17.41-.19 4.69-1.4 9.38-2.5 13.99-.87 3.63-2.47 7.08-3.39 10.69-.68 2.69-.93 5.52-1.11 8.3-.39 6.24-.83 12.5-.82 18.75.01 4.79.58 5.25 5.27 5.98 11.15 1.75 22.28 3.66 33.48 4.99 25.58 3.03 51.22 4.56 76.95 1.92 4.33-.44 8.76-1.66 12.97-1.13 7.73.96 15.13.06 22.57-1.64 17.01-3.9 32.87-10.07 45.73-22.48 1.82-1.75 2.12-3.18 1.03-5.19-4.68-8.64-9.27-17.32-14.12-25.86-.86-1.52-2.61-2.76-4.23-3.58-10.07-5.08-20.2-10.06-30.36-14.95-26.45-12.73-53.62-22.95-83.55-23.82zm-62.16 117.07c0 3.27-.25 5.95.04 8.57 1.84 16.91 9.01 31.64 18.66 45.36 5.79 8.22 13.79 11.98 23.7 12.4 6 .25 12.27-.07 17.56 3.36 2.92 1.89 5.88 2.47 9.15 2.54 1.45.03 2.9.23 4.35.33 11.6.78 23.18 1.8 34.79 2.25 7.2.28 14.15-1.5 20.76-4.92-.64-1.49-1.06-2.91-1.79-4.13-2.76-4.59-5.5-9.2-8.48-13.65-2.23-3.33-3.89-6.67-3.69-10.84.21-4.24.1-8.49.05-12.74-.08-6.84-7.77-15.7-13.97-15.96-17.65-.72-35.29-1.64-52.95-1.94-11.62-.19-22.89-1.39-33.74-5.84-4.41-1.81-9.07-3.03-14.44-4.79zm90.9-141.1c-4.5-9.66-9.23-19.61-13.76-29.66-1.17-2.59-1.72-5.46-2.51-8.21-.58-2.03-.82-4.21-1.68-6.11-1.72-3.81-4.49-4.22-7.54-1.47-7.63 6.9-13.27 15.29-18.66 23.96-4.3 6.9-9.12 13.48-14.04 19.96-1.8 2.37-1.96 4.21-.84 6.04 19.86-1.51 39.3-3 59.03-4.51z" fill="#010000"/><path d="m231.51 209.65c-10.81 7.22-21.69 13.68-34.96 13.64-19.21-.06-38.43-.17-57.62-.93-5.55-.22-11.05-2.59-16.46-4.29-1.3-.41-2.19-2.12-3.71-3.68 9.57-3.49 18.34-6.72 27.14-9.85.9-.32 2.01-.22 2.99-.07 7.56 1.16 14.94.29 22.15-2.06 10.69-3.48 21.63-2.9 32.56-2.12 6 .43 12.03 1.03 17.93 2.13 4.1.76 7.79 2.81 9.98 7.23z" fill="#010000"/></svg>