<svg enable-background="new 0 0 400 400" viewBox="0 0 400 400" xmlns="http://www.w3.org/2000/svg"><g fill="#fbfafa"><path d="m37.59 393.81c-.92.31-1.52.05-2-.78-.7-1.2-1.52-2.34-2.47-3.78v4.59c-.55.03-.95.05-1.41.07-.03-.37-.06-.64-.06-.91 0-1.91 0-3.81 0-5.7 1.13-.41 1.77-.03 2.29.91.62 1.11 1.38 2.14 2.31 3.19v-4.2h1.35v6.61z"/><path d="m12.94 393.88v-6.75c1.9.19 3.93-.54 5.37 1.29.8 1.01.78 2.88.03 3.97-1.37 1.97-3.4 1.51-5.4 1.49m1.45-1.22c2.04.12 2.92-.58 2.89-2.21-.03-1.51-.98-2.19-2.89-2z"/><path d="m11.81 393.87h-5.49c.68-2.18 2.47-3.48 3.51-5.45h-3.08v-1.21h5.29c-.71 2.13-2.44 3.48-3.47 5.51.86 0 1.63.04 2.39-.01.79-.05 1.14.21.85 1.16"/><path d="m39.33 393.86v-6.61h3.7v1.07h-2.22v1.52c.68.04 1.34.09 2.07.13v1.07c-.72.05-1.38.09-2.1.14v1.48h2.4v1.19h-3.85z"/><path d="m27.71 388.56c-1.15-.3-2.46-.61-3.1.64-.37.73-.41 1.93-.06 2.67.63 1.35 1.99.93 3.17.68.35.94-.01 1.32-.93 1.46-1.62.25-3.05-.27-3.76-1.48-.73-1.24-.6-3.03.31-4.17.88-1.11 2.71-1.7 4-1.16.32.13.44.74.65 1.12-.1.08-.19.16-.28.24"/><path d="m49.15 387.24v1.07c-.59.02-1.17.05-1.87.08v5.44h-1.48v-5.44h-1.85c-.05-.4-.08-.73-.13-1.15z"/><path d="m20.06 387.21h1.33v6.62h-1.33z"/><path d="m30.68 393.25c-.49.38-.8.79-1.05.76-.32-.05-.6-.45-.9-.7.26-.24.51-.64.8-.67.29-.04.62.3 1.15.61"/></g><path d="m242.16 374.46c1.14-3.26 2.19-6.27 3.29-9.41-.96-.51-1.81-1.05-2.73-1.41-10.1-4.03-16.65-11.49-21.06-21.23-3.36-7.42-7.21-14.63-10.65-22.02-1.6-3.43-2.76-7.06-4.07-10.61-.27-.72-.63-1.68-.37-2.28 2.18-4.96-.55-9.3-1.75-13.93 3.36-1.48 5.82-.97 7.94 2.21 5.65 8.47 11.61 16.74 13.44 27.09.13.73.56 1.46.99 2.09 6.59 9.59 13.18 19.17 19.83 28.72 1.64 2.36 6.46 2.39 8.35-.23 2.61-3.6 5.15-7.35 7.07-11.35 5.06-10.5 8.9-21.43 10.96-32.98.86-4.82 2.71-9.45 3.93-14.21.4-1.57.56-3.34.29-4.92-1.24-7.39-2.57-14.76-4.1-22.09-.51-2.46-1.43-4.94-2.65-7.14-5.73-10.38-11.39-20.8-17.53-30.93-4.3-7.08-7.15-14.46-8.59-22.63-.77-4.39-2.97-8.57-4.86-12.7-.97-2.11-2.93-3.2-5.53-2.87-1.76.22-3.58.05-5.37.04-3.33-.02-6.4.57-9.68 1.65-4.42 1.45-9.42 1.23-14.18 1.59-8.57.64-17.14 1.26-25.72 1.68-2 .1-4.05-.57-6.06-.96-.85-.17-1.77-.91-2.49-.73-4.32 1.13-9.17 1.58-12.71 3.95-3.56 2.38-7.14 2.97-10.94 3.33-2.7.25-4.63 1.27-5.37 3.72-2.49 8.21-4.96 16.43-7.09 24.73-1.86 7.25-3.05 14.67-4.92 21.92-.68 2.63-2.31 5.08-3.79 7.44-1.74 2.77-2.29 5.65-2.25 8.89.08 5.52.66 11.04-2.24 16.36-1.11 2.04-.19 5.25-.02 7.92.28 4.47.75 8.92 1.06 13.39.23 3.42-.1 6.94 3.28 9.34.78.56 1.16 1.91 1.39 2.97 2.4 10.95 11.34 16.26 19.02 23.09 5.29-5.92 7.77-12.36 8.56-19.5.96-8.78 1.5-17.65 5.3-25.82 1.82-3.91 2.86-7.85 2.95-12.24.04-2.01 2.08-3.97 3.54-6.54 3.28 4.09 5.81 6.96 5.63 11.69-.29 7.81.17 15.65.29 23.48.01.76-.08 1.57-.32 2.29-4.19 12.44-10.43 23.94-16.4 35.55-1.99 3.86-5.22 6.77-9.56 7.91-.88.23-2.62-.46-3.05-1.23-2.1-3.72-5.04-6.33-9.15-7.34-9.91-2.43-15.25-9.41-18.04-18.52-2.55-8.32-4.45-16.84-6.6-25.28-.22-.85-.19-1.78-.23-2.67-1.06-22.71 2.13-44.69 10.09-66.1 4.04-10.86 6.66-22.25 9.84-33.43.35-1.24.57-2.77.17-3.94-1.3-3.77-.38-7 1.73-10.11 1.61-2.36 1.66-4.79 1.15-7.62-.52-2.89-.55-6.07.11-8.92 2.2-9.58.25-18.63-2.68-27.65-.21-.64-.64-1.3-.59-1.91 1.03-10.86-7.4-18.06-10.62-27.28-1.94-5.56-4.74-10.86-7.58-16.05-2.01-3.69-4.48-7.21-7.19-10.43-3.12-3.7-5.09-7.55-4.15-13.28 1.51.72 2.98 1.06 3.97 1.95 4.83 4.32 9.37 8.97 16.04 10.57.83.2 1.54 1.66 1.95 2.67 1.74 4.32 3.28 8.72 5.03 13.03 3.61 8.9 7.25 17.79 10.98 26.64 2.38 5.64 4.83 11.27 9.45 16.17 2.77-4.27 5.46-8.2 7.95-12.25 8.82-14.37 16.69-29.2 19.01-46.17 1.13-8.29 1.25-16.72 1.76-25.1.43-7.04.83-14.08 1.1-21.12.08-2.21-.2-4.46-.49-6.66-.63-4.84-.2-7.03 2.55-11.58 3.82 1.46 6.52 3.9 6.61 8.23.11 5.26 1.33 10.08 4.05 14.64 1.59 2.67 1.03 5.57-.28 8.38-.56 1.21-1.16 2.94-.71 3.99 2.68 6.18 1.81 12.48 1.13 18.81-.58 5.45-1.7 10.94-1.44 16.35.17 3.68 1.44 7.99 3.73 10.76 4.66 5.64 10.28 10.51 15.64 15.56 5.76 5.43 11.71 10.68 17.51 16.07 2.39 2.22 4.7 4.44 8.63 4.65 1.19-5.23 2.56-10.39 3.51-15.62 1.34-7.44 4.01-14.34 7.18-21.18 2.05-4.41 3.14-9.26 4.64-13.92 1.04-3.23 2.56-5.95 7.16-6.66.22 4.92.63 9.67.58 14.41-.03 3.67-.32 7.41-1.1 10.99-.53 2.46-2.2 4.66-3.17 7.05-.79 1.94-1.75 3.96-1.86 5.99-.69 12.83-1.41 25.67-1.62 38.51-.12 7.25.71 14.52 1.15 21.79.05.88.26 1.77.55 2.6 7.19 20.61 16.42 40.35 25.69 60.07.33.7.75 1.38 1.25 1.97 10.02 11.83 13.4 26.29 16.25 40.95.64 3.28.84 6.65 1.18 9.99.36 3.47.4 6.71-2.2 9.72-1.2 1.39-1.2 3.89-1.54 5.92-.58 3.45-.3 7.22-1.62 10.33-3.97 9.35-8.44 18.5-12.95 27.61-1.11 2.24-2.92 4.24-4.77 5.98-4.07 3.83-8.19 7.64-12.6 11.06-5.27 4.12-11.07 5.42-17.2 4.3zm-55.93-254.57c-4.4 2.06-6.66 4.41-8.26 8.54-1.05 2.71-1.6 5.73-3.16 8.09-3.69 5.56-7.97 10.74-11.78 16.23-1.61 2.32-3.38 4.94-3.76 7.61-.77 5.35-3.11 8.53-8.61 9.04-3.63.34-5.03 2.46-5.02 5.97.02 4.84-1.08 9.78 1.53 14.9 11.07-6.07 23.13-4.73 34.87-5.63 2.1-.16 4.26-.44 6.23-1.13 11.39-3.98 23.06-6.06 35.16-6.18 2.97-.03 5.98-1.54 8.88-2.61 1.65-.61 2.15-1.89 1.55-3.8-.8-2.54-1.58-5.21-1.64-7.84-.12-4.71-2.28-8.13-5.88-10.72-2.44-1.75-5.27-2.94-7.75-4.64-4.67-3.21-9.51-6.28-13.74-10.01-6.47-5.69-12.47-11.89-18.62-17.82z" fill="#010000"/></svg>