<svg enable-background="new 0 0 400 400" viewBox="0 0 400 400" xmlns="http://www.w3.org/2000/svg"><path d="m374.8 390.4.4-.4c.7.5 1.3 1 1.8 1.4l-.5.5c-.5-.6-1.1-1.1-1.7-1.5zm1 7.3-.6-.3c.5-1.4 1.1-2.8 1.5-4.3.2.1.4.2.6.3-.5 1.3-1 2.8-1.5 4.3zm-.4-10.3.4-.4c.4.3 1 .8 1.7 1.4l-.5.5c-.4-.5-1-1-1.6-1.5zm2.5.3h1.7v-1h.6v1h3.5v-1h.6v1h1.8v.5h-1.8v1.4h-2v1h3.2v2h-3.2v.9h3.3v.5h-3.4c0 .3-.1.6-.1.9h4v.5h-3.7c.7.9 1.9 1.5 3.8 1.7-.1.2-.2.4-.3.6-2.1-.4-3.5-1.1-4-2.1-.4 1-1.8 1.7-4 2.2-.1-.2-.2-.4-.3-.6 2.1-.4 3.4-1 3.8-1.8h-3.4v-.5h3.6c.1-.3.1-.6.2-.9h-3.3v-.5h3.4c0-.3 0-.6 0-.9h-3.2v-2h3.3v-1h-2.1v-1.4h-1.7v-.5zm1.1 3.5v1h2.7c0-.3 0-.4 0-.4 0-.1 0-.2 0-.2 0-.1 0-.2 0-.3h-2.7zm1.2-3v.9h3.5v-.9zm4.7 3h-2.6v.6.4h2.6z" fill="#fbfcfa"/><path d="m393.6 386.7h.6v1.5h2.7v6.1h1.1v.6h-11v-.6h1.1v-6.1h2.7v-1.5h.6v1.5h2.1v-1.5zm-2.7 8.8.4.6c-1.2.6-2.5 1.3-3.8 1.9-.1-.2-.2-.4-.3-.6 1.2-.6 2.5-1.2 3.7-1.9zm-2.2-6.7v2.4h2.1v-2.4zm0 3v2.5h2.1v-2.5zm2.8-3v2.4h2.1v-2.4zm0 3v2.5h2.1v-2.5zm6 6.1c-1.4-.7-2.7-1.3-3.9-1.8l.3-.6c1.5.6 2.7 1.2 3.9 1.7zm-1.2-9.1h-2.1v2.4h2.1zm-2.1 3v2.5h2.1v-2.5z" fill="#fbfcfa"/><path d="m237.02 370.67c1.82-1.13 3.44-2.15 5.07-3.17-.11-.36-.23-.72-.34-1.08-1.43-.33-2.87-.66-4.43-1.02-.39.93-.72 1.63-.98 2.34-2.4 6.65-2.4 6.65-9.28 6.65-1.9 0-3.82-.13-5.71.03-2.55.21-4.64-.24-5.35-2.31-2.78.71-5.31 1.69-7.92 1.95-8.91.89-17.93 1.76-26.71-.46-9.82-2.48-19.89-.37-29.69-2.24-.63-.12-1.38 0-1.98.24-7.37 3-11.45-1.13-15.39-7.57 2.26.82 3.81 1.38 5.74 2.08.79-5.86 5.69-4.9 9.51-4.95 3.77-.05 7.98-2.92 11.76 1.28 2.72-2.91 6.07-3.63 10.16-2.62 2.37.58 4.23-.99 4.35-3.85.31-7.37.84-14.75.96-22.12.09-6-1.48-11.47-6.29-15.64-1.94-1.68-3.73-3.57-5.31-5.59-2.5-3.2-2.35-5.68.24-8.64-1.88-.64-3.73-1.26-5.56-1.9-9.43-3.28-12.74-12.35-18.26-19.33-.26-.32-.33-.84-.36-1.28-.22-2.92-.91-5.28-3.5-7.42-1.71-1.41-1.95-4.62-2.8-7.04-.52-1.47-.97-2.96-1.47-4.51 4.76-1.9 6.71 1.95 9.02 4.44 2.31 2.48 6.26 3.96 5.69 8.73 5.35.01 7.71 3.94 10.35 7.54 3.44 4.69 6.8 9.45 10.48 13.94 1.3 1.59 4.74 3.76 4.99 3.51 2.21-2.26 6.67-2.33 6.89-6.64-1.42-.44-2.78-.86-3.87-1.2 0-11.86-1.04-23.62.4-35.07.83-6.58.71-13.37 2.32-19.7.89-3.51.68-6.56.68-9.9 0-2.26 1.05-4.53 1.63-6.79 1.08-4.23.59-7.63-2-11.8-7-11.24-13.47-22.97-14.49-36.36 1.14-.91 2.67-1.59 2.67-2.28 0-.91-1.04-2.01-1.89-2.71-3.76-3.09-5.78-7.02-5.64-11.86.22-7.94.2-15.92 1.13-23.78.49-4.17 2.71-8.15 4.21-12.19.66-1.78 1.47-3.51 2.18-5.27 1.63-4.02 2.71-8.4 5-12 3.98-6.25 3.03-11.67-1.17-17.11-3.47-4.5-7.15-8.87-10.33-13.57-3.3-4.89-6.24-10.04-9.11-15.21-2.65-4.77-5.08-9.66-7.46-14.57-.86-1.77-1.32-3.74-2.12-6.1 4.25-.41 7.12 1.26 9.64 3.65 8.56 8.13 15.95 17.19 21.66 27.58 2.46 4.47 5.54 8.43 10.47 10.48 4.28 1.78 4.33 1.6 6.61-2.36 1.99-3.45 4.3-6.75 6.72-9.92 4.87-6.4 9.8-12.77 14.93-18.97 3.84-4.64 7.51-9.68 12.24-13.22 3.15-2.36 6.4-4.53 9.26-7.31 2.08-2.02 4.08-1.29 4.83 1.51.23.84.44 1.99.05 2.63-2.95 4.8-5.94 9.6-9.19 14.2-.98 1.38-2.82 2.16-4.28 3.19-2.9 2.05-5.14 4.18-6.53 7.94-1.36 3.66-3.35 8.2-8.59 8.96-.77.11-1.67 1.4-1.98 2.32-.96 2.86-2.57 5.06-4.49 7.46-3.81 4.74-6.7 10.31-9.32 15.85-.73 1.54.4 4.42 1.44 6.23 3.39 5.89 7 11.66 10.78 17.3 11.93 17.82 17.56 36.61 9.29 57.65-.2.51-.39 1.21-.8 1.44-4.79 2.64-5.03 7.53-6.08 12.04-.35 1.52-.76 3.04-1.23 4.53-1.02 3.23-2.2 3.57-4.97 1.47-1.84 2.49-3.63 4.73-2.46 8.4.64 2.01-.15 4.65-.78 6.87-1.43 5.03-3.16 9.97-4.76 14.96-.1.32-.24.65-.24.97-.05 5.6-.18 11.2-.1 16.8.11 7.33-.68 14.48-3.03 21.47-.46 1.38.13 3.09.04 4.64-.19 3.39-.49 6.77-.79 10.15-.19 2.15-.54 4.28-.65 6.43-.13 2.48-.13 4.97-.12 7.46.01 4.31.04 8.62.14 12.92.04 1.45.22 2.91.54 4.32.8 3.41.1 5.95-3.57 7.13-.52.17-.87.87-1.34 1.36 4.27 2.48 9.66 1.21 12.38-2.45 1.78-2.39 4.04-4.41 6.03-6.64 1.75-1.96 3.42-3.99 5.12-6 .42-.49.75-1.4 1.22-1.46 4.77-.66 6.53-4.65 8.85-7.95 3.81-5.42 8.92-8.95 15.24-10.79-2.4-4.65.67-8.54 5.81-9 3-3.19 5.39-5.72 8.05-8.54 1.45 5.94 1.21 6.5-3.79 8.54-2.33.95-1.85 2.65-1.09 4.13 1 1.97.77 3.58-.48 5.26-5.15 6.9-10.25 13.83-15.43 20.7-.42.56-1.24.96-1.95 1.14-1.92.5-2.87 2.41-4.14 3.17-5.72 3.42-7.24 10.45-13.22 13.82-4.4 2.48-9.16 5.64-11.03 11.17-.22.66-1.4.98-2.08 1.52-1.36 1.09-2.81 2.1-4 3.36-3.11 3.32-5.24 6.86-3.22 11.77 1.92 4.68-.9 8.59-3.12 12.63 2.63 2.1 5.37 2.48 8.32 1.83 3.8-.85 7.55-2.14 11.32.31.73.47 1.97.22 2.97.22 7.95.01 15.9-.18 23.84.07 5.53.18 11.05.91 16.56 1.54.91.1 1.69 1.03 2.6 1.42 2.18.96 4.42 1.78 6.59 2.78.94.43 1.74 1.15 2.6 1.74-.1.28-.2.57-.3.85-5.75 1.33-11.46 2.95-17.28 3.85-2.28.38-5.2-.24-5.73-3.4zm-57.11-267.65c-1 1.81-2.11 3.5-2.87 5.33-.33.78-.29 2.45.16 2.71 3.06 1.76 1.56 3.95.76 6.03-.84 2.18-1.9 4.28-2.76 6.46-4.22 10.7-8.35 21.3-3.47 33.09 2.29 5.52 3.25 11.58 5.4 17.17 1.8 4.69 4.3 9.09 2.59 14.36-.12.36.12.84.05.41 1.96 1.54 3.33 2.67 4.76 3.74.97.72 1.99 1.85 3.01 1.88.83.02 2.07-1.14 2.51-2.07 4.07-8.57 8.55-16.99 11.77-25.87 2.2-6.08 2.62-12.81 3.71-19.27.13-.75-.54-1.66-.93-2.45-5.8-11.81-11.64-23.61-17.4-35.44-1.46-2.99-3.38-5.26-7.29-6.08z" fill="#010101"/></svg>