<svg enable-background="new 0 0 400 400" viewBox="0 0 400 400" xmlns="http://www.w3.org/2000/svg"><path d="m276.71 254.23c1.44 8.33 2.97 16.1 4.05 23.95.58 4.26.62 8.63.46 12.94-.15 3.82.62 6.91 4.32 8.62 8.11 3.75 16.08 7.69 25.6 6.42 2.15-.29 5.04 1.56 6.89 3.2 2.03 1.8.82 4.9-1.8 5.76-2.02.66-4.11 1.12-6.09 1.85-4.26 1.57-8.15 2.4-12.47-.65-2.23-1.58-5.73-1.64-8.69-1.86-10.48-.74-20.98-1.26-31.48-1.85-1.11-.06-2.37-.35-3.32.04-5.68 2.31-11.42 1.76-17.12.43-5.54-1.29-10.58 1.02-15.85 1.65-1.18.14-2.44.25-3.56-.02-4.76-1.13-9.44-2.61-14.22-3.58-6.13-1.24-8.47-3.45-9.37-9.84 7.87-1.86 15.77-3.73 23.11-5.47.5-13.7 1.03-26.97 1.38-40.25.02-.94-1.11-2.47-2.02-2.78-4.64-1.58-7.48-4.87-9.93-8.92-3.59-5.93-7.63-11.59-11.32-17.46-.77-1.22-1.32-2.91-1.17-4.3 1.1-10.12 2.34-20.22 3.75-30.3.19-1.35 1.37-2.99 2.57-3.7 10.27-6.12 21.76-8.51 33.35-10.55 5.24-.92 5.8-1.75 4.99-6.85-.63-3.98-1.12-7.98-1.96-11.91-.29-1.36-1.2-2.94-2.31-3.71-4.6-3.16-9.26-6.3-14.15-8.98-8.14-4.46-13.48-10.85-16.63-19.67-7.85-22.04-11.13-44.39-6.4-67.57.13-.66.1-1.46.48-1.93 1.04-1.31 2.09-3.15 3.45-3.48 1.01-.25 3.08 1.25 3.71 2.46 4.72 9.11 6.7 18.91 6.56 29.14-.03 2.57-.21 5.15-.42 7.71-1.29 15.06 5.22 27.35 14.26 38.45 2.78 3.42 7.14 5.56 10.75 8.26 4.6-4.92 5.31-10.36 3.78-15.82-3.38-12.05-5.32-24.21-4.64-36.75.09-1.65-.05-3.42-.57-4.98-3.72-11.02-2.78-22.58-3.9-33.89-.19-1.88.79-3.9 1.36-5.82 1.64-5.54 3.33-11.07 5.03-16.68 4.06.66 5.82 3.45 6.7 6.59 1.2 4.28 2.14 8.69 2.65 13.11 2.14 18.33 4.16 36.68 6.04 55.04.81 7.88 1.13 15.81 1.8 23.71.16 1.88.84 3.72 1.5 6.49 7.29-6.99 14.38-12.66 17.79-21.42.55-1.41.86-3.05.76-4.54-.47-7.03-1.16-14.05-1.68-21.08-.1-1.41-.09-2.96.37-4.26 2.92-8.34 4.26-16.89 3.9-25.71-.18-4.38 1.3-7.87 6.06-10.36 1.36 2.74 3.03 5.35 3.96 8.2.92 2.84 1.48 5.91 1.53 8.89.2 12.75.57 25.53.03 38.26-.3 6.95-2.21 13.85-3.59 20.74-.26 1.31-1.21 2.69-2.23 3.6-8.71 7.7-17.44 15.39-26.35 22.87-2.39 2-3.38 4.01-3.26 7.11.24 6.04.21 12.09.01 18.13-.08 2.46.79 3.8 3 4.43 1.5.42 3.08 1.21 4.53 1.02 6.8-.89 13.06 1.23 19.39 3.05 2.58.74 5.24 1.25 7.74 2.17 3.61 1.33 7.18 1.61 10.79.27 2.14-.8 3.57-.01 5.01 1.52 3.69 3.95 4.34 8.93 4.97 13.95.73 5.87 1.19 11.79 2.34 17.58 1.24 6.25.03 12.24-.85 18.31-.46 3.21-1.04 6.43-1.14 9.65-.08 2.59-1.14 4.54-3.32 5.32-4.26 1.52-8.64 2.83-13.07 3.73-5.06 1.02-10.18 1.52-15.84 2.32zm-32.82-15.84c.01-.26.02-.53.03-.79 10.25.49 20.5 1.09 30.76 1.43 7.47.25 14.96.32 22.44.12 4.27-.12 6.01-2.28 4.55-6.02-2.79-7.12-2.7-14.4-2.57-21.79.14-7.95-3.92-13.3-11-16.45-2.12-.94-4.42-1.84-6.7-2.02-5.56-.46-11.15-.55-16.73-.67-9.86-.21-19.69-2.8-29.6.02-4.98 1.41-10.36 1.11-14.88 4.52-2.15 1.62-5.15 2.37-7.88 2.9-1.69.33-2.79.65-2.84 2.43-.25 8.81-.94 17.65-.49 26.42.36 7.01 1.71 8.1 8.86 8.74 8.65.75 17.37.8 26.05 1.16zm5.79 13.63c-3 0-5.57-.02-8.13 0-2.92.02-4.44 1.3-4.59 4.43-.31 6.58-1.19 13.14-1.24 19.72-.05 5.75.54 11.52 1.2 17.25.17 1.45 1.36 3.46 2.6 3.99 7.97 3.38 16.25 4.79 24.79 2.39 1.07-.3 2.74-1.24 2.79-1.98.45-6.41 1.51-12.98.58-19.24-.86-5.8-2.84-11.17-.48-17.14 1.47-3.7-.46-6.66-4.38-7.5-4.46-.95-9.02-1.34-13.14-1.92z" fill="#010102"/><path d="m162.36 329c-3.39-5.21-4.16-10.47-4.79-15.82-.34-2.86-1.01-5.71-1.89-8.45-1.1-3.44-3.72-5.4-7.17-6.44-13.13-3.97-26.32-7.7-38.65-13.99-4.18-2.13-9.13-2.78-13.73-4.06-2.52-.7-3.5.71-3.61 2.94-.09 1.89-.21 3.83.06 5.69 1.68 11.83 3.55 23.63 5.17 35.47.56 4.08.77 8.23.81 12.35.1 10.18.08 20.36-.06 30.54-.03 1.94-.59 4-1.42 5.76-.5 1.05-2.01 1.62-3.06 2.41-.45-.12-.89-.24-1.34-.37-2.32-11.23-4.84-22.43-6.9-33.71-1.77-9.67-3.02-19.44-4.48-29.17-.22-1.44-.55-2.9-.45-4.33 1.01-14.15-2.55-27.76-4.85-41.52-.44-2.63-.9-5.26-1.43-8.35 3.37-.44 6.53-.94 9.7-1.2.71-.06 1.66.55 2.2 1.13 4.4 4.66 9.77 7.91 15.73 9.95 16.17 5.54 32.53 10.57 47.68 19.65.5-1.28 1.17-2.17 1.14-3.02-.24-5.72-.14-11.47-4.37-16.23-4.94-5.57-10.53-10.26-16.74-14.35-6.72-4.43-12.98-9.62-19.92-13.65-8.78-5.1-13.1-12.76-14.1-22.31-1.02-9.77-1.28-19.62-1.71-29.44-.07-1.61.68-3.26 1.03-4.9 1.86-8.61 4.01-17.16 5.5-25.83 1.97-11.43 5.25-22.35 10.09-32.89 7.59-16.55 14.95-33.21 22.4-49.83.45-1 .94-1.98 1.48-3.1 3.47.75 5.24 2.96 5.4 6.09.4 7.69-.77 15.04-4.61 21.97-2.85 5.15-5.14 10.65-7.25 16.16-.73 1.92-.72 4.48-.13 6.48 6.38 21.85 7.98 44.4 9.97 66.89.78 8.79.29 17.7 1.31 26.44 1.35 11.63 3.56 23.17 5.55 34.72.17 1.01 1.31 2 2.24 2.7 4.74 3.56 9.6 6.96 14.3 10.58 1.04.8 1.96 2.14 2.3 3.41 1.59 5.94 3 11.92 4.36 17.91.29 1.28.46 2.74.15 3.98-1.44 5.73-.71 11.33.93 16.83 2.19 7.34.19 13.92-3.38 20.21-.65 1.14-2.2 1.75-3.46 2.7zm-33.02-91.98c-.11-1.21-.22-2.3-.29-3.39-.75-11.37-2.08-22.73-2.11-34.1-.04-15.96-2.38-31.64-4.27-47.39-.41-3.43-1.84-6.55-5.12-8.81-1.09 1.76-2.56 3.15-2.87 4.77-1.48 7.69-4.07 14.96-6.74 22.32-4.75 13.13-5.23 26.93-3.24 40.73 1.14 7.88 3.41 15.29 10.68 19.99 1.11.72 2.16 1.68 2.93 2.74 2.86 3.91 6.75 3.7 11.03 3.14z" fill="#010102"/><g fill="#fcfbfa"><path d="m385.2 377.6.6-.7c.6.4 1.3.9 1.9 1.5l-.6.7c-.8-.5-1.4-1-1.9-1.5zm.3 7.1c.6-1.4 1.1-2.9 1.5-4.5.3.1.6.3.9.4-.5 1.4-1 2.9-1.5 4.4zm.2-10.1.6-.6c.7.5 1.3 1.1 1.9 1.6l-.7.7c-.6-.6-1.2-1.2-1.8-1.7zm8.4-.8h.8v.9h1.8v.7h-1.8v1.8h-.8v-.3h-1.2v.9h3.3v2.6h-.8v-.4h-2.5c0 .3 0 .6-.1.8h3.4v.7h-3.5c0 .3-.1.6-.1.8h4v.7h-3.5c.7.9 1.9 1.3 3.6 1.5-.2.2-.4.5-.6.9-1.9-.3-3.2-1.1-3.8-2.3-.5 1.1-1.8 2-3.9 2.4-.2-.3-.4-.5-.6-.8 1.9-.4 3.1-.9 3.6-1.7h-3.2v-.7h3.5c.1-.2.1-.5.2-.8h-3.3v-.7h3.4c0-.2 0-.5 0-.8h-2.4v.3h-.8v-2.6h3.3v-.9h-1.2v.3h-.8v-1.8h-1.8v-.7h1.8v-.9h.8v.9h3.2zm-4.4 5.5h2.4c0-.3 0-.6 0-.9h-2.4zm1.2-3.1h3.2v-.8h-3.2zm4.4 2.2h-2.4v.9h2.5v-.9z"/><path d="m389.2 385.8h.9v1.5h1.9v-1.5h.9v1.5h2.7v6h1.1v.9h-11.3v-.9h1.1v-6h2.7zm.2 8.7.5.8c-1.2.6-2.5 1.3-4 1.9-.2-.3-.3-.6-.6-.8 1.6-.6 3-1.3 4.1-1.9zm-2-4.3h1.9v-2.1h-1.9zm0 3.1h1.9v-2.2h-1.9zm2.7-3.1h1.9v-2.1h-1.9zm0 3.1h1.9v-2.2h-1.9zm2.4 1.3c1.4.6 2.7 1.2 4.1 1.8l-.5.9c-1.5-.7-2.8-1.4-4.1-1.9zm2.2-6.5h-1.9v2.1h1.9zm-1.9 5.2h1.9v-2.2h-1.9z"/></g></svg>