<svg enable-background="new 0 0 400 400" viewBox="0 0 400 400" xmlns="http://www.w3.org/2000/svg"><path d="m139.09 90.78c4.28 4.92 3.4 11.09-1.25 16.91-4.51 5.65-8.82 11.56-12.35 17.84-2.06 3.66-2.46 8.26-3.46 12.48-.16.69.42 1.56.65 2.35.74-.37 1.53-.66 2.2-1.13 5.16-3.69 10.18-7.61 15.51-11.03 1.67-1.07 4.09-2.95 6.29-.69 1.38 1.42-.28 5.49-2.44 7.68-4.15 4.2-8.16 8.54-12.13 12.92-.96 1.05-1.6 2.42-2.26 3.71-3.17 6.19-1.51 10.99 4.92 13.88 4.07 1.83 8.34 3.25 12.37 5.17 2.64 1.26 5 3.08 7.85 4.88-4.65 4.41-9.46 4.47-14.35 3.42-5.94-1.27-11.67-3.05-16.14-7.6-1.07-1.09-2.79-1.52-5.04-2.68.98 6.45-1.75 12.44 2.11 17.44 1.93 2.5 4.86 4.36 7.61 6.08 2.53 1.58 5.5 2.42 8.12 3.87 7.45 4.14 15.46 5.68 23.88 5.56 6.15-.08 12.3-.37 18.44-.2 2.51.07 3.46-.8 3.67-3.05.16-1.78.65-3.6.43-5.33-1.66-12.86 1.05-25.43 2.59-38.05.8-6.54 1.76-12.27-5.02-16.97-13.22-9.17-16.42-22.41-14.23-37.89 1.65-11.66-.87-23.13-4.21-34.34-1.11-3.71-2.4-7.37-3.69-11.31 3.1-.74 5.36-1.14 6.48 2.06.2.58.76 1.15 1.3 1.5 6.25 4.11 8 10.56 8.7 17.35.72 7.01 1.17 14.07 1.26 21.11.06 4.56-.88 9.11-1.15 13.69-.56 9.61 6.13 14.79 12.57 20.05.62.51 1.64.53 2.74.85 1.94-13.48 6.57-26.17 6.12-39.88-.5-15.26-4.37-29.54-10.16-43.43-1.27-3.05-.81-5.3.84-7.05 2.36.6 4.67.69 6.38 1.75 1.77 1.09 3.56 2.89 4.3 4.78 8.97 22.92 10.96 46.58 7.08 70.81-.44 2.76-.69 5.55-1.01 8.33-.05.43-.01.87-.01 1.31 14.11-1.12 21.83-12.53 24.13-25.03 2.43-13.25 2.09-26.73-.22-40.09-.59-3.42-1.1-6.85-1.47-10.29-.09-.82.52-1.72.81-2.58.77.46 1.78.74 2.28 1.4 2.1 2.76 4.06 5.62 6.04 8.47.43.63.87 1.34 1.01 2.08 1.27 6.57 2.34 13.19 3.73 19.73 1.84 8.65-.12 16.88-2.26 25.14-.36 1.41-.79 2.8-1.04 4.23-2.71 15.47-13.46 23.75-26.67 29.77-1.32.6-3.05.46-4.59.42-5.31-.12-6.65.86-7.58 6.29-.75 4.41-1.3 8.85-1.88 13.29-1.65 12.58-2.44 25.14-.41 37.79.5 3.1 2.14 4.12 4.69 3.93 2.06-.16 4.06-1.08 6.1-1.6 3.74-.95 7.45-2.22 11.25-2.69 21.42-2.68 35.14-17.71 39.47-36.62.24-1.07.15-2.22.14-3.34-.02-2.03-1.18-2.92-3.04-2.42-8.37 2.27-14.94-2.22-21.67-5.83-1.82-.98-3.13-2.92-4.68-4.41.17-.48.34-.96.51-1.44 2.3.11 4.88-.41 6.85.46 5.87 2.57 11.74.08 17.59.53 1.96.15 2.38-1.76 1.71-3.49-2.66-6.9-7.17-12.25-13.57-15.96-1.92-1.11-4.14-1.85-4.14-4.79 3.67-1.76 7.4-2.16 11.23-.48 6.2 2.72 11.4 6.53 14.37 12.9.61 1.32 1.86 2.33 3 3.7 4.36-4.29 5.47-9.37 6.16-14.58.28-2.09.19-4.24.18-6.37-.01-4.94-1.41-9.17-5.76-12.14-2.11-1.44-3.76-3.56-5.87-5-1.76-1.21-3.8-2.27-5.87-2.72-4.74-1.02-5.14-1.23-5.98-7.1 2.79 0 5.62-.58 8.12.1 11.08 3.01 20.56 8.48 25.22 19.63 3.53 8.45 2.36 16.7-2 24.79-2.96 5.49-5.31 11.24-9.62 15.97-.94 1.03-.41 3.63-.18 5.46 1.95 15.6-6.36 33.58-19.57 42.17-2.16 1.4-4.38 2.72-6.42 4.28-3.73 2.84-7.74 4.84-12.5 5.07-.44.02-.93.11-1.29.34-7.56 4.79-16.28 5.21-24.75 6.55-.77.12-1.55.24-2.31.43-4.63 1.14-4.83 1.45-4 6.09 1.39 7.82 3.12 15.64 1.57 23.63-1.66 8.51-7.38 14.12-14.22 18.65-1.4.93-3.88.88-5.65.43-2.67-.68-4.87-.43-7.39.68-3.33 1.46-7.02 2.11-10.38 3.51-2.07.86-4.4 2.06-5.63 3.8-3.72 5.26-7.22 10.71-10.3 16.37-1.82 3.34-.89 5.56 2.86 6.31 3.8.76 7.9.46 11.83.09 3.42-.32 6.81-1.26 10.15-2.15 1.64-.44 3.3-1.2 4.67-2.18 4.34-3.12 9.02-2.9 13.79-1.57.6.17 1.3 1.47 1.26 2.21-.28 5.34.16 10.48 2.95 15.21.26.44.5 1.13.35 1.56-3.41 9.81-2.66 20.15-3.67 30.24-.78 7.73-2.39 14.91-7.02 21.36-1.86 2.58-2.83 5.8-4.19 8.73-1.73 3.72-4.52 6.22-9.32 7.94.35-2.48.05-4.69.95-6.16 10.4-17.06 10.91-36.09 11.28-55.17.04-1.79.2-3.59.12-5.37-.27-5.6-4.01-8.31-9.36-6.7-3.64 1.09-7.14 2.68-10.81 3.6-3.39.85-6.97.93-10.39 1.67-2.24.48-4.44 1.36-6.51 2.37-8.14 3.95-14.34-.03-13.58-9.15.85-10.16 2.52-20.2 7.57-29.3.62-1.11 1.47-2.27 2.51-2.94 5.06-3.28 10.11-6.64 15.39-9.54 6.83-3.75 13.76-7.38 20.87-10.55 9.09-4.06 11.57-7.99 9.93-17.74-.59-3.52-1.64-6.97-2.16-10.5-.41-2.8-2.05-4.31-4.51-4.65-6.07-.86-12.19-1.38-18.28-2.11-3.53-.42-7.05-.95-10.57-1.45-6.17-.87-12.34-1.72-18.5-2.63-6.5-.96-11.75-3.78-15.35-9.59-3.76-6.05-8.8-11.46-9.66-18.92-.87-7.46-.96-14.88 2.05-22.07.68-1.61.79-3.85.25-5.51-4.78-14.8 1.12-27.68 7.38-40.34 1.67-3.39 5.09-5.9 7.63-8.87 2.98-3.48 5.84-7.06 8.84-10.53.56-.79 1.55-1.22 2.49-1.86z" fill="#010100"/><path d="m181.19 25.11c4.62 1.12 9.29 6.14 9.82 10.48.07.54-.28 1.57-.57 1.62-.9.15-1.98.21-2.78-.16-2.9-1.32-6.57-8.1-6.47-11.94z" fill="#010100"/><g fill="#fafbfa"><path d="m6.4 11.7c-1-.8-1.9-1.6-2.9-2.3l.6-.7c.9.7 1.9 1.4 2.9 2.2zm-2.1 8.3c.7-2.1 1.4-4.2 2-6.4.2.1.6.3 1 .4-.7 2.3-1.3 4.4-1.9 6.4zm3-12.8c-1.1-.9-2.1-1.7-2.9-2.4l.6-.7c1 .8 2 1.5 3 2.4zm1.4-1.3v-.9h10.2v.9c-.9 4.2-2.3 7.3-4.1 9.4 1.3 1.4 3.2 2.7 5.7 4-.2.2-.4.5-.7.9-2.5-1.4-4.4-2.7-5.7-4.2-1.4 1.5-3.5 3-6.1 4.4 0 0 0 0-.1-.1-.3-.4-.5-.7-.7-.8 2.7-1.3 4.7-2.8 6.2-4.2-1.8-2.2-3-5.3-3.7-9.4zm9.2 0h-7.1c.6 3.8 1.7 6.7 3.4 8.7 1.7-2 2.9-4.8 3.7-8.7z"/><path d="m31.6 3.6h.9v2.3h4.1v9.1h1.7v.9h-16.6v-.9h1.7v-9.1h4.1v-2.3h.9v2.3h3.1v-2.3zm-4 13.3.6.8c-1.9.9-3.8 1.9-5.8 2.8-.2-.3-.3-.6-.5-.9 2-.9 3.9-1.8 5.7-2.7zm-3.2-10.1v3.7h3.1v-3.7zm0 4.5v3.7h3.1v-3.7zm4.1-4.5v3.7h3.1v-3.7zm0 4.5v3.7h3.1v-3.7zm9.1 9.1c-2.1-1.1-4.1-2-5.8-2.7l.5-.8c2.2.9 4.1 1.8 5.8 2.6zm-1.9-13.6h-3.1v3.7h3.1zm-3.2 4.5v3.7h3.1v-3.7z"/></g></svg>