<svg enable-background="new 0 0 400 400" viewBox="0 0 400 400" xmlns="http://www.w3.org/2000/svg"><path d="m82.99 270.26c-1.59-10.53 3.4-21.66 7.66-32.95 1.07-2.82 2.18-5.63 3.14-8.48 2.65-7.84 5.89-15.11 11.73-21.44 9.67-10.46 10.67-23.69 9.51-37.2-.18-2.12-.41-4.23-.63-6.34-.67-6.28-2.72-11.81-6.33-17.26-9.29-14.03-10.48-29.67-6.57-45.76 4.33-17.79 8.97-35.51 13.28-53.3 1.05-4.33 1.39-8.83 1.95-13.26.24-1.88.91-2.9 2.95-3.37 5.44-1.26 10.8-2.84 16.19-4.29 9.42-2.54 17.58 1.58 20.85 10.71 1.35 3.78 2.7 7.61 3.5 11.53 1.03 5.04 3.15 9.45 5.93 13.7 3.86 5.89 7.32 12.04 11.23 17.9 7.53 11.29 8.86 23.62 6.46 36.6-.81 4.39-1.89 8.73-2.93 13.08-1.92 8.05-4.03 15.92-10.52 21.9-2.31 2.13-3.8 5.23-5.4 8.04-3.04 5.35-4.23 10.96-2.29 17.07 2.67 8.4 5.05 16.9 7.77 25.29.55 1.7 1.93 3.23 3.18 4.6 8.3 9.12 15.83 18.69 17.29 31.48.76 6.65 1.27 13.37 1.35 20.06.13 10.84.24 21.71-.5 32.51-.31 4.61-2.14 9.41-4.37 13.54-8.75 16.22-17.9 32.22-26.96 48.27-3.92 6.95-8.33 13.55-14.93 18.31-1.62 1.17-3.39 2.2-5.23 2.96-4.52 1.86-8.28 1.87-12.22-2.34-17.67-18.86-31.7-39.87-39.86-64.52-3.75-11.34-5.43-23.05-5.23-37.04zm42.96 60.02c3.66-1.97 6.92-3.91 10.35-5.5 2.43-1.13 3.69-2.78 4.55-5.3 3.81-11.2 8-22.27 11.73-33.5 2.31-6.97 5-14.02 5.82-21.22 1.96-17.31-1.03-33.66-12.83-47.43-3.14-3.66-6.93-6.21-12.39-6.94-3.03 5.61-6.01 11.34-9.17 16.96-2.68 4.75-5.1 9.75-8.44 14.01-9.02 11.47-12.63 24.49-10.67 38.63 2.53 18.35 10.45 34.71 21.05 50.29zm16.56-254.79c-15.56 21.77-14.83 55.58-3.94 68.14 4.64-6.46 9.29-12.88 13.88-19.34.5-.7.88-1.58 1.03-2.43 1.94-10.92 1.69-21.84-.77-32.61-1.35-5.91-4.38-10.97-10.2-13.76z" fill="#010100"/><path d="m290.99 30.39c4.65 2.36 6.8 5.54 6.75 11.16-.08 7.99 1.35 15.99 1.9 24.01.15 2.23-.06 4.71-.9 6.75-2.91 7.13-6.28 14.08-9.21 21.21-.64 1.55-.83 3.83-.17 5.3 4.66 10.39 9.2 20.85 14.53 30.9 6.53 12.31 7.66 25.54 8.08 39 .03.99-.67 2.09-1.25 3-4.08 6.41-7.81 13.12-12.47 19.09-4.45 5.7-9.82 10.69-14.9 15.88-4.96 5.07-7.1 11.1-6.12 18.05.29 2.04 1.32 4.24 2.65 5.83 4.37 5.23 9.13 10.14 13.55 15.32 10.41 12.2 15.02 25.92 11.07 41.99-3.02 12.25-5.7 24.58-8.57 36.87-.2.86-.65 1.66-1.01 2.47-3.87 8.89-8.11 17.63-11.54 26.69-4.42 11.69-11.12 16.12-23.38 14.29-.97-.15-2.18-.74-2.71-1.51-12.64-18.61-24.77-37.52-32.21-58.94-3.73-10.73-5.54-21.87-6-33.22-.05-1.29.36-2.64.75-3.9 5.48-17.71 11.03-35.41 16.41-53.15.45-1.49.36-3.75-.49-4.91-5.4-7.41-6.72-15.55-6.44-24.59.52-16.99.11-34.01.2-51.02.01-2.06.41-4.23 1.13-6.16 5.22-14.03 10.54-28.02 15.9-42 .67-1.75 1.55-3.49 2.69-4.96 13.44-17.33 26.94-34.6 40.43-51.89.42-.52.87-1.01 1.33-1.56zm-32.95 294.03c7.4-6.02 13.03-12.44 15.2-21.37 1.57-6.46 4.09-12.49 8.07-17.88.5-.68.97-1.63.92-2.41-.83-12.93-5.21-23.96-17.06-30.77-5.28-3.03-5.62-2.88-8.67 2.26-.68 1.15-1.36 2.31-1.97 3.51-11.55 22.71-9.51 44.71 3.51 66.66zm.22-138.32c4.48-3.44 8.58-6.52 12.58-9.73.7-.56 1.16-1.62 1.38-2.54 1.88-7.81 3.8-15.61 5.46-23.47 2.36-11.16-2.68-19.82-13.77-23.65-4.8 14.41-9.4 28.85-9.51 44.24-.01 5.15 1.06 10.15 3.86 15.15z" fill="#010100"/><g fill="#fafbfa"><path d="m6.4 11.7c-1-.8-1.9-1.6-2.9-2.3l.6-.7c.9.7 1.9 1.4 2.9 2.2zm-2.1 8.3c.7-2.1 1.4-4.2 2-6.4.2.1.6.3 1 .4-.7 2.3-1.3 4.4-1.9 6.4zm3-12.8c-1.1-.9-2.1-1.7-2.9-2.4l.6-.7c1 .8 2 1.5 3 2.4zm1.4-1.3v-.9h10.2v.9c-.9 4.2-2.3 7.3-4.1 9.4 1.3 1.4 3.2 2.7 5.7 4-.2.2-.4.5-.7.9-2.5-1.4-4.4-2.7-5.7-4.2-1.4 1.5-3.5 3-6.1 4.4 0 0 0 0-.1-.1-.3-.4-.5-.7-.7-.8 2.7-1.3 4.7-2.8 6.2-4.2-1.8-2.2-3-5.3-3.7-9.4zm9.2 0h-7.1c.6 3.8 1.7 6.7 3.4 8.7 1.7-2 2.9-4.8 3.7-8.7z"/><path d="m31.6 3.6h.9v2.3h4.1v9.1h1.7v.9h-16.6v-.9h1.7v-9.1h4.1v-2.3h.9v2.3h3.1v-2.3zm-4 13.3.6.8c-1.9.9-3.8 1.9-5.8 2.8-.2-.3-.3-.6-.5-.9 2-.9 3.9-1.8 5.7-2.7zm-3.2-10.1v3.7h3.1v-3.7zm0 4.5v3.7h3.1v-3.7zm4.1-4.5v3.7h3.1v-3.7zm0 4.5v3.7h3.1v-3.7zm9.1 9.1c-2.1-1.1-4.1-2-5.8-2.7l.5-.8c2.2.9 4.1 1.8 5.8 2.6zm-1.9-13.6h-3.1v3.7h3.1zm-3.2 4.5v3.7h3.1v-3.7z"/></g></svg>