<svg enable-background="new 0 0 400 400" viewBox="0 0 400 400" xmlns="http://www.w3.org/2000/svg"><path d="m374.8 390.4.4-.4c.7.5 1.3 1 1.8 1.4l-.5.5c-.5-.6-1.1-1.1-1.7-1.5zm1 7.3-.6-.3c.5-1.4 1.1-2.8 1.5-4.3.2.1.4.2.6.3-.5 1.3-1 2.8-1.5 4.3zm-.4-10.3.4-.4c.4.3 1 .8 1.7 1.4l-.5.5c-.4-.5-1-1-1.6-1.5zm2.5.3h1.7v-1h.6v1h3.5v-1h.6v1h1.8v.5h-1.8v1.4h-2v1h3.2v2h-3.2v.9h3.3v.5h-3.4c0 .3-.1.6-.1.9h4v.5h-3.7c.7.9 1.9 1.5 3.8 1.7-.1.2-.2.4-.3.6-2.1-.4-3.5-1.1-4-2.1-.4 1-1.8 1.7-4 2.2-.1-.2-.2-.4-.3-.6 2.1-.4 3.4-1 3.8-1.8h-3.4v-.5h3.6c.1-.3.1-.6.2-.9h-3.3v-.5h3.4c0-.3 0-.6 0-.9h-3.2v-2h3.3v-1h-2.1v-1.4h-1.7v-.5zm1.1 3.5v1h2.7c0-.3 0-.4 0-.4 0-.1 0-.2 0-.2 0-.1 0-.2 0-.3h-2.7zm1.2-3v.9h3.5v-.9zm4.7 3h-2.6v.6.4h2.6z" fill="#fbfcfa"/><path d="m393.6 386.7h.6v1.5h2.7v6.1h1.1v.6h-11v-.6h1.1v-6.1h2.7v-1.5h.6v1.5h2.1v-1.5zm-2.7 8.8.4.6c-1.2.6-2.5 1.3-3.8 1.9-.1-.2-.2-.4-.3-.6 1.2-.6 2.5-1.2 3.7-1.9zm-2.2-6.7v2.4h2.1v-2.4zm0 3v2.5h2.1v-2.5zm2.8-3v2.4h2.1v-2.4zm0 3v2.5h2.1v-2.5zm6 6.1c-1.4-.7-2.7-1.3-3.9-1.8l.3-.6c1.5.6 2.7 1.2 3.9 1.7zm-1.2-9.1h-2.1v2.4h2.1zm-2.1 3v2.5h2.1v-2.5z" fill="#fbfcfa"/><g fill="#010101"><path d="m139.76 331.73c-6.34 2.17-7.06-2.83-8.77-6.55-2.79-6.09-5.5-12.21-8.36-18.56 1.28-.19 2.47-.1 3.36-.57.81-.43 1.8-1.48 1.79-2.24-.02-.78-1.04-2-1.83-2.2-2.25-.57-4.61-.71-7.36-1.08 0-3.99.2-7.87-.09-11.72-.13-1.71-.76-3.88-1.96-4.92-5.66-4.89-8.28-10.94-8.82-18.34-.41-5.56-1.59-11.06-2.63-16.56-.44-2.33-.67-4.28 2.14-4.71.08-.56.21-.84.12-.97-4.9-7.08-2.31-14.54-1.25-21.97.22-1.56-.13-3.59-1.02-4.84-4.46-6.34-4.43-13.7-5.16-20.9-.19-1.89-.26-3.82-.06-5.7.11-1.08.6-2.35 1.36-3.11 2.28-2.27 3.01-4.89 2.49-7.97-.04-.22-.04-.46-.13-.66-4.34-9.3-1.42-17.14 4.71-24.46 1.61-1.93 2.74-4.26 4.33-6.8-1.83-.45-3.18-.91-4.57-1.08-1.71-.2-3.55-.08-3.59-2.5-.03-1.91-.67-4.04 2.12-4.9 2.03-.62 3.05-1.79 1.94-4.29-.97-2.17-.33-4.34 1.83-5.87 2-1.42 3.89-2.99 6.02-4.64-1.1-1.87-2.14-3.64-3.45-5.88 2.63.61 4.87.88 6.86 1.71.96.4 1.84 1.78 2.12 2.88 1.23 4.86 2.24 9.78 3.36 14.86 9.51-.38 18.78-.76 28.04-1.12 3.91-.15 7.83-.41 11.74-.34 3.22.06 4.65-1.61 5.24-4.43.16-.76.35-1.59.2-2.33-2.25-11.58 2.1-22.31 4.2-33.33.36-1.87.67-3.76 1.26-5.56 1-3.02.89-5.75-.69-8.63-.72-1.31-.75-3.24-.52-4.8.36-2.41 1.62-4.73 1.75-7.13.16-3.01 0-6.19-.81-9.07-.96-3.4-.02-8.31 2.84-10.26.41-.28 1.02-.36 1.53-.36.42 0 .84.27 1.26.42 10.37 3.64 11.78 6.41 9.29 17.07-.98 4.18-2.94 7.68-5.78 10.77-1.41 1.54-1.92 3.05-1 5.1 4.31 9.58 5.88 19.51 4.17 30.01-.79 4.83-.57 9.83-.98 14.73-.16 1.93.3 3.09 2.13 3.95 5.25 2.48 10.33 5.34 15.66 7.62 3.48 1.49 7.32 2.4 11.08.67 5.96-2.75 11.37-1.22 17.02 1.32 3.11 1.4 6.81 1.7 10.29 1.97 1.17.09 2.77-1.21 3.64-2.31 1.79-2.27 3.39-4.74 4.75-7.3 1.15-2.17 2.62-2.68 4.87-2.1 2.27.58 4.58.98 6.89 1.37 2.24.38 3.64-.7 4.32-2.79.73-2.23-1.11-2.58-2.44-3.27-2.27-1.17-4.56-2.32-6.97-3.55.66-1.36 1.21-2.56 1.82-3.72 1.15-2.17 1.88-3.92.22-6.62-2.59-4.22.86-8.88 5.75-9.13 1.29-.07 2.47-2.07 3.69-3.16-1.61-3.55-7.34-3.31-6.2-8.66 1.87-.22 3.94-.51 6.01-.69 3.68-.33 5.04-1.98 3.55-5.2-1.72-3.71-.54-6.95.79-10.26 2.48-6.15 5.64-11.73 12.48-14.04 4.88-1.65 8.35.65 8.33 5.88-.01 1.81-.64 3.73-1.43 5.4-1.09 2.32-2.47 4.52-3.94 6.63-3.9 5.62-5.3 11.85-6.72 18.54-2.44 11.46-5.55 23.07-12.93 32.72-2.28 2.98-3.06 6.08-2.23 9.68 1.52 6.56-1.34 12.55-2.52 18.75-.08.44-.26.86-.37 1.29-2.11 7.77-4 15.12.31 23.3 2.85 5.41 3.05 12.28 4.06 18.56.41 2.57.52 5.6-.45 7.9-1.61 3.79-1 6.84 1.12 9.99 2.68 3.98 3.92 8.12 1.84 12.87-.47 1.08-.43 2.85.16 3.84 3.55 5.96 3.08 12.71 3.95 19.17.19 1.43-.55 3.22-1.38 4.51-1.39 2.15-3.2 4.02-4.92 6.11 1.03 1.09 2.07 2.08 3 3.17 3 3.54 4.29 7.54 3.03 12.15-3.76 13.77-8.87 26.99-16.88 38.86-2.78 4.13-6.7 7.49-10.13 11.17-4.49 4.84-8.93 9.74-13.58 14.43-1.32 1.34-3.23 2.19-5.01 2.94-1.52.64-3.22 1-4.88 1.16-6.66.65-11.83 3.4-14.7 9.77-.38.84-1.28 1.63-2.13 2.02-8.12 3.72-16.24 7.42-24.44 10.96-2.71 1.17-5.35 1.66-7.28-1.86-1.19-2.17-3.5-1.75-5.69-.8-2.53 1.09-5.15 2.24-7.84 2.64-4.07.6-6.32-1.64-6.44-5.74-.03-1.12-.02-2.24.08-3.36.32-3.33-.67-6.02-3.08-8.47-4-4.07-7.62-8.51-11.57-12.62-1.99-2.07-3.28-4.06-2.32-7.08.38-1.31.23-2.82.39-4.78zm-4.27-86.73c-1.97 1.97-3.63 4.62-6.02 5.8-4.86 2.39-5.19 6.28-4.61 10.63.31 2.29 1.07 4.57 1.93 6.73 1.76 4.46 2.7 8.93 1.66 13.75-.22 1.04.33 2.7 1.12 3.44 5.05 4.68 8.23 10.43 10.66 16.79 2.27 5.95 4.6 11.92 7.57 17.53 2.62 4.94 6.17 9.39 9.32 14.07 4.54-3 6.3-6.25 4.7-11.19-1.24-3.82-1.83-7.82.68-11.63.55-.84.55-2.49.11-3.45-1.36-2.96-.93-5.77-.34-8.81.59-3.02 1.03-6.26.55-9.25-.75-4.66-.06-8.65 3.2-11.98-.96-1.88-2.59-3.57-2.54-5.22.2-7.35 2.18-14.23 6.62-20.29 5.16 3.56 7.27 8.64 5.73 14.33-1.4 5.17-.76 9.64 3.07 13.65.93.98 1.49 2.8 1.41 4.19-.91 15.07-1.89 30.13-3.05 45.18-.34 4.43-1.85 8.82-1.73 13.2.09 3.07.46 5.71-2.14 7.74 5.62 9.23 10.13 10.13 18.79 3.9.82-.59 1.62-1.21 2.35-1.89 2.46-2.28 4.81-4.68 7.35-6.87 3.68-3.17 8.45-2.89 12.85-3.55.97-.15 2.25 1.25 3.27 2.09.75.62 1.3 1.48 2.11 2.43 2.28-1.26 4.47-2.47 6.81-3.76-1.47-1.81-2.71-3.35-4.19-5.19 1.26-1.1 2.31-2.12 3.45-3.01 7.19-5.61 11.94-12.77 14.37-21.59.42-1.53 1.82-3.12 3.2-3.99 2.66-1.68 4.28-3.77 4.56-6.91.29-3.21 1.87-5.56 4.55-7.4 1.22-.84 2.36-2.12 2.98-3.46 3.6-7.77 5.54-15.75 5.33-24.55-.27-10.88-.68-21.6-3.32-32.23-1.74-7.03-2.78-14.25-3.97-21.4-1.02-6.12-.68-12.6-5.17-17.71-.25-.28-.25-.83-.27-1.26-.31-6.36-.3-12.75-.99-19.07-.53-4.8-.16-8.59 5.2-10.12.13-.04.18-.36.26-.56-3.28-8.53-14.19-10.86-20.84-9.76-4.5.74-9.06 1.38-13.62 1.52-7.02.22-14.08-.36-21.09.01-6.78.36-9.31 3.63-9.06 10.43.05 1.45.61 2.94.39 4.33-.52 3.21-.99 6.52-2.21 9.49-.8 1.93-2.82 3.4-4.41 4.97-3.04 2.99-3.1 7.38-.34 10.43 1.12 1.24 2.19 2.9 2.45 4.5 1.51 9.44 2.17 18.87-2.37 27.82-.1.2-.08.46-.19.64-2.46 4.12-.36 7.13 2.54 10.22 1.29-1.82 2.42-3.61 3.77-5.21.54-.64 1.6-1.23 2.4-1.2 13.74.44 27.48.97 41.22 1.52 4.24.17 4.84 1.2 2.99 5.22 1.25.64 2.51 1.27 3.94 2-.58 2.27-1.12 4.41-1.67 6.57-1.1 0-1.98.01-2.87 0-9.04-.1-18.1-.59-27.12-.18-8.56.4-17.2 1.15-24.98 5.57-.88.5-2.38.24-3.49-.06-5.83-1.56-11.68-3.06-17.4-4.96-5.37-1.78-10.4-2.45-15.8.2-3.66 1.81-7.92-.17-9.66-3.18zm-11.04-9.88c12.74-2.21 25.51-4.39 38.24-6.71.86-.16 1.95-1.17 2.22-2.01 1.5-4.56 3.1-9.12 4.08-13.8 3.87-18.54 3.18-37.38 3.17-56.16 0-1.55-.26-3.14-.71-4.62-.73-2.41-1.76-4.71-4.3-4.99-3.31 2.14-6.6 4.11-10.14 5.34-7.57 2.62-7.62 2.46-11.38-4.96-3.24.95-7.45.38-7.74 5.7-.03.6-1.91 1.63-2.86 1.56-2.27-.18-4.5-.9-6.92-1.44-.42 1.91-.94 3.41-1.04 4.94-.19 2.95-1.74 4.51-4.39 5.58-2.77 1.12-5.37 2.67-8.23 4.12.84 2.92 1.45 5.76 2.48 8.44 3.84 10.01 5.1 20.19 3.16 30.85-1.75 9.63-1.72 19.2 4.36 28.16z"/><path d="m125.16 41.41c2.12.73 3.87 1.33 6.12 2.1-5.03 9.28-2.63 19.15-3.34 28.74-.13 1.72-1.31 3.46-2.3 4.99-.95 1.46-1.36 2.49-.16 4.13 2.88 3.95 3.07 8.35 2.07 13.11-1.11 5.27-1.61 10.68-2.41 16.3-1.65 0-3.96 0-6.28 0-2.28-4.79-3.1-9.55.51-14.06-2.11-1.87-4-3.43-5.74-5.13-1.7-1.67-2.02-3.47-.58-5.69 1.07-1.65 1.89-3.61 2.22-5.54.73-4.28 1.57-8.36 6.16-10.49-3.4-3.47-3.53-7.25-2.23-11.17 1.88-5.7 3.9-11.34 5.96-17.29z"/><path d="m253.34 126.72c-.81-2.61-1.42-4.59-2.02-6.54 3.92-2.01 3.92-2.01 4.62.86-.79 1.75-1.6 3.5-2.6 5.68z"/><path d="m190.36 45.61c-1.38-2.43-2.76-4.86-4.15-7.28.15-.27.31-.53.46-.8 1.38.7 3.37 1.07 3.99 2.19.86 1.57.68 3.7.95 5.59-.41.09-.83.2-1.25.3z"/><path d="m181.99 24.99c.56 1.11 1.6 2.21 1.59 3.32-.01 2.69-.67 3.32-3.3 4.06.19-2.48.37-4.78.55-7.09.39-.1.78-.19 1.16-.29z"/></g></svg>