<svg enable-background="new 0 0 400 400" viewBox="0 0 400 400" xmlns="http://www.w3.org/2000/svg"><g fill="#010102"><path d="m268.3 338.85c3.25-5.16 6.8-10.16 9.7-15.52 4.7-8.68 8.41-17.78 9.57-27.71.09-.78.13-1.56.22-2.34.61-5.21-.59-9.1-6.1-11.4-7.61-3.17-13.73-8.66-19.63-14.36-5.31-5.13-10.96-9.91-16.23-15.08-3.33-3.27-6.12-7.09-9.39-10.42-2.87-2.91-5.98-5.61-9.17-8.18-4.43-3.57-9.22-6.72-13.49-10.46-2.06-1.8-3.3-4.54-5.05-7.05 4.91-1.39 8.61-1.18 12.17 1.92 3.69 3.22 7.8 6.02 11.92 8.69 5.25 3.41 9.75 7.39 12.47 13.18.44.94 1.35 1.84 2.26 2.35 11.04 6.13 22.13 12.19 33.21 18.25.27.15.61.18 1.06.3 1.94-3.63 1.6-7.55.64-11.12-7.67-28.45-10.32-58.24-21.73-85.65-7.57-18.18-14.13-36.64-20.03-55.4-1.97-6.24-5.23-12.09-8.05-18.05-.58-1.23-1.8-2.15-3.22-3.77-3.29 17.12-7.34 33.18-23.21 43.27-2.62-4.98-2.83-9.59-1.71-14.19 4.96-20.41 10.3-40.73 14.94-61.21 1.2-5.31.4-11.09.4-16.65 0-2.79-.32-5.59-.39-8.38-.07-2.82 1.73-4.5 4.54-4.38 6.86.29 10.71 3.76 11.64 10.51.24 1.77.66 3.55.65 5.32-.09 13.18 6.02 24.66 10.44 36.47 8.66 23.11 18.49 45.77 27.27 68.84 7.66 20.11 15.02 40.36 21.54 60.86 2.77 8.72 3.05 18.22 4.48 27.37.27 1.75.25 3.66.95 5.23 4.76 10.63 5.3 22 6.5 33.34 2.38 22.58-3.77 43.04-14.18 62.64-3.89 7.33-7.86 14.56-14.46 19.94-6.14 5-12.89 8.28-20.94 8.37-.24-.49-.51-.78-.52-1.08-.5-13.68-8.14-24.88-12.96-37.05-2.14-5.39-4.91-10.52-7.4-15.77-1.76-3.71-1.76-3.71-8.05-3.31.44-1.48.53-2.92 1.23-3.95 2.66-3.87 2.39-7.74.46-11.75-1.75-3.62-3.79-7.15-5.08-10.93-1.25-3.65-1.95-7.53-2.38-11.37-.14-1.22 1.05-3.18 2.18-3.8 1.93-1.06 2.88.62 3.56 2.34.53 1.34 1.12 2.77 2.06 3.82 6.82 7.55 10.25 16.9 14.32 25.97 4.79 10.67 11.36 20.47 14.73 31.87 1.05 3.54 4.45 6.38 6.77 9.54.49 0 .99-.03 1.49-.06z"/><path d="m133.34 71.35c-4.07 6.93-5.91 14.38-7.2 21.96-1.76 10.25-2.79 20.64-4.96 30.79-1.6 7.5-4.39 14.76-6.89 22.04-1.11 3.25-1.15 6.38-1.13 9.77.03 4.72-.82 9.56-2.06 14.14-5.03 18.52-5.84 37.48-6.55 56.49-.42 11.06-1.65 22.09-1.87 33.15-.1 5.06 1.23 10.17 2.21 15.2.24 1.23 1.63 2.24 2.91 3.91 2.34-4.73 4.39-8.55 6.16-12.49 5.57-12.39 12.72-23.8 20.52-34.91 4.79-6.82 8.65-14.31 12.78-21.58 2.77-4.87 5.58-6.54 11.14-5.84-1.69 7.05-3.72 14.01-4.99 21.1-2.32 13.02-9.85 23.63-15.74 34.97-7.46 14.37-15.41 28.48-23.11 42.73-.34.64-.71 1.57-.49 2.16 4.19 11.27 6.98 23.23 15.25 32.55 2.96 3.33 6.32 6.3 9.55 9.4 1.7 1.63 3.04 1.5 4.6-.54 5.28-6.9 7.58-14.87 8.74-23.27 1.51-10.93 5.47-20.92 11.47-30.14.6-.92 1.35-1.83 2.24-2.44 2.74-1.87 4.73-1.05 5.45 2.15 2.4 10.7.43 21.16-2 31.53-1.07 4.55-2.37 9.15-4.35 13.35-3.23 6.83-3.13 14.11-3.9 21.29-.41 3.78-.59 7.58-.87 11.38-.28 3.76-1.62 5.67-5.29 5.35-7.06-.61-14.37-.29-19.86-6.66-6.92-8.03-14.62-15.38-21.75-23.24-4.08-4.49-6.14-10.01-6.78-16.09-.16-1.5-.55-3.27-1.5-4.34-6-6.75-8.61-14.99-10.88-23.46-1.5-5.61-3.2-11.17-4.99-16.7-4.66-14.46-4.85-29.39-3.7-44.21 1.68-21.74 4.21-43.42 6.88-65.06.85-6.93 3.37-13.64 5.01-20.48 3.17-13.25 6.61-26.46 9.26-39.81 2.81-14.14 8.33-27.34 13.12-40.79 2.41-6.76 6.05-13.09 9.21-19.58.48-.98 1.35-1.77 2.04-2.65 1.38-1.77 2.79-1.96 4.85-.77 6.67 3.86 10.82 9.9 14.68 16.24 7.04 11.55 13.99 23.16 21.16 34.63 4.97 7.96 9.05 16.21 9.8 25.73.17 2.21.15 4.48-.15 6.67-.13.97-1.02 2.32-1.86 2.59-.88.28-2.5-.18-3.13-.9-5.81-6.66-11.74-13.23-17.1-20.23-7.65-9.99-13.75-20.9-17.69-32.94-1.58-4.69-3.81-9.01-8.24-12.15z"/><path d="m138.52 169.47c.77-2.39 1.32-4.07 1.86-5.76.71 2.11 2.63 4.54-1.86 5.76z"/></g><path d="m385.2 377.6.6-.7c.6.4 1.3.9 1.9 1.5l-.6.7c-.8-.5-1.4-1-1.9-1.5zm.3 7.1c.6-1.4 1.1-2.9 1.5-4.5.3.1.6.3.9.4-.5 1.4-1 2.9-1.5 4.4zm.2-10.1.6-.6c.7.5 1.3 1.1 1.9 1.6l-.7.7c-.6-.6-1.2-1.2-1.8-1.7zm8.4-.8h.8v.9h1.8v.7h-1.8v1.8h-.8v-.3h-1.2v.9h3.3v2.6h-.8v-.4h-2.5c0 .3 0 .6-.1.8h3.4v.7h-3.5c0 .3-.1.6-.1.8h4v.7h-3.5c.7.9 1.9 1.3 3.6 1.5-.2.2-.4.5-.6.9-1.9-.3-3.2-1.1-3.8-2.3-.5 1.1-1.8 2-3.9 2.4-.2-.3-.4-.5-.6-.8 1.9-.4 3.1-.9 3.6-1.7h-3.2v-.7h3.5c.1-.2.1-.5.2-.8h-3.3v-.7h3.4c0-.2 0-.5 0-.8h-2.4v.3h-.8v-2.6h3.3v-.9h-1.2v.3h-.8v-1.8h-1.8v-.7h1.8v-.9h.8v.9h3.2zm-4.4 5.5h2.4c0-.3 0-.6 0-.9h-2.4zm1.2-3.1h3.2v-.8h-3.2zm4.4 2.2h-2.4v.9h2.5v-.9z" fill="#fcfbfa"/><path d="m389.2 385.8h.9v1.5h1.9v-1.5h.9v1.5h2.7v6h1.1v.9h-11.3v-.9h1.1v-6h2.7zm.2 8.7.5.8c-1.2.6-2.5 1.3-4 1.9-.2-.3-.3-.6-.6-.8 1.6-.6 3-1.3 4.1-1.9zm-2-4.3h1.9v-2.1h-1.9zm0 3.1h1.9v-2.2h-1.9zm2.7-3.1h1.9v-2.1h-1.9zm0 3.1h1.9v-2.2h-1.9zm2.4 1.3c1.4.6 2.7 1.2 4.1 1.8l-.5.9c-1.5-.7-2.8-1.4-4.1-1.9zm2.2-6.5h-1.9v2.1h1.9zm-1.9 5.2h1.9v-2.2h-1.9z" fill="#fcfbfa"/></svg>