<svg enable-background="new 0 0 400 400" viewBox="0 0 400 400" xmlns="http://www.w3.org/2000/svg"><g fill="#fbfafa"><path d="m37.59 393.81c-.92.31-1.52.05-2-.78-.7-1.2-1.52-2.34-2.47-3.78v4.59c-.55.03-.95.05-1.41.07-.03-.37-.06-.64-.06-.91 0-1.91 0-3.81 0-5.7 1.13-.41 1.77-.03 2.29.91.62 1.11 1.38 2.14 2.31 3.19v-4.2h1.35v6.61z"/><path d="m12.94 393.88v-6.75c1.9.19 3.93-.54 5.37 1.29.8 1.01.78 2.88.03 3.97-1.37 1.97-3.4 1.51-5.4 1.49m1.45-1.22c2.04.12 2.92-.58 2.89-2.21-.03-1.51-.98-2.19-2.89-2z"/><path d="m11.81 393.87h-5.49c.68-2.18 2.47-3.48 3.51-5.45h-3.08v-1.21h5.29c-.71 2.13-2.44 3.48-3.47 5.51.86 0 1.63.04 2.39-.01.79-.05 1.14.21.85 1.16"/><path d="m39.33 393.86v-6.61h3.7v1.07h-2.22v1.52c.68.04 1.34.09 2.07.13v1.07c-.72.05-1.38.09-2.1.14v1.48h2.4v1.19h-3.85z"/><path d="m27.71 388.56c-1.15-.3-2.46-.61-3.1.64-.37.73-.41 1.93-.06 2.67.63 1.35 1.99.93 3.17.68.35.94-.01 1.32-.93 1.46-1.62.25-3.05-.27-3.76-1.48-.73-1.24-.6-3.03.31-4.17.88-1.11 2.71-1.7 4-1.16.32.13.44.74.65 1.12-.1.08-.19.16-.28.24"/><path d="m49.15 387.24v1.07c-.59.02-1.17.05-1.87.08v5.44h-1.48v-5.44h-1.85c-.05-.4-.08-.73-.13-1.15z"/><path d="m20.06 387.21h1.33v6.62h-1.33z"/><path d="m30.68 393.25c-.49.38-.8.79-1.05.76-.32-.05-.6-.45-.9-.7.26-.24.51-.64.8-.67.29-.04.62.3 1.15.61"/></g><path d="m208.18 189.26c-4.84-4.51-10.1-3.47-15.34-3.01-3.32.29-5.46 1.84-6.21 5-1.38 5.85-2.61 11.73-3.87 17.61-3.1 14.42-5.96 28.9-9.38 43.25-1.35 5.68.62 10.8 1.01 16.19.22 3.07.5 6.27-.08 9.25-4.32 22.05-8.9 44.04-13.3 66.08-1.67 8.35-5.72 15.11-12.24 20.61-2.85 2.4-4.89 5.74-7.61 8.33-1.22 1.16-3.17 1.97-4.84 2.09-.86.06-2.16-1.59-2.73-2.73-2.02-4.03-1.34-8.04.61-11.93 6.79-13.53 10.91-27.9 12.91-42.83 1.29-9.63 1.82-19.36 2.48-29.07.28-4.07-1.38-6.14-4.83-6.97-1.96-.47-3.43-.06-5.07 1.47-4.56 4.27-9.25 8.45-14.26 12.17-5.07 3.76-10.93 5.46-17.41 4.55-3.32-.46-4.62-2.57-4.85-5.45-.27-3.37.57-6.38 3.75-8.38 2.17-1.37 4.16-3.03 6.21-4.59 19.78-15.04 32.42-35.2 40.87-58.11 3.92-10.63 3.3-22.01 3.65-33.21.18-5.57-1.16-9.34-6.16-11.89-9.7-4.95-15.49-13.77-20.91-22.59-2.2-3.59-2.4-8.52-3.1-12.91-2.55-16.01-5.17-32.02-7.21-48.1-.58-4.54.67-9.33 1.2-13.98.74-6.45 2.07-12.87 2.21-19.32.08-3.83-1.36-7.81-2.7-11.52-.9-2.48-.46-3.82 1.5-5.33 5.11-3.94 10.81-6.24 17.23-6.76 3.55-.29 6.6.39 9.52 2.96 8.65 7.61 17.8 14.67 26.39 22.35 3.26 2.92 6.05 6.67 8.09 10.55 3.36 6.41 9.78 6.27 14.29 2.01 11.84-11.17 25.08-20.55 39.34-28.45.88-.49 1.76-1.17 2.71-1.3 6.03-.87 9.07-4.81 11.2-10.09 1.41-3.5 3.4-6.76 5.18-10.24 4.65 1.24 6.94 4.65 8.56 8.49 3.55 8.39 6.09 17.02 6.06 26.28-.02 7.27.25 14.55.38 21.82.01.56.09 1.17-.1 1.66-3.46 8.92-1.82 17.99-.01 26.77 2.04 9.89-1.05 19-2.35 28.46-1.45 10.56-8.19 18.28-13.81 26.45-2.84 4.12-7.93 6.84-12.31 9.72-4.91 3.23-6.21 8.06-6.56 13.25-.73 10.75 1.49 21.14 4.7 31.33.23.73.6 1.47 1.09 2.06 9.58 11.38 19.03 22.87 28.86 34.03 3.89 4.42 8.97 7.8 12.86 12.23 3.34 3.8 5.76 8.41 8.68 12.8-3.5 2.74-6.83 3.4-10.21 1.91-3.97-1.75-7.92-3.69-11.55-6.05-10.4-6.77-20.63-13.8-31.56-21.16-.58 4.41-1.66 8.36-1.5 12.25.48 11.5 1.45 22.97 2.23 34.45 1.13 16.55 8.11 31.51 12.77 47.11.6 2 .97 4.14 1.04 6.22.12 3.4-1.26 6.14-4.59 7.46-3.2 1.28-6.82.13-9.21-2.83-.98-1.22-2.05-2.45-2.66-3.85-7.32-16.66-15.98-32.87-18.95-51.08-2.29-14.01-3.54-28.19-5.68-42.23-2.27-14.92-2.69-29.81-1.51-44.84.53-6.77-.89-13.47-4.14-19.47-1.89-3.47-2.42-6.24 1.22-8.95zm-5.76-87.25c0-.18 0-.35 0-.53-6.03 0-12.08.25-18.09-.05-11.64-.58-23.23-.97-34.6 2.25-1.13.32-3.07.72-3.17 1.33-.79 4.79-4.12 9.37-1.25 14.54 3.13 5.63 3.96 11.8 3.69 18.16-.07 1.67-.02 3.37.19 5.02.57 4.4 2.38 8.58 6.09 10.77 10.6 6.26 20.88 13.53 34.01 13.76 4.93.08 9.78 2.42 14.78-.04 12.62-6.22 25.29-12.32 37.97-18.41 2.6-1.25 3.99-3.27 4.16-5.98.43-6.79 1.15-13.62.83-20.38-.25-5.38-1.73-10.73-2.96-16.03-.51-2.19-2.14-3.23-4.76-3.28-12.31-.22-24.6-.72-36.89-1.13zm33.13-15.79c3.11-1.04 6.27-1.97 9.31-3.2.82-.33 1.76-1.59 1.78-2.44.07-2.77.06-5.61-.5-8.3-.88-4.19-5.87-5.57-9.08-2.75-2.51 2.21-5.13 4.31-7.45 6.71-.83.85-1.44 2.51-1.25 3.65.87 5.29 1.4 5.61 7.19 6.33zm-74.63-2.62c-1.32-8.66-8.21-11.38-14.38-16.08.68 5.42 1.22 9.82 1.8 14.42 4.22.55 8.26 1.09 12.58 1.66z" fill="#010000"/></svg>