<svg enable-background="new 0 0 400 400" viewBox="0 0 400 400" xmlns="http://www.w3.org/2000/svg"><path d="m179.99 279.68c6.67-8.96 9.94-18.9 11.77-29.32 2.09-11.88 3.87-23.81 5.5-35.76.32-2.31-.73-4.78-1.01-7.19-.59-5.06-1.07-10.14-1.66-15.2-.12-1.05-.33-2.23-.91-3.07-3.69-5.45-4.31-11.24-3.92-17.81.4-6.56-.96-13.32-2.21-19.87-.91-4.8-.76-9.46-.77-14.26-.01-7.43.53-15.3-5.44-21.38-.62-.63-1.12-1.87-.96-2.68 1.21-5.96-1.77-11.03-3.9-15.99-3.57-8.33-5.76-17.01-6.93-25.8-.57-4.26 1.5-8.92 1.29-13.62-.06-1.38 2.44-3.03 3.99-4.3 2.52-2.07 3.9-4.55 3.5-7.84-.43-3.54 1.53-5.65 4.26-7.26 1.73-1.02 3.61-1.79 5.31-2.85 1.78-1.11 4.01-2.1 5.01-3.76 2.02-3.33 4.76-4.85 8.42-5.06 3.27-.19 6.59-.6 9.82-.25 6.23.67 12.7.27 18.52 3.31 8.22-1.81 16.22.63 24.32 1.19 3.3.23 6.66-.65 10-.75 3.11-.09 6.41-.42 9.27.48 2.14.67 3.82 3.03 5.52 4.81 1.71 1.8 3.2 3.82 4.77 5.76.4.5.82 1.01 1.1 1.58 1.56 3.17 2.81 6.52 4.66 9.5 3.65 5.89 6.25 12.06 6.78 19.05.13 1.76.35 3.7 1.19 5.19 4.58 8.1.36 15.89-.57 23.8-.05.39-.38.84-.71 1.09-5.01 3.9-9.71 8.32-15.14 11.5-7.34 4.3-15.1 7.83-20.06 15.2-.29.43-.8.93-1.26 1-5.74.84-8.47 5.39-11.71 9.33-8.47 10.33-9.85 22.28-8.63 35.09 1.33 13.91 2.02 27.87 2.99 41.81.04.56.21 1.14.11 1.67-1.75 9.23 1.11 18.2 1.59 27.3.4 7.57-.17 15.01-2.67 22.17-1.01 2.91-.06 4.44 2.47 4.94 4.75.94 9.48 2.01 14.44.48 5.12-1.58 10.53-.09 14.42 2.65 2.82 1.98 4.3 6.71 5.16 10.49 2.3 10.03-1.01 19.44-4.37 28.73-.32.88-1.17 1.64-1.93 2.28-3.58 3.05-6.27 6.6-7.07 11.39-.15.89-.8 1.95-1.55 2.45-4.56 3.06-8.35 6.97-12.44 10.56-4.23 3.72-9.86 6.25-15.29 8.09-11.3 3.84-22.9 6.79-34.31 10.33-3.7 1.15-7.09 3.32-10.8 4.46-3.58 1.11-7.38 1.45-11.07 2.22-1.48.31-3.08.56-4.33 1.33-6.21 3.83-12.43 7.58-20.03 7.76-1.03.02-2.74.09-2.95-.39-.48-1.09-.79-3-.17-3.7 4.34-4.92 8.83-9.72 13.55-14.28.9-.87 3-.72 4.53-.68 6.78.18 12.4-3.45 18.48-5.56.55-.19 1.17-1.39 1.07-2.01-.86-5.46-.75-11.29-5.06-15.6-.88-.88-2.36-1.9-3.43-1.77-17.42 2.15-34.88.41-52.32.71-3.16.05-6.5-1.38-9.45-2.78-1.27-.6-2.12-2.82-2.37-4.43-.1-.61 1.93-1.95 3.16-2.28 2.44-.66 5-.83 7.52-1.22 2.28-.35 4.69-.35 6.8-1.15 9.68-3.68 19.54-5.29 29.93-4.22 3.44.35 7.15-.36 10.53-1.31 3.58-1.01 3.82-2.96 2.46-6.39-1.51-3.82-2.56-7.84-3.62-11.82-1.17-4.4-3.03-8.26-6.34-11.58-2.3-2.31-3.79-5.41-5.75-8.08-.81-1.11-1.72-2.37-2.89-2.97-5.59-2.82-11.16-5.74-16.98-8-2.78-1.08-6.1-.79-9.18-1.1-1.33-.13-2.87.18-3.95-.4-3.34-1.79-6.86-1.95-10.42-1.59-7.68.79-14.42-2.65-21.45-4.67-1.06-.31-2.18-2.23-2.28-3.48-.07-.95 1.22-2.45 2.27-2.98 6.35-3.21 13.07-1.96 19.77-1.5 6.33.44 12.7.59 19.05.64 4.74.04 9.34.12 13.34 3.26 1.28 1 2.95 1.71 4.55 2.04 6.62 1.38 11.48 5 15.12 10.68 2.1 3.28 4.75 6.22 7.3 9.2 1.37 1.54 3.02 2.88 4.65 4.44zm36.03 2.88c2.59-2.29 5.15-4.29 7.35-6.62.89-.94 1.55-2.67 1.38-3.92-.6-4.33-.31-8.4 1.52-12.44.8-1.77 1.13-3.9 1.12-5.87-.03-7.12-.29-14.24-.49-21.36-.02-.77-.24-1.54-.41-2.31-2.44-10.9-5.26-21.71-4.72-33.06.15-3.18-.71-6.41-1.15-9.61-.31-2.27-.81-4.52-.98-6.79-.33-4.32.04-8.75-.83-12.94-1.33-6.39-.32-11.87 3.71-17 1.48-1.88 2.8-4.15 3.34-6.44.93-3.93 2.75-7.18 5.13-10.37 2.99-4 6.62-7.13 10.54-10.16 5.17-4 9.1-9.63 15.79-11.61.59-.17.99-.92 1.57-1.23 2.32-1.25 4.65-2.47 7.01-3.63 2.57-1.26 5.32-2.21 7.75-3.68 3.15-1.91 6.11-4.15 9.05-6.36 1.03-.78 2.06-1.78 2.65-2.91 3.78-7.2.22-13.93-1.98-20.51-.77-2.31-3.45-3.92-2.28-7.04.22-.59-.43-1.63-.87-2.33-1.83-2.91-3.87-5.69-5.57-8.67-2.95-5.16-5.73-10.48-11.06-13.62-1.63-.96-3.68-1.76-5.53-1.74-7.6.08-15.2.89-22.78.68-7.91-.21-15.97-.51-23.63-2.25-5.06-1.15-7.87.57-11.25 3.32-3.24 2.63-6.94 4.68-10.36 7.1-1.38.97-3.45 2.07-3.67 3.37-1.69 9.92-2.69 19.86.72 29.73 1.22 3.53 1.6 7.34 2.41 11.01.28 1.27.62 2.54 1.11 3.74 2.62 6.47 6.3 12.7 7.73 19.41 2.44 11.43.74 23.3 2.87 34.97 1.54 8.46.76 17.4.56 26.12-.15 6.29.77 12.13 3.66 17.77.81 1.58.64 3.78.54 5.67-.1 1.86-1.57 4.11-.92 5.46 2.61 5.47 1.45 11.22 1.96 16.83.54 5.99-.09 11.78-2.59 17.37-.79 1.78-.86 3.91-1.1 5.89-1.18 9.61-.79 19.49-4.91 28.6-.31.69-.33 1.52-.48 2.28-.6 3.14.93 4.57 3.89 4.85 4.26.41 8.51.79 12.24-2.38.68.93 1.24 1.69 1.96 2.68zm9.69 59.46c-.1-.4-.19-.8-.29-1.2 1.15-1.09 2.15-2.46 3.49-3.23 2.32-1.33 4.82-2.33 7.29-3.38 5.06-2.15 10.15-4.36 13.6-8.86 3.9-5.09 7.08-10.8 11.37-15.51 4.35-4.77 4.36-10.04 3.6-15.59-.22-1.6-1.62-3.54-3.04-4.37-4.14-2.42-8.45-4.12-13.64-3.14-8.36 1.59-17.25.33-25.05 4.97-1.06.63-2.62.42-3.94.61-3.43.48-6.91.73-10.27 1.49-3.65.82-7.18 2.14-10.78 3.2-2.03.6-4.08 1.13-6.12 1.69-1.85.51-2.59 1.79-2 3.55 1.11 3.37 2.04 6.86 3.67 9.97 3.05 5.8 5.41 11.71 5.92 18.32.38 4.89 1.03 9.78 4.38 14.08 7.03-2.42 14.07-5.26 21.81-2.6z" fill="#010100"/><g fill="#fcfafa"><path d="m342.2 3.2-6.3 9.2h6.1v1.2h-8.2v-.5l6.2-9.1h-5.7v-1.2h7.8v.4z"/><path d="m344 13.7v-10.9h3.1c1.6 0 3 .5 4.1 1.4 1.1 1 1.6 2.2 1.6 3.9s-.5 3-1.6 4-2.5 1.5-4.2 1.5h-3zm1.4-9.6v8.4h1.6c1.4 0 2.5-.4 3.2-1.1.8-.8 1.2-1.8 1.2-3.2s-.4-2.4-1.2-3.1-1.8-1-3.1-1z"/><path d="m356.3 2.8v10.9h-1.4v-10.9z"/><path d="m366.6 13.2c-.8.4-1.8.6-3 .6-1.6 0-2.8-.5-3.7-1.5s-1.4-2.3-1.4-3.9c0-1.7.5-3.2 1.6-4.2s2.4-1.6 4-1.6c1 0 1.9.1 2.6.4v1.5c-.8-.4-1.6-.6-2.6-.6-1.2 0-2.2.4-3 1.2s-1.1 1.9-1.1 3.3c0 1.3.4 2.3 1.1 3.1s1.6 1.1 2.8 1.1c1.1 0 2-.2 2.8-.7v1.3z"/><path d="m368.2 13c0-.3.1-.5.3-.6.2-.2.4-.3.6-.3.3 0 .5.1.7.3s.3.4.3.6-.1.5-.3.6c-.2.2-.4.3-.7.3s-.5-.1-.6-.3c-.2-.2-.3-.4-.3-.6z"/><path d="m381.1 13.7h-1.7l-5.5-8.4c-.2-.2-.3-.5-.4-.7 0 .2.1.8.1 1.5v7.6h-1.4v-10.9h1.8l5.3 8.3c.3.4.4.6.4.8 0-.3-.1-.8-.1-1.6v-7.5h1.4v10.9z"/><path d="m389.7 13.7h-5.8v-10.9h5.6v1.2h-4.2v3.5h3.9v1.2h-3.9v3.7h4.4z"/><path d="m398.4 4.1h-3.1v9.6h-1.4v-9.6h-3.1v-1.3h7.7v1.3z"/></g></svg>