<svg enable-background="new 0 0 400 400" viewBox="0 0 400 400" xmlns="http://www.w3.org/2000/svg"><path d="m221.22 106.1c-4.22-.63-8.3-1.37-12.4-1.75-1.11-.1-2.57.61-3.45 1.41-4.88 4.44-9.71 8.96-14.41 13.59-2 1.97-4.05 3.45-6.98 3.3-4.46-.23-7.74 2.37-10.44 5.25-4.1 4.38-7.9 9.1-11.35 14.01-5.05 7.21-9.5 14.85-14.57 22.05-2.47 3.51-5.85 5.88-10.81 5.24-3.86-.5-5.75-1.29-6.64-5.16-1.09-4.73-1.24-9.17 2.02-13.64 6.6-9.02 12.56-18.51 18.88-27.74.98-1.43 2.3-2.75 3.73-3.74 14.53-10.06 29.08-20.1 43.73-29.97 2.73-1.84 5.9-3.14 9.02-4.29 3.3-1.22 4.77-3.6 5.13-6.77.24-2.09.3-4.3-.09-6.36-1.07-5.7.2-11.04 1.76-16.46 2.82-9.75 5.39-19.57 8.04-29.29 5.34-.24 8.8 2.27 9.38 7.16.61 5.1.79 10.25 1.06 15.39.04.82-.47 1.66-.71 2.5-1.19 4.13-3.07 8.2-3.41 12.4-.48 5.99.12 12.07.38 18.1.04.92.61 1.86 1.07 2.72 2.6 4.9 5.81 9.56 7.73 14.7 3.26 8.75 7.07 17.04 12.47 24.74 7.02 10.01 12.87 20.73 15.03 33 1.83 10.42.67 20.74-1.52 30.97-.24 1.14-1.02 2.22-1.7 3.22-8.52 12.47-16.81 25.11-25.71 37.3-4.63 6.35-7.53 13-8.3 20.77-.45 4.55-1.42 9.06-2.21 13.57-.25 1.42-.25 3.18-1.1 4.14-4.88 5.49-4.97 12.23-5.29 18.91-.45 9.53-1.74 18.85-4.4 28.09-1.35 4.71-.99 9.99-.89 15.01.2 10.51.93 21.01 1.06 31.52.06 4.87-1.48 9.48-4.85 13.26-1.34 1.5-2.58 1.67-4.64.9-4.28-1.61-5.53-4.14-5.47-8.74.29-21.27.09-42.54.21-63.81.01-1.56 1.22-3.09 1.72-4.68.77-2.46 2.19-5.05 1.93-7.44-.6-5.65-.44-11.05 1.03-16.59 1.04-3.93 1.2-8.15 1.35-12.25.24-6.25-.38-12.55 5.32-17.26 1.18-.97 1.25-3.77 1.15-5.7-.2-3.97-.85-7.71-3.27-11.34-1.93-2.89-2.71-6.9-2.95-10.49-.62-9.44-2.43-18.57-7.86-26.33-6.63-9.48-6.16-19.53-4.3-30.06.66-3.76 1.01-7.28 4.42-9.96 1.69-1.33 2.91-3.83 3.4-6.01 2.07-9.2 7.18-16.42 13.71-22.95 4.01-3.99 5.29-8.37 4.99-14.44zm13.96 22.89c-.9 1.16-1.59 2-2.22 2.88-4.69 6.54-9.18 13.24-14.12 19.59-3.51 4.5-4.67 9.83-6.43 14.97-.28.82.17 1.91.37 2.86 1.33 6.31 2.95 12.58 3.94 18.94 1.01 6.44 1.89 12.82 5.66 18.37 2.07 3.04 3.16 3.48 5.68.76 3.07-3.32 5.57-7.2 8.13-10.96 4.2-6.17 8.55-12.27 12.21-18.75 1.58-2.8 3.05-6.99 2.1-9.68-4.6-13.02-10.02-25.74-15.32-38.98z" fill="#010100"/><g fill="#fcfafa"><path d="m342.2 3.2-6.3 9.2h6.1v1.2h-8.2v-.5l6.2-9.1h-5.7v-1.2h7.8v.4z"/><path d="m344 13.7v-10.9h3.1c1.6 0 3 .5 4.1 1.4 1.1 1 1.6 2.2 1.6 3.9s-.5 3-1.6 4-2.5 1.5-4.2 1.5h-3zm1.4-9.6v8.4h1.6c1.4 0 2.5-.4 3.2-1.1.8-.8 1.2-1.8 1.2-3.2s-.4-2.4-1.2-3.1-1.8-1-3.1-1z"/><path d="m356.3 2.8v10.9h-1.4v-10.9z"/><path d="m366.6 13.2c-.8.4-1.8.6-3 .6-1.6 0-2.8-.5-3.7-1.5s-1.4-2.3-1.4-3.9c0-1.7.5-3.2 1.6-4.2s2.4-1.6 4-1.6c1 0 1.9.1 2.6.4v1.5c-.8-.4-1.6-.6-2.6-.6-1.2 0-2.2.4-3 1.2s-1.1 1.9-1.1 3.3c0 1.3.4 2.3 1.1 3.1s1.6 1.1 2.8 1.1c1.1 0 2-.2 2.8-.7v1.3z"/><path d="m368.2 13c0-.3.1-.5.3-.6.2-.2.4-.3.6-.3.3 0 .5.1.7.3s.3.4.3.6-.1.5-.3.6c-.2.2-.4.3-.7.3s-.5-.1-.6-.3c-.2-.2-.3-.4-.3-.6z"/><path d="m381.1 13.7h-1.7l-5.5-8.4c-.2-.2-.3-.5-.4-.7 0 .2.1.8.1 1.5v7.6h-1.4v-10.9h1.8l5.3 8.3c.3.4.4.6.4.8 0-.3-.1-.8-.1-1.6v-7.5h1.4v10.9z"/><path d="m389.7 13.7h-5.8v-10.9h5.6v1.2h-4.2v3.5h3.9v1.2h-3.9v3.7h4.4z"/><path d="m398.4 4.1h-3.1v9.6h-1.4v-9.6h-3.1v-1.3h7.7v1.3z"/></g></svg>