<svg enable-background="new 0 0 400 400" viewBox="0 0 400 400" xmlns="http://www.w3.org/2000/svg"><path d="m374.8 390.4.4-.4c.7.5 1.3 1 1.8 1.4l-.5.5c-.5-.6-1.1-1.1-1.7-1.5zm1 7.3-.6-.3c.5-1.4 1.1-2.8 1.5-4.3.2.1.4.2.6.3-.5 1.3-1 2.8-1.5 4.3zm-.4-10.3.4-.4c.4.3 1 .8 1.7 1.4l-.5.5c-.4-.5-1-1-1.6-1.5zm2.5.3h1.7v-1h.6v1h3.5v-1h.6v1h1.8v.5h-1.8v1.4h-2v1h3.2v2h-3.2v.9h3.3v.5h-3.4c0 .3-.1.6-.1.9h4v.5h-3.7c.7.9 1.9 1.5 3.8 1.7-.1.2-.2.4-.3.6-2.1-.4-3.5-1.1-4-2.1-.4 1-1.8 1.7-4 2.2-.1-.2-.2-.4-.3-.6 2.1-.4 3.4-1 3.8-1.8h-3.4v-.5h3.6c.1-.3.1-.6.2-.9h-3.3v-.5h3.4c0-.3 0-.6 0-.9h-3.2v-2h3.3v-1h-2.1v-1.4h-1.7v-.5zm1.1 3.5v1h2.7c0-.3 0-.4 0-.4 0-.1 0-.2 0-.2 0-.1 0-.2 0-.3h-2.7zm1.2-3v.9h3.5v-.9zm4.7 3h-2.6v.6.4h2.6z" fill="#fbfcfa"/><path d="m393.6 386.7h.6v1.5h2.7v6.1h1.1v.6h-11v-.6h1.1v-6.1h2.7v-1.5h.6v1.5h2.1v-1.5zm-2.7 8.8.4.6c-1.2.6-2.5 1.3-3.8 1.9-.1-.2-.2-.4-.3-.6 1.2-.6 2.5-1.2 3.7-1.9zm-2.2-6.7v2.4h2.1v-2.4zm0 3v2.5h2.1v-2.5zm2.8-3v2.4h2.1v-2.4zm0 3v2.5h2.1v-2.5zm6 6.1c-1.4-.7-2.7-1.3-3.9-1.8l.3-.6c1.5.6 2.7 1.2 3.9 1.7zm-1.2-9.1h-2.1v2.4h2.1zm-2.1 3v2.5h2.1v-2.5z" fill="#fbfcfa"/><g fill="#010101"><path d="m52.27 93.31c10.75-2.66 21.65-2.88 32.6-1.8 8.21.81 16.43 1.63 24.62 2.64 5.26.65 7.55-.64 9.23-5.73 3.07-9.34 6.26-18.65 9.22-28.02.97-3.06 1.97-6.32 1.9-9.46-.16-7.01 4.08-10.56 9.68-12.44 4.69-1.57 9.92-1.47 14.74-2.76 8.01-2.15 15.76-.86 23.73.22 6.82.92 13.85.16 20.78.51 3.52.18 7 1.18 10.5 1.8 1.42.25 2.87.77 4.27.64 6.19-.57 11.86 1.08 17.6 3.22 6.58 2.46 13.45 4.11 20.08 6.45 2.89 1.02 5.92 2.42 8.1 4.48 1.85 1.74 3.07 4.56 3.67 7.12.8 3.39 1.38 6.61 3.71 9.49 1.15 1.42 1.54 3.93 1.36 5.86-.81 8.56-1.96 17.09-2.96 25.63-.07.55-.02 1.12.02 1.68.54 6.83 2.34 8.96 9.19 9.44 7.24.5 14.53.38 21.79.65 3.11.11 6.32.14 9.26.97 1.4.4 2.29 2.59 3.41 3.97-1.18.79-2.27 1.81-3.57 2.31-1.1.42-2.44.15-3.65.35-6.92 1.12-13.8 2.59-20.76 3.35-5.42.59-11.08 1.14-16.37.21-4.41-.77-8.66-3.36-12.5-5.88-1.47-.96-2.18-3.93-2.28-6.03-.65-14.64-1.15-29.29-1.48-43.94-.08-3.73-1.75-6.06-5.03-7.01-8.47-2.46-16.97-4.83-25.56-6.84-2.97-.69-6.22-.37-9.33-.21-3.94.2-5.22 1.23-5.47 5.77-.54 9.93-.73 19.9-.43 29.84.24 8.2.48 16.3-1.58 24.33-.45 1.78-.24 3.73-.3 5.6-.21 6-.17 12.02-.66 18-1.14 13.78-.34 27.44 1.11 41.18 1.16 10.98 1.08 22.13.96 33.2-.17 15.09-.96 30.16-1.36 45.25-.13 4.91.14 9.82.16 14.73.01 2.79 1.39 4.33 4.06 4.83 1.2.23 2.39.59 3.6.7 4.87.45 9.75 1.22 14.61 1.09 3.48-.09 6.95-1.35 10.37-2.3.43-.12.65-1.49.74-2.31 1.22-11.21 2.3-22.43 3.63-33.63.52-4.43 2.94-6.71 6.62-6.62 1.17.03 2.59.59 3.42 1.4 1.78 1.76 3.65 2.02 5.33.41 8.01-7.65 18.06-8.7 28.36-9.11 4.36-.18 8.72-.29 13.07-.64 4.44-.36 8.49.61 12.7 2.1 6.72 2.37 13.66 4.24 20.64 5.7 9.74 2.04 18.21 6.03 24.51 13.9.85 1.07 1.4 2.83 1.24 4.18-.82 7.11 1.13 13.75 3.03 20.41.4 1.38 1.02 2.72 1.69 4 2.33 4.47 3.12 4.72 7.83 2.8 1.63-.66 3.28-1.27 5.24-2.03v23.67c.15-.01.29-.02.44-.03-.38-2.25-.6-4.55-1.23-6.73-.29-.99-1.24-2.14-2.18-2.53-3.56-1.48-9.81 2.1-10.5 5.82-1.96 10.55-3.87 21.11-5.89 31.65-1.02 5.33-2.21 6.28-7.49 7.32-1.01.2-2.23 1.12-2.7 2.04-5.63 10.99-14.97 14.84-26.79 14.71-4.04-.04-8.28.55-12.09 1.84-7.5 2.54-14.78 1.45-22.16-.04-3.07-.62-6.13-1.35-9.24-1.66-2.15-.21-4.36.27-6.55.33-5.53.17-11.07.29-16.61.37-.48.01-1.07-.37-1.44-.74-6.32-6.4-12.25-12.96-14.23-22.25-1.9-8.91-3.66-17.75-1.97-26.89.14-.76.09-1.56.11-2.35.16-7.21-1.2-8.6-8.22-8.11-6.25.43-12.48 1.11-18.74 1.4-2.34.11-3.47 1.06-3.99 3.14-.91 3.68-1.78 7.37-2.73 11.03-.73 2.79-1.57 5.56-1.53 8.19.38.97 1.18 2 1.06 2.9-.68 4.86-1.38 9.73-2.49 14.51-1.41 6.07-3.22 12.04-4.82 17.91-2.52.48-3.83-.07-3.8-2.57.02-2.11-.79-4.47-.09-6.28 1.51-3.88.74-7.06-1.19-10.45-.83-1.46-1.2-3.37-1.22-5.08-.11-10.41-.11-20.82-.02-31.23.02-2.76-1.22-3.77-3.78-3.97-6.67-.52-13.34-1.16-20.01-1.74-.78-.07-1.56-.12-2.35-.13-5.42-.05-5.68.17-7.38 6.01 1.93 1.28 4.26 2.33 5.89 4.05 1.32 1.4 2.06 3.55 2.49 5.49.14.63-1.37 2.16-2.34 2.39-1.24.29-2.83-.02-4.03-.59-3.7-1.74-4.01-1.71-5.66 2.06-3.31 7.58-6.64 15.15-9.93 22.74-3.88 8.96-9.92 14.63-20.43 14.43-4.67-.09-9.36.69-14.03 1.25-1.51.18-3.34.51-4.36 1.48-2.62 2.48-5.03 1.28-7.73.41-2.36-.76-4.86-1.1-7.32-1.48-3.15-.49-6.33-.86-9.49-1.25-1.69-.21-3.39-.32-5.08-.56-.82-.12-1.87-.18-2.39-.7-3.83-3.8-8.81-5.16-13.73-6.61-3.38-1-5.09-3.04-5.63-6.62-1.68-11.05-3.78-22.04-5.4-33.1-.37-2.52.38-5.27.94-7.85 1.02-4.68-1.13-7.62-5.96-7.69-1.79-.03-3.58.22-5.37.16-3.46-.12-5.87-1.72-7.03-5.55 3.56-.23 6.89-.39 10.21-.67 2-.17 4.03-.34 5.97-.82 2.58-.64 4-2.16 4.35-5.15 1.67-14.33 3.45-28.64 5.58-42.91.49-3.28 1.87-6.89 4.02-9.31 2.08-2.35 5.5-4.03 8.63-4.86 13.44-3.59 27.22-5.22 41.07-3.98 12.87 1.15 25.07 5.45 37.08 10.09.66.26 1.4.86 1.68 1.49 2.26 5.07 4.45 10.18 6.6 15.3.39.91.24 2.19.84 2.86 4.81 5.42 3.78 12.14 4.19 18.49.27 4.12.14 8.28.02 12.42-.06 2.2.48 3.17 2.96 3.22 3.1.06 6.17.98 9.27 1.07 5.97.19 11.94.05 18.82.05 0-6.87-.07-13.52.02-20.17.1-7.57 1.22-15.25.26-22.67-1.09-8.45 1.24-16.59.67-24.9-.26-3.78.45-7.61.3-11.4-.17-4.31-.85-8.59-1.25-12.9-.31-3.33-.75-6.66-.76-10-.03-11.72.1-23.45.18-35.17.08-13.06-.21-26.14.39-39.17.31-6.75 2.23-13.42 3.37-20.14.34-1.98.42-4 .74-5.98.61-3.71 1.29-7.4 1.98-11.09.31-1.63.98-3.25 1.01-4.88.06-3.55-1.52-5.48-4.98-5.31-9.49.47-19.03.83-28.4 2.25-3.53.53-6.81 1.21-10.41.75-5.2-.67-7.48 1.46-7.97 6.99-.51 5.78-.62 11.6-1.33 17.36-.82 6.68-3.46 12.6-7.95 17.8-1.72 1.99-2.67 4.84-3.37 7.46-.82 3.07-2.52 4.71-5.56 4.81-20.78.64-41.66 1.95-61.23-7.41-1.11-.53-2.25-1-3.34-1.56-4.33-2.26-4.7-2.97-4.34-8.13zm9.12 131.2c0 1.56-.1 2.78.02 3.98.87 9.36 1.24 18.66-.56 28.02-1.02 5.31-.97 10.85-1.23 16.29-.08 1.73.52 3.17 2.79 3.41 9.84 1.02 19.6.71 29.35-1.07 3.45-.63 4.58-2.16 4.75-5.77.57-12.25 1.6-24.48 2.56-36.7.33-4.13-1.06-5.84-5.07-5.59-10.82.65-21.75 2.71-32.61-2.57zm185.04 95.72c-.04 0-.07 0-.11 0 0 2.35.12 4.71-.02 7.05-.33 5.2 3.16 8.31 6.9 10.15 7.3 3.58 15.41 4.48 23.52 4.42 1.94-.01 3.94-.74 5.81-1.43 2.03-.75 3.32-2.19 2.93-4.64-.49-3.11-1.22-6.23-1.23-9.34-.01-4.8.4-9.62.83-14.41.37-4.11 1.26-8.18 1.46-12.3.12-2.51-.29-5.62-3.56-5.93-3.64-.34-7.62-.69-10.96.43-4.19 1.41-8.06.96-12.12.46-2.33-.29-4.67-.55-6.98-.93-2.97-.48-4.32.66-4.54 3.71-.55 7.6-1.28 15.18-1.93 22.76zm75.03-26.18c-.01-.13-.01-.25-.02-.38-3.91-.22-7.81-.41-11.71-.68-2.64-.18-3.89.82-4.66 3.54-3.63 12.83-3.89 26-4.19 39.16-.03 1.2 1.6 3.52 2.4 3.49 10.29-.37 20.59-1.11 29.98-5.88 1.58-.8 2.96-2.69 3.67-4.39 1.92-4.63 3.69-9.37 5.04-14.19 1.37-4.91 2.5-9.94 3.13-15 .48-3.81-3.38-6.89-7.27-6.62-5.45.36-10.91.63-16.37.95zm-70.58-31.05c.27 3.78.67 7.33.74 10.89.04 2.12.92 3.12 2.9 3.25 7.55.5 15.09 1.15 22.65 1.34 2.83.07 5.7-.91 8.53-1.49 2.08-.43 3.06-1.68 3.29-3.93.83-8.11 1.96-16.19 2.76-24.3.3-3.06.05-6.18.05-9.53-3.22-.4-6.14-1.3-8.92-1-5.98.64-11.91 1.8-17.82 2.98-1.33.27-2.82 1.25-3.63 2.34-2.92 3.94-4.67 9.21-11.58 8.77 1.27 1.88 2.68 3.02 3.99 4.27.89.85 2.46 2.03 2.29 2.71-.27 1.12-1.64 2.05-2.69 2.86-.58.46-1.46.5-2.56.84zm-192.09 45.92c0 4.47-.05 8.94.04 13.41.02 1.04.29 2.25.88 3.07 5.87 8.17 14.76 9.18 23.76 9.69 2.22.12 3.39-1.2 3.83-3.68 1.79-10.11 3.93-20.15 5.81-30.24.32-1.72.2-3.56 0-5.31-.27-2.35-1.43-3.24-4.11-3.02-4.96.41-9.98.34-14.97.2-3.56-.1-7.11-.71-10.68-.99-3.13-.25-4.55 1.08-4.57 4.13 0 4.25.01 8.49.01 12.74zm248.75-68c-.16 3.26-.53 5.93-.39 8.57.44 8.01 1.02 16.02 1.66 24.02.17 2.17 1.5 3.19 3.81 3.34 3.34.21 6.65.94 9.98 1.16 6.22.41 12.46.71 18.7.86 2.6.06 3.9-1.19 3.75-4.18-.27-5.36-.39-10.76.02-16.09.32-4.15-1.6-6.54-4.77-8.36-9.99-5.76-20.98-7.92-32.76-9.32zm-168.9 10.76c-.1-.02-.2-.03-.3-.05-.07-1.45-.17-2.9-.22-4.35-.25-7.18-1.66-13.47-10.35-14.86-1.82-.29-3.47-1.56-5.29-2.03-2.35-.62-4.77-1.11-7.19-1.26-2.26-.14-3.8 1.01-3.84 3.58-.21 12.83-.5 25.67-.54 38.5 0 1.19 1.46 3.4 2.28 3.42 5.76.13 11.58.17 17.28-.51 3.26-.39 5.69-2.56 6.03-6.53.46-5.34 1.41-10.61 2.14-15.91zm-31.41 48.5c.17.03.34.07.51.1-.52 2.36-.99 4.73-1.57 7.07-1.91 7.57-4.06 15.09-5.71 22.72-.9 4.16 0 5.11 4.09 6.17 1.28.33 2.68.17 3.97.46 1.81.41 3.93.59 5.27 1.68 2.34 1.89 3.51.79 4.34-1.15.68-1.6.88-3.43 1.18-5.18.41-2.41.39-4.95 1.13-7.24 2.38-7.32 5.03-14.56 7.59-21.83.81-2.32 1.82-4.58 2.46-6.94.97-3.63-.38-5.74-4.1-5.76-4.88-.03-9.78.32-14.63.83-2.52.27-4.26 1.88-4.33 4.72-.04 1.45-.13 2.9-.2 4.35zm186.3-31.42c4.38-2.11 4.13-5.33 3.42-8.66-.21-1.01-1.87-1.7-3.42-3zm-35.97-162.16c.68.07 1.35.14 2.03.21.2-2.2.4-4.4.6-6.59-.51-.06-1.02-.12-1.53-.17-.37 2.18-.73 4.37-1.1 6.55z"/><path d="m24.07 315.96c.63 1.85 1.74 3.68 1.79 5.54.17 5.99.02 12-.21 17.99-.04.93-1.19 1.82-1.83 2.72-.61-.93-1.63-1.82-1.74-2.8-.29-2.87-.4-5.79-.25-8.67.26-4.88.78-9.75 1.19-14.63.35-.04.7-.09 1.05-.15z"/><path d="m23.76 140.23c2.65 2.28 2.37 4.84 1.34 7.41-.16.39-1.63.76-1.94.49-1.48-1.27-1.13-6.2.6-7.9z"/><path d="m23.1 134.38c.22-3.39.41-6.24.62-9.46 2.62 3.04 2.46 7.42-.62 9.46z"/></g></svg>