<svg enable-background="new 0 0 400 400" viewBox="0 0 400 400" xmlns="http://www.w3.org/2000/svg"><path d="m260.98 126.5c.96 10.69-2.11 19.98-8.08 28.28-8.5 11.81-17.72 22.93-28.38 33.02-8.23 7.8-14.95 17.2-22.25 25.96-.62.75-.78 2.06-.78 3.11-.04 19.7-.99 39.46.29 59.08.94 14.32.05 28.39-1.35 42.47-.91 9.19-3.33 18.23-5.29 27.29-.38 1.77-1.58 3.49-2.74 4.95-2.77 3.47-2.84 7.36-2.31 11.44.23 1.77.41 3.56.5 5.34.26 4.98-1.28 6.73-7.19 7.53-.35-3.48-.92-6.95-1.02-10.43-.3-10.82-.38-21.65-.62-32.48-.06-2.57-.25-5.15-.66-7.68-2.29-14.06-.87-28.27-1.75-42.41-1.24-19.97-1.05-40.03-1.34-60.05-.06-4.02-1.51-7.28-3.68-10.54-2.76-4.16-5.34-8.47-7.55-12.94-4.54-9.22-8.56-18.69-13.2-27.85-5.48-10.81-10.04-21.89-12.97-33.69-1.08-4.35-3.46-8.39-5.25-12.56-.09-.2-.25-.37-.37-.56-3.68-6.1-2.14-9.68 4.83-11.31 2.55-.6 3.89.6 4.97 2.78 5.71 11.51 11.49 22.99 17.3 34.46 2.98 5.88 5.93 11.78 9.16 17.53 1.32 2.35 3.34 4.3 5.03 6.43.32-.13.65-.26.97-.39.11-1.15.27-2.29.31-3.44.37-10.74.76-21.47 1.04-32.21.04-1.41-.32-2.87-.73-4.24-2.56-8.55-6.04-16.93-7.54-25.66-1.41-8.22-3.92-15.91-6.36-23.79-3.4-10.94-5.33-22.36-7.43-33.66-.97-5.19-3.72-8.16-8.44-9.76-3.2-1.09-6.39-2.08-7.58-5.87-1.29-4.11-.83-4.86 3.11-6.31 10.75-3.96 21.55-3.43 32.68-1.75 6.19.94 12.69-.25 19.05-.39 1.65-.04 3.32.19 4.97.41 5.06.67 10.11 1.84 15.18 1.99 7.36.22 13.95 2.97 20.61 5.47 1.65.62 3.35 2.54 3.94 4.24 1.37 3.92.99 6.17-3.38 6.97-3.73.68-7.49 1.41-11.26 1.57-3.12.13-4.72 1.53-5.45 4.29-2.1 7.98-4.37 15.93-6.2 23.98-5.01 22.01-9.71 44.09-14.78 66.08-1.97 8.53-1.12 16.86.35 25.27.81 4.62 1.28 9.29 1.97 13.94.12.81.56 1.58.85 2.36.88-.33 1.92-.48 2.62-1.05 1.03-.83 2.18-1.81 2.63-2.98 1.57-4.12 4.89-6.61 8.14-9.13 4.22-3.27 7.22-7.48 10.41-11.68 3.2-4.22 7.46-7.63 11.27-11.38 5.4-5.32 10.87-10.57 16.18-15.97 2.08-2.16 4.1-4.13 7.57-4.08zm-90.09-81.76c.36 1.11.71 2.14 1.03 3.19 3.32 10.75 6.53 21.53 9.98 32.24 1.57 4.86 3.55 9.59 5.49 14.32.37.91 1.69 2.31 2.1 2.16 1.13-.4 2.47-1.32 2.88-2.37.8-2.04.99-4.32 1.5-6.48 1.16-4.85 1.8-9.93 3.68-14.49 2.81-6.83 4.06-13.87 4.3-21.08.16-4.65-2.08-6.6-6.64-7.19-4.84-.63-9.77-.86-14.51-1.95-3.51-.8-6.53-.72-9.81 1.65z" fill="#010100"/><g fill="#fcfafa"><path d="m342.2 3.2-6.3 9.2h6.1v1.2h-8.2v-.5l6.2-9.1h-5.7v-1.2h7.8v.4z"/><path d="m344 13.7v-10.9h3.1c1.6 0 3 .5 4.1 1.4 1.1 1 1.6 2.2 1.6 3.9s-.5 3-1.6 4-2.5 1.5-4.2 1.5h-3zm1.4-9.6v8.4h1.6c1.4 0 2.5-.4 3.2-1.1.8-.8 1.2-1.8 1.2-3.2s-.4-2.4-1.2-3.1-1.8-1-3.1-1z"/><path d="m356.3 2.8v10.9h-1.4v-10.9z"/><path d="m366.6 13.2c-.8.4-1.8.6-3 .6-1.6 0-2.8-.5-3.7-1.5s-1.4-2.3-1.4-3.9c0-1.7.5-3.2 1.6-4.2s2.4-1.6 4-1.6c1 0 1.9.1 2.6.4v1.5c-.8-.4-1.6-.6-2.6-.6-1.2 0-2.2.4-3 1.2s-1.1 1.9-1.1 3.3c0 1.3.4 2.3 1.1 3.1s1.6 1.1 2.8 1.1c1.1 0 2-.2 2.8-.7v1.3z"/><path d="m368.2 13c0-.3.1-.5.3-.6.2-.2.4-.3.6-.3.3 0 .5.1.7.3s.3.4.3.6-.1.5-.3.6c-.2.2-.4.3-.7.3s-.5-.1-.6-.3c-.2-.2-.3-.4-.3-.6z"/><path d="m381.1 13.7h-1.7l-5.5-8.4c-.2-.2-.3-.5-.4-.7 0 .2.1.8.1 1.5v7.6h-1.4v-10.9h1.8l5.3 8.3c.3.4.4.6.4.8 0-.3-.1-.8-.1-1.6v-7.5h1.4v10.9z"/><path d="m389.7 13.7h-5.8v-10.9h5.6v1.2h-4.2v3.5h3.9v1.2h-3.9v3.7h4.4z"/><path d="m398.4 4.1h-3.1v9.6h-1.4v-9.6h-3.1v-1.3h7.7v1.3z"/></g></svg>