<svg enable-background="new 0 0 400 400" viewBox="0 0 400 400" xmlns="http://www.w3.org/2000/svg"><path d="m292.62 204.48c-2.78-2.24-3-4.99-1.89-8.36.62-1.89.17-4.16.13-6.25-.08-3.97 0-7.95-.37-11.89-.37-3.96-.99-7.69-.16-11.85.85-4.24-.19-8.89-.65-13.33-.11-1.09-1.09-2.16-1.86-3.08-1.76-2.12-3.64-4.15-5.57-6.35-1.95 1.64-4.36.33-6.21-1.4-4.7-4.39-9.13-9.07-14.29-14.26-1.27-.05-3.06.68-4.29 3.02-.68 1.28-1.99 2.38-3.26 3.17-5.24 3.21-10.61 6.22-15.87 9.41-3.75 2.26-7.74 3.66-11.92 5.01-4.78 1.54-8.95 4.91-13.47 7.34-1.41.76-3.13 1.55-4.63 1.43-3.71-.28-6.83.67-9.46 3.22-4.13 4.01-9.74 4.14-14.8 5.73-2.42.76-4.72 1.89-7.09 2.83-4.73 1.87-9.52 3.59-14.19 5.59-9.55 4.09-19.02 8.38-28.57 12.48-2.55 1.09-5.26 1.79-7.91 2.66-1.79.59-3.91.74-5.34 1.81-4.17 3.11-8.6 5-13.88 4.93-.78-.01-2.13 1.12-2.25 1.87-.43 2.72-.41 5.5-.61 8.26-.24 3.3-.21 6.68-.92 9.88-.65 2.95-1.34 5.54-.47 8.74.75 2.75-.01 5.98-.41 8.96-1.28 9.49-1.19 19.13-4.27 28.44-1.34 4.06-.44 8.83-.91 13.23-1.24 11.59-3.74 22.92-7.46 33.99-1.05 3.14-1.34 6.53-2.21 9.74-.45 1.65-1.4 3.16-2.12 4.74-.42-.13-.84-.26-1.26-.39.12-2.82.19-5.64.38-8.45.55-7.81 1.43-15.62 1.64-23.44.19-7.14-.39-14.29-.49-21.44-.03-2.45.42-4.9.58-7.35.71-10.98 1.28-21.96 2.14-32.93.82-10.48 2.01-20.94 2.88-31.42.32-3.89.15-7.82.27-11.73.29-9.04.7-18.09.9-27.13.1-4.56-.31-9.13-.21-13.69.08-3.5.16-7.12 1.08-10.46.84-3.05 1.06-5.81.15-8.81-1.04-3.42-1.92-6.89-2.72-10.37-.36-1.59-.35-3.27-.5-4.85 5.79-1.44 5.96-1.43 8.71 3.06 2.35 3.84 5.45 7.28 5.28 12.36-.09 2.8 3.39 4.39 6.24 3.18 14.82-6.26 29.62-12.57 44.43-18.87.31-.13.6-.38.92-.4 4.42-.36 8.32-1.18 12.22-4.15 3.63-2.76 8.9-3.33 13.41-4.96 4.41-1.59 8.78-3.3 13.17-4.96 2.61-.99 5.17-2.13 7.84-2.94 1.73-.52 3.62-.52 5.42-.84 1.03-.18 2.15-.34 3.03-.85 3.61-2.11 7.14-4.35 11.17-6.83-.5-1.13-1.1-3.05-2.11-4.71-7.47-12.21-15.1-24.33-22.51-36.58-1.65-2.74-4.41-2.19-6.64-3.2-1.47-.66-2.81-1.6-4.13-2.38-6.1.38-12.51.75-18.9 1.19-5.45.38-10.5-.68-15.65-2.68-3.95-1.53-8.52-1.39-12.76-2.24-1.27-.25-2.49-1.21-3.47-2.13-.32-.3-.08-1.91.37-2.2 2.12-1.36 4.3-2.76 6.65-3.63 7.99-2.97 15.72-1.16 23.52 1.26 3.06.95 6.52.66 9.81.82 5.74.28 11.48.53 17.23.67 1.65.04 3.31-.44 4.97-.49 2.28-.08 4.69-.45 6.84.12 8.77 2.31 17.54 4.94 26.71 3.72 19.92-2.66 39.58 2.7 59.43 1.6 3.01-.17 6.05-.46 9.04-.26 5.02.33 8.34 1.09 7.59 7.75-.42 3.78.49 7.7.64 11.56.13 3.32.76 6.84-.08 9.93-2.47 9.11-1.8 18.44-2.5 27.65-.54 7.21.43 14.55-.29 21.73-.68 6.81-.35 13.35 1.23 19.93.28 1.15.42 2.56.01 3.61-1.64 4.24-.91 8.3.37 12.43.59 1.9 1.48 3.99 1.2 5.84-1.42 9.56.04 18.99.96 28.42 1.17 12.08-1.22 23.84-2.4 35.73-.64 6.44-.37 12.96-.76 19.43-.36 6.01-1.14 11.99-1.55 17.99-.27 3.98-.15 7.99-.34 11.98-.45 9.45-1.3 18.9-1.41 28.35-.13 11.74.4 23.48.46 35.22.02 3.41-.13 6.94-.98 10.21-2.64 10.16-5.62 20.23-8.53 30.32-.74 2.58-.84 2.55-4.11 2.1-.29-6.62-.49-13.31-.92-19.99-.12-1.95-.88-3.85-1.33-5.78-.35-1.5-.94-3-.96-4.5-.27-21.26-1-42.54-.36-63.78.2-6.45-.94-12.95-.02-19.16 1.78-12-.32-24.05 1.42-35.98.86-5.93 1.65-11.87 2.66-17.77.18-1.04 1.29-1.97 2.1-3.15zm-165.73-23.17c.34.05.68.1 1.01.15.27-1.31.34-2.71.86-3.91.56-1.3 1.25-2.99 2.36-3.52 9.55-4.63 19.03-9.45 28.86-13.41 15.74-6.35 31.45-12.71 46.78-20.06 12.65-6.07 25.8-11.12 38.71-16.65.91-.39 1.81-.91 2.56-1.54 2.3-1.94 2.35-3.82.2-5.98-2.21-2.21-4.56-4.3-6.72-6.57-3.17-3.32-6.26-6.7-9.31-10.13-1.84-2.08-3.48-2.43-5.97-.69-2.71 1.89-5.75 3.46-8.86 4.61-18.87 6.94-37.7 13.97-56.73 20.43-9.13 3.1-18.07 7.28-28.07 7.3-1.32 0-2.6 1.19-3.97 1.61-3.14.97-6.32 1.83-9.5 2.69-.38.1-1.12-.15-1.18-.01-1.89 4.25-6.06 3.01-9.31 3.99-.94.28-2.31.92-2.48 1.64-.75 3.13-2.01 6.5-1.49 9.51 1.18 6.86.17 13.58 0 20.37-.12 4.74.28 9.5.47 14.82 7.98-1.71 14.06-5.48 20.09-9.62.62 1.82 1.15 3.4 1.69 4.97zm87.99-137.81c-1.21 2.02-.55 3.98 2.07 5.98 2.45 1.86 4.62 4.23 6.49 6.7 8.17 10.78 16.15 21.7 24.3 32.5 1.8 2.39 3.94 4.54 6.07 6.65 2.51 2.48 5.76 4.3 6.45 8.24.12.67.84 1.33 1.45 1.79 3.37 2.55 6.78 5.05 10.2 7.53 3.87 2.81 7.76 5.59 11.65 8.37 1 .72 2.05 1.37 3.08 2.06.5-1.13 1.08-2.24 1.47-3.41.21-.61.12-1.33.13-2 .13-10.38.39-20.77.35-31.15-.04-8.59-.52-17.17-.62-25.76-.04-3.22.49-6.45.69-9.68.13-2.03-.74-2.98-2.95-3.03-4.8-.1-9.6-.37-14.39-.71-18.69-1.33-37.37-2.7-56.44-4.08z" fill="#010100"/><g fill="#fcfafa"><path d="m342.2 3.2-6.3 9.2h6.1v1.2h-8.2v-.5l6.2-9.1h-5.7v-1.2h7.8v.4z"/><path d="m344 13.7v-10.9h3.1c1.6 0 3 .5 4.1 1.4 1.1 1 1.6 2.2 1.6 3.9s-.5 3-1.6 4-2.5 1.5-4.2 1.5h-3zm1.4-9.6v8.4h1.6c1.4 0 2.5-.4 3.2-1.1.8-.8 1.2-1.8 1.2-3.2s-.4-2.4-1.2-3.1-1.8-1-3.1-1z"/><path d="m356.3 2.8v10.9h-1.4v-10.9z"/><path d="m366.6 13.2c-.8.4-1.8.6-3 .6-1.6 0-2.8-.5-3.7-1.5s-1.4-2.3-1.4-3.9c0-1.7.5-3.2 1.6-4.2s2.4-1.6 4-1.6c1 0 1.9.1 2.6.4v1.5c-.8-.4-1.6-.6-2.6-.6-1.2 0-2.2.4-3 1.2s-1.1 1.9-1.1 3.3c0 1.3.4 2.3 1.1 3.1s1.6 1.1 2.8 1.1c1.1 0 2-.2 2.8-.7v1.3z"/><path d="m368.2 13c0-.3.1-.5.3-.6.2-.2.4-.3.6-.3.3 0 .5.1.7.3s.3.4.3.6-.1.5-.3.6c-.2.2-.4.3-.7.3s-.5-.1-.6-.3c-.2-.2-.3-.4-.3-.6z"/><path d="m381.1 13.7h-1.7l-5.5-8.4c-.2-.2-.3-.5-.4-.7 0 .2.1.8.1 1.5v7.6h-1.4v-10.9h1.8l5.3 8.3c.3.4.4.6.4.8 0-.3-.1-.8-.1-1.6v-7.5h1.4v10.9z"/><path d="m389.7 13.7h-5.8v-10.9h5.6v1.2h-4.2v3.5h3.9v1.2h-3.9v3.7h4.4z"/><path d="m398.4 4.1h-3.1v9.6h-1.4v-9.6h-3.1v-1.3h7.7v1.3z"/></g></svg>