<svg enable-background="new 0 0 400 400" viewBox="0 0 400 400" xmlns="http://www.w3.org/2000/svg"><g fill="#010100"><path d="m239.6 237.18c-2.91-11.46-7.46-22.19-7.35-33.94.02-2.32-.71-3.91-2.6-5.37-9.34-7.2-14.49-17.43-19.6-27.66-1.2-2.4-2.37-4.81-3.5-7.23-.56-1.21-1.28-2.44-1.44-3.72-.16-1.33.27-2.73.45-4.1 1.98.33 4.72-.04 5.8 1.12 2.92 3.16 4.97 7.09 7.66 10.48 3.16 3.98 6.63 7.71 10.6 12.28.45-2.1.8-3.13.86-4.17.42-7.02 1.11-14.05 1.07-21.07s-.67-14.05-1.44-21.03c-.12-1.12-2.13-2.5-3.52-2.92-3.19-.96-6.57-1.29-9.82-2.09-10.67-2.63-19-8.25-23.14-18.87-2.52-6.46-4.07-12.87-3.31-20.18 1.29-12.42 1.06-25 1.75-37.49.26-4.78 1.06-9.56 2.06-14.25.52-2.42 2.03-4.63 3.08-6.91 5.13 2.2 5.46 3.59 3.15 8.19-.52 1.02-.15 3.35.67 4.02 2.31 1.88 2.69 3.8 1.7 6.43-.37.98-.4 2.25-.14 3.28 1.52 6.04.42 11.98-.33 17.98-.38 3.07-.16 6.22-.23 9.34-.14 5.89 0 11.81-.56 17.66-.4 4.23.56 7.43 3.98 9.96 3.33 2.46 6.39 5.33 9.9 7.48 2.18 1.34 4.97 2.31 7.5 2.33 6.01.04 12.05-.3 18.02-1.02 4.5-.55 6.58-2.99 5.75-7.38-3.23-17.24.05-34.38.56-51.54.13-4.28 2.09-8.61 3.76-12.7.66-1.62 2.84-2.61 4.32-3.89.49.21.98.42 1.48.63.25 5.63 1.1 11.31.62 16.88-.79 9.19-.03 18.3-.01 27.45.02 8.47-1.67 16.94-1.76 25.43-.07 6.24-2.46 10.6-7.27 14.07-.99.72-1.78 2.13-2.82 2.3-4.43.71-4.05 3.72-3.91 6.96.48 11.41.81 22.82 1.22 34.23.13 3.68 1.18 4.21 4.25 2.09 1.07-.74 2-1.77 2.77-2.84 3.93-5.44 7.61-11.08 11.75-16.35 2.33-2.96 5.38-5.36 8.11-8.01.37.27.75.54 1.12.81-1.59 3.63-3.28 7.22-4.74 10.9-5.16 12.99-14.62 23.2-22.18 34.65-.68 1.03-.98 2.48-1 3.74-.09 7.5-.03 15-.06 22.51 0 1.11.23 2.52-.34 3.27-2.83 3.74-1.74 7.46-.53 11.35.76 2.51.98 5.12-2.36 6.91z"/><path d="m192.74 229.11c6.17 3.75 9.41 7.59 8.76 14.22-.46 4.71.16 9.53.46 14.3.97 15.54 2.09 31.07 3 46.62.34 5.85 1.34 7.42 6.34 7.67.69-7.96 1.37-15.93 2.08-23.91.38-4.23.86-8.46 1.2-12.69.21-2.61 1.55-2.89 3.66-2.1 2.52.94 3.96 2.71 4.6 5.31 2.42 9.9 2.83 19.89 1.67 29.99-.31 2.66-.43 5.35-.45 8.03-.03 2.55 1.2 4.15 3.85 4.67 2.74.54 5.48 1.15 8.14 1.99 2.78.88 4.3-.4 4.47-2.82.18-2.61-.41-5.28-.68-7.93-1.2-11.4-.83-22.74 1.77-33.91.5-2.15 2.06-4.05 3.43-6.62 2.87 3.79 3.85 7.38 3.97 11.19.13 4.14-.11 8.29.04 12.42.38 10.71 1.3 21.41 1.2 32.11-.08 8.36-1.13 16.74-2.2 25.05-.4 3.13-1.96 6.14-3.21 9.11-.33.78-1.41 1.49-2.28 1.76-8.21 2.52-16.4 5.14-24.7 7.31-4.13 1.08-4.6-.05-4.38-4.36.19-3.73-.62-7.51-.9-11.28-.61-8.34-1.33-16.69-1.65-25.04-.09-2.52-.67-4.29-2.72-5.63-2.24-1.47-4.47-2.97-6.68-4.5-5.04-3.5-6.99-8.29-6.7-14.44.21-4.4-.5-8.85-.89-13.27-.35-3.88-.8-7.75-1.25-11.61-.41-3.52-.88-7.03-1.31-10.54-.08-.66-.14-1.33-.14-2 .02-7.25-.11-14.5.14-21.75.16-5.54.83-11.06 1.36-17.35zm31.23 103.11c-.61 6.04-1.18 11.79-1.77 17.53-.34 3.34-.83 6.66-1.03 10.01-.21 3.45 1.31 4.96 4.35 3.72 3.57-1.45 6.83-3.67 10.13-5.72.73-.45 1.4-1.57 1.46-2.42.44-5.79.82-11.59.94-17.39.02-.99-1.09-2.64-1.99-2.91-3.83-1.13-7.77-1.85-12.09-2.82z"/><path d="m163.18 374.91c-3.22.16-3.27-1.76-3.3-3.59-.26-15.39-.05-30.77 1.19-46.12 1.34-16.63 1.91-33.32 4.79-49.8.73-4.16.54-8.47.82-12.71.41-6.32.87-12.64 1.37-19.86-3.22 1.64-6.31 2.93-9.11 4.7-4.14 2.63-8.52 3.7-13.37 3.47-2.79-.13-4-1.72-4.44-4.12-.24-1.31-.07-2.68-.2-4.01-.25-2.67 1.14-3.63 3.57-3.62 7.18.04 13.84-1.36 19.64-6.08 1.03-.84 3.53-.33 5.18.15 3.47 1.02 6.36 2.59 5.8 7.24-.15 1.24 1.27 2.92 2.36 4.03 4.8 4.88 4.71 4.8 1.75 10.89-.96 1.98-1.02 4.41-1.44 6.65-.56 2.94-1.05 5.89-1.6 8.82-.22 1.2-.99 2.51-.72 3.56 2.49 9.81-.48 19.36-1.37 28.96-1.83 19.82-4.01 39.61-6.48 59.35-.52 4.16-2.91 8.06-4.44 12.09z"/><path d="m123.22 192.23c6.98-7.42 15.55-11.63 23.96-16.06 2.43-1.28 5.09-2.22 7.75-2.94 4.27-1.16 6.21-3.68 6.25-8.15.09-10.72.49-21.43.46-32.15-.02-8.26-.54-16.52-.77-24.78-.08-2.87.05-5.75.08-8.63.03-2.87.16-5.75.07-8.62-.35-11.16-.76-22.31-1.18-33.46-.18-4.69-.6-9.38-.61-14.07-.01-2.97.34-5.97.86-8.89.52-2.93 1.44-5.78 2.2-8.72 2.76.19 4.03 1.28 4.12 4.34.18 6.21.91 12.41 1.32 18.61.08 1.2-.41 2.42-.42 3.63-.02 1.94.14 3.88.23 5.82.04.78.36 1.65.11 2.31-1.84 4.82.07 9.44.45 14.17.64 8.12.67 16.28 1.08 24.42.67 13.16 1.9 26.31 2.02 39.48.1 10.71-1.06 21.44-1.76 32.15-.06.87-.65 1.96-1.35 2.5-6.72 5.15-12.83 11.43-21.22 13.77-5.21 1.45-8.77 5.04-12.94 7.88-2.14 1.46-4.25 2.48-7.14 1.46-2.63-.91-3.43-2.56-3.57-4.07z"/></g><path d="m6.4 11.7c-1-.8-1.9-1.6-2.9-2.3l.6-.7c.9.7 1.9 1.4 2.9 2.2zm-2.1 8.3c.7-2.1 1.4-4.2 2-6.4.2.1.6.3 1 .4-.7 2.3-1.3 4.4-1.9 6.4zm3-12.8c-1.1-.9-2.1-1.7-2.9-2.4l.6-.7c1 .8 2 1.5 3 2.4zm1.4-1.3v-.9h10.2v.9c-.9 4.2-2.3 7.3-4.1 9.4 1.3 1.4 3.2 2.7 5.7 4-.2.2-.4.5-.7.9-2.5-1.4-4.4-2.7-5.7-4.2-1.4 1.5-3.5 3-6.1 4.4 0 0 0 0-.1-.1-.3-.4-.5-.7-.7-.8 2.7-1.3 4.7-2.8 6.2-4.2-1.8-2.2-3-5.3-3.7-9.4zm9.2 0h-7.1c.6 3.8 1.7 6.7 3.4 8.7 1.7-2 2.9-4.8 3.7-8.7z" fill="#fafbfa"/><path d="m31.6 3.6h.9v2.3h4.1v9.1h1.7v.9h-16.6v-.9h1.7v-9.1h4.1v-2.3h.9v2.3h3.1v-2.3zm-4 13.3.6.8c-1.9.9-3.8 1.9-5.8 2.8-.2-.3-.3-.6-.5-.9 2-.9 3.9-1.8 5.7-2.7zm-3.2-10.1v3.7h3.1v-3.7zm0 4.5v3.7h3.1v-3.7zm4.1-4.5v3.7h3.1v-3.7zm0 4.5v3.7h3.1v-3.7zm9.1 9.1c-2.1-1.1-4.1-2-5.8-2.7l.5-.8c2.2.9 4.1 1.8 5.8 2.6zm-1.9-13.6h-3.1v3.7h3.1zm-3.2 4.5v3.7h3.1v-3.7z" fill="#fafbfa"/></svg>