<svg enable-background="new 0 0 400 400" viewBox="0 0 400 400" xmlns="http://www.w3.org/2000/svg"><path d="m174.71 35.49c3.21-1.07 4.79-.11 5.47 2.35 1.67 6.02 3.29 12.05 4.92 18.08.26.96.33 2 .71 2.9 1.7 3.99 3.45 7.96 5.24 11.91 2.31 5.09 5.8 7.5 10.09 6.35 1.8-.48 4.02-1.93 4.75-3.52 3.67-8.03 5.42-16.42 4.48-25.41-.6-5.73-.45-11.58-.12-17.34.12-2.07 1.79-4.06 2.75-6.08.53-.05 1.06-.1 1.59-.15 1.17 1.97 3.09 3.84 3.34 5.92.6 4.85 1.44 10.04.32 14.64-2.55 10.44-.74 20.03 3.86 29.23 2.57 5.14 6.04 9.83 9.26 14.63 1.55 2.31 3.69 4.23 5.1 6.61.74 1.24 1.12 4.09.56 4.44-1.73 1.07-4.04 1.85-6.02 1.66-1.67-.16-3.42-1.59-4.76-2.85-2.19-2.06-4.01-4.52-6.14-6.66-1.38-1.38-3.03-2.48-5.52-4.48-.9 6.02-2.07 11.01-2.29 16.05-.3 6.91-.1 13.87.35 20.78.17 2.64 1.78 5.16 2.45 7.8 1.09 4.3 1.97 8.65 2.89 12.99.26 1.19.18 2.49.58 3.62 6.42 18.3 6.28 37.05 2.32 55.58-2.2 10.29-1.8 20.93-4.98 30.91-1.81 5.67-4.86 10.97-7.68 16.25-.53.98-2.64 1.43-4.03 1.46-.47.01-1.54-2.1-1.4-3.11.72-5.19 1.47-10.4 2.74-15.48 1.04-4.18 2.79-8.19 4.27-12.25 1.29-3.54.51-4.51-3.23-4.6-7.79-.19-15.15 1.94-22.63 3.64-5.5 1.26-11.25 2.34-16.84 2.14-9.36-.33-17.75 3.11-26.49 5.25-.76.19-1.5.45-2.25.67-7.36 2.14-7.36 2.14-11.74-5.4 3.74-.31 7.14-.85 10.52-.79 3.22.06 5.93-.72 8.91-2.01 4.85-2.1 10.01-4.21 15.61-2.42.35.11.82-.15 1.24-.25 6.39-1.56 12.77-3.17 19.17-4.67 9.12-2.13 9.09-2.42 6.59-11.09-2.99-10.41-5.45-20.97-8.14-31.47-.08-.32-.26-.74-.14-.98 3.23-6.57-1.89-12.4-1.66-18.7.04-1.11-.26-2.22-.28-3.34-.03-1.9-.79-4.19 2.28-4.64.21-.03.29-.95.63-2.14-3.79.32-7.23.4-10.58.94-9.59 1.55-19.26 2.81-28.66 5.14-5.21 1.29-9.87 1.36-14.65-.68-.96-.41-1.65-1.46-3.11-2.81 2.26-.25 3.36-.47 4.46-.48 14.42-.14 27.25-6.61 40.81-10.17.76-.2 1.49-.47 2.24-.7 6.53-2.05 6.86-2.5 6.9-9.48 0-.22-.08-.49.01-.67 2.69-5.02.46-10.83 2.45-15.87 2-5.06 4.2-10.12 7.05-14.73 2.31-3.74 2.77-6.84.19-10.43-.69-.95-1.15-2.22-1.26-3.39-.16-1.59-.07-3.03-2.08-3.55-.41-.11-.63-1.07-.87-1.66-1.19-2.94-2.51-5.84-3.5-8.85-1.77-5.37-3.47-10.77-4.89-16.24-.32-1.25.81-2.81.93-4.25.11-1.24-.14-2.56-.47-3.79-.4-1.44-1.04-2.83-1.62-4.36zm25.34 53.84c-2.41 3.71-5.26 7.02-6.88 10.85-2.47 5.82-4.15 11.98-6.02 18.03-.85 2.76-2.14 5.7-1.86 8.42 1.06 10.53.77 21.26 4.1 31.5.27.82.25 1.73.32 2.6.26 3.48-.38 7.35.93 10.38 2.77 6.41 3.04 13.23 4.71 19.79 1.33 5.22 3.44 10.31 5.77 15.19 1.35 2.83 4.54 2.51 7.14 1.7 2.43-.76 4.86-1.79 4.77-5.16-.3-10.83-.28-21.67-.88-32.47-.29-5.19-2.13-10.28-2.48-15.47-.35-5.21-1-10.06-2.57-15.2-2.29-7.5-4.45-15.47-3.19-23.67.17-1.13-.07-2.46-.52-3.53-2.18-5.25-1.64-10.53-.08-15.72 1.17-3.9 1.04-4.77-3.26-7.24z" fill="#010100"/><path d="m174.12 297.98c-1.94-2.15-6.31-2.05-5.69-5.87.18-1.14 2.95-1.86 4.7-2.87 2.74 4.9 5.2 9.5 7.85 14 3.58 6.09 4.52 6.18 11.36 4.33 4.48-1.21 9.13-1.95 13.76-2.4 5.07-.49 12.15-6.41 12.85-11.46.31-2.21.34-4.46.49-6.69.05-.67-.14-1.51.19-1.98 3.45-4.87 1.53-10.54 2.16-15.78.68-5.6 3.4-10.02 5.88-15.95 1.18 1.79 2.45 2.83 2.44 3.85-.11 6.11-.55 12.21-.81 18.32-.21 4.91-.44 9.83-.43 14.74.01 2.8 2.08 4.42 5 3.98 3.6-.54 7.16-1.34 10.71-2.14.57-.13 1.07-.78 1.49-1.28 3.22-3.88 6.72-7.57 9.48-11.75 1.57-2.38 2.41-5.51 2.7-8.39.44-4.39-.62-9.03 2.57-11.76-2.04-11.92-2.55-23.05-.73-34.87.74 1 1.41 1.57 1.67 2.29 2.62 7.11 5.66 14.08 5.09 22.01-.26 3.63.55 7.32.67 10.99.09 2.95.14 5.96-.28 8.87-.58 4-1.6 7.96-6.16 9.48 3.32 4.61 3.31 6.36-.89 9.89-5.29 4.44-9.18 10.51-17.17 11.7-5.1.76-9.85 4.09-14.64 6.51-1.02.51-2.1 2.03-2.16 3.14-.47 8.32-1.53 16.38-5.95 23.78-1.35 2.26-1.41 5.36-1.83 8.11-1.92 12.32-7.76 22.98-14.39 34.16-1.22-.96-2.68-1.69-3.55-2.85-5.19-6.92-9.75-14.18-11.35-22.9-.16-.87-.41-1.81-.91-2.51-7.18-9.95-8.72-22.15-13.15-33.2-1.62-4.03-1.9-8.62-2.57-12.98-.12-.73.98-1.61 1.6-2.52zm13.68 19.83c.68 1.5 1.03 3.15 2.01 4.23 2.69 2.98 3.52 6.07 1.75 9.81-.33.7-.33 1.86.04 2.52 3.3 5.93 6.71 11.79 10.29 18.01 3.67-3.22 4.75-7.35 6.01-11.33 1.61-5.09 2.85-10.3 4.6-15.34.84-2.42 2.33-4.48.95-7.23-.38-.75.41-2.06.59-3.13.22-1.24.37-2.49.54-3.73-1.27-.06-2.65-.46-3.81-.12-3.75 1.1-7.35 1.67-10.99-.43-.65-.38-2-.2-2.68.24-3.09 2.01-6.05 4.2-9.3 6.5z" fill="#010100"/><g fill="#fafbfa"><path d="m6.4 11.7c-1-.8-1.9-1.6-2.9-2.3l.6-.7c.9.7 1.9 1.4 2.9 2.2zm-2.1 8.3c.7-2.1 1.4-4.2 2-6.4.2.1.6.3 1 .4-.7 2.3-1.3 4.4-1.9 6.4zm3-12.8c-1.1-.9-2.1-1.7-2.9-2.4l.6-.7c1 .8 2 1.5 3 2.4zm1.4-1.3v-.9h10.2v.9c-.9 4.2-2.3 7.3-4.1 9.4 1.3 1.4 3.2 2.7 5.7 4-.2.2-.4.5-.7.9-2.5-1.4-4.4-2.7-5.7-4.2-1.4 1.5-3.5 3-6.1 4.4 0 0 0 0-.1-.1-.3-.4-.5-.7-.7-.8 2.7-1.3 4.7-2.8 6.2-4.2-1.8-2.2-3-5.3-3.7-9.4zm9.2 0h-7.1c.6 3.8 1.7 6.7 3.4 8.7 1.7-2 2.9-4.8 3.7-8.7z"/><path d="m31.6 3.6h.9v2.3h4.1v9.1h1.7v.9h-16.6v-.9h1.7v-9.1h4.1v-2.3h.9v2.3h3.1v-2.3zm-4 13.3.6.8c-1.9.9-3.8 1.9-5.8 2.8-.2-.3-.3-.6-.5-.9 2-.9 3.9-1.8 5.7-2.7zm-3.2-10.1v3.7h3.1v-3.7zm0 4.5v3.7h3.1v-3.7zm4.1-4.5v3.7h3.1v-3.7zm0 4.5v3.7h3.1v-3.7zm9.1 9.1c-2.1-1.1-4.1-2-5.8-2.7l.5-.8c2.2.9 4.1 1.8 5.8 2.6zm-1.9-13.6h-3.1v3.7h3.1zm-3.2 4.5v3.7h3.1v-3.7z"/></g></svg>