<svg enable-background="new 0 0 400 400" viewBox="0 0 400 400" xmlns="http://www.w3.org/2000/svg"><path d="m222.02 286.21c-1.93 1.18-3.46 1.95-4.8 2.97-1.95 1.48-3.66 3.3-5.65 4.71-9.48 6.7-19.01 13.34-28.56 19.95-5.61 3.88-7.88 9.67-9.34 15.95-.25 1.08-.24 2.22-.43 3.33-.49 2.97-1.94 4.06-5.63 4.05-.6-15.46-2.98-30.96 1.37-46.28 1.31-4.61 2.98-9.12 4.62-13.62.35-.97 1.22-1.8 1.99-2.56 1.92-1.88 4-3.59 5.86-5.51 4.04-4.15 5.7-8.7 4.64-14.88-1.8-10.44-3.17-21.05-3.48-31.63-.43-14.37.92-28.7 4.22-42.78.42-1.78.06-3.75.06-6.19 3.22-2.11 4.19-6.73 6.21-10.62 2.59-4.99 2.25-9.87-.58-14.98-2.74-4.96-3.9-10.56-3.66-16.58 4.52.42 7.72 2.58 9.29 6.18 5.06 11.66 11.5 22.62 15.56 34.82 5.07 15.23 11.47 30.03 17.46 44.95 1.89 4.7 2.93 9.36 1.98 14.39-.1.54-.28 1.18-.11 1.66 1.71 4.78-.68 7.77-4.31 10.37-4.7 3.37-9.46 6.7-13.93 10.37-7.33 6.02-14.24 12.57-21.71 18.4-9.75 7.6-11.14 18.82-13.84 29.56-.13.52 0 1.12.07 1.67s.23 1.08.52 2.41c1.94-.77 3.87-1.19 5.4-2.21 8.89-5.91 15.89-14.36 25.67-19.08.8-.39 1.55-1.31 2.31-1.3 5.27.09 6.72-3.8 8.3-7.64.25-.61.63-1.17.96-1.75 1.63 0 3.16.08 4.68-.02 2.53-.17 3.85 1.25 4.11 3.45.7 6.03.85 12.14 1.9 18.1.55 3.14 2.1 6.33 3.96 8.97 2.91 4.13 3.09 9 4.25 13.51 4.12 16 7.63 32.15 11.28 48.27.44 1.93.39 4 .35 6-.05 2.14-1.56 2.56-2.91 1.39-3.41-2.96-7.24-5.71-6.66-11.24.17-1.61-.55-3.54-1.42-4.99-4.03-6.68-7.04-13.62-7.45-21.59-.13-2.48-1.57-4.87-2.14-7.37-.86-3.78-1.33-7.65-2.23-11.42-.89-3.71-2.19-7.32-3.15-11.01-1.69-6.48-3.24-12.97-5.03-20.18zm-25.37-33.69c10.24-5.63 19.67-10.92 27.11-18.93 1.17-1.26.82-4.4.43-6.53-.46-2.48-1.79-4.79-2.65-7.21-1.91-5.35-3.62-10.77-5.66-16.07-2.8-7.28-5.75-14.49-8.79-21.67-.74-1.74-2.05-3.24-3.24-5.07-12.09 24.36-10.69 49.31-7.2 75.48z" fill="#010102"/><path d="m141.04 57.24c.12-2.12-.06-4.31.42-6.34 1.1-4.57 1.36-8.96-.73-13.34-.36-.76.04-1.91.17-2.87.13-.98.61-1.97.5-2.9-.65-5.22 2.76-7.91 7.84-6.07.52.19 1.14.33 1.51.7 4.17 4.25 9.29 3.14 14.45 3.03 12.6-.26 25.21-.05 37.82 0 3.02.01 6.03.13 9.05.24 4.45.17 5.93 1.71 6.78 6.09 2.31 11.84 3.33 23.68.64 35.6-.34 1.52-.66 3.06-1.03 4.58-1.11 4.61-3.39 6.54-8.19 6.67-10.61.28-21.23.42-31.84.71-6.57.18-13.14.64-19.71.71-2.42.02-4.84-1.02-7.27-1.06-4.51-.06-6.35-2.92-7.17-6.59-1.4-6.3-2.46-12.68-3.66-19.03.14-.06.28-.09.42-.13zm70.1-18.05c-1.17-.21-2.44-.58-3.73-.65-10.82-.64-21.65-1.55-32.48-1.72-5.73-.09-11.48 1.12-17.22 1.83-2.02.25-2.66 1.46-3.03 3.58-1.66 9.49.97 19.24-1.88 28.65-.48 1.57.27 3.07 2.51 3.02 8.49-.19 17-.09 25.47-.55 6.11-.33 12.15-1.57 18.31-.27 1.69.36 3.58.1 5.33-.18 4.28-.67 4.83-1.46 4.77-5.67-.06-3.9-.2-7.81.04-11.69.18-2.94.99-5.83 1.37-8.76.28-2.28.34-4.61.54-7.59z" fill="#010102"/><g fill="#fcfbfa"><path d="m385.2 377.6.6-.7c.6.4 1.3.9 1.9 1.5l-.6.7c-.8-.5-1.4-1-1.9-1.5zm.3 7.1c.6-1.4 1.1-2.9 1.5-4.5.3.1.6.3.9.4-.5 1.4-1 2.9-1.5 4.4zm.2-10.1.6-.6c.7.5 1.3 1.1 1.9 1.6l-.7.7c-.6-.6-1.2-1.2-1.8-1.7zm8.4-.8h.8v.9h1.8v.7h-1.8v1.8h-.8v-.3h-1.2v.9h3.3v2.6h-.8v-.4h-2.5c0 .3 0 .6-.1.8h3.4v.7h-3.5c0 .3-.1.6-.1.8h4v.7h-3.5c.7.9 1.9 1.3 3.6 1.5-.2.2-.4.5-.6.9-1.9-.3-3.2-1.1-3.8-2.3-.5 1.1-1.8 2-3.9 2.4-.2-.3-.4-.5-.6-.8 1.9-.4 3.1-.9 3.6-1.7h-3.2v-.7h3.5c.1-.2.1-.5.2-.8h-3.3v-.7h3.4c0-.2 0-.5 0-.8h-2.4v.3h-.8v-2.6h3.3v-.9h-1.2v.3h-.8v-1.8h-1.8v-.7h1.8v-.9h.8v.9h3.2zm-4.4 5.5h2.4c0-.3 0-.6 0-.9h-2.4zm1.2-3.1h3.2v-.8h-3.2zm4.4 2.2h-2.4v.9h2.5v-.9z"/><path d="m389.2 385.8h.9v1.5h1.9v-1.5h.9v1.5h2.7v6h1.1v.9h-11.3v-.9h1.1v-6h2.7zm.2 8.7.5.8c-1.2.6-2.5 1.3-4 1.9-.2-.3-.3-.6-.6-.8 1.6-.6 3-1.3 4.1-1.9zm-2-4.3h1.9v-2.1h-1.9zm0 3.1h1.9v-2.2h-1.9zm2.7-3.1h1.9v-2.1h-1.9zm0 3.1h1.9v-2.2h-1.9zm2.4 1.3c1.4.6 2.7 1.2 4.1 1.8l-.5.9c-1.5-.7-2.8-1.4-4.1-1.9zm2.2-6.5h-1.9v2.1h1.9zm-1.9 5.2h1.9v-2.2h-1.9z"/></g></svg>