<svg enable-background="new 0 0 400 400" viewBox="0 0 400 400" xmlns="http://www.w3.org/2000/svg"><path d="m152.02 248.2c2.64-.36 5.4-.34 7.89-1.14 16.45-5.27 33.24-8.94 50.39-10.87 4.04-.46 8.22-1.08 12.01 2.09-6.71 4.19-13.87 6.13-21.22 7.69-12.12 2.58-24.2 5.34-36.28 8.08-1.62.37-3.23.95-4.75 1.63-3.75 1.69-4.27 2.85-2.81 6.68 4.4 11.61 8.05 23.44 9.08 35.85.37 4.46.05 8.91 2.38 12.97.05.09.08.22.07.33-.56 6.19-.99 12.39-1.73 18.56-.39 3.31-1.14 6.59-2.01 9.81-.83 3.09-1.59 6.34-3.17 9.06-3.3 5.7-7.05 11.15-10.77 16.6-1.38 2.01-3.03 3.91-4.85 5.52-4.74 4.21-10.5 4.82-16.07 1.93-.38-.2-.73-.5-1.02-.82-11-12.21-16.8-26.4-18.22-42.91-1.21-14.17 2.2-27.53 4.55-41.15.47-2.73.83-5.48.58-9.17-1.74.79-3.65 1.34-5.2 2.41-3.76 2.61-7.64 4.78-12.08 5.75-.48-.57-.97-1.13-1.45-1.7.88-.26 1.9-.31 2.61-.8 8.5-5.82 15.47-13.2 21.67-21.35 5.62-7.39 11.04-14.93 16.87-22.15 3.22-3.98 7.47-7.14 10.62-11.17 11.68-14.95 25.9-27.82 35.63-44.37 4.86-8.26 8.73-16.6 8.49-26.41-.04-1.55.46-3.1.56-4.65.06-.97-.17-1.96-.65-3.01-9.04 13.67-19.74 25.52-32.89 35.05-.99.72-2.48.76-3.8 1.13-1.2-2.52-1.01-4.45.82-6.31.91-.93 1.71-2.16 2.09-3.4 1.63-5.25 5.28-8.92 9.16-12.53 1.94-1.8 3.44-4.09 5.06-6.23 7.35-9.72 14.63-19.48 22-29.17 3.29-4.33 4.42-9.21 4.18-14.51-.16-3.35-.58-6.71-.51-10.05.05-2.53-1.36-3.6-3.32-3.74-2.86-.2-5.93-.44-8.61.34-7.16 2.1-13.49 1.05-19.11-3.79-.94-.81-1.35-2.23-1.83-3.06 2.55-.72 4.34-1.24 6.13-1.71 1.72-.46 3.44-1.03 5.2-1.27 10.08-1.38 20.17-2.67 30.26-3.98 1.55-.2 3.12-.52 4.67-.46 14.25.55 27.48-4.44 41.03-7.61 5.03-1.18 4.86-1.63 4.16-6.83-1.45-10.75-2.81-21.5-4.19-32.26-.6-4.71-.91-5.27-5.6-4.75-9.05.99-17.95.94-27.03-.5-4.98-.79-10.41.49-15.52 1.46-11.42 2.17-22.77 4.68-34.12 7.15-2.05.45-4.01 1.34-5.99 2.09-2.64.99-2.79 2.95-2.42 5.46.34 2.31.01 4.71-.01 7.07-.01 1.28-.33 2.67.05 3.83 2.1 6.4 1.78 12.77.1 19.16-.68 2.59-1.08 5.3-2.14 7.72-.56 1.27-2.2 2.64-3.52 2.83-1.1.16-3.15-1.06-3.55-2.13-1.5-4.03-3.38-8.23-3.51-12.42-.25-8.24.55-16.52.95-24.79.14-2.83 1.13-5.6-1.43-8.18-1.15-1.16-1.13-3.47 1.15-4.41 4.25-1.75 7.97-5.05 13.15-4.1 1.14.21 2.49-.81 3.76-1.22 1.69-.54 3.39-1.06 5.09-1.55 2.62-.75 5.22-1.56 7.87-2.2 3.55-.86 7.2-1.34 10.69-2.4 17.44-5.3 35.08-5.13 52.68-1.45 5.27 1.1 10.22 3.84 15.22 6.04 4.49 1.98 4.94 6.38 5.41 10.47.36 3.09.33 6.29-.01 9.38-.94 8.61.67 16.88 2.69 25.16.27 1.11-.4 2.89-1.25 3.76-4.43 4.57-9.7 8-15.9 9.58-11 2.82-22.07 5.35-33.11 8.04-1.41.34-3.12.49-4.07 1.39-1.41 1.32-2.94 3.14-3.21 4.92-.72 4.73-.63 9.59-1.17 14.35-.85 7.49 1.07 13.69 6.73 19.01 11.01 10.34 21.74 20.98 32.53 31.56 1.78 1.74 3.21 3.84 4.81 5.77-.16.3-.32.6-.49.9-1.04 0-2.16.27-3.09-.04-12.65-4.27-25.22-8.58-33.07-20.7-1.85-2.86-4.86-4.97-7.34-7.42-.39.2-.78.39-1.18.59-.43 3.49-.38 7.12-1.38 10.43-2.7 8.94.07 15.71 6.62 22.02 7.24 6.96 13.87 14.58 20.55 22.1 5.4 6.08 10.35 12.54 15.73 18.64 3.77 4.28 7.77 8.38 11.93 12.28 3.77 3.53 8.33 6.3 9.94 11.69.16.52 1.24.77 1.88 1.15 10.3 6.2 17.59 14.86 21.55 26.25.03.08-.09.2-.22.48-1.81 1.15-3.03.45-4.72-1.01-4.24-3.65-8.86-6.87-13.32-10.26-.42.28-.84.56-1.27.83.19 1.78-.01 3.72.64 5.31 1.25 3.07 3.1 5.89 4.47 8.92.59 1.31.81 2.89.82 4.34.01 2.7-.46 5.4-.34 8.09.06 1.51.79 3.02 1.4 4.46 1.89 4.5 3.23 8.96 1.18 13.87-.67 1.59-.62 3.51-.78 5.29-.69 7.66-3.92 14.12-9 19.8-3.49 3.9-6.65 8.11-10.35 11.8-.94.94-3.84 1.16-4.98.4-2.8-1.85-5.53-4.14-7.5-6.82-4.5-6.11-8.46-12.62-12.8-18.86-3.37-4.85-4.93-10.17-5.02-16.01-.01-1 0-2.09-.39-2.97-4.42-10.05-2.44-20.66-1.51-30.79.64-7.01-.06-14.12 1.56-21.13 1.6-6.95 2.11-14.15 2.93-21.26.12-1.03-.42-2.4-1.11-3.22-9.37-10.97-18.82-21.88-28.26-32.8-.51-.59-1.01-1.2-1.55-1.77-3.68-3.87-4.62-3.81-7.82.48-3.28 4.39-6.42 8.9-9.85 13.17-2.36 2.94-5.12 5.56-7.7 8.33-.91.97-2.05 1.83-2.66 2.96-4.09 7.64-10.2 13.5-16.36 19.41-3.3 3.17-6 6.97-8.97 10.49.31.55.6 1.06.89 1.58zm-31.45 67.98c.91 10.38 1.55 20.45 5.94 30.14 2.56 5.65 5.16 11.04 9.23 15.74 3.07 3.55 5.52 3.48 7.78-.83 1.45-2.75 2.13-5.93 3.71-8.59 6.27-10.6 9.37-22.02 10.63-34.25.41-4 .17-7.61-.22-11.48-1.52-15.29-6.31-29.65-11.81-43.84-.43-1.11-1.25-2.1-2.04-3.02-1.39-1.6-2.72-1.76-4.52-.18-4.86 4.29-9.84 8.46-14.92 12.48-1.93 1.53-2.34 3-1.95 5.42.76 4.69 1.61 9.52 1.28 14.21-.57 8.11-2.02 16.14-3.11 24.2zm119.49-23.39c.3 15.53 5.86 29.93 16.37 42.46 2.57 3.07 3.75 3.01 6.13-.28 5.13-7.05 8.37-15 10.64-23.35 2.11-7.76 1.76-15.42-.85-23.1-1.5-4.4-2.11-9.1-3.27-13.63-2.03-7.88-3.05-16.32-6.7-23.39-2.36-4.58-8.62-7.15-13.14-10.63-.18-.14-.35-.29-.55-.38-.96-.43-2.42-1.43-2.78-1.12-.81.68-1.34 1.97-1.52 3.09-.76 4.63-1.35 9.29-2.01 13.93-.7 4.88-1.64 9.83.89 14.45 1.38 2.53 1.11 4.34-1.12 6.13-.66.54-1.12 1.65-1.2 2.54-.37 4.13-.57 8.26-.89 13.28z" fill="#010102"/><g fill="#fcfbfa"><path d="m385.2 377.6.6-.7c.6.4 1.3.9 1.9 1.5l-.6.7c-.8-.5-1.4-1-1.9-1.5zm.3 7.1c.6-1.4 1.1-2.9 1.5-4.5.3.1.6.3.9.4-.5 1.4-1 2.9-1.5 4.4zm.2-10.1.6-.6c.7.5 1.3 1.1 1.9 1.6l-.7.7c-.6-.6-1.2-1.2-1.8-1.7zm8.4-.8h.8v.9h1.8v.7h-1.8v1.8h-.8v-.3h-1.2v.9h3.3v2.6h-.8v-.4h-2.5c0 .3 0 .6-.1.8h3.4v.7h-3.5c0 .3-.1.6-.1.8h4v.7h-3.5c.7.9 1.9 1.3 3.6 1.5-.2.2-.4.5-.6.9-1.9-.3-3.2-1.1-3.8-2.3-.5 1.1-1.8 2-3.9 2.4-.2-.3-.4-.5-.6-.8 1.9-.4 3.1-.9 3.6-1.7h-3.2v-.7h3.5c.1-.2.1-.5.2-.8h-3.3v-.7h3.4c0-.2 0-.5 0-.8h-2.4v.3h-.8v-2.6h3.3v-.9h-1.2v.3h-.8v-1.8h-1.8v-.7h1.8v-.9h.8v.9h3.2zm-4.4 5.5h2.4c0-.3 0-.6 0-.9h-2.4zm1.2-3.1h3.2v-.8h-3.2zm4.4 2.2h-2.4v.9h2.5v-.9z"/><path d="m389.2 385.8h.9v1.5h1.9v-1.5h.9v1.5h2.7v6h1.1v.9h-11.3v-.9h1.1v-6h2.7zm.2 8.7.5.8c-1.2.6-2.5 1.3-4 1.9-.2-.3-.3-.6-.6-.8 1.6-.6 3-1.3 4.1-1.9zm-2-4.3h1.9v-2.1h-1.9zm0 3.1h1.9v-2.2h-1.9zm2.7-3.1h1.9v-2.1h-1.9zm0 3.1h1.9v-2.2h-1.9zm2.4 1.3c1.4.6 2.7 1.2 4.1 1.8l-.5.9c-1.5-.7-2.8-1.4-4.1-1.9zm2.2-6.5h-1.9v2.1h1.9zm-1.9 5.2h1.9v-2.2h-1.9z"/></g></svg>