<svg enable-background="new 0 0 400 400" viewBox="0 0 400 400" xmlns="http://www.w3.org/2000/svg"><path d="m146.07 74.85c8.59-.22 11.86 6.2 16.58 10.39 2.14 1.9 4.29 2.11 5.92.45 2.8-2.86 4.59-1.62 6.51.89 8.07-4.34 16.32-2.23 24.54-.86 7.61 1.26 15.24 2.44 22.81 3.89 3.28.63 5.83-.46 8.5-2.06 2.17-1.3 4.55-2.37 6.97-3.1.77-.23 2.69.79 2.87 1.52 1.72 7.19 2.77 14.4.03 21.66-.69 1.82-.85 3.91-.89 5.88-.07 3.55-.22 7.16.34 10.65.52 3.26 1.75 6.43 2.94 9.54 1.48 3.89 2.93 7.66 1.88 12-.31 1.27.23 2.9.78 4.19 5.44 12.67 7.16 25.83 6.57 39.59-.35 8.1 1.08 16.25 1.31 24.4.09 3.15-.96 6.32-1.42 9.49-.29 1.99-1.14 4.21-.58 5.96 2.29 7.26-.29 14.18-1.06 21.2-.3 2.78-1.29 5.74-2.79 8.08-6.1 9.52-8.23 20.46-11.63 30.95-1.8 5.54-6.92 13.4-10.94 16.11 2.73 3.76-.08 6.48-2.2 9.22-2.21 2.85-3.55 5.81-3.16 9.53.13 1.23-.41 2.63-.96 3.81-2.48 5.38-5.19 10.65-7.6 16.06-1.71 3.85-3.75 7.31-7.34 9.74-.76.52-1.48 1.83-1.41 2.71.2 2.45-1.08 3.78-2.66 5.36-2.81 2.83-5.43 5.91-7.79 9.12-2 2.72-4.4 3.94-8.24 3.66.99-4.49-2.02-6.89-4.81-9.49-.86-.8-1.88-1.94-1.96-2.98-.3-4.15-2.81-6.72-5.51-9.51-5.8-5.99-10.9-12.58-12.2-21.15-.37-2.47.24-5.09.39-7.64.3.01.6.03.9.04-.09-.2-.14-.54-.26-.57-5.92-1.53-8.89-5.4-10.36-11.31-.79-3.14-3.12-6.05-5.24-8.67-4.19-5.19-6.41-11.35-6.56-17.62-.23-9.08-3.59-16.84-7.31-24.71-.87-1.84-1.18-4.05-1.29-6.11-.32-5.88.7-11.87-1.7-17.57-.35-.84-.25-2.04.04-2.95 1.02-3.25.8-6.34-.48-9.48-.34-.82-.2-1.96.03-2.87 1.59-6.27 3.37-12.49 4.79-18.8.24-1.07-.68-2.71-1.54-3.65-1.38-1.51-1.96-2.89-.97-4.78.31-.58.43-1.27.6-1.91 1.6-5.9 2.53-12.27 10.46-13.88-5.98-2.12-5.35-6.43-4.47-10.76.73-3.61 1.28-7.31 2.49-10.77 2.81-8.06 3.66-16.28 3.3-24.75-.22-5.14-.33-10.32.01-15.44.93-14.02-1.95-27.61-4.29-41.26-.07-.44-.16-.91-.38-1.28-4.16-6.98-5.16-14.92-6.88-22.64-.19-.87-.4-1.75-.68-2.59-2.06-6.25-3.34-7.16-9.91-7.23-1.67-.02-3.35-.18-5.01-.36-2.69-.3-4.07-1.75-4.5-4.53-.45-2.88-1.15-5.81-5.2-5.76-.62.01-1.25-1.38-2.35-2.68 1.88-.09 2.95-.27 4-.18 5.02.45 9.73-.5 14.29-2.68 1.16-.56 3-.83 4.06-.29 5.33 2.69 10.98 3.5 16.83 3.93 5.62.41 5.6.61 9.17 4.59 2.41-3.95 5.4-5.72 10.38-4.33 3.28.92 7.1-.08 10.68-.19 3.63-.11 7.19-.75 10.67 1.54 1.53 1.01 4.48 1.32 6.1.53 9.74-4.71 19.48-2.39 29.27-.67.55.1 1.12.28 1.66.21 12.43-1.58 24.56 2.29 37.04 1.8 9.56-.37 19.25 2.12 28.85 3.55 1.2.18 2.9 1.46 3.16 2.52.55 2.23-1.15 3.44-3.26 3.77-2.86.45-5.74 1.05-8.62 1.09-9.15.14-18.3.05-27.2.05-.44 6.11-.28 11.39-1.34 16.41-1.16 5.5-3.28 10.82-5.34 16.08-.78 1.99-2.36 3.87-5.22 2.12-.57-.35-1.86.27-2.74.64-2.49 1.04-4.17.39-4.12-2.31.06-2.92.72-5.96 1.76-8.71 1.14-3 3.13-5.67 4.56-8.57 1.03-2.09 1.97-4.27 2.61-6.51 2.09-7.31-.79-10.72-8.22-10.98-10.37-.37-20.8.25-31.18.85-7.97.46-15.86.89-23.64-1.44-1.24-.37-2.76-.67-3.94-.3-7.77 2.44-15.75 1.59-23.66 1.71-4.24.06-6 2.29-5.19 6.59.56 2.94.91 5.92 1.55 8.84.19.84.94 1.66 1.64 2.27 3.04 2.66 3 3.58.85 6.87-1.12 1.75-1.5 4.03-2.49 6.83zm3.51 91.71c0 5.07.05 9.76-.01 14.45-.07 5.81-1.28 11.29-4.76 16.15-.64.89-.82 2.28-.79 3.43.1 3.35.35 6.7.64 10.05.47 5.38.42 10.66-1.46 15.86-2.7 7.51-2.22 15.21-.5 22.82 1.4 6.21 3.29 12.31 4.64 18.53.5 2.29.54 4.9-.05 7.14-.65 2.47-.25 4.28 1.22 6.17 8.06 10.36 12.67 22.55 17.97 34.36.35.79.68 1.75.57 2.57-.39 2.73.88 4.72 2.55 6.61 6.81 7.71 12 16.35 15.12 26.2.63 1.99 1.59 3.88 2.42 5.85 3.9-1.6 5.7-4.42 6.78-8.08 1.15-3.91 2.27-7.99 4.34-11.43 1.91-3.17 4.18-5.93 4.27-9.88.03-1.11.87-2.23 1.41-3.3 3.21-6.36 7.18-12.45 9.48-19.12 2.82-8.16 5.89-16.08 9.81-23.79 5.6-11.01 11.63-21.95 12.69-34.68.29-3.45.89-6.87 1.32-10.32.9-7.32 2.52-14.65 2.5-21.97-.03-12.3-1.04-24.59-1.77-36.88-.25-4.28.21-8.78-2.93-12.45-.52-.61-.57-1.68-.71-2.56-1.22-7.62-2.48-15.23-3.56-22.88-.31-2.16-.09-4.41-.04-6.62.08-3.28 1.38-7.12.13-9.74-3.03-6.33-3.75-12.43-1.61-19 .1-.29.01-.65.01-1.12-.57-.28-1.13-.69-1.74-.82-5.46-1.16-10.91-2.39-16.41-3.35-6.14-1.08-12.21-2.2-18.47.33-3.28 1.32-7.15 1.42-10.77 1.58-5.91.26-11.86-.09-17.77.19-4.7.22-5.33.89-5.03 5.4.87 12.69-1.14 24.9-5.05 36.94-1 3.09-.99 6.55-1.2 9.86-.19 2.85-.04 5.72-.04 8.6-2.78.51-5.37.98-7.92 1.45-.11 3.67 2.53 3.11 4.72 3.45zm-1.09-68.67c1.83-.25 2.96-.4 4.63-.63-1.24-1.59-2.16-2.77-3.46-4.43-.47 2.02-.76 3.27-1.17 5.06z" fill="#010100"/><g fill="#fcfafa"><path d="m342.2 3.2-6.3 9.2h6.1v1.2h-8.2v-.5l6.2-9.1h-5.7v-1.2h7.8v.4z"/><path d="m344 13.7v-10.9h3.1c1.6 0 3 .5 4.1 1.4 1.1 1 1.6 2.2 1.6 3.9s-.5 3-1.6 4-2.5 1.5-4.2 1.5h-3zm1.4-9.6v8.4h1.6c1.4 0 2.5-.4 3.2-1.1.8-.8 1.2-1.8 1.2-3.2s-.4-2.4-1.2-3.1-1.8-1-3.1-1z"/><path d="m356.3 2.8v10.9h-1.4v-10.9z"/><path d="m366.6 13.2c-.8.4-1.8.6-3 .6-1.6 0-2.8-.5-3.7-1.5s-1.4-2.3-1.4-3.9c0-1.7.5-3.2 1.6-4.2s2.4-1.6 4-1.6c1 0 1.9.1 2.6.4v1.5c-.8-.4-1.6-.6-2.6-.6-1.2 0-2.2.4-3 1.2s-1.1 1.9-1.1 3.3c0 1.3.4 2.3 1.1 3.1s1.6 1.1 2.8 1.1c1.1 0 2-.2 2.8-.7v1.3z"/><path d="m368.2 13c0-.3.1-.5.3-.6.2-.2.4-.3.6-.3.3 0 .5.1.7.3s.3.4.3.6-.1.5-.3.6c-.2.2-.4.3-.7.3s-.5-.1-.6-.3c-.2-.2-.3-.4-.3-.6z"/><path d="m381.1 13.7h-1.7l-5.5-8.4c-.2-.2-.3-.5-.4-.7 0 .2.1.8.1 1.5v7.6h-1.4v-10.9h1.8l5.3 8.3c.3.4.4.6.4.8 0-.3-.1-.8-.1-1.6v-7.5h1.4v10.9z"/><path d="m389.7 13.7h-5.8v-10.9h5.6v1.2h-4.2v3.5h3.9v1.2h-3.9v3.7h4.4z"/><path d="m398.4 4.1h-3.1v9.6h-1.4v-9.6h-3.1v-1.3h7.7v1.3z"/></g></svg>