<svg enable-background="new 0 0 400 400" viewBox="0 0 400 400" xmlns="http://www.w3.org/2000/svg"><path d="m374.8 390.4.4-.4c.7.5 1.3 1 1.8 1.4l-.5.5c-.5-.6-1.1-1.1-1.7-1.5zm1 7.3-.6-.3c.5-1.4 1.1-2.8 1.5-4.3.2.1.4.2.6.3-.5 1.3-1 2.8-1.5 4.3zm-.4-10.3.4-.4c.4.3 1 .8 1.7 1.4l-.5.5c-.4-.5-1-1-1.6-1.5zm2.5.3h1.7v-1h.6v1h3.5v-1h.6v1h1.8v.5h-1.8v1.4h-2v1h3.2v2h-3.2v.9h3.3v.5h-3.4c0 .3-.1.6-.1.9h4v.5h-3.7c.7.9 1.9 1.5 3.8 1.7-.1.2-.2.4-.3.6-2.1-.4-3.5-1.1-4-2.1-.4 1-1.8 1.7-4 2.2-.1-.2-.2-.4-.3-.6 2.1-.4 3.4-1 3.8-1.8h-3.4v-.5h3.6c.1-.3.1-.6.2-.9h-3.3v-.5h3.4c0-.3 0-.6 0-.9h-3.2v-2h3.3v-1h-2.1v-1.4h-1.7v-.5zm1.1 3.5v1h2.7c0-.3 0-.4 0-.4 0-.1 0-.2 0-.2 0-.1 0-.2 0-.3h-2.7zm1.2-3v.9h3.5v-.9zm4.7 3h-2.6v.6.4h2.6z" fill="#fbfcfa"/><path d="m393.6 386.7h.6v1.5h2.7v6.1h1.1v.6h-11v-.6h1.1v-6.1h2.7v-1.5h.6v1.5h2.1v-1.5zm-2.7 8.8.4.6c-1.2.6-2.5 1.3-3.8 1.9-.1-.2-.2-.4-.3-.6 1.2-.6 2.5-1.2 3.7-1.9zm-2.2-6.7v2.4h2.1v-2.4zm0 3v2.5h2.1v-2.5zm2.8-3v2.4h2.1v-2.4zm0 3v2.5h2.1v-2.5zm6 6.1c-1.4-.7-2.7-1.3-3.9-1.8l.3-.6c1.5.6 2.7 1.2 3.9 1.7zm-1.2-9.1h-2.1v2.4h2.1zm-2.1 3v2.5h2.1v-2.5z" fill="#fbfcfa"/><g fill="#010101"><path d="m229.09 202.85c-3.78-4.34-5.55-8.82-4.94-14.03 1.28-10.83-.92-21.4-2.37-32.02-.71-5.21-1.98-10.39-2.11-15.61-.11-4.52.73-9.14 1.69-13.6 2.05-9.47 1.79-18.9-.19-28.26-.91-4.3-.29-7.33 3.84-9.34 1.27-.62 2.31-1.73 3.67-2.78-2.49-2.88-5.02-6.1-3.47-9.8.64-1.54 3.89-2 6.75-3.32 1.08 4.14 2.38 7.68 2.88 11.34 1.11 8.12 4.54 10.39 12.38 7.71 8.15-2.78 16.25-5.71 24.49-8.16 2.36-.7 5.3-.44 7.72.24 4.23 1.2 6.33-.01 6.55-4.49.88-18.22 1.79-36.44 3.46-55.2 1.45 2.04 3.59 3.9 4.23 6.17 2.19 7.71 4.76 15.47 5.54 23.38 1.71 17.24 2.49 34.58 3.5 51.89 1.8 30.84 3.48 61.69 5.21 92.53.45 8.05 1.54 16.12 1.22 24.13-1.01 25.46 4.63 50.45 4.79 75.8.02 2.64-.52 5.27-.72 7.91-.13 1.75-.51 3.59-.13 5.24 2.09 8.95 2.28 17.79.61 26.93-1.15 6.31-.64 12.93-.72 19.42-.05 4.46-.65 8.71-3.47 12.34-.86 1.1-1.87 2.08-3.09 2.95 1.51-5.92-1.58-10.67-3.29-15.68-.67-1.95-1.19-3.57.16-5.6.68-1.03.26-2.96.01-4.42-.79-4.58-2.19-9.1-2.52-13.7-.74-10.38-1.15-20.79-1.33-31.2-.06-3.3-1.5-4.74-4.26-4.51-5.53.46-11.07 1.17-16.52 2.2-7.23 1.37-14.38 3.17-21.59 4.7-1.4.3-2.9.31-4.34.23-2.32-.12-4.02.17-5.5 2.53-2.05 3.26-9.84 2.98-12.23-.03-.07-.09-.12-.2-.2-.27-8.07-7.89-11.02-17.22-10.22-28.64.83-11.79-.28-23.71-.25-35.57.01-3.61.64-7.33 1.68-10.8 1.22-4.06 1.94-7.96.93-12.16-.55-2.27-.53-4.67-.97-6.97-.81-4.24-1.66-8.44 3.12-11.48zm2.55 78.52c2.43 3.41 5.03 6.65 7.17 10.17 1.71 2.83 4.07 3.83 7.12 4.18 11.14 1.29 21.9-.82 32.35-4.21 4.77-1.54 9.36-4.23 13.37-7.26 1.95-1.48 3.4-4.96 3.34-7.5-.13-5.66-1.09-11.35-2.19-16.94-1.63-8.3-1.1-16 4.4-22.89.46-.58.51-1.93.17-2.65-3.21-6.93-4.19-14.29-4.87-21.8-.37-4.07-1.52-8.09-2.65-12.04-.7-2.43-2.27-3.53-5.31-3-13.98 2.48-28.03 4.6-42.02 7-.9.15-2.08 1.49-2.28 2.45-2.33 11.37-1.61 22.94-2.14 34.44-.27 5.87-.97 11.86-2.52 17.5-1.45 5.29-1.86 9.94 1.77 14.39-1.89 2.71-3.75 5.36-5.71 8.16zm2.11-136.23c.18.02.35.03.53.05 0 3.58-.1 7.16.02 10.74.32 9.73.68 19.46 3.91 28.79.57 1.65 1.02 3.04 3.41 2.67 4.52-.72 9.09-1.24 13.65-1.62 9.24-.76 18.56-3.77 27.65.91.63.32 1.54.19 2.32.14 3.87-.29 5.19-1.73 5.47-5.58.53-7.14 1.13-14.27 1.74-21.4.5-5.9.74-11.69-.63-17.61-2.84-12.22-6.76-24.41-3.67-37.24.18-.73.12-1.6-.08-2.33-.47-1.7-.98-3.42-1.7-5.02-.71-1.57-1.89-2.17-3.8-1.7-3.68.92-7.52 1.26-11.14 2.33-10.15 3-20.25 6.2-30.33 9.41-2.7.86-3.98 2.9-4.24 5.78-1 10.56-2.08 21.12-3.11 31.68z"/><path d="m81.9 55.95c7.15.77 10.37 4.04 10.47 10.63.08 5.04.83 9.79 4.12 13.84 2.78 3.42 6.63 4.55 10.78 3.13 1.06-.36 2.11-.75 3.14-1.18 2.88-1.19 5.42-1.09 8.06.98 1.35 1.06 3.41 1.44 5.21 1.66 12.58 1.48 24.31-2.6 36.19-5.69 3.96-1.03 4.75-.91 5.04 3.15.74 10.36.92 20.75 1.33 31.13.35 8.69.66 17.38 1.08 26.07.25 5.25.93 10.48.96 15.73.11 21.27-.22 42.55.15 63.81.2 11.5 1.49 22.98 2.29 34.46.08 1.21.22 2.41.36 3.83-9.27 3.11-18.36 6.16-27.47 9.2-4.35 1.45-8.84 2.55-13.02 4.38-6.42 2.81-13.03 2.78-19.75 2.26-1.23-.1-2.45-.3-3.67-.38-8.3-.52-10.28 1.31-10.66 9.46-.69 14.87-1.56 29.73-2.19 44.6-.19 4.57.4 9.18.13 13.74-.1 1.73-1.25 3.93-2.63 4.93-2.79 2.04-4.47 1.23-5.8-1.99-2.88-7.01-2.5-14.38-1.45-21.53 1.98-13.44.21-26.81.23-40.21.01-8.28-.39-16.56-.8-24.83-.12-2.45.28-4.38 2.32-5.84 1.09-.78 2.13-1.64 3.88-3-8.01-2.79-8.78-8.25-7.24-14.48 2.28-9.27.34-18.38-.36-27.61-.97-12.93-.79-25.94-1.68-38.88-.55-8.08 1.75-15.44 3.76-22.99.54-2.04.36-4.33.22-6.49-.58-9.02-1.25-18.03-1.92-27.04-.16-2.22-.1-4.54-.75-6.62-1.84-5.87-2.17-11.8-1.81-17.89.61-10.04.99-20.1 1.48-30.34zm68.22 113.51c-4.92-.25-9.71-.64-14.5-.66-1.65-.01-3.53.55-4.93 1.44-4.64 2.92-9.56 4.75-15.03 5.27-6.23.59-12.44 1.4-18.67 2.05-2.17.23-3 1.17-2.9 3.46.27 6.26.37 12.53.39 18.8.05 12.52.57 25.07-.24 37.54-.42 6.5-.09 12.34 3 18.03 1.01 1.86 1.5 4.02 2.63 5.78.71 1.12 2.09 2.36 3.29 2.5 3.76.44 7.59.61 11.38.48 11.74-.41 23.08-2.42 33.39-8.61 4.54-2.73 7.05-6.33 7.79-11.65 1.73-12.4.33-24.52-2.44-36.6-.53-2.32-.55-4.8-.47-7.2.1-3.11 1.09-6.28.73-9.31-.81-7.06-2.21-14.08-3.42-21.32zm-60.89-37.6c1.78 5.39 3.41 10.08 4.88 14.83 1.37 4.45 2.49 8.99 3.93 13.42.26.81 1.53 1.82 2.36 1.84 6.66.18 13.48 1.49 19.79-1.76 5.7-2.93 11.41-2.32 17.25-.63 7.91 2.29 14.26-1.09 15.77-9.23.98-5.28 1.14-10.92.49-16.26-1.14-9.34-3.27-18.51 1.78-27.49 1.22-2.17 1.34-5.5-1.41-6.9-3.72-1.89-7.65-3.38-12.18-2.5-5.58 1.09-11.24 1.74-16.89 2.4-6.42.75-13.05.56-19.26 2.12-9.96 2.5-13.49 5.53-13.38 16.17.08 5.4-.01 10.52-3.13 13.99z"/><path d="m90.18 353.37c.95 1.47 1.91 2.94 3.13 4.81-1.66.27-3 .48-4.7.75.29-2.08.52-3.75.76-5.42.27-.04.54-.09.81-.14z"/></g></svg>