<svg enable-background="new 0 0 400 400" viewBox="0 0 400 400" xmlns="http://www.w3.org/2000/svg"><path d="m374.8 390.4.4-.4c.7.5 1.3 1 1.8 1.4l-.5.5c-.5-.6-1.1-1.1-1.7-1.5zm1 7.3-.6-.3c.5-1.4 1.1-2.8 1.5-4.3.2.1.4.2.6.3-.5 1.3-1 2.8-1.5 4.3zm-.4-10.3.4-.4c.4.3 1 .8 1.7 1.4l-.5.5c-.4-.5-1-1-1.6-1.5zm2.5.3h1.7v-1h.6v1h3.5v-1h.6v1h1.8v.5h-1.8v1.4h-2v1h3.2v2h-3.2v.9h3.3v.5h-3.4c0 .3-.1.6-.1.9h4v.5h-3.7c.7.9 1.9 1.5 3.8 1.7-.1.2-.2.4-.3.6-2.1-.4-3.5-1.1-4-2.1-.4 1-1.8 1.7-4 2.2-.1-.2-.2-.4-.3-.6 2.1-.4 3.4-1 3.8-1.8h-3.4v-.5h3.6c.1-.3.1-.6.2-.9h-3.3v-.5h3.4c0-.3 0-.6 0-.9h-3.2v-2h3.3v-1h-2.1v-1.4h-1.7v-.5zm1.1 3.5v1h2.7c0-.3 0-.4 0-.4 0-.1 0-.2 0-.2 0-.1 0-.2 0-.3h-2.7zm1.2-3v.9h3.5v-.9zm4.7 3h-2.6v.6.4h2.6z" fill="#fbfcfa"/><path d="m393.6 386.7h.6v1.5h2.7v6.1h1.1v.6h-11v-.6h1.1v-6.1h2.7v-1.5h.6v1.5h2.1v-1.5zm-2.7 8.8.4.6c-1.2.6-2.5 1.3-3.8 1.9-.1-.2-.2-.4-.3-.6 1.2-.6 2.5-1.2 3.7-1.9zm-2.2-6.7v2.4h2.1v-2.4zm0 3v2.5h2.1v-2.5zm2.8-3v2.4h2.1v-2.4zm0 3v2.5h2.1v-2.5zm6 6.1c-1.4-.7-2.7-1.3-3.9-1.8l.3-.6c1.5.6 2.7 1.2 3.9 1.7zm-1.2-9.1h-2.1v2.4h2.1zm-2.1 3v2.5h2.1v-2.5z" fill="#fbfcfa"/><g fill="#010101"><path d="m122.27 374.3c-4.64-15.25-6-30.91-5.24-46.75.39-8.03 1.17-16.08 2.38-24.02.94-6.17 3-12.1 7.1-17.11 4.82-5.89 9.56-11.85 14.26-17.83.61-.78 1.25-1.97 1.1-2.85-1.08-6.45-2.79-12.83-3.45-19.31-.55-5.41.2-10.93.13-16.4-.04-2.97-.12-6.08-1.01-8.86-2.76-8.62.8-15.45 9.86-16.04 11.23-.73 22.53-.3 33.8-.19 3.57.03 6.74 1.44 9.17 4.23.29.33.63.66 1.01.88 11.17 6.64 16.63 17.8 22.34 28.65 1.2 2.28 1.17 5.46.98 8.18-.35 5.24 1.34 8.46 6.63 10.19 2.93.96 5.5 3.29 7.98 5.31 2.95 2.4 5.51 5.26 8.44 7.68 4.58 3.77 8 8.28 10.42 13.72.71 1.59 2.48 3.15 4.13 3.79 3.19 1.24 5.22 3.09 6.21 6.42.26.87 1.86 1.62 2.97 1.83.44.09 1.51-1.31 1.76-2.19 1.89-6.61 1.06-13.28.4-19.98-.85-8.66-1.37-17.36-1.98-26.04-.27-3.9-.2-7.84-.71-11.71-.54-4.04-1.46-7.77-4.98-10.86-3.17-2.79-5.65-6.7-7.51-10.56-3.33-6.91-5.96-14.15-8.89-21.25-.21-.5-.39-1.15-.79-1.42-6.53-4.42-6.74-12.3-10.09-18.44-.3-.56-.32-1.68.05-2.12 2.18-2.66.75-4.87-.43-7.35-1.47-3.06-2.5-6.33-3.75-9.59 3.52-.87 8.42 1.91 9.61 5.57 2.9 8.87 8.06 16.4 13.4 23.86.51.72 1.26 1.56 1.24 2.32-.19 7.85 6.59 11.51 10.2 17.97 2.22-6.37 2.73-12.18 2.39-18.01-.52-8.82-1.84-17.62-1.91-26.44-.05-7.45.81-14.98 1.96-22.36 1.97-12.66.38-24.58-4.88-36.3-5.08-11.3-9.58-22.87-14-34.45-2.68-7.01-2.93-14.12-1.55-19.56 3.26-.4 5.71.59 7.09 3.85 2.71 6.36 5.59 12.65 8.24 19.03 2.31 5.56 4.4 11.21 6.59 16.82.36.04.73.07 1.09.11.6-1.97 1.78-3.97 1.7-5.91-.19-4.51.78-8.64 2.69-12.62 4.87-10.15 5.58-21.34 8.13-32.07.84-3.56 2.08-7.03 3.4-11.4 1.87 1.16 3.66 1.72 4.53 2.94 1.12 1.56-.92 7.91-2.76 9.6 3.17 4.19 3.14 8.98 1.49 13.64-2.02 5.73-1.68 11.65-2.3 17.51-1.59 15-3.65 29.96-5.19 44.96-.35 3.43.31 7.08 1.13 10.47.66 2.74.82 5.18-.33 7.75-2.65 5.93-3.58 12.18-3.39 18.64.04 1.23.23 2.61-.23 3.66-3.54 8.2-1.14 16.59-.8 24.86.3 7.15 1.27 14.31-.32 21.37-1.43 6.38.07 12.38 1.46 18.49.56 2.44.91 5.12.49 7.55-.83 4.76-.63 9.36.78 13.91 3.06 9.89 1.48 19.99 1.4 30.01-.07 8.5-.41 17 1.63 25.37.27 1.13.04 2.44-.19 3.62-.72 3.67-1.19 7.22 1.11 10.64.55.81.42 2.36.1 3.43-2.47 8.36-5.29 16.63-4.87 25.56.04.82-1.01 1.69-1.55 2.53-.77-.6-1.99-1.05-2.24-1.82-.87-2.63-1.76-5.35-1.99-8.08-.5-5.96-2.27-10.92-7.47-14.58-10.41-7.33-18.03-17.21-24.87-27.85-3.12-4.85-7.14-9.14-10.94-13.52-1.34-1.55-3.24-2.61-5.74-4.56-.57 4.06-1.5 7.33-1.37 10.55.31 7.36-.07 14.51-3.15 21.33-.31.69-.53 1.54-.44 2.28 1.33 11.5-2.63 22.31-4.35 33.41-.39 2.54-.89 5.08-1.61 7.54-.46 1.56-1.14 3.24-2.21 4.41-2.61 2.85-5.5 2.42-6.35-1.25-.96-4.15-1.84-8.74-1.03-12.79 2.13-10.65 2.6-21.27 2.01-32.04-.16-2.81.55-5.68.92-8.52.26-1.99.76-3.96.94-5.96.47-5.06-1.17-7.2-6.08-7.96-6.4-.99-12.81-1.89-20.03-2.96.29 3.05.13 5.87.88 8.41 1.66 5.66 4.3 11.08 5.56 16.81 1.59 7.2.77 14.5-2.07 21.39-2.06 4.99-4.23 6.02-8.25 4.09-1.03-.5-2.06-1.69-2.41-2.78-1.32-4.15-2.57-8.34-3.43-12.61-.45-2.22-.41-4.71.08-6.93 1.11-5.06.05-9.68-1.7-14.38-1.22-3.27-2.89-6.41-2.01-10.3.51-2.26-1.89-3.36-3.86-2.99-2.35.44-4.71 1.36-6.78 2.56-3.66 2.13-7.04 4.71-10.64 6.97-5.14 3.22-8.35 7.38-8.6 13.8-.43 10.96-1.6 21.89-1.86 32.84-.19 7.78-2.83 14.87-4.63 22.23-.95 3.87-1.34 7.88-2.06 11.81-.29 1.57-.78 3.1-1.17 4.64-.31-.07-.61-.09-.92-.12zm83.68-123.68c-2.31-4.19-4.91-7.96-6.57-12.11-5.44-13.61-17.07-18.04-29.92-20.67-3.22-.66-6.96 1.76-6.97 4.37-.02 4.38-1.31 8.48-1.92 12.68-1.04 7.11-.34 14.47-.36 21.73-.01 4.1 2.28 6.71 6.05 7.25 5.14.75 10.38.96 15.58 1.04 4.3.06 8.49.21 12.2 2.68 3.34 2.22 6.71 1 7.49-2.96.34-1.71-.05-3.55.04-5.33.19-3.45.48-6.89.76-10.69 1.8 1 2.79 1.55 3.62 2.01zm-77.07 70.57c-1.24-2.18-2.04-3.58-3.29-5.78-.73 2.48-4.67 1.75-3.07 5.1 1.56 3.26 3.75.2 6.36.68z"/><path d="m191.03 80.83c5.42 6.94 6.54 14.21 4.35 22.22-1.71 6.29-2.13 12.72-.48 19.34.33-.94.68-1.87.98-2.81.34-1.05.65-2.12 1.21-3.96.93 4.32 1.82 7.86 2.44 11.45 2.4 13.87 5.06 27.7 6.8 41.65.39 3.11-2.17 6.9-4.14 9.86-.95 1.43-3.31.75-4.83-1.04-5-5.86-7.3-12.74-8.07-20.23-1.1-10.76-3.53-21.12-8.43-30.86-1.05-2.1-2.19-3.47-4.47-3.93-1.2-.25-2.45-.51-3.53-1.05-3.24-1.63-5.52-1.09-7.29 2.3-.48.92-2.24 1.33-3.5 1.63-.93.22-1.99-.16-2.99-.23-3.99-.29-5.67 1.37-4.79 5.35.87 3.93-.13 7.23-2.16 10.49-2.97 4.76-2.66 8.5 1.31 12.5 3.81 3.83 5.26 7.67 3.23 13.21-1.73 4.71-1.95 9.97-2.89 15.28-2.98 1.22-5.05.21-7.33-3.04-3.3-4.71-3.83-9.05-2.66-14.63.97-4.65-.22-9.75-.39-14.66-.21-6.02-.42-12.04-.49-18.06-.04-3.44-1.22-4.89-4.64-5.08-6.35-.35-9.84 1.94-12.39 7.88-2.79 6.5-3.28 13.38-3.94 20.3-.42 4.4-1.4 8.81-2.68 13.05-.71 2.33-2.57 4.31-4.28 7.04-2.35-4.57-7.11-7.2-5.15-12.7-2.5-10.36 2.28-19.75 3.89-29.56 2.18-13.24 3.91-26.55 6.35-39.73 1.29-7 3.68-13.8 5.56-20.69.38-1.4 1.03-2.8 1.05-4.21.08-5.48 3.56-8.7 7.57-11.45.97-.67 2.79-.74 3.97-.35 3.79 1.28 7.32 1.03 11.09-.26 7.08-2.42 14.33-4.35 21.42-6.74 2.72-.91 5.07-.4 7.75.07 8.39 1.47 11.93 6.9 13.19 14.62.52 3.2 1.04 6.4 1.75 9.56.67 2.89.66 5.51-2.39 7.47zm-6.47 3.26c-4.95-1.85-4.34-5.1-2.88-8.59.17-.41.19-.87.31-1.3 1.3-4.72-.09-7.72-4.81-8.72-2.94-.62-6.19-.59-9.16-.08-4.16.72-8.27 1.95-12.27 3.37-4.4 1.56-8.65 3.55-12.94 5.41-2.08.9-2.37 2.3-1.82 4.58.65 2.72.85 5.69.51 8.46-.38 3.06-1.89 5.98-2.33 9.04-.42 2.9-.29 5.92 0 8.85.18 1.91 1.58 2.87 3.69 3.19 5.74.88 11.54 1.69 17.12 3.21 6.35 1.73 11.35.64 16.38-3.85 3.48-3.1 5.21-6.3 4.91-10.67-.32-4.46.13-8.69 3.29-12.9z"/></g></svg>