<svg enable-background="new 0 0 400 400" viewBox="0 0 400 400" xmlns="http://www.w3.org/2000/svg"><g fill="#fbfafa"><path d="m37.59 393.81c-.92.31-1.52.05-2-.78-.7-1.2-1.52-2.34-2.47-3.78v4.59c-.55.03-.95.05-1.41.07-.03-.37-.06-.64-.06-.91 0-1.91 0-3.81 0-5.7 1.13-.41 1.77-.03 2.29.91.62 1.11 1.38 2.14 2.31 3.19v-4.2h1.35v6.61z"/><path d="m12.94 393.88v-6.75c1.9.19 3.93-.54 5.37 1.29.8 1.01.78 2.88.03 3.97-1.37 1.97-3.4 1.51-5.4 1.49m1.45-1.22c2.04.12 2.92-.58 2.89-2.21-.03-1.51-.98-2.19-2.89-2z"/><path d="m11.81 393.87h-5.49c.68-2.18 2.47-3.48 3.51-5.45h-3.08v-1.21h5.29c-.71 2.13-2.44 3.48-3.47 5.51.86 0 1.63.04 2.39-.01.79-.05 1.14.21.85 1.16"/><path d="m39.33 393.86v-6.61h3.7v1.07h-2.22v1.52c.68.04 1.34.09 2.07.13v1.07c-.72.05-1.38.09-2.1.14v1.48h2.4v1.19h-3.85z"/><path d="m27.71 388.56c-1.15-.3-2.46-.61-3.1.64-.37.73-.41 1.93-.06 2.67.63 1.35 1.99.93 3.17.68.35.94-.01 1.32-.93 1.46-1.62.25-3.05-.27-3.76-1.48-.73-1.24-.6-3.03.31-4.17.88-1.11 2.71-1.7 4-1.16.32.13.44.74.65 1.12-.1.08-.19.16-.28.24"/><path d="m49.15 387.24v1.07c-.59.02-1.17.05-1.87.08v5.44h-1.48v-5.44h-1.85c-.05-.4-.08-.73-.13-1.15z"/><path d="m20.06 387.21h1.33v6.62h-1.33z"/><path d="m30.68 393.25c-.49.38-.8.79-1.05.76-.32-.05-.6-.45-.9-.7.26-.24.51-.64.8-.67.29-.04.62.3 1.15.61"/></g><path d="m168.87 36.04c-8.08 3.33-16.34 5.36-24.87 5.6-7.7.21-15.43-.18-23.12-.71-16.02-1.11-24.65 5.38-27.6 21.18-.39 2.07-.57 4.17-.93 6.84h4.16c20.49 0 40.98-.05 61.47.04 3.67.02 7.38.41 11 1.02 1.66.28 3.46 1.19 4.68 2.35 3.4 3.25 2.68 6.6-1.78 7.7-3.64.89-7.47 1.22-11.24 1.38-12.53.52-11.11-.37-11.87 11.69-.3 4.79-.26 9.66-1.1 14.36-1.94 10.82-7.46 16.25-18.38 17.15-9.79.8-19.66.53-29.5.68-1.75.03-3.51-.18-5.11-.27v27.85c9.58 0 18.64-.11 27.69.03 12.42.18 24.83.49 37.24.87 2.09.06 4.2.62 6.25 1.16 5.09 1.34 6.58 3.84 5.6 9.52-5.7.96-11.49 2.08-17.33 2.83-2.62.34-3.56 1.4-3.75 3.95-.53 7.25-1.09 14.5-1.96 21.72-1.81 15.11-10.84 21.13-25.37 21.94-7.93.44-15.87.74-23.8 1.13-.78.04-1.54.23-2.14.33v12.41 12.56c5.78 0 10.69-.05 15.59.01 15.44.2 30.89.39 46.33.71 3.11.06 6.29.39 9.28 1.16 1.66.43 3.44 1.75 4.42 3.18 2.47 3.59 1.75 5.66-2.4 6.74-5.51 1.43-11.12 2.47-16.71 3.56-2.97.58-4.84 1.8-4.83 5.21.02 6.25-.5 12.52-.22 18.76.41 9.19-3.08 15.36-11.44 19.35-7.34 3.5-15.18 3.4-23 3.48-6.01.06-12.02.01-18.52.01 0 9.93.09 18.97-.02 28.02-.12 9.62-.23 19.26-.75 28.86-.21 3.82-1.22 7.68-2.41 11.34-.95 2.91-3.55 3.79-6.58 3.25-1.93-.35-3.1-1.16-3.52-3.34-2.5-12.72-2.9-25.53-2.28-38.43 1.01-21.12 2.74-42.26 2.61-63.38-.26-42.75-1.42-85.49-2.51-128.23-.29-11.5-2.09-22.96-2.42-34.46-.63-21.63.25-43.2 5.35-64.37.36-1.47 1.41-3.01 2.56-4.02 8.09-7.11 17.85-10.05 28.36-10.62 14.39-.79 28.8-1.56 43.21-1.8 6.86-.14 10.44 3.35 11.66 9.7zm-70.68 253.44c5.93.27 11.94.62 17.95.78 5.43.14 10.7-.76 15.54-3.39.78-.42 1.82-1.31 1.86-2.02.48-9.57.81-19.15 1.18-28.92-12.26 0-24.16 0-36.53 0zm-.55-87.86c6.82 0 13.39.25 19.94-.1 3.73-.2 7.44-1.28 11.11-2.16 3.12-.75 4.92-2.62 4.73-6.17-.12-2.21.33-4.45.51-6.67.48-5.84.95-11.69 1.47-18.02-13.14 0-25.9 0-38.8 0 .33 10.94.68 21.85 1.04 33.12zm-3.58-90.69c9.28 0 18 .29 26.69-.14 3.57-.17 7.14-1.68 10.54-3 1.09-.42 2.23-2.16 2.34-3.38.45-4.79.49-9.61.69-14.42.1-2.4.23-4.79.34-7.16-14.1 0-27.7 0-41.62 0 .36 9.68.7 19.14 1.02 28.1z" fill="#010105"/><path d="m252.07 258.3v46.77c4.15 0 8.24-.09 12.33.02 13.87.35 27.73.73 41.59 1.2 1.99.07 3.99.56 5.92 1.09 2.95.81 4.14 2.95 4.52 5.94.41 3.25-1.82 3.99-3.98 4.84-6.53 2.57-13.37 2.1-20.2 2.06-30.1-.18-60.2-.26-90.31-.24-8.95.01-17.84.43-26.65-1.98-4.15-1.14-2.59-4.24-3.34-6.58-.78-2.43 1.27-2.7 2.72-3.35 7.83-3.48 16.13-3.25 24.42-3.06 11.19.25 22.37.49 33.56.74 1.09.02 2.18 0 3.54 0 .57-15.92 1.13-31.53 1.72-47.81-7.52 0-14.65.06-21.77-.01-8.84-.09-17.68-.25-26.51-.45-6.25-.14-10.3-3.92-9.73-9.01.09-.83.37-2.06.94-2.36 3.32-1.7 6.2-4.15 10.39-4.14 34.15.09 68.3-.02 102.44-.01 3.24 0 6.49.26 9.7.66 1.62.2 3.31.75 4.71 1.57 2.67 1.56 3.37 4.2 3.47 7.18.09 2.89-2.32 3.05-3.95 3.84-8.18 3.94-16.91 3.44-25.67 3.17-9.82-.31-19.65-.08-29.86-.08z" fill="#010105"/><path d="m301.83 104.01c.24 10.55-3.06 21.26-5.99 32.06-2.26 8.3-4.63 16.6-6.36 25.01-1.88 9.13-.95 18.32 1.63 27.23 3.33 11.48 7.32 22.79 7.82 34.91.11 2.72-1.56 5.14-4.28 5.84-2.74.7-6.54-.89-7.23-3.34-4.66-16.55-9.48-33.06-13.7-49.72-2.23-8.81.43-17.51 2.42-26.13 3.52-15.25 6.94-30.52 10.4-45.78 1.93-8.52-.32-16.35-3.8-24.03-2.48-5.48-4.96-10.98-7-16.63-.6-1.66-.27-4.24.67-5.75 1.49-2.4 4.1-1.48 6.38-.72 5.72 1.93 9.23 6.11 11.6 11.41 4.98 11.07 7.52 22.67 7.44 35.64z" fill="#010105"/><path d="m235.93 187.05c-.32-12.15 2.74-25.82 5.36-39.56 2.91-15.27 6-30.5 8.63-45.81 1.16-6.76-.64-13.31-3.37-19.57-2.72-6.23-5.56-12.42-7.99-18.77-.86-2.26-1.54-5.21 1.83-6.54.96-.38 2.15-.54 3.16-.35 6.64 1.23 10.77 5.53 13.52 11.41 8.24 17.64 9.46 36.01 5.03 54.73-3.39 14.35-7.5 28.53-11.19 42.81-.5 1.91-.63 3.97-.62 5.96.16 17.24.41 34.47.6 51.71.04 3.94-4.06 6.86-7.51 5.21-1.09-.52-2.1-1.95-2.45-3.16-3.42-11.79-4.97-23.85-5-38.07z" fill="#010105"/><path d="m226.42 99.54c-.11 14.66-4.01 30.79-8.6 46.67-4.75 16.43-4.85 33.06-4.43 49.84.21 8.61.26 17.23.34 25.84.03 2.99-1.65 5.06-4.48 5-2.5-.06-4.77-.42-5.7-3.81-6.45-23.41-6.12-46.74-.65-70.31 3.76-16.21 6.62-32.63 9.76-48.98 1.48-7.71.08-15.1-3.15-22.2-2.59-5.67-5.18-11.35-7.66-17.07-.48-1.09-.56-2.38-.7-3.6-.36-3.19 1.83-5.14 5.08-4.47 6.01 1.25 10.08 5.09 13.11 10.16 5.27 8.84 7.97 20.55 7.08 32.93z" fill="#010105"/><path d="m246.6 45.87c-15.76 0-31.53.21-47.29-.13-4.56-.1-9.11-1.7-13.63-2.75-2.64-.61-2.15-2.92-1.86-4.65.19-1.14 1.11-2.58 2.11-3.08 5.14-2.59 10.54-3.63 16.43-3.58 28.74.23 57.48.05 86.23.16 4.9.02 9.81.59 14.68 1.16 1.58.19 3.27.93 4.56 1.88 3.28 2.43 2.84 6.7-.69 8.66-5.32 2.96-11.1 2.99-16.96 2.8-14.52-.47-29.04-.87-43.56-1.29-.01.27-.01.55-.02.82z" fill="#010105"/></svg>