<svg enable-background="new 0 0 400 400" viewBox="0 0 400 400" xmlns="http://www.w3.org/2000/svg"><g fill="#fbfafa"><path d="m37.59 393.81c-.92.31-1.52.05-2-.78-.7-1.2-1.52-2.34-2.47-3.78v4.59c-.55.03-.95.05-1.41.07-.03-.37-.06-.64-.06-.91 0-1.91 0-3.81 0-5.7 1.13-.41 1.77-.03 2.29.91.62 1.11 1.38 2.14 2.31 3.19v-4.2h1.35v6.61z"/><path d="m12.94 393.88v-6.75c1.9.19 3.93-.54 5.37 1.29.8 1.01.78 2.88.03 3.97-1.37 1.97-3.4 1.51-5.4 1.49m1.45-1.22c2.04.12 2.92-.58 2.89-2.21-.03-1.51-.98-2.19-2.89-2z"/><path d="m11.81 393.87h-5.49c.68-2.18 2.47-3.48 3.51-5.45h-3.08v-1.21h5.29c-.71 2.13-2.44 3.48-3.47 5.51.86 0 1.63.04 2.39-.01.79-.05 1.14.21.85 1.16"/><path d="m39.33 393.86v-6.61h3.7v1.07h-2.22v1.52c.68.04 1.34.09 2.07.13v1.07c-.72.05-1.38.09-2.1.14v1.48h2.4v1.19h-3.85z"/><path d="m27.71 388.56c-1.15-.3-2.46-.61-3.1.64-.37.73-.41 1.93-.06 2.67.63 1.35 1.99.93 3.17.68.35.94-.01 1.32-.93 1.46-1.62.25-3.05-.27-3.76-1.48-.73-1.24-.6-3.03.31-4.17.88-1.11 2.71-1.7 4-1.16.32.13.44.74.65 1.12-.1.08-.19.16-.28.24"/><path d="m49.15 387.24v1.07c-.59.02-1.17.05-1.87.08v5.44h-1.48v-5.44h-1.85c-.05-.4-.08-.73-.13-1.15z"/><path d="m20.06 387.21h1.33v6.62h-1.33z"/><path d="m30.68 393.25c-.49.38-.8.79-1.05.76-.32-.05-.6-.45-.9-.7.26-.24.51-.64.8-.67.29-.04.62.3 1.15.61"/></g><path d="m260.77 323.14c-1.35 13.62-.98 27.03-3.95 40.11-.28-.01-.55-.02-.83-.03 0-13.88 0-27.76 0-41.63-.31-.1-.62-.21-.94-.31-1.24 1.72-2.32 3.59-3.74 5.15-6.64 7.3-9.12 15.76-7.86 25.53.61 4.75.77 9.58.84 14.38.04 2.52-.54 5.05-.84 7.58-.58-.04-1.16-.09-1.74-.13 0-4.06.45-8.18-.11-12.16-.8-5.73-2.38-11.35-3.54-17.03-.43-2.11-.24-3.95 1.39-5.85 2.37-2.78 1.76-5.19-1.46-6.54-2.39-1-2.68-2.71-2.65-4.81.06-4.85-.15-5.14-5.32-6.68-.42 1.6-1.1 3.18-1.2 4.79-.25 4.27-.64 8.38-2.87 12.26-.85 1.49-.42 3.71-.62 5.59-.28 2.67-.85 3.29-3.88 4.04.05-1.05-.23-2.17.18-2.93 3.81-7.14 2.9-15.06 3.65-22.65.43-4.34-.8-8.82-.73-13.23.13-8.04-4.41-14.3-7.69-20.96-3.74-7.59-8.08-14.89-12.41-22.16-.78-1.3-2.9-1.74-4.19-2.82-2.14-1.8-4.02-3.9-6.17-5.68-1.95-1.61-3.87-3.32-6.87-2.81-.72.12-2.07-1.17-2.53-2.11-3.42-7.03-10.24-7.82-17.06-9.46 5.03 9.44 2.69 19.52 3.54 29.26.72 8.13 1.8 16.23 2.68 24.34.57 5.25-.44 10.21-2.77 14.94-.99 2.01-1.84 4.09-2.75 6.14-.39-.09-.78-.19-1.16-.28.5-4.36 1.31-8.72 1.42-13.09.11-4.29-.08-8.69-.91-12.88-.7-3.53-4.21-4-7.29-1.97-3.96 2.61-8.01 5.34-12.4 7.01-5.23 1.99-8.57 5.64-9.06 10.61-.64 6.46-.3 13.16.72 19.58.49 3.09 3.29 5.97 5.47 8.59 1.56 1.88 3.76 2.28 5.61-.15 2.72-3.58 5.52-7.1 8.23-10.58.99 3.21-.64 6.19-2.12 9.17-1.19 2.4-2.61 4.69-3.72 7.12-2.71 5.93-7.7 6.72-12.09 1.68-4.77-5.48-6.94-12.12-8.3-19.14-1.18-6.06.4-11.79 1.86-17.5.5-1.96 2.1-3.62 2.94-5.53 1.04-2.38.77-4.59-1.61-6.19-.55-.37-.96-.97-1.52-1.31-6.97-4.23-10.38-11.12-12.34-18.44-1.2-4.48-.38-9.51-.36-14.29.01-1.21.43-2.41.66-3.61.48-.04.97-.08 1.45-.12.53 2.47 1.82 5.05 1.45 7.38-1.69 10.55 4.04 17.68 10.61 24.48 3.04 3.15 11.46 3.27 14.18-.1 1.03-1.27 1.21-4.4.35-5.81-4.77-7.83-6.3-16.69-8.63-25.29-2.22-8.19-4.18-16.46-6.39-24.66-.32-1.18-1.15-2.42-2.09-3.21-3.43-2.87-6.95-5.65-10.56-8.28-7.15-5.2-10.26-12.84-12.43-20.89-2.98-11-4.53-22.2-1.7-33.48 1.41-5.6 3.71-10.77 6.85-15.84 8.26-13.34 15.48-27.27 16.62-43.42.63-8.88 2.31-17.48 6.69-25.38.64-1.16.9-2.52 1.37-3.77.99-2.61-.02-4.36-1.72-6.53-3.9-4.97-7.2-10.4-10.73-15.66-.92-1.37-1.7-2.86-2.73-4.14-2.78-3.43-4.2-7.29-3.49-12.24 1.23 1.41 2.88 2.62 3.63 4.25 3.89 8.36 10.73 14.51 15.95 21.86 3.04 4.28 6.52 4.56 10.66-.83 1.53-2 2.96-4.11 4.7-5.91 1.66-1.72 1.36-3.38.01-4.72-7.71-7.6-15.48-15.13-23.34-22.57-1.65-1.56-3.48-2.79-2.93-5.97 2.62 1.71 5.02 3.24 7.38 4.82 4.45 3 8.93 5.96 13.32 9.06 4.84 3.42 8.82 7.47 10.24 13.58.6 2.57 2.24 3.03 5.3 2.68 6.62-.75 9.96-5.4 13.94-9.54 3.95-4.11 7.85-8.27 12-12.16 1.49-1.4 3.57-2.32 5.53-3.03 1.01-.37 3.04-.18 3.4.44.57 1 .64 2.92.03 3.86-4.11 6.19-5.44 13.14-6.1 20.32-.1 1.08-.01 2.18-.01 3.4 3.56.45 6.41.53 9.27-1.96 3.22-2.81 7.53-2.87 12.37-2.89-5.62 11.21-15.44 18.25-22.17 27.65 2.22 2.36 7.23 3.59 9.91 2.4 5.79-2.57 11.53-5.25 17.06-7.77-.55 8.64-12.33 19.08-20.46 18.75-2.85-.12-6.54-.42-8.33 1.12-1.24 1.07.08 5.15.29 7.88.2 2.68.27 5.38.69 8.02.91 5.68-.47 10.85-3.09 15.82-2.56 4.84-4.83 9.85-7.68 14.51-2.27 3.71-3.2 7.62-3.15 11.8.09 6.71.27 13.42.7 20.12.37 5.82 3.59 10.34 7.17 14.75 4.78 5.89 11.11 9.32 17.7 12.67 16.75 8.54 28.11 22.09 35.51 39.18 1.24 2.86 2.8 5.57 3.99 8.45 1.06 2.56 1.9 5.21 2.69 7.87.78 2.66 1.02 5.54 2.14 8.04 1.32 2.95.66 5.32-1.05 8.37-.99-1.23-1.72-2.22-2.55-3.13-1.53-1.69-2.72-1.99-4.58.08-4.67 5.2-5.73 10.49-1.82 16.56 1.54 2.39 2.31 5 1.26 7.96-.3.86.3 2.14.69 3.14.97 2.49 2.29 4.88 3.01 7.43.35 1.23-.35 2.75-.58 4.14-.46-.02-.91-.05-1.37-.07-.27-1.01-.76-2.02-.76-3.03.03-3.52-1.77-5.65-4.55-7.63-2.41-1.72-4.24-4.26-6.39-6.36-2.04-1.99-4.16-3.88-6.78-6.31-.26 1.47-.53 2.09-.44 2.65 1.23 7.32 3.41 14.21 7.57 20.55 3.78 5.76 6.81 12.02 10.16 18.07.68 1.22 1.3 2.48 2.12 4.03 5.55-6.9 7.6-14.67 9.25-22.56 1.09-5.19.97-10.2-.83-15.45-1.71-4.96-1.98-10.42-2.28-16.09 14.25 6.03 26.89 13.85 36.39 25.92-.32.52-.63 1.04-.95 1.56-1.65-.8-3.42-1.42-4.92-2.44-7.73-5.28-15.38-10.67-23.41-16.26-2.12 4.69-.89 8.62-.49 12.5.76 7.38 3.5 13.71 8.32 19.63 6.45 7.94 11.92 16.69 17.66 25.19 1.84 2.72 3.32 5.73 2.64 9.58-8.49-9.87-15.51-20.46-24.33-29.95zm-143.98-124.72c-.29.07-.58.15-.86.22.4.85.71 1.75 1.21 2.54 1.35 2.14 2.85 4.19 4.16 6.36 3.78 6.27 8.5 12.46 15.47 14.14 8 1.93 15.31 5.25 22.92 7.97 8.87 3.17 17.43 6.94 24.97 12.75 1.94 1.5 4.05 2.79 6.13 4.11 2.96 1.89 4.9 1.17 5.67-2.13 2.43-10.45 4.9-20.89 7.11-31.39.27-1.29-.5-3.62-1.52-4.23-5.62-3.31-10.37-7.55-15.26-11.83-4.11-3.6-7.18-7.43-8.3-12.52-1.9-8.6-3.35-17.3-4.78-25.99-.42-2.52-.9-4.46-3.33-6.03-2.75-1.78-5.01-4.35-7.39-6.68-1.67-1.63-3.09-3.53-4.81-5.1-1.45-1.32-3.16-1.53-4.81-.07-9.95 8.87-23.24 11.23-34.45 17.63-1.13.64-2.32 1.74-2.78 2.9-2.54 6.39-2.8 13.05-1.83 19.8.82 5.86 1.65 11.71 2.48 17.55zm47.89-136.29c-1.42.75-2.86 1.24-3.97 2.13-2.57 2.06-5.12 4.19-7.42 6.53-2.19 2.22-3.89 4.92-6.09 7.13-3.41 3.4-4.45 7.75-4.91 12.15-.91 8.69 4.12 15.5 12.48 17.75 6.08 1.63 12.07 3.06 16.91-2.8.18-.22.61-.3.93-.34 4.78-.56 7.09-4.19 9.58-7.63 4.77-6.6 5.07-15.15.76-22.02-.83-1.32-1.41-2.81-2.36-4.02-1.03-1.29-2.22-3.11-3.59-3.35-5.17-.93-10.04-2.16-12.32-5.53zm23.16 40.88c-3.23 2.35-6.31 4.37-9.14 6.7-5.45 4.46-11.41 6.24-18.6 6.21-6.63-.02-11.8-1.52-16.28-6.41-2.85-3.11-4.93-2.47-6.14 1.57-1.4 4.7-2.39 9.52-3.72 14.25-.74 2.65-1.68 5.26-2.73 7.81-.96 2.34-2.22 4.57-3.29 6.87-.84 1.82-1.62 3.66-2.33 5.53-.35.93-.49 1.95-.73 2.93.93-.1 1.97.03 2.78-.33 5.25-2.33 10.35-5.07 15.71-7.09 4.92-1.86 8.81-4.73 11.77-8.98 1.95-2.81 3.87-5.64 5.94-8.67 1.89 1.55 3.59 2.93 5.22 4.27-3.6 7.64-3.33 8.98 2.64 14.77 1.12 1.09 2.14 2.28 3.21 3.43 2.57 2.77 3.74 2.56 5.08-.95 4.02-10.53 8.09-21.04 11.99-31.62 1.24-3.38 1.12-6.81-1.38-10.29zm-33.52 181.69c3.21.81 5.38-.37 7.67-2.07 6.26-4.65 6.59-11.25 5.46-17.8-1.38-8-3.59-15.87-5.82-23.69-.53-1.88-2.24-4.09-3.97-4.82-4.87-2.06-10.03-3.43-15.24-5.12 0 19.08 8.9 35.57 11.9 53.5zm81.65-12.09c.47-.12.95-.24 1.42-.36 1.27-4.81 2.56-9.61 3.78-14.43.12-.47-.08-1.13-.34-1.59-5.71-10.08-11.12-20.35-17.31-30.14-3.48-5.51-8.9-9.33-15.37-11.74-.55 1.67-.88 3.35-1.64 4.8-1.84 3.51-.89 6.08 1.8 8.82 10.5 10.73 17.9 23.46 23.56 37.29 1.06 2.58 2.72 4.91 4.1 7.35zm-1.14 16.1c.22-.27.44-.53.67-.8-.13-.73-.12-1.51-.41-2.17-1.88-4.27-3.68-8.6-5.8-12.75-2.18-4.27-5.37-8.13-6.88-12.59-1.44-4.26-3.56-7.83-6.19-11.32-2.89-3.83-5.51-7.86-8.46-11.65-1.2-1.55-2.96-2.67-4.89-4.36-1.87 4.77-3.15 8.82-5.02 12.57-1.67 3.36-.57 5.52 1.69 7.97 4.38 4.74 8.48 9.72 12.72 14.59.57.66 1.2 1.3 1.88 1.84 2.21 1.77 4.67 3.27 6.63 5.27 3.2 3.27 5.95 6.97 9.14 10.26 1.31 1.38 3.25 2.12 4.92 3.14zm-42.35-245.78c-.5-.09-1.01-.18-1.51-.27-1.43 1.36-2.8 2.8-4.32 4.06-1.94 1.62-3.87 3.31-6.05 4.57-3.3 1.9-3.73 6.1-.6 8.34.9.65 1.89 1.17 2.82 1.78 3 1.97 4.96 1.6 6.23-1.66 1.37-3.51 2.5-7.14 3.35-10.8.45-1.9.08-4 .08-6.02z" fill="#010000"/><path d="m202.98 314.12c-1.02-10.07.73-19.93 3.02-29.73.34-.02.68-.03 1.02-.05.11 1.37.52 2.8.28 4.1-1.09 5.81-2.45 11.57-3.52 17.38-.5 2.73-.54 5.53-.8 8.3z" fill="#010000"/><path d="m188.11 274.41c-3.14-4.01-2.06-8.59-1.73-13.06.58 4.35 1.16 8.7 1.73 13.06z" fill="#010000"/><path d="m150.68 167.66c2.83 1 3.69 2.85 2.81 5.74-1.47 4.87-1.41 5.12 2.9 7.91 4.93 3.18 9.6 6.59 12.34 11.97 1.01 1.98 1.97 4.03 2.56 6.15 1.69 6.03.49 9.44-4.07 12.46-5.2 3.45-9.42 3.65-14.04-.4-3.38-2.96-6.63-6.46-8.73-10.37-1.36-2.53-1.29-6.41-.59-9.38 1.89-8.01 4.45-15.87 6.82-24.08zm.08 17.3c-.54 1-1.73 2.18-1.63 3.23.35 3.65.68 7.42 1.9 10.82 1.52 4.24 4.05 8.14 8.99 9.1 1.2.23 3.3-.43 3.84-1.35 1.54-2.61-.16-10.01-2.53-12.25-3.31-3.11-6.74-6.1-10.57-9.55z" fill="#010000"/></svg>