<svg enable-background="new 0 0 400 400" viewBox="0 0 400 400" xmlns="http://www.w3.org/2000/svg"><path d="m374.8 390.4.4-.4c.7.5 1.3 1 1.8 1.4l-.5.5c-.5-.6-1.1-1.1-1.7-1.5zm1 7.3-.6-.3c.5-1.4 1.1-2.8 1.5-4.3.2.1.4.2.6.3-.5 1.3-1 2.8-1.5 4.3zm-.4-10.3.4-.4c.4.3 1 .8 1.7 1.4l-.5.5c-.4-.5-1-1-1.6-1.5zm2.5.3h1.7v-1h.6v1h3.5v-1h.6v1h1.8v.5h-1.8v1.4h-2v1h3.2v2h-3.2v.9h3.3v.5h-3.4c0 .3-.1.6-.1.9h4v.5h-3.7c.7.9 1.9 1.5 3.8 1.7-.1.2-.2.4-.3.6-2.1-.4-3.5-1.1-4-2.1-.4 1-1.8 1.7-4 2.2-.1-.2-.2-.4-.3-.6 2.1-.4 3.4-1 3.8-1.8h-3.4v-.5h3.6c.1-.3.1-.6.2-.9h-3.3v-.5h3.4c0-.3 0-.6 0-.9h-3.2v-2h3.3v-1h-2.1v-1.4h-1.7v-.5zm1.1 3.5v1h2.7c0-.3 0-.4 0-.4 0-.1 0-.2 0-.2 0-.1 0-.2 0-.3h-2.7zm1.2-3v.9h3.5v-.9zm4.7 3h-2.6v.6.4h2.6z" fill="#fbfcfa"/><path d="m393.6 386.7h.6v1.5h2.7v6.1h1.1v.6h-11v-.6h1.1v-6.1h2.7v-1.5h.6v1.5h2.1v-1.5zm-2.7 8.8.4.6c-1.2.6-2.5 1.3-3.8 1.9-.1-.2-.2-.4-.3-.6 1.2-.6 2.5-1.2 3.7-1.9zm-2.2-6.7v2.4h2.1v-2.4zm0 3v2.5h2.1v-2.5zm2.8-3v2.4h2.1v-2.4zm0 3v2.5h2.1v-2.5zm6 6.1c-1.4-.7-2.7-1.3-3.9-1.8l.3-.6c1.5.6 2.7 1.2 3.9 1.7zm-1.2-9.1h-2.1v2.4h2.1zm-2.1 3v2.5h2.1v-2.5z" fill="#fbfcfa"/><g fill="#010101"><path d="m194.21 188.29c-.33-5.19-1.04-9.53-.8-13.82.48-8.59 1.65-17.14 2.2-25.73.25-3.88.01-7.84-.53-11.7-1.73-12.46.27-24.79 1.1-37.15.37-5.47.72-10.95 1.38-16.39.97-7.98 2.2-15.94 3.33-23.9.09-.66.21-1.33.26-2 .63-8.14-2.36-11.41-10.48-11.46-.22 0-.46-.04-.67.01-10.13 2.31-19.57-1.48-29.33-2.92-5.18-.76-11.03.14-16.02 1.88-3.54 1.23-4.44 5.93-4.45 9.86-.01 3.12.84 6.28.56 9.36-.72 7.78-1.96 15.51-2.81 23.27-.88 7.99-1.45 16.02-2.35 24.01-.56 4.97-1.14 9.99-2.4 14.81-.62 2.36-2.82 4.3-4.3 6.43-.49-.11-.98-.21-1.47-.32-.85-6.82-2.3-13.64-2.41-20.47-.17-10.6.56-21.22.91-31.83.09-2.79.39-5.6.26-8.38-.27-6.33.51-12.37 2.71-18.4.94-2.57.07-5.9-.33-8.84-.62-4.54-1.53-9.04-2.34-13.55-.83-4.61 1.03-6.15 5.7-5.27 6.57 1.24 13.18 2.39 19.83 3.11 7.22.78 14.5 1 21.75 1.47.45.03.94-.03 1.33.14 9.02 3.82 18.52 2.15 27.84 2.41 6.04.17 12.1.22 18.13-.04 3.9-.16 7.25.62 10.17 3.24.81.73 1.84 1.2 3.74 2.41-.2-2.09-.32-3.35-.45-4.8h24.83c4.48 0 8.96.15 13.43-.05 3.15-.14 6.03.29 8.46 2.34 2.64 2.22 4.9 2.12 6.99-.71.39-.53.98-.91 1.47-1.34 3.64 2.42 3.76 4.07.6 6.56-7.48 5.89-10 14.27-9.13 23 .59 5.94.92 11.67.28 17.56-1.6 14.89.33 29.72.94 44.58.49 11.92 2.12 23.9-.32 35.81-1.03 5.04-2.88 9.63-8.21 12.61-.38-5.05-.76-9.79-1.08-14.52-1.54-22.89-3.34-45.76-4.42-68.67-.34-7.27 1.47-14.62 1.91-21.96.31-5.1.06-10.25-.15-15.37-.13-3.18-2.11-5.36-5.15-5.73-4.03-.5-8.25-.99-12.2-.35-7.12 1.14-14.09 1.84-21.31.69-4.01-.64-8.22.11-12.35.12-3.24.01-3.94 1.8-4.13 4.68-.76 11.61-1.74 23.21-2.65 34.81-.08.99-.16 2.04-.53 2.94-3.37 8.23-4.25 16.84-4.31 25.64-.06 9.49-.11 18.99-.72 28.45-.24 3.69-2.23 7.23-2.95 10.94-.75 3.88-1.1 7.87-1.31 11.82-.15 2.78.27 5.58.37 8.38.21 5.57-2.93 9.02-8.42 12.33z"/><path d="m259.21 374.92c-6.08-18.44-8.93-36.93-7.3-56.26 1.18-14 .6-28.14.99-42.21.1-3.72.64-7.49 1.47-11.12.94-4.12 2.17-8.23 3.76-12.15 1.76-4.34 3.66-4.95 6.96-2.57 3.67 2.65 6.08 5.93 6.13 10.57.22 22.8.72 45.61.38 68.41-.1 6.79-2.66 13.54-4 20.33-1.29 6.57-2.51 13.15-3.66 19.75-.69 3.83-.6 3.85-4.73 5.25z"/><path d="m177.9 333.82c-1.38.22-2.57.41-4.04.65-1.62-8.79-3.22-17.46-4.82-26.12-.26-1.43-.34-2.91-.78-4.28-1.66-5.26-1-10.23 1.11-15.28.68-1.62.54-4.01-.12-5.7-4.29-10.92.98-19.53 6.55-28.06.34-.53 1.99-.83 2.54-.48 1.69 1.08 3.3 2.39 4.62 3.9.52.6.24 1.94.24 2.94-.03 7.25.31 14.53-.23 21.74-.86 11.57-2.33 23.1-3.52 34.65-.52 5.21-1 10.44-1.55 16.04z"/><path d="m108.58 275.91c-3.94-4.69-2.46-9.62-1.01-14.45 1.58-5.27 3.47-10.46 5.34-16.06 3.42 2.28 5.61 4.5 5.01 7.65-2 10.5 1.29 20.97.01 31.38-1.56 12.73-3.56 25.41-5.67 38.05-.24 1.46-2.45 2.59-4 4.12-3.71-5.96-5.39-11.75-5.46-17.79-.11-8.93.33-17.88.69-26.81.04-1.04.92-2.17 1.67-3.04.92-1.06 2.12-1.91 3.42-3.05z"/></g></svg>