<svg enable-background="new 0 0 400 400" viewBox="0 0 400 400" xmlns="http://www.w3.org/2000/svg"><path d="m110.17 365.02c-.76-5.68-1.87-11.35-2.21-17.06-1.22-20.39 1.05-40.67 2.14-61 1.25-23.22 6.57-45.8 9.53-68.74 2.17-16.82 1.48-33.51-1.11-50.15-2.89-18.56-6.12-37.06-9.29-55.57-.56-3.3-1.89-6.48-2.25-9.78-.32-2.93 0-5.98.47-8.91.15-.92 1.61-2.12 2.62-2.27.98-.15 2.4.62 3.18 1.42 5.33 5.54 7.64 12.44 8.68 19.89.22 1.54.57 3.08 1.03 4.57 2.02 6.53 6.02 9.25 12.44 7.2 7.94-2.54 15.69-5.78 23.34-9.13 7.36-3.23 14.5-6.98 21.73-10.5 5.5-2.67 8-8.4 5.46-13.97-1.98-4.33-4.33-8.64-7.27-12.37-7.89-10.02-16.13-19.77-24.38-29.5-1.04-1.22-2.87-2.13-4.48-2.44-5.81-1.12-11.67-2-17.53-2.83-6.56-.94-12.12-4.67-15.48-10.63 4.84-2.47 9.9-3.76 15.36-4.26 4.46-.4 8.79-2.1 13.21-3.07 1.27-.28 2.75-.33 3.98.04 1.69.5 3.31 1.37 4.84 2.29 4.4 2.63 8.72 3.38 13.92 1.81 3.21-.97 7.07.02 10.61.4 26.13 2.84 52.27 5.57 78.36 8.76 5.57.68 11.08 2.66 16.34 4.75 6.37 2.54 7.86 8.93 4.16 14.72-1 1.56-1.72 3.38-2.18 5.18-1.47 5.81-2.23 11.86-4.26 17.46-1.93 5.34-1.87 10.4-.69 15.71 4.14 18.72 4.08 37.76 3.95 56.77-.05 6.46 1.62 12.41 3.7 18.26 2.72 7.65 3.61 15.34 2.75 23.38-1.55 14.39.54 28.63 2.65 42.76 1.93 12.9 1.08 25.64.08 38.46-.82 10.48-2.12 20.95-.34 31.46.26 1.54.35 3.21 1.03 4.56 3.16 6.38 2.81 13.22 2.93 20.02.23 12.42.47 24.84.7 37.26.02.87 0 1.74 0 2.79-2.87 0-5.5 0-8.34 0-3-9.92-4.16-20.1-4.23-30.39-.1-14.83-1.57-29.45-5.33-43.84-.8-3.07-1.06-6.47-.71-9.62 2.19-19.86-1.18-39.24-4.54-58.65-1.03-5.95-1.99-11.91-2.81-17.89-.24-1.74-.11-3.6.19-5.34 1.72-9.72-1.97-17.78-7.79-25.08-2.64-3.31-5.92-6.11-8.65-9.37-5.45-6.5-10.82-13.06-15.98-19.78-1.31-1.71-2.3-2.39-4.32-1.59-1.44.57-2.99.93-4.53 1.22-6 1.13-11.13 3.16-15.45 8.17-5.8 6.73-14.43 8.6-22.89 10.05-15.59 2.67-29.38 9.79-43.03 17.25-.75.41-1.31 1.96-1.24 2.92.21 2.89.52 5.82 1.24 8.62 2.21 8.6-.22 16.87-1.59 25.19-3.5 21.29-7.31 42.53-10.62 63.85-.88 5.7.09 11.66-.59 17.41-1.83 15.41-3.97 30.8-6.3 46.14-.45 2.98-2.02 5.94-3.66 8.55-1.21 1.93-3.37 3.28-5.1 4.88-.51-.15-.98-.29-1.45-.44zm72.1-313.72c1.38 3.2 2.23 5.5 3.32 7.69 4.77 9.56 11.51 17.78 19.61 24.45 11.62 9.58 20.69 21.22 29.73 33.01 4.36 5.68 8.91 11.21 13.17 16.96 1.43 1.93 3.15 2.32 4.86 1.44.85-.44 1.32-2.28 1.36-3.52.71-18.89 1.31-37.78 1.98-56.67.13-3.57.72-7.14.67-10.7-.07-4.8-2.6-7.54-6.83-7.94-20.37-1.9-40.74-3.81-61.12-5.59-1.97-.17-4.01.5-6.75.87zm-51.49 95.04c.05 6.87 1 13.58 4.21 19.79 1.11 2.15 2.41 3.24 4.99 1.8 5.75-3.2 11.96-5.69 17.34-9.4 11.5-7.92 23.86-13.32 37.56-16.18 6.02-1.26 11.72-4.12 17.48-6.49.86-.35 1.82-2.09 1.67-3.01-1.05-6.2-4.07-11.35-9.36-14.87-2.6-1.73-5.34-2.43-8.24.15-2.4 2.14-5.4 3.58-7.98 5.53-2.52 1.9-4.98 3.12-8.29 2.05-1.11-.36-2.64.12-3.85.56-8.41 3.02-16.8 6.07-25.16 9.24-4.07 1.54-8 2.29-12.39 1.06-4.71-1.31-7.52.95-7.95 5.74-.13 1.34-.03 2.69-.03 4.03z" fill="#010100"/><path d="m180.9 311.35c7.03-6.54 13.9-12.92 20.77-19.31 1.88-1.75 3.56-3.83 5.67-5.22 3.98-2.62 4.26-6.13 3.82-10.42-1.59-15.58-2.9-31.19-4.3-46.79-.02-.2.11-.42.17-.63 10.69.43 17.57 7.41 17.86 18.05.08 3.12-.05 6.36.76 9.32.54 1.96 2.25 4.11 4.03 5.1 2.28 1.26 4.1-.64 5.47-2.59 3.16-4.48 6.29-8.97 9.58-13.35 2.72-3.62 6.32-5.88 11.2-6.29.74 5.71 2 10.96-1.78 16.36-6.27 8.97-11.6 18.59-17.75 27.64-2.57 3.78-3.9 7.59-4.26 12.04-1.26 15.72-2.31 31.47-4.16 47.12-1.04 8.84-3.26 17.56-5.4 26.23-1.59 6.43-4.82 7.68-11.03 5.37-4.99-1.86-9.48-4.36-13.27-8.2-9.12-9.23-18.42-18.29-27.55-27.51-11.11-11.22-15.52-25.33-17.11-40.58-.36-3.45-.29-6.94-.74-10.37-.48-3.63 1.98-4.93 4.52-5.57 2.58-.65 5.28-1 7.15 2.35 4.59 8.19 9.59 16.15 14.44 24.2.56.94 1.16 1.86 1.91 3.05zm28.86 31.97c1.51-7.47 3.11-14.53 4.25-21.66.33-2.04-.24-4.5-1.16-6.4-1.36-2.85-3.68-3.05-6.17-1.05-5.23 4.2-10.37 8.5-15.7 12.56-1.95 1.49-2.77 3.54-1.7 5.18 1.86 2.88 4.04 6.14 6.92 7.62 3.86 1.99 8.51 2.44 13.56 3.75z" fill="#010100"/><g fill="#fafbfa"><path d="m6.4 11.7c-1-.8-1.9-1.6-2.9-2.3l.6-.7c.9.7 1.9 1.4 2.9 2.2zm-2.1 8.3c.7-2.1 1.4-4.2 2-6.4.2.1.6.3 1 .4-.7 2.3-1.3 4.4-1.9 6.4zm3-12.8c-1.1-.9-2.1-1.7-2.9-2.4l.6-.7c1 .8 2 1.5 3 2.4zm1.4-1.3v-.9h10.2v.9c-.9 4.2-2.3 7.3-4.1 9.4 1.3 1.4 3.2 2.7 5.7 4-.2.2-.4.5-.7.9-2.5-1.4-4.4-2.7-5.7-4.2-1.4 1.5-3.5 3-6.1 4.4 0 0 0 0-.1-.1-.3-.4-.5-.7-.7-.8 2.7-1.3 4.7-2.8 6.2-4.2-1.8-2.2-3-5.3-3.7-9.4zm9.2 0h-7.1c.6 3.8 1.7 6.7 3.4 8.7 1.7-2 2.9-4.8 3.7-8.7z"/><path d="m31.6 3.6h.9v2.3h4.1v9.1h1.7v.9h-16.6v-.9h1.7v-9.1h4.1v-2.3h.9v2.3h3.1v-2.3zm-4 13.3.6.8c-1.9.9-3.8 1.9-5.8 2.8-.2-.3-.3-.6-.5-.9 2-.9 3.9-1.8 5.7-2.7zm-3.2-10.1v3.7h3.1v-3.7zm0 4.5v3.7h3.1v-3.7zm4.1-4.5v3.7h3.1v-3.7zm0 4.5v3.7h3.1v-3.7zm9.1 9.1c-2.1-1.1-4.1-2-5.8-2.7l.5-.8c2.2.9 4.1 1.8 5.8 2.6zm-1.9-13.6h-3.1v3.7h3.1zm-3.2 4.5v3.7h3.1v-3.7z"/></g></svg>