<svg enable-background="new 0 0 400 400" viewBox="0 0 400 400" xmlns="http://www.w3.org/2000/svg"><path d="m374.8 390.4.4-.4c.7.5 1.3 1 1.8 1.4l-.5.5c-.5-.6-1.1-1.1-1.7-1.5zm1 7.3-.6-.3c.5-1.4 1.1-2.8 1.5-4.3.2.1.4.2.6.3-.5 1.3-1 2.8-1.5 4.3zm-.4-10.3.4-.4c.4.3 1 .8 1.7 1.4l-.5.5c-.4-.5-1-1-1.6-1.5zm2.5.3h1.7v-1h.6v1h3.5v-1h.6v1h1.8v.5h-1.8v1.4h-2v1h3.2v2h-3.2v.9h3.3v.5h-3.4c0 .3-.1.6-.1.9h4v.5h-3.7c.7.9 1.9 1.5 3.8 1.7-.1.2-.2.4-.3.6-2.1-.4-3.5-1.1-4-2.1-.4 1-1.8 1.7-4 2.2-.1-.2-.2-.4-.3-.6 2.1-.4 3.4-1 3.8-1.8h-3.4v-.5h3.6c.1-.3.1-.6.2-.9h-3.3v-.5h3.4c0-.3 0-.6 0-.9h-3.2v-2h3.3v-1h-2.1v-1.4h-1.7v-.5zm1.1 3.5v1h2.7c0-.3 0-.4 0-.4 0-.1 0-.2 0-.2 0-.1 0-.2 0-.3h-2.7zm1.2-3v.9h3.5v-.9zm4.7 3h-2.6v.6.4h2.6z" fill="#fbfcfa"/><path d="m393.6 386.7h.6v1.5h2.7v6.1h1.1v.6h-11v-.6h1.1v-6.1h2.7v-1.5h.6v1.5h2.1v-1.5zm-2.7 8.8.4.6c-1.2.6-2.5 1.3-3.8 1.9-.1-.2-.2-.4-.3-.6 1.2-.6 2.5-1.2 3.7-1.9zm-2.2-6.7v2.4h2.1v-2.4zm0 3v2.5h2.1v-2.5zm2.8-3v2.4h2.1v-2.4zm0 3v2.5h2.1v-2.5zm6 6.1c-1.4-.7-2.7-1.3-3.9-1.8l.3-.6c1.5.6 2.7 1.2 3.9 1.7zm-1.2-9.1h-2.1v2.4h2.1zm-2.1 3v2.5h2.1v-2.5z" fill="#fbfcfa"/><g fill="#010101"><path d="m296.05 118.21c-3.61.79-5.62.44-7.67-1.61-5.83-5.85-12.07-11.3-17.97-17.09-7.69-7.53-15.71-14.6-25.26-20.25-.56 1.4-1.07 2.61-1.54 3.83-1.23 3.2-2.61 6.36-3.58 9.64-.4 1.36-.51 3.48.27 4.4 3.64 4.32 8.18 7.78 10.72 13.17.93 1.97 4.35 2.62 6.21 4.34 7.07 6.54 15.86 6.74 24.64 7.02 1.63.05 3.28-.82 4.92-.8 1.79.02 3.56.58 5.26 1.33-10.5 5.44-21.17 8.53-32.13 2.66-4.78-2.56-9.23-5.94-13.28-9.57-3.62-3.25-6.42-7.4-9.69-11.05-1.24-1.39-2.59-2.97-4.23-3.66-3.82-1.6-7.54 1.04-6.81 5.09 1.24 6.87 3.16 13.62 4.77 20.42.49 2.06.77 4.19 1.46 6.17.28.8 1.32 1.72 2.14 1.88 3.9.75 8.09.6 11.71 1.99 7.44 2.87 14.63 6.42 21.79 9.94 1.53.75 2.52 2.62 3.44 4.38-6.49 1.53-11.77-1.22-17.27-3.12-5.45-1.89-11.04-3.39-16.56-5.06-1.9 5.86 1.21 11.96 7.15 13 5.3.93 8.76 4.72 13.05 7.23 3.32 1.94 6.9 3.45 10.34 5.2 1.33.67 2.59 1.46 4.31 2.45-3.78 2.87-7.34 3.38-10.87 1.66-5.15-2.51-10.96-4.04-14.57-9.1-.39-.54-1.25-.75-2.08-1.21-.19.68-.48 1.13-.39 1.48.91 3.61 1.02 7.8 3.02 10.67 3.6 5.17 3.18 10.44 1.72 15.64-2.12 7.5-5.25 14.7-7.63 22.14-1.76 5.48-3.8 11.05-4.27 16.69-.44 5.32.66 10.87 1.71 16.19 2 10.07 4.23 20.12 6.82 30.05 1.02 3.92 3.41 7.47 4.92 11.29.71 1.81 1.17 3.85 1.17 5.78-.04 10.65-6.66 17.92-13.42 24.96-3.78 3.94-7.95 7.55-12.16 11.04-3.39 2.81-4.45 6.3-4.75 10.5-.74 10.38-1.72 20.74-2.76 31.09-.18 1.84-1.16 3.59-1.76 5.39-.48-.08-.96-.16-1.43-.24 0-3.01-.1-6.03.02-9.03.17-4.33.38-8.67.79-12.98.27-2.85.84-5.69 1.45-8.5.58-2.66.85-5.12-1.93-6.84-9.05 5.99-18.08 11.98-27.12 17.96-.28-.16-.55-.33-.83-.49.43-.86.68-1.91 1.33-2.55 3.89-3.83 7.86-7.57 11.82-11.32.48-.45 1-1.04 1.58-1.15 5.59-1.1 8.17-5.88 12.04-9.51-2.23-1.79-4.31-2.38-7.12-2.02-3.22.41-6.56-.08-9.85-.27-3.11-.19-6.2-.52-9.31-.75-3.57-.27-7.16-.31-10.69-.82-1.69-.25-3.26-1.35-4.76-2.54 5.03-1.91 9.87-2.68 15.07-1.62 3.12.63 6.44.23 9.66.42 5.31.31 10.61.96 15.92 1.03 4.5.06 9.32.74 12.65-3.7 1.04-1.39 2.42-3.01 3.96-3.47 8.52-2.58 11.19-9.67 13.52-17 .61-1.93.47-4.09.71-6.56-2.2 0-3.86.06-5.5-.01-4.69-.21-9.37-.63-14.06-.67-4.06-.03-8.12.39-12.19.52-3.24.1-6.48.05-9.71.09-2.49.03-4.19.85-4.61 3.7-.16 1.1-1.39 2.04-2.13 3.05-.85-.78-2.06-1.4-2.48-2.37-2.03-4.69-5.9-6.16-10.53-6.25-15.45-.3-30.04-5.06-44.89-8.47-1.77-.41-3.67-.19-5.49-.44-1.01-.14-2.31-.33-2.9-1.01-3.01-3.47-7.11-3.12-11.26-3.77-1.03 9.5-1.48 18.93-7.17 27.57-3.44-6.82-3.03-20.83-.58-22.89-.11-2.92-.31-5.19-.25-7.45.14-5.42.24-10.85.69-16.25.4-4.78 1.25-9.51 1.91-14.27l1.02-.51c.98 1.49 2.56 2.89 2.83 4.5 1.01 5.92 1.71 11.91 2.27 17.9.22 2.35.27 4.29 3.39 4.01.49-.04 1.22.19 1.51.55 2.53 3.11 6.23 3.12 9.7 3.82 2.18.44 4.35 1.03 6.46 1.74 8.48 2.83 16.78 6.02 26.02 6.15 6.14.09 12.25 1.8 18.4 2.6.66.09 2.06-.96 2.12-1.59.21-1.97.28-4.08-.2-5.98-4-16.21-6.49-32.67-8.14-49.26-.28-2.77-.03-5.59-.13-8.38-.13-3.68-.42-7.35-.55-11.03-.15-4.16-1.49-8.2.17-12.55.85-2.24-.56-5.25-.56-7.92-.01-4.31.26-8.63.48-12.93.16-3.09.42-6.18.66-9.27.22-2.86.55-5.72.67-8.59.09-2.17.43-4.56-.33-6.47-.53-1.33-2.71-2.84-4.16-2.85-18-.11-35.56-3.67-53.18-6.68-2.48-.42-4.84-1.66-7.18-2.68-5.18-2.27-7.87-.92-8.78 4.61-.78 4.72-1.38 9.47-2.28 14.17-.18.93-1.33 1.68-2.04 2.52-.76-.8-2.02-1.51-2.18-2.42-.56-3.05-1.22-6.22-.94-9.26.73-8.01 1.91-15.99 2.95-23.97.13-.96.48-1.9 1.38-3 .84 2.21 1.71 4.41 2.51 6.63 1.42 3.96 5.02 6.31 9.18 6.34 2.53.02 5.12.25 7.57.86 8.42 2.1 16.99 3.06 25.58 3.98 4.75.51 9.68.29 14.18.99 5.83.9 11.52.79 17.27.8 4.69 0 9.37-.52 14.06-.8 1.67-.1 3.42-.52 5.01-.2 7.09 1.42 13.89-.54 20.75-1.62 1.79-.28 3.62-1.17 5.1-2.25 1.74-1.27 2.33-2.87.71-5.11-3.63-5.03-3.43-11.21-4.48-17-.54-2.96-.95-5.94-1.48-9.28-1.68.41-3.38.41-4.57 1.19-6.5 4.29-13.85 4.52-21.19 4.66-5.78.11-11.63.35-17.33-.41-4.81-.64-9.45-2.62-14.14-4.06-.72-.22-1.54-.62-1.97-1.19-3.59-4.8-9.04-8.25-10.6-14.57-.21-.84-1.09-1.62-1.85-2.18-1.8-1.32-3.77-2.42-5.57-3.73-2.75-2.01-5.48-3.46-9.2-3.12-2.04.18-4.25-1.11-6.34-1.83-3.57-1.24-7.14-2.48-10.65-3.88-1.16-.46-2.53-1.15-3.12-2.14-1.64-2.77-3.23-5.65-4.27-8.68-2.91-8.5-5.54-17.09-8.37-25.94.95.46 2.44.91 3.6 1.8 3.8 2.91 7.36 6.2 12.56 6.7 1.47-3.5-.05-6.4-1.22-9.4-1.47-3.79-2.79-7.64-4.17-11.46.31-.31.63-.62.94-.94 1.29.3 2.96.18 3.81.95 8.35 7.57 18.71 10.17 29.34 11.82 10.49 1.63 21.1 2.51 31.6 4.1 3.86.59 7.51 2.43 11.33 3.42 4.13 1.07 8.43 1.55 12.52 2.74 15.75 4.62 31.14 10.08 44.64 19.83 6.88 4.97 13.97 9.64 20.96 14.46.74.51 1.78.87 2.13 1.58 2.2 4.49 6.37 7.05 9.68 10.47 5.41 5.59 10.29 11.71 15.23 17.73 1.45 1.66 2.31 3.81 3.66 6.19zm-102.98 29.34c-.02-.11-.04-.21-.06-.32-.56 0-1.18-.16-1.67.03-1.82.69-5.01 1.26-5.18 2.3-1.28 7.59-2.67 15.28-2.65 22.94.02 12.74.87 25.49 1.75 38.21.53 7.62-1.51 15.45 1.79 22.86.24.54-.13 1.33-.06 1.99.31 2.93.61 5.86 1.05 8.77.28 1.86.91 3.67 1.16 5.53 1.46 10.92 2.56 21.89 6.91 32.21.9 2.15 2.1 3.26 4.38 3.41 1.91.12 3.8.47 5.7.59 9.14.57 18.29 1.56 27.43 1.48 7.78-.06 10.46-3.04 7.83-11.24-1.74-5.42-3.82-10.74-5.38-16.21-.68-2.39.32-5.46-.78-7.51-2.88-5.36-2.84-10.88-2.49-16.62.36-5.88-.08-11.85.8-17.63.6-3.95 3.15-7.57 4.31-11.49 1.79-6.09 3.27-12.29 4.64-18.49 1.09-4.94 1.42-9.8-.92-14.72-4.08-8.56-7.68-17.35-11.52-26.03-.63-1.42-1.41-2.79-2.18-4.14-.98-1.72-2.31-2.11-4.22-1.33-2.05.84-4.2 1.61-6.37 1.95-5.99.94-12.01 1.62-18.01 2.44-2.12.28-4.19.67-6.26 1.02zm-70.14-110.27c.19 1.63.24 2.84.49 4.01.65 3.05 1.65 6.05 2.03 9.13.39 3.2-1.92 4.65-4.62 2.84-2.97-2-5.62-1.19-8.81-.16 2.83 6.44 5.48 12.69 8.38 18.83.48 1.02 1.94 1.77 3.1 2.22 2.24.86 4.84.7 6.98 1.32 7.38 2.15 14.67 4.77 21.69 7.91 2.68 1.2 5.5 3.89 6.56 6.57 2.93 7.4 7.98 11.15 15.65 12.82 11.93 2.6 23.53 3.38 34.73-2.74.02.09.05-.2-.07-.32-7.59-7.87-7.4-17.91-7.77-27.8-.02-.52.3-1.06.47-1.59.98-3.06 1.81-6.17 2.98-9.15 1.13-2.89-.27-4.16-2.64-5.04-4.59-1.72-9.38-3.04-13.72-5.24-4.74-2.4-10.83 2.66-14.73-3.04-6.71.75-12.25-3.71-19.1-3.81-7.99-.12-15.95-3.02-23.9-4.77-2.46-.54-4.89-1.26-7.7-1.99zm84.81 32.67c.4 5.18.63 8.75.97 12.31.55 5.81 6.55 7.53 9.03 11.9.04.07.22.04.32.09 6.62 2.97 11.82-.89 17.22-3.64.48-.24.88-1.12.89-1.71.03-4.55.02-9.11-.14-13.66-.03-.89-.52-2.19-1.2-2.56-7.22-3.97-14.5-7.85-21.86-11.54-.73-.37-2.9.41-3.15 1.11-1.08 2.95-1.67 6.08-2.08 7.7z"/><path d="m176.37 362.94c1.27-3.56 5.11-4.6 7.41-7.47.73.87 1.2 1.43 1.98 2.35-2.87 2.2-5.58 4.28-8.28 6.36-.37-.42-.74-.83-1.11-1.24z"/></g></svg>