<svg enable-background="new 0 0 400 400" viewBox="0 0 400 400" xmlns="http://www.w3.org/2000/svg"><g fill="#010102"><path d="m294.88 247.05c-15.43-.77-30.27-1.79-45.12-2.11-5.4-.12-10.82 1.43-16.24 2.19-4.19.58-8.21.28-12.06-1.79-.8-.43-2.26-.12-3.22.3-7.63 3.3-18.43 4.77-27.17-2.12 5.67-1.38 11.16-2.72 16.66-4.05 4.18-1.01 5.79-2.6 5.73-6.87-.05-3.43-.63-6.89-1.3-10.28-1.82-9.2-.34-18.23.74-27.35.84-7.07.78-14.23 1.2-21.35.14-2.4-1.07-3.62-3.2-3.86-3.65-.41-7.33-.58-11-.87-5.43-.43-10.85-.88-16.28-1.33-.56-.05-1.14-.36-1.65-.25-10.41 2.26-21.03 1.1-31.51 2.06-8.9.82-17.74 2.2-26.61 3.37-4.62.61-6.24-.33-8.33-5.16.7.04 1.36-.1 1.85.12 3.09 1.42 5.67 1.48 7.49-2.05.32-.62 1.73-1.03 2.59-.97 10.29.72 20.21-1.61 30.26-3.15 5.22-.8 10.67-.03 16-.18 11.28-.3 22.56-.78 33.84-1.06 2.14-.05 4.3.47 6.46.71.42.05.96.19 1.26 0 5.78-3.62 12.03-1.04 18.05-1.42 3.45-.22 6.94-.22 10.32-.81 3.84-.67 4.62-3.03 2.34-6.23-5.07-7.1-10.31-14.09-15.27-21.27-6.66-9.62-12.82-19.61-16.57-30.72-2.5-7.41-7.83-12.92-11.39-19.58-1.99-3.72-4.63-7.12-7.17-10.52-1.02-1.37-2.53-2.36-4.47-4.12-2.4 4.48-4.58 8.33-6.56 12.28-1.55 3.09-2.82 6.31-4.3 9.44-.42.89-.98 2.05-1.77 2.39-4.08 1.76-4.96 5.58-5.93 9.17-2.94 10.85-8.83 20.24-14.48 29.74-1.16 1.96-3.06 3.55-4.83 5.06-3.37 2.87-6.3 6.04-7.8 10.29-1.43 4.06-4.49 6.18-8.74 7.52-.05-.92-.36-1.83-.1-2.53 3.07-8.38 6.06-16.79 9.41-25.06 3.4-8.39 7.12-16.64 10.78-24.93 3.66-8.28 7.25-16.6 11.18-24.75 2.73-5.68 6.65-10.54 7.73-17.27 1-6.25 4.28-12.19 6.88-18.12 2.14-4.86 4.76-9.51 7.18-14.27 3.56 1.22 5.79 3.15 5.99 6.11 1.15 16.91 9.76 30.92 17.3 45.36 8.95 17.15 17.64 34.43 27.05 51.32 6.05 10.87 13.19 21.12 19.82 31.67.84 1.34 1.48 2.8 2.1 3.99-9.89 1.09-19.29 2.18-28.7 3.12-2.42.24-4.9.13-7.34.04-5.88-.22-8.48 2.5-7.8 8.09.92 7.54 2.15 15.08 2.43 22.65.2 5.64-.9 11.32-1.42 16.98-.01.11-.09.23-.06.33 1.77 6.36-1.44 12.08-2.22 18.12-.65 5.06.65 6.33 5.9 6.21 6.26-.15 12.54-.24 18.77-.83 12.41-1.17 24.77-.97 37.16.27 4.77.48 9.61.32 14.41.54 1.44.07 2.89.34 4.29.68 4.42 1.08 4.47 1.43 4.26 5.92-.36 7.68-1.2 15.42 2.05 22.81.32.72.06 1.75-.07 2.61-.38 2.62-1.3 5.33 1.58 7.24.16.11.31.38.31.58-.04 5.05 1.19 10.2-1.23 15.53 2.9 2.57 2.08 6.08 1.81 9.86-.46 6.54.06 13.16.17 19.74.02.89.33 1.87.07 2.66-2.76 8.53-1.21 17.33-1.69 25.99-.09 1.7-.79 3.38-1.2 5.06-.9 3.68-1.8 7.36-2.7 11.04-.31 1.25-.63 2.49-1.41 3.65-.07-.41-.24-.84-.2-1.24.82-9.98-1.56-19.56-3.62-29.18-.23-1.08-.77-2.53-.31-3.26 3.83-6.03.56-12.21.59-18.29.02-4.32.2-8.65.1-12.97-.17-7.57-.6-15.14-.74-22.72-.2-11.19-.24-22.38-.35-33.57.01-1.3.02-2.62.02-4.35z"/><path d="m175.57 273.47c2.61 3.8 5.43 7.27 5.57 12.55.2 7.98 1.16 15.93 1.8 23.9.27 3.41 1.82 5.2 5.54 4.98 5.22-.3 10.47-.54 15.69-.36 8.13.29 16.26.91 24.37 1.51 3.4.25 8.11-3.26 8.47-6.68 1.34-12.56 2.63-25.13 3.96-37.7.13-1.2.32-2.39.55-4.02 4.43 2.97 7.9 6.1 9.13 11.09.17.69.26 1.96-.04 2.12-3.05 1.56-1.89 4-1.74 6.42.1 1.63-.7 3.32-1.11 4.99-.26 1.04-.7 2.06-.77 3.11-.3 4.63-.62 9.27-.7 13.91-.06 3.3.26 6.61.37 9.92.2 5.79.6 11.6.74 17.37.12 5.16-3.26 9.4-7.33 12.66-2.85 2.28-4.96 1.24-6.55-2.5-2.22.5-4.26 1-6.31 1.41-.65.13-1.38-.11-2 .07-13.62 3.93-27.59.52-41.33 2.05-4.17.46-7.8-.69-9.86-4.71-.79-1.55-1.56-3.26-1.73-4.95-.74-7.44-.89-14.95-1.96-22.34-1.69-11.76-.06-23.18 2.37-34.6.71-3.33 1.32-6.69 1.98-10.03.3-.06.59-.11.89-.17zm6 62.14c-.33.12-.66.24-.99.36 1.18 2.02 2.25 4.12 3.58 6.04.55.8 1.62 1.68 2.5 1.74 6.56.42 13.13.84 19.69.88 7.22.04 14.44-.32 21.66-.52.44-.01.89-.05 1.3-.18 6.71-2.19 10.91-9.41 8.94-16.28-.55-1.91-2.58-3.72-4.39-4.86-1.37-.86-3.44-.67-5.21-.81-7.56-.63-15.12-1.22-22.68-1.81-.77-.06-1.58-.19-2.31-.03-5.85 1.21-11.68 2.6-17.55 3.71-5.66 1.07-6.04 1.7-4.33 7.32.41 1.33-.12 2.95-.21 4.44z"/><path d="m93.77 316.17c1.12-8.84-1.29-17.11-3.76-25.37-.19-.63-.48-1.49-.21-1.95 2.18-3.73.23-6.59-1.4-9.85-.85-1.71-.21-4.26.07-6.39.14-1.04.99-1.98 1.53-2.96 3.3-6.04 3.3-6.04-1.26-10.98-2.53-2.74-2.26-4.5 1.21-5.38 8.09-2.05 16.13-4.66 24.69-3.45.44.06.92.15 1.33.02 8.64-2.71 17.54-1.3 26.31-1.86 6.73-.43 13.32-2.62 20.04-3.5 7.07-.93 14.22-1.53 21.34-1.61 1.64-.02 3.3 2.66 5.4 4.49-6.86 2.93-13.21 3.4-19.64 3.76-2.72.15-5.4 1.01-8.1 1.47-3.37.57-6.74 1.16-10.13 1.54-8.74.98-17.5 1.8-26.24 2.77-6.67.74-13.31 1.62-19.97 2.44-.56.07-1.12.11-1.67.21-6.36 1.12-6.09 1.36-5.76 7.72.65 12.72 1.02 25.48.86 38.21-.05 3.65-2.33 7.28-3.59 10.92-.34-.09-.7-.17-1.05-.25z"/><path d="m166.42 206.17c-1.69-8.37 1.31-15.86 1.32-23.73 4.57 4.04 5.17 8.74 1.97 13.48 2.3 4.95 1.8 6.91-3.29 10.25z"/><path d="m166.49 231.11c-.3-6.7-.74-13.4-.75-20.1 0-1.14 1.76-3.08 2.89-3.22 1.71-.22 2.85 1.15 2.53 3.36-.85 5.98-1.47 11.99-2.3 17.98-.12.85-.89 1.6-1.36 2.4-.33-.14-.67-.28-1.01-.42z"/></g><path d="m385.2 377.6.6-.7c.6.4 1.3.9 1.9 1.5l-.6.7c-.8-.5-1.4-1-1.9-1.5zm.3 7.1c.6-1.4 1.1-2.9 1.5-4.5.3.1.6.3.9.4-.5 1.4-1 2.9-1.5 4.4zm.2-10.1.6-.6c.7.5 1.3 1.1 1.9 1.6l-.7.7c-.6-.6-1.2-1.2-1.8-1.7zm8.4-.8h.8v.9h1.8v.7h-1.8v1.8h-.8v-.3h-1.2v.9h3.3v2.6h-.8v-.4h-2.5c0 .3 0 .6-.1.8h3.4v.7h-3.5c0 .3-.1.6-.1.8h4v.7h-3.5c.7.9 1.9 1.3 3.6 1.5-.2.2-.4.5-.6.9-1.9-.3-3.2-1.1-3.8-2.3-.5 1.1-1.8 2-3.9 2.4-.2-.3-.4-.5-.6-.8 1.9-.4 3.1-.9 3.6-1.7h-3.2v-.7h3.5c.1-.2.1-.5.2-.8h-3.3v-.7h3.4c0-.2 0-.5 0-.8h-2.4v.3h-.8v-2.6h3.3v-.9h-1.2v.3h-.8v-1.8h-1.8v-.7h1.8v-.9h.8v.9h3.2zm-4.4 5.5h2.4c0-.3 0-.6 0-.9h-2.4zm1.2-3.1h3.2v-.8h-3.2zm4.4 2.2h-2.4v.9h2.5v-.9z" fill="#fcfbfa"/><path d="m389.2 385.8h.9v1.5h1.9v-1.5h.9v1.5h2.7v6h1.1v.9h-11.3v-.9h1.1v-6h2.7zm.2 8.7.5.8c-1.2.6-2.5 1.3-4 1.9-.2-.3-.3-.6-.6-.8 1.6-.6 3-1.3 4.1-1.9zm-2-4.3h1.9v-2.1h-1.9zm0 3.1h1.9v-2.2h-1.9zm2.7-3.1h1.9v-2.1h-1.9zm0 3.1h1.9v-2.2h-1.9zm2.4 1.3c1.4.6 2.7 1.2 4.1 1.8l-.5.9c-1.5-.7-2.8-1.4-4.1-1.9zm2.2-6.5h-1.9v2.1h1.9zm-1.9 5.2h1.9v-2.2h-1.9z" fill="#fcfbfa"/></svg>