<svg enable-background="new 0 0 400 400" viewBox="0 0 400 400" xmlns="http://www.w3.org/2000/svg"><path d="m163.88 371.41c-.95-1.36-2.04-2.38-2.45-3.62-1.6-4.88-2.94-9.85-4.51-14.74-.29-.92-1.22-1.63-1.85-2.44-.71.58-1.56 1.06-2.11 1.76-2.59 3.33-5.25 6.63-7.59 10.14-1.08 1.62-1.49 3.69-2.17 5.57-1.1 3.01-2.93 5.13-6.9 5.64.33-1.18.36-2.09.8-2.71 3.14-4.52 5.38-9.34 7.23-14.6 4.13-11.8 9.63-23.13 13.62-34.98 2.66-7.88 6.31-15.74 5.56-24.43-.14-1.59-.85-3.36-1.85-4.59-1.68-2.07-3.94-3.66-5.72-5.65-2.09-2.33-4.42-4.66-5.68-7.44-.72-1.59.09-4.26.97-6.07 1.15-2.37 2.58-5.18 4.7-6.39 8.08-4.61 13.53-11.86 19.78-18.35 5.28-5.48 10.85-10.67 16.22-16.07 1.16-1.16 2.05-2.62 2.95-4.01 2.05-3.17 4.1-6.35 6.02-9.6 1.07-1.8 2.11-3.68 2.78-5.65 1.07-3.14 2.15-6.34 2.58-9.6.28-2.12-.6-4.39-1.13-7.66-3.09 2.82-5.57 4.98-7.93 7.27-2.55 2.47-5.13 4.37-8.73 5.65-6.06 2.14-11.93 4.03-18.45 4.06-2.52.01-4.99 1.87-7.58 2.34-3.18.57-6.48.39-9.69.83-5.45.76-10.46 2.86-14.82 6.16-4.43 3.35-8.6 6.84-14.78 5.59-4.21-.85-6.03-2.89-5.02-7 2.48-10.17 3.96-20.79 10.4-29.48 4.91-6.63 10.15-13.04 15.64-19.2 2.42-2.72 3.27-4.93 1.4-8.17-4.9-8.49-9.58-17.11-14.55-25.56-1.89-3.22-4.09-6.34-6.59-9.1-3.98-4.4-8.33-8.46-12.5-12.69-.53-.54-1.14-1.19-1.29-1.88-.89-4-1.64-8.02-2.45-12.04.28-.25.55-.5.83-.75 1.65.68 3.33 1.29 4.93 2.05 2.55 1.22 3.46.74 3.56-2.11.14-3.69.3-7.38.3-11.07 0-3.77.6-7.29 2.93-10.43.6-.8.56-2.1.75-3.18.99-5.46 1.96-10.92 2.99-16.71 2.25.62 3.82 1.05 5.68 1.56-1.16 8.06-2.28 16.01-3.47 23.95-.09.59-.78 1.07-1 1.66-.79 2.24-2.33 4.59-2.09 6.74.61 5.54-.22 10.7-2.37 15.71-.78 1.82-.44 2.9 1.02 4.31 2.81 2.71 5.21 5.83 7.87 8.71 3.8 4.12 6.19 3.76 7.56-1.52 1.82-6.98 3.1-14.1 4.62-21.16.14-.64.33-1.26.55-1.88.92-2.58 1.91-5.15 2.79-7.74.39-1.16.31-2.58.96-3.51.77-1.09 2.03-2.19 3.25-2.44.56-.12 2 1.7 2.21 2.8.35 1.82.19 3.79-.07 5.65-.25 1.75-1.38 3.47-1.32 5.16.24 6.18-1.48 11.88-3.63 17.51-1.05 2.75-2.19 5.47-3.34 8.18-.44 1.02-.96 2.03-1.59 2.95-3.83 5.54-3.09 10.48 1.33 15.45 1.87 2.11 2.91 4.99 4.2 7.58 1.34 2.7 2.33 5.59 3.85 8.18 2.48 4.24 6.12 5.09 10.28 2.58 4.17-2.51 8.43-5.04 10.94-9.41 1.81-3.15 3.24-6.04 2.22-10.4-1.23-5.27-.44-11.08-.14-16.63.16-3.05.6-6.16 1.09-9.2.53-3.28-.45-7.35-4.18-9.95-3.15-2.2-4.72-5.79-6.49-9.37-1.6-3.22-1.86-7.5-5.67-9.85-2.85-1.76-2.53-9.07-1.31-12.33 2.12-5.67 7.71-9.72 7.57-16.4-.01-.5.35-1.07.68-1.5 6.5-8.62 9.81-18.77 13.83-28.58.29-.71.62-1.41.91-2.08 4.99-.01 5.87.77 6.06 5.41.16 3.87-.77 7.05-3.34 10.43-3.32 4.36-4.99 9.93-7.67 14.83-1.28 2.34-3.22 4.33-4.86 6.47-.26.35-.78.71-.76 1.04.28 4.35-3.37 6.63-5.16 9.87-2.33 4.24-2 6.79.87 10.75 2.15 2.96 3.55 6.44 5.56 9.51 1.37 2.1 3.21 3.89 5.22 5.54.9-8.59 2.68-16.42 6.83-24.39 3.51 5.13 5.31 9.49 3.63 15.01-1.65 5.43-1.29 5.99 1.33 8.95 5.64-5.74 11.26-11.47 17.26-17.58.42 3.43.65 6.17-1.44 8.67-3.07 3.68-5.5 8.09-9.14 11.05-4.23 3.44-5.78 7.93-7.55 12.56-.12.31-.21.69-.44.9-4.66 4.27-3.83 9.89-3.97 15.34-.12 4.67-.66 9.33-1.08 14.9 1.75-.75 3.51-1.05 4.62-2.05 9.48-8.55 18.5-17.53 25.68-28.2.66-.98 1.85-1.6 2.79-2.39.35.21.7.42 1.05.63-1.18 3.87-2.49 7.71-3.49 11.62-.49 1.95-.7 4.08-.52 6.08.67 7.31 1.55 14.6 2.35 21.9-3.27 4.55-.93 9.74-1.52 14.61-.83 6.88-.73 13.89-.79 20.84-.01 1.44 1.54 2.9 1.52 4.34-.1 6.97-.07 14-.91 20.9-.88 7.23-5.07 13-10.04 18.2-2.45 2.57-4.5 5.52-6.98 8.06-1.27 1.3-3.11 2.03-4.63 3.1-.68.48-1.64 1.11-1.74 1.78-.44 2.9-2.66 4.12-4.63 5.79-8.37 7.05-16.68 14.18-24.76 21.54-1 .91-1.27 3.85-.57 5.15 2.21 4.11 5.03 7.89 7.65 11.78.22.33.78.78 1.04.7 3.39-1.07 6.3.3 9.24 1.68.35.17 1.04.15 1.3-.09 4.06-3.64 9.3-1.79 13.41-1.52 5.22.34 9.62-1.96 14.48-1.87 4.13.08 7.87-.17 11.73-2.5 2.59-1.57 6.48-1.1 9.8-1.35 2.76-.21 5.55-.19 8.32-.17.96.01 1.97.21 2.88.54 4.29 1.58 8.62 3.08 12.8 4.91 2.14.94 4.23 2.27 5.91 3.88 1.88 1.79 3.23 1.24 4.45-.36 1.49-1.95 2.61-4.18 4.09-6.14 1.25-1.67 2.81-3.1 4.16-4.69.7-.82 1.47-1.68 1.87-2.66 1.25-3.11 2.47-6.24 3.43-9.45.8-2.67 2.33-4.2 5.11-4.45 1.92 4.13.51 10.57-2.7 14.3-1.6 1.86-2.56 4.27-3.89 6.38-.69 1.09-1.54 2.09-2.38 3.08-.85 1-1.96 1.83-2.64 2.93-2.43 3.95-4.4 7.63-.12 12.09 2.52 2.63 3.71 6.57 5.35 9.99 3.55 7.39 3.61 14.91.34 22.39-2.03 4.65-1.94 8.98.7 13.41 4.55 7.64 7.65 15.82 7.98 25.6-1-.67-2.39-1.11-2.95-2.05-2.03-3.41-3.83-6.96-5.61-10.51-1.23-2.44-2.23-4.99-3.44-7.45-.3-.62-1-1.05-1.51-1.56-.54.6-1.21 1.14-1.61 1.82-1.64 2.78-2.98 5.77-4.87 8.35-1.1 1.5-3.04 2.38-4.59 3.53-.39-.19-.79-.37-1.18-.56.18-1.85-.27-4.14.66-5.49 5.1-7.39 5.98-16.2 8.59-24.41.91-2.86 1.32-5.88 1.9-8.83 2.02-10.34-8.75-24.93-16.73-28.73-5.93-2.83-11.67-4.78-18.12-5.29-2.52-.2-4.97-1.21-7.45-1.88-2.39-.64-4.82-2.19-7.05.38-.18.21-.67.31-.95.24-4.54-1.19-8.09 1.91-12.15 2.71-3.99.79-8.16.61-12.25.94-2.74.22-5.47.54-8.19.91-4.06.56-8.1 1.34-12.18 1.75-1.99.2-3.09.76-3.99 2.72-3.73 8.11-4.37 16.97-6.57 25.44-.5 1.91-1.21 3.86-2.27 5.52-2.35 3.69-2.81 7.36-1.17 11.47 1.77 4.45 3.21 9.03 4.84 13.53 1.67 4.62 1.68 9.11-1.59 14.06zm40.44-234.32c-2.8 3.27-5.51 6.43-8.2 9.61-6.41 7.56-15.85 11.11-23.11 17.53-4.28-.48-6.5 2.35-8.7 5.31-.34.46-1.18.59-1.82.77-2.11.57-3.01 1.76-3.15 4.08-.06 1.06-1.77 2.9-2.71 2.88-6.27-.08-10.74 2.84-14.5 7.53-2.66 3.31-5.43 6.58-8.46 9.54-4.95 4.82-4.28 10.65-3.45 16.56.11.75.8 1.42 1.22 2.12-.25-.41-.51-.81-.76-1.22 2.53-1.99 5.07-3.96 7.57-5.99 1.62-1.32 3.37-2.55 4.71-4.12 2.46-2.89 4.54-6.11 7.03-8.99 1.28-1.47 2.95-2.73 4.68-3.65 2.32-1.23 3.63-.16 3.34 2.46-.49 4.52-2.67 8.2-5.61 11.57-1.02 1.17-1.66 2.68-2.47 4.03.2.28.41.56.61.85 1.22-.24 2.84-.07 3.6-.79 3.17-3.02 7.09-3.19 10.99-3.16 9.9.07 19.22-2.03 28.23-6.18 5.5-2.54 7.98-7.18 9.8-12.29.99-2.77.28-6.2 1.47-8.82 2.35-5.22 3.57-10.37 3.13-16.15-.46-6.01-.04-12.07-.18-18.11-.08-2.26-.21-4.77-3.26-5.37z" fill="#010102"/><path d="m130.11 49.83c2.92 2.85 3.19 5.5 1.05 9.66-.87-.3-1.81-.54-2.68-.95-1.35-.64-2.64-1.39-3.96-2.1.93-1.45 1.77-2.98 2.84-4.33.67-.85 1.69-1.43 2.75-2.28z" fill="#010102"/><g fill="#fcfbfa"><path d="m385.2 377.6.6-.7c.6.4 1.3.9 1.9 1.5l-.6.7c-.8-.5-1.4-1-1.9-1.5zm.3 7.1c.6-1.4 1.1-2.9 1.5-4.5.3.1.6.3.9.4-.5 1.4-1 2.9-1.5 4.4zm.2-10.1.6-.6c.7.5 1.3 1.1 1.9 1.6l-.7.7c-.6-.6-1.2-1.2-1.8-1.7zm8.4-.8h.8v.9h1.8v.7h-1.8v1.8h-.8v-.3h-1.2v.9h3.3v2.6h-.8v-.4h-2.5c0 .3 0 .6-.1.8h3.4v.7h-3.5c0 .3-.1.6-.1.8h4v.7h-3.5c.7.9 1.9 1.3 3.6 1.5-.2.2-.4.5-.6.9-1.9-.3-3.2-1.1-3.8-2.3-.5 1.1-1.8 2-3.9 2.4-.2-.3-.4-.5-.6-.8 1.9-.4 3.1-.9 3.6-1.7h-3.2v-.7h3.5c.1-.2.1-.5.2-.8h-3.3v-.7h3.4c0-.2 0-.5 0-.8h-2.4v.3h-.8v-2.6h3.3v-.9h-1.2v.3h-.8v-1.8h-1.8v-.7h1.8v-.9h.8v.9h3.2zm-4.4 5.5h2.4c0-.3 0-.6 0-.9h-2.4zm1.2-3.1h3.2v-.8h-3.2zm4.4 2.2h-2.4v.9h2.5v-.9z"/><path d="m389.2 385.8h.9v1.5h1.9v-1.5h.9v1.5h2.7v6h1.1v.9h-11.3v-.9h1.1v-6h2.7zm.2 8.7.5.8c-1.2.6-2.5 1.3-4 1.9-.2-.3-.3-.6-.6-.8 1.6-.6 3-1.3 4.1-1.9zm-2-4.3h1.9v-2.1h-1.9zm0 3.1h1.9v-2.2h-1.9zm2.7-3.1h1.9v-2.1h-1.9zm0 3.1h1.9v-2.2h-1.9zm2.4 1.3c1.4.6 2.7 1.2 4.1 1.8l-.5.9c-1.5-.7-2.8-1.4-4.1-1.9zm2.2-6.5h-1.9v2.1h1.9zm-1.9 5.2h1.9v-2.2h-1.9z"/></g></svg>