<svg enable-background="new 0 0 400 400" viewBox="0 0 400 400" xmlns="http://www.w3.org/2000/svg"><path d="m195.55 279.39c0 3.11.1 6.23-.02 9.34-.29 7.37-.7 14.73-1.03 22.1-.25 5.46-.75 10.92-.58 16.37.16 5.32-.44 10.38-1.9 15.51-.95 3.34-.81 7.06-.73 10.6.14 6.57-1.81 12.57-4.49 18.39-.53 1.16-1.55 2.1-2.9 3.85-.55-2.56-1.25-4.34-1.26-6.12-.06-14.96-.08-29.93.05-44.89.08-10.06.5-20.13.59-30.19.02-2.4-.11-5.06-1.12-7.14-1.42-2.94-2.94-5.47.48-8.31-.32-.25-.64-.5-.95-.75-.9.51-2.06.82-2.64 1.57-3.99 5.21-7.93 10.48-11.75 15.82-1.39 1.94-2.51 4.1-3.58 6.24-3.64 7.29-8.42 13.36-16.34 16.16-.39-.21-.78-.42-1.17-.63.86-1.95 1.31-4.26 2.65-5.79 5.76-6.57 9.42-14.34 13.37-21.99 5.54-10.72 11.38-21.29 17.34-31.78 1.57-2.76 1.77-5.26 1.32-8.25-1.18-7.84-2.6-15.7-2.94-23.59-.52-12.16-.14-24.35-.31-36.52-.11-7.74-.11-8.47 3-14.78-1.3.55-2.18.92-2.78 1.18-5.75-7.68-11.51-15.24-17.08-22.93-1.21-1.68-1.73-3.85-2.63-5.76-1.54-3.25-1.89-7.24-5.68-9.12-.41-.21-.64-.9-.84-1.41-4.89-12.11-10.47-23.96-12.25-37.13-.52-3.87-2.32-7.58-3.53-11.36-.34.02-.68.04-1.02.06-2.35 3.77-4.7 7.54-7.03 11.33-.22.36-.46.87-.37 1.24 1.03 4.42-1.86 7.33-3.97 10.55-8.33 12.69-10.26 26.23-5.17 40.61 3.47 9.79 7.12 19.52 10.66 29.28.26.73.59 1.56.47 2.27-.24 1.5-.75 2.96-1.15 4.43-1.25-.66-2.76-1.07-3.72-2.02-6.27-6.26-8.87-14.31-10.65-22.69-.74-3.49-1.77-6.65-5.54-8.48-.87 2.05-1.67 3.98-2.51 5.9-1.08 2.45-1.79 5.19-3.36 7.27-4.68 6.19-7.32 13.21-9.54 20.53-.89 2.95-2.45 5.77-4.12 8.39-.93 1.45-2.71 2.36-4.11 3.51-.39-.21-.78-.42-1.17-.62.39-2.07.62-4.18 1.2-6.19 1.37-4.7 2.83-9.37 4.43-14 .46-1.33 1.78-2.36 2.23-3.69 1.43-4.2 2.79-8.44 3.87-12.74 1.19-4.76 2.03-9.61 3.08-14.68-1.26-1.19-2.4-1.55-3.88.3-2.09 2.61-4.37 5.1-6.74 7.48-2.67 2.69-5.87 4.41-10.03 4.45-.14-3.13.32-5.78 2.42-8.34 7.51-9.16 14.81-18.51 22.2-27.77.69-.87 1.38-1.82 2.27-2.44 4.74-3.29 7.18-7.94 8.8-13.36 2.34-7.82 5.85-15.11 10.07-22.19 3.93-6.58 6.59-13.92 9.8-20.92.55-1.2 1.12-2.4 1.64-3.53 4.17.36 6.4 2.01 7.38 6.32 3 13.29 5.84 26.69 10.07 39.61 3.67 11.19 8.98 21.87 13.92 32.61 1.39 3.01 4.06 5.44 6.14 8.13.31-.14.62-.28.93-.42-.36-6.18-.51-12.37-1.14-18.52-1.12-10.96-.5-21.76.83-32.71 1.01-8.31 3.4-15.8 6.89-23.23 2.07-4.41 3.13-9.27 4.86-13.86 1.33-3.53 2.78-7.03 4.52-10.36 2.74-5.23 6.26-10.1 8.56-15.5 2.84-6.68 8.96-9.18 15.2-8.44 10.19 1.21 19.71 4.85 28.72 9.74 2.55 1.38 5.17 2.76 7.42 4.57 3.8 3.05 7.96 3.05 12.36 2.23 8.13-1.51 16.23-3.27 24.61-2.03 4.04.6 5.73 1.62 7.99 5.91-3.98.43-7.64.93-11.32 1.2-4.01.3-8.08.07-12.03.69-2.46.39-4.73 1.92-7.69 3.2 1.55 1.62 2.38 2.48 3.2 3.35 7.34 7.84 14.95 15.45 21.87 23.65 2.75 3.26 4.03 7.8 5.78 11.85.27.62-.37 2.3-.85 2.41-.87.21-2.36-.05-2.86-.69-5.52-7-13.23-11.31-20.11-16.63-3.52-2.71-6.68-5.88-10.03-8.81-1.42-1.24-2.75-2.7-4.39-3.53-2.45-1.24-4.68-.9-6.15 1.94-2.46 4.77-5.03 9.48-7.68 14.14-2.03 3.57-4.63 6.54-9.54 7.3-.19-1.77-.7-3.42-.48-4.97.72-4.91 1.26-9.74 4.04-14.3 2.49-4.08 3.6-9.06 4.94-13.75.33-1.17-.36-3.28-1.32-4.06-6.8-5.55-14.2-10.33-22.75-12.5-7.74-1.97-7.9-1.87-11.48 5.63-4.58 9.57-9.12 19.18-13.17 28.98-3.02 7.3-4.95 15.04-7.91 22.37-4.62 11.43-1.6 22.92-.87 34.39.64 10.04 1.62 20.06 2.59 30.07.17 1.8.99 3.54 1.5 5.31.56 1.92 1.18 3.82 1.64 5.76.52 2.16.9 4.34 1.54 7.53 1.46-2.79 2.42-4.71 3.46-6.59 4.22-7.61 8.37-15.26 12.77-22.77 1.57-2.68 3.78-4.98 5.7-7.45 7.7-9.88 15.34-19.82 23.17-29.6 1.85-2.3 4.26-4.21 6.65-5.99 1.82-1.36 3.29-.8 4.54 1.38 7.67 13.44 12.09 28.07 16.04 42.89.66 2.48 1.39 4.96 2.37 7.32 1.67 4.04 4.32 7.05 8.56 8.89 8.71 3.78 17.3 7.86 25.83 12.04 3.29 1.61 6.39 3.68 9.33 5.88.91.68.98 2.5 1.43 3.79-1.2.25-2.56 1-3.59.68-5.86-1.81-11.62-3.94-17.45-5.85-4.22-1.38-8.5-2.56-13.62-4.09.97 4.9 1.72 9.03 2.62 13.13 1.47 6.65 3.28 13.23 4.47 19.93.73 4.11.27 8.26-4.11 10.96-6.01-10.71-10.37-21.8-13.74-33.3-.88-2.98-1.65-5.98-4.56-7.96-6.62 10.37-6.85 24.08-18.04 32.07-2.62-4.9-1.61-9.72.54-13.4 2.56-4.37 3.46-8.84 4.35-13.56.44-2.37 1.11-4.81 2.27-6.89 1.65-2.97 2.2-5.91 2.02-9.27-.14-2.56.66-5.17.98-7.77.13-1.07.38-2.25.1-3.24-3.23-11.28-6.53-22.54-9.86-33.79-.27-.92-.83-1.74-1.24-2.58-.51.16-.8.16-.9.3-9.16 12.07-19.59 23.4-27.06 36.44-6.54 11.41-16.09 20.95-20.6 33.53-.15.42-.3.99-.62 1.17-3.85 2.04-3.2 5.49-2.51 8.7 2.06 9.61-.6 19.18-.06 28.75.39 6.91 1.14 13.8 1.92 20.68.13 1.17 1.12 2.29 1.87 3.32 2.62 3.58 6.2 6.75 7.8 10.73 6.05 15.07 14.77 28.57 23.47 42.11 5.57 8.68 10.95 17.44 13.74 27.48.82 2.95 1.22 6.01 1.99 9.97-1.6-.82-2.36-1-2.8-1.47-13.18-13.97-23.51-29.8-30.91-47.53-1.38-3.3-2.53-6.74-4.34-9.79-1.54-2.59-3.88-4.7-5.86-7.02-.41.17-.81.37-1.21.56z" fill="#010102"/><g fill="#fcfbfa"><path d="m385.2 377.6.6-.7c.6.4 1.3.9 1.9 1.5l-.6.7c-.8-.5-1.4-1-1.9-1.5zm.3 7.1c.6-1.4 1.1-2.9 1.5-4.5.3.1.6.3.9.4-.5 1.4-1 2.9-1.5 4.4zm.2-10.1.6-.6c.7.5 1.3 1.1 1.9 1.6l-.7.7c-.6-.6-1.2-1.2-1.8-1.7zm8.4-.8h.8v.9h1.8v.7h-1.8v1.8h-.8v-.3h-1.2v.9h3.3v2.6h-.8v-.4h-2.5c0 .3 0 .6-.1.8h3.4v.7h-3.5c0 .3-.1.6-.1.8h4v.7h-3.5c.7.9 1.9 1.3 3.6 1.5-.2.2-.4.5-.6.9-1.9-.3-3.2-1.1-3.8-2.3-.5 1.1-1.8 2-3.9 2.4-.2-.3-.4-.5-.6-.8 1.9-.4 3.1-.9 3.6-1.7h-3.2v-.7h3.5c.1-.2.1-.5.2-.8h-3.3v-.7h3.4c0-.2 0-.5 0-.8h-2.4v.3h-.8v-2.6h3.3v-.9h-1.2v.3h-.8v-1.8h-1.8v-.7h1.8v-.9h.8v.9h3.2zm-4.4 5.5h2.4c0-.3 0-.6 0-.9h-2.4zm1.2-3.1h3.2v-.8h-3.2zm4.4 2.2h-2.4v.9h2.5v-.9z"/><path d="m389.2 385.8h.9v1.5h1.9v-1.5h.9v1.5h2.7v6h1.1v.9h-11.3v-.9h1.1v-6h2.7zm.2 8.7.5.8c-1.2.6-2.5 1.3-4 1.9-.2-.3-.3-.6-.6-.8 1.6-.6 3-1.3 4.1-1.9zm-2-4.3h1.9v-2.1h-1.9zm0 3.1h1.9v-2.2h-1.9zm2.7-3.1h1.9v-2.1h-1.9zm0 3.1h1.9v-2.2h-1.9zm2.4 1.3c1.4.6 2.7 1.2 4.1 1.8l-.5.9c-1.5-.7-2.8-1.4-4.1-1.9zm2.2-6.5h-1.9v2.1h1.9zm-1.9 5.2h1.9v-2.2h-1.9z"/></g></svg>