<svg enable-background="new 0 0 400 400" viewBox="0 0 400 400" xmlns="http://www.w3.org/2000/svg"><path d="m228.98 302.15c-2.61-1.22-5.13-2.09-7.32-3.47-8.41-5.33-16.66-10.9-25.08-16.22-2.66-1.68-4.67-3.62-5.6-6.71-.36-1.19-1.26-2.92-2.18-3.11-2.36-.5-5.48-1.2-7.18-.1-2.27 1.47-1.68 4.72-.24 7.03 3.54 5.7 7.3 11.26 10.92 16.92.71 1.11 1.53 2.32 1.73 3.57.88 5.49 4.49 9.6 6.73 14.37 3.61 7.72 6.17 15.99 8.5 24.22 2.73 9.65 3.35 19.82 7.34 29.2.85 2 .53 4.51.79 7.21-3.33-.33-6.03-.36-8.59-.98-.89-.21-1.76-1.77-2.1-2.87-4.32-14.22-8.54-28.47-12.79-42.71-.32-1.07-.48-2.22-.97-3.2-7.37-14.46-14.65-28.98-22.27-43.32-3.27-6.16-6.07-12.14-4.5-19.39.61-2.81.8-5.81.61-8.69-.56-8.6 2.55-16.19 5.88-23.8 1.34-3.06 2.64-6.19 3.48-9.41 1.2-4.58-.53-6.79-5.18-7.3-1.11-.12-2.23-.16-3.35-.25-4.2-.35-5.19-1.48-6.19-5.49-.68-2.72-2.35-5.2-3.02-7.92-.95-3.87-1.48-7.86-2.02-11.82-1.42-10.58.77-20.84 3.44-30.93 2.79-10.57 5.93-21.08 9.61-31.36 1.49-4.17 4.64-7.81 7.36-11.44 1.6-2.14 3.47-1.72 4.33.9.53 1.61.49 3.53.24 5.24-.55 3.77.06 6.86 2.96 9.7 3.5 3.44 6.68 7.25 9.71 11.12 2.34 2.99 5.07 4.94 9.72 5.23 1.99-4.09 4.14-8.57 6.33-13.03 2.12-4.31 3.84-5.71 8.54-6.81-.69 5.39-1.36 10.63-2.04 15.88-.17 1.33-.37 2.66-.53 3.99-.57 4.64-1.29 9.03-4.32 13.08-3.82 5.11-4.1 15.86 2.47 21.89 7.22 6.62 13 14.39 18.31 22.61 3.07 4.76 7.08 8.92 10.56 13.43 1.63 2.11 3.06 4.39 4.47 6.66 1.46 2.35 1.38 4.36-1.42 5.77-2.47 1.25-5.01.45-6.69-1.79-3.41-4.54-6.97-8.96-10.58-13.34-.83-1.01-2.02-1.76-3.14-2.49-5.22-3.45-6.62-3.04-9.25 2.47-5.11 10.72-8.26 22.4-15.56 32.04-2.48 3.28-5.13 6.43-7.74 9.61-.71.86-1.62 1.56-2.3 2.43-2.73 3.51-2.61 4.85.77 7.63 3.4 2.8 6.25 6.48 11.18 6.89.75.06 1.46.95 2.14 1.52 7.55 6.29 15.05 12.65 22.65 18.88 2.63 2.15 3.24 4.57 1.38 8.46zm-50.22-46.56c5.25.9 6.58.02 7.89-4.21 1.37-4.43 2.24-9.17 4.46-13.14 4.58-8.19 9.69-16.04 12.37-25.16.58-1.99 1.69-3.89 2.83-5.66 4.8-7.39 4.3-13.66-1.85-19.93-1.45-1.48-3.2-2.67-4.93-4.1-4.36 5.07-7.21 10.49-7.66 17-.52 7.51-1.27 14.94-6.17 21.2-.66.84-.94 2.03-1.21 3.1-1.65 6.49-3.47 12.94-4.79 19.5-.75 3.65-.65 7.48-.94 11.4zm-2.04-112.28c-6.61 9.99-3.95 22.06 6.11 27.53 1.42.77 3.86.97 5.24.27 3.48-1.74 5.61-9.65 3.72-13.1-3.51-6.42-8.75-11.12-15.07-14.7zm-9.74 45.07c.06 1.19.04 1.98.16 2.74.58 3.65 1.49 3.89 5.13 3.2 4-.76 4.72-3.95 6.03-6.76 2.97-6.33 2-8.54-4.49-10.68-3.2-1.06-5.01-.08-5.66 3.32-.53 2.84-.82 5.72-1.17 8.18z" fill="#010100"/><path d="m257.49 153.24c-1.03 5.55-1.79 11.1-3.25 16.47-.35 1.29-2.92 2.31-4.66 2.79-1.96.55-2.82-.96-3.35-2.81-3.28-11.61-5.52-23.33-2.62-35.32.98-4.06 3.03-7.86 4.55-11.79.86-2.23 2.42-1.97 3.59-.66 1.04 1.18 1.86 2.81 2.13 4.36.52 2.95.8 5.99.78 8.98-.03 5.49-.11 10.95 2.31 16.08.3.59.37 1.28.52 1.9z" fill="#010100"/><path d="m202.34 75.56c-4.07-3.02-5.7-6.61-5.74-11.16-.11-10.88.86-21.61 4.11-32.04.74-2.39 1.98-4.62 2.98-6.93 4.17 1.98 5.15 4.32 4.91 9.58-.27 5.78-.81 11.62-.23 17.34.74 7.19-1.71 13.62-3.42 20.26-.3 1.14-1.74 2-2.61 2.95z" fill="#010100"/><path d="m144.55 87.71c5.54 4.65 6.52 10.78 5.45 17.11-1.32 7.79-3.29 15.49-5.33 23.14-.78 2.95-2.26 6.55-5.87 6.17-1.13-.12-2.61-4.56-2.55-6.99.35-13.54 1.48-26.98 8.3-39.43z" fill="#010100"/><g fill="#fcfafa"><path d="m342.2 3.2-6.3 9.2h6.1v1.2h-8.2v-.5l6.2-9.1h-5.7v-1.2h7.8v.4z"/><path d="m344 13.7v-10.9h3.1c1.6 0 3 .5 4.1 1.4 1.1 1 1.6 2.2 1.6 3.9s-.5 3-1.6 4-2.5 1.5-4.2 1.5h-3zm1.4-9.6v8.4h1.6c1.4 0 2.5-.4 3.2-1.1.8-.8 1.2-1.8 1.2-3.2s-.4-2.4-1.2-3.1-1.8-1-3.1-1z"/><path d="m356.3 2.8v10.9h-1.4v-10.9z"/><path d="m366.6 13.2c-.8.4-1.8.6-3 .6-1.6 0-2.8-.5-3.7-1.5s-1.4-2.3-1.4-3.9c0-1.7.5-3.2 1.6-4.2s2.4-1.6 4-1.6c1 0 1.9.1 2.6.4v1.5c-.8-.4-1.6-.6-2.6-.6-1.2 0-2.2.4-3 1.2s-1.1 1.9-1.1 3.3c0 1.3.4 2.3 1.1 3.1s1.6 1.1 2.8 1.1c1.1 0 2-.2 2.8-.7v1.3z"/><path d="m368.2 13c0-.3.1-.5.3-.6.2-.2.4-.3.6-.3.3 0 .5.1.7.3s.3.4.3.6-.1.5-.3.6c-.2.2-.4.3-.7.3s-.5-.1-.6-.3c-.2-.2-.3-.4-.3-.6z"/><path d="m381.1 13.7h-1.7l-5.5-8.4c-.2-.2-.3-.5-.4-.7 0 .2.1.8.1 1.5v7.6h-1.4v-10.9h1.8l5.3 8.3c.3.4.4.6.4.8 0-.3-.1-.8-.1-1.6v-7.5h1.4v10.9z"/><path d="m389.7 13.7h-5.8v-10.9h5.6v1.2h-4.2v3.5h3.9v1.2h-3.9v3.7h4.4z"/><path d="m398.4 4.1h-3.1v9.6h-1.4v-9.6h-3.1v-1.3h7.7v1.3z"/></g></svg>